<svg xmlns="http://www.w3.org/2000/svg" width="24" height="24" viewBox="0 0 24 24">
  <g id="그룹_3178" data-name="그룹 3178" transform="translate(-23 -416)">
    <g id="그룹_3180" data-name="그룹 3180">
      <g id="Icon_feather-settings" data-name="Icon feather-settings" transform="translate(23.21 416.5)">
        <path id="패스_470" data-name="패스 470" d="M18.976,16.238A2.738,2.738,0,1,1,16.238,13.5,2.738,2.738,0,0,1,18.976,16.238Z" transform="translate(-4.698 -4.698)" fill="none" stroke="#fff" stroke-linecap="round" stroke-linejoin="round" stroke-width="1.8"/>
        <path id="패스_471" data-name="패스 471" d="M18.294,14.278a1.506,1.506,0,0,0,.3,1.661l.055.055a1.826,1.826,0,1,1-2.583,2.583l-.055-.055A1.518,1.518,0,0,0,13.438,19.6v.155a1.825,1.825,0,0,1-3.651,0v-.082A1.506,1.506,0,0,0,8.8,18.294a1.506,1.506,0,0,0-1.661.3l-.055.055A1.826,1.826,0,1,1,4.5,16.067l.055-.055a1.518,1.518,0,0,0-1.077-2.574H3.325a1.825,1.825,0,1,1,0-3.651h.082A1.506,1.506,0,0,0,4.786,8.8a1.506,1.506,0,0,0-.3-1.661L4.43,7.086A1.826,1.826,0,1,1,7.013,4.5l.055.055a1.506,1.506,0,0,0,1.661.3H8.8a1.506,1.506,0,0,0,.913-1.378V3.325a1.825,1.825,0,0,1,3.651,0v.082a1.518,1.518,0,0,0,2.574,1.077l.055-.055a1.826,1.826,0,1,1,2.583,2.583l-.055.055a1.506,1.506,0,0,0-.3,1.661V8.8a1.506,1.506,0,0,0,1.378.913h.155a1.825,1.825,0,0,1,0,3.651h-.082a1.506,1.506,0,0,0-1.378.913Z" fill="none" stroke="#fff" stroke-linecap="round" stroke-linejoin="round" stroke-width="1.8"/>
      </g>
      <rect id="사각형_2303" data-name="사각형 2303" width="24" height="24" transform="translate(23 416)" fill="none"/>
    </g>
  </g>
</svg>
