<svg xmlns="http://www.w3.org/2000/svg" xmlns:xlink="http://www.w3.org/1999/xlink" width="24" height="24" viewBox="0 0 24 24">
  <defs>
    <clipPath id="clip-path">
      <rect id="사각형_398" data-name="사각형 398" width="24" height="24" fill="none"/>
    </clipPath>
  </defs>
  <g id="그룹_1110" data-name="그룹 1110" transform="translate(0 -0.172)">
    <g id="그룹_1109" data-name="그룹 1109" transform="translate(0 0.172)" clip-path="url(#clip-path)">
      <path id="패스_88" data-name="패스 88" d="M7.072,6.218a4.417,4.417,0,0,0,3.9,3.594,4.425,4.425,0,0,1-3.9-3.594" transform="translate(0.77 0.546)"/>
      <path id="패스_89" data-name="패스 89" d="M11.428,1.5a4.425,4.425,0,0,1,.3,8.839A4.425,4.425,0,1,0,7.066,5.216,4.431,4.431,0,0,1,11.428,1.5" transform="translate(0.769 0.033)"/>
      <path id="패스_90" data-name="패스 90" d="M10.589,9.459a4.4,4.4,0,0,0,.456.047c.1,0,.2-.024.3-.031-.1.007-.2.03-.3.03a4.4,4.4,0,0,1-.456-.045" transform="translate(1.152 0.899)"/>
      <path id="패스_91" data-name="패스 91" d="M7.08,6.367a4.486,4.486,0,0,1-.08-.8,4.409,4.409,0,0,1,.072-.72A4.409,4.409,0,0,0,7,5.571a4.385,4.385,0,0,0,.081.8" transform="translate(0.762 0.398)"/>
      <path id="패스_92" data-name="패스 92" d="M7.081,6.731a4.421,4.421,0,0,0,3.9,3.593,4.146,4.146,0,0,0,.456.047c.1,0,.2-.023.3-.031A4.425,4.425,0,1,0,7.073,5.216,4.4,4.4,0,0,0,7,5.935a4.385,4.385,0,0,0,.081.8m4.354-3.014A2.218,2.218,0,1,1,9.218,5.935a2.22,2.22,0,0,1,2.218-2.218" transform="translate(0.762 0.033)" fill="#fff"/>
      <path id="패스_93" data-name="패스 93" d="M11.979,10.5a9.982,9.982,0,0,0-9.928,8.959,9.98,9.98,0,0,1,19.908,1.02v1.109h0V20.479A9.979,9.979,0,0,0,11.979,10.5" transform="translate(0.218 1.012)"/>
      <path id="패스_94" data-name="패스 94" d="M2.052,18.58A9.984,9.984,0,0,0,2,19.6v1.109H2V19.6a9.991,9.991,0,0,1,.051-1.02" transform="translate(0.218 1.892)"/>
      <path id="패스_95" data-name="패스 95" d="M21.959,20.479A9.98,9.98,0,0,0,2.051,19.46C2.018,19.8,2,20.136,2,20.479v1.109H21.959ZM4.3,19.371a7.762,7.762,0,0,1,15.365,0Z" transform="translate(0.218 1.012)" fill="#fff"/>
    </g>
  </g>
</svg>
