<svg id="그룹_3041" data-name="그룹 3041" xmlns="http://www.w3.org/2000/svg" width="29.383" height="18.952" viewBox="0 0 29.383 18.952">
  <path style="fill:#009DE8" id="패스_1348" data-name="패스 1348" d="M202.982,523.877h-.875q2.2-2.915,3.185-4.377a13.318,13.318,0,0,0,1.291-2.224,4.176,4.176,0,0,0,.3-1.559,5.291,5.291,0,0,0-.308-1.854,3.964,3.964,0,0,0-.867-1.4,4.865,4.865,0,0,0-1.34-.951,6.552,6.552,0,0,0-1.715-.563,10.674,10.674,0,0,0-2.019-.179,15.134,15.134,0,0,0-4.176.625l-.156-.742a15.477,15.477,0,0,1,4.31-.634,10.894,10.894,0,0,1,2.832.339,6.7,6.7,0,0,1,2.211,1.014,4.519,4.519,0,0,1,1.461,1.787,5.986,5.986,0,0,1,.518,2.555,4.962,4.962,0,0,1-.3,1.733,12.375,12.375,0,0,1-1.291,2.3Q205.048,521.248,202.982,523.877Zm-6.764,1.339v-.75h10.839v.75Zm0,3.47v-.75h10.839v.75Zm1.515-4.809h-.875q.73-.992,1.438-1.943c.474-.634.871-1.157,1.184-1.581s.625-.831.924-1.233.541-.728.724-.974.362-.478.527-.71.295-.406.38-.536.156-.25.223-.371a1.445,1.445,0,0,0,.129-.286.71.71,0,0,0,.031-.214.584.584,0,0,0-.4-.617,4.948,4.948,0,0,0-1.4-.134,12.741,12.741,0,0,0-3.256.429l-.156-.724a7.771,7.771,0,0,1,1.322-.295,12.1,12.1,0,0,1,2.037-.183,6.984,6.984,0,0,1,1.036.067,2.888,2.888,0,0,1,.8.232,1.186,1.186,0,0,1,.549.469,1.422,1.422,0,0,1,.188.755,2.253,2.253,0,0,1-.46,1.148q-.455.7-2.358,3.234Q198.779,522.467,197.733,523.877Z" transform="translate(-196.218 -510.021)" fill="#fff"/>
  <path style="fill:#009DE8" id="패스_1349" data-name="패스 1349" d="M284.076,525.5a11.622,11.622,0,0,1,0-9.809,8.072,8.072,0,0,1,14.521,0,11.624,11.624,0,0,1,0,9.809,8.072,8.072,0,0,1-14.521,0Zm.237-8.438a11.2,11.2,0,0,0,0,7.066,8.1,8.1,0,0,0,1.581,2.738,7.19,7.19,0,0,0,2.412,1.742,7.655,7.655,0,0,0,6.061,0,7.187,7.187,0,0,0,2.412-1.742,8.1,8.1,0,0,0,1.581-2.738,11.2,11.2,0,0,0,0-7.066,8.1,8.1,0,0,0-1.581-2.738,7.066,7.066,0,0,0-2.412-1.742,7.656,7.656,0,0,0-6.061,0,7.069,7.069,0,0,0-2.412,1.742A8.1,8.1,0,0,0,284.313,517.064ZM294.14,517a6.757,6.757,0,0,1,0,7.191,3.7,3.7,0,0,1-5.606,0,6.756,6.756,0,0,1,0-7.191,3.7,3.7,0,0,1,5.606,0Zm-5.074.527a6.168,6.168,0,0,0,0,6.137,2.958,2.958,0,0,0,4.543,0,6.169,6.169,0,0,0,0-6.137,2.958,2.958,0,0,0-4.543,0Z" transform="translate(-270.3 -511.034)" fill="#fff"/>
</svg>
