<svg xmlns="http://www.w3.org/2000/svg" width="24" height="24" viewBox="0 0 24 24">
  <g id="그룹_2074" data-name="그룹 2074" transform="translate(-36 -190)">
    <rect id="사각형_1533" data-name="사각형 1533" width="24" height="24" transform="translate(36 190)" fill="none"/>
    <g id="그룹_5391" data-name="그룹 5391" transform="translate(36 192.001)">
      <path id="패스_1982" data-name="패스 1982" d="M227.923,653.169a2.632,2.632,0,0,1-1.8-.7l-8.4-4.435a2.646,2.646,0,0,1,0-3.737l.148-.109,8.249-4.326a2.645,2.645,0,0,1,3.594,0l8.4,4.434a2.645,2.645,0,0,1,0,3.737l-.148.109-8.248,4.326A2.634,2.634,0,0,1,227.923,653.169Zm-9.389-6.065,8.384,4.429a1.423,1.423,0,0,0,2.009,0l.148-.109,8.235-4.32a1.422,1.422,0,0,0,0-1.885l-8.384-4.428a1.423,1.423,0,0,0-2.009,0l-.148.109-8.235,4.319A1.422,1.422,0,0,0,218.534,647.1Z" transform="translate(-216.956 -639.154)" fill="#fff"/>
      <path id="패스_1983" data-name="패스 1983" d="M229.789,665.467a.612.612,0,0,1-.3-.077l-7.568-4.2a.611.611,0,0,1-.315-.534v-5.065a.611.611,0,0,1,1.222,0v4.706l6.952,3.862,6.853-3.973v-4.594a.611.611,0,0,1,1.222,0v4.946a.61.61,0,0,1-.3.528l-7.458,4.324A.613.613,0,0,1,229.789,665.467Z" transform="translate(-218.768 -645.312)" fill="#fff"/>
      <path id="패스_1984" data-name="패스 1984" d="M252.3,658.161a.632.632,0,0,1-.176-.026c-2.7-.812-2.7-4.075-2.316-5.687a.611.611,0,0,1,1.189.279c-.008.036-.8,3.554,1.479,4.238a.611.611,0,0,1-.176,1.2Z" transform="translate(-229.671 -644.145)" fill="#fff"/>
    </g>
  </g>
</svg>
