<svg xmlns="http://www.w3.org/2000/svg" width="30" height="30" viewBox="0 0 30 30">
  <g id="그룹_3245" data-name="그룹 3245" transform="translate(-1481 -238)">
    <rect id="사각형_2354" data-name="사각형 2354" width="30" height="30" transform="translate(1481 238)" fill="none"/>
    <g id="Icon_feather-printer" data-name="Icon feather-printer" transform="translate(1485.688 242.688)">
      <path id="패스_1593" data-name="패스 1593" d="M9,10.274V3H21.469v7.274" transform="translate(-4.844 -3)" fill="none" stroke="#111" stroke-linecap="round" stroke-linejoin="round" stroke-width="2"/>
      <path id="패스_1594" data-name="패스 1594" d="M7.156,22.852H5.078A2.078,2.078,0,0,1,3,20.774v-5.2A2.078,2.078,0,0,1,5.078,13.5H21.7a2.078,2.078,0,0,1,2.078,2.078v5.2A2.078,2.078,0,0,1,21.7,22.852H19.625" transform="translate(-3 -6.226)" fill="none" stroke="#111" stroke-linecap="round" stroke-linejoin="round" stroke-width="2"/>
      <path id="패스_1595" data-name="패스 1595" d="M9,21H21.469v8.313H9Z" transform="translate(-4.844 -8.531)" fill="none" stroke="#111" stroke-linecap="round" stroke-linejoin="round" stroke-width="2"/>
    </g>
  </g>
</svg>
