<svg xmlns="http://www.w3.org/2000/svg" width="24" height="24" viewBox="0 0 24 24">
  <g id="그룹_3177" data-name="그룹 3177" transform="translate(-23 -894)">
    <path id="Icon_awesome-youtube" data-name="Icon awesome-youtube" d="M22.907,6.956a2.8,2.8,0,0,0-1.974-1.986C19.192,4.5,12.212,4.5,12.212,4.5s-6.981,0-8.722.469A2.805,2.805,0,0,0,1.516,6.956a29.425,29.425,0,0,0-.466,5.408,29.425,29.425,0,0,0,.466,5.408A2.763,2.763,0,0,0,3.49,19.727c1.741.469,8.722.469,8.722.469s6.981,0,8.722-.469a2.763,2.763,0,0,0,1.974-1.955,29.425,29.425,0,0,0,.466-5.408,29.425,29.425,0,0,0-.466-5.408ZM9.929,15.683V9.045l5.835,3.319L9.929,15.683Z" transform="translate(22.949 893.5)" fill="#fff"/>
    <rect id="사각형_2298" data-name="사각형 2298" width="24" height="24" transform="translate(23 894)" fill="none"/>
  </g>
</svg>
