<svg xmlns="http://www.w3.org/2000/svg" width="24" height="24" viewBox="0 0 24 24">
  <g id="그룹_3273" data-name="그룹 3273" transform="translate(-1212.895 -125.895)">
    <g id="그룹_2084" data-name="그룹 2084" transform="translate(1216.148 128.694)">
      <path id="패스_438" data-name="패스 438" d="M-16598.092,8230.843a.906.906,0,0,1-.908-.907v-10.786l8.232-6.244a.906.906,0,0,1,1.27.174.906.906,0,0,1-.172,1.272l-7.514,5.7v9.887A.908.908,0,0,1-16598.092,8230.843Z" transform="translate(16599 -8212.721)" fill="#fff"/>
      <path id="패스_439" data-name="패스 439" d="M-16590.219,8230.843a.906.906,0,0,1-.908-.907v-9.887l-7.514-5.7a.908.908,0,0,1-.172-1.272.907.907,0,0,1,1.27-.174l8.232,6.244v10.786A.906.906,0,0,1-16590.219,8230.843Z" transform="translate(16606.867 -8212.721)" fill="#fff"/>
      <path id="선_477" data-name="선 477" d="M16.337.815H0V-1H16.337Z" transform="translate(0.454 17.308)" fill="#fff"/>
    </g>
    <rect id="사각형_2353" data-name="사각형 2353" width="24" height="24" transform="translate(1212.895 125.895)" fill="none"/>
  </g>
</svg>
