<svg id="구성_요소_37_1" data-name="구성 요소 37 – 1" xmlns="http://www.w3.org/2000/svg" width="16" height="16" viewBox="0 0 16 16">
  <path id="패스_1978" data-name="패스 1978" d="M0,0H16V16H0Z" transform="translate(0 16) rotate(-90)" fill="none"/>
  <g id="다각형_19" data-name="다각형 19" transform="translate(15 1) rotate(90)" fill="none">
    <path d="M6.156,1.326a1,1,0,0,1,1.687,0l5.178,8.137A1,1,0,0,1,12.178,11H1.822A1,1,0,0,1,.978,9.463Z" stroke="none"/>
    <path d="M 6.999998569488525 3.725261688232422 L 3.643346786499023 8.999997138977051 L 10.35665512084961 8.999997138977051 L 6.999998569488525 3.725261688232422 M 7.000001430511475 0.8626317977905273 C 7.323594093322754 0.8626317977905273 7.647186279296875 1.017006874084473 7.843661308288574 1.325757026672363 L 13.02199172973633 9.463127136230469 C 13.44563102722168 10.12884712219238 12.96742153167725 10.99999713897705 12.17833137512207 10.99999713897705 L 1.821671485900879 10.99999713897705 C 1.032581329345703 10.99999713897705 0.5543718338012695 10.12884712219238 0.9780111312866211 9.463127136230469 L 6.156341552734375 1.325757026672363 C 6.352816581726074 1.017006874084473 6.676408767700195 0.8626317977905273 7.000001430511475 0.8626317977905273 Z" stroke="none" fill="#fff"/>
  </g>
</svg>
