<svg xmlns="http://www.w3.org/2000/svg" width="24" height="24" viewBox="0 0 24 24">
  <g id="그룹_4292" data-name="그룹 4292" transform="translate(-23 -777)">
    <rect id="사각형_2301" data-name="사각형 2301" width="24" height="24" transform="translate(23 777)" fill="none"/>
    <g id="그룹_4294" data-name="그룹 4294" transform="translate(-64.763 591.913)">
      <path id="패스_2247" data-name="패스 2247" d="M110.95,192.393h5.47a.269.269,0,0,0,.041,0c.043-.006,4.307-.7,4.38-5.026a.271.271,0,0,0-.272-.276l-5.177,0c-.043.006-4.345.669-4.712,5.008a.272.272,0,0,0,.27.3Z" transform="translate(-17.37 0)" fill="#fff"/>
      <path id="패스_2248" data-name="패스 2248" d="M107.463,222.95H89.032a.271.271,0,0,0-.271.271v4.948s.169,8.24,8.346,8.24c6.176,0,7.783-4.7,8.2-7h2.157a3.23,3.23,0,0,0,0-6.46Zm-.076,4.779a1.568,1.568,0,1,1,1.568-1.567A1.568,1.568,0,0,1,107.387,227.729Z" transform="translate(0 -28.422)" fill="#fff"/>
    </g>
  </g>
</svg>
