<svg xmlns="http://www.w3.org/2000/svg" width="30" height="30" viewBox="0 0 30 30">
  <g id="그룹_3247" data-name="그룹 3247" transform="translate(-1523.414 -238)">
    <rect id="사각형_2355" data-name="사각형 2355" width="30" height="30" transform="translate(1523.414 238)" fill="none"/>
    <g id="그룹_3246" data-name="그룹 3246" transform="translate(1528.724 242.565)">
      <g id="Icon_feather-share-2" data-name="Icon feather-share-2" transform="translate(0 0)">
        <path id="패스_1596" data-name="패스 1596" d="M28.512,6.006A3.006,3.006,0,1,1,25.506,3,3.006,3.006,0,0,1,28.512,6.006Z" transform="translate(-10.475 -3)" fill="none" stroke="#111" stroke-linecap="round" stroke-linejoin="round" stroke-width="2"/>
        <path id="패스_1597" data-name="패스 1597" d="M10.512,16.506A3.006,3.006,0,1,1,7.506,13.5,3.006,3.006,0,0,1,10.512,16.506Z" transform="translate(-4.5 -6.486)" fill="none" stroke="#111" stroke-linecap="round" stroke-linejoin="round" stroke-width="2"/>
        <path id="패스_1598" data-name="패스 1598" d="M28.512,27.006A3.006,3.006,0,1,1,25.506,24,3.006,3.006,0,0,1,28.512,27.006Z" transform="translate(-10.475 -9.971)" fill="none" stroke="#111" stroke-linecap="round" stroke-linejoin="round" stroke-width="2"/>
        <path id="패스_1599" data-name="패스 1599" d="M12.885,20.265l6.844,3.988" transform="translate(-7.284 -8.731)" fill="none" stroke="#111" stroke-linecap="round" stroke-linejoin="round" stroke-width="2"/>
        <path id="패스_1600" data-name="패스 1600" d="M19.719,9.765l-6.834,3.988" transform="translate(-7.284 -5.246)" fill="none" stroke="#111" stroke-linecap="round" stroke-linejoin="round" stroke-width="2"/>
      </g>
    </g>
  </g>
</svg>
