<svg xmlns="http://www.w3.org/2000/svg" width="24" height="24" viewBox="0 0 24 24">
  <g id="그룹_5328" data-name="그룹 5328" transform="translate(-1027.621 -260.325)">
    <rect id="사각형_3304" data-name="사각형 3304" width="24" height="24" transform="translate(1027.621 260.325)" fill="none"/>
    <g id="그룹_4441" data-name="그룹 4441" transform="translate(1028.343 260.842)">
      <path id="패스_2463" data-name="패스 2463" d="M1048.15,268.7H1029.9a2.2,2.2,0,0,1-1.043-4.136l9.144-4.214a2.194,2.194,0,0,1,2.066.011l9.087,4.185a2.2,2.2,0,0,1-1.005,4.155Zm-9.133-7.262a.84.84,0,0,0-.4.1l-.037.019-9.124,4.2a.82.82,0,0,0-.389.95.831.831,0,0,0,.835.65h18.248a.861.861,0,0,0,.408-1.619l-9.087-4.186A.964.964,0,0,0,1039.017,261.439Zm-.716-.489h0Z" transform="translate(-1027.7 -260.098)" fill="#fff"/>
      <g id="그룹_4440" data-name="그룹 4440" transform="translate(3.026 7.265)">
        <path id="패스_2464" data-name="패스 2464" d="M1036.1,281.125h-3.213a.669.669,0,0,1-.669-.669V271.62a.669.669,0,0,1,.669-.669h3.213a.67.67,0,0,1,.669.669v8.836A.67.67,0,0,1,1036.1,281.125Zm-2.544-1.339h1.874v-7.5h-1.874Z" transform="translate(-1032.221 -270.951)" fill="#fff"/>
        <path id="패스_2465" data-name="패스 2465" d="M1045.1,281.125h-3.213a.669.669,0,0,1-.669-.669V271.62a.669.669,0,0,1,.669-.669h3.213a.67.67,0,0,1,.669.669v8.836A.67.67,0,0,1,1045.1,281.125Zm-2.544-1.339h1.874v-7.5h-1.874Z" transform="translate(-1035.197 -270.951)" fill="#fff"/>
        <path id="패스_2466" data-name="패스 2466" d="M1054.1,281.125h-3.213a.669.669,0,0,1-.669-.669V271.62a.669.669,0,0,1,.669-.669h3.213a.67.67,0,0,1,.669.669v8.836A.67.67,0,0,1,1054.1,281.125Zm-2.544-1.339h1.874v-7.5h-1.874Z" transform="translate(-1038.172 -270.951)" fill="#fff"/>
      </g>
      <path id="패스_2467" data-name="패스 2467" d="M1049.172,287.9h-19.293a.669.669,0,0,1-.669-.669v-2.41a.669.669,0,0,1,.669-.669h19.293a.669.669,0,0,1,.669.669v2.41A.669.669,0,0,1,1049.172,287.9Zm-18.624-1.339H1048.5V285.49h-17.954Z" transform="translate(-1028.199 -268.051)" fill="#fff"/>
      <path id="패스_2468" data-name="패스 2468" d="M1049.623,292.3h-21.077a.669.669,0,0,1-.669-.669V288.42a.669.669,0,0,1,.669-.669h21.077a.669.669,0,0,1,.669.669v3.213A.669.669,0,0,1,1049.623,292.3Zm-20.408-1.339h19.738V289.09h-19.738Z" transform="translate(-1027.758 -269.241)" fill="#fff"/>
    </g>
  </g>
</svg>
