<svg xmlns="http://www.w3.org/2000/svg" width="24" height="24" viewBox="0 0 24 24">
  <g id="그룹_3174" data-name="그룹 3174" transform="translate(-23 -777)">
    <rect id="사각형_2301" data-name="사각형 2301" width="24" height="24" transform="translate(23 777)" fill="none"/>
    <g id="그룹_4293" data-name="그룹 4293" transform="translate(371.929 -354.958)">
      <path id="패스_2243" data-name="패스 2243" d="M-322.1,1181.408a.81.81,0,0,0-.81.81.81.81,0,0,0,.81.81.81.81,0,0,0,.81-.81A.81.81,0,0,0-322.1,1181.408Z" transform="translate(-21.693 -40.396)" fill="#fff"/>
      <path id="패스_2244" data-name="패스 2244" d="M-274.263,1180.9a.873.873,0,0,0-.873.873.872.872,0,0,0,.873.872.873.873,0,0,0,.873-.872A.873.873,0,0,0-274.263,1180.9Z" transform="translate(-61.525 -39.971)" fill="#fff"/>
      <path id="패스_2245" data-name="패스 2245" d="M-328.543,1132.958H-345.78a3.148,3.148,0,0,0-3.148,3.148v10.23a3.148,3.148,0,0,0,3.148,3.148h6.088l2.071,4.879s.143.423.488.423.488-.423.488-.423l2.071-4.879h6.032a3.148,3.148,0,0,0,3.148-3.148v-10.23A3.148,3.148,0,0,0-328.543,1132.958ZM-341.535,1142a1.949,1.949,0,0,1-1.943,1.924,1.616,1.616,0,0,1-1.17-.5v.337h-1.408v-5.807c-.006,0-.006,0,0,0v0c.087.014,1.408,0,1.408,0v2.221c.331-.565,1.289-.555,1.289-.555A2.062,2.062,0,0,1-341.535,1142Zm2.479-2.2v3.976h-1.378v-3.937c0-.535-.664-.684-.664-.684v-1.388A1.906,1.906,0,0,1-339.056,1139.8Zm3.267,4.127a2.225,2.225,0,0,1-2.311-2.127,2.225,2.225,0,0,1,2.311-2.127,2.224,2.224,0,0,1,2.31,2.127A2.224,2.224,0,0,1-335.788,1143.927Zm7.551,0a1.966,1.966,0,0,1-2.033,2.02h-.625v-1.309h.377s.862.079.853-1.249c0,0-.169.538-1.378.538a1.817,1.817,0,0,1-1.715-1.8v-.635a1.96,1.96,0,0,1,1.924-1.874,1.4,1.4,0,0,1,1.2.536v-.427h1.4Z" transform="translate(0)" fill="#fff"/>
      <path id="패스_2246" data-name="패스 2246" d="M-241.924,1181.019a.853.853,0,0,0-.853.853.853.853,0,0,0,.853.853.853.853,0,0,0,.853-.853A.853.853,0,0,0-241.924,1181.019Z" transform="translate(-88.504 -40.071)" fill="#fff"/>
    </g>
  </g>
</svg>
