<svg xmlns="http://www.w3.org/2000/svg" width="20" height="20" viewBox="0 0 20 20">
  <g id="그룹_4801" data-name="그룹 4801" transform="translate(-12 -12)">
    <g id="Icon_feather-image" data-name="Icon feather-image" transform="translate(8.5 8.5)">
      <path id="패스_2230" data-name="패스 2230" d="M6.435,3.5H19.982a2.939,2.939,0,0,1,2.935,2.935V19.982a2.939,2.939,0,0,1-2.935,2.935H6.435A2.939,2.939,0,0,1,3.5,19.982V6.435A2.939,2.939,0,0,1,6.435,3.5ZM19.982,20.917a.936.936,0,0,0,.935-.935V6.435a.936.936,0,0,0-.935-.935H6.435a.936.936,0,0,0-.935.935V19.982a.936.936,0,0,0,.935.935Z" fill="#fff"/>
      <path id="패스_2231" data-name="패스 2231" d="M11.951,9.5A2.451,2.451,0,1,1,9.5,11.951,2.454,2.454,0,0,1,11.951,9.5Zm0,2.9a.451.451,0,1,0-.451-.451A.452.452,0,0,0,11.951,12.4Z" transform="translate(-2.13 -2.13)" fill="#fff"/>
      <path id="패스_2232" data-name="패스 2232" d="M7.5,26.644a1,1,0,0,1-.707-1.707L17.437,14.293a1,1,0,0,1,1.414,0l4.838,4.838a1,1,0,0,1-1.414,1.414l-4.131-4.131L8.207,26.351A1,1,0,0,1,7.5,26.644Z" transform="translate(-1.065 -3.727)" fill="#fff"/>
    </g>
    <rect id="사각형_3539" data-name="사각형 3539" width="20" height="20" transform="translate(12 12)" fill="none"/>
  </g>
</svg>
