<svg xmlns="http://www.w3.org/2000/svg" width="24" height="24" viewBox="0 0 24 24">
  <g id="그룹_2100" data-name="그룹 2100" transform="translate(-32 -475)">
    <rect id="사각형_1534" data-name="사각형 1534" width="24" height="24" transform="translate(32 475)" fill="none"/>
    <g id="그룹_2099" data-name="그룹 2099" transform="translate(-171.567 329.433)">
      <g id="그룹_2096" data-name="그룹 2096" transform="translate(205 147)">
        <g id="그룹_2087" data-name="그룹 2087">
          <g id="그룹_2086" data-name="그룹 2086">
            <path id="패스_440" data-name="패스 440" d="M224.537,147H206.822A1.825,1.825,0,0,0,205,148.822v13.71a1.824,1.824,0,0,0,1.822,1.821h17.715a1.824,1.824,0,0,0,1.822-1.821v-13.71A1.824,1.824,0,0,0,224.537,147Zm.487,15.532a.487.487,0,0,1-.487.487H206.822a.487.487,0,0,1-.487-.487v-2.183h18.689Zm0-3.518H206.335V148.822a.487.487,0,0,1,.487-.487h17.715a.487.487,0,0,1,.487.487Z" transform="translate(-205 -147)" fill="#fff" stroke="#fff" stroke-width="0.4"/>
          </g>
        </g>
      </g>
      <g id="그룹_2098" data-name="그룹 2098" transform="translate(209.672 164.354)">
        <g id="그룹_2097" data-name="그룹 2097">
          <path id="패스_441" data-name="패스 441" d="M223.347,175.67h-1.154c-.213-.167-.848-.822-.848-2.67h-1.335a5.892,5.892,0,0,0,.535,2.67H215.47A5.892,5.892,0,0,0,216,173H214.67c0,1.833-.625,2.49-.855,2.67h-1.147a.667.667,0,1,0,0,1.335h10.679a.667.667,0,1,0,0-1.335Z" transform="translate(-212 -173)" fill="#fff" stroke="#fff" stroke-width="0.4"/>
        </g>
      </g>
    </g>
  </g>
</svg>
