<svg xmlns="http://www.w3.org/2000/svg" width="24" height="24" viewBox="0 0 24 24">
  <g id="그룹_3176" data-name="그룹 3176" transform="translate(-23 -853)">
    <g id="그룹_1775" data-name="그룹 1775" transform="translate(24 854)">
      <path id="패스_98" data-name="패스 98" d="M7.388,1.5H17.2A5.9,5.9,0,0,1,23.09,7.388V17.2A5.9,5.9,0,0,1,17.2,23.09H7.388A5.9,5.9,0,0,1,1.5,17.2V7.388A5.9,5.9,0,0,1,7.388,1.5ZM17.2,21.127A3.93,3.93,0,0,0,21.127,17.2V7.388A3.93,3.93,0,0,0,17.2,3.463H7.388A3.93,3.93,0,0,0,3.463,7.388V17.2a3.93,3.93,0,0,0,3.925,3.925Z" transform="translate(-1.5 -1.5)" fill="#fff"/>
      <path id="패스_99" data-name="패스 99" d="M15.469,10.435a4.933,4.933,0,0,1,.721.053,4.907,4.907,0,0,1,1.486,9.237,4.929,4.929,0,0,1-2.2.524,4.907,4.907,0,0,1,0-9.814Zm0,7.851a2.944,2.944,0,1,0-2.083-.862A2.926,2.926,0,0,0,15.472,18.286Z" transform="translate(-4.633 -4.59)" fill="#fff"/>
    </g>
    <rect id="사각형_2299" data-name="사각형 2299" width="24" height="24" transform="translate(23 853)" fill="none"/>
  </g>
</svg>
