<svg xmlns="http://www.w3.org/2000/svg" width="194" height="44" viewBox="0 0 194 44">
  <g id="그룹_3624" data-name="그룹 3624" transform="translate(-90 -13)">
    <g id="그룹_1873" data-name="그룹 1873" transform="translate(49.051 -8.329)">
      <g id="그룹_1860" data-name="그룹 1860" transform="translate(40.949 23.329)">
        <g id="그룹_1857" data-name="그룹 1857" transform="translate(10.49 13.639)">
          <path id="패스_149" data-name="패스 149" d="M78.122,52.505v.664H71.657V52.51l-3.105-.005v.664H63.637v2.784h.477a3.547,3.547,0,0,0-.729,2.312h0a3.653,3.653,0,0,0,.9,2.284h0a3.828,3.828,0,0,0,3,1.376h6.011v-.6h.341v.586l8.884.014,0-2.884H81.228V56.021h1.284l.006-2.851H81.272V52.5Zm.159.822v-.664l2.833-.005h0v.669h1.246c0,.145,0,2.39-.005,2.535H81.07V59.2H82.35c0,.145,0,2.421,0,2.567h0l-8.567-.014h0v-.586h-.658v.6H67.276A3.665,3.665,0,0,1,64.4,60.449h0a3.491,3.491,0,0,1-.861-2.184h0a3.364,3.364,0,0,1,.785-2.341h0l.115-.131-.648,0h0V53.328h4.916v-.664l2.787.006h0v.658Z" transform="translate(-63.385 -52.5)" fill="#fff"/>
        </g>
        <path id="패스_150" data-name="패스 150" d="M77.056,58.825a.786.786,0,1,0,.865.782A.8.8,0,0,0,77.056,58.825ZM69.9,57.4a.669.669,0,1,0-.663.758A.706.706,0,0,0,69.9,57.4Zm7.047-.564a.733.733,0,1,0-.725.845A.767.767,0,0,0,76.95,56.84Zm5.438-.721V54.482H81.127v-.636H79.285v.636H71.557v-.636H69.714v.636H64.863v1.636h1.459a2.863,2.863,0,0,0-1.665,2.818A3.141,3.141,0,0,0,67.871,61.9h5.35V61.33h1.515V61.9h7.652V60.27H81.127V56.118Zm-13.879-.576h1.466v.431H68.508ZM67.874,57.4a.972.972,0,0,1,.508-.819h-.52v-.432h2.756v.432H70.1a.973.973,0,0,1,.507.819c0,.578-.587,1.048-1.365,1.048S67.874,57.982,67.874,57.4Zm4,3.26-2.568,0a.771.771,0,0,1-.857-.808v-1h.813v1.378h2.612Zm.562-3.436h-.612v1.836h-.748V55.542h.748V56.8h.612Zm2.3-.389a1.519,1.519,0,1,1,1.488,1.215A1.358,1.358,0,0,1,74.737,56.84Zm4.569-.233h-.635v.622h.635v.431h-.635v1.948h0c-.006.66-.717,1.2-1.614,1.2s-1.608-.539-1.614-1.2.718-1.2,1.614-1.2a2.012,2.012,0,0,1,.865.188V55.542h.75v.633h.635Z" transform="translate(-53.573 -39.578)" fill="#fff"/>
        <g id="그룹_1858" data-name="그룹 1858" transform="translate(15.798 25.497)">
          <path id="패스_151" data-name="패스 151" d="M76.691,80.7H74.744v-.41l.7-.706q.311-.318.406-.441a.973.973,0,0,0,.137-.227.586.586,0,0,0,.041-.217.316.316,0,0,0-.092-.25.357.357,0,0,0-.246-.081.707.707,0,0,0-.314.074,1.6,1.6,0,0,0-.319.211l-.32-.379a2.1,2.1,0,0,1,.341-.247,1.253,1.253,0,0,1,.3-.111,1.479,1.479,0,0,1,.358-.039,1.066,1.066,0,0,1,.461.095.739.739,0,0,1,.31.267.709.709,0,0,1,.11.392.956.956,0,0,1-.067.361,1.4,1.4,0,0,1-.209.346,5.192,5.192,0,0,1-.5.5l-.358.337V80.2h1.213Z" transform="translate(-74.737 -77.867)" fill="#fff"/>
          <path id="패스_152" data-name="패스 152" d="M81.437,79.3a1.938,1.938,0,0,1-.239,1.08.829.829,0,0,1-.736.35.821.821,0,0,1-.727-.362A1.916,1.916,0,0,1,79.49,79.3a1.961,1.961,0,0,1,.238-1.087.927.927,0,0,1,1.462.016A1.918,1.918,0,0,1,81.437,79.3Zm-1.362,0a2.17,2.17,0,0,0,.088.734.308.308,0,0,0,.3.222.311.311,0,0,0,.3-.225,2.98,2.98,0,0,0,0-1.467.31.31,0,0,0-.595,0A2.169,2.169,0,0,0,80.074,79.3Z" transform="translate(-77.268 -77.862)" fill="#fff"/>
          <path id="패스_153" data-name="패스 153" d="M86.206,79.3a1.946,1.946,0,0,1-.239,1.08.83.83,0,0,1-.736.35.82.82,0,0,1-.727-.362,1.908,1.908,0,0,1-.245-1.068,1.957,1.957,0,0,1,.238-1.087.927.927,0,0,1,1.462.016A1.919,1.919,0,0,1,86.206,79.3Zm-1.362,0a2.156,2.156,0,0,0,.089.734.31.31,0,0,0,.6,0,2.966,2.966,0,0,0,0-1.467.309.309,0,0,0-.594,0A2.155,2.155,0,0,0,84.843,79.3Z" transform="translate(-79.807 -77.862)" fill="#fff"/>
          <path id="패스_154" data-name="패스 154" d="M91,80.7H89.052v-.41l.7-.706q.311-.318.406-.441a.986.986,0,0,0,.137-.227.578.578,0,0,0,.042-.217.317.317,0,0,0-.092-.25A.36.36,0,0,0,90,78.363a.707.707,0,0,0-.314.074,1.625,1.625,0,0,0-.318.211l-.32-.379a2.083,2.083,0,0,1,.341-.247,1.23,1.23,0,0,1,.3-.111,1.478,1.478,0,0,1,.358-.039,1.067,1.067,0,0,1,.461.095.742.742,0,0,1,.31.267.709.709,0,0,1,.11.392.974.974,0,0,1-.067.361,1.4,1.4,0,0,1-.21.346,5.116,5.116,0,0,1-.5.5l-.359.337V80.2H91Z" transform="translate(-82.355 -77.867)" fill="#fff"/>
        </g>
        <path id="패스_155" data-name="패스 155" d="M61.07,23.329A20.121,20.121,0,1,0,81.189,43.45,20.144,20.144,0,0,0,61.07,23.329Zm0,39.937A19.816,19.816,0,1,1,80.885,43.45,19.839,19.839,0,0,1,61.07,63.266Z" transform="translate(-40.949 -23.329)" fill="#fff"/>
        <path id="합치기_1" data-name="합치기 1" d="M0,18.944A18.943,18.943,0,1,1,18.943,37.887,18.944,18.944,0,0,1,0,18.944ZM22.949,35.021c-.219.444-.266,1.071,0,1.2s.731-.289.948-.73a1.291,1.291,0,0,0,.142-.608,1.284,1.284,0,0,0,.486.4c.439.218,1.068.263,1.2,0s-.288-.731-.732-.949a1.283,1.283,0,0,0-.609-.14,1.3,1.3,0,0,0,.4-.484c.216-.442.264-1.07,0-1.2a.238.238,0,0,0-.107-.023c-.267,0-.651.368-.841.756a1.261,1.261,0,0,0-.142.608,1.28,1.28,0,0,0-.483-.4c-.443-.218-1.071-.263-1.2,0s.288.733.731.95a1.3,1.3,0,0,0,.611.143A1.254,1.254,0,0,0,22.949,35.021Zm-8.837.467c.218.441.687.861.95.73s.214-.753,0-1.2a1.257,1.257,0,0,0-.4-.482,1.3,1.3,0,0,0,.61-.143c.441-.217.861-.686.732-.95s-.756-.215-1.2,0a1.263,1.263,0,0,0-.484.4,1.26,1.26,0,0,0-.142-.608c-.191-.388-.573-.756-.841-.756a.244.244,0,0,0-.107.023c-.261.129-.216.757,0,1.2a1.3,1.3,0,0,0,.4.484,1.284,1.284,0,0,0-.61.14c-.443.218-.86.69-.732.949s.757.216,1.2,0a1.269,1.269,0,0,0,.485-.4A1.275,1.275,0,0,0,14.112,35.488Zm4.161-.253a.67.67,0,1,0,.672-.668A.67.67,0,0,0,18.273,35.235Zm7.53-1.6a3.093,3.093,0,0,0,1.526.455,2.743,2.743,0,0,0,1.448-.419,2.52,2.52,0,0,0-1.444-.481h-.014A3.067,3.067,0,0,0,25.8,33.634ZM9.229,33.67a2.741,2.741,0,0,0,1.448.419,3.1,3.1,0,0,0,1.528-.455,3.075,3.075,0,0,0-1.517-.445h-.013A2.52,2.52,0,0,0,9.229,33.67Zm16.928-1.749a3.044,3.044,0,0,0-.515,1.438,2.879,2.879,0,0,0,1.117-.926,2.309,2.309,0,0,0,.426-1.372A2.453,2.453,0,0,0,26.157,31.921Zm-14.91.512a2.884,2.884,0,0,0,1.118.926h0a3.037,3.037,0,0,0-.514-1.437,2.466,2.466,0,0,0-1.028-.86A2.306,2.306,0,0,0,11.246,32.433Zm18.3-.746a3.242,3.242,0,0,0-1.458.82,3.249,3.249,0,0,0,1.667.1,2.892,2.892,0,0,0,1.381-.77,2.657,2.657,0,0,0-1.051-.214A2.444,2.444,0,0,0,29.542,31.687Zm-22.669.155a2.892,2.892,0,0,0,1.381.77,3.252,3.252,0,0,0,1.668-.1,3.251,3.251,0,0,0-1.458-.82,2.448,2.448,0,0,0-.54-.059A2.659,2.659,0,0,0,6.874,31.842Zm21.165-1.051a3.043,3.043,0,0,0-.176,1.52,2.932,2.932,0,0,0,.881-1.154,2.323,2.323,0,0,0,.1-1.435A2.475,2.475,0,0,0,28.039,30.791Zm-18.777.366a2.92,2.92,0,0,0,.88,1.154,3.041,3.041,0,0,0-.177-1.52,2.469,2.469,0,0,0-.806-1.069A2.325,2.325,0,0,0,9.262,31.157ZM6.049,18.933a12.894,12.894,0,1,0,12.9-12.9A12.9,12.9,0,0,0,6.049,18.933ZM31.369,29.713c.07.5.394,1.052.69,1.01s.449-.666.377-1.164a1.324,1.324,0,0,0-.233-.6,1.279,1.279,0,0,0,.636.057c.5-.072,1.056-.4,1.012-.69s-.666-.447-1.165-.377a1.3,1.3,0,0,0-.595.232,1.316,1.316,0,0,0,.056-.635c-.07-.482-.372-1.015-.657-1.015a.163.163,0,0,0-.032,0c-.3.043-.45.666-.378,1.166a1.291,1.291,0,0,0,.233.595,1.282,1.282,0,0,0-.636-.054c-.5.07-1.057.394-1.013.688s.665.449,1.164.376a1.288,1.288,0,0,0,.6-.232A1.312,1.312,0,0,0,31.369,29.713Zm-25.8-.154c-.071.5.084,1.122.38,1.164s.617-.513.69-1.01a1.307,1.307,0,0,0-.056-.639,1.286,1.286,0,0,0,.6.232c.5.073,1.123-.081,1.166-.376s-.515-.618-1.012-.688a1.29,1.29,0,0,0-.638.054,1.287,1.287,0,0,0,.234-.595c.072-.5-.084-1.123-.378-1.166a.171.171,0,0,0-.032,0c-.286,0-.588.534-.658,1.015a1.3,1.3,0,0,0,.055.635,1.294,1.294,0,0,0-.6-.232c-.5-.07-1.12.084-1.164.377s.513.618,1.012.69a1.281,1.281,0,0,0,.636-.057A1.334,1.334,0,0,0,5.568,29.559ZM34.131,25.47a3.432,3.432,0,0,0-1.017,1.451,3.438,3.438,0,0,0,1.641-.667,3.051,3.051,0,0,0,.968-1.368h0A2.812,2.812,0,0,0,34.131,25.47ZM2.282,24.887a3.05,3.05,0,0,0,.967,1.367,3.445,3.445,0,0,0,1.642.667A3.433,3.433,0,0,0,3.874,25.47a2.821,2.821,0,0,0-1.592-.584Zm30.123.463a2.985,2.985,0,0,0,.487,1.419,2.835,2.835,0,0,0,.29-1.4,2.278,2.278,0,0,0-.518-1.312A2.423,2.423,0,0,0,32.405,25.349Zm-27.583.022a2.859,2.859,0,0,0,.29,1.4A2.986,2.986,0,0,0,5.6,25.349a2.43,2.43,0,0,0-.258-1.29A2.273,2.273,0,0,0,4.823,25.371Zm30.193-2.4a3.438,3.438,0,0,0-.749,1.605,3.435,3.435,0,0,0,1.5-.94,3.06,3.06,0,0,0,.713-1.518A2.823,2.823,0,0,0,35.016,22.971Zm-32.777.666a3.424,3.424,0,0,0,1.5.939h0a3.436,3.436,0,0,0-.751-1.6,2.818,2.818,0,0,0-1.464-.852A3.038,3.038,0,0,0,2.239,23.636ZM33.3,23.17a2.978,2.978,0,0,0,.725,1.311,2.824,2.824,0,0,0,.043-1.421,2.273,2.273,0,0,0-.736-1.2A2.406,2.406,0,0,0,33.3,23.17ZM3.939,23.059a2.828,2.828,0,0,0,.042,1.421,2.968,2.968,0,0,0,.727-1.311,2.413,2.413,0,0,0-.032-1.315A2.267,2.267,0,0,0,3.939,23.059Zm30.345-1.306a1.7,1.7,0,0,0,.316.936,1.5,1.5,0,0,0,.021-1.865A1.7,1.7,0,0,0,34.283,21.753ZM3.07,21.76a1.707,1.707,0,0,0,.336.929,1.493,1.493,0,0,0-.021-1.865A1.712,1.712,0,0,0,3.07,21.76ZM23.626,34.84a.532.532,0,1,1,.236.056A.532.532,0,0,1,23.626,34.84Zm-9.96-.241a.534.534,0,1,1,.479.3A.536.536,0,0,1,13.666,34.6Zm17.554-5.892a.544.544,0,1,1,.616.463.529.529,0,0,1-.077.005A.545.545,0,0,1,31.219,28.707ZM6.17,29.17a.548.548,0,1,1,.077.005A.544.544,0,0,1,6.17,29.17Z" transform="translate(1.177 1.177)" fill="#fff"/>
      </g>
      <g id="그룹_1861" data-name="그룹 1861" transform="translate(85.717 27.262)">
        <path id="패스_179" data-name="패스 179" d="M145.1,36.118a4.844,4.844,0,0,1,1.242,1.514,3.99,3.99,0,0,1,.474,1.9,4.2,4.2,0,0,1-.373,1.753,4.555,4.555,0,0,1-1.028,1.443,4.5,4.5,0,0,1-1.491.966,5.014,5.014,0,0,1-3.658,0,4.534,4.534,0,0,1-2.518-2.409,4.205,4.205,0,0,1-.373-1.753,4.067,4.067,0,0,1,.462-1.9,4.578,4.578,0,0,1,1.254-1.514H136.7V34.306h3.862V31.944h3.049v2.362h3.862v1.813Zm-1.942,13.976h9.621v1.813H142.209a2.075,2.075,0,0,1-1.513-.572,2.1,2.1,0,0,1-.587-1.574V45.516h3.048ZM140.82,37.561a3.442,3.442,0,0,0-.553,1.967,3.5,3.5,0,0,0,.553,1.98,1.393,1.393,0,0,0,2.552,0,3.5,3.5,0,0,0,.553-1.98,3.445,3.445,0,0,0-.553-1.967,1.4,1.4,0,0,0-2.552,0Zm8.254,9.194v-14.6h3.049v4.555h3.048v1.837h-3.048v8.2Z" transform="translate(-136.698 -31.849)" fill="#fff"/>
        <path id="패스_180" data-name="패스 180" d="M186.323,33.045a5.147,5.147,0,0,1,1.637,1.086,4.917,4.917,0,0,1,1.107,1.585,4.75,4.75,0,0,1,.406,1.944,4.8,4.8,0,0,1-.406,1.967,4.911,4.911,0,0,1-1.107,1.586,5.148,5.148,0,0,1-3.659,1.478,5.251,5.251,0,0,1-2.032-.393,5.1,5.1,0,0,1-1.649-1.085,4.911,4.911,0,0,1-1.107-1.586,4.8,4.8,0,0,1-.406-1.967,4.75,4.75,0,0,1,.406-1.944,4.917,4.917,0,0,1,1.107-1.585,5.1,5.1,0,0,1,1.649-1.086,5.251,5.251,0,0,1,2.032-.393A5.173,5.173,0,0,1,186.323,33.045Zm-3.535,2.385a3.876,3.876,0,0,0-.633,2.254,3.97,3.97,0,0,0,.621,2.277,1.792,1.792,0,0,0,1.5.918,1.831,1.831,0,0,0,1.5-.918,4.34,4.34,0,0,0,.011-4.531,1.687,1.687,0,0,0-3,0Zm8.5,8.634a5.014,5.014,0,0,1,1.593,1.014,4.58,4.58,0,0,1,1.073,1.479,4.285,4.285,0,0,1,.395,1.813,4.341,4.341,0,0,1-.395,1.836,4.59,4.59,0,0,1-1.073,1.479,4.843,4.843,0,0,1-1.593,1,5.3,5.3,0,0,1-1.953.358,5.371,5.371,0,0,1-1.976-.358,4.834,4.834,0,0,1-1.592-1,4.466,4.466,0,0,1-1.445-3.315,4.466,4.466,0,0,1,1.445-3.292,5,5,0,0,1,1.592-1.014,5.226,5.226,0,0,1,1.976-.37A5.162,5.162,0,0,1,191.291,44.064Zm-3.365,2.313a3.433,3.433,0,0,0-.6,1.992,3.306,3.306,0,0,0,.6,1.979,1.611,1.611,0,0,0,2.824,0,3.309,3.309,0,0,0,.6-1.979,3.436,3.436,0,0,0-.6-1.992,1.58,1.58,0,0,0-2.824,0Zm6.539-13.822v2.409h3.048v1.813h-3.048v2.194h3.048v1.813h-3.048v2.6h-3.049V32.556Z" transform="translate(-159.278 -32.174)" fill="#fff"/>
        <path id="패스_181" data-name="패스 181" d="M225.056,32.884v3.792a8.993,8.993,0,0,0,.384,2.672,8.073,8.073,0,0,0,1.039,2.194,6.351,6.351,0,0,0,1.513,1.574,4.351,4.351,0,0,0,1.785.787l-1.491,1.384a4.08,4.08,0,0,1-1.513-.417,7.365,7.365,0,0,1-1.446-.919,7.093,7.093,0,0,1-1.152-1.217,3.638,3.638,0,0,1-.655-1.359,4.071,4.071,0,0,1-.666,1.359,6.8,6.8,0,0,1-1.14,1.217,6.929,6.929,0,0,1-1.446.906,4.617,4.617,0,0,1-1.513.43L217.265,43.9a4.276,4.276,0,0,0,1.762-.8,6.181,6.181,0,0,0,1.49-1.586,8.329,8.329,0,0,0,1.05-2.182,8.632,8.632,0,0,0,.4-2.66V32.884Zm8.515,4.293h3.049V38.99h-3.049V52.2h-3.049V32.455h3.049Z" transform="translate(-179.595 -32.121)" fill="#fff"/>
        <path id="패스_182" data-name="패스 182" d="M267.629,33.421a5.488,5.488,0,0,1,2.914,2.946,5.4,5.4,0,0,1,.429,2.147,5.485,5.485,0,0,1-.429,2.158,5.419,5.419,0,0,1-1.175,1.753,5.58,5.58,0,0,1-1.74,1.169,5.381,5.381,0,0,1-4.212,0,5.63,5.63,0,0,1-1.728-1.169,5.267,5.267,0,0,1-1.163-1.753,5.6,5.6,0,0,1-.418-2.158,5.519,5.519,0,0,1,.418-2.147A5.582,5.582,0,0,1,261.69,34.6a5.827,5.827,0,0,1,1.728-1.181,5.249,5.249,0,0,1,4.212,0Zm-3.76,7.74a1.847,1.847,0,0,0,3.343-.024,4.694,4.694,0,0,0,.711-2.648,4.591,4.591,0,0,0-.722-2.623,2.037,2.037,0,0,0-1.671-1.073,2.007,2.007,0,0,0-1.66,1.085,4.745,4.745,0,0,0-.711,2.659A4.57,4.57,0,0,0,263.87,41.16ZM276.054,52.2H273V32.455h3.049Z" transform="translate(-202.407 -32.121)" fill="#fff"/>
        <path id="패스_183" data-name="패스 183" d="M316.319,32.455V52.2h-3.048V39.634H310.7V45.12h-7.407A1.979,1.979,0,0,1,301.166,43V33.1h3.049V37.01h3.433V33.1H310.7v4.722h2.575V32.455Zm-8.672,10.828v-4.46h-3.433v4.46Z" transform="translate(-224.268 -32.121)" fill="#fff"/>
        <path id="패스_184" data-name="패스 184" d="M348.721,52.2V44.428a3.952,3.952,0,0,1-.994.489,4.307,4.307,0,0,1-1.4.2h-3.84a1.945,1.945,0,0,1-2.1-2.1V33.194h6.8v1.837h-3.794v8.252h3.048a6.135,6.135,0,0,0,1.344-.131,4.862,4.862,0,0,0,.937-.3v-10.4h2.891v5.366h1.807V32.455h2.891V52.2h-2.891V39.634h-1.807V52.2Z" transform="translate(-245.151 -32.121)" fill="#fff"/>
        <path id="패스_185" data-name="패스 185" d="M387.227,35.866a4.8,4.8,0,0,1,1.118,1.456,3.894,3.894,0,0,1,.417,1.765,4.034,4.034,0,0,1-.373,1.729,4.832,4.832,0,0,1-1,1.419,4.72,4.72,0,0,1-1.49.943,4.83,4.83,0,0,1-5.1-.943,4.455,4.455,0,0,1-1.016-1.419,4.138,4.138,0,0,1-.362-1.729,3.976,3.976,0,0,1,.406-1.765,4.649,4.649,0,0,1,1.107-1.456h-2.237V34.1h3.862V31.74H385.6V34.1h3.862v1.765Zm3.839,10.781H380.7V44.834h13.415V51.8h-3.049Zm-8.231-9.469a3.754,3.754,0,0,0,0,3.852,1.382,1.382,0,0,0,2.507,0,3.76,3.76,0,0,0,0-3.852,1.374,1.374,0,0,0-2.507,0Zm11.281-1.073h3.048v1.837h-3.048v5.581h-3.049V32.05h3.049Z" transform="translate(-265.545 -31.74)" fill="#fff"/>
        <path id="패스_186" data-name="패스 186" d="M425.374,39.84v7.942h1.513V39.84h2.936v7.942h6.3V49.6H419.457V47.782h2.982V39.84Zm-4.539-6.774h13.482v7.442a17.244,17.244,0,0,1-.3,3.47,8,8,0,0,1-.847,2.4h-2.688a6.1,6.1,0,0,0,.7-2.444q.136-1.443.135-3.661V34.9H420.835Z" transform="translate(-287.251 -32.446)" fill="#fff"/>
      </g>
      <g id="그룹_1862" data-name="그룹 1862" transform="translate(88.177 52.636)">
        <path id="패스_187" data-name="패스 187" d="M146.419,94.385l-.526-2.219-.123-.67-.082-.539h-.025q-.2,1.15-.271,1.451l-.472,1.976H143.23l-1.27-4.655h1.582l.378,1.787a10.876,10.876,0,0,1,.209,1.529h.025a10.662,10.662,0,0,1,.226-1.439l.432-1.877h1.775l.395,1.9a14.216,14.216,0,0,1,.238,1.414h.025q.025-.313.082-.778a6.74,6.74,0,0,1,.127-.751l.411-1.787h1.549l-1.278,4.655Z" transform="translate(-141.96 -87.991)" fill="#fff"/>
        <path id="패스_188" data-name="패스 188" d="M166.4,94.385l-.526-2.219-.123-.67-.082-.539h-.025q-.2,1.15-.271,1.451l-.473,1.976h-1.689l-1.27-4.655h1.582l.378,1.787a10.869,10.869,0,0,1,.209,1.529h.025a10.773,10.773,0,0,1,.226-1.439l.431-1.877h1.775l.395,1.9a14.105,14.105,0,0,1,.238,1.414h.025q.025-.313.082-.778a6.616,6.616,0,0,1,.128-.751l.411-1.787H169.4l-1.278,4.655Z" transform="translate(-152.6 -87.991)" fill="#fff"/>
        <path id="패스_189" data-name="패스 189" d="M186.385,94.385l-.526-2.219-.123-.67-.082-.539h-.025q-.2,1.15-.271,1.451l-.473,1.976H183.2l-1.27-4.655h1.582l.378,1.787a10.941,10.941,0,0,1,.209,1.529h.025a10.658,10.658,0,0,1,.226-1.439l.432-1.877h1.775l.394,1.9a14.105,14.105,0,0,1,.238,1.414h.025q.025-.313.082-.778a6.74,6.74,0,0,1,.127-.751l.411-1.787h1.549L188.1,94.385Z" transform="translate(-163.24 -87.991)" fill="#fff"/>
        <path id="패스_190" data-name="패스 190" d="M202.445,97.329a.751.751,0,0,1,.224-.584.93.93,0,0,1,.651-.206.876.876,0,0,1,.625.206.764.764,0,0,1,.218.584.751.751,0,0,1-.224.578.876.876,0,0,1-.618.208.939.939,0,0,1-.641-.206A.731.731,0,0,1,202.445,97.329Z" transform="translate(-174.165 -91.617)" fill="#fff"/>
        <path id="패스_191" data-name="패스 191" d="M214.609,92.405v-2.54q0-.937-.555-.937a.622.622,0,0,0-.581.332,2.357,2.357,0,0,0-.187,1.1v2.046h-1.607V86.011h1.607v.908q0,.616-.066,1.405h.074a1.323,1.323,0,0,1,.547-.51,1.72,1.72,0,0,1,.735-.148,1.606,1.606,0,0,1,1.215.45,1.742,1.742,0,0,1,.433,1.259v3.028Z" transform="translate(-179.081 -86.011)" fill="#fff"/>
        <path id="패스_192" data-name="패스 192" d="M226.133,89.73h1.693l.789,2.671a2.607,2.607,0,0,1,.078.5h.033a2.787,2.787,0,0,1,.1-.5l.81-2.679h1.639l-1.841,4.951a2.916,2.916,0,0,1-.869,1.336,2.171,2.171,0,0,1-1.346.39,3.259,3.259,0,0,1-.658-.069V95.076a2.245,2.245,0,0,0,.5.05.812.812,0,0,0,.374-.082.856.856,0,0,0,.279-.232,2.022,2.022,0,0,0,.255-.491Z" transform="translate(-186.777 -87.991)" fill="#fff"/>
        <path id="패스_193" data-name="패스 193" d="M243.806,94.374a2.287,2.287,0,0,1-1.732-.617,2.461,2.461,0,0,1-.59-1.771,2.217,2.217,0,0,1,2.449-2.433,3.4,3.4,0,0,1,1.525.353l-.473,1.187a5.083,5.083,0,0,0-.538-.2,1.727,1.727,0,0,0-.514-.077.7.7,0,0,0-.6.3,1.479,1.479,0,0,0-.214.859q0,1.117.826,1.117a2.5,2.5,0,0,0,1.356-.411v1.278A2.64,2.64,0,0,1,243.806,94.374Z" transform="translate(-194.951 -87.897)" fill="#fff"/>
        <path id="패스_194" data-name="패스 194" d="M258.525,94.385l-.2-.579h-.095a1.312,1.312,0,0,1-.561.491,1.954,1.954,0,0,1-.844.17,1.576,1.576,0,0,1-1.2-.446,1.744,1.744,0,0,1-.427-1.259V89.73h1.607v2.543a1.453,1.453,0,0,0,.13.691.447.447,0,0,0,.425.235.619.619,0,0,0,.592-.327,2.486,2.486,0,0,0,.176-1.1V89.73h1.607v4.655Z" transform="translate(-202.254 -87.991)" fill="#fff"/>
        <path id="패스_195" data-name="패스 195" d="M270.445,97.329a.753.753,0,0,1,.224-.584.933.933,0,0,1,.652-.206.876.876,0,0,1,.625.206.763.763,0,0,1,.217.584.752.752,0,0,1-.223.578.878.878,0,0,1-.619.208.939.939,0,0,1-.641-.206A.731.731,0,0,1,270.445,97.329Z" transform="translate(-210.371 -91.617)" fill="#fff"/>
        <path id="패스_196" data-name="패스 196" d="M282.432,94.292l-.309-.617h-.033a1.825,1.825,0,0,1-.661.551,2.183,2.183,0,0,1-.871.148,1.367,1.367,0,0,1-1.036-.395,1.54,1.54,0,0,1-.378-1.11,1.26,1.26,0,0,1,.518-1.107,2.821,2.821,0,0,1,1.5-.409l.777-.025v-.066a.5.5,0,0,0-.567-.575,3.394,3.394,0,0,0-1.295.345l-.464-1.06a4.465,4.465,0,0,1,2.055-.419,1.994,1.994,0,0,1,1.386.444,1.587,1.587,0,0,1,.491,1.241v3.053ZM281.24,93.24a.721.721,0,0,0,.5-.185.613.613,0,0,0,.208-.481v-.361l-.37.016q-.793.029-.794.584C280.783,93.1,280.936,93.24,281.24,93.24Z" transform="translate(-215.003 -87.897)" fill="#fff"/>
        <path id="패스_197" data-name="패스 197" d="M296.385,94.374a2.289,2.289,0,0,1-1.732-.617,2.463,2.463,0,0,1-.589-1.771,2.217,2.217,0,0,1,2.45-2.433,3.391,3.391,0,0,1,1.524.353l-.472,1.187a5.056,5.056,0,0,0-.539-.2,1.718,1.718,0,0,0-.513-.077.7.7,0,0,0-.6.3,1.479,1.479,0,0,0-.214.859q0,1.117.826,1.117a2.5,2.5,0,0,0,1.356-.411v1.278A2.643,2.643,0,0,1,296.385,94.374Z" transform="translate(-222.947 -87.897)" fill="#fff"/>
        <path id="패스_198" data-name="패스 198" d="M307.367,97.329a.749.749,0,0,1,.224-.584.929.929,0,0,1,.651-.206.876.876,0,0,1,.625.206.763.763,0,0,1,.218.584.748.748,0,0,1-.225.578.875.875,0,0,1-.618.208.938.938,0,0,1-.641-.206A.73.73,0,0,1,307.367,97.329Z" transform="translate(-230.03 -91.617)" fill="#fff"/>
        <path id="패스_199" data-name="패스 199" d="M318.159,89.788a8.365,8.365,0,0,1,.5-.723L319.7,87.75h1.792l-1.615,1.981,1.718,2.675h-1.836l-1.019-1.669-.522.4v1.269H316.6V86.011h1.614v2.515a8.679,8.679,0,0,1-.091,1.262Z" transform="translate(-234.947 -86.011)" fill="#fff"/>
        <path id="패스_200" data-name="패스 200" d="M334.877,89.554a2.319,2.319,0,0,1,.4.033l.09.016-.144,1.516a2.347,2.347,0,0,0-.547-.05,1.038,1.038,0,0,0-.764.241.94.94,0,0,0-.238.692v2.289h-1.607V89.636h1.2l.251.743h.078a1.611,1.611,0,0,1,.561-.6A1.344,1.344,0,0,1,334.877,89.554Z" transform="translate(-243.181 -87.897)" fill="#fff"/>
      </g>
    </g>
    <rect id="사각형_2609" data-name="사각형 2609" width="194" height="44" transform="translate(90 13)" fill="none"/>
  </g>
</svg>
