<svg xmlns="http://www.w3.org/2000/svg" xmlns:xlink="http://www.w3.org/1999/xlink" width="150" height="80" viewBox="0 0 150 80">
  <defs>
    <clipPath id="clip-path">
      <rect id="사각형_5" data-name="사각형 5" width="146.294" height="71" fill="#009de8"/>
    </clipPath>
  </defs>
  <g id="그룹_5174" data-name="그룹 5174" transform="translate(-40 -2310)">
    <g id="그룹_5173" data-name="그룹 5173" transform="translate(42 2315)">
      <path id="패스_31" data-name="패스 31" d="M18.515,53.507H34.989v16.47H18.515Zm17.5-15.518H50.142v14.5H36.011ZM1.021,36.011H17.494V52.484H1.021Zm17.494,0H28.24V52.484H18.515Zm39.235,0H68.377l1.6,2.977v13.5H57.75Zm-39.235-17.5H28.24V34.99H18.515Zm17.5,0H50.142V31.632H36.011Zm0-17.493H52.483V17.495H36.011ZM34.989,0V17.495h-17.5v17.5H0V53.507H17.493V71H36.011V53.507H71v0h6.971v-14L89.911,17.515H81.685l-7.51,14.82-7.46-14.82H58.44L67.827,34.99H57.75V17.515H53.5V0Z" fill="#009de8"/>
      <g id="그룹_5" data-name="그룹 5" transform="translate(0 0)">
        <g id="그룹_4" data-name="그룹 4" clip-path="url(#clip-path)">
          <path id="패스_32" data-name="패스 32" d="M120.339,26.712a7.789,7.789,0,0,0-6.676,3.235q-2.363,3.237-2.366,9.017Q111.3,51,120.339,51a28.615,28.615,0,0,0,9.189-1.9v6.4a25.451,25.451,0,0,1-9.9,1.85q-7.861,0-12.021-4.764t-4.161-13.677a22.343,22.343,0,0,1,2.042-9.833,14.777,14.777,0,0,1,5.873-6.475,17.393,17.393,0,0,1,8.98-2.253,24.217,24.217,0,0,1,10.541,2.538L128.419,29.1a41,41,0,0,0-4.065-1.673,12.141,12.141,0,0,0-4.014-.714" transform="translate(-17.079 -3.361)" fill="#009de8"/>
          <path id="패스_33" data-name="패스 33" d="M169.382,20.979V44.266a13.441,13.441,0,0,1-1.785,6.991,11.616,11.616,0,0,1-5.156,4.6,18.466,18.466,0,0,1-7.974,1.6q-6.946,0-10.784-3.557t-3.841-9.737V20.979h7.608V43.017q0,4.165,1.675,6.106t5.537,1.946q3.74,0,5.425-1.96t1.687-6.142V20.979Z" transform="translate(-23.088 -3.464)" fill="#009de8"/>
          <path id="패스_34" data-name="패스 34" d="M49.413,76.137H48.288v-2.3H46.173v2.3H45.044V70.806h1.129v2.086h2.115V70.806h1.125Z" transform="translate(-7.437 -11.69)" fill="#009de8"/>
          <path id="패스_35" data-name="패스 35" d="M54.933,76.133l-.387-1.264H52.6l-.387,1.264H51l1.884-5.351h1.38l1.891,5.351Zm-.657-2.213q-.536-1.728-.6-1.952c-.045-.152-.076-.271-.1-.36q-.121.47-.69,2.312Z" transform="translate(-8.419 -11.686)" fill="#009de8"/>
          <path id="패스_36" data-name="패스 36" d="M62.611,76.137H61.172L58.855,72.1h-.031q.068,1.067.068,1.525v2.508h-1.01V70.806h1.426L61.622,74.8h.025c-.037-.694-.055-1.181-.055-1.47V70.806h1.019Z" transform="translate(-9.556 -11.69)" fill="#009de8"/>
          <path id="패스_37" data-name="패스 37" d="M66.593,73l1.112-2.194h1.218l-1.768,3.256v2.075H66.031V74.1l-1.767-3.293h1.225Z" transform="translate(-10.61 -11.69)" fill="#009de8"/>
          <path id="패스_38" data-name="패스 38" d="M73.693,76.133l-.387-1.264H71.362l-.389,1.264H69.756l1.881-5.351H73.02l1.889,5.351Zm-.657-2.213q-.539-1.728-.605-1.952c-.043-.152-.076-.271-.1-.36q-.12.47-.689,2.312Z" transform="translate(-11.517 -11.686)" fill="#009de8"/>
          <path id="패스_39" data-name="패스 39" d="M81.37,76.137H79.933L77.615,72.1h-.032c.044.711.068,1.22.068,1.525v2.508h-1.01V70.806h1.426L80.382,74.8h.026c-.037-.694-.055-1.181-.055-1.47V70.806H81.37Z" transform="translate(-12.654 -11.69)" fill="#009de8"/>
          <path id="패스_40" data-name="패스 40" d="M85.8,73.129h2.115v2.766a6.053,6.053,0,0,1-.968.233,6.284,6.284,0,0,1-.928.069,2.356,2.356,0,0,1-1.843-.709,2.956,2.956,0,0,1-.636-2.037,2.686,2.686,0,0,1,.738-2.013,2.805,2.805,0,0,1,2.046-.722,3.976,3.976,0,0,1,1.582.328l-.377.9a2.656,2.656,0,0,0-1.212-.291,1.491,1.491,0,0,0-1.173.493,1.9,1.9,0,0,0-.441,1.322,2.134,2.134,0,0,0,.354,1.327,1.229,1.229,0,0,0,1.034.457,3.532,3.532,0,0,0,.716-.073V74.068H85.8Z" transform="translate(-13.793 -11.675)" fill="#009de8"/>
          <path id="패스_41" data-name="패스 41" d="M94.666,71.659a1.154,1.154,0,0,0-.989.478,2.233,2.233,0,0,0-.35,1.336q0,1.782,1.339,1.783a4.206,4.206,0,0,0,1.361-.281v.948a3.8,3.8,0,0,1-1.467.273,2.237,2.237,0,0,1-1.78-.706,2.985,2.985,0,0,1-.616-2.026,3.3,3.3,0,0,1,.3-1.454,2.185,2.185,0,0,1,.869-.96,2.6,2.6,0,0,1,1.33-.333,3.562,3.562,0,0,1,1.562.377l-.365.918a5.131,5.131,0,0,0-.6-.247,1.728,1.728,0,0,0-.6-.106" transform="translate(-15.216 -11.675)" fill="#009de8"/>
          <path id="패스_42" data-name="패스 42" d="M99.586,73l1.112-2.194h1.218l-1.768,3.256v2.075H99.025V74.1l-1.769-3.293h1.226Z" transform="translate(-16.057 -11.69)" fill="#009de8"/>
          <path id="패스_43" data-name="패스 43" d="M103.551,70.806h1.66a3.205,3.205,0,0,1,1.647.321,1.127,1.127,0,0,1,.511,1.028,1.286,1.286,0,0,1-.225.783.892.892,0,0,1-.6.369v.037a1.158,1.158,0,0,1,.731.422,1.383,1.383,0,0,1,.224.823,1.356,1.356,0,0,1-.525,1.139,2.3,2.3,0,0,1-1.432.408h-1.995Zm1.132,2.112h.655a1.208,1.208,0,0,0,.665-.143.531.531,0,0,0,.205-.472.47.47,0,0,0-.223-.439,1.437,1.437,0,0,0-.71-.133h-.593Zm0,.9V75.2h.735a1.085,1.085,0,0,0,.689-.178.657.657,0,0,0,.223-.545q0-.665-.948-.665Z" transform="translate(-17.096 -11.69)" fill="#009de8"/>
          <path id="패스_44" data-name="패스 44" d="M112.544,76.137h-3.072V70.806h3.072v.926H110.6V72.9h1.808v.925H110.6V75.2h1.941Z" transform="translate(-18.074 -11.69)" fill="#009de8"/>
          <path id="패스_45" data-name="패스 45" d="M115.523,74.1v2.042h-1.13V70.807h1.552a2.652,2.652,0,0,1,1.609.4,1.414,1.414,0,0,1,.521,1.2,1.436,1.436,0,0,1-.259.838,1.718,1.718,0,0,1-.734.574q1.2,1.795,1.567,2.32H117.4L116.125,74.1Zm0-.922h.365a1.4,1.4,0,0,0,.79-.179.644.644,0,0,0,.256-.564.586.586,0,0,0-.262-.54,1.6,1.6,0,0,0-.806-.159h-.343Z" transform="translate(-18.886 -11.69)" fill="#009de8"/>
          <path id="패스_46" data-name="패스 46" d="M126.777,70.807v3.45a1.982,1.982,0,0,1-.265,1.036,1.722,1.722,0,0,1-.763.681,2.721,2.721,0,0,1-1.182.239,2.273,2.273,0,0,1-1.6-.528,1.873,1.873,0,0,1-.568-1.444V70.807h1.127v3.261a1.369,1.369,0,0,0,.247.906,1.034,1.034,0,0,0,.823.29,1.012,1.012,0,0,0,.8-.293,1.375,1.375,0,0,0,.249-.908V70.807Z" transform="translate(-20.208 -11.69)" fill="#009de8"/>
          <path id="패스_47" data-name="패스 47" d="M133.845,76.137h-1.437L130.091,72.1h-.034q.069,1.067.069,1.525v2.508h-1.011V70.806h1.427l2.314,3.992h.025c-.037-.694-.055-1.181-.055-1.47V70.806h1.019Z" transform="translate(-21.317 -11.69)" fill="#009de8"/>
          <rect id="사각형_3" data-name="사각형 3" width="1.13" height="5.331" transform="translate(113.796 59.117)" fill="#009de8"/>
          <path id="패스_48" data-name="패스 48" d="M142.081,70.807h1.141l-1.814,5.331h-1.231l-1.808-5.331h1.141l1,3.173c.057.185.114.4.173.653s.1.423.112.52a9.094,9.094,0,0,1,.275-1.173Z" transform="translate(-22.845 -11.69)" fill="#009de8"/>
          <path id="패스_49" data-name="패스 49" d="M147.968,76.137H144.9V70.806h3.071v.926h-1.94V72.9h1.805v.925h-1.805V75.2h1.94Z" transform="translate(-23.922 -11.69)" fill="#009de8"/>
          <path id="패스_50" data-name="패스 50" d="M150.949,74.1v2.042h-1.132V70.807h1.553a2.65,2.65,0,0,1,1.607.4,1.581,1.581,0,0,1,.262,2.04,1.708,1.708,0,0,1-.732.574q1.2,1.795,1.567,2.32h-1.255L151.549,74.1Zm0-.922h.362A1.4,1.4,0,0,0,152.1,73a.637.637,0,0,0,.255-.564.589.589,0,0,0-.259-.54,1.607,1.607,0,0,0-.808-.159h-.341Z" transform="translate(-24.735 -11.69)" fill="#009de8"/>
          <path id="패스_51" data-name="패스 51" d="M158.718,74.642a1.381,1.381,0,0,1-.519,1.14,2.269,2.269,0,0,1-1.448.416,3.376,3.376,0,0,1-1.509-.324V74.824a6.3,6.3,0,0,0,.913.34,2.774,2.774,0,0,0,.685.1.967.967,0,0,0,.571-.144.481.481,0,0,0,.2-.421.464.464,0,0,0-.089-.279.988.988,0,0,0-.256-.235,6.9,6.9,0,0,0-.692-.361,3.219,3.219,0,0,1-.734-.442,1.682,1.682,0,0,1-.391-.492,1.536,1.536,0,0,1,.335-1.767,2,2,0,0,1,1.327-.4,3.183,3.183,0,0,1,.792.1,5.422,5.422,0,0,1,.791.278l-.365.878a5.242,5.242,0,0,0-.706-.245,2.342,2.342,0,0,0-.551-.068.732.732,0,0,0-.493.149.53.53,0,0,0-.1.651.785.785,0,0,0,.22.215,6.635,6.635,0,0,0,.719.372,2.909,2.909,0,0,1,1.025.716,1.4,1.4,0,0,1,.276.881" transform="translate(-25.63 -11.675)" fill="#009de8"/>
          <rect id="사각형_4" data-name="사각형 4" width="1.13" height="5.331" transform="translate(133.978 59.117)" fill="#009de8"/>
          <path id="패스_52" data-name="패스 52" d="M165.3,76.137h-1.13V71.746h-1.446v-.939h4.025v.939H165.3Z" transform="translate(-26.865 -11.69)" fill="#009de8"/>
          <path id="패스_53" data-name="패스 53" d="M169.962,73l1.112-2.194h1.218l-1.769,3.256v2.075H169.4V74.1l-1.769-3.293h1.226Z" transform="translate(-27.676 -11.69)" fill="#009de8"/>
        </g>
      </g>
    </g>
    <rect id="사각형_3797" data-name="사각형 3797" width="150" height="80" transform="translate(40 2310)" fill="none"/>
  </g>
</svg>
