<svg xmlns="http://www.w3.org/2000/svg" width="20" height="20" viewBox="0 0 20 20">
  <g id="그룹_5279" data-name="그룹 5279" transform="translate(-59 -85)">
    <circle id="타원_345" data-name="타원 345" cx="10" cy="10" r="10" transform="translate(59 85)" fill="#111"/>
    <g id="그룹_5272" data-name="그룹 5272" transform="translate(0 -0.121)">
      <g id="그룹_5269" data-name="그룹 5269" transform="translate(0.621 -2.26)">
        <path id="선_301" data-name="선 301" d="M0,6.089a.6.6,0,0,1-.6-.6V0A.6.6,0,0,1,0-.6.6.6,0,0,1,.6,0V5.489A.6.6,0,0,1,0,6.089Z" transform="translate(68.26 93.379) rotate(45)" fill="#fff"/>
        <path id="선_302" data-name="선 302" d="M0,6.088a.6.6,0,0,1-.6-.6V0A.6.6,0,0,1,0-.6.6.6,0,0,1,.6,0V5.488A.6.6,0,0,1,0,6.088Z" transform="translate(72.141 97.26) rotate(135)" fill="#fff"/>
      </g>
      <g id="그룹_5271" data-name="그룹 5271" transform="translate(0.621 1.74)">
        <path id="선_301-2" data-name="선 301" d="M0,6.089a.6.6,0,0,1-.6-.6V0A.6.6,0,0,1,0-.6.6.6,0,0,1,.6,0V5.489A.6.6,0,0,1,0,6.089Z" transform="translate(68.26 93.379) rotate(45)" fill="#fff"/>
        <path id="선_302-2" data-name="선 302" d="M0,6.088a.6.6,0,0,1-.6-.6V0A.6.6,0,0,1,0-.6.6.6,0,0,1,.6,0V5.488A.6.6,0,0,1,0,6.088Z" transform="translate(72.141 97.26) rotate(135)" fill="#fff"/>
      </g>
    </g>
  </g>
</svg>
