<?xml version="1.0" standalone="no"?>
<!DOCTYPE svg PUBLIC "-//W3C//DTD SVG 20010904//EN"
 "http://www.w3.org/TR/2001/REC-SVG-20010904/DTD/svg10.dtd">
<svg version="1.0" xmlns="http://www.w3.org/2000/svg"
 width="64.000000pt" height="64.000000pt" viewBox="0 0 64.000000 64.000000"
 preserveAspectRatio="xMidYMid meet">

<g transform="translate(0.000000,64.000000) scale(0.100000,-0.100000)"
fill="#000000" stroke="none">
<path d="M183 628 c-12 -6 -27 -23 -34 -39 -6 -16 -17 -29 -25 -29 -26 0 -62
-23 -73 -47 -15 -33 -15 -433 0 -466 18 -40 49 -47 219 -47 174 0 202 6 221
51 6 16 17 29 25 29 26 0 62 23 73 47 7 14 11 90 11 190 l0 165 -71 79 -71 79
-127 -1 c-69 0 -136 -5 -148 -11z m237 -73 c0 -80 32 -115 105 -115 l35 0 0
-148 c0 -102 -4 -152 -12 -160 -17 -17 -339 -17 -356 0 -17 17 -17 439 0 456
8 8 49 12 120 12 l108 0 0 -45z m107 -73 c-40 -5 -67 26 -67 77 l1 36 49 -55
48 -55 -31 -3z m-387 -147 c0 -113 4 -193 11 -208 18 -39 50 -47 184 -47 69 0
125 -4 125 -8 0 -4 -5 -13 -12 -20 -17 -17 -339 -17 -356 0 -9 9 -12 73 -12
228 0 224 3 240 42 240 17 0 18 -14 18 -185z"/>
<path d="M265 349 c-15 -23 14 -30 111 -27 80 2 99 6 99 18 0 12 -19 16 -102
18 -67 2 -104 -1 -108 -9z"/>
<path d="M265 249 c-15 -23 14 -30 111 -27 80 2 99 6 99 18 0 12 -19 16 -102
18 -67 2 -104 -1 -108 -9z"/>
</g>
</svg>
