<?xml version="1.0" standalone="no"?>
<!DOCTYPE svg PUBLIC "-//W3C//DTD SVG 20010904//EN"
 "http://www.w3.org/TR/2001/REC-SVG-20010904/DTD/svg10.dtd">
<svg version="1.0" xmlns="http://www.w3.org/2000/svg"
 width="64.000000pt" height="64.000000pt" viewBox="0 0 64.000000 64.000000"
 preserveAspectRatio="xMidYMid meet">

<g transform="translate(0.000000,64.000000) scale(0.100000,-0.100000)"
fill="#000000" stroke="none">
<path d="M240 620 c-11 -11 -20 -29 -20 -40 0 -18 -7 -20 -64 -20 -45 0 -69
-5 -80 -16 -21 -21 -22 -110 -1 -121 12 -7 17 -49 25 -198 8 -151 14 -192 27
-207 14 -16 35 -18 193 -18 158 0 179 2 193 18 13 15 19 56 27 207 8 149 13
191 25 198 21 11 20 100 -1 121 -11 11 -35 16 -80 16 -57 0 -64 2 -64 20 0 39
-35 60 -100 60 -47 0 -64 -4 -80 -20z m138 -42 c3 -16 -5 -18 -57 -18 -44 0
-61 4 -61 13 0 23 13 28 65 25 38 -2 51 -7 53 -20z m162 -88 l0 -30 -220 0
-220 0 0 30 0 30 220 0 220 0 0 -30z m-36 -202 c-4 -73 -9 -158 -13 -188 l-6
-55 -165 0 -165 0 -6 55 c-4 30 -9 115 -13 188 l-5 132 189 0 189 0 -5 -132z"/>
<path d="M205 368 c-3 -8 -4 -75 -3 -149 3 -111 6 -134 18 -134 13 0 15 23 15
144 0 107 -3 145 -12 148 -7 3 -15 -2 -18 -9z"/>
<path d="M305 368 c-3 -8 -4 -75 -3 -149 3 -111 6 -134 18 -134 13 0 15 23 15
144 0 107 -3 145 -12 148 -7 3 -15 -2 -18 -9z"/>
<path d="M405 368 c-3 -8 -4 -75 -3 -149 3 -111 6 -134 18 -134 13 0 15 23 15
144 0 107 -3 145 -12 148 -7 3 -15 -2 -18 -9z"/>
</g>
</svg>
