<?xml version="1.0" standalone="no"?>
<!DOCTYPE svg PUBLIC "-//W3C//DTD SVG 20010904//EN"
 "http://www.w3.org/TR/2001/REC-SVG-20010904/DTD/svg10.dtd">
<svg version="1.0" xmlns="http://www.w3.org/2000/svg"
 width="64.000000pt" height="64.000000pt" viewBox="0 0 64.000000 64.000000"
 preserveAspectRatio="xMidYMid meet">

<g transform="translate(0.000000,64.000000) scale(0.100000,-0.100000)"
fill="#000000" stroke="none">
<path d="M271 596 c-29 -29 -42 -50 -38 -60 8 -19 28 -21 45 -4 9 9 12 -10 12
-85 l0 -97 -96 0 c-84 0 -95 2 -84 15 14 17 7 45 -13 45 -7 0 -33 -20 -57 -45
l-44 -45 44 -45 c24 -25 50 -45 57 -45 20 0 27 28 13 45 -11 13 0 15 84 15
l96 0 0 -96 c0 -84 -2 -95 -15 -84 -17 14 -45 7 -45 -13 0 -7 20 -33 45 -57
l45 -44 45 44 c25 24 45 50 45 57 0 20 -28 27 -45 13 -13 -11 -15 0 -15 84 l0
96 96 0 c84 0 95 -2 84 -15 -14 -17 -7 -45 13 -45 7 0 33 20 57 45 l44 45 -44
45 c-24 25 -50 45 -57 45 -20 0 -27 -28 -13 -45 11 -13 0 -15 -84 -15 l-96 0
0 97 c0 75 3 94 12 85 17 -17 37 -15 45 4 4 10 -9 31 -38 60 -24 24 -46 44
-49 44 -3 0 -25 -20 -49 -44z"/>
</g>
</svg>
