<svg id="구성_요소_26_3" data-name="구성 요소 26 – 3" xmlns="http://www.w3.org/2000/svg" xmlns:xlink="http://www.w3.org/1999/xlink" width="24" height="24" viewBox="0 0 24 24">
  <defs>
    <clipPath id="clip-path">
      <rect id="사각형_1280" data-name="사각형 1280" width="16.832" height="14.666" fill="#ccc"/>
    </clipPath>
  </defs>
  <rect id="사각형_1281" data-name="사각형 1281" width="24" height="24" fill="none"/>
  <g id="그룹_2140" data-name="그룹 2140" transform="translate(4 5)">
    <g id="그룹_2139" data-name="그룹 2139" transform="translate(0 0)" clip-path="url(#clip-path)">
      <path id="패스_156" data-name="패스 156" d="M13.718.13A3.858,3.858,0,0,0,10.9.492,6.517,6.517,0,0,0,8.633,2.607q-.115.171-.219.349C7.476,1.356,5.743-.161,3.8.014A4.176,4.176,0,0,0,.088,3.24C-.351,5.292.929,7.169,2.182,8.665a43.3,43.3,0,0,0,3.669,3.777c.781.73,1.57,1.456,2.389,2.142l.039.033a.215.215,0,0,0,.27,0c.677-.574,1.336-1.168,1.989-1.769a50.14,50.14,0,0,0,3.707-3.718c1.271-1.442,2.7-3.232,2.579-5.268A4.147,4.147,0,0,0,13.718.13" transform="translate(0 0)" fill="#ccc"/>
    </g>
  </g>
</svg>
