<svg xmlns="http://www.w3.org/2000/svg" width="64" height="64" viewBox="0 0 64 64">
  <g id="그룹_3994" data-name="그룹 3994" transform="translate(-906 -2956)">
    <rect id="사각형_1476" data-name="사각형 1476" width="64" height="64" transform="translate(906 2956)" fill="none"/>
    <g id="그룹_2609" data-name="그룹 2609" transform="translate(-0.234 -0.934)">
      <path id="패스_161" data-name="패스 161" d="M47.631,25.069h-35.1A12.534,12.534,0,1,1,12.535,0h35.1a12.534,12.534,0,0,1,0,25.069" transform="translate(908.235 2975.932)" fill="#ffeb00" fill-rule="evenodd"/>
      <path id="패스_162" data-name="패스 162" d="M30.048,19.294c-3.778,0-6.841,2.419-6.841,5.4a5.267,5.267,0,0,0,3.174,4.562l-.645,2.406a.2.2,0,0,0,.049.205.189.189,0,0,0,.259.012l2.772-1.872a8.712,8.712,0,0,0,1.232.09c3.778,0,6.841-2.419,6.841-5.4s-3.063-5.4-6.841-5.4" transform="translate(892.266 2962.652)" fill-rule="evenodd"/>
      <path id="패스_163" data-name="패스 163" d="M80.082,29.718v3.489H77.6V20.34H79.35l.306.817a3.529,3.529,0,0,1,2.621-1.089c2.434,0,3.591,1.821,3.574,4.766,0,3.081-1.787,5.055-4.34,5.055a5.443,5.443,0,0,1-1.43-.17m0-7.3v5.566a7.153,7.153,0,0,0,.8.051c1.77,0,2.451-1.243,2.451-3.2,0-1.719-.46-2.757-1.873-2.757a3.231,3.231,0,0,0-1.379.34" transform="translate(854.836 2962.121)"/>
      <path id="패스_164" data-name="패스 164" d="M112.859,23.965h1.413v-.307c0-1.021-.579-1.5-1.583-1.5a6.224,6.224,0,0,0-2.553.613l-.681-1.668a6.5,6.5,0,0,1,3.455-1.038c2.383,0,3.676,1.259,3.676,3.659v5.906h-1.753l-.255-.783a4.7,4.7,0,0,1-2.757,1.038,2.63,2.63,0,0,1-2.843-2.927c0-1.957,1.362-3,3.881-3m1.413,3.285v-1.7h-1.14c-1.277,0-1.923.46-1.923,1.379,0,.7.358,1.038,1.09,1.038a3.424,3.424,0,0,0,1.974-.715" transform="translate(833.24 2962.121)"/>
      <path id="패스_165" data-name="패스 165" d="M143.828,28.492c-.868,2.315-1.906,4-3.421,4.936l-1.532-1.413a8.594,8.594,0,0,0,2.06-2.519l-3.3-9,2.468-.664,2.11,7.3,2.094-7.336,2.434.681Z" transform="translate(813.521 2962.309)"/>
    </g>
  </g>
</svg>
