<svg xmlns="http://www.w3.org/2000/svg" xmlns:xlink="http://www.w3.org/1999/xlink" width="24" height="24" viewBox="0 0 24 24">
  <defs>
    <clipPath id="clip-path">
      <rect id="사각형_100" data-name="사각형 100" width="24" height="24" transform="translate(0 0.372)" fill="none"/>
    </clipPath>
  </defs>
  <g id="그룹_4546" data-name="그룹 4546" transform="translate(0 -0.069)">
    <g id="그룹_296" data-name="그룹 296" transform="translate(0 -0.303)" clip-path="url(#clip-path)">
      <path id="패스_24" data-name="패스 24" d="M24.14,12.07A12.07,12.07,0,1,1,12.07,0,12.07,12.07,0,0,1,24.14,12.07" transform="translate(0 0.232)" fill="#ff7500"/>
      <path id="패스_25" data-name="패스 25" d="M72.386,100.113a2.034,2.034,0,0,0-2.878,0,2.165,2.165,0,0,0-.009,2.957,2.027,2.027,0,0,0,3.474-1.474,2,2,0,0,0-.588-1.483m-3.852,3.869a3.221,3.221,0,0,1-.965-2.369,3.34,3.34,0,0,1,3.378-3.378,3.352,3.352,0,1,1-.009,6.7,3.267,3.267,0,0,1-2.4-.957" transform="translate(-61.572 -89.285)" fill="#fff"/>
      <path id="패스_26" data-name="패스 26" d="M155.695,106V99.52h4.326v1.228h-3.027V102.2h2.659v1.22h-2.659V106Z" transform="translate(-141.876 -90.455)" fill="#fff"/>
    </g>
  </g>
</svg>
