<svg xmlns="http://www.w3.org/2000/svg" xmlns:xlink="http://www.w3.org/1999/xlink" width="14" height="14" viewBox="0 0 14 14">
  <defs>
    <clipPath id="clip-path">
      <rect id="사각형_398" data-name="사각형 398" width="14" height="14" fill="none"/>
    </clipPath>
  </defs>
  <g id="그룹_4706" data-name="그룹 4706" transform="translate(-0.33 0.023)">
    <g id="그룹_1109" data-name="그룹 1109" transform="translate(0.33 -0.023)" clip-path="url(#clip-path)">
      <path id="패스_88" data-name="패스 88" d="M7.072,6.218A2.434,2.434,0,0,0,9.221,8.2a2.438,2.438,0,0,1-2.149-1.98" transform="translate(-3.026 -2.403)"/>
      <path id="패스_89" data-name="패스 89" d="M9.47,1.5a2.438,2.438,0,0,1,.167,4.871A2.438,2.438,0,1,0,7.066,3.548,2.442,2.442,0,0,1,9.47,1.5" transform="translate(-3.024 -0.568)"/>
      <path id="패스_90" data-name="패스 90" d="M10.589,9.459a2.427,2.427,0,0,0,.251.026c.057,0,.11-.013.166-.017-.056,0-.109.016-.166.016a2.427,2.427,0,0,1-.251-.025" transform="translate(-4.394 -3.663)"/>
      <path id="패스_91" data-name="패스 91" d="M7.044,5.686A2.472,2.472,0,0,1,7,5.248a2.43,2.43,0,0,1,.04-.4,2.43,2.43,0,0,0-.04.4,2.416,2.416,0,0,0,.045.439" transform="translate(-2.997 -1.871)"/>
      <path id="패스_92" data-name="패스 92" d="M7.045,4.383a2.437,2.437,0,0,0,2.148,1.98,2.285,2.285,0,0,0,.251.026c.057,0,.111-.013.167-.017A2.438,2.438,0,1,0,7.04,3.548a2.423,2.423,0,0,0-.04.4,2.416,2.416,0,0,0,.045.439" transform="translate(-2.998 -0.568)" fill="#ff7500"/>
      <path id="패스_93" data-name="패스 93" d="M7.5,10.5a5.5,5.5,0,0,0-5.471,4.937A5.5,5.5,0,0,1,13,16v.611h0V16a5.5,5.5,0,0,0-5.5-5.5" transform="translate(-1.053 -4.068)"/>
      <path id="패스_94" data-name="패스 94" d="M2.029,18.58A5.5,5.5,0,0,0,2,19.142v.611H2v-.61a5.505,5.505,0,0,1,.028-.562" transform="translate(-1.053 -7.211)"/>
      <path id="패스_95" data-name="패스 95" d="M13,16a5.5,5.5,0,0,0-10.971-.562C2.01,15.622,2,15.81,2,16v.611H13Z" transform="translate(-1.053 -4.068)" fill="#ff7500"/>
    </g>
  </g>
</svg>
