<svg xmlns="http://www.w3.org/2000/svg" width="36" height="36" viewBox="0 0 36 36"><defs><style>.a,.b{fill:#fff}.a{opacity:0}</style></defs><g transform="translate(-101.497 49.649)"><rect class="a" width="36" height="36" transform="translate(101.497 -49.649)"/><path class="b" d="M230.117,104.968a11.616,11.616,0,0,1-3.3.906,5.768,5.768,0,0,0,2.525-3.178,11.551,11.551,0,0,1-3.647,1.394,5.746,5.746,0,0,0-9.936,3.929,5.827,5.827,0,0,0,.148,1.311,16.321,16.321,0,0,1-11.839-6,5.751,5.751,0,0,0,1.778,7.667,5.707,5.707,0,0,1-2.6-.721v.074a5.755,5.755,0,0,0,4.607,5.634,5.829,5.829,0,0,1-2.6.1,5.758,5.758,0,0,0,5.37,3.989,11.526,11.526,0,0,1-7.137,2.458,12.149,12.149,0,0,1-1.369-.078,16.256,16.256,0,0,0,8.805,2.579c10.565,0,16.341-8.753,16.341-16.342,0-.248,0-.5-.016-.743a11.779,11.779,0,0,0,2.87-2.974" transform="translate(-96.62 -145.3)"/></g></svg>