<svg xmlns="http://www.w3.org/2000/svg" width="24" height="24" viewBox="0 0 24 24">
  <g id="그룹_2287" data-name="그룹 2287" transform="translate(-12470.988 22680.742)">
    <rect id="사각형_1278" data-name="사각형 1278" width="24" height="24" transform="translate(12470.988 -22680.742)" fill="none"/>
    <path id="패스_156" data-name="패스 156" d="M8.672,16H8.662a1.1,1.1,0,0,1-.72-.263L7.9,15.7c-.868-.728-1.712-1.5-2.494-2.236A45.757,45.757,0,0,1,1.557,9.5C.183,7.86-1.325,5.656-.79,3.148A5.212,5.212,0,0,1,3.835-.882c.131-.012.265-.018.4-.018A5.944,5.944,0,0,1,8.666,1.484a7.281,7.281,0,0,1,2.128-1.77,4.86,4.86,0,0,1,3.551-.453,5.176,5.176,0,0,1,3.876,4.664C18.374,6.554,16.4,8.793,15.342,10a53.064,53.064,0,0,1-3.883,3.9c-.817.752-1.457,1.321-2.075,1.845A1.1,1.1,0,0,1,8.672,16ZM4.232.9C4.154.9,4.075.9,4,.91A3.4,3.4,0,0,0,.97,3.524C.6,5.26,1.756,6.935,2.937,8.344a44.115,44.115,0,0,0,3.7,3.809c.642.6,1.325,1.23,2.023,1.832.469-.408.974-.861,1.58-1.418a51.379,51.379,0,0,0,3.751-3.761c1.23-1.4,2.534-3.032,2.432-4.776A3.36,3.36,0,0,0,13.9,1.006a3.11,3.11,0,0,0-.762-.1,3.148,3.148,0,0,0-1.5.391,5.791,5.791,0,0,0-2.01,1.888c-.065.1-.131.2-.2.311L8.662,4.822,7.887,3.5C7.184,2.3,5.8.9,4.232.9Z" transform="translate(12473.784 -22675.736)" fill="#111"/>
  </g>
</svg>
