<svg xmlns="http://www.w3.org/2000/svg" xmlns:xlink="http://www.w3.org/1999/xlink" width="90" height="90" viewBox="0 0 90 90">
  <defs>
    <clipPath id="clip-path">
      <rect id="사각형_4643" data-name="사각형 4643" width="50" height="43" fill="none"/>
    </clipPath>
    <clipPath id="clip-path-3">
      <rect id="사각형_4641" data-name="사각형 4641" width="25" height="25" fill="none"/>
    </clipPath>
  </defs>
  <g id="ic_signUp_step2" transform="translate(-605 -7655)">
    <circle id="타원_416" data-name="타원 416" cx="45" cy="45" r="45" transform="translate(605 7655)" fill="#fff"/>
    <g id="그룹_2172" data-name="그룹 2172" transform="translate(618 7668)">
      <rect id="사각형_1301" data-name="사각형 1301" width="64" height="64" fill="none"/>
      <g id="그룹_3950" data-name="그룹 3950" transform="translate(6 7)">
        <g id="그룹_3949" data-name="그룹 3949" clip-path="url(#clip-path)">
          <g id="그룹_3948" data-name="그룹 3948">
            <g id="그룹_3947" data-name="그룹 3947" clip-path="url(#clip-path)">
              <g id="그룹_3946" data-name="그룹 3946" opacity="0.15" style="mix-blend-mode: normal;isolation: isolate">
                <g id="그룹_3945" data-name="그룹 3945">
                  <g id="그룹_3944" data-name="그룹 3944" clip-path="url(#clip-path-3)">
                    <path id="패스_1080" data-name="패스 1080" d="M12.5,0A12.5,12.5,0,1,1,0,12.5,12.5,12.5,0,0,1,12.5,0" fill="#ff7500"/>
                  </g>
                </g>
              </g>
              <path id="패스_1081" data-name="패스 1081" d="M39.044,38.705a11.939,11.939,0,0,0-23.662,0Zm2.308,2.215H13.075c-.01-.25-.014-.437-.014-.613a14.151,14.151,0,1,1,28.3,0c0,.187,0,.386-.014.613Z" fill="#111"/>
              <path id="패스_1082" data-name="패스 1082" d="M27.214,14.827a3.938,3.938,0,1,0,3.938,3.938,3.938,3.938,0,0,0-3.938-3.938m0-2.215a6.154,6.154,0,1,1-6.154,6.154,6.154,6.154,0,0,1,6.154-6.154" fill="#111"/>
              <path id="패스_1083" data-name="패스 1083" d="M50,35a8,8,0,1,1-8-8,8,8,0,0,1,8,8" fill="#111"/>
              <path id="패스_1084" data-name="패스 1084" d="M38.871,35.113l1.735,1.735,4.134-4.133" fill="none" stroke="#fff" stroke-linecap="square" stroke-width="2"/>
            </g>
          </g>
        </g>
      </g>
    </g>
  </g>
</svg>
