<?xml version="1.0" encoding="UTF-8"?>
<svg id="Layer_1" data-name="Layer 1" xmlns="http://www.w3.org/2000/svg" viewBox="0 0 60.17 25.07">
  <defs>
    <style>
      .cls-1 {
        fill: #ffeb00;
      }

      .cls-1, .cls-2 {
        fill-rule: evenodd;
      }
    </style>
  </defs>
  <g id="_그룹_2609" data-name=" 그룹 2609">
    <path id="_패스_161" data-name=" 패스 161" class="cls-1" d="m47.63,25.07H12.53C5.61,25.07,0,19.46,0,12.53S5.61,0,12.54,0h35.1c6.92,0,12.53,5.61,12.53,12.53s-5.61,12.53-12.53,12.53"/>
    <path id="_패스_162" data-name=" 패스 162" class="cls-2" d="m14.08,6.01c-3.78,0-6.84,2.42-6.84,5.4.1,2,1.33,3.77,3.17,4.56l-.65,2.41c-.02.07,0,.15.05.2.07.07.18.08.26,0l2.77-1.87c.41.06.82.09,1.23.09,3.78,0,6.84-2.42,6.84-5.4s-3.06-5.4-6.84-5.4"/>
    <path id="_패스_163" data-name=" 패스 163" d="m26.68,15.91v3.49h-2.48V6.53h1.75l.31.82c.68-.71,1.63-1.11,2.62-1.09,2.43,0,3.59,1.82,3.57,4.77,0,3.08-1.79,5.06-4.34,5.06-.48,0-.96-.05-1.43-.17m0-7.3v5.57c.27.03.53.05.8.05,1.77,0,2.45-1.24,2.45-3.2,0-1.72-.46-2.76-1.87-2.76-.48,0-.95.13-1.38.34"/>
    <path id="_패스_164" data-name=" 패스 164" d="m37.86,10.15h1.41v-.31c0-1.02-.58-1.5-1.58-1.5-.88.02-1.76.23-2.55.61l-.68-1.67c1.03-.67,2.23-1.02,3.46-1.04,2.38,0,3.68,1.26,3.68,3.66v5.91h-1.75l-.25-.78c-.78.63-1.75,1-2.76,1.04-1.45.13-2.72-.94-2.85-2.39-.02-.18,0-.36,0-.54,0-1.96,1.36-3,3.88-3m1.41,3.28v-1.7h-1.14c-1.28,0-1.92.46-1.92,1.38,0,.7.36,1.04,1.09,1.04.72-.03,1.41-.28,1.97-.72"/>
    <path id="_패스_165" data-name=" 패스 165" d="m49.11,14.87c-.87,2.32-1.91,4-3.42,4.94l-1.53-1.41c.84-.7,1.54-1.56,2.06-2.52l-3.3-9,2.47-.66,2.11,7.3,2.09-7.34,2.43.68s-2.91,8.01-2.91,8.01Z"/>
  </g>
</svg>