<svg id="구성_요소_118_1" data-name="구성 요소 118 – 1" xmlns="http://www.w3.org/2000/svg" width="22" height="22" viewBox="0 0 22 22">
  <rect id="사각형_397" data-name="사각형 397" width="22" height="22" fill="none"/>
  <g id="그룹_4543" data-name="그룹 4543" transform="translate(-1793.613 -29)">
    <path id="합치기_5" data-name="합치기 5" d="M22232.576,23383.355a2.512,2.512,0,1,1,2.512,2.512A2.514,2.514,0,0,1,22232.576,23383.355Zm2.512.7a.707.707,0,1,0-.705-.7A.705.705,0,0,0,22235.088,23384.059Zm-8.84-.7a2.512,2.512,0,1,1,2.512,2.512A2.515,2.515,0,0,1,22226.248,23383.355Zm2.512.7a.707.707,0,1,0-.709-.7A.706.706,0,0,0,22228.76,23384.059Zm-2.494-4.406a.976.976,0,0,1-.951-.746l-2.687-10.939h-3.033a.983.983,0,0,1,0-1.967h3.809a.976.976,0,0,1,.951.746l2.682,10.945h9.672l1.162-5.98h-9.895a.98.98,0,0,1,0-1.961h11.086a.973.973,0,0,1,.758.359.959.959,0,0,1,.225.592,1.007,1.007,0,0,1-.02.217l-1.543,7.941a.985.985,0,0,1-.963.793Z" transform="translate(-20424.713 -23336.1)" fill="#ff7500"/>
  </g>
</svg>
