<svg xmlns="http://www.w3.org/2000/svg" width="121" height="121" viewBox="0 0 121 121">
  <g id="그룹_4480" data-name="그룹 4480" transform="translate(-1170.669 -843.001)">
    <rect id="사각형_4807" data-name="사각형 4807" width="121" height="121" transform="translate(1170.669 843.001)" fill="none"/>
    <ellipse id="타원_466" data-name="타원 466" cx="35" cy="5.062" rx="35" ry="5.062" transform="translate(1196.669 939.356)" fill="#f4f4f4"/>
    <g id="그룹_4478" data-name="그룹 4478" transform="translate(1203.43 865.536)">
      <path id="패스_1147" data-name="패스 1147" d="M1233.4,911.885a1.211,1.211,0,0,1-.693-2.2,25.358,25.358,0,0,0,10.865-20.789,1.21,1.21,0,0,1,2.42,0,27.776,27.776,0,0,1-11.9,22.775A1.205,1.205,0,0,1,1233.4,911.885Z" transform="translate(-1190.511 -861.153)"/>
      <path id="패스_1148" data-name="패스 1148" d="M1210.354,916.5a1.206,1.206,0,0,1-.69-.215,27.75,27.75,0,0,1,21.21-50.005,1.21,1.21,0,1,1-.468,2.375,25.323,25.323,0,0,0-19.36,45.642,1.21,1.21,0,0,1-.692,2.2Z" transform="translate(-1197.744 -865.757)"/>
    </g>
    <path id="패스_1149" data-name="패스 1149" d="M1234.578,913.019h-23.347a1.21,1.21,0,0,1,0-2.42h23.347a1.21,1.21,0,0,1,0,2.42Z" transform="translate(8.265 9.197)"/>
    <path id="패스_1150" data-name="패스 1150" d="M1231.615,917.991h-18.3a1.21,1.21,0,0,1,0-2.42h18.3a1.21,1.21,0,0,1,0,2.42Z" transform="translate(8.703 10.241)"/>
    <circle id="타원_467" data-name="타원 467" cx="12.112" cy="12.112" r="12.112" transform="translate(1238.04 865.83)" fill="#ff7500"/>
    <g id="그룹_4479" data-name="그룹 4479" transform="translate(1248.661 871.977)">
      <rect id="사각형_4808" data-name="사각형 4808" width="2.982" height="7.953" rx="1.232" fill="#fff"/>
      <rect id="사각형_4809" data-name="사각형 4809" width="2.982" height="2.982" rx="1.232" transform="translate(0 8.947)" fill="#fff"/>
    </g>
    <path id="패스_1151" data-name="패스 1151" d="M1221.541,923.84a5.4,5.4,0,0,1-4.9-3.109,1.21,1.21,0,0,1,2.184-1.043,3,3,0,0,0,5.44,0,1.21,1.21,0,0,1,2.184,1.043A5.4,5.4,0,0,1,1221.541,923.84Z" transform="translate(9.629 10.961)"/>
    <path id="패스_1152" data-name="패스 1152" d="M1202.9,868.4a1.21,1.21,0,0,1-1.139-.8l-1.423-3.979a1.21,1.21,0,1,1,2.278-.816l1.423,3.979a1.212,1.212,0,0,1-1.14,1.618Z" transform="translate(6.215 -1.009)" fill="#000111"/>
    <path id="패스_1153" data-name="패스 1153" d="M1197.542,876.149h-.041l-4.224-.136a1.21,1.21,0,0,1-1.17-1.247,1.252,1.252,0,0,1,1.249-1.17l4.224.136a1.21,1.21,0,0,1-.037,2.419Z" transform="translate(4.502 1.425)" fill="#000111"/>
    <path id="패스_1154" data-name="패스 1154" d="M1199.213,871.3a1.2,1.2,0,0,1-.6-.16l-3.67-2.1a1.21,1.21,0,1,1,1.2-2.1l3.67,2.095a1.211,1.211,0,0,1-.6,2.261Z" transform="translate(4.97 -0.005)" fill="#000111"/>
  </g>
</svg>
