<svg xmlns="http://www.w3.org/2000/svg" width="36" height="36" viewBox="0 0 36 36"><defs><style>.a{fill:#fff;opacity:0}.b{fill:#2d1617}.c{fill:#ffe300}</style></defs><g transform="translate(-101.497 49.649)"><rect class="a" width="36" height="36" transform="translate(101.497 -49.649)"/><g transform="translate(-4.635 -3.281)"><path class="b" d="M124.131-40.3c-7.732,0-14,4.948-14,11.057,0,3.929,2.6,7.369,6.5,9.338l-1.32,4.925a.411.411,0,0,0,.1.42.4.4,0,0,0,.286.117.4.4,0,0,0,.244-.093l5.674-3.832a17.72,17.72,0,0,0,2.521.184c7.731,0,14-4.948,14-11.059s-6.27-11.057-14-11.057" transform="translate(0 0)"/><path class="c" d="M114.2-33.6h-1.523a1.014,1.014,0,0,1-.541-.144.6.6,0,0,1-.28-.41c-.009-.046-.016-.1-.022-.157a.613.613,0,0,1,.239-.517.939.939,0,0,1,.6-.188h4.658a.992.992,0,0,1,.54.145.6.6,0,0,1,.283.408.726.726,0,0,1,.01.152.638.638,0,0,1-.233.526.937.937,0,0,1-.6.184h-1.523v5.249a.841.841,0,0,1-.221.608.772.772,0,0,1-.591.229.824.824,0,0,1-.514-.164.759.759,0,0,1-.272-.457.847.847,0,0,1-.013-.215Z" transform="translate(0.843 2.613)"/><path class="c" d="M117.071-34.6a.712.712,0,0,1,.295-.393.92.92,0,0,1,.493-.118h.387a1,1,0,0,1,.526.127.848.848,0,0,1,.333.487l1.946,5.641a3.288,3.288,0,0,1,.132.449,1.9,1.9,0,0,1,.028.194.71.71,0,0,1-.227.52.733.733,0,0,1-.537.214.689.689,0,0,1-.724-.459l-.417-1.227h-2.594l-.42,1.227a.672.672,0,0,1-.722.459.748.748,0,0,1-.475-.147.672.672,0,0,1-.247-.416.775.775,0,0,1-.015-.172.884.884,0,0,1,.043-.3,3.457,3.457,0,0,1,.109-.347Zm.976,1.308h-.021l-.951,2.96h1.887Z" transform="translate(2.327 2.57)"/><path class="c" d="M119.268-34.271a.847.847,0,0,1,.221-.607.775.775,0,0,1,.591-.229.8.8,0,0,1,.517.167.777.777,0,0,1,.269.456.837.837,0,0,1,.013.212v5.253h2.692a.967.967,0,0,1,.546.144.615.615,0,0,1,.274.41,1.167,1.167,0,0,1,.022.152.617.617,0,0,1-.238.522.947.947,0,0,1-.6.185h-3.362a1.06,1.06,0,0,1-.607-.155.734.734,0,0,1-.3-.5,2.486,2.486,0,0,1-.036-.329Z" transform="translate(4.521 2.57)"/><path class="c" d="M122.817-34.271a.852.852,0,0,1,.22-.607.777.777,0,0,1,.591-.229.8.8,0,0,1,.514.167.744.744,0,0,1,.272.456.837.837,0,0,1,.015.212l0,2.441,2.533-2.911a1.782,1.782,0,0,1,.306-.277.607.607,0,0,1,.336-.09.828.828,0,0,1,.483.149.606.606,0,0,1,.268.392l.012.063a.327.327,0,0,0,0,.069.645.645,0,0,1-.073.306,1.528,1.528,0,0,1-.193.269l-1.656,1.809,1.96,3.1.058.094a1.633,1.633,0,0,1,.233.468l.012.049a.282.282,0,0,0,0,.052.738.738,0,0,1-.242.62.942.942,0,0,1-.588.187.812.812,0,0,1-.4-.087,1.087,1.087,0,0,1-.317-.35L125.309-30.9l-.885.922.009,1.668a.86.86,0,0,1-.221.608.776.776,0,0,1-.591.229.829.829,0,0,1-.517-.164.757.757,0,0,1-.271-.457,1.114,1.114,0,0,1-.015-.215Z" transform="translate(6.279 2.57)"/></g></g></svg>