<svg xmlns="http://www.w3.org/2000/svg" xmlns:xlink="http://www.w3.org/1999/xlink" width="20" height="20" viewBox="0 0 20 20">
  <defs>
    <clipPath id="clip-path">
      <rect id="사각형_1473" data-name="사각형 1473" width="15.359" height="13.569" transform="translate(0 0)" fill="none"/>
    </clipPath>
  </defs>
  <g id="ic_speaker" transform="translate(-19 -29.744)">
    <rect id="사각형_1409" data-name="사각형 1409" width="20" height="20" transform="translate(19 29.744)" fill="none"/>
    <g id="그룹_2612" data-name="그룹 2612" transform="translate(21 32.744)">
      <g id="그룹_2611" data-name="그룹 2611" clip-path="url(#clip-path)">
        <path id="패스_175" data-name="패스 175" d="M7.737,7.2a3.2,3.2,0,1,1,3.2-3.2,3.2,3.2,0,0,1-3.2,3.2" fill="#fff"/>
        <path id="패스_176" data-name="패스 176" d="M7.737,1.6A2.4,2.4,0,1,1,5.337,4a2.4,2.4,0,0,1,2.4-2.4m0-1.6a4,4,0,1,0,4,4,4,4,0,0,0-4-4"/>
        <path id="패스_177" data-name="패스 177" d="M.7,13.187A8,8,0,0,1,14.667,13" fill="#fff"/>
        <path id="패스_178" data-name="패스 178" d="M.7,13.187A8,8,0,0,1,14.667,13" fill="none" stroke="#000" stroke-width="1.6"/>
      </g>
    </g>
  </g>
</svg>
