<svg xmlns="http://www.w3.org/2000/svg" width="120" height="120" viewBox="0 0 120 120">
  <g id="그룹_4484" data-name="그룹 4484" transform="translate(-708.698 -839.999)">
    <rect id="사각형_4810" data-name="사각형 4810" width="120" height="120" transform="translate(708.698 839.999)" fill="none"/>
    <ellipse id="타원_468" data-name="타원 468" cx="35" cy="5.021" rx="35" ry="5.021" transform="translate(733.698 935.558)" fill="#f4f4f4"/>
    <g id="그룹_4481" data-name="그룹 4481" transform="translate(753.538 876)">
      <path id="패스_1155" data-name="패스 1155" d="M760.471,872.4a7,7,0,1,1-7,7,7.011,7.011,0,0,1,7-7m0-2.4a9.4,9.4,0,1,0,9.4,9.4,9.4,9.4,0,0,0-9.4-9.4Z" transform="translate(-745.064 -870)" fill="#000111"/>
      <path id="패스_1156" data-name="패스 1156" d="M761.224,886.407a12.681,12.681,0,0,1,12.469,10.008H748.757a12.677,12.677,0,0,1,12.468-10.008m0-2.4a15.17,15.17,0,0,0-15.159,14.808h30.319a15.168,15.168,0,0,0-15.16-14.808Z" transform="translate(-746.065 -867.199)" fill="#000111"/>
    </g>
    <path id="패스_1157" data-name="패스 1157" d="M772.35,919.816H742.9a10.388,10.388,0,0,1-10.375-10.376V867.375A10.388,10.388,0,0,1,742.9,857h42.065a10.388,10.388,0,0,1,10.376,10.375v30.673a1.2,1.2,0,1,1-2.4,0V867.375a7.985,7.985,0,0,0-7.976-7.975H742.9a7.984,7.984,0,0,0-7.975,7.975V909.44a7.985,7.985,0,0,0,7.975,7.976h29.45a1.2,1.2,0,1,1,0,2.4Z" transform="translate(4.765 3.4)" fill="#000111"/>
    <circle id="타원_469" data-name="타원 469" cx="12.414" cy="12.414" r="12.414" transform="translate(781.698 905.999)" fill="#ff7500"/>
    <path id="패스_1158" data-name="패스 1158" d="M789.043,909.876h-8.608a1.2,1.2,0,1,1,0-2.4h8.608a1.2,1.2,0,1,1,0,2.4Z" transform="translate(9.463 9.523)" fill="#fff"/>
    <path id="패스_1159" data-name="패스 1159" d="M784.021,914.9a1.2,1.2,0,0,1-1.2-1.2V905.09a1.2,1.2,0,0,1,2.4,0V913.7A1.2,1.2,0,0,1,784.021,914.9Z" transform="translate(9.877 9.109)" fill="#fff"/>
    <g id="그룹_4482" data-name="그룹 4482" transform="translate(717.46 906)">
      <path id="패스_1160" data-name="패스 1160" d="M726.8,901.4h-9.6a1.2,1.2,0,0,1,0-2.4h9.6a1.2,1.2,0,0,1,0,2.4Z" transform="translate(-716 -894.2)" fill="#000111"/>
      <path id="패스_1161" data-name="패스 1161" d="M721.2,907a1.2,1.2,0,0,1-1.2-1.2v-9.6a1.2,1.2,0,0,1,2.4,0v9.6A1.2,1.2,0,0,1,721.2,907Z" transform="translate(-715.2 -895)" fill="#000111"/>
    </g>
    <g id="그룹_4483" data-name="그룹 4483" transform="translate(806.86 862.8)">
      <path id="패스_1162" data-name="패스 1162" d="M801.4,864.4h-7.2a1.2,1.2,0,1,1,0-2.4h7.2a1.2,1.2,0,0,1,0,2.4Z" transform="translate(-793 -858.4)" fill="#000111"/>
      <path id="패스_1163" data-name="패스 1163" d="M797.2,868.6a1.2,1.2,0,0,1-1.2-1.2v-7.2a1.2,1.2,0,0,1,2.4,0v7.2A1.2,1.2,0,0,1,797.2,868.6Z" transform="translate(-792.4 -859)" fill="#000111"/>
    </g>
  </g>
</svg>
