<svg xmlns="http://www.w3.org/2000/svg" width="120" height="120" viewBox="0 0 120 120">
  <g id="그룹_4473" data-name="그룹 4473" transform="translate(-370.213 -843.001)">
    <rect id="사각형_4805" data-name="사각형 4805" width="120" height="120" transform="translate(370.213 843.001)" fill="none"/>
    <ellipse id="타원_462" data-name="타원 462" cx="35" cy="5.021" rx="35" ry="5.021" transform="translate(395.213 938.56)" fill="#f4f4f4"/>
    <path id="패스_1134" data-name="패스 1134" d="M437.748,938.6H410.48a9.778,9.778,0,0,1-9.767-9.767V866.767A9.778,9.778,0,0,1,410.48,857h27.268a9.778,9.778,0,0,1,9.766,9.767v62.067A9.778,9.778,0,0,1,437.748,938.6ZM410.48,859.4a7.375,7.375,0,0,0-7.367,7.367v62.067a7.375,7.375,0,0,0,7.367,7.367h27.268a7.374,7.374,0,0,0,7.366-7.367V866.767a7.374,7.374,0,0,0-7.366-7.367Z" transform="translate(6.1 2.8)" fill="#000111"/>
    <path id="패스_1135" data-name="패스 1135" d="M424.613,864.4h-7.2a1.2,1.2,0,1,1,0-2.4h7.2a1.2,1.2,0,1,1,0,2.4Z" transform="translate(9.2 3.8)" fill="#000111"/>
    <circle id="타원_463" data-name="타원 463" cx="13.223" cy="13.223" r="13.223" transform="translate(416.991 886.2)" fill="#ff7500"/>
    <path id="패스_1136" data-name="패스 1136" d="M419.946,894.2a1.2,1.2,0,0,1-.848-.352l-3.2-3.2a1.2,1.2,0,1,1,1.7-1.7l2.414,2.414,4.756-4.076a1.2,1.2,0,0,1,1.562,1.822l-5.6,4.8A1.2,1.2,0,0,1,419.946,894.2Z" transform="translate(9.067 8.8)" fill="#fff"/>
    <path id="패스_1137" data-name="패스 1137" d="M420.906,905l4.157-6h-8.314Z" transform="translate(9.308 11.201)" fill="#ff7500"/>
  </g>
</svg>
