<svg xmlns="http://www.w3.org/2000/svg" width="48" height="48" viewBox="0 0 48 48">
  <g id="그룹_4384" data-name="그룹 4384" transform="translate(-899 -442)">
    <rect id="사각형_4663" data-name="사각형 4663" width="48" height="48" transform="translate(899 442)" fill="none"/>
    <path id="Icon_awesome-star" data-name="Icon awesome-star" d="M22.034,1.529,16.4,12.9,3.8,14.732a2.747,2.747,0,0,0-1.526,4.69l9.115,8.848-2.156,12.5a2.756,2.756,0,0,0,4,2.895l11.271-5.9,11.271,5.9a2.758,2.758,0,0,0,4-2.895l-2.156-12.5,9.115-8.848a2.747,2.747,0,0,0-1.526-4.69l-12.6-1.83L26.984,1.529A2.767,2.767,0,0,0,22.034,1.529Z" transform="translate(897.559 444.88)" fill="#ff7500"/>
  </g>
</svg>
