<svg xmlns="http://www.w3.org/2000/svg" width="23.733" height="19.999" viewBox="0 0 23.733 19.999">
  <g id="_03" data-name="03" transform="translate(-726.834 -168.196)">
    <path id="패스_974" data-name="패스 974" d="M767.7,200.886a4.844,4.844,0,1,0-4.845,4.845A4.85,4.85,0,0,0,767.7,200.886Zm-8.2,0a3.358,3.358,0,1,1,3.358,3.359A3.362,3.362,0,0,1,759.5,200.886Z" transform="translate(-24.16 -21.574)" fill="#999"/>
    <path id="패스_975" data-name="패스 975" d="M744.45,171.484l-1.863-3.288h-7.772l-1.863,3.288h-6.118v1.486h6.984l1.863-3.288h6.039l1.863,3.288h5.5v13.738H728.32v-14h-1.486V188.2h23.733V171.484Z" transform="translate(0 0)" fill="#999"/>
  </g>
</svg>
