<svg xmlns="http://www.w3.org/2000/svg" width="90" height="90" viewBox="0 0 90 90">
  <g id="그룹_2174" data-name="그룹 2174" transform="translate(-1191 -7655)">
    <circle id="타원_420" data-name="타원 420" cx="45" cy="45" r="45" transform="translate(1191 7655)" fill="#fff"/>
    <g id="그룹_2168" data-name="그룹 2168" transform="translate(1203.77 7668)">
      <rect id="사각형_1297" data-name="사각형 1297" width="64" height="64" transform="translate(0.23)" fill="none"/>
      <circle id="타원_415" data-name="타원 415" cx="12.5" cy="12.5" r="12.5" transform="translate(6.23 6)" fill="#ff7500" opacity="0.15"/>
      <g id="그룹_2173" data-name="그룹 2173" transform="translate(16 16)">
        <path id="타원_406" data-name="타원 406" d="M16,2.215A13.785,13.785,0,0,0,6.253,25.747,13.785,13.785,0,0,0,25.747,6.253,13.694,13.694,0,0,0,16,2.215M16,0A16,16,0,1,1,0,16,16,16,0,0,1,16,0Z" fill="#111"/>
        <g id="그룹_2163" data-name="그룹 2163" transform="translate(9.969 12.431)">
          <path id="선_545" data-name="선 545" d="M4.1,5.211a1.1,1.1,0,0,1-.783-.324l-3.9-3.9A1.108,1.108,0,0,1,.991-.576l3.9,3.9A1.108,1.108,0,0,1,4.1,5.211Z" transform="translate(0.9 2.847)" fill="#111"/>
          <path id="선_546" data-name="선 546" d="M.208,7.159A1.108,1.108,0,0,1-.513,5.21L6.3-.633A1.108,1.108,0,1,1,7.746,1.049L.929,6.892A1.1,1.1,0,0,1,.208,7.159Z" transform="translate(4.795 0.9)" fill="#111"/>
        </g>
      </g>
    </g>
  </g>
</svg>
