<svg xmlns="http://www.w3.org/2000/svg" width="36" height="36" viewBox="0 0 36 36"><defs><style>.a,.b{fill:#fff}.a{opacity:0}.c{fill:#00c73c}</style></defs><g transform="translate(-101.497 49.649)"><rect class="a" width="36" height="36" transform="translate(101.497 -49.649)"/><g transform="translate(69.391 -188.947)"><path class="b" d="M59.683,146.519H40.528a4.431,4.431,0,0,0-4.422,4.44v10.53a4.429,4.429,0,0,0,4.422,4.437h6.6l2.252,3.664a.6.6,0,0,0,.071.105.754.754,0,0,0,1.308.006.47.47,0,0,0,.076-.111l2.25-3.664h6.6a4.432,4.432,0,0,0,4.423-4.437v-10.53a4.434,4.434,0,0,0-4.423-4.44" transform="translate(0)"/><path class="c" d="M41.483,152.665a2.283,2.283,0,0,0-1.461.677v-2.72H38.31v7.14h1.732V157.2a1.643,1.643,0,0,0,1.441.74,2.529,2.529,0,0,0,2.414-2.671s-.09-2.608-2.414-2.608m-.379,3.766a1.1,1.1,0,1,1,1.1-1.1,1.1,1.1,0,0,1-1.1,1.1" transform="translate(0.843 1.57)"/><path class="c" d="M42.75,150.5v1.655s.78-.035.78,1.423v4.227h1.654V153.19s.071-2.687-2.433-2.687" transform="translate(2.542 1.525)"/><path class="c" d="M48.217,152.117s-2.834,0-2.834,2.644a2.563,2.563,0,0,0,2.834,2.612s2.9-.006,2.9-2.612a2.6,2.6,0,0,0-2.9-2.644m0,3.743a1.1,1.1,0,1,1,1.1-1.1,1.1,1.1,0,0,1-1.1,1.1" transform="translate(3.549 2.142)"/><path class="c" d="M54.018,152.284v.487a1.876,1.876,0,0,0-1.439-.654,2.362,2.362,0,0,0-2.425,2.626s-.025,2.543,2.357,2.543a1.971,1.971,0,0,0,1.507-.653v.4a1.089,1.089,0,0,1-1.092,1.253H52.51V159.8h.668a2.489,2.489,0,0,0,2.505-2.677v-4.842Zm-1.025,3.576a1.1,1.1,0,1,1,1.1-1.1,1.1,1.1,0,0,1-1.1,1.1" transform="translate(5.375 2.142)"/></g></g></svg>