<svg xmlns="http://www.w3.org/2000/svg" width="30" height="30" viewBox="0 0 30 30">
  <g id="그룹_4613" data-name="그룹 4613" transform="translate(-1640 -947)">
    <rect id="사각형_397" data-name="사각형 397" width="30" height="30" transform="translate(1640 947)" fill="none"/>
    <g id="그룹_4612" data-name="그룹 4612" transform="translate(-4.271 0.753)">
      <rect id="사각형_397-2" data-name="사각형 397" width="25" height="25" transform="translate(1647.271 949.247)" fill="none"/>
      <g id="그룹_4543" data-name="그룹 4543" transform="translate(1647.266 949.835)">
        <path id="패스_1129" data-name="패스 1129" d="M23.31,4.769h-12.7A1.071,1.071,0,0,0,9.6,5.891a1.071,1.071,0,0,0,1.011,1.122H22.084l-1.376,7.855H9.447L6.351.855A1.038,1.038,0,0,0,5.37,0H1.011A1.071,1.071,0,0,0,0,1.122,1.071,1.071,0,0,0,1.011,2.244H4.577l3.1,14.013a1.038,1.038,0,0,0,.982.855H21.541a1.044,1.044,0,0,0,.992-.908L24.3,6.105a1.214,1.214,0,0,0-.212-.928.974.974,0,0,0-.78-.408" transform="translate(0.093 0.093)"/>
        <path id="패스_1129_-_윤곽선" data-name="패스 1129 - 윤곽선" d="M21.517,17.2H8.653a1.15,1.15,0,0,1-1.091-.948L4.493,2.389H1.023A1.19,1.19,0,0,1-.1,1.144,1.19,1.19,0,0,1,1.023-.1H5.374A1.15,1.15,0,0,1,6.465.848L9.534,14.709H20.592l1.329-7.57H10.608A1.19,1.19,0,0,1,9.485,5.894,1.19,1.19,0,0,1,10.608,4.65H23.283a1.08,1.08,0,0,1,.867.453,1.339,1.339,0,0,1,.236,1.029L22.62,16.191A1.161,1.161,0,0,1,21.517,17.2ZM1.023.153a.948.948,0,0,0-.895.991.948.948,0,0,0,.895.991h3.65L7.785,16.189a.916.916,0,0,0,.869.755H21.517a.925.925,0,0,0,.878-.8L24.161,6.084a1.067,1.067,0,0,0-.188-.819.86.86,0,0,0-.69-.361H10.608a.948.948,0,0,0-.895.991.948.948,0,0,0,.895.991H22.2L20.78,14.962H9.355L6.243.908A.916.916,0,0,0,5.374.153Z" transform="translate(0.1 0.1)"/>
        <path id="패스_1130" data-name="패스 1130" d="M39.083,69.533a2.236,2.236,0,1,0-2.236,2.236,2.239,2.239,0,0,0,2.236-2.236m-2.983,0a.747.747,0,1,1,.747.747.748.748,0,0,1-.747-.747" transform="translate(-25.28 -48.805)"/>
        <path id="패스_1130_-_윤곽선" data-name="패스 1130 - 윤곽선" d="M36.84,71.855a2.329,2.329,0,1,1,2.329-2.329A2.331,2.331,0,0,1,36.84,71.855Zm0-4.472a2.143,2.143,0,1,0,2.143,2.143A2.146,2.146,0,0,0,36.84,67.382Zm0,2.983a.84.84,0,1,1,.84-.84A.841.841,0,0,1,36.84,70.366Zm0-1.495a.655.655,0,1,0,.655.655A.655.655,0,0,0,36.84,68.871Z" transform="translate(-25.274 -48.798)"/>
        <path id="패스_1131" data-name="패스 1131" d="M67.778,69.533a2.236,2.236,0,1,0-2.236,2.236,2.239,2.239,0,0,0,2.236-2.236m-2.983,0a.747.747,0,1,1,.747.747.748.748,0,0,1-.747-.747" transform="translate(-45.63 -48.805)"/>
        <path id="패스_1131_-_윤곽선" data-name="패스 1131 - 윤곽선" d="M65.535,71.855a2.329,2.329,0,1,1,2.329-2.329A2.331,2.331,0,0,1,65.535,71.855Zm0-4.472a2.143,2.143,0,1,0,2.143,2.143A2.146,2.146,0,0,0,65.535,67.382Zm0,2.983a.84.84,0,1,1,.84-.84A.841.841,0,0,1,65.535,70.366Zm0-1.495a.655.655,0,1,0,.655.655A.655.655,0,0,0,65.535,68.871Z" transform="translate(-45.623 -48.798)"/>
      </g>
    </g>
  </g>
</svg>
