<svg xmlns="http://www.w3.org/2000/svg" width="20" height="20" viewBox="0 0 20 20">
  <g id="그룹_1995" data-name="그룹 1995" transform="translate(-200 -934)">
    <path id="Icon_material-filter-none" data-name="Icon material-filter-none" d="M2.82,4.139H1.5V14.7a1.323,1.323,0,0,0,1.32,1.32H13.376V14.7H2.82ZM14.7,1.5H5.459a1.323,1.323,0,0,0-1.32,1.32v9.237a1.323,1.323,0,0,0,1.32,1.32H14.7a1.323,1.323,0,0,0,1.32-1.32V2.82A1.323,1.323,0,0,0,14.7,1.5Zm0,10.557H5.459V2.82H14.7Z" transform="translate(201.5 935.5)"/>
    <rect id="사각형_1136" data-name="사각형 1136" width="20" height="20" transform="translate(200 934)" fill="none"/>
  </g>
</svg>
