<svg xmlns="http://www.w3.org/2000/svg" width="52" height="52" viewBox="0 0 52 52">
  <g id="그룹_1857" data-name="그룹 1857" transform="translate(-295 -9201)">
    <g id="그룹_1856" data-name="그룹 1856" transform="translate(295 9201)">
      <path id="패스_139" data-name="패스 139" d="M52,26A26,26,0,1,1,26,0,26,26,0,0,1,52,26" fill="#ff7500"/>
      <path id="패스_140" data-name="패스 140" d="M77.945,102.28a4.382,4.382,0,0,0-6.2,0,4.665,4.665,0,0,0-.019,6.369,4.367,4.367,0,0,0,7.484-3.175,4.316,4.316,0,0,0-1.266-3.194m-8.3,8.335a6.939,6.939,0,0,1-2.079-5.1,7.194,7.194,0,0,1,7.276-7.277,7.22,7.22,0,1,1-.019,14.439,7.037,7.037,0,0,1-5.178-2.061" transform="translate(-54.651 -79.456)" fill="#fff"/>
      <path id="패스_141" data-name="패스 141" d="M155.695,113.487V99.52h9.317v2.646h-6.52V105.3h5.727v2.628h-5.727v5.557Z" transform="translate(-125.929 -80.493)" fill="#fff"/>
    </g>
  </g>
</svg>
