<svg id="그룹_1110" data-name="그룹 1110" xmlns="http://www.w3.org/2000/svg" xmlns:xlink="http://www.w3.org/1999/xlink" width="22" height="22" viewBox="0 0 22 22">
  <g id="그룹_1109" data-name="그룹 1109" clip-path="url(#clip-path)">
    <path id="패스_88" data-name="패스 88" d="M7.072,6.218a3.983,3.983,0,0,0,3.517,3.241A3.991,3.991,0,0,1,7.072,6.218"/>
    <path id="패스_89" data-name="패스 89" d="M11,1.5a3.99,3.99,0,0,1,.273,7.972A3.991,3.991,0,1,0,7.066,4.851,4,4,0,0,1,11,1.5"/>
    <path id="패스_90" data-name="패스 90" d="M10.589,9.459A3.972,3.972,0,0,0,11,9.5c.093,0,.18-.022.272-.028-.091.006-.179.027-.272.027a3.972,3.972,0,0,1-.411-.041"/>
    <path id="패스_91" data-name="패스 91" d="M7.072,6.218A4.045,4.045,0,0,1,7,5.5a3.976,3.976,0,0,1,.065-.649A3.977,3.977,0,0,0,7,5.5a3.954,3.954,0,0,0,.073.718"/>
    <path id="패스_92" data-name="패스 92" d="M7.073,6.218a3.988,3.988,0,0,0,3.516,3.24A3.739,3.739,0,0,0,11,9.5c.094,0,.181-.021.273-.028A3.991,3.991,0,1,0,7.066,4.851,3.965,3.965,0,0,0,7,5.5a3.954,3.954,0,0,0,.073.718M11,3.5a2,2,0,1,1-2,2,2,2,0,0,1,2-2"/>
    <path id="패스_93" data-name="패스 93" d="M11,10.5a9,9,0,0,0-8.954,8.08A9,9,0,0,1,20,19.5v1h0v-1a9,9,0,0,0-9-9"/>
    <path id="패스_94" data-name="패스 94" d="M2.047,18.58A9,9,0,0,0,2,19.5v1H2v-1a9.01,9.01,0,0,1,.046-.92"/>
    <path id="패스_95" data-name="패스 95" d="M20,19.5a9,9,0,0,0-17.954-.919c-.03.3-.046.609-.046.919v1H20Zm-15.929-1a7,7,0,0,1,13.857,0Z"/>
  </g>
</svg>
