<svg xmlns="http://www.w3.org/2000/svg" width="90" height="90" viewBox="0 0 90 90">
  <g id="그룹_2177" data-name="그룹 2177" transform="translate(-777 -7655)">
    <circle id="타원_417" data-name="타원 417" cx="45" cy="45" r="45" transform="translate(777 7655)" fill="#fff"/>
    <g id="그룹_2171" data-name="그룹 2171" transform="translate(789.615 7668)">
      <rect id="사각형_1300" data-name="사각형 1300" width="64" height="64" transform="translate(0.385)" fill="none"/>
      <ellipse id="타원_412" data-name="타원 412" cx="12" cy="12.5" rx="12" ry="12.5" transform="translate(6.385 6)" fill="#ff7500" opacity="0.15"/>
      <g id="그룹_2165" data-name="그룹 2165" transform="translate(18.462 18.462)">
        <path id="빼기_1" data-name="빼기 1" d="M-10301.017,23077.555a11.839,11.839,0,0,0-3.391-6.84,11.838,11.838,0,0,0-8.437-3.5,11.854,11.854,0,0,0-8.444,3.5,11.844,11.844,0,0,0-3.391,6.84h23.662m2.308,2.215h-28.277c-.01-.25-.014-.437-.014-.613a14.058,14.058,0,0,1,4.146-10.008,14.056,14.056,0,0,1,10.011-4.148,14.043,14.043,0,0,1,10,4.148,14.055,14.055,0,0,1,4.145,10.008c0,.188,0,.387-.014.613Z" transform="translate(10327 -23051.461)" fill="#111"/>
        <path id="타원_410" data-name="타원 410" d="M6.154,2.215a3.938,3.938,0,1,0,3.938,3.938A3.943,3.943,0,0,0,6.154,2.215M6.154,0A6.154,6.154,0,1,1,0,6.154,6.154,6.154,0,0,1,6.154,0Z" transform="translate(7.999)" fill="#111"/>
      </g>
    </g>
  </g>
</svg>
