<svg xmlns="http://www.w3.org/2000/svg" xmlns:xlink="http://www.w3.org/1999/xlink" width="90" height="90" viewBox="0 0 90 90">
  <defs>
    <clipPath id="clip-path">
      <rect id="사각형_4656" data-name="사각형 4656" width="47.356" height="45" fill="none"/>
    </clipPath>
    <clipPath id="clip-path-3">
      <rect id="사각형_4654" data-name="사각형 4654" width="25" height="25" fill="none"/>
    </clipPath>
  </defs>
  <g id="ic_signUp_step4" transform="translate(-605 -7655)">
    <circle id="타원_416" data-name="타원 416" cx="45" cy="45" r="45" transform="translate(605 7655)" fill="#fff"/>
    <g id="그룹_2172" data-name="그룹 2172" transform="translate(618 7668)">
      <rect id="사각형_1301" data-name="사각형 1301" width="64" height="64" fill="none"/>
      <g id="그룹_3963" data-name="그룹 3963" transform="translate(6 7)">
        <g id="그룹_3962" data-name="그룹 3962" clip-path="url(#clip-path)">
          <g id="그룹_3961" data-name="그룹 3961">
            <g id="그룹_3960" data-name="그룹 3960" clip-path="url(#clip-path)">
              <g id="그룹_3959" data-name="그룹 3959" opacity="0.15" style="mix-blend-mode: normal;isolation: isolate">
                <g id="그룹_3958" data-name="그룹 3958">
                  <g id="그룹_3957" data-name="그룹 3957" clip-path="url(#clip-path-3)">
                    <path id="패스_1086" data-name="패스 1086" d="M12.5,0A12.5,12.5,0,1,1,0,12.5,12.5,12.5,0,0,1,12.5,0" fill="#ff7500"/>
                  </g>
                </g>
              </g>
              <path id="패스_1087" data-name="패스 1087" d="M42,26.809A15.915,15.915,0,1,1,26.085,10.894,15.915,15.915,0,0,1,42,26.809" fill="none" stroke="#111" stroke-linecap="round" stroke-linejoin="round" stroke-width="2.5"/>
              <path id="패스_1088" data-name="패스 1088" d="M24.429,24.865a2.684,2.684,0,0,0-3.794,0l0,0a2.857,2.857,0,0,0-.011,3.9A2.674,2.674,0,0,0,25.2,26.82a2.644,2.644,0,0,0-.774-1.955m-5.078,5.1a4.244,4.244,0,0,1-1.273-3.123,4.4,4.4,0,0,1,4.351-4.456c.034,0,.069,0,.1,0a4.42,4.42,0,1,1,.139,8.838h-.15a4.3,4.3,0,0,1-3.17-1.261" fill="#111"/>
              <path id="패스_1089" data-name="패스 1089" d="M28.391,31.09V22.541h5.7V24.16H30.1v1.92h3.506v1.609H30.1v3.4Z" fill="#111"/>
              <path id="패스_1090" data-name="패스 1090" d="M47.356,37a8,8,0,1,1-8-8,8,8,0,0,1,8,8" fill="#111"/>
              <line id="선_594" data-name="선 594" x2="5.426" transform="translate(36.644 37)" fill="none" stroke="#fff" stroke-linecap="square" stroke-width="2"/>
              <line id="선_595" data-name="선 595" y1="5.426" transform="translate(39.356 34.287)" fill="none" stroke="#fff" stroke-linecap="square" stroke-width="2"/>
            </g>
          </g>
        </g>
      </g>
    </g>
  </g>
</svg>
