<svg id="그룹_2135" data-name="그룹 2135" xmlns="http://www.w3.org/2000/svg" width="24" height="24" viewBox="0 0 24 24">
  <rect id="사각형_1278" data-name="사각형 1278" width="24" height="24" fill="none"/>
  <g id="그룹_2134" data-name="그룹 2134" transform="translate(4.729 3.82)">
    <path id="타원_398" data-name="타원 398" d="M2.727,1.636A1.091,1.091,0,1,0,3.818,2.727,1.092,1.092,0,0,0,2.727,1.636M2.727,0A2.727,2.727,0,1,1,0,2.727,2.727,2.727,0,0,1,2.727,0Z" transform="translate(7.272)" fill="#111"/>
    <path id="타원_399" data-name="타원 399" d="M2.727,1.636A1.091,1.091,0,1,0,3.818,2.727,1.092,1.092,0,0,0,2.727,1.636M2.727,0A2.727,2.727,0,1,1,0,2.727,2.727,2.727,0,0,1,2.727,0Z" transform="translate(0 5.454)" fill="#111"/>
    <path id="타원_400" data-name="타원 400" d="M2.727,1.636A1.091,1.091,0,1,0,3.818,2.727,1.092,1.092,0,0,0,2.727,1.636M2.727,0A2.727,2.727,0,1,1,0,2.727,2.727,2.727,0,0,1,2.727,0Z" transform="translate(7.272 11.816)" fill="#111"/>
    <path id="선_539" data-name="선 539" d="M.46,4.211-.562,2.933,3.983-.7,5,.575Z" transform="translate(4.141 3.245)" fill="#111"/>
    <path id="선_540" data-name="선 540" d="M3.983,4.211-.562.575.46-.7,5,2.933Z" transform="translate(4.141 9.154)" fill="#111"/>
  </g>
</svg>
