<svg id="ic_kakao" xmlns="http://www.w3.org/2000/svg" xmlns:xlink="http://www.w3.org/1999/xlink" width="40" height="40" viewBox="0 0 40 40">
  <defs>
    <clipPath id="clip-path">
      <rect id="사각형_4920" data-name="사각형 4920" width="26" height="26" transform="translate(0.42 0.957)"/>
    </clipPath>
  </defs>
  <rect id="사각형_1177" data-name="사각형 1177" width="40" height="40" fill="none"/>
  <g id="Apple_Logo" data-name="Apple Logo" transform="translate(6.58 6.043)" clip-path="url(#clip-path)">
    <rect id="사각형_4919" data-name="사각형 4919" width="26" height="26" transform="translate(0.42 0.957)" fill="none"/>
    <path id="패스_1128" data-name="패스 1128" d="M23.525,21.082a13.983,13.983,0,0,1-1.383,2.486,12.633,12.633,0,0,1-1.781,2.153,3.456,3.456,0,0,1-2.29,1.008,5.738,5.738,0,0,1-2.115-.5,6.068,6.068,0,0,0-2.277-.5,6.273,6.273,0,0,0-2.341.5,6.3,6.3,0,0,1-2.023.532,3.254,3.254,0,0,1-2.341-1.035,13.265,13.265,0,0,1-1.863-2.229,15.417,15.417,0,0,1-1.97-3.914,14.33,14.33,0,0,1-.827-4.664,8.518,8.518,0,0,1,1.119-4.456,6.561,6.561,0,0,1,2.343-2.37,6.3,6.3,0,0,1,3.167-.894,7.457,7.457,0,0,1,2.45.57,7.875,7.875,0,0,0,1.943.571,11.627,11.627,0,0,0,2.155-.673,7.121,7.121,0,0,1,2.928-.52,6.218,6.218,0,0,1,4.871,2.565,5.418,5.418,0,0,0-2.874,4.922A5.43,5.43,0,0,0,22.2,18.721a5.862,5.862,0,0,0,1.781,1.169Q23.765,20.511,23.525,21.082ZM18.562,1.552a5.487,5.487,0,0,1-1.407,3.6,4.793,4.793,0,0,1-3.981,1.965,4,4,0,0,1-.03-.487,5.638,5.638,0,0,1,1.492-3.637,5.746,5.746,0,0,1,1.818-1.365,5.42,5.42,0,0,1,2.08-.589,4.683,4.683,0,0,1,.027.515Z" transform="translate(0.274 0.059)"/>
  </g>
</svg>
