<svg id="그룹_297" data-name="그룹 297" xmlns="http://www.w3.org/2000/svg" xmlns:xlink="http://www.w3.org/1999/xlink" width="50" height="50" viewBox="0 0 50 50">
  <defs>
    <clipPath id="clip-path">
      <rect id="사각형_100" data-name="사각형 100" width="50" height="50" fill="none"/>
    </clipPath>
  </defs>
  <g id="그룹_296" data-name="그룹 296" clip-path="url(#clip-path)">
    <path id="패스_24" data-name="패스 24" d="M50,25A25,25,0,1,1,25,0,25,25,0,0,1,50,25" fill="#ff7500"/>
    <path id="패스_25" data-name="패스 25" d="M77.546,102.125a4.213,4.213,0,0,0-5.961,0,4.485,4.485,0,0,0-.018,6.124,4.2,4.2,0,0,0,7.2-3.053,4.151,4.151,0,0,0-1.217-3.071m-7.978,8.014a6.672,6.672,0,0,1-2-4.906,6.918,6.918,0,0,1,7-7,6.943,6.943,0,1,1-.018,13.884,6.766,6.766,0,0,1-4.979-1.981" transform="translate(-55.148 -80.177)" fill="#fff"/>
    <path id="패스_26" data-name="패스 26" d="M155.695,112.95V99.52h8.959v2.544h-6.269v3.016h5.507v2.527h-5.507v5.343Z" transform="translate(-127.073 -81.225)" fill="#fff"/>
    <path id="패스_27" data-name="패스 27" d="M240.865,242.9v.5h-.591v1.5h-.563v-1.5h-.591v-.5Z" transform="translate(-195.163 -198.245)" fill="#ff7500"/>
    <path id="패스_28" data-name="패스 28" d="M250.978,242.9h.861v2H251.3v-.568q0-.551.017-.937-.062.247-.118.444l-.29,1.061h-.456l-.29-1.061q-.056-.2-.118-.444.017.385.017.937v.568h-.534v-2h.861l.191.76q.073.293.1.431.028-.138.1-.431Z" transform="translate(-203.661 -198.246)" fill="#ff7500"/>
  </g>
</svg>
