<svg xmlns="http://www.w3.org/2000/svg" width="60" height="60" viewBox="0 0 60 60">
  <g id="그룹_9599" data-name="그룹 9599" transform="translate(-120 -640)">
    <circle id="타원_407" data-name="타원 407" cx="30" cy="30" r="30" transform="translate(120 640)" fill="#fff4eb"/>
    <g id="그룹_9592" data-name="그룹 9592" transform="translate(-137 -1681)">
      <path id="패스_2985" data-name="패스 2985" d="M299.864,2340H274.821a1.821,1.821,0,0,0-1.821,1.821v18.669a1.821,1.821,0,0,0,1.821,1.821h25.043a1.821,1.821,0,0,0,1.821-1.821v-18.669a1.821,1.821,0,0,0-1.821-1.821Zm0,1.821v13.246l-3.589-3.263a1.366,1.366,0,0,0-1.884.045l-3.633,3.632-7.163-8.556a1.366,1.366,0,0,0-2.083-.014l-6.691,7.776v-12.866Zm-7.74,4.781a2.5,2.5,0,1,1,2.5,2.5,2.5,2.5,0,0,1-2.5-2.5Zm0,0" fill="#ff7500"/>
    </g>
  </g>
</svg>
