<svg xmlns="http://www.w3.org/2000/svg" width="60" height="60" viewBox="0 0 60 60">
  <g id="그룹_9601" data-name="그룹 9601" transform="translate(-120 -859)">
    <circle id="타원_409" data-name="타원 409" cx="30" cy="30" r="30" transform="translate(120 859)" fill="#fff4eb"/>
    <path id="패스_2987" data-name="패스 2987" d="M-483.48,504.053c.645,2.711,4.131,6.067,6.713,6.713a2.46,2.46,0,0,0,2.84-1.549h0a2.4,2.4,0,0,1,4-.9l3.615,3.615a2.578,2.578,0,0,1,0,3.486l-2.453,2.453c-2.582,2.582-9.424-.258-15.491-6.325s-8.778-12.909-6.326-15.491l2.453-2.453a2.578,2.578,0,0,1,3.486,0l3.615,3.615a2.4,2.4,0,0,1-.9,4h0A2.34,2.34,0,0,0-483.48,504.053Z" transform="translate(628.48 383.08)" fill="#ff7500"/>
  </g>
</svg>
