<svg xmlns="http://www.w3.org/2000/svg" width="32" height="32" viewBox="0 0 32 32">
  <g id="그룹_2054" data-name="그룹 2054" transform="translate(-1838 -347)">
    <rect id="사각형_1235" data-name="사각형 1235" width="32" height="32" transform="translate(1838 347)" fill="#fff"/>
    <g id="그룹_2030" data-name="그룹 2030">
      <path id="사각형_1240" data-name="사각형 1240" d="M1.8,1.8V4.2H20.2V1.8H1.8M1,0H21a1,1,0,0,1,1,1V5a1,1,0,0,1-1,1H1A1,1,0,0,1,0,5V1A1,1,0,0,1,1,0Z" transform="translate(1843 357)" fill="#111"/>
      <path id="사각형_1241" data-name="사각형 1241" d="M1.8,1.8v9.4H18.2V1.8H1.8M1,0H19a1,1,0,0,1,1,1V12a1,1,0,0,1-1,1H1a1,1,0,0,1-1-1V1A1,1,0,0,1,1,0Z" transform="translate(1844 361)" fill="#111"/>
      <path id="패스_153" data-name="패스 153" d="M11894.447-22707.4a.9.9,0,0,1-.519-.166.9.9,0,0,1-.215-1.254l3.255-4.6,4.924,4.451a.9.9,0,0,1,.064,1.271.9.9,0,0,1-1.271.064l-3.42-3.092-2.083,2.943A.9.9,0,0,1,11894.447-22707.4Z" transform="translate(-10047.289 23065.943)" fill="#111"/>
      <path id="패스_154" data-name="패스 154" d="M11901.291-22707.4a.9.9,0,0,1-.735-.381l-2.083-2.943-3.42,3.092a.9.9,0,0,1-1.271-.064.9.9,0,0,1,.064-1.271l4.924-4.451,3.255,4.6a.9.9,0,0,1-.215,1.254A.9.9,0,0,1,11901.291-22707.4Z" transform="translate(-10040.29 23065.943)" fill="#111"/>
    </g>
  </g>
</svg>
