<svg id="구성_요소_11_1" data-name="구성 요소 11 – 1" xmlns="http://www.w3.org/2000/svg" xmlns:xlink="http://www.w3.org/1999/xlink" width="32" height="32" viewBox="0 0 32 32">
  <defs>
    <clipPath id="clip-path">
      <rect id="사각형_4919" data-name="사각형 4919" width="27" height="24" transform="translate(-0.349 0.152)" fill="none"/>
    </clipPath>
  </defs>
  <rect id="사각형_4918" data-name="사각형 4918" width="32" height="32" fill="none"/>
  <g id="그룹_4978" data-name="그룹 4978" transform="translate(3.35 3.848)">
    <g id="그룹_4977" data-name="그룹 4977" clip-path="url(#clip-path)">
      <path id="패스_1132" data-name="패스 1132" d="M26.48,6.157a.832.832,0,0,0-.662-.327H11.66a.833.833,0,0,0,0,1.666H24.728l-2.045,7.5H6.512L4.148,3.168a.839.839,0,0,0-.228-.426l-2.5-2.5A.833.833,0,0,0,.244,1.422l2.32,2.32L5.014,15.987a.832.832,0,0,0,.816.67h17.49a.833.833,0,0,0,.8-.614l2.5-9.161a.833.833,0,0,0-.142-.725" transform="translate(0 0)" fill="#161615"/>
      <path id="패스_1133" data-name="패스 1133" d="M11.331,21a3.331,3.331,0,1,0,3.331,3.331A3.335,3.335,0,0,0,11.331,21m0,5A1.666,1.666,0,1,1,13,24.331,1.667,1.667,0,0,1,11.331,26" transform="translate(-1.337 -3.51)" fill="#161615"/>
      <path id="패스_1134" data-name="패스 1134" d="M22.331,21a3.331,3.331,0,1,0,3.331,3.331A3.335,3.335,0,0,0,22.331,21m0,5A1.666,1.666,0,1,1,24,24.331,1.667,1.667,0,0,1,22.331,26" transform="translate(-3.176 -3.51)" fill="#161615"/>
    </g>
  </g>
</svg>
