<svg xmlns="http://www.w3.org/2000/svg" width="32" height="32" viewBox="0 0 32 32">
  <g id="그룹_2053" data-name="그룹 2053" transform="translate(-1838 -283)">
    <rect id="사각형_1234" data-name="사각형 1234" width="32" height="32" transform="translate(1838 283)" fill="none"/>
    <g id="그룹_2023" data-name="그룹 2023" transform="translate(1841 285.49)">
      <g id="그룹_2024" data-name="그룹 2024" transform="translate(0 0.001)">
        <path id="패스_150" data-name="패스 150" d="M5.345,27.992a1.1,1.1,0,0,1-1.1-1.1V22.076A13.258,13.258,0,0,1,.612,17.9,12.1,12.1,0,0,1-.9,12.02,12.421,12.421,0,0,1,3.176,2.862,14.259,14.259,0,0,1,12.935-.9a14.259,14.259,0,0,1,9.759,3.762,12.328,12.328,0,0,1,0,18.318,14.259,14.259,0,0,1-9.759,3.761,14.878,14.878,0,0,1-2.636-.235L5.985,27.787A1.1,1.1,0,0,1,5.345,27.992ZM12.935.9C6.3.9.9,5.889.9,12.02a10.778,10.778,0,0,0,4.764,8.861l.383.269v4.381l3.841-2.744.386.081a13.053,13.053,0,0,0,2.66.274c6.636,0,12.035-4.989,12.035-11.121S19.571.9,12.935.9Z" transform="translate(0)" fill="#111"/>
        <path id="패스_151" data-name="패스 151" d="M45.236,21.53a2.508,2.508,0,0,0-1.93-.718,2.622,2.622,0,0,0-1.266.306,3.049,3.049,0,0,0-.725.538V17.765h-1.83V28.076H41.3V24.225a2.656,2.656,0,0,1,.13-.86,1.966,1.966,0,0,1,.349-.635,1.51,1.51,0,0,1,.508-.392A1.429,1.429,0,0,1,42.9,22.2a1.186,1.186,0,0,1,.869.3,1.568,1.568,0,0,1,.3,1.11v4.461h1.817V23.688a3.106,3.106,0,0,0-.658-2.159" transform="translate(-24.227 -10.9)" fill="#111"/>
        <path id="패스_152" data-name="패스 152" d="M15.746,20.226a3,3,0,0,1,2.8,1.99H20.5a4.916,4.916,0,0,0-4.75-3.932,5.059,5.059,0,0,0,0,10.111,4.917,4.917,0,0,0,4.75-3.932H18.544a3.005,3.005,0,0,1-2.8,1.989,3.115,3.115,0,0,1,0-6.226" transform="translate(-6.672 -11.219)" fill="#111"/>
      </g>
    </g>
  </g>
</svg>
