<svg id="구성_요소_12_1" data-name="구성 요소 12 – 1" xmlns="http://www.w3.org/2000/svg" width="32" height="32" viewBox="0 0 32 32">
  <rect id="사각형_4920" data-name="사각형 4920" width="32" height="32" fill="none"/>
  <g id="타원_441" data-name="타원 441" transform="translate(3 3)" fill="none" stroke="#000" stroke-width="1.7">
    <circle cx="13.5" cy="13.5" r="13.5" stroke="none"/>
    <circle cx="13.5" cy="13.5" r="12.65" fill="none"/>
  </g>
  <path id="패스_1135" data-name="패스 1135" d="M-.136-8.617c-.279,0-.411.093-.478.4L-1.754-3.337-2.7-8.365c-.066-.358-.146-.4-.411-.332l-1.273.332c-.252.066-.332.186-.265.491l.531,2.547H-5.15c-.371,0-.544.119-.544.491V-3.8c0,.371.172.491.544.491h1.459l.623,2.945c.093.464.279.57.65.57h.955C-1.1.2-.919.1-.812-.366L.156-4.531,1.151-.366c.106.464.305.57.637.57h.955c.371,0,.557-.106.65-.57L4-3.311H5.475c.371,0,.544-.119.544-.491V-4.836c0-.371-.172-.491-.544-.491H4.427l.544-2.547c.066-.305-.013-.424-.265-.491L3.432-8.7c-.265-.066-.345-.027-.411.332L2.079-3.311.938-8.219c-.066-.305-.186-.4-.464-.4Z" transform="translate(16.577 20.634)" fill="#111"/>
</svg>
