<svg id="구성_요소_13_1" data-name="구성 요소 13 – 1" xmlns="http://www.w3.org/2000/svg" xmlns:xlink="http://www.w3.org/1999/xlink" width="32" height="32" viewBox="0 0 32 32">
  <defs>
    <clipPath id="clip-path">
      <rect id="사각형_4926" data-name="사각형 4926" width="26.208" height="22.477"/>
    </clipPath>
  </defs>
  <rect id="사각형_1234" data-name="사각형 1234" width="32" height="32" fill="none"/>
  <g id="그룹_5003" data-name="그룹 5003" transform="translate(2.896 5.053)">
    <g id="그룹_5004" data-name="그룹 5004" clip-path="url(#clip-path)">
      <path id="패스_1142" data-name="패스 1142" d="M13.1,22.477l-.541-.347C11.277,21.306,0,13.9,0,7.821,0,1.405,5.092,0,7.054,0A8.1,8.1,0,0,1,13.1,2.936,8.1,8.1,0,0,1,19.155,0c1.962,0,7.054,1.405,7.054,7.821,0,6.083-11.277,13.485-12.563,14.309ZM7.054,2.007c-.05,0-5.047.066-5.047,5.814,0,4.01,7.555,9.9,11.1,12.264,3.542-2.368,11.1-8.254,11.1-12.264,0-5.747-5-5.814-5.047-5.814-1.909,0-3.676,1.043-5.254,3.1l-.8,1.039-.8-1.039C10.73,3.05,8.963,2.007,7.054,2.007Z" transform="translate(0)"/>
    </g>
  </g>
</svg>
