<svg id="구성_요소_16_76" data-name="구성 요소 16 – 76" xmlns="http://www.w3.org/2000/svg" width="32" height="32" viewBox="0 0 32 32">
  <rect id="사각형_4924" data-name="사각형 4924" width="32" height="32" fill="none"/>
  <g id="그룹_5005" data-name="그룹 5005" transform="translate(0.351 0.359)">
    <path id="패스_1141" data-name="패스 1141" d="M23.009,7.587a2.215,2.215,0,0,0-1.71-.8H17.039V5.276a5.276,5.276,0,1,0-10.553,0V6.784H2.224a2.213,2.213,0,0,0-1.709.8A2.19,2.19,0,0,0,.035,9.375L1.752,22.309a2.224,2.224,0,0,0,2.184,1.812H19.59a2.233,2.233,0,0,0,2.19-1.852l1.7-12.854a2.215,2.215,0,0,0-.474-1.828M7.994,5.276a3.769,3.769,0,1,1,7.538,0V6.784H7.994Zm14,3.9-1.7,12.853a.714.714,0,0,1-.7.583H3.935a.707.707,0,0,1-.7-.543L1.522,9.137a.714.714,0,0,1,.7-.846H21.3a.71.71,0,0,1,.55.258A.738.738,0,0,1,22,9.177" transform="translate(3.489 3.527)"/>
    <path id="패스_1141_-_윤곽선" data-name="패스 1141 - 윤곽선" d="M19.592,24.271H3.932A2.369,2.369,0,0,1,1.6,22.339v-.008L-.114,9.4A2.368,2.368,0,0,1,2.221,6.636H6.338V5.274a5.424,5.424,0,0,1,10.848,0V6.636H21.3a2.368,2.368,0,0,1,2.328,2.8L21.926,22.3A2.392,2.392,0,0,1,19.592,24.271Zm-17.7-1.981a2.078,2.078,0,0,0,2.041,1.69h15.66a2.1,2.1,0,0,0,2.047-1.73L23.345,9.387A2.077,2.077,0,0,0,21.3,6.928H16.895V5.274a5.133,5.133,0,0,0-10.265,0V6.928H2.221a2.068,2.068,0,0,0-1.6.75,2.051,2.051,0,0,0-.45,1.669v.008Zm17.7.473H3.932a.85.85,0,0,1-.839-.662v-.008L1.375,9.159a.86.86,0,0,1,.846-1.014H21.3a.856.856,0,0,1,.662.31.883.883,0,0,1,.178.745L20.438,22.061A.861.861,0,0,1,19.592,22.763ZM3.38,22.05a.563.563,0,0,0,.552.421h15.66a.569.569,0,0,0,.558-.46L21.856,9.15a.6.6,0,0,0-.115-.509.559.559,0,0,0-.438-.2H2.221a.568.568,0,0,0-.559.674v.008Zm12.3-15.122H7.846V5.274a3.916,3.916,0,1,1,7.832,0Zm-7.54-.291h7.249V5.274a3.624,3.624,0,1,0-7.249,0Z" transform="translate(3.489 3.527)"/>
  </g>
  <rect id="사각형_4923" data-name="사각형 4923" width="25.422" height="26.069" transform="translate(2.89 2.913)" fill="none"/>
</svg>
