<svg xmlns="http://www.w3.org/2000/svg" width="32" height="32" viewBox="0 0 32 32">
  <g id="그룹_2055" data-name="그룹 2055" transform="translate(-1838 -411)">
    <rect id="사각형_1236" data-name="사각형 1236" width="32" height="32" transform="translate(1838 411)" fill="none"/>
    <path id="사각형_1242" data-name="사각형 1242" d="M1.8,1.8V20.2H20.2V1.8H1.8M1,0H21a1,1,0,0,1,1,1V21a1,1,0,0,1-1,1H1a1,1,0,0,1-1-1V1A1,1,0,0,1,1,0Z" transform="translate(1843 416)" fill="#111"/>
    <path id="사각형_1243" data-name="사각형 1243" d="M1.8,1.8V6.2H6.2V1.8H1.8M1,0H7A1,1,0,0,1,8,1V7A1,1,0,0,1,7,8H1A1,1,0,0,1,0,7V1A1,1,0,0,1,1,0Z" transform="translate(1850 416)" fill="#111"/>
  </g>
</svg>
