<svg xmlns="http://www.w3.org/2000/svg" xmlns:xlink="http://www.w3.org/1999/xlink" width="254.945" height="44" viewBox="0 0 254.945 44">
  <defs>
    <clipPath id="clip-path">
      <rect id="사각형_2610" data-name="사각형 2610" width="254.945" height="40.241" transform="translate(0 0)" fill="#fff"/>
    </clipPath>
  </defs>
  <g id="그룹_3624" data-name="그룹 3624" transform="translate(-90 -13)">
    <g id="그룹_3625" data-name="그룹 3625" transform="translate(11540 5236)">
      <g id="그룹_3625-2" data-name="그룹 3625" transform="translate(-11450 -5221)" clip-path="url(#clip-path)">
        <path id="패스_2190" data-name="패스 2190" d="M97.88,10.51a4.972,4.972,0,0,1,1.327,1.531,3.865,3.865,0,0,1,.506,1.917,4.054,4.054,0,0,1-.4,1.772,4.617,4.617,0,0,1-1.1,1.459,4.843,4.843,0,0,1-1.592.977,5.627,5.627,0,0,1-3.907,0,5.124,5.124,0,0,1-1.616-.977,4.8,4.8,0,0,1-1.074-1.459,4.061,4.061,0,0,1-.4-1.772,3.934,3.934,0,0,1,.494-1.917,4.7,4.7,0,0,1,1.338-1.531H88.909V8.678h4.123V6.29h3.256V8.678h4.124V10.51ZM95.806,24.643h10.273v1.833H94.793a2.285,2.285,0,0,1-1.616-.579,2.057,2.057,0,0,1-.627-1.591V20.013h3.256ZM93.31,11.97a3.345,3.345,0,0,0-.591,1.989,3.4,3.4,0,0,0,.591,2,1.522,1.522,0,0,0,2.725,0,3.4,3.4,0,0,0,.591-2,3.345,3.345,0,0,0-.591-1.989,1.532,1.532,0,0,0-2.725,0m8.815,9.3V6.507h3.256v4.606h3.256v1.858H105.38v8.3Z" transform="translate(-43.822 -3.1)" fill="#fff"/>
        <path id="패스_2191" data-name="패스 2191" d="M133.136,7.355a5.52,5.52,0,0,1,1.749,1.1,4.983,4.983,0,0,1,1.182,1.6,4.584,4.584,0,0,1,.434,1.966,4.637,4.637,0,0,1-.434,1.99,4.983,4.983,0,0,1-1.182,1.6,5.511,5.511,0,0,1-1.749,1.1,5.789,5.789,0,0,1-2.158.4,5.882,5.882,0,0,1-2.17-.4,5.473,5.473,0,0,1-1.761-1.1,4.983,4.983,0,0,1-1.182-1.6,4.638,4.638,0,0,1-.434-1.99,4.584,4.584,0,0,1,.434-1.966,4.983,4.983,0,0,1,1.182-1.6,5.482,5.482,0,0,1,1.761-1.1,5.882,5.882,0,0,1,2.17-.4,5.789,5.789,0,0,1,2.158.4m-3.774,2.411a3.772,3.772,0,0,0-.675,2.279,3.859,3.859,0,0,0,.663,2.3,1.933,1.933,0,0,0,1.6.929,1.976,1.976,0,0,0,1.6-.929,3.764,3.764,0,0,0,.687-2.3,3.775,3.775,0,0,0-.675-2.279,1.85,1.85,0,0,0-3.208,0m9.079,8.731a5.4,5.4,0,0,1,1.7,1.025,4.641,4.641,0,0,1,1.146,1.5,4.144,4.144,0,0,1,.422,1.833,4.2,4.2,0,0,1-.422,1.857,4.641,4.641,0,0,1-1.146,1.5,5.213,5.213,0,0,1-1.7,1.013,5.95,5.95,0,0,1-2.086.362,6.021,6.021,0,0,1-2.11-.362,5.218,5.218,0,0,1-1.7-1.013,4.5,4.5,0,0,1-1.133-1.5A4.291,4.291,0,0,1,131,22.85a4.239,4.239,0,0,1,.41-1.833,4.5,4.5,0,0,1,1.133-1.5,5.4,5.4,0,0,1,1.7-1.025,5.856,5.856,0,0,1,2.11-.374,5.788,5.788,0,0,1,2.086.374m-3.593,2.339a3.34,3.34,0,0,0-.638,2.014,3.22,3.22,0,0,0,.638,2,1.768,1.768,0,0,0,3.015,0,3.221,3.221,0,0,0,.639-2,3.341,3.341,0,0,0-.639-2.014,1.731,1.731,0,0,0-3.015,0M141.83,6.861V9.3h3.256v1.833H141.83v2.219h3.256v1.833H141.83V17.81h-3.256V6.861Z" transform="translate(-61.823 -3.381)" fill="#fff"/>
        <path id="패스_2192" data-name="패스 2192" d="M168.942,7.2v3.835a8.625,8.625,0,0,0,.41,2.7,7.972,7.972,0,0,0,1.109,2.219,6.587,6.587,0,0,0,1.616,1.591,4.773,4.773,0,0,0,1.905.8l-1.592,1.4a4.546,4.546,0,0,1-1.616-.422,7.953,7.953,0,0,1-1.544-.929,7.4,7.4,0,0,1-1.23-1.23,3.6,3.6,0,0,1-.7-1.375,4.028,4.028,0,0,1-.711,1.375,7.07,7.07,0,0,1-1.218,1.23,7.538,7.538,0,0,1-1.543.916,5.148,5.148,0,0,1-1.616.434l-1.591-1.4a4.7,4.7,0,0,0,1.881-.808,6.423,6.423,0,0,0,1.592-1.6,8.3,8.3,0,0,0,1.543-4.9V7.2Zm9.092,4.341h3.256v1.833h-3.256v13.36h-3.256V6.766h3.256Z" transform="translate(-79.168 -3.335)" fill="#fff"/>
        <path id="패스_2193" data-name="패스 2193" d="M208.456,7.744a6.191,6.191,0,0,1,1.857,1.194,5.784,5.784,0,0,1,1.254,1.785,5.2,5.2,0,0,1,.458,2.17,5.281,5.281,0,0,1-.458,2.183,5.454,5.454,0,0,1-1.254,1.772,6,6,0,0,1-1.857,1.182,6.035,6.035,0,0,1-4.5,0,6.034,6.034,0,0,1-1.845-1.182,5.31,5.31,0,0,1-1.242-1.772,5.4,5.4,0,0,1-.446-2.183,5.319,5.319,0,0,1,.446-2.17,5.623,5.623,0,0,1,1.242-1.785,6.233,6.233,0,0,1,1.845-1.194,5.889,5.889,0,0,1,4.5,0m-4.015,7.825a2.185,2.185,0,0,0,1.8,1.061,2.161,2.161,0,0,0,1.772-1.085,4.555,4.555,0,0,0,.76-2.677A4.462,4.462,0,0,0,208,10.215a2.192,2.192,0,0,0-1.785-1.085,2.157,2.157,0,0,0-1.772,1.1,4.608,4.608,0,0,0-.76,2.689,4.438,4.438,0,0,0,.76,2.653m13.011,11.166H214.2V6.767h3.256Z" transform="translate(-98.786 -3.335)" fill="#fff"/>
        <path id="패스_2194" data-name="패스 2194" d="M254.652,6.766V26.735H251.4V14.025h-2.749v5.547h-7.91a2.313,2.313,0,0,1-1.652-.579,2.05,2.05,0,0,1-.615-1.567V7.418h3.256v3.955h3.666V7.418h3.256v4.775H251.4V6.766Zm-9.26,6.439h-3.666v4.51h3.666Z" transform="translate(-117.538 -3.335)" fill="#fff"/>
        <path id="패스_2195" data-name="패스 2195" d="M283.6,26.735V18.873a4.34,4.34,0,0,1-1.061.494,4.824,4.824,0,0,1-1.495.2h-4.1a2.3,2.3,0,0,1-1.639-.567,2.029,2.029,0,0,1-.6-1.555V7.514h7.259V9.372h-4.052v8.344h3.256a6.88,6.88,0,0,0,1.435-.132,5.33,5.33,0,0,0,1-.3V6.767h3.087v5.426h1.93V6.767h3.086V26.735h-3.086V14.026h-1.93V26.735Z" transform="translate(-135.398 -3.335)" fill="#fff"/>
        <path id="패스_2196" data-name="패스 2196" d="M319.155,10.273a4.888,4.888,0,0,1,1.194,1.471,3.765,3.765,0,0,1,.446,1.785,3.9,3.9,0,0,1-.4,1.749,4.9,4.9,0,0,1-1.073,1.435,5.09,5.09,0,0,1-1.592.953,5.534,5.534,0,0,1-3.87,0,5.114,5.114,0,0,1-1.58-.953,4.547,4.547,0,0,1-1.085-1.435,4,4,0,0,1-.386-1.749,3.85,3.85,0,0,1,.434-1.785,4.729,4.729,0,0,1,1.182-1.471h-2.388V8.488h4.124V6.1h3.256V8.488h4.124v1.785Zm4.1,10.9H312.186V19.34h14.326v7.042h-3.256Zm-8.79-9.574a3.309,3.309,0,0,0-.566,1.929,3.336,3.336,0,0,0,.566,1.966,1.512,1.512,0,0,0,2.677,0,3.34,3.34,0,0,0,.567-1.966,3.313,3.313,0,0,0-.567-1.929,1.5,1.5,0,0,0-2.677,0m12.047-1.085h3.256V12.37h-3.256v5.643h-3.256V6.414h3.256Z" transform="translate(-152.813 -3.006)" fill="#fff"/>
        <path id="패스_2197" data-name="패스 2197" d="M354.118,14.186v8.031h1.616V14.186h3.135v8.031H365.6V24.05H347.8V22.217h3.183V14.186Zm-4.848-6.849h14.4v7.524a16.55,16.55,0,0,1-.326,3.509,7.834,7.834,0,0,1-.9,2.424h-2.87a5.923,5.923,0,0,0,.747-2.472q.145-1.459.145-3.7V9.194h-11.19Z" transform="translate(-171.425 -3.616)" fill="#fff"/>
        <path id="패스_2198" data-name="패스 2198" d="M403.35,26.735V18.873a4.353,4.353,0,0,1-1.062.494,4.823,4.823,0,0,1-1.495.2h-4.1a2.3,2.3,0,0,1-1.639-.567,2.029,2.029,0,0,1-.6-1.555V7.514h7.259V9.372h-4.053v8.344h3.256a6.88,6.88,0,0,0,1.435-.132,5.348,5.348,0,0,0,1-.3V6.767h3.086v5.426h1.93V6.767h3.086V26.735h-3.086V14.026h-1.93V26.735Z" transform="translate(-194.418 -3.335)" fill="#fff"/>
        <path id="패스_2199" data-name="패스 2199" d="M438.9,10.273a4.888,4.888,0,0,1,1.194,1.471,3.765,3.765,0,0,1,.446,1.785,3.9,3.9,0,0,1-.4,1.749,4.9,4.9,0,0,1-1.073,1.435,5.088,5.088,0,0,1-1.591.953,5.535,5.535,0,0,1-3.871,0,5.114,5.114,0,0,1-1.58-.953,4.547,4.547,0,0,1-1.085-1.435,4,4,0,0,1-.386-1.749,3.85,3.85,0,0,1,.434-1.785,4.729,4.729,0,0,1,1.182-1.471h-2.388V8.488h4.124V6.1h3.256V8.488h4.124v1.785Zm4.1,10.9H431.93V19.34h14.326v7.042H443Zm-8.79-9.574a3.309,3.309,0,0,0-.566,1.929,3.336,3.336,0,0,0,.566,1.966,1.512,1.512,0,0,0,2.677,0,3.336,3.336,0,0,0,.567-1.966,3.31,3.31,0,0,0-.567-1.929,1.5,1.5,0,0,0-2.677,0m12.047-1.085h3.256V12.37h-3.256v5.643H443V6.414h3.256Z" transform="translate(-211.834 -3.006)" fill="#fff"/>
        <path id="패스_2200" data-name="패스 2200" d="M479.848,15.5v1.736h-4.992v2.942H471.6V17.236h-4.437V15.5ZM475.17,6.9a4.753,4.753,0,0,1,1.543.9,4.132,4.132,0,0,1,1.061,1.3,3.433,3.433,0,0,1,.385,1.592,3.478,3.478,0,0,1-.385,1.616,4.12,4.12,0,0,1-1.061,1.3,4.8,4.8,0,0,1-1.543.868,5.7,5.7,0,0,1-1.906.313,5.875,5.875,0,0,1-1.941-.313,4.769,4.769,0,0,1-1.555-.868,3.968,3.968,0,0,1-1.049-1.3,3.557,3.557,0,0,1-.374-1.616,3.511,3.511,0,0,1,.374-1.592,3.978,3.978,0,0,1,1.049-1.3,4.722,4.722,0,0,1,1.555-.9,5.689,5.689,0,0,1,1.941-.326,5.52,5.52,0,0,1,1.906.326m-1.133,17.882H485.2v1.857H473.047a2.333,2.333,0,0,1-1.628-.579,2.039,2.039,0,0,1-.638-1.591v-3.3h3.256ZM472,9.012a2.686,2.686,0,0,0-.518,1.688A2.686,2.686,0,0,0,472,12.388a1.549,1.549,0,0,0,1.266.675,1.528,1.528,0,0,0,1.242-.675,2.689,2.689,0,0,0,.519-1.688,2.689,2.689,0,0,0-.519-1.688,1.529,1.529,0,0,0-1.242-.675A1.55,1.55,0,0,0,472,9.012m12.528-2.339V21.866h-3.256V20.033h-4.389V18.417h4.389V6.672Z" transform="translate(-230.257 -3.241)" fill="#fff"/>
        <path id="패스_2201" data-name="패스 2201" d="M94.219,61.951v.725l-.818.21a1.428,1.428,0,0,1,.225.786,1.587,1.587,0,0,1-.587,1.311,2.542,2.542,0,0,1-1.63.47l-.257-.014-.21-.023a.474.474,0,0,0-.22.374q0,.309.786.309H92.4a2.027,2.027,0,0,1,1.312.37,1.32,1.32,0,0,1,.451,1.085,1.61,1.61,0,0,1-.765,1.422,3.983,3.983,0,0,1-2.2.505,3.04,3.04,0,0,1-1.672-.381,1.211,1.211,0,0,1-.578-1.069,1.117,1.117,0,0,1,.3-.79,1.668,1.668,0,0,1,.865-.454.957.957,0,0,1-.383-.306.753.753,0,0,1,.009-.949,1.982,1.982,0,0,1,.5-.39,1.405,1.405,0,0,1-.653-.571,1.739,1.739,0,0,1-.241-.926,1.633,1.633,0,0,1,.557-1.324,2.406,2.406,0,0,1,1.59-.468,4.091,4.091,0,0,1,.521.04c.2.027.33.046.386.059Zm-4.036,5.968a.517.517,0,0,0,.283.463,1.557,1.557,0,0,0,.793.168,2.806,2.806,0,0,0,1.2-.21.642.642,0,0,0,.435-.576.407.407,0,0,0-.258-.407,2.111,2.111,0,0,0-.8-.113H91.1a1.118,1.118,0,0,0-.657.185.569.569,0,0,0-.264.489m.519-4.256a1.065,1.065,0,0,0,.194.673.7.7,0,0,0,.592.248.69.69,0,0,0,.589-.248,1.1,1.1,0,0,0,.187-.673q0-.945-.776-.945t-.786.945" transform="translate(-43.841 -30.486)" fill="#fff"/>
        <path id="패스_2202" data-name="패스 2202" d="M106.456,65.627a1.441,1.441,0,0,1-.559,1.226,2.763,2.763,0,0,1-1.672.421,5.22,5.22,0,0,1-.973-.078,3.645,3.645,0,0,1-.753-.227V65.791a4.958,4.958,0,0,0,.9.313,3.626,3.626,0,0,0,.877.126q.776,0,.776-.449a.375.375,0,0,0-.1-.273,1.49,1.49,0,0,0-.355-.239q-.253-.133-.673-.311a4.231,4.231,0,0,1-.886-.468,1.315,1.315,0,0,1-.411-.493,1.629,1.629,0,0,1-.129-.685,1.242,1.242,0,0,1,.54-1.078,2.633,2.633,0,0,1,1.532-.381,4.347,4.347,0,0,1,1.838.412l-.43,1.029a7.78,7.78,0,0,0-.734-.276,2.3,2.3,0,0,0-.7-.108q-.631,0-.631.341a.4.4,0,0,0,.2.332A5.516,5.516,0,0,0,105,64a4.159,4.159,0,0,1,.9.464,1.363,1.363,0,0,1,.421.5,1.519,1.519,0,0,1,.136.669" transform="translate(-50.516 -30.486)" fill="#fff"/>
        <path id="패스_2203" data-name="패스 2203" d="M114.187,70.266a.782.782,0,0,1,.21-.594.852.852,0,0,1,.613-.2.828.828,0,0,1,.6.206.908.908,0,0,1,0,1.171.815.815,0,0,1-.6.213.839.839,0,0,1-.608-.208.777.777,0,0,1-.215-.587" transform="translate(-56.281 -34.241)" fill="#fff"/>
        <path id="패스_2204" data-name="패스 2204" d="M126.874,65.285h-1.427V62.231q0-1.132-.842-1.132a.957.957,0,0,0-.865.407,2.483,2.483,0,0,0-.267,1.319v2.46h-1.427V58.007h1.427V59.49c0,.115-.011.387-.033.814l-.032.421h.075A1.652,1.652,0,0,1,125,59.957a1.852,1.852,0,0,1,1.4.5,1.97,1.97,0,0,1,.477,1.421Z" transform="translate(-60.155 -28.591)" fill="#fff"/>
        <path id="패스_2205" data-name="패스 2205" d="M135.064,62.047h1.561l.987,2.942a4.1,4.1,0,0,1,.174.907h.027a4.045,4.045,0,0,1,.2-.907l.968-2.942h1.53l-2.213,5.9a2.551,2.551,0,0,1-.868,1.225,2.189,2.189,0,0,1-1.316.407,3.332,3.332,0,0,1-.726-.08V68.366a2.472,2.472,0,0,0,.562.061,1.01,1.01,0,0,0,.661-.232,1.5,1.5,0,0,0,.442-.7l.084-.258Z" transform="translate(-66.571 -30.582)" fill="#fff"/>
        <path id="패스_2206" data-name="패스 2206" d="M151.175,67.275q-2.442,0-2.441-2.68a2.857,2.857,0,0,1,.664-2.037,2.49,2.49,0,0,1,1.9-.7,3.625,3.625,0,0,1,1.628.355l-.421,1.1q-.337-.135-.627-.222A2.016,2.016,0,0,0,151.3,63q-1.113,0-1.113,1.581,0,1.534,1.113,1.534a2.548,2.548,0,0,0,.763-.11,2.734,2.734,0,0,0,.7-.344v1.221a2.306,2.306,0,0,1-.7.3,3.952,3.952,0,0,1-.891.084" transform="translate(-73.309 -30.487)" fill="#fff"/>
        <path id="패스_2207" data-name="패스 2207" d="M164.828,67.276l-.192-.669h-.075a1.508,1.508,0,0,1-.651.564,2.22,2.22,0,0,1-.958.2,1.826,1.826,0,0,1-1.389-.493,1.984,1.984,0,0,1-.468-1.42V62.047h1.426V65.1a1.463,1.463,0,0,0,.2.848.732.732,0,0,0,.64.283.962.962,0,0,0,.865-.4,2.474,2.474,0,0,0,.267-1.326v-2.46h1.427v5.229Z" transform="translate(-79.402 -30.582)" fill="#fff"/>
        <path id="패스_2208" data-name="패스 2208" d="M175.246,70.266a.782.782,0,0,1,.21-.594.852.852,0,0,1,.613-.2.829.829,0,0,1,.6.206.909.909,0,0,1,0,1.171.815.815,0,0,1-.6.213.839.839,0,0,1-.608-.208.777.777,0,0,1-.215-.587" transform="translate(-86.376 -34.241)" fill="#fff"/>
        <path id="패스_2209" data-name="패스 2209" d="M186.091,67.171l-.276-.71h-.038a2.112,2.112,0,0,1-.741.629,2.4,2.4,0,0,1-.994.175,1.6,1.6,0,0,1-1.185-.431,1.651,1.651,0,0,1-.433-1.225,1.38,1.38,0,0,1,.582-1.228,3.372,3.372,0,0,1,1.757-.437l.907-.028v-.229a.711.711,0,0,0-.814-.8,3.708,3.708,0,0,0-1.473.379l-.472-.963a4.243,4.243,0,0,1,2-.473,2.49,2.49,0,0,1,1.613.458,1.693,1.693,0,0,1,.561,1.394v3.484Zm-.421-2.423-.552.019a1.769,1.769,0,0,0-.926.225.7.7,0,0,0-.3.626q0,.6.692.6a1.1,1.1,0,0,0,.793-.286,1,1,0,0,0,.3-.757Z" transform="translate(-89.914 -30.477)" fill="#fff"/>
        <path id="패스_2210" data-name="패스 2210" d="M198.407,67.275q-2.442,0-2.441-2.68a2.855,2.855,0,0,1,.664-2.037,2.49,2.49,0,0,1,1.9-.7,3.625,3.625,0,0,1,1.628.355l-.421,1.1q-.337-.135-.627-.222a2.016,2.016,0,0,0-.58-.086q-1.113,0-1.113,1.581,0,1.534,1.113,1.534a2.544,2.544,0,0,0,.762-.11,2.729,2.729,0,0,0,.7-.344v1.221a2.305,2.305,0,0,1-.7.3,3.952,3.952,0,0,1-.891.084" transform="translate(-96.588 -30.487)" fill="#fff"/>
        <path id="패스_2211" data-name="패스 2211" d="M207.986,70.266a.782.782,0,0,1,.21-.594.852.852,0,0,1,.613-.2.829.829,0,0,1,.6.206.909.909,0,0,1,0,1.171.814.814,0,0,1-.6.213.838.838,0,0,1-.608-.208.777.777,0,0,1-.215-.587" transform="translate(-102.513 -34.241)" fill="#fff"/>
        <path id="패스_2212" data-name="패스 2212" d="M217.217,62.441l.622-.8,1.464-1.59h1.609l-2.077,2.269,2.2,2.96h-1.647l-1.506-2.118-.613.491v1.627h-1.427V58.007h1.427v3.246l-.075,1.188Z" transform="translate(-106.387 -28.591)" fill="#fff"/>
        <path id="패스_2213" data-name="패스 2213" d="M232.555,61.853a2.309,2.309,0,0,1,.482.042l-.107,1.338a1.624,1.624,0,0,0-.421-.047,1.512,1.512,0,0,0-1.064.35,1.268,1.268,0,0,0-.381.982V67.18h-1.427V61.951h1.081l.21.879H231a1.97,1.97,0,0,1,.657-.709,1.621,1.621,0,0,1,.9-.269" transform="translate(-113.184 -30.486)" fill="#fff"/>
        <path id="패스_2214" data-name="패스 2214" d="M35.424,26.9v.664H28.96v-.659L25.854,26.9v.664H20.94v2.785l.477,0a3.544,3.544,0,0,0-.729,2.312,3.643,3.643,0,0,0,.9,2.283,3.824,3.824,0,0,0,2.995,1.378h6.011v-.6h.342V36.3l8.883.016-.005-2.885H38.53V30.416h1.284l.005-2.852H38.575V26.9Zm.158.822v-.663l2.833-.006v.668h1.246c0,.146-.005,2.391-.006,2.536H38.372v3.336h1.279c0,.145,0,2.422,0,2.569l-8.567-.014v-.587h-.658v.6H24.578a3.667,3.667,0,0,1-2.872-1.319,3.488,3.488,0,0,1-.862-2.184,3.37,3.37,0,0,1,.786-2.341l.115-.13-.648,0V27.722h4.915v-.663l2.787,0v.658Z" transform="translate(-10.196 -13.256)" fill="#fff"/>
        <path id="패스_2215" data-name="패스 2215" d="M34.258,33.116a.786.786,0,1,0,.865.781.8.8,0,0,0-.865-.781m-7.153-1.421a.669.669,0,1,0-.663.758.706.706,0,0,0,.663-.758m7.047-.564a.733.733,0,1,0-.725.846.767.767,0,0,0,.725-.846m5.438-.721V28.772H38.329v-.635H36.488v.635H28.759v-.635H26.916v.635H22.065v1.637h1.459a2.862,2.862,0,0,0-1.665,2.818A3.141,3.141,0,0,0,25.073,36.2h5.35v-.574h1.514V36.2H39.59V34.561H38.329V30.409Zm-13.88-.577h1.467v.431H25.711Zm-.635,1.863a.973.973,0,0,1,.509-.82h-.521v-.431H27.82v.431H27.3a.974.974,0,0,1,.507.82c0,.578-.588,1.047-1.366,1.047s-1.366-.47-1.366-1.047m4,3.26-2.569,0a.77.77,0,0,1-.857-.808v-1h.813v1.378h2.612Zm.561-3.435h-.611v1.835h-.748V29.832h.748v1.256h.611Zm2.3-.389a1.519,1.519,0,1,1,1.488,1.216,1.358,1.358,0,0,1-1.488-1.216m4.569-.233h-.634v.623h.634v.431h-.634V33.9h0c-.007.661-.718,1.2-1.614,1.2s-1.609-.539-1.614-1.2.719-1.2,1.614-1.2a2.005,2.005,0,0,1,.865.188V29.832h.75v.633h.634Z" transform="translate(-10.774 -13.868)" fill="#fff"/>
        <path id="패스_2216" data-name="패스 2216" d="M33.107,53.111H31.161V52.7l.7-.706c.207-.212.342-.359.405-.442a.941.941,0,0,0,.138-.227.589.589,0,0,0,.042-.217.314.314,0,0,0-.092-.248.354.354,0,0,0-.247-.083.713.713,0,0,0-.314.075,1.641,1.641,0,0,0-.318.21l-.32-.377a1.928,1.928,0,0,1,.341-.247,1.216,1.216,0,0,1,.3-.111,1.443,1.443,0,0,1,.358-.04,1.089,1.089,0,0,1,.462.094.754.754,0,0,1,.31.268.71.71,0,0,1,.111.392.956.956,0,0,1-.068.362,1.371,1.371,0,0,1-.209.345,5.053,5.053,0,0,1-.5.5l-.358.336v.027h1.214Z" transform="translate(-15.355 -24.786)" fill="#fff"/>
        <path id="패스_2217" data-name="패스 2217" d="M37.482,51.714a1.934,1.934,0,0,1-.239,1.079.929.929,0,0,1-1.464-.012,1.912,1.912,0,0,1-.244-1.067,1.959,1.959,0,0,1,.238-1.087.826.826,0,0,1,.733-.349.817.817,0,0,1,.729.367,1.914,1.914,0,0,1,.246,1.07m-1.362,0a2.158,2.158,0,0,0,.088.734.306.306,0,0,0,.3.222.311.311,0,0,0,.3-.224,2.132,2.132,0,0,0,.091-.732,2.094,2.094,0,0,0-.092-.735.309.309,0,0,0-.594,0,2.177,2.177,0,0,0-.089.735" transform="translate(-17.515 -24.781)" fill="#fff"/>
        <path id="패스_2218" data-name="패스 2218" d="M41.88,51.714a1.933,1.933,0,0,1-.24,1.079.928.928,0,0,1-1.463-.012,1.9,1.9,0,0,1-.244-1.067,1.959,1.959,0,0,1,.238-1.087.925.925,0,0,1,1.462.017,1.918,1.918,0,0,1,.247,1.07m-1.363,0a2.158,2.158,0,0,0,.088.734.311.311,0,0,0,.6,0,2.132,2.132,0,0,0,.091-.732,2.1,2.1,0,0,0-.092-.735.312.312,0,0,0-.3-.224.308.308,0,0,0-.3.224,2.12,2.12,0,0,0-.09.735" transform="translate(-19.682 -24.781)" fill="#fff"/>
        <path id="패스_2219" data-name="패스 2219" d="M46.3,53.111H44.353V52.7l.7-.706c.207-.212.342-.359.406-.442a.971.971,0,0,0,.137-.227.569.569,0,0,0,.042-.217.314.314,0,0,0-.091-.248.354.354,0,0,0-.247-.083.712.712,0,0,0-.314.075,1.654,1.654,0,0,0-.318.21l-.32-.377a1.909,1.909,0,0,1,.341-.247,1.2,1.2,0,0,1,.3-.111,1.446,1.446,0,0,1,.358-.04,1.091,1.091,0,0,1,.462.094.765.765,0,0,1,.309.268.71.71,0,0,1,.112.392.986.986,0,0,1-.068.362,1.374,1.374,0,0,1-.209.345,5.092,5.092,0,0,1-.5.5l-.359.336v.027H46.3Z" transform="translate(-21.857 -24.786)" fill="#fff"/>
        <path id="패스_2220" data-name="패스 2220" d="M20.121,0a20.121,20.121,0,1,0,20.12,20.121A20.144,20.144,0,0,0,20.121,0m0,39.937A19.816,19.816,0,1,1,39.936,20.121,19.839,19.839,0,0,1,20.121,39.937" transform="translate(0 0)" fill="#fff"/>
        <path id="패스_2221" data-name="패스 2221" d="M20.152,5.248a.281.281,0,0,0,.2-.081.264.264,0,0,0,.058-.2c-.01-.158-.112-.23-.3-.217l-.171.012.033.5ZM21.265,2.32A18.943,18.943,0,1,0,40.208,21.265,18.945,18.945,0,0,0,21.265,2.32M38.6,20.561l-1.032.417,1.056.357.021.659L36.9,21.307l-1.1.034-.019-.614,1.076-.034,1.716-.8ZM37.258,24.08a1.689,1.689,0,0,1-.336.929,1.683,1.683,0,0,1-.316-.935,1.7,1.7,0,0,1,.337-.93,1.7,1.7,0,0,1,.315.936m-.91,2.722a2.977,2.977,0,0,1-.726-1.312,2.41,2.41,0,0,1,.032-1.315,2.271,2.271,0,0,1,.736,1.2,2.82,2.82,0,0,1-.042,1.422m2.175-7.32-.614.1-.091-.542-2.165.359-.1-.6,2.165-.359-.09-.544.614-.1Zm-.427-2.238-2.719.734-.16-.59,2.72-.734ZM35.215,29.088a2.975,2.975,0,0,1-.487-1.418,2.423,2.423,0,0,1,.258-1.289,2.28,2.28,0,0,1,.518,1.31,2.829,2.829,0,0,1-.29,1.4m1.922-14.2a.87.87,0,0,1,.424.506,1.479,1.479,0,0,1,.063.739l-.616.034a1.159,1.159,0,0,0-.024-.575.243.243,0,0,0-.11-.144.177.177,0,0,0-.14-.005.2.2,0,0,0-.115.118A2.434,2.434,0,0,0,36.53,16a1.067,1.067,0,0,1-.187.5.906.906,0,0,1-.4.274,1,1,0,0,1-.474.065.767.767,0,0,1-.4-.175.942.942,0,0,1-.273-.4,1.545,1.545,0,0,1-.1-.367,1.217,1.217,0,0,1,.016-.346l.634-.24a1.61,1.61,0,0,0-.034.4,1.086,1.086,0,0,0,.064.346.282.282,0,0,0,.125.165.2.2,0,0,0,.164.006.181.181,0,0,0,.084-.06.315.315,0,0,0,.055-.107c.014-.046.035-.161.063-.345a1.39,1.39,0,0,1,.11-.4.741.741,0,0,1,.194-.247,1.087,1.087,0,0,1,.318-.179.8.8,0,0,1,.649,0m-.657-1.756q.437.808-.294,1.2a.867.867,0,0,1-.848.025l-.766,1.162-.329-.608.674-.907-.074-.136-.9.488-.29-.534,2.477-1.341Zm-1.536-2.35.787,1.082-.494.359-.429-.589-.36.26.4.546-.494.36-.4-.547-.429.313.428.589-.5.365-.787-1.082ZM33.551,9.219l-.822,1.208a5.573,5.573,0,0,1-.407.533c.07-.058.161-.124.273-.2s.2-.137.269-.179l1.255-.764.471.493-2.548,1.409-.5-.519,1.53-2.477ZM32.672,8.4l-1.818,2.154-.467-.4L32.2,8.007Zm-2.229-1.65L30.069,8.84l.008,0q.214-.368.353-.585l.692-1.07.456.295L30.048,9.85l-.671-.435L29.764,7.3l-.012-.007c-.154.272-.274.477-.365.616L28.7,8.976l-.453-.293,1.531-2.366ZM26.5,6.71l.671-1.577.563.239-.648,1.522A.815.815,0,0,0,27,7.328a.334.334,0,0,0,.492.21.848.848,0,0,0,.248-.37L28.39,5.65l.56.239-.665,1.56a1.317,1.317,0,0,1-.567.691.882.882,0,0,1-.783,0,.872.872,0,0,1-.536-.549,1.281,1.281,0,0,1,.1-.877M23.81,4.295l.725.143c.6.117.847.449.74.993a.871.871,0,0,1-.521.669l.408,1.33L24.485,7.3l-.272-1.1-.15-.029-.2,1.005-.6-.117Zm-2.061-.17,1.336.084-.039.61-.727-.047-.029.443.674.043-.038.609-.674-.043-.033.531.728.046-.04.62-1.335-.085Zm-.483,4.232a12.9,12.9,0,1,1-12.9,12.9,12.894,12.894,0,0,1,12.9-12.9m9.8,25.121a2.925,2.925,0,0,1-.88,1.154,3.054,3.054,0,0,1,.176-1.52,2.472,2.472,0,0,1,.807-1.069,2.322,2.322,0,0,1-.1,1.436M29.08,34.754a2.882,2.882,0,0,1-1.116.925,3.043,3.043,0,0,1,.514-1.438,2.461,2.461,0,0,1,1.029-.86,2.311,2.311,0,0,1-.426,1.373m-14.4.925h0a2.9,2.9,0,0,1-1.116-.925,2.3,2.3,0,0,1-.425-1.373,2.462,2.462,0,0,1,1.028.86,3.026,3.026,0,0,1,.514,1.438m-2.221-1.048a2.925,2.925,0,0,1-.88-1.154,2.321,2.321,0,0,1-.1-1.436,2.466,2.466,0,0,1,.806,1.069,3.048,3.048,0,0,1,.176,1.52M20.075,4.17a1.112,1.112,0,0,1,.692.125.622.622,0,0,1,.258.514.8.8,0,0,1-.07.411.447.447,0,0,1-.241.233l0,.019a.517.517,0,0,1,.318.21.835.835,0,0,1,.123.412.8.8,0,0,1-.191.618.866.866,0,0,1-.612.263l-.875.059L19.29,4.222Zm-2.8.419.593.942.164-1.1.644-.136-.368,1.833L18.536,7.2l-.6.127-.223-1.054L16.625,4.726Zm-2.248.842a.964.964,0,0,1,.485-.367,1.34,1.34,0,0,1,.725-.053l.03.627a1.85,1.85,0,0,0-.277-.031.74.74,0,0,0-.269.045.377.377,0,0,0-.243.326,1.293,1.293,0,0,0,.1.618q.278.764.743.594a.818.818,0,0,0,.254-.148,2.672,2.672,0,0,0,.222-.215l.221.6a1.292,1.292,0,0,1-.547.365.91.91,0,0,1-.861-.079,1.788,1.788,0,0,1-.622-.911,2.089,2.089,0,0,1-.139-.768,1.109,1.109,0,0,1,.183-.609m-3.3,1.939a1.064,1.064,0,0,1,.544-.781,1.526,1.526,0,0,1,.715-.234l.15.61a.992.992,0,0,0-.533.153.469.469,0,0,0-.238.4,1.119,1.119,0,0,0,.2.6A1.124,1.124,0,0,0,13,8.565a.423.423,0,0,0,.432-.023.875.875,0,0,0,.2-.16l-.233-.375-.341.212-.309-.5.828-.511.8,1.292a2.2,2.2,0,0,1-.651.6.953.953,0,0,1-.885.1,1.767,1.767,0,0,1-.807-.768,1.629,1.629,0,0,1-.294-1.066M9.585,8.643l1.91.925.008-.006q-.3-.3-.47-.5l-.843-.955.407-.36,1.864,2.113-.6.528L9.932,9.447l-.01.009q.332.332.5.517l.84.951-.4.357L8.989,9.169ZM8,10.257l2.682,1.17-.413.523-.483-.24-.454.574.344.417-.415.525L7.5,10.895ZM6.119,13l1.1.2-.7-.866.336-.568,1.1,1.513.947.56-.313.529-.928-.549L5.783,13.57ZM5,15.43l2.122-.052,0-.01c-.27-.09-.485-.165-.645-.228L5.29,14.678l.2-.506L8.111,15.2l-.29.744-2.148.045L5.668,16c.3.095.524.173.676.233l1.182.461-.2.5L4.707,16.172ZM7.923,27.67a2.974,2.974,0,0,1-.488,1.418,2.852,2.852,0,0,1-.289-1.4,2.274,2.274,0,0,1,.519-1.31,2.429,2.429,0,0,1,.258,1.289M4.343,17.556l2.92-.156-.134.652-.539,0-.149.718.493.218-.135.656-2.62-1.294ZM7.029,25.49A2.961,2.961,0,0,1,6.3,26.8a2.834,2.834,0,0,1-.041-1.422A2.267,2.267,0,0,1,7,24.175a2.421,2.421,0,0,1,.032,1.315M3.915,21.054l1.042.046.031-.706-1.043-.047.028-.611,2.814.125-.026.612-1.148-.052-.031.706,1.147.051L6.7,21.79l-2.815-.126Zm2.129,3.02a1.677,1.677,0,0,1-.316.935,1.5,1.5,0,0,1-.02-1.865,1.708,1.708,0,0,1,.336.93m-2.2.366a2.813,2.813,0,0,1,1.464.852A3.429,3.429,0,0,1,6.062,26.9h0a3.451,3.451,0,0,1-1.5-.94,3.038,3.038,0,0,1-.714-1.517m.758,2.767h0A2.835,2.835,0,0,1,6.2,27.79a3.443,3.443,0,0,1,1.015,1.451,3.46,3.46,0,0,1-1.642-.666,3.053,3.053,0,0,1-.966-1.368m4.354,4.826c-.072.5-.4,1.052-.689,1.01s-.45-.664-.38-1.163a1.322,1.322,0,0,1,.234-.6,1.3,1.3,0,0,1-.635.056c-.5-.072-1.055-.4-1.012-.69s.666-.447,1.164-.377a1.27,1.27,0,0,1,.595.232,1.306,1.306,0,0,1-.055-.636c.069-.483.372-1.016.657-1.016.011,0,.022,0,.032,0,.295.044.451.666.379,1.166a1.279,1.279,0,0,1-.234.6,1.293,1.293,0,0,1,.638-.054c.5.07,1.054.394,1.012.688S10,31.7,9.5,31.626a1.283,1.283,0,0,1-.6-.232,1.3,1.3,0,0,1,.055.639m1.617,2.9a2.89,2.89,0,0,1-1.38-.77,2.654,2.654,0,0,1,1.05-.214,2.406,2.406,0,0,1,.54.059,3.25,3.25,0,0,1,1.458.821,3.261,3.261,0,0,1-1.668.1M13,36.409a2.741,2.741,0,0,1-1.448-.419A2.521,2.521,0,0,1,13,35.509h.013a3.076,3.076,0,0,1,1.517.445A3.1,3.1,0,0,1,13,36.409m4.594.306a1.29,1.29,0,0,1-.611.144,1.269,1.269,0,0,1,.4.482c.219.443.265,1.07.005,1.2s-.732-.287-.95-.729a1.3,1.3,0,0,1-.143-.611,1.262,1.262,0,0,1-.484.4c-.441.218-1.068.263-1.2,0s.289-.732.732-.95a1.274,1.274,0,0,1,.609-.14,1.3,1.3,0,0,1-.4-.483c-.219-.442-.264-1.071,0-1.2a.234.234,0,0,1,.107-.024c.268,0,.65.368.841.756a1.267,1.267,0,0,1,.142.609,1.28,1.28,0,0,1,.484-.4c.443-.216,1.07-.261,1.2,0s-.29.732-.731.948m3.674,1.51a.669.669,0,1,1,.668-.669.669.669,0,0,1-.668.669M28.04,37.6c-.13.26-.758.215-1.2,0a1.291,1.291,0,0,1-.486-.4,1.3,1.3,0,0,1-.142.611c-.217.442-.687.861-.948.729s-.215-.754,0-1.2a1.262,1.262,0,0,1,.4-.482,1.292,1.292,0,0,1-.61-.144c-.443-.216-.862-.686-.731-.948s.755-.216,1.2,0a1.3,1.3,0,0,1,.484.4,1.269,1.269,0,0,1,.143-.609c.19-.387.573-.756.84-.756a.23.23,0,0,1,.107.024c.262.129.215.758,0,1.2a1.32,1.32,0,0,1-.4.483,1.272,1.272,0,0,1,.608.14c.444.218.861.689.733.95m1.611-1.189a3.1,3.1,0,0,1-1.526-.455,3.067,3.067,0,0,1,1.516-.445h.015a2.524,2.524,0,0,1,1.444.482,2.744,2.744,0,0,1-1.448.419m2.422-1.478a3.259,3.259,0,0,1-1.667-.1,3.247,3.247,0,0,1,1.458-.821,2.416,2.416,0,0,1,.54-.059,2.65,2.65,0,0,1,1.05.214,2.893,2.893,0,0,1-1.381.77m3.088-3.592a1.3,1.3,0,0,1-.635-.056,1.316,1.316,0,0,1,.233.6c.072.5-.083,1.121-.377,1.163s-.619-.512-.689-1.01a1.308,1.308,0,0,1,.055-.639,1.291,1.291,0,0,1-.6.232c-.5.073-1.123-.082-1.164-.376s.513-.618,1.012-.688a1.288,1.288,0,0,1,.637.054,1.284,1.284,0,0,1-.233-.6c-.073-.5.082-1.122.378-1.166l.031,0c.287,0,.588.533.659,1.016a1.33,1.33,0,0,1-.056.636,1.281,1.281,0,0,1,.595-.232c.5-.07,1.123.082,1.165.377s-.512.619-1.013.69m2.885-4.132a3.055,3.055,0,0,1-.969,1.368,3.452,3.452,0,0,1-1.64.666,3.432,3.432,0,0,1,1.015-1.451,2.819,2.819,0,0,1,1.593-.584Zm-1.457-.31a3.436,3.436,0,0,1,.749-1.606,2.819,2.819,0,0,1,1.467-.852,3.054,3.054,0,0,1-.714,1.517,3.434,3.434,0,0,1-1.5.94M26.418,36.205a.533.533,0,1,0,.243.714.533.533,0,0,0-.243-.714M5.073,18.053c-.167,0-.285,0-.357-.009.062.023.164.062.306.12s.419.176.833.358l.1-.47-.472,0H5.073M34,30.409a.546.546,0,0,0,.077,1.086.677.677,0,0,0,.078,0A.546.546,0,0,0,34,30.409m1.86-16.6a.266.266,0,0,0,.107-.413l-.057-.106-.567.306.055.1c.1.188.255.225.461.113M9.109,31.026a.544.544,0,1,0-.617.464.706.706,0,0,0,.078,0,.545.545,0,0,0,.539-.469m7.122,5.179a.532.532,0,1,0,.716.243.534.534,0,0,0-.716-.243M24.665,5.346q.057-.285-.251-.346L24.3,4.977l-.123.632.112.022c.209.042.336-.053.381-.284m-4.658.47.039.59.215-.015c.19-.012.277-.119.264-.318a.285.285,0,0,0-.091-.211.31.31,0,0,0-.226-.06ZM8.435,11.028q-.222-.113-.315-.167c.046.048.119.128.22.244s.3.345.585.693l.3-.376L8.8,11.211c-.095-.046-.216-.108-.364-.183" transform="translate(-1.144 -1.143)" fill="#fff"/>
      </g>
    </g>
    <rect id="사각형_2609" data-name="사각형 2609" width="194" height="44" transform="translate(90 13)" fill="none"/>
  </g>
</svg>
