<svg xmlns="http://www.w3.org/2000/svg" xmlns:xlink="http://www.w3.org/1999/xlink" width="133.75" height="22.683" viewBox="0 0 133.75 22.683">
  <defs>
    <clipPath id="clip-path">
      <rect id="사각형_253" data-name="사각형 253" width="133.75" height="22.683" fill="#fff"/>
    </clipPath>
  </defs>
  <g id="그룹_593" data-name="그룹 593" transform="translate(0 0)">
    <g id="그룹_535" data-name="그룹 535" transform="translate(0 0)" clip-path="url(#clip-path)">
      <path id="패스_9" data-name="패스 9" d="M12.061,31.663l10.912-1.394a4.449,4.449,0,0,1-.841.509L12.065,31.835a.1.1,0,0,1,0-.171" transform="translate(-4.161 -10.483)" fill="#fff"/>
      <path id="패스_10" data-name="패스 10" d="M20.52,32.373a3.03,3.03,0,0,1-.78.3l-7.262.322a1.218,1.218,0,0,1-.135-.166Z" transform="translate(-4.274 -11.212)" fill="#fff"/>
      <path id="패스_11" data-name="패스 11" d="M23.776,19.134l9.537-5.9a5.225,5.225,0,0,0-.175-1.534l-9.25,6.463s-.031.407-.112.967" transform="translate(-8.234 -4.054)" fill="#fff"/>
      <path id="패스_12" data-name="패스 12" d="M23.849,15.849,32.8,8.936a8.1,8.1,0,0,0-.525-1.37L23.73,14.772a10.624,10.624,0,0,1,.119,1.077" transform="translate(-8.218 -2.621)" fill="#fff"/>
      <path id="패스_13" data-name="패스 13" d="M22.982,12.775l8.2-7.64a15.39,15.39,0,0,0-1.065-1.254l-7.619,8.045a7.026,7.026,0,0,1,.488.848" transform="translate(-7.79 -1.344)" fill="#fff"/>
      <path id="패스_14" data-name="패스 14" d="M21.276,10.5,28.4,2.3a3.94,3.94,0,0,0-1.352-.726L20.6,9.935a2.734,2.734,0,0,1,.673.567" transform="translate(-7.135 -0.544)" fill="#fff"/>
      <path id="패스_15" data-name="패스 15" d="M18.974,9.09,25.048.7A5.973,5.973,0,0,0,23.5.373L18.248,8.781a1.864,1.864,0,0,1,.726.309" transform="translate(-6.32 -0.13)" fill="#fff"/>
      <path id="패스_16" data-name="패스 16" d="M16.9,13.956,15.233,16.79s.567-.16.861-.27l1.169-1.79a4.06,4.06,0,0,0-.358-.774" transform="translate(-5.276 -4.834)" fill="#fff"/>
      <path id="패스_17" data-name="패스 17" d="M13.638,12.147l1.888-3.51a1.262,1.262,0,0,0-.325-.19.659.659,0,0,1,.363.041L20.274,0H19.059l-6.1,12.227a1.369,1.369,0,0,1,.678-.08" transform="translate(-4.488 0)" fill="#fff"/>
      <path id="패스_18" data-name="패스 18" d="M17.1.334,11.782,12.343a2.818,2.818,0,0,0-.518,0L15.8.575s.454-.114,1.3-.241" transform="translate(-3.901 -0.116)" fill="#fff"/>
      <path id="패스_19" data-name="패스 19" d="M10.42,12.656l3.7-11.416a8.067,8.067,0,0,0-1.161.538l-2.891,10.9a1.727,1.727,0,0,1,.352-.025" transform="translate(-3.487 -0.43)" fill="#fff"/>
      <path id="패스_20" data-name="패스 20" d="M11.466,2.765a7.416,7.416,0,0,0-.891.539L8.957,13.269a1.361,1.361,0,0,1,.295-.084Z" transform="translate(-3.102 -0.958)" fill="#fff"/>
      <path id="패스_21" data-name="패스 21" d="M20.748,24.822,30.96,20.731a5.638,5.638,0,0,1-.7,1.373L19.57,25.537a6.011,6.011,0,0,0,1.178-.715" transform="translate(-6.778 -7.18)" fill="#fff"/>
      <path id="패스_22" data-name="패스 22" d="M27.2,24.776,13.659,28.231a3.027,3.027,0,0,0-.727.34L26.608,25.5a2.987,2.987,0,0,0,.595-.724" transform="translate(-4.479 -8.581)" fill="#fff"/>
      <path id="패스_23" data-name="패스 23" d="M25.167,27.757l-13.141,2.4s-.122.1-.065.185l12.472-1.97s.267-.216.733-.618" transform="translate(-4.137 -9.613)" fill="#fff"/>
      <path id="패스_24" data-name="패스 24" d="M9.173,4.542l-1.156,9.44s-.191.029-.312.063l.641-8.9a5.6,5.6,0,0,1,.828-.6" transform="translate(-2.668 -1.573)" fill="#fff"/>
      <path id="패스_25" data-name="패스 25" d="M7,6.521a1.849,1.849,0,0,0-.57.489l.19,7.879s.061.05.254-.06Z" transform="translate(-2.227 -2.259)" fill="#fff"/>
      <path id="패스_26" data-name="패스 26" d="M5.129,8.221s-.186.214-.431.48l.682,7.013s0-.026.27-.108Z" transform="translate(-1.627 -2.847)" fill="#fff"/>
      <path id="패스_27" data-name="패스 27" d="M4.414,16.591l-.844-6.4a2.51,2.51,0,0,0-.4.5l1,6.018s.043-.016.245-.11" transform="translate(-1.098 -3.529)" fill="#fff"/>
      <path id="패스_28" data-name="패스 28" d="M3.086,17.906a.532.532,0,0,1,.219-.159L2.061,12.433a1.621,1.621,0,0,0-.31.565Z" transform="translate(-0.606 -4.306)" fill="#fff"/>
      <path id="패스_29" data-name="패스 29" d="M2.452,18.974.975,14.8a4.008,4.008,0,0,0-.2.639L2.291,19.1a.98.98,0,0,0,.161-.129" transform="translate(-0.269 -5.124)" fill="#fff"/>
      <path id="패스_30" data-name="패스 30" d="M1.875,20.211.329,17.247a.694.694,0,0,0-.1.395l1.535,2.75s.008.034.107-.18" transform="translate(-0.081 -5.973)" fill="#fff"/>
      <path id="패스_31" data-name="패스 31" d="M1.455,21.467,0,19.2v.454L1.371,21.63a1,1,0,0,1,.084-.163" transform="translate(0 -6.651)" fill="#fff"/>
      <path id="패스_32" data-name="패스 32" d="M1.17,22.969,0,21.514a8.906,8.906,0,0,0,3.665,7.1s2.122,1.731,6.64,1.5a24.046,24.046,0,0,0,3.264-.558h-5.1v.16a11.737,11.737,0,0,1-4.078-1.266,6.077,6.077,0,0,1-2.991-3.4,4.524,4.524,0,0,1-.233-2.08" transform="translate(0 -7.451)" fill="#fff"/>
      <path id="패스_33" data-name="패스 33" d="M23.164,21.612l9.719-5.347a9.615,9.615,0,0,1-.3,1.462l-9.8,4.559s.191-.351.381-.674" transform="translate(-7.89 -5.633)" fill="#fff"/>
      <path id="패스_34" data-name="패스 34" d="M79.132,8.156V7.076L92.306,7.1s.975-.152.988,1.1v4.036H90.669l-.035-4.118-11.5.034V7.076" transform="translate(-27.405 -2.451)" fill="#fff"/>
      <path id="패스_35" data-name="패스 35" d="M105.153,22.923V21.87l14.306.029s.974-.151.986,1.1v3.6h-2.623l-.036-3.68Z" transform="translate(-36.417 -7.574)" fill="#fff"/>
      <path id="패스_36" data-name="패스 36" d="M135.7,12.382v1.162h16.13V12.382" transform="translate(-46.995 -4.289)" fill="#fff"/>
      <path id="패스_37" data-name="패스 37" d="M93.514,17.366V16.286H77.222v1.081" transform="translate(-26.744 -5.64)" fill="#fff"/>
      <path id="패스_41" data-name="패스 41" d="M149.1,10.521V8.253l2.356.014V7.106H136.131V8.267l2.8-.014v2.268l-3.235.034v1.162h16.13V10.555Zm-2.915,0h-4.333V8.253h4.333Z" transform="translate(-46.995 -2.461)" fill="#fff"/>
      <path id="패스_42" data-name="패스 42" d="M149.989,20.267l-5.059-.029V18.213l6.97.033-.007-1.207-16.769.032v1.175l6.89-.033v2.024h-6.4V24.9h15.428V21.128c0-1.053-1.055-.862-1.055-.862m-1.82,3.493h-9.637V21.291h9.637Z" transform="translate(-46.797 -5.901)" fill="#fff"/>
      <path id="패스_43" data-name="패스 43" d="M77.79,21.308V20.231l6.716-.012V17.344l-7.284.022V16.286H93.514v1.081l-6.133-.022v2.875l4.23.032s.976-.151.988,1.1v3.309l-2.667-.024.008-3.366-12.15.033V20.231" transform="translate(-26.744 -5.641)" fill="#fff"/>
      <path id="패스_44" data-name="패스 44" d="M48.721,25.117l.024-3.342h2.624v3.666h.024l11.47.026v1.08l-12.887-.005s-1.256.073-1.256-1.425" transform="translate(-16.873 -7.542)" fill="#fff"/>
      <path id="패스_45" data-name="패스 45" d="M66.288,8.352V18.6h2.624L68.9,8.2V8.171h3.233V7.091l-4.57-.027a1.239,1.239,0,0,0-1.271,1.288" transform="translate(-22.957 -2.447)" fill="#fff"/>
      <path id="패스_46" data-name="패스 46" d="M127.212,15.378h-2.769V8.131A.946.946,0,0,1,125.478,7.1l4.367,0v1.08l-2.667-.014v3.564l2.666.022v1.079l-2.666-.008.033,2.551h-2.769V8.98" transform="translate(-43.097 -2.459)" fill="#fff"/>
      <path id="패스_50" data-name="패스 50" d="M52.33,6.8c-3.036,0-5.5,1.82-5.5,4.066s2.461,4.065,5.5,4.065,5.5-1.82,5.5-4.065S55.367,6.8,52.33,6.8m0,6.9a2.7,2.7,0,0,1-2.549-2.834,2.563,2.563,0,1,1,5.1,0A2.7,2.7,0,0,1,52.33,13.7" transform="translate(-16.219 -2.356)" fill="#fff"/>
      <path id="패스_51" data-name="패스 51" d="M109.863,6.669c-3.037,0-5.5,1.819-5.5,4.065s2.46,4.067,5.5,4.067,5.5-1.821,5.5-4.067-2.46-4.065-5.5-4.065m0,6.9a2.7,2.7,0,0,1-2.548-2.835,2.562,2.562,0,1,1,5.1,0,2.7,2.7,0,0,1-2.547,2.835" transform="translate(-36.144 -2.31)" fill="#fff"/>
    </g>
  </g>
</svg>
