<svg xmlns="http://www.w3.org/2000/svg" width="188" height="30" viewBox="0 0 188 30">
  <g id="그룹_1747" data-name="그룹 1747" transform="translate(-40 -30)">
    <rect id="사각형_1103" data-name="사각형 1103" width="188" height="30" transform="translate(40 30)" fill="none"/>
    <g id="그룹_1745" data-name="그룹 1745" transform="translate(-975.134 -294.957)">
      <g id="그룹_1745-2" data-name="그룹 1745" transform="translate(1015.133 324.958)">
        <path id="패스_1290" data-name="패스 1290" d="M1031.027,366.877l13.317-1.392a5.709,5.709,0,0,0,1.107-.678l-14.434,1.849A.136.136,0,0,0,1031.027,366.877Z" transform="translate(-1020.567 -338.638)" fill="#fff"/>
        <path id="패스_1291" data-name="패스 1291" d="M1031.567,368.4l9.6-.43a4.009,4.009,0,0,0,1.036-.391l-10.819.607A1.836,1.836,0,0,0,1031.567,368.4Z" transform="translate(-1020.714 -339.59)" fill="#fff"/>
        <path id="패스_1292" data-name="패스 1292" d="M1058.827,340.37l-12.236,8.552s-.036.535-.144,1.275l12.612-7.8A6.886,6.886,0,0,0,1058.827,340.37Z" transform="translate(-1025.883 -330.249)" fill="#fff"/>
        <path id="패스_1293" data-name="패스 1293" d="M1046.541,345.871l11.834-9.139a11,11,0,0,0-.7-1.812l-11.3,9.532A14.164,14.164,0,0,1,1046.541,345.871Z" transform="translate(-1025.86 -328.378)" fill="#fff"/>
        <path id="패스_1294" data-name="패스 1294" d="M1045.4,341.831l10.836-10.1a20.3,20.3,0,0,0-1.411-1.659l-10.068,10.639A9.508,9.508,0,0,1,1045.4,341.831Z" transform="translate(-1025.305 -326.713)" fill="#fff"/>
        <path id="패스_1295" data-name="패스 1295" d="M1043.154,338.842l9.424-10.855a5.138,5.138,0,0,0-1.784-.963l-8.532,11.068A3.514,3.514,0,0,1,1043.154,338.842Z" transform="translate(-1024.447 -325.667)" fill="#fff"/>
        <path id="패스_1296" data-name="패스 1296" d="M1040.127,336.979l8.033-11.1a8.092,8.092,0,0,0-2.053-.429l-6.944,11.121A2.474,2.474,0,0,1,1040.127,336.979Z" transform="translate(-1023.383 -325.126)" fill="#fff"/>
        <path id="패스_1297" data-name="패스 1297" d="M1035.195,347.081s.749-.213,1.143-.357l1.542-2.365a5.663,5.663,0,0,0-.472-1.027Z" transform="translate(-1022.021 -331.266)" fill="#fff"/>
        <path id="패스_1298" data-name="패스 1298" d="M1033.1,341.024l2.5-4.642a1.623,1.623,0,0,0-.429-.249.861.861,0,0,1,.483.055l6.229-11.229h-1.606L1032.2,341.13A1.772,1.772,0,0,1,1033.1,341.024Z" transform="translate(-1020.994 -324.958)" fill="#fff"/>
        <path id="패스_1299" data-name="패스 1299" d="M1030.654,341.279l7.033-15.886c-1.116.169-1.714.322-1.714.322l-6,15.564A3.736,3.736,0,0,1,1030.654,341.279Z" transform="translate(-1020.228 -325.107)" fill="#fff"/>
        <path id="패스_1300" data-name="패스 1300" d="M1028.864,341.69l4.89-15.1a10.52,10.52,0,0,0-1.535.714l-3.819,14.423A1.949,1.949,0,0,1,1028.864,341.69Z" transform="translate(-1019.688 -325.518)" fill="#fff"/>
        <path id="패스_1301" data-name="패스 1301" d="M1027.324,342.381l2.928-13.78a9.264,9.264,0,0,0-1.178.714l-2.142,13.172A2.277,2.277,0,0,1,1027.324,342.381Z" transform="translate(-1019.184 -326.209)" fill="#fff"/>
        <path id="패스_1302" data-name="패스 1302" d="M1040.9,358.6l14.137-4.533a7.365,7.365,0,0,0,.929-1.822l-13.5,5.418A8.128,8.128,0,0,1,1040.9,358.6Z" transform="translate(-1023.98 -334.327)" fill="#fff"/>
        <path id="패스_1303" data-name="패스 1303" d="M1032.164,362.593l18.091-4.052a3.978,3.978,0,0,0,.785-.964l-17.911,4.57A4.108,4.108,0,0,0,1032.164,362.593Z" transform="translate(-1020.98 -336.156)" fill="#fff"/>
        <path id="패스_1304" data-name="패스 1304" d="M1030.888,364.923l16.494-2.606s.358-.284.973-.812l-17.385,3.177S1030.818,364.816,1030.888,364.923Z" transform="translate(-1020.536 -337.504)" fill="#fff"/>
        <path id="패스_1305" data-name="패스 1305" d="M1027.224,330.938a7.3,7.3,0,0,0-1.089.794l-.849,11.773a4.144,4.144,0,0,1,.409-.081Z" transform="translate(-1018.618 -327.011)" fill="#fff"/>
        <path id="패스_1306" data-name="패스 1306" d="M1024.193,344.535l.171-10.987a2.47,2.47,0,0,0-.75.642l.25,10.425S1023.945,344.677,1024.193,344.535Z" transform="translate(-1018.045 -327.907)" fill="#fff"/>
        <path id="패스_1307" data-name="패스 1307" d="M1022.589,345.549l-.686-9.772s-.25.286-.571.642l.9,9.275S1022.232,345.658,1022.589,345.549Z" transform="translate(-1017.261 -328.672)" fill="#fff"/>
        <path id="패스_1308" data-name="패스 1308" d="M1020.962,346.842l-1.115-8.47a3.535,3.535,0,0,0-.527.651l1.321,7.961S1020.7,346.968,1020.962,346.842Z" transform="translate(-1016.571 -329.563)" fill="#fff"/>
        <path id="패스_1309" data-name="패스 1309" d="M1019.5,348.353l-1.64-7.033a2.194,2.194,0,0,0-.41.75l1.767,6.5A.751.751,0,0,1,1019.5,348.353Z" transform="translate(-1015.927 -330.575)" fill="#fff"/>
        <path id="패스_1310" data-name="패스 1310" d="M1018.381,349.958l-1.955-5.526a5.047,5.047,0,0,0-.259.85l2,4.855A1.536,1.536,0,0,0,1018.381,349.958Z" transform="translate(-1015.488 -331.643)" fill="#fff"/>
        <path id="패스_1311" data-name="패스 1311" d="M1017.614,351.587l-2.042-3.919a.935.935,0,0,0-.124.518l2.034,3.641S1017.488,351.872,1017.614,351.587Z" transform="translate(-1015.241 -332.754)" fill="#fff"/>
        <path id="패스_1312" data-name="패스 1312" d="M1017.063,353.236l-1.929-3v.607l1.821,2.605A.975.975,0,0,1,1017.063,353.236Z" transform="translate(-1015.134 -333.636)" fill="#fff"/>
        <path id="패스_1313" data-name="패스 1313" d="M1026.344,364.134a15.556,15.556,0,0,1-5.391-1.678,8.066,8.066,0,0,1-3.963-4.5,5.99,5.99,0,0,1-.3-2.749l-1.553-1.928s-.143,6,4.855,9.391c0,0,2.8,2.285,8.783,1.981a31.672,31.672,0,0,0,4.32-.732h-6.748Z" transform="translate(-1015.133 -334.681)" fill="#fff"/>
        <path id="패스_1314" data-name="패스 1314" d="M1045.142,354.34l12.96-6.034a11.664,11.664,0,0,0,.391-1.926l-12.851,7.069C1045.393,353.875,1045.142,354.34,1045.142,354.34Z" transform="translate(-1025.435 -332.312)" fill="#fff"/>
      </g>
      <g id="그룹_1746" data-name="그룹 1746" transform="translate(1048.079 332.036)">
        <path id="패스_1315" data-name="패스 1315" d="M1212.446,351.982a7.255,7.255,0,0,1,.233-2.486,12.024,12.024,0,0,1,1.093-2.988,3.546,3.546,0,0,1,3.086-2.192q1.856.007,2.05,2.094a7.9,7.9,0,0,1-.259,2.59,8.338,8.338,0,0,1-1.732,3.711,3.238,3.238,0,0,1-2.388,1.233A1.929,1.929,0,0,1,1212.446,351.982Zm-2.334,8.4,1.559-6.438a3.651,3.651,0,0,0,.774,1.216,2.651,2.651,0,0,0,1.873.631,4.739,4.739,0,0,0,2.965-1.109q2.252-1.759,3.251-5.879.738-3.049-.131-4.695a2.863,2.863,0,0,0-2.686-1.653,4.117,4.117,0,0,0-2.3.7,6.883,6.883,0,0,0-1.5,1.325l.406-1.671-1.745-.006-4.255,17.572Z" transform="translate(-1114.399 -338.044)" fill="#fff"/>
        <path id="패스_1316" data-name="패스 1316" d="M1227.674,353.085l4.2-17.349,1.8.007-1.563,6.45a8.259,8.259,0,0,1,1.47-1.338,4.164,4.164,0,0,1,2.327-.662q2.325.007,2.69,1.93a7.413,7.413,0,0,1-.255,2.908l-1.958,8.087-1.845-.007,1.923-7.945a5.045,5.045,0,0,0,.2-2.037q-.24-1.038-1.585-1.042a3.568,3.568,0,0,0-2.243.9,6.183,6.183,0,0,0-1.74,3.423l-1.617,6.685Z" transform="translate(-1121.044 -335.736)" fill="#fff"/>
        <path id="패스_1317" data-name="패스 1317" d="M1248.494,350.363a4.587,4.587,0,0,1,1.584-.477l1.127-.16a7.385,7.385,0,0,0,1.075-.232,3.674,3.674,0,0,0,.947-.409l-.414,1.707a4.036,4.036,0,0,1-2.176,2.808,4.279,4.279,0,0,1-1.961.511,1.508,1.508,0,0,1-1.218-.535,1.59,1.59,0,0,1-.219-1.45A2.651,2.651,0,0,1,1248.494,350.363Zm-1.556-.912a4.88,4.88,0,0,0-1.585,2.715,3.323,3.323,0,0,0,.3,2.668,2.4,2.4,0,0,0,2.171,1.074,5.081,5.081,0,0,0,2.416-.615,6.8,6.8,0,0,0,1.932-1.466,3.059,3.059,0,0,0,.026,1.168,1.072,1.072,0,0,0,1.159.78,4.08,4.08,0,0,0,.607-.034,5.324,5.324,0,0,0,.683-.173l.377-1.566c-.12.022-.229.039-.331.052a2.556,2.556,0,0,1-.274.016c-.246,0-.391-.068-.436-.2a.949.949,0,0,1,.014-.529l1.758-7.263a2.5,2.5,0,0,0-.528-2.639,4.243,4.243,0,0,0-2.857-.859,5.671,5.671,0,0,0-3.079.9,5.16,5.16,0,0,0-2.067,3.24l1.677.005a4.209,4.209,0,0,1,.783-1.469,2.814,2.814,0,0,1,2.214-.887,2.564,2.564,0,0,1,1.751.495,1.526,1.526,0,0,1,.274,1.573,2.622,2.622,0,0,1-.317.813,1.33,1.33,0,0,1-.977.607l-2.964.414A5.334,5.334,0,0,0,1246.938,349.451Zm5.477-6.873" transform="translate(-1127.065 -338.085)" fill="#fff"/>
        <path id="패스_1318" data-name="패스 1318" d="M1262.334,355.549l3.052-12.605,1.7.006-.528,2.177a6.824,6.824,0,0,1,1.4-1.543,3.189,3.189,0,0,1,2.107-.906c.033,0,.088.005.166.013l.4.049-.541,2.237a2.054,2.054,0,0,0-.284-.049c-.087-.008-.184-.013-.292-.013a3.094,3.094,0,0,0-2.333,1.022,5.138,5.138,0,0,0-1.3,2.369l-1.755,7.249Z" transform="translate(-1132.943 -338.119)" fill="#fff"/>
        <path id="패스_1319" data-name="패스 1319" d="M1272.609,355.587l3.052-12.606,1.774.006-.433,1.79a9.351,9.351,0,0,1,1.485-1.35,3.852,3.852,0,0,1,2.188-.711,2.271,2.271,0,0,1,1.875.75,2.892,2.892,0,0,1,.5,1.25,5.956,5.956,0,0,1,1.771-1.5,4.085,4.085,0,0,1,1.935-.483,2.194,2.194,0,0,1,2.488,1.847,6.775,6.775,0,0,1-.225,2.661l-2.035,8.393-1.863-.007,2.12-8.756q.3-1.26-.116-1.733a1.511,1.511,0,0,0-1.187-.475,3.043,3.043,0,0,0-2.022.829,5.215,5.215,0,0,0-1.439,2.788l-1.776,7.331-1.824-.006,1.991-8.228a4.878,4.878,0,0,0,.194-1.873q-.194-.883-1.312-.889a3.181,3.181,0,0,0-2.075.924,6.446,6.446,0,0,0-1.648,3.364l-1.619,6.683Z" transform="translate(-1136.47 -338.132)" fill="#fff"/>
        <path id="패스_1320" data-name="패스 1320" d="M1297.086,360.947l.5-2.053,1.667.007-.5,2.053Z" transform="translate(-1144.873 -343.686)" fill="#fff"/>
        <path id="패스_1321" data-name="패스 1321" d="M1075.409,348.163l-3.707,0,3.314-6.463Zm-6.916,6.212,1.759-3.377,5.382-.007.194,3.374,3.311,0-1.537-16.416-3.449,0-8.851,16.426Zm7.364-16.425" transform="translate(-1065.302 -336.495)" fill="#fff"/>
        <path id="패스_1322" data-name="패스 1322" d="M1097.565,341.924a3.623,3.623,0,0,1,1.732.387,2.377,2.377,0,0,1,1.079,1.19,2.859,2.859,0,0,1,.235,1.4,20.37,20.37,0,0,1-.42,2.346l-1.58,7.129-2.884,0,1.637-7.387a3.4,3.4,0,0,0,.053-1.581q-.2-.847-1.28-.846a2.454,2.454,0,0,0-1.886.843,5.17,5.17,0,0,0-1.111,2.4l-1.456,6.573-2.815,0,3.625-16.364,2.815,0-1.285,5.8a5.04,5.04,0,0,1,1.749-1.478A4.21,4.21,0,0,1,1097.565,341.924Z" transform="translate(-1073.393 -336.519)" fill="#fff"/>
        <path id="패스_1323" data-name="패스 1323" d="M1116.471,343.963a3.133,3.133,0,0,1,2.521.983q.848.983.342,3.267l-1.811,8.177-2.894,0,1.636-7.385a3.608,3.608,0,0,0,.1-1.468q-.209-.937-1.378-.936a2.567,2.567,0,0,0-2.276,1.372,6.133,6.133,0,0,0-.687,1.849l-1.456,6.573-2.815,0,2.685-12.12,2.725,0-.392,1.772a7.265,7.265,0,0,1,1.329-1.349A4,4,0,0,1,1116.471,343.963Zm-1.034-.033" transform="translate(-1079.874 -338.549)" fill="#fff"/>
        <path id="패스_1324" data-name="패스 1324" d="M1150.34,353.041a4.588,4.588,0,0,1-.045-2.818,6.12,6.12,0,0,1,1.291-2.813,2.764,2.764,0,0,1,2.127-.988,1.673,1.673,0,0,1,1.685.983,4.608,4.608,0,0,1,.041,2.813,6.185,6.185,0,0,1-1.29,2.818,2.755,2.755,0,0,1-2.122.995A1.682,1.682,0,0,1,1150.34,353.041Zm7.7-7.382q-.94-1.924-3.726-1.922a5.99,5.99,0,0,0-4.58,1.931,9.625,9.625,0,0,0-2.377,4.557,6.758,6.758,0,0,0,.355,4.571q.947,1.9,3.732,1.895a6.013,6.013,0,0,0,4.573-1.9,9.55,9.55,0,0,0,2.381-4.575A6.806,6.806,0,0,0,1158.044,345.66Zm-3.74-1.855" transform="translate(-1093.395 -338.483)" fill="#fff"/>
        <path id="패스_1325" data-name="패스 1325" d="M1169.221,353.021a4.6,4.6,0,0,1-.045-2.818,6.143,6.143,0,0,1,1.292-2.813,2.77,2.77,0,0,1,2.126-.988,1.675,1.675,0,0,1,1.685.984,4.593,4.593,0,0,1,.04,2.813,6.165,6.165,0,0,1-1.288,2.819,2.749,2.749,0,0,1-2.122.994A1.683,1.683,0,0,1,1169.221,353.021Zm7.7-7.382q-.94-1.924-3.726-1.922a5.986,5.986,0,0,0-4.58,1.932,9.594,9.594,0,0,0-2.377,4.557,6.758,6.758,0,0,0,.355,4.571q.949,1.9,3.731,1.895a6.009,6.009,0,0,0,4.574-1.9,9.548,9.548,0,0,0,2.382-4.574A6.808,6.808,0,0,0,1176.925,345.639Zm-3.741-1.855" transform="translate(-1099.876 -338.476)" fill="#fff"/>
        <path id="패스_1326" data-name="패스 1326" d="M1184.168,354.232l3.626-16.364,2.773,0-1.957,8.846,4.53-4.572,3.5,0-4.805,4.65,2.276,7.438-3.408,0-1.438-5.189-1.472,1.372-.846,3.821Z" transform="translate(-1106.109 -336.467)" fill="#fff"/>
        <path id="패스_1327" data-name="패스 1327" d="M1135.144,344.139a2.646,2.646,0,0,1,1.307,1.763l.393-1.768h2.844l-2.57,11.548a8.412,8.412,0,0,1-1.52,3.551,6.334,6.334,0,0,1-5.194,2.055,5.066,5.066,0,0,1-3.252-.916,2.773,2.773,0,0,1-.877-2.74h3.148a1.21,1.21,0,0,0,.216.807,1.865,1.865,0,0,0,1.459.437,2.615,2.615,0,0,0,2.319-1.144,7.3,7.3,0,0,0,.9-2.464l.174-.778a5.277,5.277,0,0,1-1.152,1.158,4,4,0,0,1-2.379.717,3.166,3.166,0,0,1-3.02-1.646,6.357,6.357,0,0,1-.276-4.456,10.017,10.017,0,0,1,2.238-4.557,5.011,5.011,0,0,1,3.868-1.845A3.036,3.036,0,0,1,1135.144,344.139Zm-.989,8.747a5.268,5.268,0,0,0,1.29-2.693,4.106,4.106,0,0,0-.064-2.642,1.589,1.589,0,0,0-1.549-.907,2.732,2.732,0,0,0-2.417,1.579,7.193,7.193,0,0,0-.764,2.071,5.1,5.1,0,0,0-.106,1.892,1.6,1.6,0,0,0,1.734,1.545A2.685,2.685,0,0,0,1134.155,352.886Z" transform="translate(-1086.217 -338.525)" fill="#fff"/>
      </g>
    </g>
  </g>
</svg>
