<svg xmlns="http://www.w3.org/2000/svg" xmlns:xlink="http://www.w3.org/1999/xlink" width="174.953" height="29.67" viewBox="0 0 174.953 29.67">
  <defs>
    <clipPath id="clip-path">
      <rect id="사각형_253" data-name="사각형 253" width="174.953" height="29.67" fill="#fff"/>
    </clipPath>
  </defs>
  <g id="그룹_617" data-name="그룹 617" transform="translate(0 0)">
    <g id="그룹_535" data-name="그룹 535" transform="translate(0 0)" clip-path="url(#clip-path)">
      <path id="패스_9" data-name="패스 9" d="M12.075,32.093l14.274-1.824a5.82,5.82,0,0,1-1.1.666L12.081,32.317a.135.135,0,0,1-.006-.224" transform="translate(-1.742 -4.388)" fill="#fff"/>
      <path id="패스_10" data-name="패스 10" d="M23.039,32.373a3.964,3.964,0,0,1-1.021.391l-9.5.421a1.593,1.593,0,0,1-.177-.217Z" transform="translate(-1.789 -4.693)" fill="#fff"/>
      <path id="패스_11" data-name="패스 11" d="M23.776,21.423,36.251,13.71a6.835,6.835,0,0,0-.229-2.006l-12.1,8.454s-.041.532-.146,1.265" transform="translate(-3.446 -1.697)" fill="#fff"/>
      <path id="패스_12" data-name="패스 12" d="M23.886,18.4l11.7-9.043A10.588,10.588,0,0,0,34.9,7.566L23.73,16.992a13.9,13.9,0,0,1,.156,1.409" transform="translate(-3.44 -1.097)" fill="#fff"/>
      <path id="패스_13" data-name="패스 13" d="M23.133,15.515,33.853,5.522A20.131,20.131,0,0,0,32.46,3.881L22.494,14.4a9.19,9.19,0,0,1,.639,1.11" transform="translate(-3.26 -0.563)" fill="#fff"/>
      <path id="패스_14" data-name="패스 14" d="M21.483,13.254,30.8,2.52a5.153,5.153,0,0,0-1.769-.949L20.6,12.512a3.576,3.576,0,0,1,.88.742" transform="translate(-2.986 -0.228)" fill="#fff"/>
      <path id="패스_15" data-name="패스 15" d="M19.2,11.775,27.143.8A7.813,7.813,0,0,0,25.112.373l-6.864,11a2.438,2.438,0,0,1,.949.4" transform="translate(-2.645 -0.054)" fill="#fff"/>
      <path id="패스_16" data-name="패스 16" d="M17.419,13.956l-2.186,3.708s.741-.209,1.126-.353l1.529-2.342a5.311,5.311,0,0,0-.469-1.012" transform="translate(-2.208 -2.023)" fill="#fff"/>
      <path id="패스_17" data-name="패스 17" d="M13.847,15.889,16.316,11.3a1.65,1.65,0,0,0-.425-.248.863.863,0,0,1,.475.053L22.527,0h-1.59L12.96,15.994a1.791,1.791,0,0,1,.887-.105" transform="translate(-1.879 0)" fill="#fff"/>
      <path id="패스_18" data-name="패스 18" d="M18.894.334,11.941,16.042a3.686,3.686,0,0,0-.677,0L17.2.65S17.79.5,18.894.334" transform="translate(-1.633 -0.049)" fill="#fff"/>
      <path id="패스_19" data-name="패스 19" d="M10.528,16.173,15.368,1.24a10.552,10.552,0,0,0-1.519.7L10.068,16.207a2.259,2.259,0,0,1,.46-.033" transform="translate(-1.459 -0.18)" fill="#fff"/>
      <path id="패스_20" data-name="패스 20" d="M12.24,2.765a9.7,9.7,0,0,0-1.165.705L8.957,16.5a1.78,1.78,0,0,1,.386-.11Z" transform="translate(-1.298 -0.401)" fill="#fff"/>
      <path id="패스_21" data-name="패스 21" d="M21.111,26.083l13.358-5.352a7.374,7.374,0,0,1-.917,1.8L19.57,27.018a7.862,7.862,0,0,0,1.541-.935" transform="translate(-2.837 -3.005)" fill="#fff"/>
      <path id="패스_22" data-name="패스 22" d="M31.6,24.776,13.883,29.3a3.959,3.959,0,0,0-.951.445l17.889-4.017a3.908,3.908,0,0,0,.778-.947" transform="translate(-1.874 -3.592)" fill="#fff"/>
      <path id="패스_23" data-name="패스 23" d="M29.24,27.757,12.051,30.9s-.16.135-.085.242l16.314-2.576s.349-.283.959-.808" transform="translate(-1.732 -4.024)" fill="#fff"/>
      <path id="패스_24" data-name="패스 24" d="M9.625,4.542,8.113,16.89s-.25.038-.409.083L8.543,5.329a7.33,7.33,0,0,1,1.082-.787" transform="translate(-1.117 -0.659)" fill="#fff"/>
      <path id="패스_25" data-name="패스 25" d="M7.176,6.521a2.419,2.419,0,0,0-.746.64l.248,10.306s.08.066.333-.079Z" transform="translate(-0.932 -0.946)" fill="#fff"/>
      <path id="패스_26" data-name="패스 26" d="M5.262,8.221s-.244.28-.564.628l.892,9.174s0-.034.353-.141Z" transform="translate(-0.681 -1.192)" fill="#fff"/>
      <path id="패스_27" data-name="패스 27" d="M4.8,18.564l-1.1-8.376a3.283,3.283,0,0,0-.522.648l1.306,7.872s.056-.021.321-.144" transform="translate(-0.46 -1.477)" fill="#fff"/>
      <path id="패스_28" data-name="패스 28" d="M3.5,19.591a.7.7,0,0,1,.286-.208L2.157,12.433a2.12,2.12,0,0,0-.406.739Z" transform="translate(-0.254 -1.803)" fill="#fff"/>
      <path id="패스_29" data-name="패스 29" d="M2.968,20.261,1.035,14.8a5.243,5.243,0,0,0-.257.836l1.979,4.8a1.282,1.282,0,0,0,.211-.169" transform="translate(-0.113 -2.145)" fill="#fff"/>
      <path id="패스_30" data-name="패스 30" d="M2.381,21.125.359,17.247a.908.908,0,0,0-.126.516l2.009,3.6s.011.044.139-.236" transform="translate(-0.034 -2.5)" fill="#fff"/>
      <path id="패스_31" data-name="패스 31" d="M1.9,22.164,0,19.2V19.8l1.793,2.578a1.313,1.313,0,0,1,.11-.213" transform="translate(0 -2.784)" fill="#fff"/>
      <path id="패스_32" data-name="패스 32" d="M1.53,23.417,0,21.514S-.147,27.447,4.8,30.8c0,0,2.776,2.264,8.686,1.962a31.454,31.454,0,0,0,4.27-.729H11.082v.209a15.352,15.352,0,0,1-5.335-1.656,7.949,7.949,0,0,1-3.912-4.447,5.918,5.918,0,0,1-.305-2.721" transform="translate(0 -3.119)" fill="#fff"/>
      <path id="패스_33" data-name="패스 33" d="M23.281,23.259l12.713-6.994a12.576,12.576,0,0,1-.387,1.913L22.783,24.141s.25-.459.5-.882" transform="translate(-3.302 -2.358)" fill="#fff"/>
      <path id="패스_34" data-name="패스 34" d="M79.132,8.489V7.076l17.232.03s1.276-.2,1.292,1.444v5.28H94.223l-.045-5.386-15.045.044V7.076" transform="translate(-11.47 -1.026)" fill="#fff"/>
      <path id="패스_35" data-name="패스 35" d="M105.153,23.247V21.87l18.713.038s1.274-.2,1.29,1.444v4.708h-3.431l-.047-4.813Z" transform="translate(-15.242 -3.17)" fill="#fff"/>
      <path id="패스_36" data-name="패스 36" d="M135.7,12.382V13.9h21.1v-1.52" transform="translate(-19.669 -1.795)" fill="#fff"/>
      <path id="패스_37" data-name="패스 37" d="M98.533,17.7V16.286H77.222V17.7" transform="translate(-11.193 -2.361)" fill="#fff"/>
      <path id="패스_41" data-name="패스 41" d="M153.224,11.573V8.607l3.082.018V7.106H136.264V8.625l3.666-.018v2.966l-4.232.044v1.52h21.1v-1.52Zm-3.814,0h-5.668V8.607h5.668Z" transform="translate(-19.669 -1.03)" fill="#fff"/>
      <path id="패스_42" data-name="패스 42" d="M154.568,21.261l-6.617-.038V18.575l9.117.043-.009-1.579-21.935.042v1.537l9.012-.043v2.648h-8.37v6.1h20.181V22.388c0-1.377-1.38-1.127-1.38-1.127m-2.38,4.569H139.582V22.6h12.606Z" transform="translate(-19.586 -2.47)" fill="#fff"/>
      <path id="패스_43" data-name="패스 43" d="M77.965,22.855V21.446l8.785-.015V17.67l-9.528.029V16.286h21.31V17.7L90.51,17.67v3.761l5.533.042s1.277-.2,1.293,1.444v4.328l-3.489-.031.01-4.4-15.893.044V21.446" transform="translate(-11.193 -2.361)" fill="#fff"/>
      <path id="패스_44" data-name="패스 44" d="M48.721,26.146l.032-4.371h3.432v4.8h.032l15,.034v1.413L50.364,28.01s-1.643.1-1.643-1.864" transform="translate(-7.062 -3.157)" fill="#fff"/>
      <path id="패스_45" data-name="패스 45" d="M66.288,8.749V22.16H69.72L69.7,8.548V8.512h4.229V7.1l-5.978-.035a1.621,1.621,0,0,0-1.663,1.685" transform="translate(-9.608 -1.024)" fill="#fff"/>
      <path id="패스_46" data-name="패스 46" d="M128.066,17.928h-3.622V8.448A1.237,1.237,0,0,1,125.8,7.1l5.713.006V8.518L128.022,8.5v4.662l3.487.028V14.6l-3.487-.01.044,3.337h-3.622V9.56" transform="translate(-18.037 -1.029)" fill="#fff"/>
      <path id="패스_50" data-name="패스 50" d="M54.024,6.8c-3.972,0-7.191,2.381-7.191,5.318s3.219,5.318,7.191,5.318,7.191-2.381,7.191-5.318S58,6.8,54.024,6.8m0,9.026a3.536,3.536,0,0,1-3.334-3.708,3.352,3.352,0,1,1,6.667,0,3.536,3.536,0,0,1-3.333,3.708" transform="translate(-6.788 -0.987)" fill="#fff"/>
      <path id="패스_51" data-name="패스 51" d="M111.557,6.669c-3.973,0-7.191,2.379-7.191,5.317s3.218,5.319,7.191,5.319,7.19-2.382,7.19-5.319-3.218-5.317-7.19-5.317m0,9.025a3.535,3.535,0,0,1-3.333-3.708,3.351,3.351,0,1,1,6.665,0,3.535,3.535,0,0,1-3.332,3.708" transform="translate(-15.128 -0.967)" fill="#fff"/>
    </g>
  </g>
</svg>
