<svg xmlns="http://www.w3.org/2000/svg" xmlns:xlink="http://www.w3.org/1999/xlink" width="259.451" height="44" viewBox="0 0 259.451 44">
  <defs>
    <clipPath id="clip-path">
      <rect id="사각형_253" data-name="사각형 253" width="259.451" height="44" fill="#fff"/>
    </clipPath>
  </defs>
  <g id="그룹_617" data-name="그룹 617" transform="translate(0 0)">
    <g id="그룹_535" data-name="그룹 535" transform="translate(0 0)" clip-path="url(#clip-path)">
      <path id="패스_9" data-name="패스 9" d="M12.1,32.974l21.168-2.7a8.631,8.631,0,0,1-1.631.988L12.113,33.306a.2.2,0,0,1-.009-.332" transform="translate(3.22 8.112)" fill="#dc000c"/>
      <path id="패스_10" data-name="패스 10" d="M28.2,32.373a5.878,5.878,0,0,1-1.514.579L12.6,33.576a2.363,2.363,0,0,1-.262-.322Z" transform="translate(3.308 8.676)" fill="#dc000c"/>
      <path id="패스_11" data-name="패스 11" d="M23.776,26.116l18.5-11.438a10.136,10.136,0,0,0-.34-2.975L23.993,24.241s-.061.789-.217,1.875" transform="translate(6.372 3.136)" fill="#dc000c"/>
      <path id="패스_12" data-name="패스 12" d="M23.961,23.634,41.319,10.224A15.7,15.7,0,0,0,40.3,7.566L23.73,21.545a20.609,20.609,0,0,1,.231,2.09" transform="translate(6.36 2.027)" fill="#dc000c"/>
      <path id="패스_13" data-name="패스 13" d="M23.441,21.134,39.34,6.314a29.855,29.855,0,0,0-2.067-2.433L22.494,19.488a13.629,13.629,0,0,1,.947,1.646" transform="translate(6.029 1.04)" fill="#dc000c"/>
      <path id="패스_14" data-name="패스 14" d="M21.908,18.9,35.728,2.979A7.642,7.642,0,0,0,33.1,1.571L20.6,17.8a5.3,5.3,0,0,1,1.3,1.1" transform="translate(5.522 0.42)" fill="#dc000c"/>
      <path id="패스_15" data-name="패스 15" d="M19.656,17.282,31.439,1A11.586,11.586,0,0,0,28.426.373L18.248,16.682a3.616,3.616,0,0,1,1.408.6" transform="translate(4.891 0.099)" fill="#dc000c"/>
      <path id="패스_16" data-name="패스 16" d="M18.475,13.956l-3.242,5.5s1.1-.311,1.67-.524l2.267-3.473a7.876,7.876,0,0,0-.695-1.5" transform="translate(4.083 3.74)" fill="#dc000c"/>
      <path id="패스_17" data-name="패스 17" d="M14.275,23.562l3.662-6.809a2.448,2.448,0,0,0-.63-.368,1.279,1.279,0,0,1,.7.079L27.148,0H24.791L12.96,23.718a2.656,2.656,0,0,1,1.315-.156" transform="translate(3.474 -0.001)" fill="#dc000c"/>
      <path id="패스_18" data-name="패스 18" d="M22.579.334,12.268,23.629a5.467,5.467,0,0,0-1,0L20.06.8s.881-.221,2.518-.468" transform="translate(3.019 0.089)" fill="#dc000c"/>
      <path id="패스_19" data-name="패스 19" d="M10.75,23.386,17.927,1.24a15.648,15.648,0,0,0-2.252,1.044L10.068,23.435a3.35,3.35,0,0,1,.682-.049" transform="translate(2.698 0.332)" fill="#dc000c"/>
      <path id="패스_20" data-name="패스 20" d="M13.825,2.765A14.385,14.385,0,0,0,12.1,3.811l-3.14,19.33a2.64,2.64,0,0,1,.572-.164Z" transform="translate(2.401 0.74)" fill="#dc000c"/>
      <path id="패스_21" data-name="패스 21" d="M21.855,28.668l19.809-7.937A10.936,10.936,0,0,1,40.3,23.4L19.57,30.055a11.659,11.659,0,0,0,2.285-1.387" transform="translate(5.245 5.556)" fill="#dc000c"/>
      <path id="패스_22" data-name="패스 22" d="M40.614,24.776l-26.272,6.7a5.872,5.872,0,0,0-1.41.659L39.46,26.181a5.8,5.8,0,0,0,1.154-1.4" transform="translate(3.466 6.64)" fill="#dc000c"/>
      <path id="패스_23" data-name="패스 23" d="M37.593,27.757,12.1,32.417s-.237.2-.126.359L36.17,28.955s.517-.42,1.423-1.2" transform="translate(3.202 7.439)" fill="#dc000c"/>
      <path id="패스_24" data-name="패스 24" d="M10.553,4.542,8.31,22.854s-.37.057-.606.123L8.948,5.709a10.87,10.87,0,0,1,1.605-1.167" transform="translate(2.065 1.217)" fill="#dc000c"/>
      <path id="패스_25" data-name="패스 25" d="M7.536,6.521a3.587,3.587,0,0,0-1.106.948L6.8,22.753s.118.1.493-.117Z" transform="translate(1.723 1.747)" fill="#dc000c"/>
      <path id="패스_26" data-name="패스 26" d="M5.535,8.221s-.361.415-.837.932l1.323,13.6s0-.051.524-.209Z" transform="translate(1.259 2.203)" fill="#dc000c"/>
      <path id="패스_27" data-name="패스 27" d="M5.583,22.61,3.946,10.188a4.868,4.868,0,0,0-.775.961L5.107,22.823s.084-.032.476-.213" transform="translate(0.85 2.73)" fill="#dc000c"/>
      <path id="패스_28" data-name="패스 28" d="M4.34,23.049a1.032,1.032,0,0,1,.425-.308L2.353,12.433a3.144,3.144,0,0,0-.6,1.1Z" transform="translate(0.469 3.332)" fill="#dc000c"/>
      <path id="패스_29" data-name="패스 29" d="M4.025,22.9,1.16,14.795a7.775,7.775,0,0,0-.382,1.24l2.934,7.117a1.9,1.9,0,0,0,.313-.251" transform="translate(0.209 3.965)" fill="#dc000c"/>
      <path id="패스_30" data-name="패스 30" d="M3.418,23l-3-5.75a1.346,1.346,0,0,0-.186.766l2.979,5.335s.016.066.207-.35" transform="translate(0.062 4.622)" fill="#dc000c"/>
      <path id="패스_31" data-name="패스 31" d="M2.823,23.594,0,19.2v.881l2.659,3.823a1.947,1.947,0,0,1,.164-.316" transform="translate(0 5.147)" fill="#dc000c"/>
      <path id="패스_32" data-name="패스 32" d="M2.268,24.337,0,21.514s-.219,8.8,7.11,13.769c0,0,4.117,3.358,12.881,2.91a46.646,46.646,0,0,0,6.333-1.082H16.433v.311a22.767,22.767,0,0,1-7.911-2.456,11.789,11.789,0,0,1-5.8-6.595,8.777,8.777,0,0,1-.453-4.035" transform="translate(0 5.766)" fill="#dc000c"/>
      <path id="패스_33" data-name="패스 33" d="M23.522,26.637,42.375,16.265A18.65,18.65,0,0,1,41.8,19.1L22.783,27.945s.37-.681.739-1.307" transform="translate(6.106 4.359)" fill="#dc000c"/>
      <path id="패스_34" data-name="패스 34" d="M79.132,9.171V7.076l25.554.044s1.892-.294,1.916,2.142v7.83h-5.091L101.444,9.1l-22.312.066V7.076" transform="translate(21.209 1.896)"/>
      <path id="패스_35" data-name="패스 35" d="M105.153,23.913V21.87l27.751.057s1.889-.293,1.913,2.142V31.05h-5.089l-.07-7.138Z" transform="translate(28.183 5.861)"/>
      <path id="패스_36" data-name="패스 36" d="M135.7,12.382v2.255h31.29V12.382" transform="translate(36.37 3.318)"/>
      <path id="패스_37" data-name="패스 37" d="M108.825,18.382v-2.1h-31.6v2.1" transform="translate(20.697 4.364)"/>
      <path id="패스_41" data-name="패스 41" d="M161.689,13.73v-4.4l4.57.027V7.106H136.537V9.358l5.436-.027v4.4L135.7,13.8v2.255h31.29V13.8Zm-5.655,0h-8.406v-4.4h8.406Z" transform="translate(36.37 1.904)"/>
      <path id="패스_42" data-name="패스 42" d="M163.959,23.3l-9.813-.057V19.317l13.521.063-.013-2.342-32.529.062v2.28l13.365-.063v3.927H136.077v9.047h29.928V24.972c0-2.043-2.047-1.671-2.047-1.671m-3.53,6.776H141.734V25.288h18.694Z" transform="translate(36.216 4.566)"/>
      <path id="패스_43" data-name="패스 43" d="M78.324,26.028v-2.09l13.028-.023V18.339l-14.13.043v-2.1h31.6v2.1l-11.9-.043v5.577l8.205.062s1.893-.293,1.917,2.142v6.419l-5.174-.046.015-6.529-23.569.065v-2.09" transform="translate(20.697 4.364)"/>
      <path id="패스_44" data-name="패스 44" d="M48.721,28.257l.047-6.482h5.09v7.111H53.9l22.25.051v2.095l-25-.01s-2.436.142-2.436-2.764" transform="translate(13.058 5.836)"/>
      <path id="패스_45" data-name="패스 45" d="M66.288,9.563V29.451h5.09l-.03-20.187V9.211h6.272V7.116l-8.865-.052a2.4,2.4,0,0,0-2.466,2.5" transform="translate(17.766 1.893)"/>
      <path id="패스_46" data-name="패스 46" d="M129.816,23.158h-5.371V9.1a1.835,1.835,0,0,1,2.009-2l8.472.009V9.2l-5.174-.027v6.913l5.171.042v2.094l-5.171-.015.065,4.949h-5.371V10.748" transform="translate(33.353 1.902)"/>
      <path id="패스_50" data-name="패스 50" d="M57.5,6.8c-5.89,0-10.664,3.531-10.664,7.887s4.774,7.886,10.664,7.886,10.664-3.531,10.664-7.886S63.387,6.8,57.5,6.8m0,13.385a5.244,5.244,0,0,1-4.944-5.5,5.244,5.244,0,0,1,4.944-5.5,5.243,5.243,0,0,1,4.943,5.5,5.243,5.243,0,0,1-4.943,5.5" transform="translate(12.552 1.823)"/>
      <path id="패스_51" data-name="패스 51" d="M115.03,6.669c-5.891,0-10.664,3.528-10.664,7.885s4.773,7.888,10.664,7.888,10.663-3.533,10.663-7.888S120.92,6.669,115.03,6.669m0,13.384a5.242,5.242,0,0,1-4.943-5.5,4.97,4.97,0,1,1,9.884,0,5.242,5.242,0,0,1-4.941,5.5" transform="translate(27.972 1.787)"/>
    </g>
  </g>
</svg>
