<svg xmlns="http://www.w3.org/2000/svg" width="24" height="25" viewBox="0 0 24 25">
  <g id="그룹_1158" data-name="그룹 1158" transform="translate(-601 -1286)">
    <path id="Icon_material-attach-file" data-name="Icon material-attach-file" d="M17.51,5.189v8.485a2.951,2.951,0,0,1-5.9,0V4.451a1.845,1.845,0,1,1,3.689,0V12.2a.738.738,0,0,1-1.476,0V5.189H12.714V12.2a1.845,1.845,0,0,0,3.689,0V4.451a2.951,2.951,0,0,0-5.9,0v9.223a4.058,4.058,0,0,0,8.116,0V5.189Z" transform="translate(609.115 1281.515) rotate(45)" fill="#e52f42"/>
    <rect id="사각형_609" data-name="사각형 609" width="24" height="25" transform="translate(601 1286)" fill="none"/>
  </g>
</svg>
