<svg xmlns="http://www.w3.org/2000/svg" xmlns:xlink="http://www.w3.org/1999/xlink" width="70" height="70" viewBox="0 0 70 70">
  <defs>
    <clipPath id="clip-path">
      <rect id="Rectangle_280" data-name="Rectangle 280" width="44" height="28" transform="translate(-0.125 0)" fill="#fff"/>
    </clipPath>
  </defs>
  <g id="Group_606" data-name="Group 606" transform="translate(-255 -1165)">
    <circle id="GettyImages-jv12269971" cx="35" cy="35" r="35" transform="translate(255 1165)" fill="#e52f42"/>
    <g id="Group_605" data-name="Group 605" transform="translate(268.125 1186)">
      <g id="Group_604" data-name="Group 604" clip-path="url(#clip-path)">
        <path id="Path_79" data-name="Path 79" d="M42.564,11.134H37.778A10.929,10.929,0,0,0,37.989,9a8.837,8.837,0,0,0-8.862-9,7.779,7.779,0,0,0-7.464,4.9C20.069,1.611,17.612,0,14.22,0a8.857,8.857,0,0,0-8.9,9,11.094,11.094,0,0,0,.21,2.133H1.182a1.182,1.182,0,1,0,0,2.365H6.259c1.907,4.472,6.426,8.029,10.834,11.5,1.351,1.062,2.626,2.065,3.834,3.1a1.182,1.182,0,0,0,1.536-1.8c-1.244-1.063-2.6-2.128-3.908-3.158C14.732,20.13,10.819,17.051,8.9,13.5h3.09l4.474,6.577a1.183,1.183,0,0,0,.978.517h.023a1.182,1.182,0,0,0,.979-.555l3.211-3.913h1.117a1.182,1.182,0,0,0,1.033-.608L27.188,11l3.063,1.97a1.183,1.183,0,0,0,.984.526h3.191c-1.63,3.038-4.728,5.717-8.06,8.388a1.183,1.183,0,0,0,1.479,1.845c3.784-3.033,7.5-6.291,9.192-10.233h5.528a1.182,1.182,0,1,0,0-2.365m-10.7,0L28.08,8.078a1.182,1.182,0,0,0-2.017.082l-3.988,5.6H21a1.182,1.182,0,0,0-1,.556l-2.6,2.932-3.807-5.6a1.182,1.182,0,0,0-.978-.517H7.956A8.578,8.578,0,0,1,7.682,9,6.443,6.443,0,0,1,14.22,2.365c2.314,0,4.875.765,6.329,6.439a1.182,1.182,0,0,0,1.145.889h.016a1.182,1.182,0,0,0,1.137-.919c1.313-5.744,4.213-6.409,6.28-6.409A6.5,6.5,0,0,1,35.624,9a8.721,8.721,0,0,1-.268,2.133Z" transform="translate(0.003 0.003)" fill="#fff"/>
      </g>
    </g>
  </g>
</svg>
