<svg width="40" height="40" viewBox="0 0 40 40" fill="none" xmlns="http://www.w3.org/2000/svg">
<mask id="mask0_150_106" style="mask-type:alpha" maskUnits="userSpaceOnUse" x="0" y="0" width="40" height="40">
<rect width="40" height="40" fill="#D9D9D9"/>
</mask>
<g mask="url(#mask0_150_106)">
<path d="M11.355 34.6341C10.6097 34.6341 9.97171 34.3688 9.44101 33.8381C8.9103 33.3074 8.64495 32.6694 8.64495 31.9241V9.43085H6.99182V6.72085H14.7967V5.36585H25.2032V6.72085H33.0081V9.43085H31.355V31.9241C31.355 32.6559 31.0862 33.2904 30.5487 33.8279C30.0113 34.3654 29.3767 34.6341 28.645 34.6341H11.355ZM28.645 9.43085H11.355V31.9241H28.645V9.43085ZM15.3116 28.5095H18.0216V12.8184H15.3116V28.5095ZM21.9783 28.5095H24.6883V12.8184H21.9783V28.5095Z" fill="#BEC1CD"/>
</g>
</svg>
