<svg width="40" height="40" viewBox="0 0 40 40" fill="none" xmlns="http://www.w3.org/2000/svg">
<mask id="mask0_150_102" style="mask-type:alpha" maskUnits="userSpaceOnUse" x="0" y="0" width="40" height="40">
<rect width="40" height="40" fill="#D9D9D9"/>
</mask>
<g mask="url(#mask0_150_102)">
<path d="M33.1667 35C29.8611 35 26.5278 34.2292 23.1667 32.6875C19.8056 31.1458 16.7083 28.9583 13.875 26.125C11.0417 23.2917 8.85417 20.1944 7.3125 16.8333C5.77083 13.4722 5 10.1389 5 6.83333C5 6.30953 5.1746 5.87301 5.52379 5.52379C5.87301 5.1746 6.30953 5 6.83333 5H12.9722C13.3611 5 13.6991 5.13657 13.9861 5.40971C14.2731 5.68288 14.463 6.01853 14.5555 6.41667L15.6647 11.8511C15.7216 12.2652 15.713 12.6296 15.6389 12.9444C15.5648 13.2593 15.4145 13.5299 15.1881 13.7563L11.0694 17.9167C11.7361 19.0741 12.4652 20.1644 13.2569 21.1875C14.0486 22.2106 14.9213 23.1852 15.875 24.1111C16.8472 25.1019 17.8704 26.0116 18.9445 26.8403C20.0185 27.669 21.1482 28.4074 22.3333 29.0556L26.2778 25.0278C26.5463 24.7408 26.8695 24.5394 27.2473 24.4236C27.6251 24.3079 27.9963 24.2778 28.3611 24.3333L33.5833 25.4445C33.9908 25.5556 34.3287 25.7713 34.5972 26.0915C34.8657 26.4118 35 26.7702 35 27.1667V33.1667C35 33.6905 34.8254 34.127 34.4762 34.4762C34.127 34.8254 33.6905 35 33.1667 35ZM9.70833 15.3333L12.875 12.1389L12 7.77775H7.79167C7.875 8.93517 8.06481 10.1296 8.36108 11.3611C8.65739 12.5926 9.10647 13.9167 9.70833 15.3333ZM24.9305 30.3889C26.0509 30.8982 27.2431 31.3102 28.507 31.625C29.7708 31.9398 31.0093 32.1297 32.2222 32.1945V28L28.0556 27.1528L24.9305 30.3889Z" fill="#BEC1CD"/>
</g>
</svg>
