<svg xmlns="http://www.w3.org/2000/svg" width="640" height="460" viewBox="0 0 640 460">
  <g id="그룹_1627" data-name="그룹 1627" transform="translate(10709 17326)">
    <rect id="사각형_1036" data-name="사각형 1036" width="640" height="460" transform="translate(-10709 -17326)" fill="none"/>
    <g id="그룹_1625" data-name="그룹 1625" transform="translate(795 -88)">
      <text id="_200_000_150_000_100_000_50_000_0" data-name="200,000
150,000
100,000
50,000
0" transform="translate(-11400 -17178)" fill="#999" font-size="24" font-family="Stolzl-Book, Stolzl"><tspan x="-100" y="0">200,000</tspan><tspan x="-93" y="58">150,000</tspan><tspan x="-95" y="116">100,000</tspan><tspan x="-84" y="174">50,000</tspan><tspan x="-16" y="232">0</tspan></text>
      <rect id="사각형_1026" data-name="사각형 1026" width="532" height="2" transform="translate(-11396 -17189)" fill="#e5e5e5"/>
      <rect id="사각형_1027" data-name="사각형 1027" width="532" height="2" transform="translate(-11396 -17130)" fill="#e5e5e5"/>
      <rect id="사각형_1037" data-name="사각형 1037" width="532" height="2" transform="translate(-11396 -17072)" fill="#e5e5e5"/>
      <rect id="사각형_1028" data-name="사각형 1028" width="532" height="2" transform="translate(-11396 -17013)" fill="#e5e5e5"/>
      <rect id="사각형_1029" data-name="사각형 1029" width="532" height="2" transform="translate(-11396 -16955)" fill="#e5e5e5"/>
      <text id="_2019" data-name="2019" transform="translate(-11293 -16907)" fill="#111" font-size="26" font-family="Stolzl-Medium, Stolzl" font-weight="500"><tspan x="-30" y="0">2019</tspan></text>
      <text id="_2018" data-name="2018" transform="translate(-11126 -16907)" fill="#111" font-size="26" font-family="Stolzl-Medium, Stolzl" font-weight="500"><tspan x="-30" y="0">2018</tspan></text>
      <text id="_2017" data-name="2017" transform="translate(-10959 -16907)" fill="#111" font-size="26" font-family="Stolzl-Medium, Stolzl" font-weight="500"><tspan x="-29" y="0">2017</tspan></text>
      <rect id="사각형_581" data-name="사각형 581" width="20" height="168" transform="translate(-11342 -17121)" fill="#16b4b9"/>
      <rect id="사각형_1032" data-name="사각형 1032" width="20" height="209" transform="translate(-11175 -17162)" fill="#16b4b9"/>
      <rect id="사각형_1033" data-name="사각형 1033" width="20" height="209" transform="translate(-11008 -17162)" fill="#16b4b9"/>
      <rect id="사각형_582" data-name="사각형 582" width="20" height="8" transform="translate(-11264 -16961)" fill="#e52f42"/>
      <rect id="사각형_1030" data-name="사각형 1030" width="20" height="13" transform="translate(-11097 -16966)" fill="#e52f42"/>
      <rect id="사각형_1035" data-name="사각형 1035" width="20" height="6" transform="translate(-10930 -16959)" fill="#e52f42"/>
      <rect id="사각형_583" data-name="사각형 583" width="20" height="8" transform="translate(-11303 -16961)" fill="#313033"/>
      <rect id="사각형_1031" data-name="사각형 1031" width="20" height="10" transform="translate(-11136 -16964)" fill="#313033"/>
      <rect id="사각형_1034" data-name="사각형 1034" width="20" height="7" transform="translate(-10969 -16961)" fill="#313033"/>
      <g id="그룹_1623" data-name="그룹 1623" transform="translate(-68)">
        <text id="Sales" transform="translate(-11351 -16822)" fill="#111" font-size="26" font-family="NotoSansCJKkr-Medium, Noto Sans CJK KR" font-weight="500" letter-spacing="-0.05em"><tspan x="0" y="0">Sales</tspan></text>
        <text id="Operating_profit" data-name="Operating profit" transform="translate(-11222 -16822)" fill="#111" font-size="26" font-family="NotoSansCJKkr-Medium, Noto Sans CJK KR" font-weight="500" letter-spacing="-0.05em"><tspan x="0" y="0">Operating profit</tspan></text>
        <text id="Net_income" data-name="Net income" transform="translate(-10972 -16822)" fill="#111" font-size="26" font-family="NotoSansCJKkr-Medium, Noto Sans CJK KR" font-weight="500" letter-spacing="-0.05em"><tspan x="0" y="0">Net income</tspan></text>
        <circle id="타원_140" data-name="타원 140" cx="12" cy="12" r="12" transform="translate(-11390 -16845)" fill="#16b4b9"/>
        <circle id="타원_141" data-name="타원 141" cx="12" cy="12" r="12" transform="translate(-11261 -16845)" fill="#313033"/>
        <circle id="타원_142" data-name="타원 142" cx="12" cy="12" r="12" transform="translate(-11011 -16845)" fill="#e52f42"/>
      </g>
    </g>
  </g>
</svg>
