<svg xmlns="http://www.w3.org/2000/svg" xmlns:xlink="http://www.w3.org/1999/xlink" width="1244" height="800" viewBox="0 0 1244 800">
  <defs>
    <filter id="사각형_1003" x="277" y="358" width="159" height="112" filterUnits="userSpaceOnUse">
      <feOffset dy="3" input="SourceAlpha"/>
      <feGaussianBlur stdDeviation="10" result="blur"/>
      <feFlood flood-opacity="0.102"/>
      <feComposite operator="in" in2="blur"/>
      <feComposite in="SourceGraphic"/>
    </filter>
    <filter id="사각형_1000" x="520" y="264" width="190" height="112" filterUnits="userSpaceOnUse">
      <feOffset dy="3" input="SourceAlpha"/>
      <feGaussianBlur stdDeviation="10" result="blur-2"/>
      <feFlood flood-opacity="0.102"/>
      <feComposite operator="in" in2="blur-2"/>
      <feComposite in="SourceGraphic"/>
    </filter>
    <filter id="사각형_1008" x="881" y="445" width="190" height="112" filterUnits="userSpaceOnUse">
      <feOffset dy="3" input="SourceAlpha"/>
      <feGaussianBlur stdDeviation="10" result="blur-3"/>
      <feFlood flood-opacity="0.102"/>
      <feComposite operator="in" in2="blur-3"/>
      <feComposite in="SourceGraphic"/>
    </filter>
    <filter id="사각형_1009" x="906" y="508" width="190" height="112" filterUnits="userSpaceOnUse">
      <feOffset dy="3" input="SourceAlpha"/>
      <feGaussianBlur stdDeviation="10" result="blur-4"/>
      <feFlood flood-opacity="0.102"/>
      <feComposite operator="in" in2="blur-4"/>
      <feComposite in="SourceGraphic"/>
    </filter>
    <filter id="사각형_1002" x="144" y="358" width="190" height="112" filterUnits="userSpaceOnUse">
      <feOffset dy="3" input="SourceAlpha"/>
      <feGaussianBlur stdDeviation="10" result="blur-5"/>
      <feFlood flood-opacity="0.102"/>
      <feComposite operator="in" in2="blur-5"/>
      <feComposite in="SourceGraphic"/>
    </filter>
    <filter id="사각형_1006" x="89" y="537" width="190" height="112" filterUnits="userSpaceOnUse">
      <feOffset dy="3" input="SourceAlpha"/>
      <feGaussianBlur stdDeviation="10" result="blur-6"/>
      <feFlood flood-opacity="0.102"/>
      <feComposite operator="in" in2="blur-6"/>
      <feComposite in="SourceGraphic"/>
    </filter>
    <filter id="사각형_1007" x="890" y="343" width="210" height="112" filterUnits="userSpaceOnUse">
      <feOffset dy="3" input="SourceAlpha"/>
      <feGaussianBlur stdDeviation="10" result="blur-7"/>
      <feFlood flood-opacity="0.102"/>
      <feComposite operator="in" in2="blur-7"/>
      <feComposite in="SourceGraphic"/>
    </filter>
    <filter id="사각형_993" x="0" y="229" width="159" height="112" filterUnits="userSpaceOnUse">
      <feOffset dy="3" input="SourceAlpha"/>
      <feGaussianBlur stdDeviation="10" result="blur-8"/>
      <feFlood flood-opacity="0.102"/>
      <feComposite operator="in" in2="blur-8"/>
      <feComposite in="SourceGraphic"/>
    </filter>
    <filter id="사각형_996" x="0" y="285" width="159" height="112" filterUnits="userSpaceOnUse">
      <feOffset dy="3" input="SourceAlpha"/>
      <feGaussianBlur stdDeviation="10" result="blur-9"/>
      <feFlood flood-opacity="0.102"/>
      <feComposite operator="in" in2="blur-9"/>
      <feComposite in="SourceGraphic"/>
    </filter>
    <filter id="사각형_1001" x="123" y="297" width="143" height="112" filterUnits="userSpaceOnUse">
      <feOffset dy="3" input="SourceAlpha"/>
      <feGaussianBlur stdDeviation="10" result="blur-10"/>
      <feFlood flood-opacity="0.102"/>
      <feComposite operator="in" in2="blur-10"/>
      <feComposite in="SourceGraphic"/>
    </filter>
    <filter id="사각형_999" x="382" y="323" width="155" height="112" filterUnits="userSpaceOnUse">
      <feOffset dy="3" input="SourceAlpha"/>
      <feGaussianBlur stdDeviation="10" result="blur-11"/>
      <feFlood flood-opacity="0.102"/>
      <feComposite operator="in" in2="blur-11"/>
      <feComposite in="SourceGraphic"/>
    </filter>
    <filter id="사각형_997" x="105" y="229" width="190" height="112" filterUnits="userSpaceOnUse">
      <feOffset dy="3" input="SourceAlpha"/>
      <feGaussianBlur stdDeviation="10" result="blur-12"/>
      <feFlood flood-opacity="0.102"/>
      <feComposite operator="in" in2="blur-12"/>
      <feComposite in="SourceGraphic"/>
    </filter>
    <filter id="사각형_1004" x="330" y="444" width="190" height="112" filterUnits="userSpaceOnUse">
      <feOffset dy="3" input="SourceAlpha"/>
      <feGaussianBlur stdDeviation="10" result="blur-13"/>
      <feFlood flood-opacity="0.102"/>
      <feComposite operator="in" in2="blur-13"/>
      <feComposite in="SourceGraphic"/>
    </filter>
    <filter id="사각형_1004-2" x="345" y="198" width="190" height="112" filterUnits="userSpaceOnUse">
      <feOffset dy="3" input="SourceAlpha"/>
      <feGaussianBlur stdDeviation="10" result="blur-14"/>
      <feFlood flood-opacity="0.102"/>
      <feComposite operator="in" in2="blur-14"/>
      <feComposite in="SourceGraphic"/>
    </filter>
    <filter id="사각형_1005" x="481" y="323" width="164" height="112" filterUnits="userSpaceOnUse">
      <feOffset dy="3" input="SourceAlpha"/>
      <feGaussianBlur stdDeviation="10" result="blur-15"/>
      <feFlood flood-opacity="0.102"/>
      <feComposite operator="in" in2="blur-15"/>
      <feComposite in="SourceGraphic"/>
    </filter>
    <filter id="사각형_998" x="219" y="285" width="210" height="112" filterUnits="userSpaceOnUse">
      <feOffset dy="3" input="SourceAlpha"/>
      <feGaussianBlur stdDeviation="10" result="blur-16"/>
      <feFlood flood-opacity="0.102"/>
      <feComposite operator="in" in2="blur-16"/>
      <feComposite in="SourceGraphic"/>
    </filter>
  </defs>
  <g id="그룹_1704" data-name="그룹 1704" transform="translate(-331 -964)">
    <rect id="사각형_718" data-name="사각형 718" width="1230" height="800" transform="translate(345 964)" fill="#fff"/>
    <path id="패스_930" data-name="패스 930" d="M430.959,216.588a34.878,34.878,0,0,1-29.014,4.485,4.142,4.142,0,0,1-2.764-1.812c-.746-1.534.444-3.266.661-4.959.616-4.861-6.3-6.958-8.509-11.331a14.949,14.949,0,0,1-1.088-5.658c-1.345-17.1-10.254-32.514-17.758-47.943a5.971,5.971,0,0,1-.867-3.574c.227-1.224,1.636-2.284,2.73-1.681a6.2,6.2,0,0,0,3.824,7.273c1.3-4.976,2.012-11.514-2.445-14.072a11.163,11.163,0,0,0-5.084-1.111,98.059,98.059,0,0,0-20.6,1.152,5.039,5.039,0,0,1-3.368-.217,7.948,7.948,0,0,1-1.944-2.331c-1.67-2.235-6.121-3.448-8.486-1.5-2.622,2.165-.62,6.873-5.643,7.53-2.849.37-5.579-1.094-8.076-2.513-2.673-1.517-5.4-3.085-7.351-5.454a10.124,10.124,0,0,0-2.222-2.384c-1.778-1.118-4.064-.512-6.162-.535s-4.655-1.545-4.092-3.563a6.4,6.4,0,0,1,.992-1.674c2.639-4.047-.854-9.81-5.454-11.273s-9.576-.006-14.186,1.447q-10.361,3.276-20.732,6.544c-2.611.826-5.348,1.657-8.042,1.169-2.309-.423-4.732-1.791-6.839-.765-2.862,1.392-2.4,5.654-4.126,8.327-1.653,2.554-5.176,3.374-6.88,5.9-1.972,2.924-.8,6.827-1,10.349-.406,6.788-5.985,11.941-10.891,16.653s-9.888,10.846-8.628,17.531c.387,2.052,1.355,3.99,1.5,6.07a15.539,15.539,0,0,1-.8,5.095q-2.151,7.891-4.313,15.782a245.542,245.542,0,0,0,15.98,24.672c2.868,3.892,5.911,7.761,9.884,10.515s9.032,4.3,13.706,3.055c2.091-.559,4.048-1.647,6.2-1.87,3-.314,5.955,1.1,8.964.969,3.516-.149,6.572-2.343,9.4-4.441s5.9-4.268,9.416-4.37,7.311,2.951,6.565,6.389a6.55,6.55,0,0,0-.423,2.263c.229,1.636,2.348,2.2,3.98,1.978s3.378-.827,4.861-.1c2.016.992,2.246,3.837,1.579,5.985-.907,2.913-2.856,5.369-4.149,8.127s-1.829,6.263.011,8.692c.952,1.26,2.4,2.033,3.58,3.083a16.662,16.662,0,0,1,4.092,6.64,58.841,58.841,0,0,1,2.724,33.123c-1.009,4.857-4.1,8.817-5.072,13.3-1.094,5.061,2.941,10.715,5.305,14.834A47.578,47.578,0,0,1,316.1,361c.176,2.877.125,5.892,1.441,8.458.992,1.921,2.656,3.391,4.03,5.061,5.254,6.41,5.915,15.308,6.348,23.588,1.1,1.477,3.391,1.46,5.061.678s3.015-2.137,4.64-3.008c4.073-2.188,9.055-1.05,13.649-1.568a19.121,19.121,0,0,0,16.22-15.268c.382-2.176.387-4.462,1.328-6.457,1.409-3.009,4.793-5.05,5.25-8.344.176-1.3-.149-2.662.136-3.95.9-4.064,7.118-5.341,7.655-9.472.261-1.984-.954-3.814-1.723-5.66a13.789,13.789,0,0,1,4.424-15.924c1.789-1.315,3.882-2.171,5.7-3.436,8.788-6.1,8.594-19.326,4.891-29.363-1.449-3.916-3.306-7.87-3.038-12.036a19.735,19.735,0,0,1,2.558-7.787,51.924,51.924,0,0,1,13.035-15.963c3.489-2.849,7.494-5.414,9.484-9.455,1.22-2.469,1.562-5.278,2.514-7.859,1.732-4.708,5.356-8.414,8.184-12.55s4.919-9.438,3.07-14.1M379.712,318.5c-.24,1.721-2.178,3.334-3.665,2.439a67.976,67.976,0,0,0-2.029-13.628q-.708-3.232-1.419-6.457a3.633,3.633,0,0,0-1.419-2.6c-.644-.346-1.464-.291-2.05-.718-.884-.644-.822-2.029-1.557-2.843-.956-1.06-2.751-.684-3.967-1.443s-1.487-2.348-1.653-3.761l-1.829-15.576a2.772,2.772,0,0,1,.189-1.774,3.116,3.116,0,0,1,1.693-1.037,11.615,11.615,0,0,0,6.281-5.756,20.164,20.164,0,0,1,1.63-3.323c2.649-3.591,6.2-2.52,6.5,1,.423,4.9-1.521,4.275-4.262,6-2.1,1.317-5.722,3.533-7.171,5.728-2.182,3.31-.244,4.241,1.26,7.46,1.392,2.987.064,7.005,2.252,9.472,1.413,1.6,3.79,1.887,5.6,3.032,2.821,1.791,3.865,5.409,4.052,8.739s-.244,6.735.593,9.967c.434,1.687,1.215,3.363.975,5.084" transform="translate(177.063 1180.898)" fill="#eceef1"/>
    <path id="패스_931" data-name="패스 931" d="M306.639,220.679c-1.791,3.278,1.87,7.079,1.574,10.8-.306,3.816-4.579,6.212-5.452,9.939a10.391,10.391,0,0,0,.259,4.676,38.915,38.915,0,0,0,3.049,8.509,8.106,8.106,0,0,0,1.619,2.407c2.188,2.048,5.972,1.36,8.1-.752s2.947-5.2,3.393-8.161.622-6.026,1.8-8.783c1.719-4.007,5.528-7.392,5.312-11.749-.108-2.176-1.247-4.156-1.749-6.274s-.079-4.815,1.908-5.707q.325,2.084.646,4.173c5.645-1.766-1.277-20.418-7.407-10.978-2.5,3.841-.025,6.431-4.982,8.418-2.671,1.071-6.461.531-8.074,3.478" transform="translate(277.492 1285.825)" fill="#eceef1"/>
    <path id="패스_932" data-name="패스 932" d="M765.834,101.034a3.291,3.291,0,0,0-1.154-1.581,54.2,54.2,0,0,0-11.259-7.972c2.564-.223,5.222-.465,7.5-1.691,2.288-1.207,4.128-3.661,3.793-6.225-.574-4.385-6.782-6.931-6.149-11.3.3-1.97,2.006-3.958,1.075-5.724-.65-1.207-2.21-1.523-3.584-1.708q-10.759-1.45-21.538-2.881c.312,2.732-.448,5.779-2.658,7.434-2.233,1.634-5.987,1.1-7.043-1.451a9.644,9.644,0,0,0-1-2.694c-1.281-1.636-3.865-.688-5.834.074a18.448,18.448,0,0,1-13.268-.019,3.431,3.431,0,0,1-2.044-1.6c-.5-1.207.336-2.526.41-3.829.11-2.229-2.195-3.958-4.424-4.162-2.212-.185-4.366.708-6.5,1.394-6.189,2.008-13.53,2.267-18.623-1.783-1.5-1.19-2.749-2.713-4.368-3.737-2.282-1.449-5.091-1.746-7.785-2.025q-10.4-1.058-20.775-2.118a2.928,2.928,0,0,0-1.991.278c-.89.65-.742,2.008-1.039,3.066-.557,2.063-2.9,3.142-5.016,3.289-2.137.151-4.294-.353-6.412-.11-1.581.168-3.121.763-4.7.669s-3.325-1.209-3.287-2.788a7.325,7.325,0,0,0-3.383,5.873c-4.031.446-9.1-2.435-8.231-6.412a22.524,22.524,0,0,0,.926-2.972c.54-6.467-15.442-7.9-19.045-5.11-.986.761-1.746,1.783-2.679,2.6-3.92,3.421-10.944,2.063-13.324-2.584a67.2,67.2,0,0,0-17.057.074c-2.305-3.9-8.288-2.063-12.117.372s-9.4,4.831-12.323,1.358a67.2,67.2,0,0,0,26.613-12.712c.78-.612,1.636-1.449,1.447-2.452A2.67,2.67,0,0,0,557.7,28.3a20.909,20.909,0,0,0-12.355-3.7c-3.2.074-6.988.65-9.013-1.8-1.264-1.5-1.394-3.829-2.938-5.074-1.466-1.188-3.569-.909-5.424-.593-4.109.742-8.233,1.485-12.342,2.229a3.21,3.21,0,0,0-1.785.725,3.946,3.946,0,0,0-.591,2.473c-.355,5.424-7.177,9.253-12.006,6.727-1.506-.8-2.79-2.063-4.421-2.564-2.063-.614-4.275.091-6.3.8q-12.8,4.433-25.553,8.864a9.853,9.853,0,0,0,7.953,1.356c.8,1.432-1.283,2.7-2.879,3.03q-9.755,2.036-19.5,4.052c3.718,2.824,7.324,5.817,10.781,8.958,1.672-1.171,3.251,1.876,2.618,3.827-.612,1.953-1.785,4.368-.3,5.762a8.244,8.244,0,0,1-4.666-4.033c1.043-.763,2.046-1.542,3.085-2.322a4.888,4.888,0,0,1-5.443-3.234A26.879,26.879,0,0,1,445.2,48.591a3.269,3.269,0,0,0,1.859,4.181c-1.528.206-3.066.391-4.593.576a6,6,0,0,0,5.055,4.591,10.561,10.561,0,0,1-8.938-1.878c2.269-3.419-1.056-8.845-5.146-8.363,2.344.317,2.73,3.68,1.71,5.8-1.043,2.137-2.864,4.052-2.824,6.412.034,2.9,2.73,6.374.48,8.214,2.734,2.286,7.823-1.878,10.111.835a8.036,8.036,0,0,1,1.079,3.085,6.985,6.985,0,0,0,7.636,4.831c-1.876,2.975-6.336.038-8.38-2.824s-6.6-5.7-8.363-2.677a6.579,6.579,0,0,0-.465,3.346c-.111,8.269-9.814,14.828-17.526,11.836,2.938-3.623,9.833-2.193,12.079-6.261.914-1.672.669-3.716.393-5.594-.914-6.132-1.8-12.266-2.713-18.4a36.974,36.974,0,0,0,.614-8.586c-3.234,1.135-8.439.986-8.329-2.435q-4.124,6.83-8.248,13.64c-1.672,2.732-2.936,7.043-.076,8.475,1.914-.782,4.145.835,4.685,2.843.557,1.989-.149,4.107-1.06,5.966-4.124-11.412-24.995-6.153-30.423-17-2.49.965-.221,4.793,2.288,5.7,2.528.909,5.983,2.526,5.055,5.035-.705,1.97-3.421,1.97-5.5,1.821A31.308,31.308,0,0,0,368.208,75.7c-.465-2.118-.95-4.217-1.411-6.317q-6.578,4.653-13.177,9.327c-2.135,1.506-4.4,3.066-7.005,3.346-2.6.259-5.6-1.3-5.928-3.884-.336-2.6,3.436-4.87,5.11-2.862.724-4.757-5.779-8.734-9.684-5.911a14.884,14.884,0,0,1,.151,14.588c-.93,1.655-2.36,3.215-4.22,3.512-1.878.28-4.031-1.336-3.644-3.2a10.719,10.719,0,0,0-3.546,8.473,9.978,9.978,0,0,1-10.872-3.548c.3,1.84.595,3.661.89,5.5-2.786,2.992-8.883.835-9.159-3.253-.074-1.207.24-2.4.24-3.606,0-4.124-3.644-7.19-6.95-9.663,4.944,1.878,9.924,3.754,14.868,5.63,2.788,1.06,5.76,2.137,8.675,1.581,4.277-.818,7.026-6.561,3.234-9.533a68.011,68.011,0,0,0-23.006-11.745c-2.4-.686-4.961-1.245-7.319-.482-1.936.612-4.515,1.84-5.556.11a6.139,6.139,0,0,0,5.331-1.933,73.818,73.818,0,0,0-12.247-1.672c-4.755,4.22-7.991,10.2-6.614,16.224,2.118,9.272,14.161,17.042,9.756,25.46,4.143-.931,8.473-1.84,12.582-.8a11.119,11.119,0,0,1,5.8,3.586.736.736,0,0,1,.017-.28,6.618,6.618,0,0,1,3.81-.482c1.245.336,2.265,1.8,1.634,2.955-.425.8-1.54,1.468-1.15,2.286.259.521.945.593,1.485.761a2.89,2.89,0,0,1,1.674,3.865q-3.292-.194-6.582-.334c-.741,1.6-1.746,3.121-2.452,4.721-2.953,6.669-.8,14.327-.555,21.612a21.82,21.82,0,0,1-2.6,11.131c.446-.094.894-.187,1.341-.261,8.267-1.411,17.707.688,22.781,7.379,5.055,6.688,3.365,18.193-4.4,21.334-2.953,1.188-6.393,1.152-9.087,2.843a5.523,5.523,0,0,0-2.286,3.1c5.018-2.845,10.183-5.575,15.852-6.635a9.988,9.988,0,0,1-6.561,5.426c.948.614.633,2.212-.312,2.824a4.458,4.458,0,0,1-3.293.28,7.686,7.686,0,0,0-3.363-.242,3.41,3.41,0,0,0-2.377,3.2,2.819,2.819,0,0,0,.151.892,8.479,8.479,0,0,1,10.424-.13c1.134.911,2.025,2.1,3.234,2.917,1.336.892,3.085,1.3,4.1,2.564,1.005,1.283.3,3.848-1.279,3.512-.057.8.78,1.375,1.56,1.525a8.836,8.836,0,0,1,2.343.444c1.632.856,1.336,3.5-.1,4.647s-3.419,1.245-5.259,1.264c-4.829.074-9.829.11-14.252-1.859-2.08-.911-3.958-2.267-6.115-3.03-2.135-.761-4.738-.835-6.487.633-.816.686-1.356,1.653-2.135,2.4a5.588,5.588,0,0,1-9.368-5.184,25.856,25.856,0,0,0-4.942,6.911c1.06,3.011,2.12,6.06,3.176,9.07.355.984.688,1.95,1.043,2.917,1.02,2.955,2.692,6.41,5.8,6.616,3.939.259,7.878-5.093,11-.261a5.793,5.793,0,0,1,.78,3.159c-.019,2.193,2.992,4.944,4.611,3.234a8.23,8.23,0,0,1,.37-4.7c.725-1.411,2.715-2.286,3.979-1.3a3.849,3.849,0,0,1,1.075,2.936,27.151,27.151,0,0,1-.2,4.738c-.484,3.735-1.97,7.619-5.129,9.627-2.473,1.562-6,2.675-4,5.983.465.725,2.343-.11,2.862.595,1.173,1.636.357,3.363.523,5.3.314,4.107,4.98,6.17,7.528,9.4,3.529,4.46,2.785,10.853,4.534,16.277,3.546,11.095,17.522,18.213,16.74,29.828-.312,4.515-2.526,10.183,1.192,12.784,2.49,1.729,5.89.5,8.641-.78q7.722-3.569,15.48-7.173c2.1-.967,4.33-2.063,5.405-4.126.559-1.077.746-2.341,1.525-3.27,1.154-1.358,3.142-1.543,4.829-2.1,3.81-1.281,6.357-4.868,8.271-8.418a58.112,58.112,0,0,0,4.834-12.153,6.938,6.938,0,0,0,.3-3.421c-1-4.1-8.193-4.5-8.565-8.715-.149-1.763,1.077-3.325,1.653-5s-.057-4.145-1.821-4.126c-1.06,3.121-2.214,6.374-4.574,8.66-2.375,2.3-6.393,3.27-8.994,1.245-1.933-1.487-2.564-4.071-3.884-6.115-2.008-3.159-5.649-5.074-7.394-8.38s.816-8.883,4.271-7.453a24.61,24.61,0,0,0,11.673,14.924,48.388,48.388,0,0,0,10.052-4.757c1.581-1.264,3.661,1.1,3.829,3.1.17,2.027-.149,4.479,1.489,5.649a4.968,4.968,0,0,0,2.991.65,110.023,110.023,0,0,0,25.271-2.936c-1.689,4.944,2.864,10.891,8.086,10.519a5.194,5.194,0,0,1-4.778,3.548c1.024,1.989,2.1,4.071,3.92,5.409,1.821,1.319,4.594,1.617,6.189.036,1.506-1.468,1.71-4.2,3.663-5.016,2.267-.95,4.515,1.9,4.33,4.347s-1.729,4.553-2.545,6.875c-1.657,4.74-.113,9.943,1.411,14.72,2.955,9.217,6.019,18.676,12.062,26.257,2.171-2.044,4.349-4.069,6.521-6.113,2.938.5,3.032,4.719,2.1,7.526-.945,2.843-1.819,6.652.727,8.195,2.284,1.375,5.352-.835,5.853-3.438.5-2.62-.686-5.2-1.838-7.6q-2.26-4.6-4.479-9.236a6.688,6.688,0,0,1-.969-3.382,8.5,8.5,0,0,1,1-2.862,16.527,16.527,0,0,0,1.171-9.644,43.32,43.32,0,0,0,18.748-18.584,8.906,8.906,0,0,1,2.327-3.251c3.27-2.38,8.771.965,11.666-1.878a17.3,17.3,0,0,1,9.351,8.456c1.392,2.824,2.692,6.578,5.834,6.82a12.783,12.783,0,0,0-7.71,12.4c4.846,1.226,10.2-3.363,9.716-8.327,1.9-1.077,4.4.242,5.409,2.176s.89,4.237.763,6.391q-.561,9.842-1.134,19.642c-.111,1.953-.185,4.052.892,5.669,1.02,1.523,2.953,2.38,3.659,4.088,1.062,2.509-1.056,5.669.319,8.029.744,1.245,2.21,1.8,3.344,2.675,2.416,1.859,3.232,5.112,4.98,7.619s5.779,4.145,7.674,1.746a18.222,18.222,0,0,1-6.875-13.23,9.314,9.314,0,0,0-.5-3.457c-.595-1.339-1.876-2.212-2.953-3.2-6.317-5.779-5.537-15.759-4.256-24.234a19.728,19.728,0,0,0,12.767,8.214,7.77,7.77,0,0,0,3.068,9.812,8.272,8.272,0,0,1,5.926-7.247,31.208,31.208,0,0,0,4.2-.984c3.958-1.71,4.387-7.062,4.179-11.354a9.633,9.633,0,0,0-1.075-4.87c-1.526-2.322-4.611-2.862-7.024-4.237a10.593,10.593,0,0,1,7.283-19.606c1.615.708.89,3.272-.521,4.33s-3.344,1.691-3.995,3.346c-.928,2.267,1.821,4.793,4.22,4.273,2.395-.5,3.939-3.047,4.1-5.5.147-2.452-.742-4.831-1.636-7.135a15.4,15.4,0,0,0,14.4-4.591,14.893,14.893,0,0,1,3.179-3.121c2.509-1.468,6.1-.669,8.159-2.732,1.577-1.579,1.466-4.107,1.951-6.28.907-4.052,4.03-7.154,5.89-10.853,1.823-3.7,3.644-9.385,2.656-13.472-.705-2.975-2.246-5.669-3.306-8.531a28.017,28.017,0,0,1-1.56-6.28,4.422,4.422,0,0,1,.223-2.62c.722-1.394,2.509-1.729,3.846-2.547a5.634,5.634,0,0,0,2.435-6.057,16.589,16.589,0,0,1-16.243-3.531c1.226-2.377,3.96-3.493,6.317-4.757,2.382-1.245,4.853-3.289,4.742-5.983,1.5,0,2.989,0,4.479-.019a7.847,7.847,0,0,1-2.974,6.429c2.042,1.766,5.11.094,7.528-1.171,2.4-1.264,6.41-1.264,6.705,1.432.28,2.584-3.64,4.33-3.1,6.875,2.751-.929,5.688,2.732,4.2,5.222-.408.669-1.058,1.319-.948,2.1.13.948,1.245,1.319,2.082,1.785a5.238,5.238,0,0,1,2.133,6.763c1.619-1.262,3.234-2.507,4.853-3.771a2.951,2.951,0,0,0,5.743-1.358c-.319-1.468-1.674-2.49-2.118-3.9-.669-2.137.854-4.517.11-6.635-.576-1.653-2.341-2.526-3.771-3.567s-2.713-2.917-1.859-4.46c.521-.948,1.636-1.339,2.545-1.9,4.553-2.826,5.52-10.872,10.872-11.059a30.561,30.561,0,0,0,3.2.149c3.049-.427,4.1-4.124,5.539-6.856,3.159-6.077,10.517-9.032,13.842-15.034,2.545-4.608,2.25-10.239,3.754-15.312,1.1-3.68,3.176-7.509,1.9-11.131-1.6-4.517-8.9-5.407-11.539-1.394.429-2.267.856-4.534,1.3-6.82-1.6,5.148-12.208.5-2.972-4.534a54.6,54.6,0,0,0,16.13-13.362,24.852,24.852,0,0,1,4.906-5.165c7.266-4.908,17.265,1.169,25.774-.967.3.835.578,1.672.875,2.507-2.286.95-4.555,1.914-6.82,2.862,4.791,2.25,9.958-3.083,15.257-2.862,1.54.057,3.771.074,3.865-1.449-1.434-.223-3.272-1-3.011-2.416a2.6,2.6,0,0,1,.833-1.3c1.379-1.468,2.773-2.917,4.166-4.385,2.322-2.454,6.076-5.055,8.734-2.936,2.006,1.617,1.075,5.5-1.453,6.038,1.657,1.655,4.46.149,6.117-1.523,1.651-1.653,3.79-3.661,5.981-2.8a4.618,4.618,0,0,0,.038-3.96,7.584,7.584,0,0,1,5.855-.612,6.537,6.537,0,0,0-2.212,3.939,21.6,21.6,0,0,1-.393,2.936c-1.056,3.531-5.779,3.939-9.1,5.556-5.87,2.843-7.914,10.37-13.192,14.18a23.286,23.286,0,0,0-3.85,2.843c-2.32,2.564-2.025,6.559-.946,9.85,1.115,3.289,2.881,6.448,3.085,9.905a13.285,13.285,0,0,1-.038,1.931,2.457,2.457,0,0,0,4.2,1.953c.393-.41.78-.8,1.173-1.19,1.876-1.933,3.827-3.922,4.776-6.448.65-1.785.948-3.958,2.6-4.889,1.209-.686,2.713-.389,4.088-.631,1.375-.223,2.845-1.617,2.157-2.843a4.161,4.161,0,0,1,.633-6.8c1.039.482,2.08.984,3.119,1.485,2.471-1.132-1.264-5.184.1-7.545.521-.909,1.763-1.468,1.725-2.509-.036-1.3-1.876-1.523-3.159-1.319a8.779,8.779,0,0,1,6.227-9.886c-.074.873-.149,1.766-.223,2.639,2.063-1.3,4.124-2.6,6.189-3.92.372,1,.725,2.008,1.077,3.03,2.473,1.281,4.4-4.349,6.969-3.308a6.5,6.5,0,0,1,1.392,1.115,3.705,3.705,0,0,0,5.652-1.972c1.912-8.809,12.618-9.217,21.593-9.96,2.08-.166,4.963-1.077,4.479-3.121M369.566,208.576a6.9,6.9,0,0,1-5.688,1.411c-.484.41-.13,1.245.41,1.581a8.841,8.841,0,0,1,1.67.873c.839.8.5,2.174.631,3.308.244,1.857,1.823,3.27,2.252,5.074.761,3.251-2.754,6.242-6.1,6.261-6.988.055-11.892-5.611-13.693-11.707-1.043-3.476-3.03-12.935,2.32-13.472-1.615-2.118.074-4.462-.926-6.729-.559-1.226-1.933-1.821-2.864-2.8-1.859-1.97-1.579-5.3,0-7.509s4.109-3.512,6.635-4.5c2.473-.967,5.259-1.71,7.693-.708,2.454,1,3.92,4.479,2.1,6.393-1.97,2.063-6,.873-7.8,3.1-1.135,1.377-.744,3.55.391,4.925a10.783,10.783,0,0,0,4.515,2.788,3.719,3.719,0,0,1,2.3,1.71c.576,1.356-.595,2.732-1.339,3.994-.725,1.283-.576,3.512.894,3.512,1.43-.017,1.651-2.044,2.45-3.232,1.115-1.674,4-1.413,5.114.278a4.411,4.411,0,0,1-.967,5.445m174.441-64.987a11.98,11.98,0,0,0-.914,1.9c-.221.744-.221,1.542-.406,2.286-.557,2.231-2.62,3.68-4.479,5.035a11.01,11.01,0,0,0-3.365,3.365c-.314.576-.538,1.207-.89,1.783-1.842,3.1-7.358,3.735-3.884-.595a77.3,77.3,0,0,1,7.989-8.994,11.651,11.651,0,0,0,2.641-2.509c1-1.708.444-3.846.518-5.815.057-1.97,1.564-4.33,3.459-3.773a10.107,10.107,0,0,1-.669,7.322m-237.624-34.3a3.514,3.514,0,0,1,0,.633,8.766,8.766,0,0,1-.465,2.193,6.2,6.2,0,0,0,.8,0,3.036,3.036,0,0,0-.331-2.826M291.869,156.43c3.531-.259,6.17-2.49,7.914-5.556-3.344.8-6.633,2.435-7.914,5.556" transform="translate(247.645 1072.957)" fill="#eceef1"/>
    <path id="패스_933" data-name="패스 933" d="M376.622,156.443c-2.955,1.19-6.393,1.152-9.087,2.843a5.53,5.53,0,0,0-2.286,3.1c-.446.242-.892.5-1.339.744-7.842,4.46-4.906-5.352-12.246-5.3-7.154.055-5.091,12.043-8.286,10.982-.818,1.821.521,4-.057,5.911a14.528,14.528,0,0,1-.909,1.876,4.691,4.691,0,0,0-.391,1.226,25.9,25.9,0,0,0-4.942,6.914c-.094-.278-.187-.54-.281-.818-1.746-1.727-4.942.111-5.5,2.49s.484,4.812,1.19,7.154.948,5.2-.8,6.933c-.911.909-2.4,1.543-1.077,3.623a2.241,2.241,0,0,0,2.286.931c1.9-.28,3.512,3.234,1.653,3.344-3.419.41-5.928-3.179-7.005-6.467-1.06-3.27-1.8-7.079-4.683-8.975-1.413-.931-3.327-1.375-4.016-2.917-1.152-2.584,2.193-5.613.967-8.159-1.207-2.49-5.259-1.581-7.36-3.419-1.763-1.581-1.523-4.611-3.232-6.225a9.018,9.018,0,0,0-3.2-1.581A14.232,14.232,0,0,1,298.107,163c-2.025.37-1.727,3.38-.761,5.2a38.88,38.88,0,0,0,16.668,16.262c-2.286,1.152-3.419,3.752-4.347,6.151q-2.148,5.351-4.256,10.74c-2.156-.259-4.4-.576-6.134-1.876s-2.658-3.958-1.375-5.688a5.21,5.21,0,1,0,4.256-8.9c1.375-3.9-3.011-7.322-6.875-8.79s-8.6-3.327-9.07-7.434c-1.763-1.579-4.608-.78-6.523.595-1.912,1.394-3.512,3.308-5.76,4.071-2.229.761-5.407-.521-5.278-2.881-1.152,1-2.3,1.989-3.457,2.992,2.62.744,1.135,4.942-1.281,6.187-2.416,1.228-5.7,2.008-6.3,4.666a16.279,16.279,0,0,0,.055,3.289,11.152,11.152,0,0,1-1.562,4.757c-1.9,3.7-4.33,7.823-8.418,8.586-2.4.446-6.057.705-5.724,3.1a15.988,15.988,0,0,0-12.822-3.68c.278-2.118.557-4.237.818-6.338-1.562-.24-3.14-.463-4.7-.686a14.631,14.631,0,0,0,2.322-11.8c-.538-2.25-1.188-5.409.986-6.208a8.321,8.321,0,0,1-2.454-3.958,14.618,14.618,0,0,1,10.426-.444c1.468.482,2.862,1.207,4.349,1.653,4.2,1.264,9.255-.149,11.671-3.79,2.416-3.661,1.411-9.349-2.435-11.448-2.025-1.1-4.479-1.19-6.467-2.38-1.95-1.188-2.972-4.46-1-5.63a5.835,5.835,0,0,0,7.787,1.617,10.93,10.93,0,0,1-1.432-6.559,2.979,2.979,0,0,1,3.9,2.917,7.782,7.782,0,0,0,7.341-5.148,9.165,9.165,0,0,1,1.245-3.047c.965-1.135,2.639-1.3,4.033-1.823a7.524,7.524,0,0,0,4.366-9.013,30.254,30.254,0,0,1,14.329-2.713c-1.729-3.2-3.512-6.6-3.346-10.239.168-3.623,3.123-7.377,6.727-7.043a12.439,12.439,0,0,1-.074,6.5c1.06.242,2.1.465,3.159.708-2.284,1.9-4.608,5.556-2.229,7.341,1.9,1.411,4.608-.41,6.931.074,1.06.223,1.97.928,3.011,1.171,4.7,1.171,9.255-6.561,13.232-3.793,1.336.931,1.876,2.826,4.162,2.547a4.032,4.032,0,0,0,2.972-2.082c1.319-2.286.892-4.925,1.154-7.451.223-2.193,1.281-4.628,3.419-5.2,2.341-.633,4.589,1.3,7.005,1.559,4.071.465,7.266-5.129,4.8-8.4a16,16,0,0,1-10.927,3.215c-1.152-2.006,1.245-4.181,3.344-5.129a39.962,39.962,0,0,1,23.212-2.788c1.394-1.3-.614-3.344-2.324-4.162-1.708-.8-3.6-2.992-2.135-4.181-5.131-2.063-9.627,5.129-15.164,5.39-5.669.278-8.958-7.3-6.858-12.582,2.118-5.259,7.377-8.473,12.3-11.3-3.251-5.11-11.762-5.518-15.48-.744a12.263,12.263,0,0,1-4.088,10.555C313.959,82.165,308.96,84.58,310,88.5c.911,3.438,6.393,5.093,5.649,8.586-.669,3.215-5.928,3.251-7.173,6.281-.892,2.212.835,4.925-.223,7.062-1.079,2.154-4.145,2.229-6.077,3.68-1.319.984-2.063,2.545-3.272,3.661-1.226,1.1-3.438,1.523-4.33.13-.873-1.375.28-3.066.911-4.572,1.933-4.441-.854-9.385-3.55-13.417-5.463-.446-8.288,9.886-13.36,7.787-1.432-.595-2.267-2.044-2.994-3.419-2.006-3.718-4.03-7.509-4.793-11.671-.744-4.162-.019-8.809,2.9-11.856,3.884-4.052,10.407-4.294,14.72-7.861,4.831-4,6-11.409,11.186-14.924,3.1-2.1,7.861-3.232,8.233-6.967l-10.258.835a7.293,7.293,0,0,1,8.343-3.363c-1.283-2.749,1.9-5.7,4.925-6.132,3.028-.41,6.206.463,9.123-.41,2.38-.725,4.275-2.49,6.561-3.474a18.08,18.08,0,0,1,6.317-1.171c2.416-.113,4.851-.113,7.266,0-4.757,4.217-7.991,10.2-6.616,16.222,2.12,9.274,14.161,17.042,9.756,25.46,4.145-.928,8.475-1.84,12.582-.8a11.115,11.115,0,0,1,5.8,3.586c-.206,1.617,1.113,3.14,1.876,4.647a3.474,3.474,0,0,1,0,.631,8.634,8.634,0,0,1-.465,2.193c-3.567-.13-11.949-1.859-7.934,4,1.783-2.12,2.62-.763,4.683-.986.854-.093,1.653-.986,1.336-1.785.465.019.931.038,1.394.074-.741,1.6-1.746,3.123-2.452,4.721-2.955,6.671-.8,14.327-.557,21.612a21.818,21.818,0,0,1-2.6,11.131c.446-.093.892-.185,1.339-.259,8.269-1.413,17.709.686,22.783,7.377,5.055,6.691,3.363,18.193-4.4,21.334" transform="translate(190.523 1095.841)" fill="#eceef1"/>
    <path id="패스_934" data-name="패스 934" d="M224.875,95.618c-.013,2.061,1.972,3.922,1.424,5.907-.544,1.959-3.319,2.849-3.438,4.88-.134,2.269,3.026,3.089,5.252,2.635a16.419,16.419,0,0,0,10.22-6.824c1.149-1.7,1.6-4.628-.34-5.305q3.984-1.4,7.97-2.8c2.086,1.778,4.332,4.776,2.609,6.907-1.109,1.379-3.722,2.333-2.934,3.916.321.646,1.175.969,1.324,1.676.159.746-.55,1.356-1.135,1.844a11.12,11.12,0,0,0-3.905,8.69,19.8,19.8,0,0,1,14.11-5.171c1.2.051,2.547.172,3.465-.6s.514-2.777-.674-2.584l4.315-3.1a2.257,2.257,0,0,0,.822-.852c.372-.858-.465-1.8-1.353-2.1a24.7,24.7,0,0,1-2.724-.657c-1.876-.877-2.193-3.334-2.839-5.3s-2.953-3.962-4.543-2.632c.4-1.891.786-3.92.043-5.7s-3.127-2.994-4.681-1.846c-.9-1.332,1.183-2.564,2.278-3.744a3.551,3.551,0,0,0-.074-4.749,3.434,3.434,0,0,0-4.715.028c.166-3.642.939-8.123,4.411-9.232.954-.306,1.991-.287,2.938-.612s1.855-1.192,1.7-2.182c.166,1.158,2.038,1.22,2.732.278a4.542,4.542,0,0,0,.372-3.4c-2.7-.773-3.873,3.782-6.55,4.64-1.232.4-2.641-.074-3.833.427-2.83,1.183-2.069,6.446-5.023,7.264a16.016,16.016,0,0,0-2.137.348c-1.345.578-1.494,2.437-1.166,3.865s.905,2.966.287,4.292c-.34.727-1.037,1.453-.754,2.208.37.994,1.834.725,2.834,1.079,2.522.892,1.145,3.858-.161,5.027-1.636,1.462-4.394,1.079-6.321.812-2.894-.4-9.767-2.934-9.8,2.669" transform="translate(187.818 1124.739)" fill="#eceef1"/>
    <path id="패스_935" data-name="패스 935" d="M256.119,110.443l-1.028-.854a2.651,2.651,0,0,0,1.84-2.458,5.108,5.108,0,0,0-1.022-3.066c-.737-1.092-2.012-2.116-3.259-1.687-1.583.544-1.608,2.792-1.077,4.379s1.279,3.442.317,4.81a1.821,1.821,0,0,1,1.676.482c-2.3,1.479-2.845,6.179.559,6.455s4.062-4.088.629-4.88c.066-.215,1.4-3.151,1.366-3.181" transform="translate(219.764 1169.026)" fill="#eceef1"/>
    <path id="패스_936" data-name="패스 936" d="M437.942,155.451c.189-1.834.38-3.969,1.929-4.97a6.244,6.244,0,0,0,2.6,3.062,7.119,7.119,0,0,0,2.248-2.832,4.229,4.229,0,0,1,2.664-2.335c1.2-.2,2.56,1.147,1.925,2.191,3.147,1.243,5.237-3.342,8.157-5.05,1.54-.9,3.41-.969,5.139-1.411s3.555-1.545,3.8-3.312a18.406,18.406,0,0,0-.329-3.1c-.072-2.227,1.632-4.043,2.728-5.981a12,12,0,0,0,.227-11.186c-.963-1.874-2.439-3.525-2.915-5.575s.714-4.729,2.819-4.7c.584,1.791,1.364,3.8,3.125,4.468s4.116-1.568,2.843-2.955a17.015,17.015,0,0,1,6.1-.531,3.376,3.376,0,0,0-.461-4.207,36.683,36.683,0,0,0,16.273-12.045q-8.828,5.482-17.654,10.967a2.723,2.723,0,0,1-2.292.589c-.7-.266-1.037-1.033-1.387-1.691a9.386,9.386,0,0,0-8.284-4.863q.411,4.22.82,8.439c-2.006-.365-3.822,1.519-4.285,3.5s0,4.05.168,6.079a21.313,21.313,0,0,1-8.592,18.667q-.035-1.727-.07-3.459c-3.068.448-1.664,6.172-4.424,7.581a7.172,7.172,0,0,1-2.567.412c-4.324.455-4.256,4.9-8.932,3.13-.463,5.677-7.679,4.676-7.158,10.392.44,4.829,4.989,8.513,5.788.725" transform="translate(423.176 1160.82)" fill="#eceef1"/>
    <path id="패스_937" data-name="패스 937" d="M455.554,83.776a3.783,3.783,0,0,1,.085,1.245c-.123.792-.733,1.424-.956,2.195-.389,1.339.476,2.722,1.483,3.688a12.925,12.925,0,0,1,2.866,3.015c1.075,2.069.31,4.9,1.853,6.652-.482,1.192-2.286.831-3.329.083s-2.333-1.723-3.461-1.111c-1.328,1.916-.591,4.553.459,6.633s2.409,4.2,2.2,6.527c-.1,1.092-.926,2.354-2,2.1a2.386,2.386,0,0,1-1.037-.695c-1.436-1.385-2.953-2.926-3.223-4.9a11.3,11.3,0,0,1,.669-4.275,22.1,22.1,0,0,0,.421-8.909,19.712,19.712,0,0,1-.465-3.818c.087-2.38,1.341-5.025-.047-6.963-.433-.6-1.128-1.277-.805-1.946.593-1.215,3.227-3.5,4.16-4.455a27.14,27.14,0,0,1,1.122,4.936" transform="translate(443.49 1142.667)" fill="#eceef1"/>
    <path id="패스_938" data-name="패스 938" d="M383.33,179.754c1.944,1.432,4.366,2.458,5.5,4.589.877,1.644.877,3.786,2.229,5.069.724.686,1.734,1.009,2.467,1.685,1.719,1.583,1.339,4.362,2.165,6.546,1.175,3.1,4.783,4.933,5.467,8.174a14.962,14.962,0,0,0,.58,3.327c.918,1.955,3.552,2.367,5.025,3.948a25.669,25.669,0,0,1,1.749,2.662,6.445,6.445,0,0,0,8.044,1.821,9.315,9.315,0,0,1-1.5-4.851,18.229,18.229,0,0,0-.074-3.03c-.467-2.4-2.758-4.088-3.391-6.45,1.073-.788,2.482.37,3.283,1.434s2.146,2.263,3.268,1.543a46.724,46.724,0,0,0-6.941-7.283c.2.969-1.1,1.687-2.033,1.347a4.251,4.251,0,0,1-1.978-2.129,3.742,3.742,0,0,1-.676-2.095c.057-.62.421-1.173.531-1.787a3.6,3.6,0,0,0-1.747-3.28,24.582,24.582,0,0,1-3.219-2.222c-1.834-1.853-2.144-5.067-4.434-6.308-1.094-.593-2.433-.586-3.54-1.154-3.453-1.759-4.113-6.867-8.057-8.441-5.6-2.235-6.78,3.89-2.715,6.886" transform="translate(365.582 1247.876)" fill="#eceef1"/>
    <path id="패스_939" data-name="패스 939" d="M399.791,194.748q-1.23,1.718-2.462,3.438a1.461,1.461,0,0,0-.361.822c.006.852,1.224.977,2.069.86a21.793,21.793,0,0,1,8.023.4c4.419,1.06,8.624,3.518,13.162,3.234a9.7,9.7,0,0,1,2.061-.047,15.971,15.971,0,0,1,2.125.667,6,6,0,0,0,4.942-.731c-1.22-1.179-3.13-1.092-4.823-1.217s-3.7-.9-3.907-2.584a10.557,10.557,0,0,0-.077-1.377,2.4,2.4,0,0,0-2.309-1.477,22.8,22.8,0,0,1-2.928-.021c-1.621-.31-2.864-1.812-4.472-2.035-1.625-.225-2.343,1.011-3.657,1.075-2.713.13-4.853-4.54-7.385-1" transform="translate(383.633 1271.533)" fill="#eceef1"/>
    <path id="패스_940" data-name="패스 940" d="M420,200.422c1.424.032,2.817,1.154,4.154.661a4.064,4.064,0,0,1,1-.382,2.644,2.644,0,0,1,1.256.414c3.907,1.8,8.4-3.348,12.408-1.781-.935,3.8-5.964,5-7.942,8.384a14.89,14.89,0,0,0,8.907-4.819,10.225,10.225,0,0,1,1.982-1.978c.455-.285.967-.476,1.417-.769a3.623,3.623,0,0,0,1.6-3.227,6.648,6.648,0,0,0-3.353.824,9.252,9.252,0,0,1-2.288,1.181c-1.4.323-2.792-.489-4.215-.688-3.006-.427-5.9,2.7-8.637,2.188-1.073-.2-1.634-1.419-3.006-1.766-1.107-.28-2.875.2-4.13.019-1.4-.2-4.29-1.621-5.348-.13-3.119,4.4,5.418,1.853,6.189,1.868" transform="translate(401.807 1275.471)" fill="#eceef1"/>
    <path id="패스_941" data-name="패스 941" d="M416.144,201.145c.6-.674,1.757-.251,2.352.429s.969,1.581,1.736,2.057a2.159,2.159,0,0,0,2.524-.238,1.357,1.357,0,0,0,.44-1.441,1.961,1.961,0,0,0-1.283-.911l-1.5-.527a5.89,5.89,0,0,0-2.7-.493,2.02,2.02,0,0,0-1.838,1.759" transform="translate(404.9 1278.923)" fill="#eceef1"/>
    <path id="패스_942" data-name="패스 942" d="M408.515,208.272c-1.642.174-3.795.319-4.432-1.207-.374-.9.049-1.91.074-2.883.04-1.6-.988-2.987-1.723-4.4a13.166,13.166,0,0,1-1.3-8.133,3.579,3.579,0,0,1,.788-1.933,4.137,4.137,0,0,1,1.115-.752q2.295-1.2,4.587-2.407a64.42,64.42,0,0,0,5.89-3.363,32.239,32.239,0,0,0,11-12.612c.856-.909,2.441-.055,3.013,1.056s.716,2.475,1.6,3.361c1.349,1.36,4.3,1.661,4.077,3.563a3.587,3.587,0,0,1-1.249,1.846,7.918,7.918,0,0,0,3.272,12.977c-2.314.223-5.293,1.124-5.3,3.448,0,1.464,1.3,3.006.493,4.23-.835,1.275-3.07.678-4.058,1.836-.795.933-.3,2.329-.132,3.542a6.117,6.117,0,0,1-4.953,6.629,3.317,3.317,0,0,1-3.408-1.271,20.083,20.083,0,0,1-.667-1.91c-1.111-2.486-2.773-.992-4.409-1.016-1.143-.015-2.749-.759-4.277-.6" transform="translate(388.129 1245.409)" fill="#eceef1"/>
    <path id="패스_943" data-name="패스 943" d="M434.886,180.207l.81-.272a1.73,1.73,0,0,0-1.921.14,9.275,9.275,0,0,0-1.426,1.5,7.862,7.862,0,0,1-6.448,2.543c-1.5-.134-2.994-.7-4.47-.419a5.231,5.231,0,0,0-3.727,3.735c-.27.89-.011,2.246.916,2.174a5.365,5.365,0,0,1,3.555-3.263,10.394,10.394,0,0,1,4.963-.128,12.767,12.767,0,0,0,3.89.425,3.064,3.064,0,0,0,2.781-2.361c.115-.943-.389-1.959.015-2.819.348-.746,1.345-1.413.952-2.14-.423.083.533.8.111.884" transform="translate(406.84 1255.677)" fill="#eceef1"/>
    <path id="패스_944" data-name="패스 944" d="M416.394,195.544c.6,2.688,1.855,5.5.88,8.072a2.208,2.208,0,0,0,2.741-1.553,6.494,6.494,0,0,0-.2-3.508,6.191,6.191,0,0,1-.147-3.5.666.666,0,0,1,.92-.552,4.729,4.729,0,0,1,2.928,3.266,26.853,26.853,0,0,1,.7,4.506,3.42,3.42,0,0,0,1.179,2.5c1.3.869,3.151-.3,3.637-1.78s.1-3.1-.115-4.647c-.291-2.152-.45-4.749-2.356-5.79-.784-.429-1.878-.622-2.131-1.479-.3-1.028.916-1.823,1.944-2.125a17.937,17.937,0,0,1,2.86-.593c1.152-.142,2.649-.47,2.764-1.625.121-1.2-1.4-1.8-2.588-2a14.684,14.684,0,0,0-4.334-.3,4.971,4.971,0,0,0-3.652,2.11,1.486,1.486,0,0,1-.6.68.968.968,0,0,1-1.084-.5c-.236-.361-.355-.793-.627-1.13-3.106-3.846-2.955,8.911-2.724,9.956" transform="translate(405.359 1261.339)" fill="#eceef1"/>
    <path id="패스_945" data-name="패스 945" d="M431.426,188.491a9.635,9.635,0,0,0-4.829.11c-.283.081-.614.236-.629.529-.015.314.342.5.644.584a6.4,6.4,0,0,0,4.551-.474,1.178,1.178,0,0,0-1.6-.629" transform="translate(416.248 1265.7)" fill="#eceef1"/>
    <path id="패스_946" data-name="패스 946" d="M433.493,189.645a2.282,2.282,0,0,0-3.219,2.715c1.583.4,3.187-1.47,4.7-.852.99.406,1.5,1.77,2.564,1.827a1.249,1.249,0,0,0,.975-1.936c-.491-.595-1.424-.589-2.018-1.081-1.079-.892-.41-2.626.327-3.818-1.2-.259-2.106,1.152-2.263,2.375a4.678,4.678,0,0,1-.327,1.585,1.109,1.109,0,0,1-1.338.614" transform="translate(420.98 1263.714)" fill="#eceef1"/>
    <path id="패스_947" data-name="패스 947" d="M428.61,189.563a2.588,2.588,0,0,0,.174,1.294.9.9,0,0,0,1.088.5,1.331,1.331,0,0,0,.584-.775,3.891,3.891,0,0,0,.359-3.087,13.875,13.875,0,0,1-.733-1.241c-.472-1.351,1.166-2.086,2.22-1.982-.249-1.71-1.706-.5-1.708-2.358,0-.283,3.21-1.511.538-1.961-3.484-.584-2.437,7.347-2.522,9.614" transform="translate(419.125 1256.346)" fill="#eceef1"/>
    <path id="패스_948" data-name="패스 948" d="M438.135,183.949c-1.611.123-3.376.079-4.64-.928-1.192.994-.41,3.06.905,3.886s2.955.969,4.317,1.712,2.388,2.626,1.4,3.82q1.638.427,3.274.852c.255,1.026-.909,1.763-1.791,2.348s-1.6,2.018-.68,2.543c.425.911,1.785.763,2.666.28s1.829-1.175,2.792-.88a4,4,0,0,1,1.506,1.22c1.931,1.967,4.874,2.439,7.349,3.65s4.71,4.147,3.37,6.555a14.508,14.508,0,0,1-2.11,2.295,2.438,2.438,0,0,0-.55,2.847,8.928,8.928,0,0,0,6.1-1.908c1.753,1.876,3.82,3.627,6.329,4.171s5.509-.484,6.489-2.858a3.176,3.176,0,0,1,.718-1.328,2.278,2.278,0,0,1,2.052-.108,40.5,40.5,0,0,1,6.157,2.288,1.829,1.829,0,0,1,.963.765c.259.548-.057,1.177-.142,1.776-.314,2.225,2.433,3.508,4.645,3.9a53.654,53.654,0,0,0,9.089.82c.1-1.528-1.549-2.571-3.04-2.907s-3.17-.382-4.307-1.409c-1.336-1.207-1.464-3.4-2.868-4.526-1.052-.848-2.909-1.409-2.624-2.73.306-1.417,2.794-1.23,3.272-2.6.3-.846-.442-1.742-1.281-2.059a15.6,15.6,0,0,0-2.645-.427,5.392,5.392,0,0,1-4.237-4.617,8.149,8.149,0,0,0-.314-2.511c-.518-1.173-1.876-1.683-3.1-2.078l-19.494-6.283a4.571,4.571,0,0,0-2.872-.278c-2.494.873-2.322,5.356-4.921,5.83-1.349.244-2.543-.833-3.491-1.825-.926-.971-2.263-2.369-2.382-3.79-.083-.977.916-1.831.82-2.692-.363-3.317-4.166-3.013-6.729-2.817" transform="translate(424.051 1259.836)" fill="#eceef1"/>
    <path id="패스_949" data-name="패스 949" d="M459.167,199.57a1.413,1.413,0,0,0,.861.5,11.472,11.472,0,0,0,8.191-.843,7.326,7.326,0,0,1,2.49-1.028c.591-.064,1.186.064,1.774,0a1.433,1.433,0,0,0,1.336-.982c.108-.569-.31-1.23.028-1.7.353-.5,1.219-.3,1.61-.767.438-.521-.083-1.277-.578-1.742-2-1.893-3.952-3.937-6.1-5.654-.191,2.7,1.785,5.824-.334,8.142-1.23,1.347-9.922,3.077-9.281,4.075" transform="translate(453.549 1264.708)" fill="#eceef1"/>
    <path id="패스_950" data-name="패스 950" d="M472.913,198.9c.986.327,2.027.474,2.992.86a3.482,3.482,0,0,1,2.171,2.082c0-.045-.008-.091-.015-.136-.34-2.66-3.045-4.322-5.443-5.575a1.8,1.8,0,0,1-.816-.661c-.1-.2-3.314,1.965,1.111,3.429" transform="translate(466.422 1273.821)" fill="#eceef1"/>
    <path id="패스_951" data-name="패스 951" d="M487.4,223.622a6.984,6.984,0,0,0-1.36-3.066,3.447,3.447,0,0,0-2.981-1.292c-.96,2.108.708,4.513,2.62,5.819a17.97,17.97,0,0,0,4.39,2.029c-1.91.325-2.348-2.031-2.669-3.491" transform="translate(480.139 1300.568)" fill="#eceef1"/>
    <path id="패스_952" data-name="패스 952" d="M489.153,215.555a30.691,30.691,0,0,1,1.906,6.722,2.213,2.213,0,0,0,.586-3.187c.765.68.773,1.84.95,2.849a7.213,7.213,0,0,0,5.15,5.611,2.3,2.3,0,0,0-.491-2.424,22.751,22.751,0,0,0-1.948-1.744,6.475,6.475,0,0,1-1.984-4.387c-.057-1.479.21-3.359-1.086-4.075q-.338.962-.673,1.923c-.372-.04-.616-.406-.761-.752-.9-2.146.008-5.225-2.018-6.782-.315.95-.92,1.94-1.97,2.067-.015,1.54,1.734,2.711,2.339,4.179" transform="translate(484.68 1289.399)" fill="#eceef1"/>
    <path id="패스_953" data-name="패스 953" d="M477.454,199.013c1.483.633,3.391.4,4.515,1.555,1.109,1.143.871,3.081,1.812,4.362.442.606,1.109,1.009,1.593,1.583a1.656,1.656,0,0,1,.257,2.048c-.605.714-1.87.274-2.335-.54a7.162,7.162,0,0,1-.54-2.734,2.575,2.575,0,0,0-1.4-2.263c-.854-.289-1.987.161-2.584-.512a2.518,2.518,0,0,1-.385-.814c-.863-2.286-3.786-3.414-4.3-5.732,1.164.9,1.874,2.414,3.359,3.047" transform="translate(470.375 1274.394)" fill="#eceef1"/>
    <path id="패스_954" data-name="패스 954" d="M436.872,195.6a26.561,26.561,0,0,0-4.02,4.268,2.3,2.3,0,0,0,2.936-3.317" transform="translate(423.99 1273.984)" fill="#eceef1"/>
    <path id="패스_955" data-name="패스 955" d="M439.6,192.753a3.736,3.736,0,0,1,1.7,2.694c.03,1.1-1.054,2.222-2.1,1.876q.306-2.362.61-4.721" transform="translate(431.139 1270.61)" fill="#eceef1"/>
    <path id="패스_956" data-name="패스 956" d="M465.626,205.838a3.349,3.349,0,0,0-4.579-1.353,3.312,3.312,0,0,1,.259,4.64,17.716,17.716,0,0,1-2.167,1.54,5.182,5.182,0,0,0-.193,7.685q-1.619.838-3.234,1.679a9.542,9.542,0,0,0-5.656-6.321,17.475,17.475,0,0,0-7.574,10.394l-1.3.225q-.3,1.89-.6,3.776a5.8,5.8,0,0,1-1.039-4.534c-2.246.444-3.512,2.836-4.13,5.042s-.986,4.645-2.609,6.259a10.433,10.433,0,0,1-4.466,2.208q-3.694,1.135-7.387,2.265c-2.031.623-4.241,1.381-5.335,3.2-.888,1.474-1.458,3.831-3.166,3.625-.722-.087-1.285-.682-1.989-.858-1.451-.365-2.749,1.234-2.811,2.73s.642,2.9,1.03,4.347.355,3.227-.82,4.154a4.746,4.746,0,0,1,3.582,1.723,2.854,2.854,0,0,1-.238,3.729c-1.039.89-3.011.38-3.247-.967a121.693,121.693,0,0,1,6.3,25.26c.484,3.521.769,7.313-.939,10.43a9.656,9.656,0,0,0,10.487.567c1.789-1.067,3.2-2.711,5.074-3.625,3.259-1.591,7.211-.669,10.685-1.721,3.181-.962,5.766-3.523,9.04-4.1,2.469-.436,5.218.281,7.381-.988,1.02-.6,1.768-1.577,2.754-2.235a7.487,7.487,0,0,1,3.761-1.113c5.25-.3,10.628,3.317,11.811,8.439a23.94,23.94,0,0,0,.854,3.841,3.206,3.206,0,0,0,2.96,2.193,8.242,8.242,0,0,1,8.167-7.292c.193,1.292-.733,2.475-1.717,3.336a8.777,8.777,0,0,0-2.641,2.841c-.51,1.2.062,2.966,1.364,3.062a10.692,10.692,0,0,1,2.662-3.257c2.048,1.823,1.084,5.839-1.57,6.531,2.545-.752,6.151-1,7,1.509a9.845,9.845,0,0,1,.236,2.231c.374,3.884,4.436,6.155,7.993,7.757a4.088,4.088,0,0,0,2.28.527c1.347-.227,2.065-1.651,2.847-2.768s2.386-2.095,3.412-1.194c.888.778.521,2.312,1.224,3.259.952,1.285,3.076.6,4.12-.614s1.661-2.834,3.013-3.686c2.516-1.587,7.077-.348,7.821-3.227.4-1.566-.914-3.009-1.343-4.568-.671-2.437.9-4.923,2.711-6.691s3.988-3.291,5.059-5.579c1.791-3.827-.087-8.375.633-12.538.722-4.179,4.033-8.333,2.3-12.2-.68-1.517-2.061-2.66-2.632-4.222-.55-1.508-.323-3.34-1.349-4.574a12.225,12.225,0,0,0-2.494-1.738c-2.741-1.976-2.815-5.924-3.863-9.136-1.908-5.853-7.4-9.659-11.195-14.5a8.607,8.607,0,0,1-1.661-2.953,20.8,20.8,0,0,1-.3-3.943,10.043,10.043,0,0,0-4.989-7.817,5.313,5.313,0,0,1-1.713-1.2,4.829,4.829,0,0,1-.608-2.875,16.215,16.215,0,0,0-4.128-10.241q-2.5,12.362-5,24.723a6.541,6.541,0,0,1-3.353,1.3q-.72-3.155-1.443-6.314c-2.375.121-4.87.221-7.005-.831s-3.695-3.667-2.741-5.845c.523-1.19,1.7-2.513.924-3.555,2.129.8,3.984-2.654,2.426-4.307-2.452-2.6-5.133,1.169-7.659,1.035-3.13-.168-5.936-4.56-9.308-2.575" transform="translate(395.652 1281.413)" fill="#eceef1"/>
    <line id="선_367" data-name="선 367" y1="0.542" x2="0.814" transform="translate(900.75 1515.994)" fill="#d4deef"/>
    <path id="패스_957" data-name="패스 957" d="M458.531,270.351c-.019.61-.036,1.353.487,1.666a1.554,1.554,0,0,0,.71.164c1.791.121,4.052-.115,4.664-1.8.491-1.355-.44-2.924.062-4.275a6.137,6.137,0,0,1,.733-1.217,4.239,4.239,0,0,0,.718-3.376,2.48,2.48,0,0,0-2.656-1.855c-.637.123-1.177.552-1.806.716-2.016.531-7.8-3.784-7.3,1.054.155,1.517,2.25,2.707,3.021,3.943a8.957,8.957,0,0,1,1.37,4.982" transform="translate(447.898 1345.403)" fill="#eceef1"/>
    <path id="패스_958" data-name="패스 958" d="M490.3,277.62c-1.343.444-2.817.637-3.939,1.5s-1.63,2.754-.531,3.644c.843.684,2.1.406,3.134.737,2.318.741,2.528,3.894,2.29,6.317,1.625.695,3.391-.727,4.29-2.248s1.513-3.348,3.017-4.279c.977-.606,2.263-.773,2.987-1.666,1.02-1.26.346-3.149.724-4.725.95-3.952,6.644-4.3,8.165-8.154,1.056-2.681,2.989-7.929-.183-8.484-7.917-1.383-13.1,15.094-19.955,17.363" transform="translate(482.879 1346.606)" fill="#eceef1"/>
    <path id="패스_959" data-name="패스 959" d="M503.512,279.6a1.116,1.116,0,0,0,.111.61c.28.44.975.264,1.379-.068,2.322-1.9.918-5.966,2.7-8.382a11.32,11.32,0,0,1,2.244-1.942,10.913,10.913,0,0,0,4.064-8.3,10.984,10.984,0,0,1-3.625,1.443,3.726,3.726,0,0,1-3.523-1.239c-.952-1.3-.633-3.2-1.534-4.532-1.039-1.534-3.285-1.753-4.532-3.121-1.145-1.256-1.173-3.123-1.432-4.8s-1.126-3.593-2.809-3.824c-3.329,3.82,3.21,8.607,4.06,11.868.814,3.125-.8,4-2.048,6.625-1.3,2.73-2.171,4.885.416,7.007,1.666,1.364,3.041-.716,4.492,1.808.833,1.453.053,5.235.036,6.852" transform="translate(494.582 1330.029)" fill="#eceef1"/>
    <path id="패스_960" data-name="패스 960" d="M417.538,159.3a4.835,4.835,0,0,0-.359,1.644c.032,1.936,2.265,3.246,2.428,5.176.064.767-.215,1.523-.212,2.293s.474,1.661,1.245,1.67c.665.006,1.126-.623,1.6-1.088s1.358-.765,1.729-.212a1.282,1.282,0,0,1,.121.856,18.126,18.126,0,0,1-1.655,5.962,2.635,2.635,0,0,0,3.028-1.3,7.709,7.709,0,0,0,.805-3.459,3.714,3.714,0,0,0-.157-1.759c-.361-.822-1.249-1.262-1.836-1.94-1.088-1.268-.973-3.193-.365-4.749s1.63-2.917,2.246-4.466a2.489,2.489,0,0,0,.232-1.266,4.434,4.434,0,0,0-.531-1.237,13.017,13.017,0,0,1-.752-3.246c-1.861-9.574-6.99,5.446-7.568,7.124" transform="translate(406.363 1221.578)" fill="#eceef1"/>
    <path id="패스_961" data-name="패스 961" d="M432.064,162.8a5.5,5.5,0,0,1-1.916,4.772,3.179,3.179,0,0,0-.85.844c-.654,1.211.871,2.365,1.968,3.2a7.957,7.957,0,0,1,.835,11.431,3.838,3.838,0,0,0-.78.933,2.764,2.764,0,0,0-.2,1.171,14.489,14.489,0,0,0,.948,5.318c-1.8.9-4.035-.584-4.721-2.471s-.291-3.971.04-5.949a3.008,3.008,0,0,0-.2-2.174c-.676-1-2.316-.795-3.161.066a7.4,7.4,0,0,0-1.47,3.266,4.688,4.688,0,0,1-1.891,2.972,7.593,7.593,0,0,1,6.595-8.684,6.836,6.836,0,0,0,2.647-.385c.8-.408,1.279-1.6.616-2.21-.782.025-1.092-1.016-1.022-1.793s.2-1.729-.431-2.19-1.594.017-2.023.695-.563,1.5-.982,2.184a3.075,3.075,0,0,1-3.1,1.381,4.769,4.769,0,0,1,2.594-4.349,5.38,5.38,0,0,1-3.442-2.715c-.552-1.4.419-3.382,1.921-3.261q.806,2.068,1.608,4.135a2.66,2.66,0,0,0,3.489-1.2,6.357,6.357,0,0,0,.433-4.024c1.519.778,3.261-1.362,2.639-2.949a2.681,2.681,0,0,0-2.042-1.666,6.51,6.51,0,0,1,1.9,3.659" transform="translate(410.145 1232.979)" fill="#eceef1"/>
    <path id="패스_962" data-name="패스 962" d="M322.817,55.211c1.035-.737.249-2.526-.956-2.93s-2.513-.011-3.782.028-2.8-.563-2.941-1.825a2.236,2.236,0,0,1,.2-1.1c.886-2.106,3.387-2.943,5.018-4.54,2.541-2.486,2.764-6.576,4.993-9.346,3.087-3.831,8.915-4,12.865-6.929,1.243-.92,2.28-2.1,3.569-2.955,3.342-2.212,7.676-1.844,11.681-1.95a43.226,43.226,0,0,0,15.319-3.259c-1.026,4.861-6.85,6.682-11.668,7.9q-4.863,1.227-9.618,2.836c-4.031,1.362-8.065,2.966-11.365,5.654s-5.8,6.627-5.86,10.88c-.032,2.233,2.637,7.058,1.158,8.788-1.742,2.035-6.707-.4-8.613-1.251" transform="translate(291.592 1076.947)" fill="#eceef1"/>
    <path id="패스_963" data-name="패스 963" d="M378.435,13.33,374.791,14.5a4.911,4.911,0,0,0,5.405,1.965c2.059-.631,4.064-2.645,6-1.7.5.928-.639,1.851-1.566,2.356s-1.908,1.706-1.156,2.443a1.609,1.609,0,0,0,.674.348c4.239,1.36,9.074.2,13.13,2.042,1.275.578,2.513,1.46,3.914,1.4s2.711-1.834,1.746-2.847c-.631-.663-1.919-.674-2.169-1.553-.461-1.613,3.34-2.263,2.6-3.767l-8.246.255c-.935.028-2.078-.062-2.482-.9-.229-.478-.142-1.084-.457-1.506-.387-.521-1.154-.506-1.8-.44l-4.358.44c3.181-.321,7.345-2.012,10.532-2.785-4.232-4.789-16.464-4.211-18.121,3.083" transform="translate(358.693 1062.043)" fill="#eceef1"/>
    <path id="패스_964" data-name="패스 964" d="M401.108,14.456c-.07-1.787-2.537-2.571-4.152-1.8s-2.59,2.407-3.688,3.82a37.247,37.247,0,0,1-4.489,4.591l12.491-1.613c1.606-.206,3.538-.669,4.018-2.218a12.1,12.1,0,0,0-5.446-2.01" transform="translate(374.424 1067.899)" fill="#eceef1"/>
    <path id="패스_965" data-name="패스 965" d="M450.058,30.281a7.234,7.234,0,0,1,1.608-.909c2.373-.686,4.407,2.813,6.81,2.244,1.016-.24,1.734-1.162,2.709-1.534,2.284-.869,4.829,1.519,6.994.049,2.826-1.919,1.608-3.563-.614-4.432-2.04-.795-5.2.042-7.5-.616a42.122,42.122,0,0,1-4.787-2.118c-3.788-1.619-9.788-4.33-12.366.557-2.316,4.39,2.819,9.353,7.141,6.761" transform="translate(434.662 1077.323)" fill="#eceef1"/>
    <path id="패스_966" data-name="패스 966" d="M466.12,26.373a16.816,16.816,0,0,0-5.713-3.057,2.782,2.782,0,0,0-.909-.164,1.886,1.886,0,0,0-1.449,2.479,3.223,3.223,0,0,0,2.526,1.921,13.131,13.131,0,0,0,3.317-.019,23.666,23.666,0,0,1,6.95.552c.425-1.455-1.007-2.921-2.511-3.123a7.978,7.978,0,0,0-4.347,1.109" transform="translate(452.223 1080.037)" fill="#eceef1"/>
    <path id="패스_967" data-name="패스 967" d="M454.788,29.334a14.762,14.762,0,0,0-4.086-1.266c-.75-.117-1.857.189-1.672.926.079.314.389.51.676.665a28.551,28.551,0,0,0,6.125,2.456c.984.266,2.348.293,2.681-.669a1.816,1.816,0,0,0-.812-1.838,5.466,5.466,0,0,0-4.91-1" transform="translate(442.162 1085.538)" fill="#eceef1"/>
    <path id="패스_968" data-name="패스 968" d="M258.318,20.6c1.808,1.064,4.009,1.264,5.877,2.222a8.116,8.116,0,0,1,4.228,5.724c.263,1.483.132,3.113.956,4.373,1.2,1.829,4.069,1.959,5.811.64a7.183,7.183,0,0,0,2.458-5.826c-.009-1.717-.308-3.71.922-4.908a4.992,4.992,0,0,1,1.948-1,8.838,8.838,0,0,1,4.228-.659,3.146,3.146,0,0,1,2.764,2.845c-.034,1.738-1.982,3.353-1.213,4.91q4.124-.057,8.25-.113c.952-.962.281-2.7-.841-3.45s-2.535-.922-3.771-1.472-2.4-1.8-2.055-3.106c.521-1.974,3.321-1.723,5.361-1.651A10.207,10.207,0,0,0,303.373,8.776c-4.823-.737-7.209,4.54-11.212,5.919-3.308,1.139-5.121-.786-8.15-.5-3.227.3-4,2.365-6.489,2.962-3.875.926-6.663-.992-10.676-1.528-3.125-.416-16.727.149-8.528,4.972" transform="translate(224.785 1063.79)" fill="#eceef1"/>
    <path id="패스_969" data-name="패스 969" d="M333.868,7.351a24.136,24.136,0,0,1-14.174,11.035c-2.785.786-5.883,1.154-7.987,3.142a13.155,13.155,0,0,0-2.737,4.581c-1.379,3.244-2.781,6.591-2.856,10.115s1.487,7.322,4.662,8.86c-4.424,2.191-4.857,9.5-.724,12.2-1.687,4.211-8.754,1.859-12.089,4.936-2.59,2.388-1.587,6.671-.026,9.831s3.544,6.7,2.284,9.988l-14.229-5.547c-1.789,3.867,3.359,8.66,7.088,6.6-3.591,6.457-13.162,5.184-19.887,8.239-7.181,3.259-11.042,11.647-18.3,14.732-3.574,1.517-7.634,1.583-11.193,3.132s-6.635,5.656-4.959,9.155a4.131,4.131,0,0,1,.752,2.137c-.093.8-.812,1.353-1.426,1.878-5.83,4.97-5.9,13.791-5.488,21.442-2.078,1.555-5.012-.559-6.157-2.887s-1.734-5.186-3.926-6.576-5.114-.72-7.5-1.706c-2.18-.9-3.576-3.009-4.838-5q-3.544-5.606-7.092-11.208c-1.991-3.147-4.026-6.412-4.583-10.094s.771-7.919,4.077-9.631c2.335-1.211,6.13-3.043,4.438-5.057a3.327,3.327,0,0,0-1.513-.86q-6.428-2.285-12.858-4.57A11.261,11.261,0,0,1,205.552,79c1.942-3.1-2.547-6.506-6.2-6.444s-7.738,1.39-10.706-.75c2.764-3.848,2.618-9.3.393-13.485s-6.232-7.194-10.568-9.106a15.925,15.925,0,0,0-6.1-1.549c-3.336-.049-6.535,1.483-9.873,1.5-4.725.032-9.038-3.034-11.747-6.905s-4.1-8.49-5.441-13.02c3.805,2.1,8.824,2.222,12.363-.3s5-7.848,2.683-11.531l14.431-3.232a10.885,10.885,0,0,0,3.514-1.222c1.347-.852,2.252-2.244,3.474-3.266,2.339-1.961,5.564-2.375,8.6-2.713l24.357-2.709a12.736,12.736,0,0,1,4.681.059c3.99,1.062,7.608,5.9,11.191,3.844a6.408,6.408,0,0,0-1.29-4.445c4.564-2.1,9.841-1.455,14.866-1.381C254.3,2.5,264.318.157,274.444.008a70.2,70.2,0,0,1,29,5.828,27.441,27.441,0,0,1-10.156,4.309,15.537,15.537,0,0,1,6.963,1.183c-1.744-.735-9.631,5.49-10.889,6.612,4.292,3.336,13.723-3.567,18.159-5.683,8.4-4,16.974-6.291,26.346-4.906" transform="translate(1210.986 1054)" fill="#eceef1"/>
    <path id="패스_970" data-name="패스 970" d="M242.177,60.82a23.588,23.588,0,0,0-6.274,3.805c-1.738,1.47-3.68,3.325-5.911,2.879-2.267-.455-3.334-2.979-4.328-5.063s-3.011-4.334-5.2-3.584q1.785-2.145,3.565-4.292l-8.494-1.237a2.966,2.966,0,0,1-1.9-.767c-1.062-1.241.523-3.079,2.089-3.542,3.525-1.043,7.407.542,10.054,3.089,1.107,1.067,2.516,2.418,3.931,1.819.939-.4,1.336-1.479,1.963-2.28,1.5-1.921,4.309-2.174,6.733-1.891,4.092.478,12.261-2.524,13.859,2.373,1.791,5.492-6.8,7.343-10.09,8.69" transform="translate(1287.451 1108.764)" fill="#eceef1"/>
    <path id="패스_971" data-name="패스 971" d="M129.479,48.168c-10.706,4.455-21.812,8.894-33.406,8.751a87.656,87.656,0,0,1-14.941-1.91c-10.744-2.01-21.6-4.052-31.6-8.473-2.669-1.181-5.354-2.55-8.267-2.728-3.257-.2-6.406,1.118-9.329,2.567A88.8,88.8,0,0,0,8.04,63.734a28.326,28.326,0,0,1,18.21,11.08,7.636,7.636,0,0,1-9.735-3.223A8.483,8.483,0,0,0,6.172,78.613,8.485,8.485,0,0,0,15,87.466a10.667,10.667,0,0,1,7.047-4.107q1.957,3.3,3.911,6.589c-2.276,2.745-6.276,3.03-9.754,3.818s-7.4,3.24-7,6.784c.669,5.9,12.006,6.4,11.509,12.323.17-2.01,23.6-3.576,12.27,9.88a8.78,8.78,0,0,1-7.192,3.391c.763,2.159.591,4.844-1.107,6.378s-5.031.984-5.564-1.243C17.3,135.16,12.3,136.08,8.033,136.5q-.759,2.575-1.515,5.148A3.481,3.481,0,0,0,1.5,139.378a3.582,3.582,0,0,0-.342,5.552c1.562,1.275,3.835.967,5.815.591.739-.14,1.583-.359,1.9-1.041a3.4,3.4,0,0,0,.151-1.364c.074-2.254,2.046-4.039,4.154-4.838s4.409-.888,6.606-1.4a25.011,25.011,0,0,0,9.8-5.171c3.159-2.541,6-5.554,9.582-7.455,1.373-.729,2.836-1.285,4.158-2.1,9.716-6.023,3.521-16.458,17.9-18.251a4.486,4.486,0,0,1-3.087,4.606c4.6,3.4,9.646-7.313,15.043-5.392,1.519.54,2.5,1.989,3.812,2.934,2.424,1.751,5.664,1.63,8.643,1.882a30.659,30.659,0,0,1,26.108,21.221c5.191-1.532,9.512,4.013,12.1,8.768q6.4,11.776,12.8,23.554c2.709,4.984,5.441,10.035,6.85,15.531,2.01,7.861,1.2,16.222,3.083,24.115s7.957,15.924,16.069,15.71a101.439,101.439,0,0,0,10.623,35.55c-2.773,2.813,1.689,6.982,5.484,8.086s8.785,3.911,7.13,7.5c4.475-4.978-1.222-12.487-6.671-16.377s-11.841-10.332-8.433-16.094c1.859-1.874,5.114.312,5.989,2.8s.8,5.439,2.554,7.409c1.54,1.723,4.035,2.156,6.021,3.338,7.207,4.279,5.694,16.436,12.669,21.083,2.547,1.7,5.9,2.093,8.106,4.213,1.585,1.523,2.322,3.7,3.361,5.637,3.663,6.848,11.031,10.725,17.975,14.2l6.077,3.04,34.8,17.42c1.113.559,2.4,1.128,3.561.669,4.768-1.887-4.97-10.366-.92-13.509l-17.089-8.239a9.707,9.707,0,0,0,1-12.907,5.871,5.871,0,0,0,4.29-4.387c-2.509-2.609-7.1-.45-9.049,2.6s-2.732,6.888-5.358,9.378c-5.945,5.637-16.464-.344-18.763-8.208s.331-16.2,1.209-24.344c.353-3.291.631-7.041,3.238-9.083,5.958-4.666,14.73,5.174,21.642,2.1,2.647-1.177,4.207-3.994,6.7-5.469,4.3-2.543,10.143-.187,13.12,3.822s3.812,9.166,4.56,14.1c1.406,2.307,5.316-.242,5.1-2.934s-2.439-4.71-3.9-6.982a14.005,14.005,0,0,1,3.612-18.376c5.027-3.514,13.309-4.889,13.634-11.014.21-3.958-3.55-7.2-3.705-11.165-.136-3.487,2.5-6.387,4.965-8.86q10.437-10.482,20.879-20.962c1.632-1.64,3.61-3.41,5.911-3.151s3.582,4.062,1.394,4.817c8.2.317,19.2-1.664,19.857-9.85a31.469,31.469,0,0,1-11.458,6.4,15.381,15.381,0,0,1,3.117-11.044c-3.055-5.267-10.368-6.716-16.184-4.9s-10.472,6.1-14.921,10.254c6.682-7.885,15.625-14.49,25.891-15.691,3.867-.45,8.012-.183,11.375-2.142,4.681-2.728,8.822-9.6,13.538-6.937q-5.166,9.064-10.33,18.125l11.14-.829a15.5,15.5,0,0,1,2.091,8.575c4.543-.317,10.793-3.312,8.764-7.39-1.03-2.072-3.722-2.59-5.511-4.058-4.916-4.028-1.09-12.306-3.552-18.166-1.23-2.93-3.92-4.933-6.378-6.95a79.332,79.332,0,0,1-23.533-32.45c-1.2,2.989-2.507,6.134-5.089,8.055s-6.852,1.95-8.552-.782c-.933-1.5-.88-3.389-1.364-5.086-1.1-3.846-4.776-6.28-8.182-8.375-4.137-2.541-9.006-5.182-13.6-3.6s-5.649,9.844-.856,10.6c-4.466.161-4.319,7.1-1.774,10.774s6.128,8.248,3.686,11.992c-2.165,3.319-7.651,2.994-9.831,6.3-2.1,3.189.183,7.3,1.78,10.768s1.555,8.926-2.191,9.667c-3.2.633-5.52-3.074-6.119-6.28-.941-5.048-.276-10.521-2.635-15.083s-9.933-6.708-12.306-2.157a14.81,14.81,0,0,0-9.663-9.948c-3.739-1.169-7.9-.814-11.452-2.471-5.312-2.477-7.7-8.588-9.593-14.133,6.933-3.965,14.322-8.429,17.414-15.793.831-1.982,1.375-4.2,2.945-5.671,1.413-1.322,3.423-1.793,4.993-2.921s2.575-3.61,1.162-4.931a10.116,10.116,0,0,1,6.882-1.33c4.028,5.463-8.32,14.768-2.5,18.27,3.132,1.885,6.518-1.989,8.14-5.267q3.8,1.53,7.6,3.064c3.268-2.654-.569-7.727-4.309-9.654s-8.482-5.4-6.6-9.164q5.019-.089,10.043-.181a7.617,7.617,0,0,0-4.938-7.468q2.588-3.987,5.174-7.976a6.643,6.643,0,0,0-6.37-1.942,65.515,65.515,0,0,0,19.538-6.115A222.061,222.061,0,0,1,303.837,66.6a5.808,5.808,0,0,1,1.409,3.317c-.059,2.671-3.287,3.814-5.618,5.116s-3.742,5.441-1.152,6.1c-.355,1.976-3.321,1.959-4.991.843s-3.2-2.866-5.205-2.751c-3.788.221-3.164,6.9.459,8.029s7.33-1.211,10.407-3.433a68.225,68.225,0,0,0,24.6,14.195,7.531,7.531,0,0,1-5.652-8.412,40.9,40.9,0,0,1,11.934,5.662c3.087-3.754-.869-9.213-4.916-11.907s-9.115-6.03-8.477-10.851a14.9,14.9,0,0,1,13.135,7.551q3.021-4.29,6.038-8.581c-2.276-7.526-16.793-5.22-18.306-12.937-.291-1.489,0-3.2-.931-4.394-1.451-1.861-4.351-.95-6.71-1.024-8.252-.255-13.247-14.078-20.864-10.889,3.183-5.962-5.868-13.509-11.161-9.3,2.906,1.079,6.068,2.581,7.128,5.5s-2.029,6.9-4.734,5.382c-2.737-1.534-1.43-5.866-2.938-8.618-1.838-3.348-7.368-2.681-9.593.423s-1.946,7.336-1.056,11.05q-2.757-.07-5.514-.136a29.571,29.571,0,0,1,2.9-15.183c-2.154-3.212-7.048-.127-9.419,2.93-2.49,3.212-5.055,6.584-5.832,10.574s.852,8.764,4.653,10.2c2.439.922,5.256.334,7.683,1.29,5.55,2.186,3.363,12.544-2.6,12.3A21.637,21.637,0,0,1,255.4,58.59a20.109,20.109,0,0,0-7.774,4.341,74.071,74.071,0,0,0-11.962-19.857l3.563-6.89c4.781,2.093,10.908-3.028,9.7-8.106-3.973-1.113-8.148-2.233-12.172-1.326s-7.749,4.587-7.188,8.675c.338,2.452,2.078,4.487,2.72,6.878s-.793,5.73-3.234,5.327c-1.277,5.811,11.031,5.949,11.584,11.87.389,4.154-5.25,5.788-9.421,5.73a18.723,18.723,0,0,1-.525,12.3,14.73,14.73,0,0,1,3.837-17.968,11.448,11.448,0,0,0-15.283-3.2,13.565,13.565,0,0,0,7.868,5.645l-5.061,5.868c-3.654-2.628-8.66-.565-13.154-.308s-9.956-4.706-6.782-7.9c-2.7-1.634-6.37-2.191-8.936-.351s-2.781,6.514.083,7.846c-5.97,1.534-15.867-9.446-20.186-1.033-2.7-8.56-7.052-11.112-15.62-11.55-5.688-.289-22.549-4.5-25.453.28-.255-.618-2.637-6.648-2.524-6.7" transform="translate(1047.568 1083.712)" fill="#eceef1"/>
    <path id="패스_972" data-name="패스 972" d="M72.719,26.113c-3.236.346-5.04,3.975-5.454,7.2s-.1,6.695-1.689,9.535a6.8,6.8,0,0,0-1.028,2.161c-.361,2.269,2.584,3.72,4.853,3.357,6.612-1.056,10.764-10.09,17.365-8.968q.1,2.658.2,5.316a42.877,42.877,0,0,0,12.861-1.859c1.264.82.557,2.972-.795,3.642s-2.951.444-4.453.582-3.212.952-3.372,2.452c2.9-.843,5.936-1.691,8.9-1.124s5.809,3.036,5.711,6.055a78.248,78.248,0,0,0-12.618.459c2.3,2.737,6.482,2.411,10.039,2.8s7.774,3.234,6.518,6.582A17.863,17.863,0,0,1,129.07,60.21a26.988,26.988,0,0,0,4.861,1.936c1.715.344,3.742-.051,4.7-1.513s0-3.945-1.742-3.888a5.866,5.866,0,0,0,4.78-4.341,8.541,8.541,0,0,1-10.158-4.674c-1.426-3.431-.58-7.842-3.136-10.538,2.231.671,4.449-1.982,3.911-4.247s-2.981-3.682-5.307-3.739a4.863,4.863,0,0,0-4.081,1.71,2.858,2.858,0,0,0,.593,4.035q-2.693-1.31-5.384-2.624c-.716,4.394,7.921,7.018,5.9,10.982-1.292,2.526-5.688.931-6.206-1.859-.342-1.836.081-4.279-1.6-5.091-3.206-1.547-5.545,6.314-8.609,4.5q.29-2.645.578-5.288A14.423,14.423,0,0,0,97.274,39.4q.539-2.562,1.075-5.125c-4.283-2.377-8.533,6.045-13.16,4.445,4.453,1.538,14.42-7.158,6.58-10.84-1.878-.884-5.8.5-7.887.348-3.667-.259-7.481-2.507-11.163-2.114" transform="translate(1120.129 1083.316)" fill="#eceef1"/>
    <path id="패스_973" data-name="패스 973" d="M88.767,17.82c-3.04-1.519-6.739.13-9.317,2.341s-4.725,5.052-7.8,6.491c-1.458.68-3.183,1.1-4.084,2.431a141.858,141.858,0,0,0,15.308-1.039A8.134,8.134,0,0,1,80.445,32.6c2.38.869,4.362-2.127,4.687-4.638a3.1,3.1,0,0,1,.818-2.15,3.819,3.819,0,0,1,1.81-.491,4.438,4.438,0,0,0,3.786-4.557c-.261-2.167-3.106-3.691-4.865-2.4" transform="translate(1123.553 1073.378)" fill="#eceef1"/>
    <path id="패스_974" data-name="패스 974" d="M94.38,28.485a1.643,1.643,0,0,0,.788-1.814,6.593,6.593,0,0,1-6.535-5.7,3.815,3.815,0,0,0-5.361,1.742,3.813,3.813,0,0,0,2.747,4.921l-9.242,3.952c5.883,3.172,12.867-3.733,19.407-2.348,0,.79-.006,1.581-.009,2.371a10.09,10.09,0,0,0-7.438,3.48,22.566,22.566,0,0,0,14-3.408,9.77,9.77,0,0,1,3.691-1.81,13.015,13.015,0,0,1,3.606.38c2.845.4,6.448-1.209,6.348-4.079a15.126,15.126,0,0,0-5.985-.731,6.4,6.4,0,0,0-8.681-4.506,9.263,9.263,0,0,0,3.21,6.759,6.4,6.4,0,0,1-7.188.725c-1.06-.6-2.035-1.549-3.255-1.555-1.309-.006-3.009.939-3.674-.189" transform="translate(1133.916 1076.956)" fill="#eceef1"/>
    <path id="패스_975" data-name="패스 975" d="M94.255,17.274A25.74,25.74,0,0,0,80.149,19.62q3.531,1.59,7.058,3.185a3.015,3.015,0,0,0,3.17.055l6.8-2.921q-.59-.864-1.179-1.725c1.013.686,2.539-.312,2.6-1.534a2.854,2.854,0,0,0-2.131-2.654,6.911,6.911,0,0,0-3.623.117A26.405,26.405,0,0,0,88.8,15.462,5.522,5.522,0,0,0,92.41,18.4l.076,1.715" transform="translate(1137.709 1069.551)" fill="#eceef1"/>
    <path id="패스_976" data-name="패스 976" d="M111.786,20.217c-1.045.053-1.666-1.186-1.71-2.229s.178-2.167-.338-3.077c-1.266-2.235-4.7-.58-7.232-.988-1.506-.242-2.749-1.3-4.181-1.829s-3.463-.234-3.875,1.237c-.461,1.647,1.555,2.97,3.263,3s3.47-.574,5.091-.034a1.6,1.6,0,0,1,.8.508c1.2,1.61-3.13,2.788-2.728,4.759.2.969,1.409,1.273,2.394,1.377,1.455.157,2.917.314,4.375.47,1.521.164,3.2.285,4.424-.633s1.251-3.293-.229-3.661" transform="translate(1153.715 1067.326)" fill="#eceef1"/>
    <path id="패스_977" data-name="패스 977" d="M117.793,25.636c.852-.994.331-2.654-.735-3.414a6.467,6.467,0,0,0-3.767-.869,42.565,42.565,0,0,0-11.339,1.462,7.612,7.612,0,0,1-3.489.416,2.334,2.334,0,0,1-1.974-2.5c-1.581,1.776.321,4.734,2.62,5.348s4.734-.1,7.111.03,5.1,1.763,4.846,4.128a3.292,3.292,0,0,0-.053,1.676,1.749,1.749,0,0,0,1.749.773,5.257,5.257,0,0,0,4.432-6.827,1.822,1.822,0,0,1-1.889-1.024,4.7,4.7,0,0,0,2.811-3.255,9.558,9.558,0,0,0-7.991.623" transform="translate(1155.432 1077.311)" fill="#eceef1"/>
    <path id="패스_978" data-name="패스 978" d="M114.135,31.262c1.315-.956.446-3.306-1.113-3.767s-3.206.365-4.494,1.36q-.121,2-.244,4.009a5.967,5.967,0,0,0-4.519.88,6.662,6.662,0,0,1,4.672,4.855,4.609,4.609,0,0,1-6.582-2c-.453-1.135-.616-2.662-1.778-3.04-1.644-.533-2.6,2.072-1.846,3.627,2.008,4.1,8.12,3.837,11.533,6.882,1.226,1.094,3.085,2.654,4.126,1.383.826-1.011-.249-2.443-1.249-3.285a6.424,6.424,0,0,0,3.591-.266,2.336,2.336,0,0,0,1.262-3.006,4.986,4.986,0,0,0-1.383-1.279,5.473,5.473,0,0,1-1.519-6.3q-.978-.411-1.955-.824" transform="translate(1157.748 1084.774)" fill="#eceef1"/>
    <path id="패스_979" data-name="패스 979" d="M162.143,50.617a18.617,18.617,0,0,0-13.929-2.08c-3.378.843-6.535,2.645-10.009,2.89-5.078.355-9.937-2.83-12.7-7.1,3.846-2.637,9.476,2.535,13.53.229,1.169-.665,1.98-1.872,3.208-2.418a6.978,6.978,0,0,1,4.05-.083l19.481,3.489a4.97,4.97,0,0,0-4.489-6l10.207-4.111c1.717-.691,3.555-1.483,4.492-3.081s.27-4.188-1.566-4.419A139.588,139.588,0,0,0,197.064,17.7q-1.093-1.887-2.182-3.773a19.678,19.678,0,0,0,14.172-4.183,48.5,48.5,0,0,0-16.819,1.572,49.864,49.864,0,0,0,27.627-4.487c-3.064-2.671-8.639.805-11.656-1.919-.905-.816-1.355-2.048-2.278-2.845a6.919,6.919,0,0,0-4.243-1.2,281.62,281.62,0,0,0-45.937,1.3c-2.516.278-5.69,1.249-5.832,3.776l-10.95-.453a10.128,10.128,0,0,1-11.83,3.142q-1.37,2.17-2.739,4.341a13.213,13.213,0,0,0,8.815,2.237c1.882,3.877,7.98,4.727,10.851,1.511,1.277,4.394,7.848,3.569,11.745,1.173s8.9-5.456,12.553-2.7a26.138,26.138,0,0,1-17.184,5.378q2.3,2.766,4.6,5.537c-3.761.232-7.1-2.161-10.385-4s-7.6-3.127-10.642-.9l8.244,6.725L120.273,15.97c-2.22-1.171-4.787-2.369-7.139-1.5s-3.062,4.984-.64,5.643a5.174,5.174,0,0,0-3.979,3.686,34.681,34.681,0,0,1,12.912,3.648q-2.83.911-5.664,1.819L128.7,33.486a3.443,3.443,0,0,0,2.692.115c.814-.448,1.107-1.447,1.559-2.259a5.426,5.426,0,0,1,7.226-1.94l-1.644,3.905,6.115.036.1,3.353a24.781,24.781,0,0,0,8.919-.246c-1.071,3.962-6.822,4.311-10.409,2.316s-6.414-5.414-10.364-6.531a19.1,19.1,0,0,0,5.809,7.536,31.576,31.576,0,0,0-15.767,1.506q-.733-1.584-1.468-3.17c-4.124,1.712-3.5,7.679-2.159,11.934a10.427,10.427,0,0,0,1.636,3.548c1.876,2.3,5.233,2.569,8.2,2.654l13.4.385c6.217.178,19.827,3.1,19.587-6.011" transform="translate(1169.609 1054.527)" fill="#eceef1"/>
    <path id="패스_980" data-name="패스 980" d="M117.046,30.725c1.224-.846,3.44-.132,4-1.508.425-1.035-.682-2.023-1.657-2.571s-2.14-1.4-1.872-2.488a3.861,3.861,0,0,1-2.533-.525q2.8-.736,5.6-1.475c.712-.187,1.617-.829,1.194-1.434a1.087,1.087,0,0,0-.648-.357A11.922,11.922,0,0,1,117.7,19.4c-1.016-.629-1.585-2.208-.7-3.011l-1.921-.172q-.041-.762-.083-1.528a90.265,90.265,0,0,1-9.9-.807,3.763,3.763,0,0,0,3.9,4.324,1.543,1.543,0,0,1,1.067.081c.268.185.348.535.491.829a1.951,1.951,0,0,0,2.477.894,3.782,3.782,0,0,1-1.254,1.61,9.844,9.844,0,0,0,3.446,1.081,7.982,7.982,0,0,1-3.251,1.54l1.462,1.186L109.7,25.5c-.38,1.175.767,2.3,1.914,2.76,1.271.5,7.451,4.441,3.744,6.2-2.106,1-2.987-2.477-2.244-3.805,1.177,2.722.818,6.516,2.881,8.9,1.5,1.736,3.795,2.059,5.259-.232,2.528-3.958-3.593-5.148-4.2-8.6" transform="translate(1165.697 1069.615)" fill="#eceef1"/>
    <path id="패스_981" data-name="패스 981" d="M129.122,172.462c-1.468,3.935,3.266,8.531,7.156,6.943,1.12-.457,2.1-1.29,3.293-1.5,3.342-.584,5.263,3.62,5.97,6.939.807,3.795,1.6,7.853.185,11.467-1.7,4.332-6.336,7.358-6.88,11.977-.446,3.776,2.046,7.672.767,11.252-.58,1.623-1.872,2.913-2.48,4.528-1.09,2.892.212,6.083,1.494,8.9l12.773,28.05c.958,2.1,1.984,4.294,3.82,5.7,1.462,1.115,3.3,1.619,4.851,2.607,2.53,1.615,4.079,4.356,5.524,6.986,2.675,4.865,5.384,9.82,6.529,15.255,1.559,7.411.091,15.085-1.377,22.515q-3.222,16.3-6.442,32.59-3.541,17.927-7.086,35.856a11.36,11.36,0,0,0,5.093-6.973,35.077,35.077,0,0,1-4.268,22.744l-1.026-8.8a46.973,46.973,0,0,0-4.334,19.989,4.933,4.933,0,0,0,.973,3.484c.814.843,2.08,1.03,3.119,1.574a5.038,5.038,0,0,1,2.029,6.578q1.791.418,3.586.831c1.853,1.466-2.518,3.521-2.5,5.883a3.485,3.485,0,0,0,1.5,2.35q5.077,4.471,10.149,8.941c2.354.7,4.806,1.4,7.232,1.024s4.823-2.171,5.046-4.617c.308-3.359-3.185-5.6-5.443-8.108-3.5-3.888-4.36-9.61-3.476-14.768s3.287-9.916,5.66-14.579l-4.6-1.734c.113-3.446,3.629-5.584,5.851-8.22a12.892,12.892,0,0,0-.954-17.033q2.524-1.782,5.048-3.559,2.072,3.311,4.143,6.618a10.535,10.535,0,0,0,3.011-11.994c7.823,2.006,16.662-4.4,17.186-12.461a3.11,3.11,0,1,1,1.938-5.622c-.863,2.237,1.691,4.676,4.073,4.383s4.158-2.431,4.961-4.691.869-4.7,1.313-7.06a22.456,22.456,0,0,1,4.912-10.3c2.069-2.439,4.717-4.517,5.924-7.479.882-2.167.89-4.576,1.264-6.888a21.944,21.944,0,0,1,13.98-16.8c.3,3.37,5.622,2.675,8.118.389A22.56,22.56,0,0,0,263.74,282.5c.669-4.387.077-9.121,2.152-13.041.88-1.661,2.212-3.106,2.715-4.914a22.186,22.186,0,0,0,.289-4.8c.455-8.628,9.7-15.44,8.62-24.013-.7-5.567-5.539-9.552-10.016-12.937-6.835-5.165-14.1-10.513-22.6-11.575-5.4-.674-11.21.393-16.062-2.065,2.159-.132,3.691-2.386,3.8-4.547s-.827-4.22-1.74-6.181q-.924-1.986-1.851-3.973c-2.507-5.378-6.618-11.688-12.493-10.844-1.746.251-3.663,1.128-5.15.178-1.366-.871-1.515-2.766-2.256-4.2-2.9-5.637-13.872-3.336-15.536-9.45-.433-1.593-.072-3.523-1.217-4.712-.928-.965-2.439-.982-3.778-.931l-18.213.669a6.953,6.953,0,0,1-3.931,5.6q.478,2.1.952,4.192c-.5,2.484-4.67,2.18-5.762-.106s-.036-5,1.245-7.177,2.856-4.409,2.822-6.939c-2.754-1.315-5.543,1.549-7.532,3.865s-5.885,4.326-7.708,1.876q.354,3.783.7,7.562c-3.911,3.416-10.965,1.923-13.156-2.788-1.515,1.872-3.176,3.844-5.492,4.494s-5.348-.8-5.339-3.206a12.051,12.051,0,0,0,11.66,9.081" transform="translate(1190.627 1234.388)" fill="#eceef1"/>
    <path id="패스_982" data-name="패스 982" d="M125.509,145.411c1.855,1.868,4.721-.943,7.332-1.268,2.522-.314,4.591,1.806,6.482,3.5s4.844,3.123,6.812,1.515c.943,3.933,6.41,5.9,9.64,3.463-.293,1.387,1.534,2.335,2.932,2.091s2.643-1.126,4.058-1.228a3.926,3.926,0,0,1,4.045,3.714c.045.75-1.007,1.026-1.734.837s-1.536-.565-2.176-.172c-.453.276-.625.835-.939,1.26-1.137,1.551-3.533.96-5.35.334s-4.407-.809-5.1.986a41.769,41.769,0,0,0,17.333-.257c-.467.446-.123,1.309.465,1.572a3.008,3.008,0,0,0,1.9-.036q3.633-.873,7.268-1.749a4.814,4.814,0,0,0,4.868.015c-.1.665-.2,1.332-.3,2a6.688,6.688,0,0,0,8.112-2.6l-12.089-2c-2.892-.478-5.858-.984-8.382-2.471-2.492-1.464-4.47-3.839-7.217-4.732-3.837-1.245-8.244.71-11.975-.826-3.614-1.487-5.885-5.983-9.79-6.055-1.268-.023-2.609.446-3.765-.083-2.924-1.341-2.539-4.115-6.327-2.671-.71.272-5.467,5.511-6.1,4.87" transform="translate(1188.723 1211.604)" fill="#eceef1"/>
    <path id="패스_983" data-name="패스 983" d="M279.994,106.646a19.983,19.983,0,0,0-1.95,12.153c1.245,7.137,6.782,13.734,5.22,20.813-2.416-.631-4.831-1.262-7.247-1.876" transform="translate(247.605 1173.939)" fill="#eceef1"/>
    <path id="패스_984" data-name="패스 984" d="M290.384,61.689c-.149.446-.336.873-.521,1.3" transform="translate(263.178 1123.378)" fill="#eceef1"/>
    <path id="패스_985" data-name="패스 985" d="M291.319,62.82a7.568,7.568,0,0,0-1.876-4.647" transform="translate(262.705 1119.424)" fill="#eceef1"/>
    <g transform="matrix(1, 0, 0, 1, 331, 964)" filter="url(#사각형_1003)">
      <rect id="사각형_1003-2" data-name="사각형 1003" width="99" height="52" rx="10" transform="translate(307 385)" fill="#fff"/>
    </g>
    <g transform="matrix(1, 0, 0, 1, 331, 964)" filter="url(#사각형_1000)">
      <rect id="사각형_1000-2" data-name="사각형 1000" width="130" height="52" rx="10" transform="translate(550 291)" fill="#fff"/>
    </g>
    <g transform="matrix(1, 0, 0, 1, 331, 964)" filter="url(#사각형_1008)">
      <rect id="사각형_1008-2" data-name="사각형 1008" width="130" height="52" rx="10" transform="translate(911 472)" fill="#fff"/>
    </g>
    <g transform="matrix(1, 0, 0, 1, 331, 964)" filter="url(#사각형_1009)">
      <rect id="사각형_1009-2" data-name="사각형 1009" width="130" height="52" rx="10" transform="translate(936 535)" fill="#fff"/>
    </g>
    <g transform="matrix(1, 0, 0, 1, 331, 964)" filter="url(#사각형_1002)">
      <rect id="사각형_1002-2" data-name="사각형 1002" width="130" height="52" rx="10" transform="translate(174 385)" fill="#fff"/>
    </g>
    <g transform="matrix(1, 0, 0, 1, 331, 964)" filter="url(#사각형_1006)">
      <rect id="사각형_1006-2" data-name="사각형 1006" width="130" height="52" rx="10" transform="translate(119 564)" fill="#fff"/>
    </g>
    <g transform="matrix(1, 0, 0, 1, 331, 964)" filter="url(#사각형_1007)">
      <rect id="사각형_1007-2" data-name="사각형 1007" width="150" height="52" rx="10" transform="translate(920 370)" fill="#fff"/>
    </g>
    <g id="그룹_1695" data-name="그룹 1695" transform="translate(-193 50)">
      <g transform="matrix(1, 0, 0, 1, 524, 914)" filter="url(#사각형_993)">
        <rect id="사각형_993-2" data-name="사각형 993" width="99" height="52" rx="10" transform="translate(30 256)" fill="#fff"/>
      </g>
      <g id="그룹_1560" data-name="그룹 1560" transform="translate(57.605 30.688)">
        <text id="France" transform="translate(546.395 1162.313)" fill="#111" font-size="18" font-family="Stolzl-Medium, Stolzl" font-weight="500"><tspan x="-32.202" y="0">France</tspan></text>
        <text id="lpsen" transform="translate(546.273 1180.991)" fill="#111" font-size="14" font-family="Stolzl-Book, Stolzl"><tspan x="-19.355" y="0">lpsen</tspan></text>
      </g>
    </g>
    <g id="그룹_1696" data-name="그룹 1696" transform="translate(-75 47)">
      <g transform="matrix(1, 0, 0, 1, 406, 917)" filter="url(#사각형_996)">
        <rect id="사각형_996-2" data-name="사각형 996" width="99" height="52" rx="10" transform="translate(30 312)" fill="#fff"/>
      </g>
      <g id="그룹_1577" data-name="그룹 1577" transform="translate(-60.395 89.688)">
        <text id="Spain" transform="translate(546.395 1162.313)" fill="#111" font-size="18" font-family="Stolzl-Medium, Stolzl" font-weight="500"><tspan x="-25.803" y="0">Spain</tspan></text>
        <text id="Uriach" transform="translate(546.273 1180.991)" fill="#111" font-size="14" font-family="Stolzl-Book, Stolzl"><tspan x="-23.226" y="0">Uriach</tspan></text>
      </g>
    </g>
    <g id="그룹_1698" data-name="그룹 1698" transform="translate(94 -61)">
      <g transform="matrix(1, 0, 0, 1, 237, 1025)" filter="url(#사각형_1001)">
        <rect id="사각형_1001-2" data-name="사각형 1001" width="83" height="52" rx="10" transform="translate(153 324)" fill="#fff"/>
      </g>
      <g id="그룹_1582" data-name="그룹 1582" transform="translate(-114.395 209.688)">
        <text id="Jordan" transform="translate(546.395 1162.313)" fill="#111" font-size="18" font-family="Stolzl-Medium, Stolzl" font-weight="500"><tspan x="-32.616" y="0">Jordan</tspan></text>
        <text id="LOM" transform="translate(546.273 1180.991)" fill="#111" font-size="14" font-family="Stolzl-Book, Stolzl"><tspan x="-15.127" y="0">LOM</tspan></text>
      </g>
    </g>
    <g id="그룹_1584" data-name="그룹 1584" transform="translate(141.605 209.688)">
      <text id="India" transform="translate(546.395 1162.313)" fill="#111" font-size="18" font-family="Stolzl-Medium, Stolzl" font-weight="500"><tspan x="-22.662" y="0">India</tspan></text>
      <text id="Emcure" transform="translate(546.273 1180.991)" fill="#111" font-size="14" font-family="Stolzl-Book, Stolzl"><tspan x="-26.894" y="0">Emcure</tspan></text>
    </g>
    <g id="그룹_1700" data-name="그룹 1700" transform="translate(30 25)">
      <g transform="matrix(1, 0, 0, 1, 301, 939)" filter="url(#사각형_999)">
        <rect id="사각형_999-2" data-name="사각형 999" width="95" height="52" rx="10" transform="translate(412 350)" fill="#fff"/>
      </g>
      <g id="그룹_1580" data-name="그룹 1580" transform="translate(214.605 149.688)">
        <text id="Thailand" transform="translate(546.395 1162.313)" fill="#111" font-size="18" font-family="Stolzl-Medium, Stolzl" font-weight="500"><tspan x="-39.402" y="0">Thailand</tspan></text>
        <text id="Biopharm" transform="translate(546.273 1180.991)" fill="#111" font-size="14" font-family="Stolzl-Book, Stolzl"><tspan x="-34.335" y="0">Biopharm</tspan></text>
      </g>
    </g>
    <g id="그룹_1581" data-name="그룹 1581" transform="translate(399.727 115.688)">
      <text id="JAPAN" transform="translate(546.395 1162.313)" fill="#111" font-size="18" font-family="Stolzl-Medium, Stolzl" font-weight="500"><tspan x="-30.33" y="0">JAPAN</tspan></text>
      <text id="AGA_Skin_Clinic" data-name="AGA Skin Clinic" transform="translate(546.273 1180.991)" fill="#111" font-size="14" font-family="Stolzl-Book, Stolzl"><tspan x="-53.879" y="0">AGA Skin Clinic</tspan></text>
    </g>
    <g id="그룹_1589" data-name="그룹 1589" transform="translate(760.727 296.688)">
      <text id="Ecuador" transform="translate(546.395 1162.313)" fill="#111" font-size="18" font-family="Stolzl-Medium, Stolzl" font-weight="500"><tspan x="-38.421" y="0">Ecuador</tspan></text>
      <text id="Difare" transform="translate(546.273 1180.991)" fill="#111" font-size="14" font-family="Stolzl-Book, Stolzl"><tspan x="-22.022" y="0">Difare</tspan></text>
    </g>
    <g id="그룹_1590" data-name="그룹 1590" transform="translate(785.727 359.688)">
      <text id="Peru" transform="translate(546.395 1162.313)" fill="#111" font-size="18" font-family="Stolzl-Medium, Stolzl" font-weight="500"><tspan x="-21.024" y="0">Peru</tspan></text>
      <text id="DroPesac" transform="translate(546.273 1180.991)" fill="#111" font-size="14" font-family="Stolzl-Book, Stolzl"><tspan x="-35.07" y="0">DroPesac</tspan></text>
    </g>
    <g id="그룹_1697" data-name="그룹 1697" transform="translate(-86 -9)">
      <g transform="matrix(1, 0, 0, 1, 417, 973)" filter="url(#사각형_997)">
        <rect id="사각형_997-2" data-name="사각형 997" width="130" height="52" rx="10" transform="translate(135 256)" fill="#fff"/>
      </g>
      <g id="그룹_1578" data-name="그룹 1578" transform="translate(70.605 89.688)">
        <text id="Switzerland" transform="translate(546.395 1162.313)" fill="#111" font-size="18" font-family="Stolzl-Medium, Stolzl" font-weight="500"><tspan x="-55.233" y="0">Switzerland</tspan></text>
        <text id="Effrx" transform="translate(546.273 1180.991)" fill="#111" font-size="14" font-family="Stolzl-Book, Stolzl"><tspan x="-17.479" y="0">Effrx</tspan></text>
      </g>
    </g>
    <g id="그룹_1583" data-name="그룹 1583" transform="translate(23.727 209.688)">
      <text id="Kuwait" transform="translate(546.395 1162.313)" fill="#111" font-size="18" font-family="Stolzl-Medium, Stolzl" font-weight="500"><tspan x="-32.112" y="0">Kuwait</tspan></text>
      <text id="Hadi_Pharmacy" data-name="Hadi Pharmacy" transform="translate(546.273 1180.991)" fill="#111" font-size="14" font-family="Stolzl-Book, Stolzl"><tspan x="-54.992" y="0">Hadi Pharmacy</tspan></text>
    </g>
    <g id="그룹_1701" data-name="그룹 1701" transform="translate(-62 86)">
      <g transform="matrix(1, 0, 0, 1, 393, 878)" filter="url(#사각형_1004)">
        <rect id="사각형_1004-3" data-name="사각형 1004" width="130" height="52" rx="10" transform="translate(360 471)" fill="#fff"/>
      </g>
      <g id="그룹_1585" data-name="그룹 1585" transform="translate(271.605 209.688)">
        <text id="Malaysia" transform="translate(546.395 1162.313)" fill="#111" font-size="18" font-family="Stolzl-Medium, Stolzl" font-weight="500"><tspan x="-40.887" y="0">Malaysia</tspan></text>
        <text id="Duopharma" transform="translate(546.273 1180.991)" fill="#111" font-size="14" font-family="Stolzl-Book, Stolzl"><tspan x="-42.287" y="0">Duopharma</tspan></text>
      </g>
    </g>
    <g id="그룹_1703" data-name="그룹 1703" transform="translate(-47 -160)">
      <g transform="matrix(1, 0, 0, 1, 378, 1124)" filter="url(#사각형_1004-2)">
        <rect id="사각형_1004-4" data-name="사각형 1004" width="130" height="52" rx="10" transform="translate(375 225)" fill="#fff"/>
      </g>
      <g id="그룹_1585-2" data-name="그룹 1585" transform="translate(271.605 209.688)">
        <text id="Mongolia" transform="translate(546.395 1162.313)" fill="#111" font-size="18" font-family="Stolzl-Medium, Stolzl" font-weight="500"><tspan x="-41.652" y="0">Mongolia</tspan></text>
        <text id="Asia_Pharma" data-name="Asia Pharma" transform="translate(546.273 1180.991)" fill="#111" font-size="14" font-family="Stolzl-Book, Stolzl"><tspan x="-45.542" y="0">Asia Pharma</tspan></text>
      </g>
    </g>
    <g id="그룹_1702" data-name="그룹 1702" transform="translate(15 -96)">
      <g transform="matrix(1, 0, 0, 1, 316, 1060)" filter="url(#사각형_1005)">
        <rect id="사각형_1005-2" data-name="사각형 1005" width="104" height="52" rx="10" transform="translate(511 350)" fill="#fff"/>
      </g>
      <g id="그룹_1586" data-name="그룹 1586" transform="translate(332.727 270.688)">
        <text id="Vitenam" transform="translate(546.395 1162.313)" fill="#111" font-size="18" font-family="Stolzl-Medium, Stolzl" font-weight="500"><tspan x="-39.033" y="0">Vitenam</tspan></text>
        <text id="HBN_ICA" data-name="HBN, ICA" transform="translate(546.273 1180.991)" fill="#111" font-size="14" font-family="Stolzl-Book, Stolzl"><tspan x="-31.591" y="0">HBN, ICA</tspan></text>
      </g>
    </g>
    <g id="그룹_1587" data-name="그룹 1587" transform="translate(-31.395 388.688)">
      <text id="S.Africa" transform="translate(546.395 1162.313)" fill="#111" font-size="18" font-family="Stolzl-Medium, Stolzl" font-weight="500"><tspan x="-37.449" y="0">S.Africa</tspan></text>
      <text id="Innovata" transform="translate(546.273 1180.991)" fill="#111" font-size="14" font-family="Stolzl-Book, Stolzl"><tspan x="-31.668" y="0">Innovata</tspan></text>
    </g>
    <g id="그룹_1699" data-name="그룹 1699" transform="translate(28 -13)">
      <g transform="matrix(1, 0, 0, 1, 303, 977)" filter="url(#사각형_998)">
        <rect id="사각형_998-2" data-name="사각형 998" width="150" height="52" rx="10" transform="translate(249 312)" fill="#fff"/>
      </g>
      <g id="그룹_1579" data-name="그룹 1579" transform="translate(80.727 149.688)">
        <text id="Iran" transform="translate(546.395 1162.313)" fill="#111" font-size="18" font-family="Stolzl-Medium, Stolzl" font-weight="500"><tspan x="-18.063" y="0">Iran</tspan></text>
        <text id="Koushan_Pharmed" data-name="Koushan Pharmed" transform="translate(546.273 1180.991)" fill="#111" font-size="14" font-family="Stolzl-Book, Stolzl"><tspan x="-65.296" y="0">Koushan Pharmed</tspan></text>
      </g>
    </g>
    <g id="그룹_1588" data-name="그룹 1588" transform="translate(779.727 194.688)">
      <text id="Guatemala" transform="translate(546.395 1162.313)" fill="#111" font-size="18" font-family="Stolzl-Medium, Stolzl" font-weight="500"><tspan x="-52.281" y="0">Guatemala</tspan></text>
      <text id="Novaconex" transform="translate(546.273 1180.991)" fill="#111" font-size="14" font-family="Stolzl-Book, Stolzl"><tspan x="-39.998" y="0">Novaconex</tspan></text>
    </g>
  </g>
</svg>
