<svg xmlns="http://www.w3.org/2000/svg" width="240" height="240" viewBox="0 0 240 240">
  <g id="그룹_3587" data-name="그룹 3587" transform="translate(-3241.847 -645)">
    <g id="그룹_3582" data-name="그룹 3582" transform="translate(3481.845 885) rotate(180)" opacity="0.04">
      <path id="패스_2068" data-name="패스 2068" d="M4,3.962,3.962,4H0L4,0Z" transform="translate(76.04 76.039)" fill="#fff"/>
      <path id="패스_2069" data-name="패스 2069" d="M19.6,0V3.962L3.962,19.6H0Z" transform="translate(60.436 60.435)" fill="#fff"/>
      <path id="패스_2070" data-name="패스 2070" d="M0,35.206,35.207,0V3.962L3.962,35.206Z" transform="translate(44.831 44.831)" fill="#fff"/>
      <path id="패스_2071" data-name="패스 2071" d="M0,50.81,50.811,0V3.962L3.962,50.81Z" transform="translate(29.227 29.227)" fill="#fff"/>
      <path id="패스_2072" data-name="패스 2072" d="M0,66.414,66.415,0V3.962L3.962,66.414Z" transform="translate(13.623 13.623)" fill="#fff"/>
      <path id="패스_2073" data-name="패스 2073" d="M0,80.037V78.056L78.057,0h1.981V1.981L1.981,80.037Z" transform="translate(0)" fill="#fff"/>
      <path id="패스_2074" data-name="패스 2074" d="M0,62.452,62.453,0h3.962L0,66.414Z" transform="translate(0)" fill="#fff"/>
      <path id="패스_2075" data-name="패스 2075" d="M0,46.848,46.849,0h3.962L0,50.81Z" transform="translate(0)" fill="#fff"/>
      <path id="패스_2076" data-name="패스 2076" d="M0,31.244,31.245,0h3.962L0,35.206Z" fill="#fff"/>
      <path id="패스_2077" data-name="패스 2077" d="M0,15.641,15.641,0H19.6L0,19.6Z" fill="#fff"/>
      <path id="패스_2078" data-name="패스 2078" d="M0,.036.036,0H4L0,4Z" transform="translate(0)" fill="#fff"/>
    </g>
    <g id="그룹_3583" data-name="그룹 3583" transform="translate(3481.846 805.058) rotate(180)" opacity="0.1">
      <path id="패스_2079" data-name="패스 2079" d="M0,11,27.969,38.965h11L0,0Z" transform="translate(0 41.073)" fill="#fff"/>
      <path id="패스_2080" data-name="패스 2080" d="M0,7.919H7.919L0,0Z" transform="translate(0 72.119)" fill="#fff"/>
      <path id="패스_2081" data-name="패스 2081" d="M0,11,12.446,23.442h11L0,0Z" transform="translate(0 56.596)" fill="#fff"/>
      <path id="패스_2082" data-name="패스 2082" d="M0,0,70.012,70.012v-11L11,0Z" transform="translate(10.026)" fill="#fff"/>
      <path id="패스_2083" data-name="패스 2083" d="M0,0V5.5L74.539,80.038h5.5v-5.5L5.5,0Z" fill="#fff"/>
      <path id="패스_2084" data-name="패스 2084" d="M7.919,0H0L7.919,7.919Z" transform="translate(72.119)" fill="#fff"/>
      <path id="패스_2085" data-name="패스 2085" d="M0,0,23.442,23.442v-11L11,0Z" transform="translate(56.596)" fill="#fff"/>
      <path id="패스_2086" data-name="패스 2086" d="M0,0,54.489,54.489v-11L11,0Z" transform="translate(25.549)" fill="#fff"/>
      <path id="패스_2087" data-name="패스 2087" d="M0,0,38.965,38.965v-11L11,0Z" transform="translate(41.073)" fill="#fff"/>
      <path id="패스_2088" data-name="패스 2088" d="M0,11,59.016,70.012h11L0,0Z" transform="translate(0 10.026)" fill="#fff"/>
      <path id="패스_2089" data-name="패스 2089" d="M0,11,43.493,54.489h11L0,0Z" transform="translate(0 25.549)" fill="#fff"/>
    </g>
    <g id="그룹_3584" data-name="그룹 3584" transform="translate(3321.885 725.153) rotate(180)" opacity="0.07">
      <path id="패스_2090" data-name="패스 2090" d="M38.965,11,11,38.965H0L38.965,0Z" transform="translate(41.073 41.073)" fill="#fff"/>
      <path id="패스_2091" data-name="패스 2091" d="M7.919,7.919H0L7.919,0Z" transform="translate(72.119 72.119)" fill="#fff"/>
      <path id="패스_2092" data-name="패스 2092" d="M23.442,11,11,23.442H0L23.442,0Z" transform="translate(56.596 56.596)" fill="#fff"/>
      <path id="패스_2093" data-name="패스 2093" d="M70.012,0,0,70.012v-11L59.016,0Z" fill="#fff"/>
      <path id="패스_2094" data-name="패스 2094" d="M80.038,0V5.5L5.5,80.038H0v-5.5L74.539,0Z" transform="translate(0)" fill="#fff"/>
      <path id="패스_2095" data-name="패스 2095" d="M0,0H7.919L0,7.919Z" transform="translate(0)" fill="#fff"/>
      <path id="패스_2096" data-name="패스 2096" d="M23.442,0,0,23.442v-11L12.446,0Z" transform="translate(0)" fill="#fff"/>
      <path id="패스_2097" data-name="패스 2097" d="M54.489,0,0,54.489v-11L43.493,0Z" transform="translate(0)" fill="#fff"/>
      <path id="패스_2098" data-name="패스 2098" d="M38.965,0,0,38.965v-11L27.969,0Z" transform="translate(0)" fill="#fff"/>
      <path id="패스_2099" data-name="패스 2099" d="M70.012,11,11,70.012H0L70.012,0Z" transform="translate(10.026 10.026)" fill="#fff"/>
      <path id="패스_2100" data-name="패스 2100" d="M54.489,11,11,54.489H0L54.489,0Z" transform="translate(25.549 25.549)" fill="#fff"/>
    </g>
    <g id="그룹_3585" data-name="그룹 3585" transform="translate(3321.925 805.133) rotate(180)" opacity="0.03">
      <rect id="사각형_2576" data-name="사각형 2576" width="80.038" height="12.005" fill="#fff"/>
      <rect id="사각형_2577" data-name="사각형 2577" width="80.038" height="12.005" transform="translate(0 22.678)" fill="#fff"/>
      <rect id="사각형_2578" data-name="사각형 2578" width="80.038" height="12.005" transform="translate(0 45.355)" fill="#fff"/>
      <rect id="사각형_2579" data-name="사각형 2579" width="80.038" height="12.005" transform="translate(0 68.033)" fill="#fff"/>
    </g>
    <g id="그룹_3586" data-name="그룹 3586" transform="translate(3401.866 645) rotate(90)" opacity="0.07">
      <rect id="사각형_2580" data-name="사각형 2580" width="2.402" height="80.038" fill="#fff"/>
      <rect id="사각형_2581" data-name="사각형 2581" width="2.402" height="80.038" transform="translate(11.091)" fill="#fff"/>
      <rect id="사각형_2582" data-name="사각형 2582" width="2.402" height="80.038" transform="translate(22.182)" fill="#fff"/>
      <rect id="사각형_2583" data-name="사각형 2583" width="2.402" height="80.038" transform="translate(33.273)" fill="#fff"/>
      <rect id="사각형_2584" data-name="사각형 2584" width="2.402" height="80.038" transform="translate(44.364)" fill="#fff"/>
      <rect id="사각형_2585" data-name="사각형 2585" width="2.402" height="80.038" transform="translate(55.455)" fill="#fff"/>
      <rect id="사각형_2586" data-name="사각형 2586" width="2.402" height="80.038" transform="translate(66.546)" fill="#fff"/>
      <rect id="사각형_2587" data-name="사각형 2587" width="2.402" height="80.038" transform="translate(77.637)" fill="#fff"/>
    </g>
  </g>
</svg>
