<svg xmlns="http://www.w3.org/2000/svg" width="240" height="240" viewBox="0 0 240 240">
  <g id="그룹_3581" data-name="그룹 3581" transform="translate(-2492 -145)">
    <g id="그룹_3576" data-name="그룹 3576" transform="translate(2492 145)" opacity="0.07">
      <path id="패스_2029" data-name="패스 2029" d="M539.664,396.85l38.493,38.492v-7.2L546.868,396.85Z" transform="translate(-498.118 -396.85)" fill="#fff"/>
      <path id="패스_2030" data-name="패스 2030" d="M510.236,447.695l11.223,11.223h7.2l-18.427-18.427Z" transform="translate(-510.236 -378.88)" fill="#fff"/>
      <path id="패스_2031" data-name="패스 2031" d="M553.877,396.85,572.3,415.277v-7.2L561.081,396.85Z" transform="translate(-492.265 -396.85)" fill="#fff"/>
      <path id="패스_2032" data-name="패스 2032" d="M510.236,454.8l1.19,1.19h7.2l-8.394-8.394Z" transform="translate(-510.236 -375.954)" fill="#fff"/>
      <path id="패스_2033" data-name="패스 2033" d="M560.984,396.85l8.394,8.394v-7.2l-1.19-1.19Z" transform="translate(-489.339 -396.85)" fill="#fff"/>
      <path id="패스_2034" data-name="패스 2034" d="M510.236,440.588l21.256,21.256h7.2l-28.46-28.459Z" transform="translate(-510.236 -381.807)" fill="#fff"/>
      <path id="패스_2035" data-name="패스 2035" d="M546.771,396.85l28.46,28.459v-7.2L553.974,396.85Z" transform="translate(-495.192 -396.85)" fill="#fff"/>
      <path id="패스_2036" data-name="패스 2036" d="M518.345,396.85l68.591,68.59v-7.2L525.548,396.85Z" transform="translate(-506.897 -396.85)" fill="#fff"/>
      <path id="패스_2037" data-name="패스 2037" d="M511.238,396.85l78.624,78.623v-7.2l-71.42-71.419Z" transform="translate(-509.824 -396.85)" fill="#fff"/>
      <path id="패스_2038" data-name="패스 2038" d="M510.236,426.375,551.558,467.7h7.2l-48.525-48.525Z" transform="translate(-510.236 -387.659)" fill="#fff"/>
      <path id="패스_2039" data-name="패스 2039" d="M510.236,405.056l71.42,71.419h7.2l-78.624-78.623Z" transform="translate(-510.236 -396.438)" fill="#fff"/>
      <path id="패스_2040" data-name="패스 2040" d="M532.557,396.85l48.525,48.525v-7.2L539.761,396.85Z" transform="translate(-501.044 -396.85)" fill="#fff"/>
      <path id="패스_2041" data-name="패스 2041" d="M510.236,419.269l51.355,51.354h7.2l-58.558-58.558Z" transform="translate(-510.236 -390.585)" fill="#fff"/>
      <path id="패스_2042" data-name="패스 2042" d="M510.236,412.162l61.387,61.387h7.2l-68.591-68.59Z" transform="translate(-510.236 -393.512)" fill="#fff"/>
      <path id="패스_2043" data-name="패스 2043" d="M525.451,396.85l58.558,58.558v-7.2L532.655,396.85Z" transform="translate(-503.971 -396.85)" fill="#fff"/>
      <path id="패스_2044" data-name="패스 2044" d="M510.236,433.482l31.289,31.288h7.2l-38.493-38.492Z" transform="translate(-510.236 -384.733)" fill="#fff"/>
    </g>
    <g id="그룹_3577" data-name="그룹 3577" transform="translate(2651.961 304.963)" opacity="0.09">
      <path id="패스_2045" data-name="패스 2045" d="M596.079,169.241l-.8.8v22.64l23.443-23.443Z" transform="translate(-595.276 -169.241)" fill="#fff"/>
      <path id="패스_2046" data-name="패스 2046" d="M658.807,231.968v-22.64l-23.443,23.443H658Z" transform="translate(-578.768 -152.734)" fill="#fff"/>
      <path id="패스_2047" data-name="패스 2047" d="M668.711,185.275l-57.4,57.4h22.64l34.761-34.761Z" transform="translate(-588.673 -162.638)" fill="#fff"/>
      <path id="패스_2048" data-name="패스 2048" d="M630.037,169.241,595.276,204V226.64l57.4-57.4Z" transform="translate(-595.276 -169.241)" fill="#fff"/>
      <path id="패스_2049" data-name="패스 2049" d="M675.314,169.241h-11.32l-68.718,68.717v11.32H606.6l68.718-68.718Z" transform="translate(-595.276 -169.241)" fill="#fff"/>
    </g>
    <g id="그룹_3578" data-name="그룹 3578" transform="translate(2492.001 224.981)" opacity="0.04">
      <rect id="사각형_2568" data-name="사각형 2568" width="2.402" height="80.039" fill="#fff"/>
      <rect id="사각형_2569" data-name="사각형 2569" width="2.402" height="80.039" transform="translate(11.091)" fill="#fff"/>
      <rect id="사각형_2570" data-name="사각형 2570" width="2.402" height="80.039" transform="translate(22.182)" fill="#fff"/>
      <rect id="사각형_2571" data-name="사각형 2571" width="2.402" height="80.039" transform="translate(33.274)" fill="#fff"/>
      <rect id="사각형_2572" data-name="사각형 2572" width="2.402" height="80.039" transform="translate(44.365)" fill="#fff"/>
      <rect id="사각형_2573" data-name="사각형 2573" width="2.402" height="80.039" transform="translate(55.456)" fill="#fff"/>
      <rect id="사각형_2574" data-name="사각형 2574" width="2.402" height="80.039" transform="translate(66.547)" fill="#fff"/>
      <rect id="사각형_2575" data-name="사각형 2575" width="2.402" height="80.039" transform="translate(77.638)" fill="#fff"/>
    </g>
    <g id="그룹_3579" data-name="그룹 3579" transform="translate(2571.982 224.98)" opacity="0.04">
      <path id="패스_2050" data-name="패스 2050" d="M510.236,442.7l23.444,23.444h22.638l-46.082-46.082Z" transform="translate(-510.236 -386.108)" fill="#fff"/>
      <path id="패스_2051" data-name="패스 2051" d="M534.288,396.012l46.082,46.082V419.456l-23.444-23.444Z" transform="translate(-500.332 -396.012)" fill="#fff"/>
      <path id="패스_2052" data-name="패스 2052" d="M510.236,396.012v11.32l68.718,68.718h11.32V464.732l-68.72-68.72Z" transform="translate(-510.236 -396.012)" fill="#fff"/>
    </g>
    <g id="그룹_3580" data-name="그룹 3580" transform="translate(2651.96 224.98)" opacity="0.12">
      <path id="패스_2053" data-name="패스 2053" d="M433.513,283.464l-8.317,8.317v2.264l10.58-10.58Z" transform="translate(-425.197 -283.464)" fill="#fff"/>
      <path id="패스_2054" data-name="패스 2054" d="M443.6,283.464l-18.4,18.4v2.264l20.665-20.665Z" transform="translate(-425.197 -283.464)" fill="#fff"/>
      <path id="패스_2055" data-name="패스 2055" d="M425.2,311.95v2.264l30.749-30.749h-2.264Z" transform="translate(-425.197 -283.464)" fill="#fff"/>
      <path id="패스_2056" data-name="패스 2056" d="M425.2,324.3l40.834-40.834h-2.264l-38.57,38.57Z" transform="translate(-425.197 -283.464)" fill="#fff"/>
      <path id="패스_2057" data-name="패스 2057" d="M425.2,334.383l50.918-50.918h-2.264L425.2,332.119Z" transform="translate(-425.197 -283.464)" fill="#fff"/>
      <path id="패스_2058" data-name="패스 2058" d="M425.2,344.467l61-61h-2.264L425.2,342.2Z" transform="translate(-425.197 -283.464)" fill="#fff"/>
      <path id="패스_2059" data-name="패스 2059" d="M425.2,354.552l71.087-71.087H494.02L425.2,352.288Z" transform="translate(-425.197 -283.464)" fill="#fff"/>
      <path id="패스_2060" data-name="패스 2060" d="M425.2,363.5h1.132L505.237,284.6v-1.132H504.1L425.2,362.372Z" transform="translate(-425.197 -283.464)" fill="#fff"/>
      <path id="패스_2061" data-name="패스 2061" d="M433.8,360.893l68.823-68.823v-2.264l-71.087,71.087Z" transform="translate(-422.586 -280.853)" fill="#fff"/>
      <path id="패스_2062" data-name="패스 2062" d="M440.945,357.951l58.739-58.739v-2.264l-61,61Z" transform="translate(-419.644 -277.912)" fill="#fff"/>
      <path id="패스_2063" data-name="패스 2063" d="M448.088,355.01l48.655-48.655v-2.264L445.824,355.01Z" transform="translate(-416.702 -274.97)" fill="#fff"/>
      <path id="패스_2064" data-name="패스 2064" d="M455.231,352.068,493.8,313.5v-2.264l-40.834,40.834Z" transform="translate(-413.761 -272.028)" fill="#fff"/>
      <path id="패스_2065" data-name="패스 2065" d="M462.373,349.126l28.486-28.486v-2.264L460.11,349.126Z" transform="translate(-410.819 -269.087)" fill="#fff"/>
      <path id="패스_2066" data-name="패스 2066" d="M469.516,346.185l18.4-18.4V325.52l-20.665,20.665Z" transform="translate(-407.878 -266.145)" fill="#fff"/>
      <path id="패스_2067" data-name="패스 2067" d="M476.659,343.243l8.317-8.317v-2.264l-10.58,10.58Z" transform="translate(-404.936 -263.204)" fill="#fff"/>
    </g>
  </g>
</svg>
