<svg xmlns="http://www.w3.org/2000/svg" width="240" height="240.001" viewBox="0 0 240 240.001">
  <g id="그룹_3593" data-name="그룹 3593" transform="translate(-3742 -145)">
    <g id="그룹_3588" data-name="그룹 3588" transform="translate(3742 145)" opacity="0.07">
      <path id="패스_2101" data-name="패스 2101" d="M510.236,320.636,540.9,351.3h7.8l-38.46-38.46Z" transform="translate(-510.236 -271.487)" fill="#fff"/>
      <path id="패스_2102" data-name="패스 2102" d="M510.236,342.065l.494.495h7.8l-8.293-8.293Z" transform="translate(-510.236 -262.749)" fill="#fff"/>
      <path id="패스_2103" data-name="패스 2103" d="M510.236,327.779l20.606,20.606h7.8l-28.4-28.4Z" transform="translate(-510.236 -268.574)" fill="#fff"/>
      <path id="패스_2104" data-name="패스 2104" d="M510.236,334.922l10.55,10.55h7.8l-18.348-18.349Z" transform="translate(-510.236 -265.661)" fill="#fff"/>
      <path id="패스_2105" data-name="패스 2105" d="M510.236,313.493l40.717,40.717h7.8l-48.515-48.515Z" transform="translate(-510.236 -274.4)" fill="#fff"/>
      <path id="패스_2106" data-name="패스 2106" d="M511.038,283.464l78.682,78.682v-7.8l-70.884-70.884Z" transform="translate(-509.909 -283.464)" fill="#fff"/>
      <path id="패스_2107" data-name="패스 2107" d="M553.9,283.464l18.349,18.348v-7.8l-10.55-10.55Z" transform="translate(-492.433 -283.464)" fill="#fff"/>
      <path id="패스_2108" data-name="패스 2108" d="M561.038,283.464l8.293,8.293v-7.8l-.494-.494Z" transform="translate(-489.521 -283.464)" fill="#fff"/>
      <path id="패스_2109" data-name="패스 2109" d="M518.181,283.464l68.627,68.626v-7.8l-60.828-60.828Z" transform="translate(-506.997 -283.464)" fill="#fff"/>
      <path id="패스_2110" data-name="패스 2110" d="M510.236,292.064l70.884,70.884h7.8l-78.682-78.682Z" transform="translate(-510.236 -283.137)" fill="#fff"/>
      <path id="패스_2111" data-name="패스 2111" d="M539.609,283.464l38.46,38.46v-7.8l-30.661-30.661Z" transform="translate(-498.259 -283.464)" fill="#fff"/>
      <path id="패스_2112" data-name="패스 2112" d="M546.753,283.464l28.4,28.4v-7.8l-20.606-20.606Z" transform="translate(-495.346 -283.464)" fill="#fff"/>
      <path id="패스_2113" data-name="패스 2113" d="M532.467,283.464l48.515,48.515v-7.8l-40.717-40.717Z" transform="translate(-501.171 -283.464)" fill="#fff"/>
      <path id="패스_2114" data-name="패스 2114" d="M525.324,283.464l58.571,58.571v-7.8l-50.773-50.772Z" transform="translate(-504.084 -283.464)" fill="#fff"/>
      <path id="패스_2115" data-name="패스 2115" d="M510.236,306.35l50.772,50.773h7.8l-58.571-58.571Z" transform="translate(-510.236 -277.312)" fill="#fff"/>
      <path id="패스_2116" data-name="패스 2116" d="M510.236,299.207l60.828,60.828h7.8l-68.626-68.627Z" transform="translate(-510.236 -280.225)" fill="#fff"/>
    </g>
    <g id="그룹_3589" data-name="그룹 3589" transform="translate(3822.094 145.001)" opacity="0.07">
      <path id="패스_2117" data-name="패스 2117" d="M363.533,120.953h5.642L340.158,91.935v5.642Z" transform="translate(-340.158 -41.143)" fill="#fff"/>
      <path id="패스_2118" data-name="패스 2118" d="M404.918,131.306,340.158,66.545v5.642l59.119,59.118Z" transform="translate(-340.158 -51.496)" fill="#fff"/>
      <path id="패스_2119" data-name="패스 2119" d="M415.608,114.972,356.491,55.855h-5.642l64.76,64.76Z" transform="translate(-335.798 -55.855)" fill="#fff"/>
      <path id="패스_2120" data-name="패스 2120" d="M405.255,79.23,381.88,55.855h-5.642l29.017,29.017Z" transform="translate(-325.445 -55.855)" fill="#fff"/>
    </g>
    <g id="그룹_3590" data-name="그룹 3590" transform="translate(3902.189 224.812) rotate(90)" opacity="0.07">
      <path id="패스_2121" data-name="패스 2121" d="M23.375,29.017h5.642L0,0V5.642Z" transform="translate(0 50.793)" fill="#fff"/>
      <path id="패스_2122" data-name="패스 2122" d="M64.761,64.761,0,0V5.642L59.119,64.761Z" transform="translate(0 15.049)" fill="#fff"/>
      <path id="패스_2123" data-name="패스 2123" d="M64.76,59.117,5.642,0H0L64.76,64.76Z" transform="translate(15.05)" fill="#fff"/>
      <path id="패스_2124" data-name="패스 2124" d="M29.017,23.375,5.642,0H0L29.017,29.017Z" transform="translate(50.793)" fill="#fff"/>
    </g>
    <g id="그룹_3591" data-name="그룹 3591" transform="translate(3821.812 385) rotate(180)" opacity="0.04">
      <rect id="사각형_2588" data-name="사각형 2588" width="79.811" height="15.962" transform="translate(0)" fill="#fff"/>
      <rect id="사각형_2589" data-name="사각형 2589" width="79.811" height="15.962" transform="translate(0 31.924)" fill="#fff"/>
      <rect id="사각형_2590" data-name="사각형 2590" width="79.811" height="15.962" transform="translate(0 63.849)" fill="#fff"/>
    </g>
    <g id="그룹_3592" data-name="그룹 3592" transform="translate(3902.189 224.811)" opacity="0.07">
      <path id="패스_2125" data-name="패스 2125" d="M850.394,777.065l27.89,27.89h10.965L850.394,766.1Z" transform="translate(-850.394 -725.145)" fill="#fff"/>
      <path id="패스_2126" data-name="패스 2126" d="M850.394,795.988h7.9l-7.9-7.9Z" transform="translate(-850.394 -716.177)" fill="#fff"/>
      <path id="패스_2127" data-name="패스 2127" d="M850.394,788.061,862.8,800.472h10.965L850.394,777.1Z" transform="translate(-850.394 -720.661)" fill="#fff"/>
      <path id="패스_2128" data-name="패스 2128" d="M857.5,737.008l69.813,69.813V795.856L868.46,737.008Z" transform="translate(-847.498 -737.008)" fill="#fff"/>
      <path id="패스_2129" data-name="패스 2129" d="M850.394,737.008v5.483l74.328,74.328H930.2v-5.483l-74.328-74.328Z" transform="translate(-850.394 -737.008)" fill="#fff"/>
      <path id="패스_2130" data-name="패스 2130" d="M909.374,737.008h-7.9l7.9,7.9Z" transform="translate(-829.563 -737.008)" fill="#fff"/>
      <path id="패스_2131" data-name="패스 2131" d="M890.482,737.008l23.375,23.375V749.419l-12.411-12.411Z" transform="translate(-834.047 -737.008)" fill="#fff"/>
      <path id="패스_2132" data-name="패스 2132" d="M868.491,737.008l54.334,54.334V780.377l-43.369-43.369Z" transform="translate(-843.014 -737.008)" fill="#fff"/>
      <path id="패스_2133" data-name="패스 2133" d="M879.486,737.008l38.855,38.855V764.9l-27.89-27.89Z" transform="translate(-838.531 -737.008)" fill="#fff"/>
      <path id="패스_2134" data-name="패스 2134" d="M850.394,755.074l58.848,58.848h10.965L850.394,744.11Z" transform="translate(-850.394 -734.112)" fill="#fff"/>
      <path id="패스_2135" data-name="패스 2135" d="M850.394,766.07l43.369,43.369h10.965L850.394,755.1Z" transform="translate(-850.394 -729.628)" fill="#fff"/>
    </g>
  </g>
</svg>
