<svg xmlns="http://www.w3.org/2000/svg" width="130" height="90" viewBox="0 0 130 90">
  <g id="그룹_3525" data-name="그룹 3525" transform="translate(-659.209 -617.542)">
    <rect id="사각형_2546" data-name="사각형 2546" width="130" height="90" transform="translate(659.209 617.542)" fill="none"/>
    <g id="그룹_3524" data-name="그룹 3524" transform="translate(682.209 632.542)">
      <path id="패스_2003" data-name="패스 2003" d="M697.72,645.037a9.379,9.379,0,1,1,9.38-9.378A9.39,9.39,0,0,1,697.72,645.037Zm0-15.461a6.082,6.082,0,1,0,6.083,6.083A6.09,6.09,0,0,0,697.72,629.576Z" transform="translate(-664.49 -626.28)" fill="#009de8"/>
      <path id="패스_2004" data-name="패스 2004" d="M683.576,645.037a9.379,9.379,0,1,1,9.379-9.378A9.39,9.39,0,0,1,683.576,645.037Zm0-15.461a6.082,6.082,0,1,0,6.083,6.083A6.091,6.091,0,0,0,683.576,629.576Z" transform="translate(-673.659 -626.28)" fill="#009de8"/>
      <path id="패스_2005" data-name="패스 2005" d="M711.871,645.037a9.379,9.379,0,1,1,9.379-9.378A9.389,9.389,0,0,1,711.871,645.037Zm0-15.461a6.082,6.082,0,1,0,6.083,6.083A6.089,6.089,0,0,0,711.871,629.576Z" transform="translate(-655.319 -626.28)" fill="#009de8"/>
      <g id="그룹_3523" data-name="그룹 3523" transform="translate(65.925 40.419)">
        <path id="패스_2006" data-name="패스 2006" d="M732,659.1H715.518a1.648,1.648,0,0,1,0-3.3H732a1.648,1.648,0,0,1,0,3.3Z" transform="translate(-713.87 -647.563)" fill="#009de8"/>
        <path id="패스_2007" data-name="패스 2007" d="M720.518,670.582a1.648,1.648,0,0,1-1.648-1.648V652.452a1.648,1.648,0,1,1,3.3,0v16.481A1.649,1.649,0,0,1,720.518,670.582Z" transform="translate(-710.629 -650.804)" fill="#009de8"/>
      </g>
      <path id="패스_2008" data-name="패스 2008" d="M702.415,677.333a1.648,1.648,0,0,1-1.648-1.648V652.611a12.223,12.223,0,1,1,24.446,0v5.558a1.648,1.648,0,0,1-3.3,0v-5.558a8.927,8.927,0,1,0-17.854,0v23.074A1.649,1.649,0,0,1,702.415,677.333Z" transform="translate(-656.437 -617.137)" fill="#009de8"/>
      <path id="패스_2009" data-name="패스 2009" d="M688.518,677.333a1.648,1.648,0,0,1-1.648-1.648V652.611a12.237,12.237,0,0,1,12.223-12.224,1.648,1.648,0,0,1,0,3.3,8.935,8.935,0,0,0-8.926,8.928v23.074A1.649,1.649,0,0,1,688.518,677.333Z" transform="translate(-665.444 -617.137)" fill="#009de8"/>
      <path id="패스_2010" data-name="패스 2010" d="M675.518,677.333a1.648,1.648,0,0,1-1.648-1.648V652.611a12.237,12.237,0,0,1,12.223-12.224,1.648,1.648,0,1,1,0,3.3,8.935,8.935,0,0,0-8.926,8.928v23.074A1.649,1.649,0,0,1,675.518,677.333Z" transform="translate(-673.87 -617.137)" fill="#009de8"/>
    </g>
  </g>
</svg>
