<svg id="그룹_5514" data-name="그룹 5514" xmlns="http://www.w3.org/2000/svg" xmlns:xlink="http://www.w3.org/1999/xlink" width="80" height="80" viewBox="0 0 80 80">
  <defs>
    <clipPath id="clip-path">
      <rect id="사각형_4192" data-name="사각형 4192" width="80" height="80" fill="none"/>
    </clipPath>
  </defs>
  <g id="그룹_5514-2" data-name="그룹 5514" clip-path="url(#clip-path)">
    <path id="합치기_21" data-name="합치기 21" d="M28.252,35.168a12.645,12.645,0,1,0-25.289,0,1.481,1.481,0,0,1-2.963,0,15.633,15.633,0,0,1,9.58-14.4,11.264,11.264,0,1,1,12.055,0,15.63,15.63,0,0,1,9.582,14.4,1.482,1.482,0,0,1-2.965,0ZM7.3,11.264a8.3,8.3,0,1,0,8.3-8.3A8.309,8.309,0,0,0,7.3,11.264ZM35.391,22.475V18.518H31.434a1.481,1.481,0,0,1,0-2.963h3.957V11.605a1.481,1.481,0,0,1,2.963,0v3.949H42.3a1.481,1.481,0,0,1,0,2.963H38.354v3.957a1.481,1.481,0,0,1-2.963,0Z" transform="translate(18.105 21.675)" fill="#fff"/>
  </g>
</svg>
