<svg xmlns="http://www.w3.org/2000/svg" width="80" height="80" viewBox="0 0 80 80">
  <g id="그룹_5387" data-name="그룹 5387" transform="translate(-117.26 -1155.082)">
    <rect id="사각형_4066" data-name="사각형 4066" width="80" height="80" transform="translate(117.26 1155.082)" fill="none"/>
    <g id="그룹_5386" data-name="그룹 5386" transform="translate(128.017 1172.057)">
      <path id="패스_3123" data-name="패스 3123" d="M153.765,1166.54c-16.673,0-29.244,5.191-29.244,12.075,0,5.692,8.738,10.315,21.6,11.674l-.464.464a1.481,1.481,0,1,0,2.095,2.095l2.933-2.933a1.69,1.69,0,0,0,.53-2.626,1.445,1.445,0,0,0-.532-.333l-2.932-2.932a1.481,1.481,0,0,0-2.095,2.095l1.283,1.281c-12.087-1.188-19.459-5.336-19.459-8.784,0-4.31,10.794-9.113,26.281-9.113s26.28,4.8,26.28,9.113c0,3.079-5.91,6.992-17.2,8.52a1.482,1.482,0,0,0,.4,2.938c12.01-1.625,19.77-6.122,19.77-11.458C183.008,1171.731,170.436,1166.54,153.765,1166.54Z" transform="translate(-124.521 -1166.54)" fill="#009de8"/>
      <path id="패스_3124" data-name="패스 3124" d="M138.338,1194.336v-.11a2.725,2.725,0,0,0,2.542-2.69c.018-2.138-1.9-3.741-4.68-3.723-2.8-.018-4.844,1.6-4.864,3.907h2.911a1.732,1.732,0,0,1,1.953-1.51,1.536,1.536,0,0,1,1.732,1.51c0,.922-.828,1.566-2.027,1.548h-1.252v2.21h1.252c1.382,0,2.267.664,2.249,1.585.018.957-.812,1.619-1.99,1.619-1.142,0-1.991-.607-2.028-1.473h-3.095c.056,2.339,2.157,3.979,5.123,3.979,3.039,0,5.213-1.621,5.194-3.87C141.378,1195.7,140.328,1194.557,138.338,1194.336Z" transform="translate(-121.381 -1156.298)" fill="#009de8"/>
      <path id="패스_3125" data-name="패스 3125" d="M145.539,1192.42a3.585,3.585,0,0,0-3.354,1.879h-.11c.018-2.376.828-3.887,2.468-3.87a1.7,1.7,0,0,1,1.841,1.29h3.022a4.57,4.57,0,0,0-4.864-3.907c-3.316-.018-5.473,2.6-5.49,6.927,0,4.754,2.6,6.431,5.453,6.449,2.985,0,5.049-1.88,5.049-4.606A3.95,3.95,0,0,0,145.539,1192.42Zm-1.07,6.41a2.106,2.106,0,0,1-2.1-2.136,2.076,2.076,0,0,1,2.1-2.1,2.023,2.023,0,0,1,2.1,2.1A2.072,2.072,0,0,1,144.469,1198.831Z" transform="translate(-117.524 -1156.298)" fill="#009de8"/>
      <path id="패스_3126" data-name="패스 3126" d="M152.666,1187.813c-3.37-.018-5.434,2.413-5.453,6.67.019,4.274,2.083,6.707,5.453,6.707,3.409,0,5.473-2.413,5.49-6.707C158.139,1190.226,156.057,1187.8,152.666,1187.813Zm0,10.87c-1.363,0-2.3-1.307-2.284-4.2,0-2.837.921-4.2,2.284-4.2,1.4,0,2.321,1.363,2.321,4.2C154.988,1197.376,154.066,1198.683,152.666,1198.683Z" transform="translate(-113.595 -1156.298)" fill="#009de8"/>
      <path id="패스_3127" data-name="패스 3127" d="M157.9,1185.687a3.237,3.237,0,1,0,3.237,3.236A3.24,3.24,0,0,0,157.9,1185.687Zm0,4.252a1.015,1.015,0,1,1,1.015-1.016A1.017,1.017,0,0,1,157.9,1189.939Z" transform="translate(-110.006 -1157.321)" fill="#009de8"/>
    </g>
  </g>
</svg>
