<svg id="그룹_5446" data-name="그룹 5446" xmlns="http://www.w3.org/2000/svg" xmlns:xlink="http://www.w3.org/1999/xlink" width="130" height="90" viewBox="0 0 130 90">
  <defs>
    <clipPath id="clip-path">
      <rect id="사각형_4100" data-name="사각형 4100" width="130" height="90" fill="#009de8"/>
    </clipPath>
  </defs>
  <g id="그룹_5445" data-name="그룹 5445" clip-path="url(#clip-path)">
    <path id="패스_3173" data-name="패스 3173" d="M47.626,53.46c-6.4,0-11.192-1.725-14.241-5.13a13.763,13.763,0,0,1-3.349-9.71l-.008-27.435a1.642,1.642,0,0,1,1.617-1.667H48.123v3.333H33.262V38.775a10.537,10.537,0,0,0,2.53,7.33c2.487,2.747,6.624,4.147,12.308,4.018l.045,3.333c-.175,0-.348,0-.519,0" transform="translate(18.513 6.345)" fill="#009de8"/>
    <path id="패스_3174" data-name="패스 3174" d="M40.026,53.46c-.171,0-.344,0-.519,0l.045-3.333c5.745.15,9.858-1.282,12.338-4.055A10.3,10.3,0,0,0,54.4,38.931l-.006-26.08H39.53V9.518H56.007a1.642,1.642,0,0,1,1.617,1.667v27.59a13.7,13.7,0,0,1-3.357,9.555c-3.049,3.4-7.839,5.13-14.241,5.13" transform="translate(24.371 6.345)" fill="#009de8"/>
    <path id="패스_3175" data-name="패스 3175" d="M40.984,51.549a1.642,1.642,0,0,1-1.617-1.667V35.549a1.618,1.618,0,1,1,3.234,0V49.882a1.642,1.642,0,0,1-1.617,1.667" transform="translate(24.285 22.588)" fill="#009de8"/>
    <path id="패스_3176" data-name="패스 3176" d="M56.991,45.815H33.818a1.667,1.667,0,0,1,0-3.333H56.991a1.667,1.667,0,0,1,0,3.333" transform="translate(19.864 28.321)" fill="#009de8"/>
    <path id="패스_3177" data-name="패스 3177" d="M34.84,31.2c-6.885-.312-7.887-3.787-8.951-7.465-.144-.5-.293-1.017-.464-1.553a3.542,3.542,0,0,1,.542-3.5c2.028-2.428,7.567-1.672,9.216-1.38l-.543,3.285c-2.918-.51-5.769-.273-6.215.26.01.008.013.1.071.29.183.57.341,1.12.493,1.647,1,3.452,1.41,4.878,5.994,5.087Z" transform="translate(15.547 11.302)" fill="#009de8"/>
    <path id="패스_3178" data-name="패스 3178" d="M49.371,31.2l-.142-3.33c4.584-.208,5-1.635,5.994-5.087.152-.527.31-1.077.493-1.647a.862.862,0,0,0,.06-.323c-.445-.56-3.53-.692-6.2-.227L49.028,17.3c1.651-.29,7.187-1.05,9.216,1.38a3.542,3.542,0,0,1,.542,3.5c-.171.537-.32,1.055-.464,1.553-1.064,3.678-2.066,7.153-8.951,7.465" transform="translate(30.244 11.302)" fill="#009de8"/>
    <path id="패스_3179" data-name="패스 3179" d="M68.44,37.828H57.122a1.667,1.667,0,0,1,0-3.333H68.44a1.667,1.667,0,0,1,0,3.333" transform="translate(34.24 22.997)" fill="#009de8"/>
    <path id="패스_3180" data-name="패스 3180" d="M60.622,45.995A1.642,1.642,0,0,1,59,44.328V32.662a1.618,1.618,0,1,1,3.234,0V44.328a1.642,1.642,0,0,1-1.617,1.667" transform="translate(36.399 20.663)" fill="#009de8"/>
    <path id="패스_3181" data-name="패스 3181" d="M25.069,26.785H17.122a1.667,1.667,0,0,1,0-3.333h7.947a1.667,1.667,0,0,1,0,3.333" transform="translate(9.565 15.635)" fill="#009de8"/>
    <path id="패스_3182" data-name="패스 3182" d="M19.579,32.52a1.642,1.642,0,0,1-1.617-1.667V22.662a1.618,1.618,0,1,1,3.234,0v8.192a1.642,1.642,0,0,1-1.617,1.667" transform="translate(11.08 13.997)" fill="#009de8"/>
  </g>
</svg>
