<svg xmlns="http://www.w3.org/2000/svg" xmlns:xlink="http://www.w3.org/1999/xlink" width="60" height="60" viewBox="0 0 60 60">
  <defs>
    <clipPath id="clip-path">
      <rect id="사각형_2601" data-name="사각형 2601" width="60" height="60" transform="translate(0)" fill="none"/>
    </clipPath>
  </defs>
  <g id="그룹_3610" data-name="그룹 3610" transform="translate(-0.128)">
    <g id="그룹_3609" data-name="그룹 3609" transform="translate(0.128)" clip-path="url(#clip-path)">
      <g id="그룹_3611" data-name="그룹 3611">
        <path id="패스_2176" data-name="패스 2176" d="M40.751,46.394a1.132,1.132,0,0,1,0-2.264,2.884,2.884,0,0,0,2.869-2.895V9.684A2.884,2.884,0,0,0,40.751,6.79h-23.8A2.883,2.883,0,0,0,14.08,9.684V41.235a2.883,2.883,0,0,0,2.868,2.895h5.119a1.132,1.132,0,0,1,0,2.264H16.948a5.141,5.141,0,0,1-5.112-5.159V9.684a5.14,5.14,0,0,1,5.112-5.158h23.8a5.141,5.141,0,0,1,5.113,5.158V41.235a5.141,5.141,0,0,1-5.113,5.159" transform="translate(1.313 0.598)" fill="#009de8"/>
        <path id="패스_2177" data-name="패스 2177" d="M30.328,43.758a6.312,6.312,0,1,1,6.255-6.311,6.291,6.291,0,0,1-6.255,6.311m0-10.358a4.047,4.047,0,1,0,4.011,4.047A4.035,4.035,0,0,0,30.328,33.4" transform="translate(2.806 4.112)" fill="#009de8"/>
        <path id="패스_2178" data-name="패스 2178" d="M33.324,49.584a1.117,1.117,0,0,1-.793-.332L30.16,46.86l-2.466,2.406a1.12,1.12,0,0,1-1.9-.814V41.21a1.122,1.122,0,1,1,2.244,0v4.574l1.358-1.325a1.115,1.115,0,0,1,1.573.012L32.2,45.719V41.21a1.122,1.122,0,1,1,2.244,0v7.242a1.133,1.133,0,0,1-.692,1.046,1.1,1.1,0,0,1-.43.086" transform="translate(3.016 5.293)" fill="#009de8"/>
        <path id="패스_2179" data-name="패스 2179" d="M27.455,16.388H19.792a1.132,1.132,0,0,1,0-2.264h7.663a1.132,1.132,0,0,1,0,2.264" transform="translate(2.146 1.865)" fill="#009de8"/>
        <path id="패스_2180" data-name="패스 2180" d="M35.309,20.388H19.792a1.132,1.132,0,0,1,0-2.264H35.309a1.132,1.132,0,0,1,0,2.264" transform="translate(2.146 2.394)" fill="#009de8"/>
        <path id="패스_2181" data-name="패스 2181" d="M35.309,24.388H19.792a1.132,1.132,0,0,1,0-2.264H35.309a1.132,1.132,0,0,1,0,2.264" transform="translate(2.146 2.922)" fill="#009de8"/>
      </g>
    </g>
  </g>
</svg>
