<svg xmlns="http://www.w3.org/2000/svg" width="28" height="28" viewBox="0 0 28 28">
  <g id="그룹_4150" data-name="그룹 4150" transform="translate(-909.839 -164)">
    <circle id="타원_167" data-name="타원 167" cx="14" cy="14" r="14" transform="translate(909.839 164)" opacity="0.5"/>
    <path id="Icon_ionic-ios-settings" data-name="Icon ionic-ios-settings" d="M16.1,10.823A1.627,1.627,0,0,1,17.145,9.3a6.45,6.45,0,0,0-.78-1.88,1.649,1.649,0,0,1-.662.142A1.624,1.624,0,0,1,14.218,5.28a6.43,6.43,0,0,0-1.877-.78A1.626,1.626,0,0,1,9.3,4.5a6.45,6.45,0,0,0-1.88.78A1.624,1.624,0,0,1,5.939,7.566a1.6,1.6,0,0,1-.662-.142A6.592,6.592,0,0,0,4.5,9.308a1.627,1.627,0,0,1,0,3.036,6.45,6.45,0,0,0,.78,1.88,1.624,1.624,0,0,1,2.144,2.144,6.488,6.488,0,0,0,1.88.78,1.623,1.623,0,0,1,3.03,0,6.45,6.45,0,0,0,1.88-.78,1.626,1.626,0,0,1,2.144-2.144,6.488,6.488,0,0,0,.78-1.88A1.635,1.635,0,0,1,16.1,10.823Zm-5.249,2.631a2.634,2.634,0,1,1,2.634-2.634A2.634,2.634,0,0,1,10.852,13.454Z" transform="translate(912.924 166.924)" fill="#fff"/>
  </g>
</svg>
