<svg xmlns="http://www.w3.org/2000/svg" width="60" height="60" viewBox="0 0 60 60">
  <g id="그룹_3496" data-name="그룹 3496" transform="translate(-117.462 -629.125)">
    <rect id="사각형_2530" data-name="사각형 2530" width="60" height="60" transform="translate(117.463 629.125)" fill="none"/>
    <g id="그룹_3495" data-name="그룹 3495" transform="translate(127.319 643.324)">
      <path id="패스_1979" data-name="패스 1979" d="M155.691,654.5a6.249,6.249,0,1,1,6.25-6.249A6.256,6.256,0,0,1,155.691,654.5Zm0-10.293a4.044,4.044,0,1,0,4.044,4.044A4.048,4.048,0,0,0,155.691,644.206Z" transform="translate(-124.03 -642)" fill="#009de8"/>
      <path id="패스_1980" data-name="패스 1980" d="M162.948,671.836a1.1,1.1,0,0,1-1.1-1.1v-7.72a5.974,5.974,0,1,0-11.947,0v7.72a1.1,1.1,0,1,1-2.206,0v-7.72a8.179,8.179,0,1,1,16.358,0v7.72A1.1,1.1,0,0,1,162.948,671.836Z" transform="translate(-124.21 -640.68)" fill="#009de8"/>
      <path id="패스_1981" data-name="패스 1981" d="M150.055,668.439H131.446a5.051,5.051,0,0,1-5.046-5.046V649.406a5.052,5.052,0,0,1,5.046-5.047h15.275a1.1,1.1,0,1,1,0,2.206H131.446a2.844,2.844,0,0,0-2.84,2.841v13.987a2.843,2.843,0,0,0,2.84,2.84h18.609a1.1,1.1,0,1,1,0,2.206Z" transform="translate(-126.4 -641.757)" fill="#009de8"/>
      <circle id="타원_145" data-name="타원 145" cx="1.182" cy="1.182" r="1.182" transform="translate(7.011 13.46)" fill="#009de8"/>
      <circle id="타원_146" data-name="타원 146" cx="1.182" cy="1.182" r="1.182" transform="translate(12.919 13.46)" fill="#009de8"/>
    </g>
  </g>
</svg>
