<svg id="그룹_5465" data-name="그룹 5465" xmlns="http://www.w3.org/2000/svg" xmlns:xlink="http://www.w3.org/1999/xlink" width="60" height="60" viewBox="0 0 60 60">
  <defs>
    <clipPath id="clip-path">
      <rect id="사각형_4125" data-name="사각형 4125" width="60" height="60" fill="none"/>
    </clipPath>
  </defs>
  <g id="그룹_5465-2" data-name="그룹 5465" clip-path="url(#clip-path)">
    <path id="패스_3191" data-name="패스 3191" d="M39.827,11.909H26.184a1.387,1.387,0,1,0,0,2.773H39.827a5.438,5.438,0,0,1,0,10.876H18a8.212,8.212,0,0,0,0,16.423H22.87a1.387,1.387,0,0,0,0-2.773H18a5.438,5.438,0,1,1,0-10.876H39.827a8.212,8.212,0,0,0,0-16.423" transform="translate(1.087 0.323)" fill="#fff"/>
    <path id="패스_3192" data-name="패스 3192" d="M35.57,29.955a2.585,2.585,0,0,0-3.371,0l-5.9,3.094-.27.2a2.583,2.583,0,0,0,0,3.651l1.3.7v3.513a1.11,1.11,0,0,0,.571.971l5.482,3.047a1.11,1.11,0,0,0,1.1-.01l5.4-3.132a1.11,1.11,0,0,0,.554-.961V37.64l1.033-.542.27-.2a2.581,2.581,0,0,0,0-3.651ZM27.533,34.91l5.827-3.056.27-.2a.363.363,0,0,1,.51,0l6.1,3.254a.367.367,0,0,1,0,.327l-5.828,3.056-.269.2a.361.361,0,0,1-.51,0l-6.1-3.253a.367.367,0,0,1,0-.327m10.682,5.472-4.3,2.494-4.359-2.422V38.781L32.2,40.192a2.584,2.584,0,0,0,3.371,0l2.646-1.387Z" transform="translate(2.808 4.259)" fill="#fff"/>
    <path id="패스_3193" data-name="패스 3193" d="M18.923,14.661a1.667,1.667,0,1,0-1.667-1.667,1.667,1.667,0,0,0,1.667,1.667" transform="translate(1.917 0.259)" fill="#fff"/>
  </g>
</svg>
