<svg xmlns="http://www.w3.org/2000/svg" width="130" height="90" viewBox="0 0 130 90">
  <g id="그룹_4753" data-name="그룹 4753" transform="translate(-885.323 -323.783)">
    <rect id="사각형_3467" data-name="사각형 3467" width="130" height="90" transform="translate(885.323 323.783)" fill="none"/>
    <g id="그룹_4752" data-name="그룹 4752" transform="translate(915.322 335.811)">
      <g id="그룹_4750" data-name="그룹 4750" transform="translate(0 15.304)">
        <path id="패스_2785" data-name="패스 2785" d="M937.036,372.414a7.693,7.693,0,0,1-5.292-2.085l-25.153-13.277a7.765,7.765,0,0,1,0-10.97l.405-.3,10.317-5.41a1.667,1.667,0,0,1,1.548,2.952l-10.075,5.283a4.434,4.434,0,0,0,0,5.917l25.122,13.26a4.531,4.531,0,0,0,6.257,0l.4-.3,24.717-12.962a4.43,4.43,0,0,0,0-5.917l-10.073-5.283a1.667,1.667,0,0,1,1.548-2.952l10.722,5.708a7.765,7.765,0,0,1,0,10.97l-.4.3-24.748,12.978A7.693,7.693,0,0,1,937.036,372.414Z" transform="translate(-904.322 -340.182)" fill="#009de8"/>
        <path id="패스_2786" data-name="패스 2786" d="M933.791,383.016a1.673,1.673,0,0,1-.81-.21L910.293,370.2a1.662,1.662,0,0,1-.857-1.457V353.558a1.667,1.667,0,0,1,3.333,0v14.2l21.005,11.672,20.708-12.007V353.558a1.667,1.667,0,0,1,3.333,0v14.83a1.669,1.669,0,0,1-.83,1.442l-22.358,12.962A1.664,1.664,0,0,1,933.791,383.016Z" transform="translate(-900.912 -332.376)" fill="#009de8"/>
        <path id="패스_2787" data-name="패스 2787" d="M948.063,366.8a1.651,1.651,0,0,1-.48-.072c-7.982-2.4-7.96-12.072-6.832-16.852a1.666,1.666,0,0,1,3.243.762c-.025.108-2.427,10.8,4.547,12.9a1.667,1.667,0,0,1-.478,3.263Z" transform="translate(-880.393 -334.571)" fill="#009de8"/>
      </g>
      <path id="패스_2788" data-name="패스 2788" d="M929.771,359.97a14.485,14.485,0,1,1,14.485-14.485A14.5,14.5,0,0,1,929.771,359.97Zm0-25.637a11.152,11.152,0,1,0,11.152,11.152A11.164,11.164,0,0,0,929.771,334.333Z" transform="translate(-897.012 -331)" fill="#009de8"/>
      <g id="그룹_4751" data-name="그룹 4751" transform="translate(25.68 9.081)">
        <path id="패스_2789" data-name="패스 2789" d="M927.192,336.576c.337,0,.482.113.562.482l1.38,5.938,1.14-6.115c.08-.432.177-.48.5-.4l1.54.4c.3.082.4.225.322.595l-.658,3.082h1.268c.448,0,.657.143.657.593V342.4c0,.448-.208.593-.657.593H931.46l-.738,3.563c-.112.562-.337.688-.785.688H928.78c-.4,0-.642-.127-.77-.688l-1.2-5.04-1.172,5.04c-.128.562-.353.688-.787.688h-1.155c-.45,0-.673-.127-.787-.688L922.153,343h-1.765c-.45,0-.658-.145-.658-.593v-1.252c0-.45.208-.593.658-.593h1.25L921,337.476c-.08-.37.017-.513.322-.595l1.54-.4c.322-.08.417-.032.5.4l1.138,6.083,1.38-5.907c.08-.368.242-.482.578-.482Z" transform="translate(-919.73 -336.449)" fill="#009de8"/>
      </g>
    </g>
  </g>
</svg>
