<svg id="그룹_3608" data-name="그룹 3608" xmlns="http://www.w3.org/2000/svg" xmlns:xlink="http://www.w3.org/1999/xlink" width="80" height="80" viewBox="0 0 80 80">
  <defs>
    <clipPath id="clip-path">
      <rect id="사각형_2600" data-name="사각형 2600" width="80" height="80" fill="none"/>
    </clipPath>
  </defs>
  <g id="그룹_3607" data-name="그룹 3607" clip-path="url(#clip-path)">
    <path id="패스_2171" data-name="패스 2171" d="M42.835,60.143H21.929A5.936,5.936,0,0,1,16,54.214V16.179a5.936,5.936,0,0,1,5.929-5.929H42.835a5.937,5.937,0,0,1,5.931,5.929V54.214a5.937,5.937,0,0,1-5.931,5.929M21.929,13.229a2.953,2.953,0,0,0-2.95,2.95V54.214a2.953,2.953,0,0,0,2.95,2.95H42.835a2.955,2.955,0,0,0,2.952-2.95V16.179a2.955,2.955,0,0,0-2.952-2.95Z" transform="translate(7.83 5.016)" fill="#009de8"/>
    <rect id="사각형_2599" data-name="사각형 2599" width="29.787" height="2.979" transform="translate(25.319 51.941)" fill="#009de8"/>
    <path id="패스_2172" data-name="패스 2172" d="M23.489,28.555A1.489,1.489,0,0,1,22,27.066V21.772a1.489,1.489,0,1,1,2.979,0v5.293a1.489,1.489,0,0,1-1.489,1.489" transform="translate(10.766 9.926)" fill="#009de8"/>
    <path id="패스_2173" data-name="패스 2173" d="M31.489,28.555A1.489,1.489,0,0,1,30,27.066V21.772a1.489,1.489,0,1,1,2.979,0v5.293a1.489,1.489,0,0,1-1.489,1.489" transform="translate(14.681 9.926)" fill="#009de8"/>
    <path id="패스_2174" data-name="패스 2174" d="M27.489,32.293A1.489,1.489,0,0,1,26,30.8V19.882a1.489,1.489,0,1,1,2.979,0V30.8a1.489,1.489,0,0,1-1.489,1.489" transform="translate(12.723 9.001)" fill="#009de8"/>
    <path id="패스_2175" data-name="패스 2175" d="M27.489,41.1h0a1.489,1.489,0,1,1,1.489-1.489A1.49,1.49,0,0,1,27.489,41.1" transform="translate(12.723 18.657)" fill="#009de8"/>
  </g>
</svg>
