<svg xmlns="http://www.w3.org/2000/svg" width="130" height="90" viewBox="0 0 130 90">
  <g id="그룹_4702" data-name="그룹 4702" transform="translate(-769.596 -509.94)">
    <rect id="사각형_3458" data-name="사각형 3458" width="130" height="90" transform="translate(769.596 509.94)" fill="none"/>
    <g id="그룹_4701" data-name="그룹 4701" transform="translate(797.595 523.94)">
      <path id="패스_2766" data-name="패스 2766" d="M798.716,545.919a9.445,9.445,0,1,0-9.445-9.445A9.455,9.455,0,0,0,798.716,545.919Zm0-15.557a6.112,6.112,0,1,1-6.112,6.112A6.118,6.118,0,0,1,798.716,530.362Z" transform="translate(-786.354 -512.984)" fill="#009de8"/>
      <path id="패스_2767" data-name="패스 2767" d="M799.883,539.863a12.374,12.374,0,0,0-12.362,12.36V563.89a1.667,1.667,0,0,0,3.333,0V552.223a9.028,9.028,0,1,1,18.055,0V563.89a1.667,1.667,0,0,0,3.333,0V552.223A12.373,12.373,0,0,0,799.883,539.863Z" transform="translate(-787.521 -504.428)" fill="#009de8"/>
      <path id="패스_2768" data-name="패스 2768" d="M856.406,518.6H793.073a1.667,1.667,0,1,0,0,3.333h3.333v7.09a1.667,1.667,0,0,0,3.333,0v-7.09h50v37.57a4.1,4.1,0,0,1-4.1,4.1H813.711a1.667,1.667,0,0,0,0,3.333h31.933a7.438,7.438,0,0,0,7.429-7.43v-37.57h3.333a1.667,1.667,0,1,0,0-3.333Z" transform="translate(-784.931 -518.602)" fill="#009de8"/>
      <path id="패스_2769" data-name="패스 2769" d="M806.073,530.935h15a1.667,1.667,0,0,0,0-3.333h-15a1.667,1.667,0,1,0,0,3.333Z" transform="translate(-776.264 -512.602)" fill="#009de8"/>
      <path id="패스_2770" data-name="패스 2770" d="M806.073,536.935h26.667a1.667,1.667,0,1,0,0-3.333H806.073a1.667,1.667,0,1,0,0,3.333Z" transform="translate(-776.264 -508.602)" fill="#009de8"/>
    </g>
  </g>
</svg>
