<svg xmlns="http://www.w3.org/2000/svg" width="130" height="90" viewBox="0 0 130 90">
  <g id="그룹_4746" data-name="그룹 4746" transform="translate(-897.666 -446.509)">
    <rect id="사각형_3465" data-name="사각형 3465" width="130" height="90" transform="translate(897.666 446.509)" fill="none"/>
    <g id="그룹_4745" data-name="그룹 4745" transform="translate(921.667 457.383)">
      <g id="그룹_4742" data-name="그룹 4742" transform="translate(0 4.132)">
        <path id="패스_2771" data-name="패스 2771" d="M935.627,484.152a5.667,5.667,0,0,1-3.82-1.473l-16.667-8.825a5.684,5.684,0,0,1,0-8.042l.4-.3,16.263-8.53a5.691,5.691,0,0,1,7.64,0l16.668,8.827a5.692,5.692,0,0,1,0,8.04l-.405.3-16.261,8.528A5.683,5.683,0,0,1,935.627,484.152Zm-18.28-12.82,16.617,8.8a2.354,2.354,0,0,0,3.327,0l.4-.3,16.213-8.5a2.356,2.356,0,0,0,0-3l-16.617-8.8a2.356,2.356,0,0,0-3.327,0l-.4.3-16.212,8.5a2.351,2.351,0,0,0,0,3Z" transform="translate(-913.474 -455.513)" fill="#009de8"/>
        <path id="패스_2772" data-name="패스 2772" d="M933.487,488.652a1.664,1.664,0,0,1-.81-.21l-14.97-8.318a1.664,1.664,0,0,1-.857-1.457V468.649a1.667,1.667,0,1,1,3.333,0v9.038l13.285,7.382,13.1-7.6v-8.823a1.667,1.667,0,1,1,3.333,0v9.785a1.669,1.669,0,0,1-.83,1.442l-14.752,8.552A1.662,1.662,0,0,1,933.487,488.652Z" transform="translate(-911.223 -447.866)" fill="#009de8"/>
      </g>
      <g id="그룹_4743" data-name="그룹 4743" transform="translate(38.333 27.466)">
        <path id="패스_2773" data-name="패스 2773" d="M958.627,498.152a5.667,5.667,0,0,1-3.82-1.473l-16.667-8.825a5.684,5.684,0,0,1,0-8.042l.4-.3,16.263-8.53a5.691,5.691,0,0,1,7.64,0l16.668,8.827a5.692,5.692,0,0,1,0,8.04l-.405.3-16.261,8.528A5.683,5.683,0,0,1,958.627,498.152Zm-18.28-12.82,16.617,8.8a2.354,2.354,0,0,0,3.327,0l.4-.3,16.213-8.5a2.355,2.355,0,0,0,0-3l-16.617-8.8a2.356,2.356,0,0,0-3.327,0l-.4.3-16.212,8.5a2.351,2.351,0,0,0,0,3Z" transform="translate(-936.474 -469.513)" fill="#009de8"/>
        <path id="패스_2774" data-name="패스 2774" d="M956.487,502.652a1.663,1.663,0,0,1-.81-.21l-14.97-8.318a1.664,1.664,0,0,1-.857-1.457V482.649a1.667,1.667,0,1,1,3.333,0v9.038l13.285,7.382,13.1-7.6v-8.823a1.667,1.667,0,1,1,3.333,0v9.785a1.669,1.669,0,0,1-.83,1.442l-14.752,8.552A1.663,1.663,0,0,1,956.487,502.652Z" transform="translate(-934.223 -461.866)" fill="#009de8"/>
      </g>
      <g id="그룹_4744" data-name="그룹 4744" transform="translate(48.55)">
        <path id="패스_2775" data-name="패스 2775" d="M960.937,461.366H944.271a1.667,1.667,0,0,1,0-3.333h16.667a1.667,1.667,0,1,1,0,3.333Z" transform="translate(-942.604 -449.7)" fill="#009de8"/>
        <path id="패스_2776" data-name="패스 2776" d="M949.271,473.033a1.666,1.666,0,0,1-1.667-1.667V454.7a1.667,1.667,0,1,1,3.333,0v16.667A1.667,1.667,0,0,1,949.271,473.033Z" transform="translate(-939.271 -453.033)" fill="#009de8"/>
      </g>
    </g>
  </g>
</svg>
