<svg id="그룹_5510" data-name="그룹 5510" xmlns="http://www.w3.org/2000/svg" xmlns:xlink="http://www.w3.org/1999/xlink" width="80" height="80" viewBox="0 0 80 80">
  <defs>
    <clipPath id="clip-path">
      <rect id="사각형_4190" data-name="사각형 4190" width="80" height="80" fill="#fff"/>
    </clipPath>
  </defs>
  <g id="그룹_5507" data-name="그룹 5507" clip-path="url(#clip-path)">
    <path id="패스_3200" data-name="패스 3200" d="M20.655,21.824a5.969,5.969,0,1,1,5.858-5.968,5.92,5.92,0,0,1-5.858,5.968m0-8.918a2.95,2.95,0,1,0,2.895,2.949,2.926,2.926,0,0,0-2.895-2.949" transform="translate(7.124 5.037)" fill="#009de8"/>
    <path id="패스_3201" data-name="패스 3201" d="M37.153,21.824a5.969,5.969,0,1,1,5.858-5.968,5.92,5.92,0,0,1-5.858,5.968m0-8.918a2.95,2.95,0,1,0,2.895,2.949,2.926,2.926,0,0,0-2.895-2.949" transform="translate(15.068 5.037)" fill="#009de8"/>
    <path id="패스_3202" data-name="패스 3202" d="M30.372,32.01A1.5,1.5,0,0,1,28.891,30.5V29.164a6.927,6.927,0,1,0-13.852,0V30.5a1.482,1.482,0,1,1-2.963,0V29.164a9.891,9.891,0,1,1,19.778,0V30.5a1.5,1.5,0,0,1-1.481,1.509" transform="translate(5.814 9.725)" fill="#009de8"/>
    <path id="패스_3203" data-name="패스 3203" d="M46.87,32.01A1.5,1.5,0,0,1,45.389,30.5V29.164a6.927,6.927,0,1,0-13.852,0V30.5a1.482,1.482,0,1,1-2.963,0V29.164a9.891,9.891,0,1,1,19.778,0V30.5A1.5,1.5,0,0,1,46.87,32.01" transform="translate(13.758 9.725)" fill="#009de8"/>
    <path id="패스_3204" data-name="패스 3204" d="M64.815,49.936a1.5,1.5,0,0,1-1.481-1.509V32.738H9.944V48.427a1.482,1.482,0,1,1-2.963,0v-17.2a1.5,1.5,0,0,1,1.481-1.509H64.815A1.5,1.5,0,0,1,66.3,31.228v17.2a1.5,1.5,0,0,1-1.481,1.509" transform="translate(3.361 15.14)" fill="#009de8"/>
  </g>
</svg>
