<svg id="그룹_5509" data-name="그룹 5509" xmlns="http://www.w3.org/2000/svg" xmlns:xlink="http://www.w3.org/1999/xlink" width="80" height="80" viewBox="0 0 80 80">
  <defs>
    <clipPath id="clip-path">
      <rect id="사각형_4189" data-name="사각형 4189" width="80" height="80" fill="none"/>
    </clipPath>
  </defs>
  <g id="그룹_5505" data-name="그룹 5505" clip-path="url(#clip-path)">
    <path id="패스_3196" data-name="패스 3196" d="M61.716,48.928H9.178V22.7c0-4.415,3.314-8.006,7.388-8.006h10.2a1.481,1.481,0,0,1,0,2.963h-10.2c-2.44,0-4.425,2.262-4.425,5.043V45.965H58.753V42.014a1.481,1.481,0,1,1,2.963,0Z" transform="translate(4.419 7.077)" fill="#009de8"/>
    <path id="패스_3197" data-name="패스 3197" d="M63.339,45.847H10.5a4.1,4.1,0,0,1-4.1-4.1V39.9a4.1,4.1,0,0,1,4.1-4.1H63.339a4.1,4.1,0,0,1,4.1,4.1v1.85a4.1,4.1,0,0,1-4.1,4.1M10.5,38.766A1.137,1.137,0,0,0,9.363,39.9v1.85A1.136,1.136,0,0,0,10.5,42.884H63.339a1.136,1.136,0,0,0,1.135-1.133V39.9a1.137,1.137,0,0,0-1.135-1.135Z" transform="translate(3.081 17.238)" fill="#009de8"/>
    <path id="패스_3198" data-name="패스 3198" d="M40.943,37.038a1.482,1.482,0,0,1-.905-.308,10.377,10.377,0,0,0-13.031-.037,1.484,1.484,0,0,1-2.433-1.136v-20a1.486,1.486,0,0,1,.526-1.133,13.3,13.3,0,0,1,16.748-.04,1.479,1.479,0,0,1,.576,1.173v20a1.483,1.483,0,0,1-1.481,1.481M27.537,16.3V32.863a13.1,13.1,0,0,1,11.924,0V16.311A10.186,10.186,0,0,0,27.537,16.3" transform="translate(11.832 6.501)" fill="#009de8"/>
    <path id="패스_3199" data-name="패스 3199" d="M50.993,37.038a1.476,1.476,0,0,1-.905-.308,10.385,10.385,0,0,0-13.031-.037,1.484,1.484,0,0,1-2.433-1.136v-20a1.486,1.486,0,0,1,.526-1.133,13.307,13.307,0,0,1,16.748-.04,1.487,1.487,0,0,1,.576,1.173v20a1.48,1.48,0,0,1-1.481,1.481M37.587,16.3V32.863a13.1,13.1,0,0,1,11.924,0V16.31A10.261,10.261,0,0,0,37.587,16.3" transform="translate(16.671 6.502)" fill="#009de8"/>
  </g>
</svg>
