<svg xmlns="http://www.w3.org/2000/svg" width="60" height="60" viewBox="0 0 60 60">
  <g id="그룹_4503" data-name="그룹 4503" transform="translate(-539.7 -250.65)">
    <rect id="사각형_3326" data-name="사각형 3326" width="60" height="60" transform="translate(539.7 250.65)" fill="none"/>
    <g id="그룹_4503-2" data-name="그룹 4503" transform="translate(551.278 261.631)">
      <path id="패스_2476" data-name="패스 2476" d="M581.436,298.95H555.352A5.159,5.159,0,0,1,550.2,293.8V267.714a5.158,5.158,0,0,1,5.152-5.152h26.085a5.158,5.158,0,0,1,5.152,5.152V293.8A5.159,5.159,0,0,1,581.436,298.95Zm-26.085-34.183a2.949,2.949,0,0,0-2.946,2.946V293.8a2.95,2.95,0,0,0,2.946,2.947h26.085a2.95,2.95,0,0,0,2.946-2.947V267.714a2.949,2.949,0,0,0-2.946-2.946Z" transform="translate(-550.2 -260.455)" fill="#009de8"/>
      <path id="패스_2477" data-name="패스 2477" d="M556.839,267.523a1.1,1.1,0,0,1-1.1-1.1v-4.666a1.1,1.1,0,0,1,2.205,0v4.666A1.1,1.1,0,0,1,556.839,267.523Z" transform="translate(-549.632 -260.651)" fill="#009de8"/>
      <path id="패스_2478" data-name="패스 2478" d="M576.767,267.523a1.1,1.1,0,0,1-1.1-1.1v-4.666a1.1,1.1,0,0,1,2.205,0v4.666A1.1,1.1,0,0,1,576.767,267.523Z" transform="translate(-547.586 -260.651)" fill="#009de8"/>
    </g>
    <path id="패스_2479" data-name="패스 2479" d="M566.924,276.205H558.1a1.1,1.1,0,0,1,0-2.205h8.821a1.1,1.1,0,0,1,0,2.205Z" transform="translate(1.776 2.35)" fill="#009de8"/>
    <path id="패스_2480" data-name="패스 2480" d="M573.54,281.205H558.1a1.1,1.1,0,0,1,0-2.205H573.54a1.1,1.1,0,0,1,0,2.205Z" transform="translate(1.776 2.864)" fill="#009de8"/>
  </g>
</svg>
