<svg xmlns="http://www.w3.org/2000/svg" width="130" height="90" viewBox="0 0 130 90">
  <g id="그룹_5395" data-name="그룹 5395" transform="translate(-892.397 -377.086)">
    <rect id="사각형_3466" data-name="사각형 3466" width="130" height="90" transform="translate(892.397 377.086)" fill="none"/>
    <g id="그룹_5396" data-name="그룹 5396" transform="translate(-17.016 0.035)">
      <path id="패스_3128" data-name="패스 3128" d="M24.849,53.9H16.193a4.792,4.792,0,0,1-4.787-4.787V27.6a4.794,4.794,0,0,1,4.787-4.788h8.657A4.794,4.794,0,0,1,29.638,27.6v21.51A4.793,4.793,0,0,1,24.849,53.9M16.193,26.143A1.456,1.456,0,0,0,14.739,27.6v21.51a1.455,1.455,0,0,0,1.453,1.453h8.657A1.456,1.456,0,0,0,26.3,49.108V27.6a1.457,1.457,0,0,0-1.455-1.455Z" transform="translate(915.006 392.292)" fill="#fff"/>
      <path id="패스_3129" data-name="패스 3129" d="M38.14,56.115H29.484A4.792,4.792,0,0,1,24.7,51.328V24.267a4.792,4.792,0,0,1,4.787-4.787H38.14a4.793,4.793,0,0,1,4.788,4.787V51.328a4.793,4.793,0,0,1-4.788,4.787m-8.657-33.3a1.456,1.456,0,0,0-1.453,1.453V51.328a1.455,1.455,0,0,0,1.453,1.453H38.14A1.456,1.456,0,0,0,39.6,51.328V24.267a1.457,1.457,0,0,0-1.455-1.453Z" transform="translate(923.867 390.073)" fill="#fff"/>
      <path id="패스_3130" data-name="패스 3130" d="M45.995,63.516h-3.24a4.964,4.964,0,0,1-4.767-5.13V13.509a4.964,4.964,0,0,1,4.767-5.13h8.7a4.963,4.963,0,0,1,4.765,5.13V33.231a1.667,1.667,0,0,1-3.333,0V13.509a1.668,1.668,0,0,0-1.432-1.8h-8.7a1.669,1.669,0,0,0-1.433,1.8V58.386a1.669,1.669,0,0,0,1.433,1.8h3.24a1.667,1.667,0,0,1,0,3.333" transform="translate(932.729 382.672)" fill="#fff"/>
      <path id="패스_3131" data-name="패스 3131" d="M65.133,49.38a5.118,5.118,0,0,1-3.423-1.307L47.321,40.441a5.128,5.128,0,0,1,0-7.255l.4-.3,13.983-7.333a5.246,5.246,0,0,1,6.852,0l14.387,7.632a5.124,5.124,0,0,1,0,7.252l-.4.3L68.558,48.073a5.125,5.125,0,0,1-3.425,1.307m-15.6-11.458,14.33,7.6a1.8,1.8,0,0,0,2.54,0l.4-.3,13.925-7.3a1.8,1.8,0,0,0,0-2.218L66.4,28.1a1.837,1.837,0,0,0-2.538,0l-.405.3L49.535,35.706a1.792,1.792,0,0,0,0,2.215" transform="translate(937.947 393.275)" fill="#fff"/>
      <path id="패스_3132" data-name="패스 3132" d="M63.288,53.272a1.689,1.689,0,0,1-.81-.208L49.582,45.9a1.667,1.667,0,0,1-.857-1.457v-8.63a1.667,1.667,0,1,1,3.333,0V43.46l11.213,6.232L74.33,43.277V35.809a1.667,1.667,0,1,1,3.333,0v8.43a1.661,1.661,0,0,1-.83,1.44l-12.71,7.37a1.655,1.655,0,0,1-.835.223" transform="translate(939.887 399.847)" fill="#fff"/>
    </g>
  </g>
</svg>
