<svg xmlns="http://www.w3.org/2000/svg" width="80" height="80" viewBox="0 0 80 80">
  <g id="그룹_4816" data-name="그룹 4816" transform="translate(-1821.109 -493.478)">
    <rect id="사각형_3546" data-name="사각형 3546" width="80" height="80" transform="translate(1821.109 493.478)" fill="none"/>
    <g id="그룹_3169" data-name="그룹 3169" transform="translate(1580.687 219.119)">
      <path id="패스_1570" data-name="패스 1570" d="M268.186,307.15h-1.533q3.846-5.1,5.574-7.661a23.268,23.268,0,0,0,2.26-3.893,7.3,7.3,0,0,0,.531-2.728,9.252,9.252,0,0,0-.539-3.244,6.939,6.939,0,0,0-1.517-2.446,8.522,8.522,0,0,0-2.345-1.666,11.457,11.457,0,0,0-3-.984,18.632,18.632,0,0,0-3.534-.313,26.491,26.491,0,0,0-7.309,1.095l-.274-1.3a27.069,27.069,0,0,1,7.544-1.11A19.041,19.041,0,0,1,269,283.5a11.726,11.726,0,0,1,3.87,1.774,7.915,7.915,0,0,1,2.556,3.127,10.477,10.477,0,0,1,.907,4.472,8.681,8.681,0,0,1-.524,3.033,21.617,21.617,0,0,1-2.26,4.034Q271.8,302.55,268.186,307.15Zm-11.838,2.344v-1.313h18.969v1.313Zm0,6.072v-1.313h18.969v1.313ZM259,307.15h-1.532q1.277-1.735,2.517-3.4c.828-1.11,1.524-2.025,2.071-2.768s1.095-1.454,1.618-2.157.946-1.274,1.267-1.7.633-.836.922-1.243.516-.712.665-.938.274-.438.39-.649a2.517,2.517,0,0,0,.227-.5,1.233,1.233,0,0,0,.055-.375,1.021,1.021,0,0,0-.7-1.079,8.666,8.666,0,0,0-2.447-.234,22.274,22.274,0,0,0-5.7.75l-.274-1.266a13.6,13.6,0,0,1,2.314-.516,21.12,21.12,0,0,1,3.565-.32,12.265,12.265,0,0,1,1.814.117,5.048,5.048,0,0,1,1.391.407,2.073,2.073,0,0,1,.962.821,2.489,2.489,0,0,1,.328,1.321,3.948,3.948,0,0,1-.806,2.009q-.8,1.22-4.127,5.66Q260.829,304.684,259,307.15Z" transform="translate(-1.027)" fill="#fff"/>
      <path id="패스_1571" data-name="패스 1571" d="M283,308.254a20.339,20.339,0,0,1,0-17.167,14.128,14.128,0,0,1,25.415,0,20.348,20.348,0,0,1,0,17.167,14.127,14.127,0,0,1-25.415,0Zm.415-14.767a19.607,19.607,0,0,0,0,12.367,14.18,14.18,0,0,0,2.767,4.792A12.577,12.577,0,0,0,290.4,313.7a13.4,13.4,0,0,0,10.608,0,12.56,12.56,0,0,0,4.221-3.049A14.168,14.168,0,0,0,308,305.855a19.607,19.607,0,0,0,0-12.367,14.167,14.167,0,0,0-2.768-4.792,12.366,12.366,0,0,0-4.221-3.049,13.406,13.406,0,0,0-10.608,0,12.383,12.383,0,0,0-4.221,3.049A14.179,14.179,0,0,0,283.412,293.487Zm17.2-.109a11.825,11.825,0,0,1,0,12.586,6.469,6.469,0,0,1-9.811,0,11.825,11.825,0,0,1,0-12.586,6.471,6.471,0,0,1,9.811,0Zm-8.881.923a10.8,10.8,0,0,0,0,10.741,5.177,5.177,0,0,0,7.95,0,10.8,10.8,0,0,0,0-10.741,5.177,5.177,0,0,0-7.95,0Z" transform="translate(-3.566 -0.035)" fill="#fff"/>
      <g id="그룹_3163" data-name="그룹 3163" transform="translate(259.066 332.362)">
        <path id="패스_1572" data-name="패스 1572" d="M270.56,350.307h-2.338v-5.085H262.86v5.085h-2.338V338.235h2.338V343.2h5.363v-4.962h2.338Z" transform="translate(-260.522 -338.038)" fill="#fff"/>
        <path id="패스_1573" data-name="패스 1573" d="M283.508,338.235l-3.952,7.734v4.338h-2.338v-4.289l-3.838-7.783h2.674l2.156,4.789q.048.114.279.91h.032a4.12,4.12,0,0,1,.271-.894l2.231-4.806Z" transform="translate(-261.841 -338.038)" fill="#fff"/>
        <path id="패스_1574" data-name="패스 1574" d="M294.215,349.834a7.571,7.571,0,0,1-3.412.664,5.7,5.7,0,0,1-4.276-1.636,5.979,5.979,0,0,1-1.6-4.36,6.392,6.392,0,0,1,1.78-4.67,6.116,6.116,0,0,1,4.569-1.816,8.045,8.045,0,0,1,2.935.467v2.28a5.457,5.457,0,0,0-2.788-.713,3.808,3.808,0,0,0-2.932,1.189,4.38,4.38,0,0,0-1.1,3.1,4.22,4.22,0,0,0,1.049,3,3.646,3.646,0,0,0,2.8,1.124,5.727,5.727,0,0,0,2.977-.787Z" transform="translate(-263.026 -338.016)" fill="#fff"/>
        <path id="패스_1575" data-name="패스 1575" d="M307.274,345.181q0,5.34-4.937,5.34-4.749,0-4.748-5.192v-7.094h2.345v7.094q0,3.158,2.526,3.157,2.475,0,2.477-3.05v-7.2h2.337Z" transform="translate(-264.325 -338.038)" fill="#fff"/>
      </g>
      <g id="그룹_3166" data-name="그룹 3166" transform="translate(246.333 319.275)">
        <g id="그룹_3164" data-name="그룹 3164" transform="translate(0 9.918)">
          <line id="선_606" data-name="선 606" x2="68.416" transform="translate(0 0.16)" fill="#fff"/>
          <rect id="사각형_2296" data-name="사각형 2296" width="68.416" height="0.319" fill="#fff"/>
        </g>
        <g id="그룹_3165" data-name="그룹 3165">
          <line id="선_607" data-name="선 607" x2="68.416" transform="translate(0 0.16)" fill="#fff"/>
          <rect id="사각형_2297" data-name="사각형 2297" width="68.416" height="0.319" fill="#fff"/>
        </g>
      </g>
      <g id="그룹_3167" data-name="그룹 3167" transform="translate(304.992 283.5)">
        <path id="패스_1576" data-name="패스 1576" d="M313.442,284.451v1.09h.792v.746h-.792v2.5a.551.551,0,0,0,.1.371.47.47,0,0,0,.363.114,1.539,1.539,0,0,0,.353-.041v.779a2.479,2.479,0,0,1-.663.1q-1.16,0-1.16-1.282v-2.541H311.7v-.746h.739v-1.09Z" transform="translate(-311.697 -283.659)" fill="#fff"/>
        <path id="패스_1577" data-name="패스 1577" d="M316.845,285.94a1.576,1.576,0,0,1,1.247-.573q1.434,0,1.455,1.638v2.93H318.54v-2.893a.886.886,0,0,0-.2-.657.822.822,0,0,0-.59-.193.971.971,0,0,0-.9.539v3.2h-1.008v-6.366h1.008Z" transform="translate(-312.122 -283.569)" fill="#fff"/>
      </g>
      <g id="그룹_3168" data-name="그룹 3168" transform="translate(249.443 322.502)">
        <path id="패스_1578" data-name="패스 1578" d="M251.747,327.109l1.367,3.67H252.5l-.341-.927h-1.407l-.34.927H249.8l1.367-3.67Zm.2,2.16-.488-1.335-.493,1.335Z" transform="translate(-249.798 -327.037)" fill="#fff"/>
        <path id="패스_1579" data-name="패스 1579" d="M257.253,330.779v-3.67h.659l1.443,2.63v-2.63h.591v3.67h-.636l-1.465-2.671v2.671Z" transform="translate(-250.563 -327.037)" fill="#fff"/>
        <path id="패스_1580" data-name="패스 1580" d="M264.309,330.779v-3.67h.659l1.442,2.63v-2.63H267v3.67h-.636l-1.465-2.671v2.671Z" transform="translate(-251.287 -327.037)" fill="#fff"/>
        <path id="패스_1581" data-name="패스 1581" d="M271.364,330.779v-3.67h.592v3.67Z" transform="translate(-252.01 -327.037)" fill="#fff"/>
        <path id="패스_1582" data-name="패스 1582" d="M279,327.109l-1.322,3.67h-.623l-1.3-3.67h.663l.946,2.873,1.008-2.873Z" transform="translate(-252.461 -327.037)" fill="#fff"/>
        <path id="패스_1583" data-name="패스 1583" d="M283.116,330.779v-3.67h2.2v.547h-1.6v.955h1.483v.538h-1.483v1.1h1.6v.533Z" transform="translate(-253.216 -327.037)" fill="#fff"/>
        <path id="패스_1584" data-name="패스 1584" d="M289.538,330.779v-3.67h1.107a1.426,1.426,0,0,1,.919.264.942.942,0,0,1,.336.78.831.831,0,0,1-.668.91.623.623,0,0,1,.256.336l.627,1.38h-.659l-.512-1.165a.9.9,0,0,0-.134-.215.366.366,0,0,0-.265-.089h-.416v1.469Zm.591-3.136v1.116h.52a.6.6,0,0,0,.627-.6.486.486,0,0,0-.157-.367.693.693,0,0,0-.47-.144Z" transform="translate(-253.875 -327.037)" fill="#fff"/>
        <path id="패스_1585" data-name="패스 1585" d="M298.034,327.186v.5a2.962,2.962,0,0,0-.828-.121.7.7,0,0,0-.426.126.4.4,0,0,0-.138.319.505.505,0,0,0,.21.4,1.824,1.824,0,0,0,.515.3,1.52,1.52,0,0,1,.61.413.976.976,0,0,1,.179.587,1.039,1.039,0,0,1-.184.636.981.981,0,0,1-.461.345,1.8,1.8,0,0,1-.686.117,2.535,2.535,0,0,1-.816-.125v-.561a2.529,2.529,0,0,0,.879.153.72.72,0,0,0,.467-.153.471.471,0,0,0,.174-.385.419.419,0,0,0-.21-.395,5.419,5.419,0,0,0-.516-.237,1.361,1.361,0,0,1-.582-.448.967.967,0,0,1-.2-.6.923.923,0,0,1,.337-.757,1.253,1.253,0,0,1,.816-.274A2.113,2.113,0,0,1,298.034,327.186Z" transform="translate(-254.539 -327.029)" fill="#fff"/>
        <path id="패스_1586" data-name="패스 1586" d="M303.986,327.109l1.367,3.67h-.618l-.34-.927h-1.407l-.341.927h-.609l1.367-3.67Zm.2,2.16-.488-1.335-.493,1.335Z" transform="translate(-255.157 -327.037)" fill="#fff"/>
        <path id="패스_1587" data-name="패스 1587" d="M309.493,330.779v-3.67H310.6a1.426,1.426,0,0,1,.919.264.942.942,0,0,1,.336.78.831.831,0,0,1-.668.91.624.624,0,0,1,.256.336l.627,1.38h-.66l-.511-1.165a.9.9,0,0,0-.134-.215.366.366,0,0,0-.265-.089h-.416v1.469Zm.591-3.136v1.116h.52a.6.6,0,0,0,.627-.6.486.486,0,0,0-.157-.367.693.693,0,0,0-.47-.144Z" transform="translate(-255.922 -327.037)" fill="#fff"/>
        <path id="패스_1588" data-name="패스 1588" d="M316.847,330.779v-1.532l-1.317-2.138h.69l.927,1.546.9-1.546h.69l-1.295,2.133v1.536Z" transform="translate(-256.541 -327.037)" fill="#fff"/>
      </g>
    </g>
  </g>
</svg>
