<svg xmlns="http://www.w3.org/2000/svg" width="80" height="80" viewBox="0 0 80 80">
  <g id="그룹_5512" data-name="그룹 5512" transform="translate(-1821.108 -493.478)">
    <rect id="사각형_3546" data-name="사각형 3546" width="80" height="80" transform="translate(1821.109 493.478)" fill="none"/>
    <g id="그룹_4815" data-name="그룹 4815" transform="translate(1835.337 509.237)">
      <path id="패스_2804" data-name="패스 2804" d="M1878.077,554.914h-37.046a5.725,5.725,0,0,1-5.718-5.718V512.15a5.725,5.725,0,0,1,5.718-5.718h37.046a5.726,5.726,0,0,1,5.719,5.718V549.2A5.726,5.726,0,0,1,1878.077,554.914Zm-37.046-46.035a3.274,3.274,0,0,0-3.27,3.27V549.2a3.274,3.274,0,0,0,3.27,3.27h37.046a3.274,3.274,0,0,0,3.271-3.27V512.15a3.274,3.274,0,0,0-3.271-3.27Z" transform="translate(-1832.252 -506.432)" fill="#fff"/>
      <g id="그룹_4814" data-name="그룹 4814" transform="translate(0 11.88)">
        <path id="패스_2805" data-name="패스 2805" d="M1839.975,518.587h-5.939a1.224,1.224,0,0,1,0-2.448h5.939a1.224,1.224,0,0,1,0,2.448Z" transform="translate(-1832.812 -516.139)" fill="#fff"/>
        <path id="패스_2806" data-name="패스 2806" d="M1839.975,536.787h-5.939a1.224,1.224,0,0,1,0-2.448h5.939a1.224,1.224,0,0,1,0,2.448Z" transform="translate(-1832.812 -512.064)" fill="#fff"/>
      </g>
      <path id="패스_2807" data-name="패스 2807" d="M1856.491,531.978a7.906,7.906,0,1,1,7.906-7.907A7.915,7.915,0,0,1,1856.491,531.978Zm0-13.365a5.458,5.458,0,1,0,5.458,5.457A5.464,5.464,0,0,0,1856.491,518.614Z" transform="translate(-1829.281 -504.253)" fill="#fff"/>
      <path id="패스_2808" data-name="패스 2808" d="M1866.687,539.186a1.224,1.224,0,0,1-1.224-1.224,8.429,8.429,0,1,0-16.858,0,1.224,1.224,0,0,1-2.448,0,10.877,10.877,0,1,1,21.753,0A1.224,1.224,0,0,1,1866.687,539.186Z" transform="translate(-1829.824 -501.808)" fill="#fff"/>
    </g>
  </g>
</svg>
