<svg xmlns="http://www.w3.org/2000/svg" xmlns:xlink="http://www.w3.org/1999/xlink" width="60" height="60" viewBox="0 0 60 60">
  <defs>
    <clipPath id="clip-path">
      <rect id="사각형_2604" data-name="사각형 2604" width="60" height="60" transform="translate(0 0.121)" fill="none"/>
    </clipPath>
  </defs>
  <g id="그룹_3617" data-name="그룹 3617" transform="translate(0 -0.121)">
    <g id="그룹_3616" data-name="그룹 3616" clip-path="url(#clip-path)">
      <path id="패스_2187" data-name="패스 2187" d="M42.039,11.673h-.961V10.658a1.113,1.113,0,0,0-2.227,0v1.014H18.89V10.658a1.113,1.113,0,0,0-2.227,0v1.014H15.7a5.209,5.209,0,0,0-5.2,5.2V43.211a5.209,5.209,0,0,0,5.2,5.2H42.039a5.208,5.208,0,0,0,5.2-5.2V16.874a5.208,5.208,0,0,0-5.2-5.2m0,34.513H15.7a2.978,2.978,0,0,1-2.976-2.975V16.874A2.978,2.978,0,0,1,15.7,13.9h.961V15.37a1.113,1.113,0,0,0,2.227,0V13.9H38.852V15.37a1.113,1.113,0,0,0,2.227,0V13.9h.961a2.977,2.977,0,0,1,2.975,2.975v2.962H18.086a1.113,1.113,0,0,0,0,2.227H45.014V43.211a2.977,2.977,0,0,1-2.975,2.975" transform="translate(1.19 1.082)" fill="#009de8"/>
      <path id="패스_2188" data-name="패스 2188" d="M34.2,28.757l-3.763-.547L28.751,24.8a1.158,1.158,0,0,0-2,0L25.073,28.21l-3.763.547a1.114,1.114,0,0,0-.618,1.9l2.723,2.653-.642,3.748a1.113,1.113,0,0,0,1.615,1.173l3.365-1.769,3.366,1.769a1.113,1.113,0,0,0,1.615-1.173l-.644-3.748,2.724-2.653a1.114,1.114,0,0,0-.618-1.9m-4.079,3.367a1.114,1.114,0,0,0-.32.985l.36,2.1-1.887-.992a1.122,1.122,0,0,0-1.037,0l-1.885.992.36-2.1a1.114,1.114,0,0,0-.32-.985l-1.526-1.487,2.109-.306a1.111,1.111,0,0,0,.838-.61l.943-1.911L28.7,29.72a1.111,1.111,0,0,0,.838.61l2.109.306Z" transform="translate(2.307 2.747)" fill="#009de8"/>
    </g>
  </g>
</svg>
