<svg id="그룹_5448" data-name="그룹 5448" xmlns="http://www.w3.org/2000/svg" xmlns:xlink="http://www.w3.org/1999/xlink" width="130" height="90" viewBox="0 0 130 90">
  <defs>
    <clipPath id="clip-path">
      <rect id="사각형_4101" data-name="사각형 4101" width="130" height="90" fill="#fff"/>
    </clipPath>
  </defs>
  <g id="그룹_5447" data-name="그룹 5447" clip-path="url(#clip-path)">
    <path id="패스_3185" data-name="패스 3185" d="M55.88,49.387a4.616,4.616,0,0,1-3.146-1.235l-12.956-7.09a4.99,4.99,0,0,1,0-6.9l.393-.3,12.563-6.79a4.735,4.735,0,0,1,6.294,0l12.956,7.088a4.99,4.99,0,0,1,0,6.9l-.393.3L59.028,48.152a4.617,4.617,0,0,1-3.148,1.235M41.931,38.547,54.822,45.6a1.5,1.5,0,0,0,2.115,0l.393-.3,12.5-6.758a1.583,1.583,0,0,0,0-1.865L56.937,29.627a1.5,1.5,0,0,0-2.115,0l-.393.3-12.5,6.757a1.586,1.586,0,0,0,0,1.865" transform="translate(23.685 17.254)" fill="#fff"/>
    <path id="패스_3186" data-name="패스 3186" d="M54.3,52.995a1.585,1.585,0,0,1-.786-.21l-11.6-6.642a1.676,1.676,0,0,1-.831-1.457v-8a1.618,1.618,0,1,1,3.234,0v7.022l9.965,5.707,9.827-5.875V36.685a1.618,1.618,0,1,1,3.234,0V44.5a1.68,1.68,0,0,1-.805,1.443L55.114,52.77a1.571,1.571,0,0,1-.81.225" transform="translate(25.347 23.345)" fill="#fff"/>
    <path id="패스_3187" data-name="패스 3187" d="M43.821,66.529a1.584,1.584,0,0,1-.9-.28c-.92-.633-22.547-15.7-22.547-33.887C20.376,19.038,30.894,8.2,43.821,8.2S67.265,19.038,67.265,32.363a1.618,1.618,0,1,1-3.234,0c0-11.488-9.066-20.833-20.211-20.833S23.61,20.874,23.61,32.363c0,14.43,16.19,27.45,20.213,30.462,1.028-.767,2.844-2.177,4.967-4.087a1.584,1.584,0,0,1,2.28.162,1.7,1.7,0,0,1-.155,2.352,66.89,66.89,0,0,1-6.2,5,1.584,1.584,0,0,1-.9.28" transform="translate(12.569 5.464)" fill="#fff"/>
    <path id="패스_3188" data-name="패스 3188" d="M38.269,35.529a9.171,9.171,0,1,1,8.893-9.167,9.044,9.044,0,0,1-8.893,9.167m0-15a5.836,5.836,0,1,0,5.659,5.833,5.754,5.754,0,0,0-5.659-5.833" transform="translate(18.121 11.464)" fill="#fff"/>
  </g>
</svg>
