<svg xmlns="http://www.w3.org/2000/svg" xmlns:xlink="http://www.w3.org/1999/xlink" width="660.865" height="267.841" viewBox="0 0 660.865 267.841"><defs><style>.a{fill:#f5f5f5;}.b{opacity:0.03;clip-path:url(#a);}.c{fill:#dc000c;}.d{fill:#003f88;}</style><clipPath id="a"><path class="a" d="M0,0H660.865V267.841H0V0Z"/></clipPath></defs><g class="b"><g transform="translate(-13.681 -30.783)"><g transform="translate(148.574 19.909)"><path d="M575.035,518.957H514.412V460.713h60.623Zm-56.328-4.128h52.031V464.841H518.707Z" transform="translate(-497.219 -360.429)"/><rect width="94.579" height="4.128" transform="translate(0.532 86.755)"/><path d="M539.291,482.414h-35.57v-4.128h31.274V453.292h4.3Z" transform="translate(-503.721 -364.473)"/><path d="M576.357,482.414H540.682V453.292h4.3v24.994h31.378Z" transform="translate(-481.245 -364.473)"/><path d="M544.979,515.811h-4.3V486.983h35.272v4.128H544.979Z" transform="translate(-481.245 -346.112)"/><path d="M539.09,515.811h-4.3v-24.7H504.052v-4.128H539.09Z" transform="translate(-503.519 -346.112)"/><path d="M575.035,571.309H514.412V513.063h60.623Zm-56.328-4.128h52.031V517.191H518.707Z" transform="translate(-497.219 -331.899)"/><rect width="94.579" height="4.128" transform="translate(0.532 167.635)"/><path d="M539.291,534.764h-35.57v-4.128h31.274V505.642h4.3Z" transform="translate(-503.721 -335.943)"/><path d="M576.357,534.764H540.682V505.642h4.3v24.994h31.378Z" transform="translate(-481.245 -335.943)"/><path d="M544.979,576.206h-4.3V539.333h35.272v4.128H544.979Z" transform="translate(-481.245 -317.582)"/><path d="M539.09,576.206h-4.3V543.461H504.052v-4.128H539.09Z" transform="translate(-503.519 -317.582)"/><path d="M575.035,466.607H514.412V408.363h60.623Zm-56.328-4.128h52.031V412.491H518.707Z" transform="translate(-497.219 -388.958)"/><path d="M539.291,432.865h-35.57v-4.128h31.274V395.8h4.3Z" transform="translate(-503.721 -395.803)"/><path d="M576.357,432.865H540.682V395.8h4.3v32.933h31.378Z" transform="translate(-481.245 -395.803)"/><path d="M544.979,463.461h-4.3V434.633h35.272v4.128H544.979Z" transform="translate(-481.245 -374.642)"/><path d="M539.09,463.461h-4.3v-24.7H504.052v-4.128H539.09Z" transform="translate(-503.519 -374.642)"/></g><path class="c" d="M622.165,532.225h-22.1V444.872c0-22.458-19.017-40.727-42.391-40.727s-42.391,18.269-42.391,40.727v87.353h-22.1V444.872c0-34.162,28.93-61.955,64.487-61.955s64.486,27.793,64.486,61.955Z" transform="translate(-361.549 -382.917)"/><path class="d" d="M557.679,628.871c-35.558,0-64.487-27.794-64.487-61.957V479.563h22.1v87.352c0,22.458,19.016,40.727,42.391,40.727s42.391-18.269,42.391-40.727V479.563h22.1v87.352C622.165,601.077,593.237,628.871,557.679,628.871Z" transform="translate(-361.549 -330.247)"/><g transform="translate(0 4.311)"><path d="M525.56,385.713H483.77l-38.05,48.6v-48.6H411.329V517.179H445.72v-48.6l38.05,48.6h41.79l-51.844-65.733Z" transform="translate(-411.329 -385.704)"/><path d="M669.816,517.183h36.841L677,465.011c14.277-6.874,24.081-21.053,24.081-37.439,0-23.121-19.508-41.864-43.573-41.864-.124,0-.246.008-.37.009h-68.62V517.183h34.391V469.434h19.765ZM622.907,411.306h25.437c9.349,0,16.93,7.282,16.93,16.266s-7.581,16.264-16.93,16.264H622.907Z" transform="translate(-303.584 -385.707)"/><path d="M774.309,412.776V385.713H672.615V517.179H774.309V490.117h-67.3v-25.14h60.624V437.915H707.006V412.776Z" transform="translate(-252.445 -385.704)"/><path d="M848.777,517.18h35.106l-49.8-131.467H793.308L743.5,517.18H778.61l8.724-23.029h52.72Zm-51.19-50.091,16.106-42.518L829.8,467.089Z" transform="translate(-209.338 -385.704)"/><path d="M518.234,534.755c.942-6.015,4.366-47.955-49.793-47.955-57.832,0-54.562,47.955-54.562,47.955h34.289s1.139-20.517,18.072-20.517,15.867,12.99,15.867,13.665,1.285,9.149-11.535,19.933-54.448,45.747-56.285,47.381a8.459,8.459,0,0,0-2.912,5.512,7.383,7.383,0,0,0-.047.826v19.229H520.69V593.722H461.482c9.337-7.547,31.67-25.627,40.082-32.645C512.32,552.1,517.294,540.768,518.234,534.755Z" transform="translate(-411.329 -330.614)"/><path d="M693.831,534.755c.942-6.015,4.366-47.955-49.793-47.955-57.831,0-54.562,47.955-54.562,47.955h34.289s1.138-20.517,18.072-20.517S657.7,527.227,657.7,527.9s1.283,9.149-11.536,19.933-54.447,45.747-56.283,47.381a8.458,8.458,0,0,0-2.912,5.512,7.4,7.4,0,0,0-.047.826v19.229H696.286V593.722H637.078c9.337-7.547,31.67-25.627,40.082-32.645C687.916,552.1,692.89,540.768,693.831,534.755Z" transform="translate(-304.551 -330.614)"/><path d="M716.662,488.4a4.965,4.965,0,0,0-2.984,1l-.015-.02L672.615,519v34.918l39.165-28.258v94.205H746.17V488.4Z" transform="translate(-252.445 -329.741)"/></g></g></g></svg>