<svg xmlns="http://www.w3.org/2000/svg" xmlns:xlink="http://www.w3.org/1999/xlink" width="1920" height="750" viewBox="0 0 1920 750"><defs><style>.a{fill:#f5f5f5;}.b{fill:#003968;}.c{opacity:0.05;clip-path:url(#a);}.d{fill:#fff;}.e{opacity:0.2;clip-path:url(#b);}</style><clipPath id="a"><path class="a" d="M0,0H321.666V400.954H0V0Z" transform="translate(0 25.13)"/></clipPath><clipPath id="b"><path class="a" d="M0,0H227.082V262.892H0V0Z" transform="translate(0)"/></clipPath></defs><g transform="translate(-960 -890)"><rect class="b" width="1920" height="750" transform="translate(960 890)"/><g class="c" transform="translate(1159.964 864.87)"><g transform="translate(0 -318.697)"><g transform="translate(42.227 49.654)"><path class="d" d="M665.609,605.976h-151.2V460.713h151.2Zm-140.484-10.3H654.892V471.009H525.124Z" transform="translate(-471.533 -210.6)"/><rect class="d" width="235.885" height="10.295" transform="translate(1.328 216.37)"/><path class="d" d="M592.434,525.924H503.721v-10.3h78V453.292h10.716Z" transform="translate(-503.721 -231.774)"/><path class="d" d="M629.656,525.924H540.682V453.292H551.4v62.337h78.258Z" transform="translate(-392.443 -231.774)"/><path class="d" d="M551.4,558.88H540.682v-71.9h87.97v10.3H551.4Z" transform="translate(-392.443 -135.644)"/><path class="d" d="M591.438,558.88H580.722v-61.6h-76.67v-10.3h87.386Z" transform="translate(-502.724 -135.644)"/><path class="d" d="M665.609,658.33h-151.2V513.063h151.2Zm-140.484-10.3H654.892V523.359H525.124Z" transform="translate(-471.533 -61.233)"/><rect class="d" width="235.885" height="10.295" transform="translate(1.328 418.088)"/><path class="d" d="M592.434,578.274H503.721v-10.3h78V505.642h10.716Z" transform="translate(-503.721 -82.407)"/><path class="d" d="M629.656,578.274H540.682V505.642H551.4v62.337h78.258Z" transform="translate(-392.443 -82.407)"/><path class="d" d="M551.4,631.294H540.682v-91.96h87.97v10.3H551.4Z" transform="translate(-392.443 13.723)"/><path class="d" d="M591.438,631.294H580.722V549.629h-76.67v-10.3h87.386Z" transform="translate(-502.724 13.723)"/><path class="d" d="M665.609,553.626h-151.2V408.363h151.2Zm-140.484-10.3H654.892V418.659H525.124Z" transform="translate(-471.533 -359.967)"/><path class="d" d="M592.434,488.236H503.721v-10.3h78V395.8h10.716Z" transform="translate(-503.721 -395.803)"/><path class="d" d="M629.656,488.236H540.682V395.8H551.4V477.94h78.258Z" transform="translate(-392.443 -395.803)"/><path class="d" d="M551.4,506.53H540.682v-71.9h87.97v10.3H551.4Z" transform="translate(-392.443 -285.012)"/><path class="d" d="M591.438,506.53H580.722v-61.6h-76.67v-10.3h87.386Z" transform="translate(-502.724 -285.012)"/></g><path class="d" d="M814.857,755.3H759.751V537.436c0-56.011-47.43-101.575-105.724-101.575S548.3,481.425,548.3,537.436V755.3h-55.11V537.436c0-85.2,72.151-154.519,160.835-154.519s160.831,69.316,160.831,154.519Z" transform="translate(-493.192 -382.917)"/><path class="d" d="M654.026,851.944c-88.683,0-160.835-69.32-160.835-154.523V479.563H548.3V697.421C548.3,753.432,595.728,799,654.026,799s105.724-45.564,105.724-101.575V479.563h55.106V697.421C814.857,782.624,742.709,851.944,654.026,851.944Z" transform="translate(-493.192 -107.163)"/></g></g><g class="e" transform="translate(1524.148 1377.108)"><g transform="translate(0 0.001)"><g transform="translate(29.811 35.053)"><path d="M621.151,563.263H514.412V460.713H621.151Zm-99.176-7.268h91.611V467.981H521.974Z" transform="translate(-484.141 -284.144)"/><rect width="166.525" height="7.268" transform="translate(0.937 152.748)"/><path d="M566.349,504.567H503.721V497.3h55.063V453.292h7.565Z" transform="translate(-503.721 -296.91)"/><path d="M603.494,504.567H540.682V453.292h7.565V497.3h55.247Z" transform="translate(-436.032 -296.91)"/><path d="M548.247,537.739h-7.565V486.983h62.1v7.268H548.247Z" transform="translate(-436.032 -238.953)"/><path d="M565.742,537.739h-7.565V494.251H504.052v-7.268h61.691Z" transform="translate(-503.114 -238.953)"/><path d="M621.151,615.615H514.412V513.063H621.151Zm-99.176-7.268h91.611V520.331H521.974Z" transform="translate(-484.141 -194.09)"/><rect width="166.525" height="7.268" transform="translate(0.937 295.152)"/><path d="M566.349,556.917H503.721v-7.268h55.063V505.642h7.565Z" transform="translate(-503.721 -206.856)"/><path d="M603.494,556.917H540.682V505.642h7.565v44.007h55.247Z" transform="translate(-436.032 -206.856)"/><path d="M548.247,604.254h-7.565v-64.92h62.1V546.6H548.247Z" transform="translate(-436.032 -148.9)"/><path d="M565.742,604.254h-7.565V546.6H504.052v-7.268h61.691Z" transform="translate(-503.114 -148.9)"/><path d="M621.151,510.913H514.412V408.363H621.151Zm-99.176-7.268h91.611V415.631H521.974Z" transform="translate(-484.141 -374.198)"/><path d="M566.349,461.057H503.721v-7.268h55.063V395.8h7.565Z" transform="translate(-503.721 -395.803)"/><path d="M603.494,461.057H540.682V395.8h7.565v57.985h55.247Z" transform="translate(-436.032 -395.803)"/><path d="M548.247,485.389h-7.565V434.633h62.1V441.9H548.247Z" transform="translate(-436.032 -329.007)"/><path d="M565.742,485.389h-7.565V441.9H504.052v-7.268h61.691Z" transform="translate(-503.114 -329.007)"/></g><path d="M720.274,645.8h-38.9V492c0-39.541-33.483-71.708-74.637-71.708S532.1,452.459,532.1,492V645.8H493.192V492c0-60.149,50.936-109.084,113.542-109.084S720.274,431.851,720.274,492Z" transform="translate(-493.192 -382.917)"/><path d="M606.734,742.448c-62.607,0-113.542-48.937-113.542-109.086v-153.8H532.1v153.8c0,39.541,33.481,71.708,74.637,71.708s74.637-32.167,74.637-71.708v-153.8h38.9v153.8C720.274,693.511,669.341,742.448,606.734,742.448Z" transform="translate(-493.192 -216.664)"/></g></g></g></svg>