<svg xmlns="http://www.w3.org/2000/svg" xmlns:xlink="http://www.w3.org/1999/xlink" width="650" height="580" viewBox="0 0 650 580"><defs><style>.a{fill:#f5f5f5;}.b{fill:#003d6f;}.c{opacity:0.05;clip-path:url(#a);}.d{fill:#fff;}.e{opacity:0.2;clip-path:url(#b);}</style><clipPath id="a"><path class="a" d="M0,0H249.412V330.376H0V0Z" transform="translate(1532.001 1923.182)"/></clipPath><clipPath id="b"><path class="a" d="M0,0H169.187V173.895H0V0Z" transform="translate(1532.001 1997.205)"/></clipPath></defs><g transform="translate(-960 -890)"><rect class="b" width="650" height="580" transform="translate(960 890)"/><g class="c" transform="translate(-171.413 -1033.181)"><g transform="translate(1532.001 1600.095)"><g transform="translate(37.05 43.566)"><path class="d" d="M647.07,588.165H514.412V460.713H647.07Zm-123.26-9.034H637.668V469.746H523.811Z" transform="translate(-476.79 -241.267)"/><rect class="d" width="206.963" height="9.033" transform="translate(1.165 189.841)"/><path class="d" d="M581.557,517.019H503.721v-9.033h68.435V453.292h9.4Z" transform="translate(-503.721 -258.935)"/><path class="d" d="M618.747,517.019H540.682V453.292h9.4v54.693h68.663Z" transform="translate(-410.619 -258.935)"/><path class="d" d="M550.084,550.064h-9.4V486.983h77.184v9.033H550.084Z" transform="translate(-410.619 -178.723)"/><path class="d" d="M580.723,550.064h-9.4V496.016h-67.27v-9.033h76.672Z" transform="translate(-502.887 -178.723)"/><path class="d" d="M647.07,640.519H514.412V513.063H647.07Zm-123.26-9.033H637.668V522.1H523.811Z" transform="translate(-476.79 -116.633)"/><rect class="d" width="206.963" height="9.033" transform="translate(1.165 366.825)"/><path class="d" d="M581.557,569.368H503.721v-9.033h68.435V505.642h9.4Z" transform="translate(-503.721 -134.3)"/><path class="d" d="M618.747,569.368H540.682V505.642h9.4v54.694h68.663Z" transform="translate(-410.619 -134.3)"/><path class="d" d="M550.084,620.018h-9.4V539.333h77.184v9.033H550.084Z" transform="translate(-410.619 -54.088)"/><path class="d" d="M580.723,620.018h-9.4V548.367h-67.27v-9.033h76.672Z" transform="translate(-502.887 -54.088)"/><path class="d" d="M647.07,535.815H514.412V408.363H647.07Zm-123.26-9.034H637.668V417.4H523.811Z" transform="translate(-476.79 -365.901)"/><path class="d" d="M581.557,476.9H503.721v-9.033h68.435V395.8h9.4Z" transform="translate(-503.721 -395.803)"/><path class="d" d="M618.747,476.9H540.682V395.8h9.4v72.066h68.663Z" transform="translate(-410.619 -395.803)"/><path class="d" d="M550.084,497.714h-9.4V434.633h77.184v9.033H550.084Z" transform="translate(-410.619 -303.357)"/><path class="d" d="M580.723,497.714h-9.4V443.666h-67.27v-9.033h76.672Z" transform="translate(-502.887 -303.357)"/></g><path class="d" d="M775.417,709.64H727.068V518.49c0-49.143-41.615-89.121-92.761-89.121s-92.761,39.978-92.761,89.121V709.64H493.192V518.49c0-74.756,63.3-135.573,141.115-135.573S775.417,443.734,775.417,518.49Z" transform="translate(-493.192 -382.917)"/><path class="d" d="M634.306,806.286c-77.81,0-141.115-60.82-141.115-135.576V479.563h48.353V670.709c0,49.143,41.611,89.121,92.761,89.121s92.761-39.978,92.761-89.121V479.563h48.349V670.709C775.417,745.465,712.116,806.286,634.306,806.286Z" transform="translate(-493.192 -152.823)"/></g></g><g class="e" transform="translate(-572.001 -701.1)"><g transform="translate(1509.742 1997.206)"><g transform="translate(25.132 29.552)"><path d="M604.4,547.169H514.412V460.713H604.4Zm-83.612-6.128h77.234v-74.2H520.788Z" transform="translate(-488.892 -311.853)"/><rect width="140.392" height="6.127" transform="translate(0.79 128.777)"/><path d="M556.52,496.52h-52.8v-6.127h46.422v-37.1h6.378Z" transform="translate(-503.721 -321.451)"/><path d="M593.637,496.52H540.682V453.292h6.378v37.1h46.577Z" transform="translate(-452.455 -321.451)"/><path d="M547.06,529.774h-6.378V486.983h52.357v6.128H547.06Z" transform="translate(-452.455 -277.877)"/><path d="M556.061,529.774h-6.378V493.111H504.052v-6.128h52.01Z" transform="translate(-503.261 -277.877)"/><path d="M604.4,599.522H514.412V513.063H604.4Zm-83.612-6.128h77.234v-74.2H520.788Z" transform="translate(-488.892 -244.147)"/><rect width="140.392" height="6.127" transform="translate(0.79 248.833)"/><path d="M556.52,548.87h-52.8v-6.127h46.422v-37.1h6.378Z" transform="translate(-503.721 -253.745)"/><path d="M593.637,548.87H540.682V505.642h6.378v37.1h46.577Z" transform="translate(-452.455 -253.745)"/><path d="M547.06,594.066h-6.378V539.334h52.357v6.127H547.06Z" transform="translate(-452.455 -210.171)"/><path d="M556.061,594.066h-6.378v-48.6H504.052v-6.127h52.01Z" transform="translate(-503.261 -210.171)"/><path d="M604.4,494.819H514.412V408.363H604.4Zm-83.612-6.128h77.234v-74.2H520.788Z" transform="translate(-488.892 -379.559)"/><path d="M556.52,450.816h-52.8v-6.127h46.422V395.8h6.378Z" transform="translate(-503.721 -395.803)"/><path d="M593.637,450.816H540.682V395.8h6.378v48.886h46.577Z" transform="translate(-452.455 -395.803)"/><path d="M547.06,477.424h-6.378V434.633h52.357v6.127H547.06Z" transform="translate(-452.455 -345.583)"/><path d="M556.061,477.424h-6.378V440.761H504.052v-6.127h52.01Z" transform="translate(-503.261 -345.583)"/></g><path d="M684.637,604.547h-32.8V474.882c0-33.336-28.229-60.454-62.924-60.454s-62.924,27.119-62.924,60.454V604.547h-32.8V474.882c0-50.71,42.942-91.965,95.724-91.965s95.721,41.255,95.721,91.965Z" transform="translate(-493.192 -382.917)"/><path d="M588.916,701.193c-52.782,0-95.724-41.257-95.724-91.967V479.563h32.8V609.226c0,33.336,28.226,60.455,62.924,60.455s62.924-27.119,62.924-60.455V479.563h32.8V609.226C684.637,659.936,641.7,701.193,588.916,701.193Z" transform="translate(-493.192 -257.922)"/></g></g></g></svg>