<svg xmlns="http://www.w3.org/2000/svg" width="1920" height="6" viewBox="0 0 1920 6"><defs><style>.a{fill:#ed3d24;}.b{fill:#fff;}.c{fill:#4069b0;}.d{fill:#009947;}.e{fill:#f7ed6e;}.f{fill:#f26638;}.g{fill:#211f1f;}.h{fill:#056699;}.i{fill:#f7991c;}.j{fill:#c93826;}.k{fill:#1c3663;}.l{fill:#478fcc;}.m{fill:#066;}</style></defs><g transform="translate(-282.681 147.225)"><rect class="a" width="76.8" height="6" transform="translate(282.681 -147.225)"/><rect class="b" width="76.8" height="6" transform="translate(359.481 -147.225)"/><rect class="c" width="76.8" height="6" transform="translate(436.281 -147.225)"/><rect class="d" width="76.8" height="6" transform="translate(513.081 -147.225)"/><rect class="e" width="76.8" height="6" transform="translate(589.881 -147.225)"/><rect class="f" width="76.8" height="6" transform="translate(666.681 -147.225)"/><rect class="g" width="76.8" height="6" transform="translate(743.481 -147.225)"/><rect class="d" width="76.8" height="6" transform="translate(820.281 -147.225)"/><rect class="a" width="76.8" height="6" transform="translate(897.081 -147.225)"/><rect class="b" width="76.8" height="6" transform="translate(973.876 -147.225)"/><rect class="h" width="76.8" height="6" transform="translate(1050.681 -147.225)"/><rect class="e" width="76.8" height="6" transform="translate(1127.481 -147.225)"/><rect class="g" width="76.8" height="6" transform="translate(1204.281 -147.225)"/><rect class="i" width="76.8" height="6" transform="translate(1281.076 -147.225)"/><rect class="b" width="76.8" height="6" transform="translate(1357.881 -147.225)"/><rect class="j" width="76.8" height="6" transform="translate(1434.681 -147.225)"/><rect class="k" width="76.8" height="6" transform="translate(1511.476 -147.225)"/><rect class="d" width="76.8" height="6" transform="translate(1588.281 -147.225)"/><rect class="e" width="76.8" height="6" transform="translate(1665.081 -147.225)"/><rect class="h" width="76.8" height="6" transform="translate(1741.881 -147.225)"/><rect class="a" width="76.8" height="6" transform="translate(1818.676 -147.225)"/><rect class="l" width="76.8" height="6" transform="translate(1895.481 -147.225)"/><rect class="i" width="76.8" height="6" transform="translate(1972.281 -147.225)"/><rect class="b" width="76.8" height="6" transform="translate(2049.076 -147.225)"/><rect class="m" width="76.805" height="6" transform="translate(2125.876 -147.225)"/></g></svg>