<svg xmlns="http://www.w3.org/2000/svg" width="16.336" height="17.425" viewBox="0 0 16.336 17.425"><defs><style>.a{fill:#fff;}</style></defs><path class="a" d="M115.945,12.883a.543.543,0,0,0,.819,0l3.812-4.356a.544.544,0,0,0-.409-.9h-2.178V.545A.545.545,0,0,0,117.443,0h-2.178a.545.545,0,0,0-.545.545V7.623h-2.178a.544.544,0,0,0-.409.9Z" transform="translate(-108.186)"/><path class="a" d="M14.158,352v3.267H2.178V352H0v4.356a1.089,1.089,0,0,0,1.089,1.089H15.247a1.088,1.088,0,0,0,1.089-1.089V352Z" transform="translate(0 -340.02)"/></svg>