<svg xmlns="http://www.w3.org/2000/svg" width="108" height="108" viewBox="0 0 108 108"><defs><style>.a{fill:#040505;}.b{fill:#e82418;}.c{fill:#fff;}.d{fill:#1f56a4;}.e{fill:#298836;}.f{fill:#ffea56;}.g{fill:#ec5026;}.h{fill:#191717;}.i{fill:#005488;}.j{fill:#f9830e;}.k{fill:#bc231c;}.l{fill:#072a51;}.m{fill:#277ec3;}.n{fill:#0c5454;}</style></defs><rect class="a" width="108" height="90.713" transform="translate(0 0)"/><rect class="b" width="4.343" height="17.505" transform="translate(0 90.495)"/><rect class="c" width="4.343" height="17.505" transform="translate(4.343 90.495)"/><rect class="d" width="4.343" height="17.505" transform="translate(8.685 90.495)"/><rect class="e" width="4.343" height="17.505" transform="translate(13.028 90.495)"/><rect class="f" width="4.343" height="17.505" transform="translate(17.299 90.495)"/><rect class="g" width="4.343" height="17.505" transform="translate(21.595 90.495)"/><rect class="h" width="4.343" height="17.505" transform="translate(25.914 90.495)"/><rect class="e" width="4.343" height="17.505" transform="translate(30.233 90.495)"/><rect class="b" width="4.343" height="17.505" transform="translate(34.552 90.495)"/><rect class="c" width="4.343" height="17.505" transform="translate(38.872 90.495)"/><rect class="i" width="4.343" height="17.505" transform="translate(43.191 90.495)"/><rect class="f" width="4.343" height="17.505" transform="translate(47.51 90.495)"/><rect class="h" width="4.343" height="17.505" transform="translate(51.829 90.495)"/><rect class="j" width="4.343" height="17.505" transform="translate(56.148 90.495)"/><rect class="c" width="4.343" height="17.505" transform="translate(60.467 90.495)"/><rect class="k" width="4.343" height="17.505" transform="translate(64.786 90.495)"/><rect class="l" width="4.343" height="17.505" transform="translate(69.105 90.495)"/><rect class="e" width="4.343" height="17.505" transform="translate(73.424 90.495)"/><rect class="f" width="4.343" height="17.505" transform="translate(77.743 90.495)"/><rect class="i" width="4.343" height="17.505" transform="translate(82.062 90.495)"/><rect class="b" width="4.343" height="17.505" transform="translate(86.381 90.495)"/><rect class="m" width="4.343" height="17.505" transform="translate(90.63 90.495)"/><rect class="j" width="4.343" height="17.505" transform="translate(94.972 90.495)"/><rect class="c" width="4.343" height="17.505" transform="translate(99.315 90.495)"/><rect class="n" width="4.343" height="17.505" transform="translate(103.657 90.495)"/><g transform="translate(8.462 26.049)"><path class="c" d="M152.209,244.007a6.826,6.826,0,0,1,4.9,1.863,6.179,6.179,0,0,1,1.957,4.671,6.081,6.081,0,0,1-1.975,4.648,7.022,7.022,0,0,1-4.981,1.84,6.62,6.62,0,0,1-4.781-1.84,6.135,6.135,0,0,1-1.912-4.612,6.272,6.272,0,0,1,1.925-4.707A6.716,6.716,0,0,1,152.209,244.007Zm.073,1.727A4.927,4.927,0,0,0,148.7,247.1a4.643,4.643,0,0,0-1.4,3.481,4.558,4.558,0,0,0,1.407,3.417,5.224,5.224,0,0,0,7.068-.027,4.647,4.647,0,0,0,1.421-3.462,4.54,4.54,0,0,0-1.421-3.394A4.825,4.825,0,0,0,152.281,245.734Z" transform="translate(-145.416 -244.007)"/><path class="c" d="M229.93,281.78V269.158h2.9a5.013,5.013,0,0,1,3.463,1.108,3.945,3.945,0,0,1,1.239,3.1,4.267,4.267,0,0,1-1.166,3.09,3.95,3.95,0,0,1-2.971,1.209,5.206,5.206,0,0,1-1.769-.354v4.471Zm2.86-11.077h-1.17v5.143a3.449,3.449,0,0,0,1.6.391,2.456,2.456,0,0,0,1.9-.809,2.965,2.965,0,0,0,.739-2.081,2.918,2.918,0,0,0-.349-1.445,2.114,2.114,0,0,0-.952-.913A4.255,4.255,0,0,0,232.79,270.7Z" transform="translate(-214.856 -264.642)"/><path class="c" d="M285.541,272.736h-5.879a2.728,2.728,0,0,0,.8,1.908,2.653,2.653,0,0,0,1.913.709,4.977,4.977,0,0,0,3.017-1.018v1.618a5.524,5.524,0,0,1-1.513.727,6.324,6.324,0,0,1-1.758.218,3.947,3.947,0,0,1-2.235-.573,4.162,4.162,0,0,1-1.368-1.54,4.707,4.707,0,0,1-.513-2.24,4.447,4.447,0,0,1,1.081-3.1,3.612,3.612,0,0,1,2.808-1.195,3.308,3.308,0,0,1,2.653,1.163,4.647,4.647,0,0,1,.99,3.117Zm-5.843-.991h4.207a2.311,2.311,0,0,0-.591-1.527,1.9,1.9,0,0,0-1.417-.536,2.039,2.039,0,0,0-1.459.536A2.656,2.656,0,0,0,279.7,271.745Z" transform="translate(-254.359 -263.894)"/><path class="c" d="M329.344,268.411v1.063a3.324,3.324,0,0,1,2.517-1.227,2.774,2.774,0,0,1,1.454.4,2.638,2.638,0,0,1,1.022,1.109,5.3,5.3,0,0,1,.35,2.231v4.78h-1.654v-4.762a3.256,3.256,0,0,0-.391-1.831,1.5,1.5,0,0,0-1.309-.55,2.383,2.383,0,0,0-1.99,1.172v5.97h-1.69v-8.36Z" transform="translate(-295.148 -263.894)"/><path class="c" d="M153.338,347.513H157.6v5.38a11.611,11.611,0,0,1-4.653,1.018,6.9,6.9,0,0,1-5.039-1.84,6.091,6.091,0,0,1-1.886-4.539,6.314,6.314,0,0,1,1.954-4.734,6.762,6.762,0,0,1,4.9-1.89,8.683,8.683,0,0,1,2.036.232,16.7,16.7,0,0,1,2.435.85v1.854a8.931,8.931,0,0,0-4.507-1.318,4.783,4.783,0,0,0-3.508,1.418,5.025,5.025,0,0,0,0,7.015A5.077,5.077,0,0,0,153,352.329a8.558,8.558,0,0,0,2.608-.5l.173-.055v-2.644h-2.444Z" transform="translate(-145.914 -323.507)"/><path class="c" d="M223.732,365.855a4.361,4.361,0,0,1,3.172,1.231,4.142,4.142,0,0,1,1.263,3.094,3.933,3.933,0,0,1-1.281,3,4.545,4.545,0,0,1-3.226,1.195,4.361,4.361,0,0,1-3.144-1.213,4.284,4.284,0,0,1,.014-6.088A4.448,4.448,0,0,1,223.732,365.855Zm-.091,1.49a2.613,2.613,0,0,0-1.954.781,2.731,2.731,0,0,0-.763,1.99,2.608,2.608,0,0,0,.782,1.958,2.763,2.763,0,0,0,2.008.759,2.718,2.718,0,0,0,1.995-.768,2.843,2.843,0,0,0-.032-3.939A2.812,2.812,0,0,0,223.641,367.345Z" transform="translate(-205.994 -343.975)"/><path class="c" d="M276.025,365.957h1.793l-3.692,8.505h-.56l-3.781-8.505h1.81l2.256,5.143Z" transform="translate(-247.603 -344.059)"/><path class="c" d="M324.586,369.535h-5.879a2.73,2.73,0,0,0,.8,1.908,2.653,2.653,0,0,0,1.913.709,4.978,4.978,0,0,0,3.017-1.018v1.618a5.523,5.523,0,0,1-1.513.727,6.327,6.327,0,0,1-1.759.218,3.948,3.948,0,0,1-2.235-.572,4.166,4.166,0,0,1-1.368-1.54,4.71,4.71,0,0,1-.513-2.24,4.446,4.446,0,0,1,1.081-3.1,3.611,3.611,0,0,1,2.808-1.2,3.308,3.308,0,0,1,2.653,1.163,4.648,4.648,0,0,1,.991,3.117Zm-5.843-.99h4.207a2.31,2.31,0,0,0-.591-1.527,1.9,1.9,0,0,0-1.418-.536,2.039,2.039,0,0,0-1.458.536A2.655,2.655,0,0,0,318.743,368.545Z" transform="translate(-286.44 -343.311)"/><path class="c" d="M369.171,365.21v1.917l.091-.145q1.2-1.936,2.4-1.936a2.958,2.958,0,0,1,1.954.945l-.872,1.454a2.45,2.45,0,0,0-1.6-.818,1.714,1.714,0,0,0-1.386.763,2.883,2.883,0,0,0-.586,1.808v4.371h-1.663v-8.36Z" transform="translate(-327.891 -343.311)"/><path class="c" d="M407.357,365.21v1.063a3.325,3.325,0,0,1,2.517-1.227,2.771,2.771,0,0,1,1.454.4,2.64,2.64,0,0,1,1.022,1.109,5.3,5.3,0,0,1,.35,2.231v4.78h-1.654v-4.762a3.253,3.253,0,0,0-.391-1.831,1.494,1.494,0,0,0-1.308-.55,2.383,2.383,0,0,0-1.99,1.172v5.97h-1.69v-8.36Z" transform="translate(-359.246 -343.311)"/><path class="c" d="M460.065,367.416v6.07H458.4v-4.653a3.656,3.656,0,0,0-.372-1.94,1.456,1.456,0,0,0-1.3-.55,1.948,1.948,0,0,0-.95.236,4.185,4.185,0,0,0-.986.836v6.07H453.14v-8.36h1.654v1.1a3.6,3.6,0,0,1,2.472-1.263,2.716,2.716,0,0,1,2.463,1.509,3.732,3.732,0,0,1,2.772-1.527,2.555,2.555,0,0,1,2,.891,4.015,4.015,0,0,1,.786,2.717v4.934h-1.654v-4.952a2.58,2.58,0,0,0-.427-1.6,1.457,1.457,0,0,0-1.227-.554A2.538,2.538,0,0,0,460.065,367.416Z" transform="translate(-398.275 -343.228)"/><path class="c" d="M534.561,369.535h-5.88a2.73,2.73,0,0,0,.8,1.908,2.653,2.653,0,0,0,1.913.709,4.978,4.978,0,0,0,3.017-1.018v1.618a5.522,5.522,0,0,1-1.513.727,6.326,6.326,0,0,1-1.758.218,3.947,3.947,0,0,1-2.235-.572,4.164,4.164,0,0,1-1.368-1.54,4.71,4.71,0,0,1-.513-2.24,4.446,4.446,0,0,1,1.081-3.1,3.612,3.612,0,0,1,2.808-1.2,3.308,3.308,0,0,1,2.653,1.163,4.648,4.648,0,0,1,.991,3.117Zm-5.843-.99h4.207a2.311,2.311,0,0,0-.591-1.527,1.9,1.9,0,0,0-1.418-.536,2.038,2.038,0,0,0-1.458.536A2.656,2.656,0,0,0,528.718,368.545Z" transform="translate(-458.963 -343.311)"/><path class="c" d="M578.365,365.21v1.063a3.324,3.324,0,0,1,2.517-1.227,2.773,2.773,0,0,1,1.454.4,2.639,2.639,0,0,1,1.022,1.109,5.3,5.3,0,0,1,.35,2.231v4.78h-1.654v-4.762a3.256,3.256,0,0,0-.391-1.831,1.5,1.5,0,0,0-1.309-.55,2.383,2.383,0,0,0-1.99,1.172v5.97h-1.69v-8.36Z" transform="translate(-499.798 -343.311)"/><path class="c" d="M620.1,359.394l3.108-3.053v1.727h2.644v1.49H623.2v4.092q0,1.433,1.19,1.433a3.693,3.693,0,0,0,1.881-.591v1.545a4.176,4.176,0,0,1-2.081.536,2.758,2.758,0,0,1-1.89-.663,1.882,1.882,0,0,1-.391-.45,2.382,2.382,0,0,1-.259-.654,7.353,7.353,0,0,1-.1-1.54v-3.708H620.1Z" transform="translate(-535.422 -336.17)"/><path class="c" d="M148,451.23V438.517h4.026a4.149,4.149,0,0,1,2.9.982A3.383,3.383,0,0,1,156,442.134a3.526,3.526,0,0,1-.554,1.963,3.169,3.169,0,0,1-1.518,1.24,7.72,7.72,0,0,1-2.763.386h-1.345v5.507Zm3.708-11.1h-1.881v3.971h1.99a2.522,2.522,0,0,0,1.708-.522,1.876,1.876,0,0,0,.6-1.495Q154.122,440.135,151.7,440.134Z" transform="translate(-147.534 -403.59)"/><path class="c" d="M202.3,465.345V468.9q0,.427.291.427a2,2,0,0,0,.936-.445v1.009a5.4,5.4,0,0,1-.9.5,1.962,1.962,0,0,1-.713.132q-1.063,0-1.254-.836a3.6,3.6,0,0,1-2.245.818,1.98,1.98,0,0,1-1.454-.577,1.957,1.957,0,0,1-.582-1.449,2.04,2.04,0,0,1,.568-1.413,3.844,3.844,0,0,1,1.613-.986l2.117-.727V464.9a1.333,1.333,0,0,0-1.509-1.508,3.634,3.634,0,0,0-2.635,1.4v-1.808a3.433,3.433,0,0,1,2.772-1.136,3.2,3.2,0,0,1,2.172.709,2.227,2.227,0,0,1,.491.6,2.18,2.18,0,0,1,.277.754A11.167,11.167,0,0,1,202.3,465.345Zm-1.627,3.371v-2.481l-1.109.427a3.744,3.744,0,0,0-1.2.677,1.224,1.224,0,0,0-.018,1.695,1.17,1.17,0,0,0,.859.327A2.079,2.079,0,0,0,200.674,468.716Z" transform="translate(-187.225 -422.73)"/><path class="c" d="M244.548,462.01v1.917l.091-.145q1.2-1.936,2.4-1.936a2.957,2.957,0,0,1,1.954.945l-.872,1.454a2.45,2.45,0,0,0-1.6-.818,1.714,1.714,0,0,0-1.386.763,2.883,2.883,0,0,0-.586,1.808v4.371h-1.663v-8.36Z" transform="translate(-225.498 -422.73)"/><path class="c" d="M278.866,456.2l3.108-3.053v1.726h2.644v1.49h-2.644v4.092q0,1.433,1.19,1.433a3.692,3.692,0,0,0,1.881-.591v1.545a4.175,4.175,0,0,1-2.081.536,2.757,2.757,0,0,1-1.89-.663,1.88,1.88,0,0,1-.391-.45,2.381,2.381,0,0,1-.259-.654,7.334,7.334,0,0,1-.1-1.54v-3.707h-1.454Z" transform="translate(-255.061 -415.588)"/><path class="c" d="M321.394,462.01v1.063a3.324,3.324,0,0,1,2.517-1.227,2.772,2.772,0,0,1,1.454.4,2.637,2.637,0,0,1,1.022,1.109,5.3,5.3,0,0,1,.35,2.231v4.78h-1.654v-4.762a3.256,3.256,0,0,0-.391-1.831,1.5,1.5,0,0,0-1.309-.55,2.382,2.382,0,0,0-1.99,1.172v5.97H319.7v-8.36Z" transform="translate(-288.616 -422.73)"/><path class="c" d="M372.837,466.335h-5.879a2.729,2.729,0,0,0,.8,1.908,2.653,2.653,0,0,0,1.913.709,4.978,4.978,0,0,0,3.017-1.018v1.618a5.527,5.527,0,0,1-1.513.727,6.324,6.324,0,0,1-1.758.218,3.947,3.947,0,0,1-2.235-.573,4.165,4.165,0,0,1-1.368-1.54,4.709,4.709,0,0,1-.513-2.24,4.446,4.446,0,0,1,1.081-3.1,3.611,3.611,0,0,1,2.808-1.195,3.308,3.308,0,0,1,2.653,1.163,4.647,4.647,0,0,1,.991,3.117Zm-5.843-.991H371.2a2.31,2.31,0,0,0-.591-1.527,1.9,1.9,0,0,0-1.418-.536,2.039,2.039,0,0,0-1.458.536A2.658,2.658,0,0,0,366.994,465.345Z" transform="translate(-326.084 -422.73)"/><path class="c" d="M417.422,462.01v1.917l.091-.145q1.2-1.936,2.4-1.936a2.957,2.957,0,0,1,1.954.945l-.872,1.454a2.45,2.45,0,0,0-1.6-.818,1.714,1.714,0,0,0-1.386.763,2.883,2.883,0,0,0-.586,1.808v4.371h-1.663v-8.36Z" transform="translate(-367.535 -422.73)"/><path class="c" d="M453.916,469.77v-1.781a7.533,7.533,0,0,0,1.431.8,3.336,3.336,0,0,0,1.231.3,1.541,1.541,0,0,0,.891-.255.731.731,0,0,0,.372-.609.82.82,0,0,0-.241-.6,5.6,5.6,0,0,0-1.04-.7,7.365,7.365,0,0,1-2.095-1.522,2.183,2.183,0,0,1-.5-1.377,1.933,1.933,0,0,1,.75-1.572,2.967,2.967,0,0,1,1.931-.609,5.32,5.32,0,0,1,2.517.691v1.636a5.036,5.036,0,0,0-2.408-.89,1.338,1.338,0,0,0-.777.2.629.629,0,0,0-.3.541.778.778,0,0,0,.268.555,4.568,4.568,0,0,0,.94.636l.591.336q2.091,1.181,2.091,2.616a2.083,2.083,0,0,1-.8,1.685,3.157,3.157,0,0,1-2.067.658,5.042,5.042,0,0,1-1.327-.159A8.9,8.9,0,0,1,453.916,469.77Z" transform="translate(-398.883 -422.73)"/><path class="c" d="M493.8,438.618h1.654v5.434a3.2,3.2,0,0,1,2.572-1.263,2.755,2.755,0,0,1,1.5.418,2.533,2.533,0,0,1,.986,1.154,5.71,5.71,0,0,1,.323,2.19v4.762h-1.654v-5.171a2.286,2.286,0,0,0-.45-1.477,1.448,1.448,0,0,0-1.186-.559,2,2,0,0,0-1.027.282,4.66,4.66,0,0,0-1.063.936v5.988H493.8Z" transform="translate(-431.657 -403.672)"/><path class="c" d="M544.1,443.172a.97.97,0,0,1,.7.282.925.925,0,0,1,.291.691.943.943,0,0,1-.291.69.954.954,0,0,1-.7.291.916.916,0,0,1-.672-.3.947.947,0,0,1-.291-.686.938.938,0,0,1,.291-.677A.917.917,0,0,1,544.1,443.172Zm-.818,3.517h1.654v8.36h-1.654Z" transform="translate(-472.17 -407.409)"/><path class="c" d="M563.788,475.379V462.757h2.9a5.012,5.012,0,0,1,3.462,1.109,3.943,3.943,0,0,1,1.239,3.1,4.266,4.266,0,0,1-1.166,3.089,3.95,3.95,0,0,1-2.971,1.208,5.206,5.206,0,0,1-1.769-.354v4.471Zm2.86-11.077h-1.17v5.143a3.453,3.453,0,0,0,1.6.391,2.456,2.456,0,0,0,1.9-.809,2.964,2.964,0,0,0,.739-2.081,2.921,2.921,0,0,0-.349-1.445,2.116,2.116,0,0,0-.952-.913A4.255,4.255,0,0,0,566.648,464.3Z" transform="translate(-489.225 -423.477)"/></g></svg>