<svg xmlns="http://www.w3.org/2000/svg" width="105.855" height="93.188" viewBox="0 0 105.855 93.188"><defs><style>.a{fill:#fff;}.b{fill:#002b51;}.c{fill:#da0021;}</style></defs><g transform="translate(20.995 0)"><path class="a" d="M301.293,114.17a31.932,31.932,0,1,1-31.931-31.931A31.932,31.932,0,0,1,301.293,114.17Z" transform="translate(-237.429 -82.239)"/><g transform="translate(1.795 1.813)"><path class="b" d="M284.664,112.263a10.548,10.548,0,0,0-15,3.144,10.538,10.538,0,0,1-19.058-2.9h0c-.013-.043-.02-.077-.031-.112s-.02-.088-.034-.133a13.516,13.516,0,0,1-.543-4.191c0-9.45,9.7-19.975,23.665-19.975,14.3,0,22.49,10.888,24.605,16.942-.042-.113-.077-.215-.111-.321a30.121,30.121,0,0,0-58.613,9.77c0,14.868,10.723,27.594,25.6,27.594,11.86,0,19.834-6.649,23.486-15.818A11.6,11.6,0,0,0,284.664,112.263Z" transform="translate(-239.54 -84.371)"/><g transform="translate(10.454 3.726)"><path class="c" d="M300.288,106.28c-1.765-5.906-10-17.527-24.79-17.527-13.962,0-23.665,10.525-23.665,19.975a13.516,13.516,0,0,0,.543,4.191,8.854,8.854,0,0,1-.274-2.149c0-9.843,9.854-16.662,19.983-16.662a24.831,24.831,0,0,1,24.834,24.829,27.378,27.378,0,0,1-15.171,24.526v.009a30.178,30.178,0,0,0,18.539-37.192Z" transform="translate(-251.833 -88.753)"/></g></g></g><g transform="translate(0 74.961)"><path class="a" d="M212.74,171.863h7.276v1.906h-5.122v10.072h5.335v1.886H212.74Zm13.12-1.066h2.061v17.317H225.86v-8.345h-2.311v8.244h-2.017v-17.2h2.017v7.108h2.311Z" transform="translate(-212.74 -170.449)"/><path class="a" d="M233.774,173.881v-1.842h4.076v-1.651h2.291v1.651h4.1v1.842Zm.775,13.822v-5.259H236.7v3.372h11.8V187.7Zm8.47-9.646a3.35,3.35,0,0,1-.325,1.438,4.288,4.288,0,0,1-.847,1.178,4.254,4.254,0,0,1-4.414.793,3.809,3.809,0,0,1-1.27-.793,4.141,4.141,0,0,1-.863-1.178,3.205,3.205,0,0,1-.321-1.438,3.311,3.311,0,0,1,.321-1.457,3.9,3.9,0,0,1,.863-1.185,4.3,4.3,0,0,1,1.27-.811,4.3,4.3,0,0,1,3.129,0,4.614,4.614,0,0,1,1.285.811,4.035,4.035,0,0,1,.847,1.185A3.463,3.463,0,0,1,243.019,178.057Zm-2.086-.02a1.89,1.89,0,0,0-.556-1.368,1.852,1.852,0,0,0-1.365-.581,1.828,1.828,0,0,0-1.354.581,1.88,1.88,0,0,0-.565,1.368,1.816,1.816,0,0,0,.565,1.349,1.869,1.869,0,0,0,1.354.552,1.894,1.894,0,0,0,1.365-.552A1.825,1.825,0,0,0,240.933,178.036Zm7.2-2.581h2.482v1.882h-2.482v4.485h-2.157V170.736h2.157Z" transform="translate(-215.887 -170.388)"/><path class="a" d="M256.236,180.191v-8.886h8.907v8.886Zm.506,7.573v-5.779h2.131v3.877h12.053v1.9Zm6.286-14.6H258.37v5.185h4.658Zm5.59,8.721V170.8h2.154v11.087Z" transform="translate(-219.247 -170.449)"/><path class="a" d="M291.153,182.176v6.034H289v-4.148H277.609v-1.885h5.8v-2.539h-6.888v-1.885h15.914v1.885h-6.886v2.539Zm0-10.967v5.166H289v-3.266H277.8v-1.9Z" transform="translate(-222.282 -170.511)"/><path class="a" d="M297.808,173.142v-1.837h9.9v1.837h-4.231l4.405,5.384-1.494,1.242-3.573-4.448-3.511,4.735-1.55-1.242,4.406-5.671Zm13.723,11.28a3.81,3.81,0,0,1-.359,1.645,4.714,4.714,0,0,1-.958,1.348,4.647,4.647,0,0,1-1.434.923,4.69,4.69,0,0,1-3.5,0,4.473,4.473,0,0,1-1.434-.923,4.555,4.555,0,0,1-.964-1.348,3.82,3.82,0,0,1-.355-1.645,3.781,3.781,0,0,1,.355-1.635,4.571,4.571,0,0,1,.964-1.354,4.255,4.255,0,0,1,1.434-.917,4.562,4.562,0,0,1,3.5,0,4.412,4.412,0,0,1,1.434.917,4.73,4.73,0,0,1,.958,1.354A3.772,3.772,0,0,1,311.531,184.422Zm-2.116-.014a2.252,2.252,0,0,0-.712-1.668,2.316,2.316,0,0,0-1.7-.7,2.388,2.388,0,0,0-2.363,2.368,2.365,2.365,0,0,0,2.363,2.363,2.344,2.344,0,0,0,1.7-.687A2.265,2.265,0,0,0,309.415,184.408Zm1.438-4.427v-3.748h-3.22V174.37h3.22V170.8H313v9.183Z" transform="translate(-225.458 -170.449)"/><path class="a" d="M318.508,181.782h15.911v1.9h-6.885v4.464h-2.162v-4.464h-6.864Zm3.392-8.463h9.109v-2.19h2.134v8.325H319.78v-8.325h2.12Zm9.109,1.866H321.9v2.385h9.109Z" transform="translate(-228.564 -170.499)"/></g></svg>