<svg xmlns="http://www.w3.org/2000/svg" width="119" height="70.95" viewBox="0 0 119 70.95"><defs><style>.a{fill:#fff;}.b{fill:#dc000c;}.c{fill:#003f88;}.d,.e{stroke:none;}.e{fill:#fff;}</style></defs><g transform="translate(-178.152 -227.586)"><g transform="translate(204.372 246.235)"><path class="a" d="M292.048,369.442H281.327V358.721h10.721Zm-9.961-.76h9.2v-9.2h-9.2Z" transform="translate(-278.287 -340.262)"/><rect class="a" width="16.725" height="0.76" transform="translate(0.094 15.968)"/><path class="a" d="M276.927,356.661h-6.29v-.76h5.53v-4.6h.76Z" transform="translate(-270.636 -334.952)"/><path class="a" d="M313.907,356.661H307.6V351.3h.76v4.6h5.549Z" transform="translate(-297.087 -334.952)"/><path class="a" d="M308.358,390.3h-.76v-5.306h6.237v.76h-5.478Z" transform="translate(-297.087 -359.063)"/><path class="a" d="M277.164,390.3h-.76v-4.546h-5.436v-.76h6.2Z" transform="translate(-270.873 -359.063)"/><path class="a" d="M292.048,421.792H281.327V411.071h10.721Zm-9.961-.76h9.2v-9.2h-9.2Z" transform="translate(-278.287 -377.725)"/><rect class="a" width="16.725" height="0.76" transform="translate(0.094 30.855)"/><path class="a" d="M276.927,409.011h-6.29v-.76h5.53v-4.6h.76Z" transform="translate(-270.636 -372.415)"/><path class="a" d="M313.907,409.011H307.6v-5.36h.76v4.6h5.549Z" transform="translate(-297.087 -372.415)"/><path class="a" d="M308.358,444.129h-.76v-6.787h6.237v.76h-5.478Z" transform="translate(-297.087 -396.526)"/><path class="a" d="M277.164,444.129h-.76V438.1h-5.436v-.76h6.2Z" transform="translate(-270.873 -396.526)"/><path class="a" d="M292.048,317.092H281.327V306.371h10.721Zm-9.961-.76h9.2v-9.2h-9.2Z" transform="translate(-278.287 -302.799)"/><path class="a" d="M276.927,300.633h-6.29v-.76h5.53v-6.062h.76Z" transform="translate(-270.636 -293.812)"/><path class="a" d="M313.907,300.633H307.6v-6.822h.76v6.062h5.549Z" transform="translate(-297.087 -293.812)"/><path class="a" d="M308.358,337.948h-.76v-5.306h6.237v.76h-5.478Z" transform="translate(-297.087 -321.6)"/><path class="a" d="M277.164,337.948h-.76V333.4h-5.436v-.76h6.2Z" transform="translate(-270.873 -321.6)"/></g><g transform="translate(178.152 227.586)"><path class="a" d="M181.485,236.188a4,4,0,0,1-1.756-.352,2.47,2.47,0,0,1-1.123-1.087,4.269,4.269,0,0,1-.442-1.846q-.012-.525-.012-1.01t.012-1.01a4.076,4.076,0,0,1,.46-1.834,2.632,2.632,0,0,1,1.147-1.1,4.186,4.186,0,0,1,3.417,0,2.668,2.668,0,0,1,1.153,1.1,3.931,3.931,0,0,1,.454,1.834q.024.526.024,1.01t-.024,1.01a4.111,4.111,0,0,1-.436,1.846,2.5,2.5,0,0,1-1.129,1.087A3.974,3.974,0,0,1,181.485,236.188Zm0-1.016a2.074,2.074,0,0,0,1.487-.549,2.5,2.5,0,0,0,.627-1.78q.024-.538.024-.962t-.024-.95a2.967,2.967,0,0,0-.3-1.338,1.77,1.77,0,0,0-.747-.753,2.487,2.487,0,0,0-2.127,0,1.769,1.769,0,0,0-.747.753,3.064,3.064,0,0,0-.316,1.338q-.012.525-.012.95t.012.962a2.487,2.487,0,0,0,.633,1.78A2.1,2.1,0,0,0,181.485,235.173Z" transform="translate(-178.152 -227.586)"/><path class="a" d="M209.964,236.188a3.762,3.762,0,0,1-1.8-.394,2.7,2.7,0,0,1-1.123-1.111,3.892,3.892,0,0,1-.436-1.685q-.012-.526-.012-1.117t.012-1.129a3.85,3.85,0,0,1,.436-1.679,2.663,2.663,0,0,1,1.129-1.1,3.822,3.822,0,0,1,1.792-.388,4.061,4.061,0,0,1,1.458.239,3.22,3.22,0,0,1,1.021.6,2.634,2.634,0,0,1,.6.759,1.754,1.754,0,0,1,.209.693.194.194,0,0,1-.06.173.273.273,0,0,1-.191.066h-.7a.257.257,0,0,1-.173-.048.447.447,0,0,1-.1-.167,2,2,0,0,0-.352-.609,1.881,1.881,0,0,0-.657-.5,2.418,2.418,0,0,0-1.045-.2,2.229,2.229,0,0,0-1.535.514,2.3,2.3,0,0,0-.627,1.7q-.036,1.063,0,2.127a2.322,2.322,0,0,0,.633,1.715,2.217,2.217,0,0,0,1.529.52,2.567,2.567,0,0,0,1.129-.239,1.8,1.8,0,0,0,.782-.723,2.4,2.4,0,0,0,.287-1.236v-.5H210.37a.266.266,0,0,1-.2-.078.283.283,0,0,1-.078-.209V231.8a.283.283,0,0,1,.078-.209.267.267,0,0,1,.2-.078h2.7a.264.264,0,0,1,.2.078.3.3,0,0,1,.072.209v1.147a3.5,3.5,0,0,1-.4,1.709,2.749,2.749,0,0,1-1.165,1.129A3.868,3.868,0,0,1,209.964,236.188Z" transform="translate(-198.507 -227.586)"/><path class="a" d="M236.614,236.369a.262.262,0,0,1-.2-.078.28.28,0,0,1-.072-.2v-7.8a.3.3,0,0,1,.072-.209.263.263,0,0,1,.2-.078h3.035a3.787,3.787,0,0,1,1.535.287,2.219,2.219,0,0,1,1.01.854,2.605,2.605,0,0,1,.358,1.416,2.574,2.574,0,0,1-.358,1.41,2.233,2.233,0,0,1-1.01.848,3.787,3.787,0,0,1-1.535.286h-2.115v2.987a.268.268,0,0,1-.078.2.283.283,0,0,1-.209.078Zm.908-4.265h2.067a1.939,1.939,0,0,0,1.326-.394,1.456,1.456,0,0,0,.442-1.147,1.5,1.5,0,0,0-.43-1.147,1.9,1.9,0,0,0-1.338-.406h-2.067Z" transform="translate(-219.792 -227.887)"/><g transform="translate(26.599)"><path class="a" d="M275.451,236.188a3.764,3.764,0,0,1-1.8-.394,2.7,2.7,0,0,1-1.123-1.111,3.9,3.9,0,0,1-.436-1.685q-.012-.526-.012-1.117t.012-1.129a3.858,3.858,0,0,1,.436-1.679,2.666,2.666,0,0,1,1.129-1.1,3.822,3.822,0,0,1,1.792-.388,4.058,4.058,0,0,1,1.457.239,3.221,3.221,0,0,1,1.022.6,2.63,2.63,0,0,1,.6.759,1.753,1.753,0,0,1,.209.693.193.193,0,0,1-.06.173.272.272,0,0,1-.191.066h-.7a.255.255,0,0,1-.173-.048.44.44,0,0,1-.1-.167,2.006,2.006,0,0,0-.353-.609,1.882,1.882,0,0,0-.657-.5,2.42,2.42,0,0,0-1.045-.2,2.23,2.23,0,0,0-1.535.514,2.3,2.3,0,0,0-.627,1.7q-.036,1.063,0,2.127a2.322,2.322,0,0,0,.633,1.715,2.218,2.218,0,0,0,1.529.52,2.567,2.567,0,0,0,1.129-.239,1.8,1.8,0,0,0,.783-.723,2.4,2.4,0,0,0,.287-1.236v-.5h-1.792a.266.266,0,0,1-.2-.078.281.281,0,0,1-.078-.209V231.8a.281.281,0,0,1,.078-.209.267.267,0,0,1,.2-.078h2.7a.263.263,0,0,1,.2.078.3.3,0,0,1,.072.209v1.147a3.5,3.5,0,0,1-.4,1.709,2.752,2.752,0,0,1-1.165,1.129A3.869,3.869,0,0,1,275.451,236.188Z" transform="translate(-272.082 -227.586)"/><path class="a" d="M302.1,236.369a.263.263,0,0,1-.2-.078.279.279,0,0,1-.072-.2v-7.814a.28.28,0,0,1,.072-.2.264.264,0,0,1,.2-.078h.633a.266.266,0,0,1,.275.275v7.049h3.967a.268.268,0,0,1,.287.287v.478a.267.267,0,0,1-.078.2.283.283,0,0,1-.209.078Z" transform="translate(-293.368 -227.887)"/><path class="a" d="M327.258,236.188a4,4,0,0,1-1.756-.352,2.47,2.47,0,0,1-1.123-1.087,4.27,4.27,0,0,1-.442-1.846q-.012-.525-.012-1.01t.012-1.01a4.077,4.077,0,0,1,.46-1.834,2.632,2.632,0,0,1,1.147-1.1,4.186,4.186,0,0,1,3.417,0,2.669,2.669,0,0,1,1.153,1.1,3.93,3.93,0,0,1,.454,1.834q.024.526.024,1.01t-.024,1.01a4.112,4.112,0,0,1-.436,1.846A2.506,2.506,0,0,1,329,235.836,3.976,3.976,0,0,1,327.258,236.188Zm0-1.016a2.074,2.074,0,0,0,1.487-.549,2.5,2.5,0,0,0,.627-1.78q.024-.538.024-.962t-.024-.95a2.967,2.967,0,0,0-.3-1.338,1.771,1.771,0,0,0-.747-.753,2.486,2.486,0,0,0-2.127,0,1.771,1.771,0,0,0-.747.753,3.068,3.068,0,0,0-.316,1.338q-.012.525-.012.95t.012.962a2.485,2.485,0,0,0,.633,1.78A2.094,2.094,0,0,0,327.258,235.173Z" transform="translate(-309.182 -227.586)"/><path class="a" d="M353.777,236.369a.262.262,0,0,1-.2-.078.279.279,0,0,1-.072-.2v-7.8a.3.3,0,0,1,.072-.209.263.263,0,0,1,.2-.078h3.274a3.191,3.191,0,0,1,1.464.293,1.905,1.905,0,0,1,.836.795,2.34,2.34,0,0,1,.269,1.123,2.007,2.007,0,0,1-.162.842,1.772,1.772,0,0,1-.4.573,2.239,2.239,0,0,1-.466.341,2.227,2.227,0,0,1,.83.741,2.093,2.093,0,0,1,.365,1.242,2.487,2.487,0,0,1-.3,1.207,2.2,2.2,0,0,1-.89.878,2.951,2.951,0,0,1-1.452.328Zm.9-4.827h2.2a1.689,1.689,0,0,0,1.159-.352,1.225,1.225,0,0,0,.394-.962,1.134,1.134,0,0,0-.394-.932,1.794,1.794,0,0,0-1.159-.323h-2.2Zm0,3.859h2.318a1.6,1.6,0,0,0,1.183-.418,1.493,1.493,0,0,0,0-2.073,1.614,1.614,0,0,0-1.183-.412h-2.318Z" transform="translate(-330.348 -227.887)"/><path class="a" d="M378.655,236.369a.245.245,0,0,1-.239-.239.8.8,0,0,1,.012-.131l2.963-7.73a.485.485,0,0,1,.131-.191.377.377,0,0,1,.251-.072h.812a.378.378,0,0,1,.251.072.49.49,0,0,1,.131.191l2.951,7.73a.428.428,0,0,1,.024.131.245.245,0,0,1-.239.239h-.609a.271.271,0,0,1-.209-.072.447.447,0,0,1-.09-.131l-.657-1.7H380.22l-.657,1.7a.277.277,0,0,1-.084.131.292.292,0,0,1-.215.072Zm1.912-2.927h3.226l-1.613-4.241Z" transform="translate(-348.177 -227.887)"/><path class="a" d="M409.654,236.369a.263.263,0,0,1-.2-.078.28.28,0,0,1-.072-.2v-7.814a.28.28,0,0,1,.072-.2.264.264,0,0,1,.2-.078h.633a.266.266,0,0,1,.275.275v7.049h3.967a.268.268,0,0,1,.287.287v.478a.267.267,0,0,1-.078.2.283.283,0,0,1-.209.078Z" transform="translate(-370.335 -227.887)"/></g><g transform="translate(74.83)"><path class="a" d="M445.617,236.188a4.186,4.186,0,0,1-1.744-.323,2.71,2.71,0,0,1-1.081-.83,1.909,1.909,0,0,1-.4-1.069.24.24,0,0,1,.078-.173.254.254,0,0,1,.185-.077h.609a.292.292,0,0,1,.215.072.354.354,0,0,1,.1.167,1.479,1.479,0,0,0,.3.568,1.68,1.68,0,0,0,.651.466,2.749,2.749,0,0,0,1.093.185,2.519,2.519,0,0,0,1.511-.364,1.157,1.157,0,0,0,.484-.974.912.912,0,0,0-.257-.675,2.255,2.255,0,0,0-.783-.46q-.526-.2-1.362-.442a7.876,7.876,0,0,1-1.446-.55,2.157,2.157,0,0,1-.854-.74,2.061,2.061,0,0,1-.281-1.123,2,2,0,0,1,.347-1.153,2.357,2.357,0,0,1,1-.806,3.79,3.79,0,0,1,1.577-.3,3.874,3.874,0,0,1,1.3.2,2.776,2.776,0,0,1,.926.526,2.41,2.41,0,0,1,.561.7,1.752,1.752,0,0,1,.2.735.264.264,0,0,1-.06.161.227.227,0,0,1-.191.078h-.633a.366.366,0,0,1-.174-.048.309.309,0,0,1-.137-.179,1.209,1.209,0,0,0-.549-.824,2.123,2.123,0,0,0-1.242-.335,2.374,2.374,0,0,0-1.261.3,1.131,1.131,0,0,0-.257,1.607,1.846,1.846,0,0,0,.717.472,12.237,12.237,0,0,0,1.279.43,9.572,9.572,0,0,1,1.565.555,2.2,2.2,0,0,1,.9.729,1.964,1.964,0,0,1,.293,1.117,2.1,2.1,0,0,1-.394,1.284,2.459,2.459,0,0,1-1.105.812A4.559,4.559,0,0,1,445.617,236.188Z" transform="translate(-442.391 -227.586)"/><path class="a" d="M473.387,236.489a3.849,3.849,0,0,1-1.726-.358,2.477,2.477,0,0,1-1.111-1.093,4.039,4.039,0,0,1-.388-1.894v-4.851a.3.3,0,0,1,.072-.209.264.264,0,0,1,.2-.078h.609a.268.268,0,0,1,.287.287v4.875a2.394,2.394,0,0,0,.549,1.732,2.291,2.291,0,0,0,3.005,0,2.377,2.377,0,0,0,.555-1.732v-4.875a.283.283,0,0,1,.078-.209.268.268,0,0,1,.2-.078h.621a.268.268,0,0,1,.2.078.283.283,0,0,1,.078.209v4.851a4.043,4.043,0,0,1-.388,1.894,2.486,2.486,0,0,1-1.105,1.093A3.842,3.842,0,0,1,473.387,236.489Z" transform="translate(-462.264 -227.887)"/><path class="a" d="M500.139,236.369a.266.266,0,0,1-.275-.275v-7.8a.283.283,0,0,1,.078-.209.268.268,0,0,1,.2-.078h.6a.292.292,0,0,1,.215.072.517.517,0,0,1,.1.119l2.521,4.827,2.545-4.827a.569.569,0,0,1,.09-.119.271.271,0,0,1,.209-.072H507a.267.267,0,0,1,.287.287v7.8a.267.267,0,0,1-.078.2.283.283,0,0,1-.209.078h-.585a.266.266,0,0,1-.275-.275v-5.878l-2,3.895a.4.4,0,0,1-.144.185.411.411,0,0,1-.239.066h-.371a.38.38,0,0,1-.239-.066.533.533,0,0,1-.143-.185L501,230.216v5.878a.266.266,0,0,1-.275.275Z" transform="translate(-483.52 -227.887)"/><path class="a" d="M533.5,236.369a.265.265,0,0,1-.275-.275v-7.8a.283.283,0,0,1,.078-.209.268.268,0,0,1,.2-.078h.6a.292.292,0,0,1,.215.072.528.528,0,0,1,.1.119l2.521,4.827,2.545-4.827a.575.575,0,0,1,.09-.119.271.271,0,0,1,.209-.072h.585a.267.267,0,0,1,.287.287v7.8a.267.267,0,0,1-.078.2.283.283,0,0,1-.209.078h-.585a.266.266,0,0,1-.275-.275v-5.878l-2,3.895a.4.4,0,0,1-.143.185.412.412,0,0,1-.239.066h-.37a.379.379,0,0,1-.239-.066.533.533,0,0,1-.143-.185l-2.007-3.895v5.878a.265.265,0,0,1-.275.275Z" transform="translate(-507.392 -227.887)"/><path class="a" d="M566.854,236.369a.262.262,0,0,1-.2-.078.28.28,0,0,1-.072-.2v-7.814a.281.281,0,0,1,.072-.2.263.263,0,0,1,.2-.078h.633a.264.264,0,0,1,.2.078.281.281,0,0,1,.072.2v7.814a.28.28,0,0,1-.072.2.263.263,0,0,1-.2.078Z" transform="translate(-531.263 -227.887)"/><path class="a" d="M578.287,236.369a.266.266,0,0,1-.275-.275v-7.025h-2.294a.266.266,0,0,1-.275-.275v-.5a.281.281,0,0,1,.078-.209.268.268,0,0,1,.2-.078h5.759a.267.267,0,0,1,.287.287v.5a.267.267,0,0,1-.078.2.283.283,0,0,1-.209.078H579.2v7.025a.267.267,0,0,1-.078.2.283.283,0,0,1-.209.078Z" transform="translate(-537.607 -227.887)"/></g></g><g class="b" transform="translate(-58.726 -38.236)"><path class="d" d="M 283.4156799316406 308.9071960449219 L 282.9156799316406 308.9071960449219 L 279.0083312988281 308.9071960449219 L 278.5083312988281 308.9071960449219 L 278.5083312988281 308.4071960449219 L 278.5083312988281 292.3289489746094 C 278.5083312988281 288.470947265625 275.3697509765625 285.3322448730469 271.5119323730469 285.3322448730469 C 267.6539611816406 285.3322448730469 264.5152893066406 288.470947265625 264.5152893066406 292.3289489746094 L 264.5152893066406 308.4071960449219 L 264.5152893066406 308.9071960449219 L 264.0152893066406 308.9071960449219 L 260.1080017089844 308.9071960449219 L 259.6080017089844 308.9071960449219 L 259.6080017089844 308.4071960449219 L 259.6080017089844 292.3289489746094 C 259.6080017089844 285.7650756835938 264.9480895996094 280.4249877929688 271.5119323730469 280.4249877929688 C 278.07568359375 280.4249877929688 283.4156799316406 285.7650756835938 283.4156799316406 292.3289489746094 L 283.4156799316406 308.4071960449219 L 283.4156799316406 308.9071960449219 Z"/><path class="e" d="M 282.9156799316406 308.4071960449219 L 282.9156799316406 292.3289489746094 C 282.9156799316406 286.0405578613281 277.8000793457031 280.9249877929688 271.5119323730469 280.9249877929688 C 265.2236328125 280.9249877929688 260.1080017089844 286.0405578613281 260.1080017089844 292.3289489746094 L 260.1080017089844 308.4071960449219 L 264.0152893066406 308.4071960449219 L 264.0152893066406 292.3289489746094 C 264.0152893066406 288.1952819824219 267.3783264160156 284.8322448730469 271.5119323730469 284.8322448730469 C 275.6453552246094 284.8322448730469 279.0083312988281 288.1952819824219 279.0083312988281 292.3289489746094 L 279.0083312988281 308.4071960449219 L 282.9156799316406 308.4071960449219 M 283.9156799316406 309.4071960449219 L 278.0083312988281 309.4071960449219 L 278.0083312988281 292.3289489746094 C 278.0083312988281 288.7466430664062 275.0940551757812 285.8322448730469 271.5119323730469 285.8322448730469 C 267.9296569824219 285.8322448730469 265.0152893066406 288.7466430664062 265.0152893066406 292.3289489746094 L 265.0152893066406 309.4071960449219 L 259.1080017089844 309.4071960449219 L 259.1080017089844 292.3289489746094 C 259.1080017089844 285.4893798828125 264.6723937988281 279.9249877929688 271.5119323730469 279.9249877929688 C 278.3513793945312 279.9249877929688 283.9156799316406 285.4893798828125 283.9156799316406 292.3289489746094 L 283.9156799316406 309.4071960449219 Z"/></g><g class="c" transform="translate(-58.726 -107.518)"><path class="d" d="M 271.5119323730469 405.55322265625 C 264.9480895996094 405.55322265625 259.6080017089844 400.2132263183594 259.6080017089844 393.6494750976562 L 259.6080017089844 377.5709533691406 L 259.6080017089844 377.0709533691406 L 260.1080017089844 377.0709533691406 L 264.0152893066406 377.0709533691406 L 264.5152893066406 377.0709533691406 L 264.5152893066406 377.5709533691406 L 264.5152893066406 393.6494750976562 C 264.5152893066406 397.5072937011719 267.6539611816406 400.6458435058594 271.5119323730469 400.6458435058594 C 275.3697509765625 400.6458435058594 278.5083312988281 397.5072937011719 278.5083312988281 393.6494750976562 L 278.5083312988281 377.5709533691406 L 278.5083312988281 377.0709533691406 L 279.0083312988281 377.0709533691406 L 282.9156799316406 377.0709533691406 L 283.4156799316406 377.0709533691406 L 283.4156799316406 377.5709533691406 L 283.4156799316406 393.6494750976562 C 283.4156799316406 400.2132263183594 278.07568359375 405.55322265625 271.5119323730469 405.55322265625 Z"/><path class="e" d="M 271.5119323730469 405.05322265625 C 277.8000793457031 405.05322265625 282.9156799316406 399.9375610351562 282.9156799316406 393.6494750976562 L 282.9156799316406 377.5709533691406 L 279.0083312988281 377.5709533691406 L 279.0083312988281 393.6494750976562 C 279.0083312988281 397.7828674316406 275.6453552246094 401.1458435058594 271.5119323730469 401.1458435058594 C 267.3783264160156 401.1458435058594 264.0152893066406 397.7828674316406 264.0152893066406 393.6494750976562 L 264.0152893066406 377.5709533691406 L 260.1080017089844 377.5709533691406 L 260.1080017089844 393.6494750976562 C 260.1080017089844 399.9375610351562 265.2236328125 405.05322265625 271.5119323730469 405.05322265625 M 271.5119323730469 406.05322265625 C 264.6723937988281 406.05322265625 259.1080017089844 400.4889221191406 259.1080017089844 393.6494750976562 L 259.1080017089844 376.5709533691406 L 265.0152893066406 376.5709533691406 L 265.0152893066406 393.6494750976562 C 265.0152893066406 397.2315979003906 267.9296569824219 400.1458435058594 271.5119323730469 400.1458435058594 C 275.0940551757812 400.1458435058594 278.0083312988281 397.2315979003906 278.0083312988281 393.6494750976562 L 278.0083312988281 376.5709533691406 L 283.9156799316406 376.5709533691406 L 283.9156799316406 393.6494750976562 C 283.9156799316406 400.4889221191406 278.3513793945312 406.05322265625 271.5119323730469 406.05322265625 Z"/></g><g transform="translate(178.178 243.364)"><path class="a" d="M198.445,283.722h-7.39l-6.729,8.945v-8.945h-6.082v24.2h6.082v-8.945l6.729,8.945h7.39l-9.168-12.1Z" transform="translate(-178.245 -283.72)"/><path class="a" d="M369.809,307.916h6.515l-5.245-9.6a7.705,7.705,0,0,0-3.447-14.6l-.066,0H355.432v24.2h6.082v-8.789h3.5Zm-8.3-19.488h4.5a2.994,2.994,0,1,1,0,5.988h-4.5Z" transform="translate(-305.205 -283.716)"/><path class="a" d="M457.514,288.7v-4.981H439.531v24.2h17.984v-4.981h-11.9v-4.627h10.721V293.33H445.612V288.7Z" transform="translate(-365.457 -283.72)"/><path class="a" d="M529.036,307.92h6.208l-8.807-24.2h-7.21l-8.807,24.2h6.208l1.543-4.239h9.323Zm-9.052-9.22,2.848-7.826,2.848,7.826Z" transform="translate(-416.271 -283.72)"/><path class="a" d="M197.15,393.635c.167-1.107.772-8.827-8.805-8.827-10.227,0-9.649,8.827-9.649,8.827h6.064s.2-3.777,3.2-3.777,2.806,2.391,2.806,2.516.227,1.684-2.04,3.669-9.628,8.42-9.953,8.721a1.579,1.579,0,0,0-.515,1.015,1.5,1.5,0,0,0-.008.152v3.539h19.339v-4.981h-10.47c1.651-1.389,5.6-4.717,7.088-6.009A8.885,8.885,0,0,0,197.15,393.635Z" transform="translate(-178.245 -356.061)"/><path class="a" d="M372.746,393.635c.167-1.107.772-8.827-8.805-8.827-10.227,0-9.649,8.827-9.649,8.827h6.064s.2-3.777,3.2-3.777,2.806,2.391,2.806,2.516.227,1.684-2.04,3.669-9.628,8.42-9.953,8.721a1.579,1.579,0,0,0-.515,1.015,1.5,1.5,0,0,0-.008.152v3.539H373.18v-4.981H362.71c1.651-1.389,5.6-4.717,7.088-6.009A8.884,8.884,0,0,0,372.746,393.635Z" transform="translate(-304.062 -356.061)"/><path class="a" d="M447.32,386.41a.855.855,0,0,0-.528.185l0,0-7.259,5.451v6.428l6.926-5.2v17.34h6.082v-24.2Z" transform="translate(-365.447 -357.207)"/></g></g></svg>