<svg xmlns="http://www.w3.org/2000/svg" width="70" height="70" viewBox="0 0 70 70"><defs><style>.a{fill:#040505;}.b{fill:#e82418;}.c{fill:#fff;}.d{fill:#1f56a4;}.e{fill:#298836;}.f{fill:#ffea56;}.g{fill:#ec5026;}.h{fill:#191717;}.i{fill:#005488;}.j{fill:#f9830e;}.k{fill:#bc231c;}.l{fill:#072a51;}.m{fill:#277ec3;}.n{fill:#0c5454;}</style></defs><g transform="translate(-98.293 -97.699)"><rect class="a" width="70" height="58.839" transform="translate(98.293 97.699)"/><rect class="b" width="2.804" height="11.301" transform="translate(98.293 156.397)"/><rect class="c" width="2.804" height="11.301" transform="translate(101.096 156.397)"/><rect class="d" width="2.804" height="11.301" transform="translate(103.9 156.397)"/><rect class="e" width="2.804" height="11.301" transform="translate(106.703 156.397)"/><rect class="f" width="2.804" height="11.301" transform="translate(109.507 156.397)"/><rect class="g" width="2.804" height="11.301" transform="translate(112.292 156.397)"/><rect class="h" width="2.804" height="11.301" transform="translate(115.092 156.397)"/><rect class="e" width="2.804" height="11.301" transform="translate(117.892 156.397)"/><rect class="b" width="2.804" height="11.301" transform="translate(120.691 156.397)"/><rect class="c" width="2.804" height="11.301" transform="translate(123.491 156.397)"/><rect class="i" width="2.804" height="11.301" transform="translate(126.291 156.397)"/><rect class="f" width="2.804" height="11.301" transform="translate(129.091 156.397)"/><rect class="h" width="2.804" height="11.301" transform="translate(131.891 156.397)"/><rect class="j" width="2.804" height="11.301" transform="translate(134.691 156.397)"/><rect class="c" width="2.804" height="11.301" transform="translate(137.49 156.397)"/><rect class="k" width="2.804" height="11.301" transform="translate(140.29 156.397)"/><rect class="l" width="2.804" height="11.301" transform="translate(143.09 156.397)"/><rect class="e" width="2.804" height="11.301" transform="translate(145.89 156.397)"/><rect class="f" width="2.804" height="11.301" transform="translate(148.69 156.397)"/><rect class="i" width="2.804" height="11.301" transform="translate(151.49 156.397)"/><rect class="b" width="2.804" height="11.301" transform="translate(154.29 156.397)"/><rect class="m" width="2.804" height="11.301" transform="translate(157.078 156.397)"/><rect class="j" width="2.804" height="11.301" transform="translate(159.882 156.397)"/><rect class="c" width="2.804" height="11.301" transform="translate(162.685 156.397)"/><rect class="n" width="2.804" height="11.301" transform="translate(165.489 156.397)"/><g transform="translate(103.756 114.644)"><path class="c" d="M149.8,244.007a4.407,4.407,0,0,1,3.163,1.2,3.989,3.989,0,0,1,1.263,3.015,3.926,3.926,0,0,1-1.275,3,4.533,4.533,0,0,1-3.216,1.188,4.274,4.274,0,0,1-3.087-1.188,3.96,3.96,0,0,1-1.234-2.977,4.049,4.049,0,0,1,1.243-3.039A4.336,4.336,0,0,1,149.8,244.007Zm.047,1.115a3.181,3.181,0,0,0-2.312.88,3,3,0,0,0-.906,2.247,2.943,2.943,0,0,0,.909,2.206,3.373,3.373,0,0,0,4.563-.018,3,3,0,0,0,.917-2.235,2.931,2.931,0,0,0-.917-2.191A3.115,3.115,0,0,0,149.848,245.122Z" transform="translate(-145.416 -244.007)"/><path class="c" d="M229.93,277.307v-8.149H231.8a3.236,3.236,0,0,1,2.235.716,2.546,2.546,0,0,1,.8,2,2.755,2.755,0,0,1-.753,1.995,2.55,2.55,0,0,1-1.918.78,3.361,3.361,0,0,1-1.142-.229v2.886Zm1.846-7.151h-.755v3.321a2.226,2.226,0,0,0,1.03.252,1.586,1.586,0,0,0,1.226-.522,1.914,1.914,0,0,0,.477-1.344,1.884,1.884,0,0,0-.225-.933,1.365,1.365,0,0,0-.615-.59A2.747,2.747,0,0,0,231.776,270.155Z" transform="translate(-220.148 -266.242)"/><path class="c" d="M282.872,271.145h-3.8a1.761,1.761,0,0,0,.519,1.232,1.713,1.713,0,0,0,1.235.458,3.213,3.213,0,0,0,1.948-.657v1.044a3.566,3.566,0,0,1-.977.469,4.081,4.081,0,0,1-1.135.141,2.548,2.548,0,0,1-1.443-.37,2.687,2.687,0,0,1-.883-.994,3.039,3.039,0,0,1-.331-1.446,2.871,2.871,0,0,1,.7-2,2.332,2.332,0,0,1,1.813-.771,2.136,2.136,0,0,1,1.713.751,3,3,0,0,1,.639,2.012Zm-3.772-.64h2.716a1.492,1.492,0,0,0-.381-.986,1.225,1.225,0,0,0-.915-.346,1.317,1.317,0,0,0-.942.346A1.715,1.715,0,0,0,279.1,270.506Z" transform="translate(-262.662 -265.437)"/><path class="c" d="M328.745,268.353v.686a2.146,2.146,0,0,1,1.625-.792,1.79,1.79,0,0,1,.939.261,1.7,1.7,0,0,1,.66.716,3.421,3.421,0,0,1,.226,1.44v3.086h-1.068v-3.074a2.1,2.1,0,0,0-.252-1.182.965.965,0,0,0-.845-.355,1.538,1.538,0,0,0-1.285.757v3.854h-1.091v-5.4Z" transform="translate(-306.562 -265.437)"/><path class="c" d="M150.746,345.172H153.5v3.473a7.5,7.5,0,0,1-3,.657,4.458,4.458,0,0,1-3.253-1.188,3.933,3.933,0,0,1-1.217-2.931,4.076,4.076,0,0,1,1.261-3.056,4.366,4.366,0,0,1,3.162-1.22,5.605,5.605,0,0,1,1.314.15,10.779,10.779,0,0,1,1.572.549v1.2a5.766,5.766,0,0,0-2.91-.851,3.088,3.088,0,0,0-2.265.915,3.244,3.244,0,0,0,0,4.529,3.278,3.278,0,0,0,2.37.886,5.525,5.525,0,0,0,1.684-.323l.112-.035v-1.707h-1.578Z" transform="translate(-145.953 -329.673)"/><path class="c" d="M222.144,365.855a2.816,2.816,0,0,1,2.048.795,2.674,2.674,0,0,1,.815,2,2.539,2.539,0,0,1-.827,1.939,2.934,2.934,0,0,1-2.083.771,2.815,2.815,0,0,1-2.03-.783,2.766,2.766,0,0,1,.009-3.931A2.872,2.872,0,0,1,222.144,365.855Zm-.059.962a1.687,1.687,0,0,0-1.261.5,1.763,1.763,0,0,0-.493,1.285,1.684,1.684,0,0,0,.5,1.264,1.784,1.784,0,0,0,1.3.49,1.755,1.755,0,0,0,1.288-.5,1.836,1.836,0,0,0-.021-2.543A1.815,1.815,0,0,0,222.086,366.817Z" transform="translate(-210.692 -351.729)"/><path class="c" d="M273.813,365.957h1.158l-2.384,5.491h-.361l-2.441-5.491h1.169l1.457,3.321Z" transform="translate(-255.391 -351.819)"/><path class="c" d="M321.917,367.944h-3.8a1.762,1.762,0,0,0,.519,1.232,1.713,1.713,0,0,0,1.235.458,3.214,3.214,0,0,0,1.948-.657v1.044a3.564,3.564,0,0,1-.977.469,4.083,4.083,0,0,1-1.135.141,2.549,2.549,0,0,1-1.443-.37,2.689,2.689,0,0,1-.883-.995,3.04,3.04,0,0,1-.331-1.446,2.871,2.871,0,0,1,.7-2,2.331,2.331,0,0,1,1.813-.771,2.136,2.136,0,0,1,1.713.751,3,3,0,0,1,.639,2.012Zm-3.772-.639h2.716a1.491,1.491,0,0,0-.381-.986,1.225,1.225,0,0,0-.915-.346,1.316,1.316,0,0,0-.942.346A1.714,1.714,0,0,0,318.144,367.3Z" transform="translate(-297.188 -351.014)"/><path class="c" d="M368.582,365.152v1.238l.059-.094q.774-1.25,1.549-1.25a1.91,1.91,0,0,1,1.261.61l-.563.939a1.582,1.582,0,0,0-1.033-.528,1.106,1.106,0,0,0-.895.493,1.861,1.861,0,0,0-.378,1.167v2.822h-1.074v-5.4Z" transform="translate(-341.803 -351.014)"/><path class="c" d="M406.758,365.152v.686a2.146,2.146,0,0,1,1.625-.792,1.789,1.789,0,0,1,.939.261,1.7,1.7,0,0,1,.66.716,3.423,3.423,0,0,1,.226,1.44v3.086H409.14v-3.074a2.1,2.1,0,0,0-.252-1.182.964.964,0,0,0-.845-.355,1.539,1.539,0,0,0-1.285.757v3.854h-1.091v-5.4Z" transform="translate(-375.546 -351.014)"/><path class="c" d="M457.611,366.54v3.919h-1.074v-3a2.361,2.361,0,0,0-.24-1.252.94.94,0,0,0-.839-.355,1.257,1.257,0,0,0-.613.152,2.7,2.7,0,0,0-.637.54v3.919H453.14v-5.4h1.068v.71a2.324,2.324,0,0,1,1.6-.815,1.754,1.754,0,0,1,1.59.974,2.41,2.41,0,0,1,1.789-.986,1.649,1.649,0,0,1,1.294.575,2.592,2.592,0,0,1,.507,1.754v3.186h-1.068v-3.2a1.666,1.666,0,0,0-.276-1.033.941.941,0,0,0-.792-.358A1.639,1.639,0,0,0,457.611,366.54Z" transform="translate(-417.528 -350.924)"/><path class="c" d="M531.892,367.944h-3.8a1.762,1.762,0,0,0,.519,1.232,1.713,1.713,0,0,0,1.235.458,3.213,3.213,0,0,0,1.948-.657v1.044a3.562,3.562,0,0,1-.977.469,4.083,4.083,0,0,1-1.135.141,2.548,2.548,0,0,1-1.443-.37,2.688,2.688,0,0,1-.883-.995,3.039,3.039,0,0,1-.331-1.446,2.871,2.871,0,0,1,.7-2,2.332,2.332,0,0,1,1.813-.771,2.135,2.135,0,0,1,1.713.751,3,3,0,0,1,.64,2.012Zm-3.772-.639h2.716a1.491,1.491,0,0,0-.381-.986,1.226,1.226,0,0,0-.915-.346,1.316,1.316,0,0,0-.942.346A1.715,1.715,0,0,0,528.119,367.3Z" transform="translate(-482.861 -351.014)"/><path class="c" d="M577.766,365.152v.686a2.146,2.146,0,0,1,1.625-.792,1.79,1.79,0,0,1,.939.261,1.7,1.7,0,0,1,.66.716,3.424,3.424,0,0,1,.226,1.44v3.086h-1.068v-3.074a2.1,2.1,0,0,0-.252-1.182.965.965,0,0,0-.845-.355,1.538,1.538,0,0,0-1.285.757v3.854h-1.091v-5.4Z" transform="translate(-526.768 -351.014)"/><path class="c" d="M620.1,358.312l2.006-1.971v1.115h1.707v.962H622.1v2.642q0,.925.768.925a2.384,2.384,0,0,0,1.214-.381v1a2.7,2.7,0,0,1-1.343.346,1.78,1.78,0,0,1-1.22-.428,1.215,1.215,0,0,1-.252-.291,1.535,1.535,0,0,1-.167-.422,4.741,4.741,0,0,1-.067-.994v-2.394H620.1Z" transform="translate(-565.156 -343.318)"/><path class="c" d="M148,446.725v-8.208h2.6a2.678,2.678,0,0,1,1.872.634,2.184,2.184,0,0,1,.7,1.7,2.276,2.276,0,0,1-.358,1.267,2.045,2.045,0,0,1-.98.8,4.983,4.983,0,0,1-1.784.249h-.868v3.555Zm2.394-7.163h-1.214v2.564h1.285a1.628,1.628,0,0,0,1.1-.337,1.211,1.211,0,0,0,.387-.965Q151.951,439.561,150.391,439.561Z" transform="translate(-147.698 -415.967)"/><path class="c" d="M200.2,464.1V466.4q0,.276.188.276a1.291,1.291,0,0,0,.6-.288v.651a3.492,3.492,0,0,1-.584.32,1.268,1.268,0,0,1-.461.085q-.686,0-.81-.54a2.324,2.324,0,0,1-1.449.528,1.279,1.279,0,0,1-.939-.373,1.264,1.264,0,0,1-.375-.936,1.317,1.317,0,0,1,.367-.912,2.482,2.482,0,0,1,1.041-.637l1.367-.469v-.287a.861.861,0,0,0-.974-.974,2.346,2.346,0,0,0-1.7.9v-1.168a2.216,2.216,0,0,1,1.789-.733,2.065,2.065,0,0,1,1.4.458,1.437,1.437,0,0,1,.317.39,1.408,1.408,0,0,1,.179.487A7.21,7.21,0,0,1,200.2,464.1Zm-1.05,2.177v-1.6l-.716.276a2.418,2.418,0,0,0-.772.437.79.79,0,0,0-.012,1.094.755.755,0,0,0,.554.211A1.342,1.342,0,0,0,199.151,466.281Z" transform="translate(-190.468 -436.592)"/><path class="c" d="M243.959,461.952v1.238l.059-.094q.774-1.25,1.549-1.25a1.909,1.909,0,0,1,1.261.61l-.563.939a1.582,1.582,0,0,0-1.033-.528,1.106,1.106,0,0,0-.895.493,1.861,1.861,0,0,0-.378,1.167v2.822h-1.074v-5.4Z" transform="translate(-231.604 -436.592)"/><path class="c" d="M278.866,455.113l2.006-1.971v1.115h1.707v.962h-1.707v2.642q0,.925.769.926a2.384,2.384,0,0,0,1.214-.381v1a2.7,2.7,0,0,1-1.343.346,1.78,1.78,0,0,1-1.22-.428,1.213,1.213,0,0,1-.252-.291,1.535,1.535,0,0,1-.167-.422,4.735,4.735,0,0,1-.067-.994v-2.394h-.939Z" transform="translate(-263.42 -428.897)"/><path class="c" d="M320.8,461.952v.686a2.146,2.146,0,0,1,1.625-.792,1.79,1.79,0,0,1,.939.261,1.7,1.7,0,0,1,.66.716,3.424,3.424,0,0,1,.226,1.44v3.086h-1.068v-3.074a2.1,2.1,0,0,0-.252-1.182.965.965,0,0,0-.845-.355,1.538,1.538,0,0,0-1.285.757v3.854H319.7v-5.4Z" transform="translate(-299.532 -436.592)"/><path class="c" d="M370.168,464.744h-3.8a1.762,1.762,0,0,0,.519,1.232,1.713,1.713,0,0,0,1.235.458,3.214,3.214,0,0,0,1.948-.657v1.044a3.566,3.566,0,0,1-.977.469,4.081,4.081,0,0,1-1.135.141,2.548,2.548,0,0,1-1.443-.37,2.689,2.689,0,0,1-.883-.994,3.04,3.04,0,0,1-.331-1.446,2.871,2.871,0,0,1,.7-2,2.331,2.331,0,0,1,1.813-.772,2.136,2.136,0,0,1,1.713.751,3,3,0,0,1,.64,2.012ZM366.4,464.1h2.716a1.491,1.491,0,0,0-.381-.986,1.225,1.225,0,0,0-.915-.346,1.316,1.316,0,0,0-.942.346A1.716,1.716,0,0,0,366.4,464.1Z" transform="translate(-339.854 -436.592)"/><path class="c" d="M416.833,461.952v1.238l.059-.094q.775-1.25,1.549-1.25a1.909,1.909,0,0,1,1.261.61l-.563.939a1.582,1.582,0,0,0-1.033-.528,1.107,1.107,0,0,0-.895.493,1.861,1.861,0,0,0-.378,1.167v2.822h-1.074v-5.4Z" transform="translate(-384.469 -436.592)"/><path class="c" d="M453.916,466.962v-1.15a4.863,4.863,0,0,0,.924.513,2.154,2.154,0,0,0,.795.2.994.994,0,0,0,.575-.164.472.472,0,0,0,.24-.393.529.529,0,0,0-.155-.39,3.618,3.618,0,0,0-.672-.449,4.756,4.756,0,0,1-1.352-.983,1.41,1.41,0,0,1-.32-.889,1.248,1.248,0,0,1,.484-1.015,1.915,1.915,0,0,1,1.247-.393,3.435,3.435,0,0,1,1.625.446v1.056a3.251,3.251,0,0,0-1.555-.575.864.864,0,0,0-.5.132.406.406,0,0,0-.191.349.5.5,0,0,0,.173.358,2.945,2.945,0,0,0,.607.411l.381.217q1.35.763,1.35,1.689a1.345,1.345,0,0,1-.519,1.088,2.039,2.039,0,0,1-1.335.425,3.256,3.256,0,0,1-.856-.1A5.751,5.751,0,0,1,453.916,466.962Z" transform="translate(-418.209 -436.592)"/><path class="c" d="M493.8,438.618h1.068v3.508a2.066,2.066,0,0,1,1.66-.816,1.779,1.779,0,0,1,.968.27,1.635,1.635,0,0,1,.636.745,3.686,3.686,0,0,1,.208,1.414v3.074H497.27v-3.338a1.476,1.476,0,0,0-.29-.953.935.935,0,0,0-.766-.361,1.293,1.293,0,0,0-.663.182,3.011,3.011,0,0,0-.686.6v3.866H493.8Z" transform="translate(-453.475 -416.057)"/><path class="c" d="M543.761,443.172a.626.626,0,0,1,.452.182.6.6,0,0,1,.188.446.609.609,0,0,1-.188.446.616.616,0,0,1-.452.188.591.591,0,0,1-.434-.191.612.612,0,0,1-.188-.443.606.606,0,0,1,.188-.437A.592.592,0,0,1,543.761,443.172Zm-.528,2.27H544.3v5.4h-1.068Z" transform="translate(-497.102 -420.083)"/><path class="c" d="M563.788,470.906v-8.149h1.869a3.236,3.236,0,0,1,2.235.716,2.546,2.546,0,0,1,.8,2,2.755,2.755,0,0,1-.753,1.995,2.55,2.55,0,0,1-1.918.78,3.362,3.362,0,0,1-1.142-.229v2.886Zm1.847-7.152h-.755v3.321a2.23,2.23,0,0,0,1.03.252,1.586,1.586,0,0,0,1.226-.522,1.913,1.913,0,0,0,.477-1.343,1.886,1.886,0,0,0-.225-.933,1.367,1.367,0,0,0-.615-.59A2.746,2.746,0,0,0,565.635,463.754Z" transform="translate(-515.375 -437.397)"/></g></g></svg>