<svg xmlns="http://www.w3.org/2000/svg" width="17" height="16.999" viewBox="0 0 17 16.999">
  <g id="그룹_1970" data-name="그룹 1970" transform="translate(-525.016 -370.351)">
    <g id="그룹_1969" data-name="그룹 1969" transform="translate(525.016 370.351)">
      <path id="패스_2989" data-name="패스 2989" d="M539.575,384.911h-12.12V372.791h3.616v-2.439h-6.056v17h17v-7.338h-2.44Z" transform="translate(-525.016 -370.351)" fill="#004da5"/>
    </g>
    <path id="패스_2990" data-name="패스 2990" d="M541.5,374.207l-3.766-3.675a.473.473,0,0,0-.371-.182.494.494,0,0,0-.205.049.577.577,0,0,0-.32.564V372.8H535.52a11.387,11.387,0,0,0-1.616.1,7.669,7.669,0,0,0-1.312.292,4.965,4.965,0,0,0-1.023.464,4.439,4.439,0,0,0-.776.589,3.543,3.543,0,0,0-.563.708,4.668,4.668,0,0,0-.387.779,5.144,5.144,0,0,0-.23.842,7.661,7.661,0,0,0-.115.862c-.019.268-.029.558-.029.871a5.282,5.282,0,0,0,.144,1.168,8.511,8.511,0,0,0,.315,1.091q.172.461.408.951t.325.656c.059.109.118.208.172.3a.247.247,0,0,0,.214.124.44.44,0,0,0,.1-.018.306.306,0,0,0,.164-.325q-.371-3.216.609-4.525.944-1.254,3.6-1.254h1.316v1.838a.581.581,0,0,0,.321.565.5.5,0,0,0,.205.048.455.455,0,0,0,.37-.181l3.767-3.676a.672.672,0,0,0,0-.857l0,0Z" transform="translate(0.361)" fill="#004da5"/>
  </g>
</svg>
