<svg xmlns="http://www.w3.org/2000/svg" width="19" height="22" viewBox="0 0 19 22">
  <g id="그룹_2582" data-name="그룹 2582" transform="translate(0 0)">
    <g id="그룹_2521" data-name="그룹 2521" transform="translate(0 0)">
      <path id="패스_3053" data-name="패스 3053" d="M12.621,23.212a.349.349,0,0,0-.111-.021H8a.328.328,0,0,0-.305.443,2.705,2.705,0,0,0,5.123,0,.328.328,0,0,0-.193-.422" transform="translate(-0.752 -3.469)" fill="#fff"/>
      <path id="패스_3054" data-name="패스 3054" d="M18.767,16.889l-.618-1.081a7.7,7.7,0,0,1-1.013-3.82V9.432a7.69,7.69,0,0,0-5.964-7.523v-.27A1.66,1.66,0,0,0,9.512,0V0H9.488V0a1.662,1.662,0,0,0-1.66,1.638v.27A7.69,7.69,0,0,0,1.863,9.432v2.557A7.694,7.694,0,0,1,.85,15.809L.232,16.889a1.33,1.33,0,0,0,.356,1.855,1.35,1.35,0,0,0,.733.231H17.679a1.353,1.353,0,0,0,.734-.231,1.33,1.33,0,0,0,.355-1.855" transform="translate(0)" fill="#fff"/>
    </g>
  </g>
</svg>
