<svg id="그룹_2520" data-name="그룹 2520" xmlns="http://www.w3.org/2000/svg" width="12" height="14" viewBox="0 0 12 14">
  <g id="그룹_2521" data-name="그룹 2521">
    <path id="패스_3053" data-name="패스 3053" d="M11.142,23.206a.244.244,0,0,0-.078-.015H7.9a.23.23,0,0,0-.214.311,1.9,1.9,0,0,0,3.593,0,.23.23,0,0,0-.136-.3" transform="translate(-3.481 -10.788)" fill="#333"/>
    <path id="패스_3054" data-name="패스 3054" d="M11.853,10.573l-.39-.677a4.79,4.79,0,0,1-.64-2.391V5.9A4.823,4.823,0,0,0,7.056,1.2V1.026A1.044,1.044,0,0,0,6.008,0H5.992A1.045,1.045,0,0,0,4.944,1.026V1.2A4.823,4.823,0,0,0,1.177,5.9v1.6A4.784,4.784,0,0,1,.537,9.9l-.39.677a.828.828,0,0,0,.225,1.161.858.858,0,0,0,.463.144H11.165a.86.86,0,0,0,.463-.144.828.828,0,0,0,.224-1.161" transform="translate(0)" fill="#333"/>
  </g>
</svg>
