<svg id="그룹_1968" data-name="그룹 1968" xmlns="http://www.w3.org/2000/svg" width="15.998" height="15" viewBox="0 0 15.998 15">
  <path id="패스_2987" data-name="패스 2987" d="M520.32,399.752a.923.923,0,0,0-.668.232l-.819.781a1.972,1.972,0,0,1-2.807-2.771l3.009-2.971a1.958,1.958,0,0,1,1.392-.577h0a1.971,1.971,0,0,1,1.742,1.051.915.915,0,1,0,1.615-.863,3.8,3.8,0,0,0-6.045-.907l-2.984,2.948a3.8,3.8,0,0,0,2.659,6.5h.017a3.776,3.776,0,0,0,2.674-1.1l.814-.778a.125.125,0,0,0,.029-.025.916.916,0,0,0-.629-1.52Z" transform="translate(-513.63 -388.174)" fill="#004da5"/>
  <path id="패스_2988" data-name="패스 2988" d="M528.153,390.313a3.8,3.8,0,0,0-5.376-.026l-.812.776a.22.22,0,0,0-.03.026.917.917,0,0,0,.629,1.522.9.9,0,0,0,.668-.233l.818-.781a1.957,1.957,0,0,1,1.392-.585h.011a1.971,1.971,0,0,1,1.4,3.357l-3,2.964-.01.009a1.954,1.954,0,0,1-1.392.577h0a1.968,1.968,0,0,1-1.742-1.052.916.916,0,1,0-1.615.863,3.837,3.837,0,0,0,.669.905,3.808,3.808,0,0,0,5.377,0l2.984-2.948A3.8,3.8,0,0,0,528.153,390.313Z" transform="translate(-513.255 -389.188)" fill="#004da5"/>
</svg>
