<svg xmlns="http://www.w3.org/2000/svg" width="26" height="26" viewBox="0 0 26 26">
  <g id="그룹_1358" data-name="그룹 1358" transform="translate(0 0)">
    <rect id="사각형_1252" data-name="사각형 1252" width="25.372" height="26" transform="translate(0.628 0)" fill="none" opacity="0"/>
    <path id="패스_2340" data-name="패스 2340" d="M288.766,310.182a6.768,6.768,0,0,0-4.863-2.131h-.089a7.16,7.16,0,0,0-5,2.063l-1.217,1.237-1.178-1.194a7.178,7.178,0,0,0-5.134-2.105,6.762,6.762,0,0,0-4.861,2.131c-1.605,1.962-1.705,4.193-1.332,6.631,1.118,7.323,11.5,11.507,11.917,11.789a1.06,1.06,0,0,0,1.178,0c.418-.282,10.8-4.467,11.917-11.789C290.472,314.375,290.372,312.143,288.766,310.182Z" transform="translate(-264.907 -306.713)" fill="#f36665"/>
  </g>
</svg>
