<svg xmlns="http://www.w3.org/2000/svg" width="26" height="26" viewBox="0 0 26 26">
  <g id="그룹_1359" data-name="그룹 1359" transform="translate(-0.266 0)">
    <rect id="사각형_1253" data-name="사각형 1253" width="26" height="26" transform="translate(0.266 0)" fill="none" opacity="0"/>
    <path id="패스_2346" data-name="패스 2346" d="M262.576,467.113H240.95a1.364,1.364,0,0,0-1.412,1.307v13.845a1.364,1.364,0,0,0,1.412,1.307h9.858l6.907,4.744a1.537,1.537,0,0,0,1.474.036,1.427,1.427,0,0,0,.79-1.268v-3.512h2.6a1.364,1.364,0,0,0,1.411-1.307V468.42A1.364,1.364,0,0,0,262.576,467.113Zm-15.934,9.841a1.448,1.448,0,1,1,1.559-1.444A1.5,1.5,0,0,1,246.641,476.953Zm5.121,0a1.448,1.448,0,1,1,1.559-1.444A1.5,1.5,0,0,1,251.763,476.953Zm5.121,0a1.448,1.448,0,1,1,1.559-1.444A1.5,1.5,0,0,1,256.884,476.953Z" transform="translate(-238.629 -464.688)" fill="#898df1"/>
  </g>
</svg>
