<svg xmlns="http://www.w3.org/2000/svg" width="56.784" height="53.629" viewBox="0 0 56.784 53.629"><defs><style>.a{fill:#fff;}</style></defs><path class="a" d="M1007.821,4626.888H955.579v-6.651c0-1.473.8-2.572,1.516-2.572h49.212c.714,0,1.514,1.1,1.514,2.572v6.651Zm0,31.259c0,1.473-.8,2.574-1.514,2.574H957.1c-.716,0-1.516-1.1-1.516-2.574v-28.91h52.242v28.91Zm-1.514-42.708H957.1c-2.125,0-3.787,2.107-3.787,4.8v37.91c0,2.692,1.662,4.8,3.787,4.8h49.212c2.122,0,3.785-2.108,3.785-4.8v-37.91c0-2.691-1.662-4.8-3.785-4.8Z" transform="translate(-953.308 -4615.438)"/><path class="a" d="M1072.675,4652.3a2.35,2.35,0,1,1-2.35-2.35,2.351,2.351,0,0,1,2.35,2.35Z" transform="translate(-1054.135 -4645.824)"/><path class="a" d="M1139.383,4652.3a2.35,2.35,0,1,1-2.347-2.35,2.35,2.35,0,0,1,2.347,2.35Z" transform="translate(-1112.79 -4645.824)"/><path class="a" d="M1005.967,4652.3a2.35,2.35,0,1,1-2.35-2.35,2.352,2.352,0,0,1,2.35,2.35Z" transform="translate(-995.53 -4645.824)"/><path class="a" d="M1091.932,4773.049H1081.46s.047-13.191,0-13.319l5.027-6.316,5.445,6.316v13.319Zm7.3,0h-5.16v-10.536l1.449,1.739a1.127,1.127,0,0,0,1.732-1.442l-9.9-11.876a1.16,1.16,0,0,0-1.729,0l-9.9,11.876a1.126,1.126,0,1,0,1.73,1.442l1.649-1.979v10.776h-5.4a1.071,1.071,0,1,0,0,2.14h25.531a1.071,1.071,0,1,0,0-2.14Z" transform="translate(-1058.074 -4734.763)"/><path class="a" d="M1178.872,4848.18h-3.089v-3.088h3.089v3.088Z" transform="translate(-1148.936 -4817.953)"/><path class="a" d="M1013.151,5052.573H957.329v-2.138h55.822v2.138Z" transform="translate(-956.848 -4998.944)"/></svg>