<svg xmlns="http://www.w3.org/2000/svg" width="61.831" height="53.629" viewBox="0 0 61.831 53.629"><defs><style>.a{fill:#fff;}</style></defs><path class="a" d="M1945.321,4652.277a2.323,2.323,0,1,1-2.323-2.325,2.325,2.325,0,0,1,2.323,2.325Z" transform="translate(-1927.017 -4645.87)"/><path class="a" d="M2012.029,4652.277a2.323,2.323,0,1,1-2.321-2.325,2.323,2.323,0,0,1,2.321,2.325Z" transform="translate(-1985.78 -4645.87)"/><path class="a" d="M1878.613,4652.277a2.323,2.323,0,1,1-2.323-2.325,2.325,2.325,0,0,1,2.323,2.325Z" transform="translate(-1868.293 -4645.87)"/><path class="a" d="M1879.84,4639.373v18.835c0,1.475-.79,2.579-1.5,2.579h-48.6c-.707,0-1.5-1.1-1.5-2.579v-28.952H1863.1V4626.9h-34.849v-6.661c0-1.475.79-2.576,1.5-2.576h48.6c.7,0,1.5,1.1,1.5,2.576v4.075h2.242v-4.075c0-2.7-1.642-4.806-3.738-4.806h-48.6c-2.1,0-3.74,2.11-3.74,4.806v37.965c0,2.7,1.642,4.808,3.74,4.808h48.6c2.1,0,3.738-2.112,3.738-4.808v-18.835Z" transform="translate(-1826.006 -4615.437)"/><path class="a" d="M1951.363,4782.267a2.4,2.4,0,0,0-1.4-2.183l-6.679-3.456-.613-1.861a7.9,7.9,0,0,0,1.73-5.008v-2.174a6.325,6.325,0,0,0-12.65,0v2.174a7.9,7.9,0,0,0,1.724,5l-.658,1.892-6.63,3.432a2.41,2.41,0,0,0-1.4,2.183v2.614h0s0,.007,0,.011a.964.964,0,0,0,1.927,0c0-.01,0-.02,0-.029v-2.6a.476.476,0,0,1,.277-.432l5.939-3.116c1.014,2.332,4.28,4.044,4.712,4.263l.434.219.435-.219c.433-.219,3.7-1.931,4.714-4.263l5.938,3.116a.476.476,0,0,1,.277.432v2.6c0,.009,0,.019,0,.029a.964.964,0,0,0,1.927,0s0-.007,0-.011h0Zm-17.687-14.681a4.4,4.4,0,0,1,8.8,0v2.174c0,2.962-1.973,5.374-4.4,5.374s-4.4-2.412-4.4-5.374Zm4.4,13.442c-1.324-.756-3.368-2.266-3.513-3.532l.467-1.341a5.584,5.584,0,0,0,6.094,0l.468,1.341C1941.445,4778.757,1939.4,4780.27,1938.075,4781.028Z" transform="translate(-1912.971 -4743.976)"/><path class="a" d="M1885.152,5052.55h-55.125v-2.114h55.125v2.114Z" transform="translate(-1829.552 -4998.921)"/><path class="a" d="M2150.093,4683.169a1.257,1.257,0,0,1,1.285,1.224v10.34a1.257,1.257,0,0,1-1.285,1.224h-18.666a1.257,1.257,0,0,1-1.285-1.224v-10.34a1.257,1.257,0,0,1,1.285-1.224h18.666m0-2.248h-18.666a3.5,3.5,0,0,0-3.533,3.471v10.34a3.5,3.5,0,0,0,3.533,3.472h3.759l-.754,3.5,3.632-3.5h12.029a3.5,3.5,0,0,0,3.533-3.472v-10.34a3.5,3.5,0,0,0-3.533-3.471Z" transform="translate(-2091.794 -4673.175)"/></svg>