<svg xmlns="http://www.w3.org/2000/svg" width="800.332" height="333" viewBox="0 0 800.332 333"><defs><style>.a{fill:#0182cd;}.b{opacity:0.6;mix-blend-mode:multiply;isolation:isolate;}.ad,.af,.c{fill:#fff;}.c{opacity:0;}.d{fill:#f5f6f6;opacity:0.038;}.e{fill:#ebeeed;opacity:0.077;}.f{fill:#e2e5e4;opacity:0.115;}.g{fill:#d8dcdb;opacity:0.154;}.h{fill:#ced3d2;opacity:0.192;}.i{fill:#c4cbc9;opacity:0.231;}.j{fill:#bac2c0;opacity:0.269;}.k{fill:#b1b9b7;opacity:0.308;}.l{fill:#a7b0ae;opacity:0.346;}.m{fill:#9da8a5;opacity:0.385;}.n{fill:#939f9c;opacity:0.423;}.o{fill:#899693;opacity:0.462;}.p{fill:#808e8b;opacity:0.5;}.q{fill:#768582;opacity:0.538;}.r{fill:#6c7c79;opacity:0.577;}.s{fill:#627370;opacity:0.615;}.t{fill:#586b67;opacity:0.654;}.u{fill:#4e625e;opacity:0.692;}.v{fill:#455955;opacity:0.731;}.w{fill:#3b504c;opacity:0.769;}.x{fill:#314843;opacity:0.808;}.y{fill:#273f3a;opacity:0.846;}.z{fill:#1d3631;opacity:0.885;}.aa{fill:#142d28;opacity:0.923;}.ab{fill:#0a251f;opacity:0.962;}.ac{fill:#001c16;}.ae{fill:#00436f;}.af{font-size:18px;font-family:Rubik-Light, Rubik;font-weight:300;}.af,.ag,.ai,.aj{letter-spacing:-0.025em;}.ag{fill:#333;font-size:20px;font-family:MICEGothicBold, MICEGothic;}.ah{font-family:SegoeUI-Bold, Segoe UI;font-weight:700;}.ai{fill:#717171;font-size:16px;}.ai,.aj{font-family:MICEGothic;}.aj{fill:#aaa;font-size:13px;}</style></defs><g transform="translate(-740 -1983)"><g transform="translate(740 1986)"><g transform="translate(0 0)"><path class="a" d="M1290.035,746.234a107.116,107.116,0,0,1-76.5-31.906,109.464,109.464,0,0,1,0-154.057,107.673,107.673,0,0,1,153.009,0,109.465,109.465,0,0,1,0,154.057A107.116,107.116,0,0,1,1290.035,746.234Z" transform="translate(-1181.842 -504.585)"/><path class="a" d="M1515.421,724.34a1.208,1.208,0,0,1,0-2.414c64.526,0,117.022-54.71,117.022-121.958s-52.5-121.959-117.022-121.959a1.208,1.208,0,0,1,0-2.414c65.8,0,119.338,55.794,119.338,124.373S1581.224,724.34,1515.421,724.34Z" transform="translate(-1408.428 -467.253)"/><circle class="a" cx="7.29" cy="7.29" r="7.29" transform="translate(98.438 251.954) rotate(-22.321)"/></g><g class="b" transform="translate(12.017 35.796)"><ellipse class="c" cx="96.176" cy="96.918" rx="96.176" ry="96.918" transform="translate(14.572 18.09)"/><ellipse class="d" cx="96.176" cy="96.918" rx="96.176" ry="96.918" transform="translate(14.012 17.394)"/><ellipse class="e" cx="96.176" cy="96.918" rx="96.176" ry="96.918" transform="translate(13.451 16.698)"/><ellipse class="f" cx="96.176" cy="96.918" rx="96.176" ry="96.918" transform="translate(12.891 16.002)"/><ellipse class="g" cx="96.176" cy="96.918" rx="96.176" ry="96.918" transform="translate(12.33 15.307)"/><ellipse class="h" cx="96.176" cy="96.918" rx="96.176" ry="96.918" transform="translate(11.77 14.611)"/><ellipse class="i" cx="96.176" cy="96.918" rx="96.176" ry="96.918" transform="translate(11.209 13.915)"/><ellipse class="j" cx="96.176" cy="96.918" rx="96.176" ry="96.918" transform="translate(10.649 13.219)"/><ellipse class="k" cx="96.176" cy="96.918" rx="96.176" ry="96.918" transform="translate(10.088 12.524)"/><ellipse class="l" cx="96.176" cy="96.918" rx="96.176" ry="96.918" transform="translate(9.528 11.828)"/><ellipse class="m" cx="96.176" cy="96.918" rx="96.176" ry="96.918" transform="translate(8.967 11.132)"/><ellipse class="n" cx="96.176" cy="96.918" rx="96.176" ry="96.918" transform="translate(8.407 10.436)"/><ellipse class="o" cx="96.176" cy="96.918" rx="96.176" ry="96.918" transform="translate(7.847 9.741)"/><ellipse class="p" cx="96.176" cy="96.918" rx="96.176" ry="96.918" transform="translate(7.286 9.045)"/><ellipse class="q" cx="96.176" cy="96.918" rx="96.176" ry="96.918" transform="translate(6.726 8.349)"/><ellipse class="r" cx="96.176" cy="96.918" rx="96.176" ry="96.918" transform="translate(6.165 7.653)"/><ellipse class="s" cx="96.176" cy="96.918" rx="96.176" ry="96.918" transform="translate(5.605 6.958)"/><ellipse class="t" cx="96.176" cy="96.918" rx="96.176" ry="96.918" transform="translate(5.044 6.262)"/><ellipse class="u" cx="96.176" cy="96.918" rx="96.176" ry="96.918" transform="translate(4.484 5.566)"/><ellipse class="v" cx="96.176" cy="96.918" rx="96.176" ry="96.918" transform="translate(3.923 4.87)"/><ellipse class="w" cx="96.176" cy="96.918" rx="96.176" ry="96.918" transform="translate(3.363 4.175)"/><ellipse class="x" cx="96.176" cy="96.918" rx="96.176" ry="96.918" transform="translate(2.802 3.479)"/><ellipse class="y" cx="96.176" cy="96.918" rx="96.176" ry="96.918" transform="translate(2.242 2.783)"/><ellipse class="z" cx="96.176" cy="96.918" rx="96.176" ry="96.918" transform="translate(1.681 2.087)"/><ellipse class="aa" cx="96.176" cy="96.918" rx="96.176" ry="96.918" transform="translate(1.121 1.392)"/><ellipse class="ab" cx="96.176" cy="96.918" rx="96.176" ry="96.918" transform="translate(0.56 0.696)"/><ellipse class="ac" cx="96.176" cy="96.918" rx="96.176" ry="96.918" transform="translate(0)"/></g><ellipse class="ad" cx="96.176" cy="96.918" rx="96.176" ry="96.918" transform="translate(12.017 35.796)"/></g><g transform="translate(931 1988.349)"><g transform="translate(0 0)"><path class="ae" d="M2264.757,1717.124a107.138,107.138,0,0,1-76.5-31.893,109.384,109.384,0,0,1,0-153.992,107.7,107.7,0,0,1,153.008,0,109.383,109.383,0,0,1,0,153.992A107.138,107.138,0,0,1,2264.757,1717.124Z" transform="translate(-2156.564 -1476.942)"/><path class="ae" d="M2490.145,1695.23a1.208,1.208,0,0,1,0-2.413c64.526,0,117.022-54.69,117.022-121.913s-52.5-121.913-117.022-121.913a1.208,1.208,0,0,1,0-2.414c65.8,0,119.338,55.773,119.338,124.326S2555.948,1695.23,2490.145,1695.23Z" transform="translate(-2383.151 -1439.611)"/><circle class="ae" cx="7.29" cy="7.29" r="7.29" transform="translate(99.416 248.682) rotate(-10.901)"/><ellipse class="ae" cx="7.29" cy="7.29" rx="7.29" ry="7.29" transform="matrix(0.993, -0.122, 0.122, 0.993, 99.828, 1.781)"/></g><g class="b" transform="translate(12.017 34.422)"><ellipse class="c" cx="96.176" cy="96.872" rx="96.176" ry="96.872" transform="translate(14.572 18.09)"/><ellipse class="d" cx="96.176" cy="96.872" rx="96.176" ry="96.872" transform="translate(14.012 17.394)"/><ellipse class="e" cx="96.176" cy="96.872" rx="96.176" ry="96.872" transform="translate(13.451 16.698)"/><ellipse class="f" cx="96.176" cy="96.872" rx="96.176" ry="96.872" transform="translate(12.891 16.002)"/><ellipse class="g" cx="96.176" cy="96.872" rx="96.176" ry="96.872" transform="translate(12.33 15.307)"/><ellipse class="h" cx="96.176" cy="96.872" rx="96.176" ry="96.872" transform="translate(11.77 14.611)"/><ellipse class="i" cx="96.176" cy="96.872" rx="96.176" ry="96.872" transform="translate(11.209 13.915)"/><ellipse class="j" cx="96.176" cy="96.872" rx="96.176" ry="96.872" transform="translate(10.649 13.219)"/><ellipse class="k" cx="96.176" cy="96.872" rx="96.176" ry="96.872" transform="translate(10.088 12.524)"/><ellipse class="l" cx="96.176" cy="96.872" rx="96.176" ry="96.872" transform="translate(9.528 11.828)"/><ellipse class="m" cx="96.176" cy="96.872" rx="96.176" ry="96.872" transform="translate(8.967 11.132)"/><ellipse class="n" cx="96.176" cy="96.872" rx="96.176" ry="96.872" transform="translate(8.407 10.436)"/><ellipse class="o" cx="96.176" cy="96.872" rx="96.176" ry="96.872" transform="translate(7.847 9.741)"/><ellipse class="p" cx="96.176" cy="96.872" rx="96.176" ry="96.872" transform="translate(7.286 9.045)"/><ellipse class="q" cx="96.176" cy="96.872" rx="96.176" ry="96.872" transform="translate(6.726 8.349)"/><ellipse class="r" cx="96.176" cy="96.872" rx="96.176" ry="96.872" transform="translate(6.165 7.653)"/><ellipse class="s" cx="96.176" cy="96.872" rx="96.176" ry="96.872" transform="translate(5.605 6.958)"/><ellipse class="t" cx="96.176" cy="96.872" rx="96.176" ry="96.872" transform="translate(5.044 6.262)"/><ellipse class="u" cx="96.176" cy="96.872" rx="96.176" ry="96.872" transform="translate(4.484 5.566)"/><ellipse class="v" cx="96.176" cy="96.872" rx="96.176" ry="96.872" transform="translate(3.923 4.87)"/><ellipse class="w" cx="96.176" cy="96.872" rx="96.176" ry="96.872" transform="translate(3.363 4.175)"/><ellipse class="x" cx="96.176" cy="96.872" rx="96.176" ry="96.872" transform="translate(2.802 3.479)"/><ellipse class="y" cx="96.176" cy="96.872" rx="96.176" ry="96.872" transform="translate(2.242 2.783)"/><ellipse class="z" cx="96.176" cy="96.872" rx="96.176" ry="96.872" transform="translate(1.681 2.087)"/><ellipse class="aa" cx="96.176" cy="96.872" rx="96.176" ry="96.872" transform="translate(1.121 1.392)"/><ellipse class="ab" cx="96.176" cy="96.872" rx="96.176" ry="96.872" transform="translate(0.56 0.696)"/><ellipse class="ac" cx="96.176" cy="96.872" rx="96.176" ry="96.872" transform="translate(0)"/></g><ellipse class="ad" cx="96.176" cy="96.872" rx="96.176" ry="96.872" transform="translate(12.017 34.422)"/></g><g transform="translate(1122 1986)"><g transform="translate(0 0)"><path class="a" d="M1290.035,746.234a107.116,107.116,0,0,1-76.5-31.906,109.464,109.464,0,0,1,0-154.057,107.673,107.673,0,0,1,153.009,0,109.465,109.465,0,0,1,0,154.057A107.116,107.116,0,0,1,1290.035,746.234Z" transform="translate(-1181.842 -504.585)"/><path class="a" d="M1515.421,724.34a1.208,1.208,0,0,1,0-2.414c64.526,0,117.022-54.71,117.022-121.958s-52.5-121.959-117.022-121.959a1.208,1.208,0,0,1,0-2.414c65.8,0,119.338,55.794,119.338,124.373S1581.224,724.34,1515.421,724.34Z" transform="translate(-1408.428 -467.253)"/><circle class="a" cx="7.29" cy="7.29" r="7.29" transform="translate(98.438 251.954) rotate(-22.321)"/><circle class="a" cx="7.29" cy="7.29" r="7.29" transform="translate(98.45 5.496) rotate(-22.144)"/></g><g class="b" transform="translate(12.017 35.796)"><ellipse class="c" cx="96.176" cy="96.918" rx="96.176" ry="96.918" transform="translate(14.572 18.09)"/><ellipse class="d" cx="96.176" cy="96.918" rx="96.176" ry="96.918" transform="translate(14.012 17.394)"/><ellipse class="e" cx="96.176" cy="96.918" rx="96.176" ry="96.918" transform="translate(13.451 16.698)"/><ellipse class="f" cx="96.176" cy="96.918" rx="96.176" ry="96.918" transform="translate(12.891 16.002)"/><ellipse class="g" cx="96.176" cy="96.918" rx="96.176" ry="96.918" transform="translate(12.33 15.307)"/><ellipse class="h" cx="96.176" cy="96.918" rx="96.176" ry="96.918" transform="translate(11.77 14.611)"/><ellipse class="i" cx="96.176" cy="96.918" rx="96.176" ry="96.918" transform="translate(11.209 13.915)"/><ellipse class="j" cx="96.176" cy="96.918" rx="96.176" ry="96.918" transform="translate(10.649 13.219)"/><ellipse class="k" cx="96.176" cy="96.918" rx="96.176" ry="96.918" transform="translate(10.088 12.524)"/><ellipse class="l" cx="96.176" cy="96.918" rx="96.176" ry="96.918" transform="translate(9.528 11.828)"/><ellipse class="m" cx="96.176" cy="96.918" rx="96.176" ry="96.918" transform="translate(8.967 11.132)"/><ellipse class="n" cx="96.176" cy="96.918" rx="96.176" ry="96.918" transform="translate(8.407 10.436)"/><ellipse class="o" cx="96.176" cy="96.918" rx="96.176" ry="96.918" transform="translate(7.847 9.741)"/><ellipse class="p" cx="96.176" cy="96.918" rx="96.176" ry="96.918" transform="translate(7.286 9.045)"/><ellipse class="q" cx="96.176" cy="96.918" rx="96.176" ry="96.918" transform="translate(6.726 8.349)"/><ellipse class="r" cx="96.176" cy="96.918" rx="96.176" ry="96.918" transform="translate(6.165 7.653)"/><ellipse class="s" cx="96.176" cy="96.918" rx="96.176" ry="96.918" transform="translate(5.605 6.958)"/><ellipse class="t" cx="96.176" cy="96.918" rx="96.176" ry="96.918" transform="translate(5.044 6.262)"/><ellipse class="u" cx="96.176" cy="96.918" rx="96.176" ry="96.918" transform="translate(4.484 5.566)"/><ellipse class="v" cx="96.176" cy="96.918" rx="96.176" ry="96.918" transform="translate(3.923 4.87)"/><ellipse class="w" cx="96.176" cy="96.918" rx="96.176" ry="96.918" transform="translate(3.363 4.175)"/><ellipse class="x" cx="96.176" cy="96.918" rx="96.176" ry="96.918" transform="translate(2.802 3.479)"/><ellipse class="y" cx="96.176" cy="96.918" rx="96.176" ry="96.918" transform="translate(2.242 2.783)"/><ellipse class="z" cx="96.176" cy="96.918" rx="96.176" ry="96.918" transform="translate(1.681 2.087)"/><ellipse class="aa" cx="96.176" cy="96.918" rx="96.176" ry="96.918" transform="translate(1.121 1.392)"/><ellipse class="ab" cx="96.176" cy="96.918" rx="96.176" ry="96.918" transform="translate(0.56 0.696)"/><ellipse class="ac" cx="96.176" cy="96.918" rx="96.176" ry="96.918" transform="translate(0)"/></g><ellipse class="ad" cx="96.176" cy="96.918" rx="96.176" ry="96.918" transform="translate(12.017 35.796)"/></g><g transform="translate(1314 1988.349)"><g transform="translate(0 0)"><path class="ae" d="M2264.757,1717.124a107.138,107.138,0,0,1-76.5-31.893,109.384,109.384,0,0,1,0-153.992,107.7,107.7,0,0,1,153.008,0,109.383,109.383,0,0,1,0,153.992A107.138,107.138,0,0,1,2264.757,1717.124Z" transform="translate(-2156.564 -1476.942)"/><path class="ae" d="M2490.145,1695.23a1.208,1.208,0,0,1,0-2.413c64.526,0,117.022-54.69,117.022-121.913s-52.5-121.913-117.022-121.913a1.208,1.208,0,0,1,0-2.414c65.8,0,119.338,55.773,119.338,124.326S2555.948,1695.23,2490.145,1695.23Z" transform="translate(-2383.151 -1439.611)"/><circle class="ae" cx="7.29" cy="7.29" r="7.29" transform="translate(99.416 248.682) rotate(-10.901)"/><ellipse class="ae" cx="7.29" cy="7.29" rx="7.29" ry="7.29" transform="matrix(0.993, -0.122, 0.122, 0.993, 99.828, 1.781)"/></g><g class="b" transform="translate(12.017 34.422)"><ellipse class="c" cx="96.176" cy="96.872" rx="96.176" ry="96.872" transform="translate(14.572 18.09)"/><ellipse class="d" cx="96.176" cy="96.872" rx="96.176" ry="96.872" transform="translate(14.012 17.394)"/><ellipse class="e" cx="96.176" cy="96.872" rx="96.176" ry="96.872" transform="translate(13.451 16.698)"/><ellipse class="f" cx="96.176" cy="96.872" rx="96.176" ry="96.872" transform="translate(12.891 16.002)"/><ellipse class="g" cx="96.176" cy="96.872" rx="96.176" ry="96.872" transform="translate(12.33 15.307)"/><ellipse class="h" cx="96.176" cy="96.872" rx="96.176" ry="96.872" transform="translate(11.77 14.611)"/><ellipse class="i" cx="96.176" cy="96.872" rx="96.176" ry="96.872" transform="translate(11.209 13.915)"/><ellipse class="j" cx="96.176" cy="96.872" rx="96.176" ry="96.872" transform="translate(10.649 13.219)"/><ellipse class="k" cx="96.176" cy="96.872" rx="96.176" ry="96.872" transform="translate(10.088 12.524)"/><ellipse class="l" cx="96.176" cy="96.872" rx="96.176" ry="96.872" transform="translate(9.528 11.828)"/><ellipse class="m" cx="96.176" cy="96.872" rx="96.176" ry="96.872" transform="translate(8.967 11.132)"/><ellipse class="n" cx="96.176" cy="96.872" rx="96.176" ry="96.872" transform="translate(8.407 10.436)"/><ellipse class="o" cx="96.176" cy="96.872" rx="96.176" ry="96.872" transform="translate(7.847 9.741)"/><ellipse class="p" cx="96.176" cy="96.872" rx="96.176" ry="96.872" transform="translate(7.286 9.045)"/><ellipse class="q" cx="96.176" cy="96.872" rx="96.176" ry="96.872" transform="translate(6.726 8.349)"/><ellipse class="r" cx="96.176" cy="96.872" rx="96.176" ry="96.872" transform="translate(6.165 7.653)"/><ellipse class="s" cx="96.176" cy="96.872" rx="96.176" ry="96.872" transform="translate(5.605 6.958)"/><ellipse class="t" cx="96.176" cy="96.872" rx="96.176" ry="96.872" transform="translate(5.044 6.262)"/><ellipse class="u" cx="96.176" cy="96.872" rx="96.176" ry="96.872" transform="translate(4.484 5.566)"/><ellipse class="v" cx="96.176" cy="96.872" rx="96.176" ry="96.872" transform="translate(3.923 4.87)"/><ellipse class="w" cx="96.176" cy="96.872" rx="96.176" ry="96.872" transform="translate(3.363 4.175)"/><ellipse class="x" cx="96.176" cy="96.872" rx="96.176" ry="96.872" transform="translate(2.802 3.479)"/><ellipse class="y" cx="96.176" cy="96.872" rx="96.176" ry="96.872" transform="translate(2.242 2.783)"/><ellipse class="z" cx="96.176" cy="96.872" rx="96.176" ry="96.872" transform="translate(1.681 2.087)"/><ellipse class="aa" cx="96.176" cy="96.872" rx="96.176" ry="96.872" transform="translate(1.121 1.392)"/><ellipse class="ab" cx="96.176" cy="96.872" rx="96.176" ry="96.872" transform="translate(0.56 0.696)"/><ellipse class="ac" cx="96.176" cy="96.872" rx="96.176" ry="96.872" transform="translate(0)"/></g><ellipse class="ad" cx="96.176" cy="96.872" rx="96.176" ry="96.872" transform="translate(12.017 34.422)"/></g><circle class="a" cx="24.5" cy="24.5" r="24.5" transform="translate(825 1983)"/><circle class="ae" cx="24.5" cy="24.5" r="24.5" transform="translate(1013 1983)"/><circle class="a" cx="24.5" cy="24.5" r="24.5" transform="translate(1206 1983)"/><circle class="ae" cx="24.5" cy="24.5" r="24.5" transform="translate(1398 1983)"/><text class="af" transform="translate(849 2013)"><tspan x="-8.901" y="0">01</tspan></text><text class="af" transform="translate(1037 2013)"><tspan x="-10.359" y="0">02</tspan></text><text class="af" transform="translate(1230 2013)"><tspan x="-10.503" y="0">03</tspan></text><text class="af" transform="translate(1422 2013)"><tspan x="-10.674" y="0">04</tspan></text><text class="ag" transform="translate(849 2087)"><tspan x="-35.25" y="0">계획수립</tspan></text><text class="ag" transform="translate(1037 2087)"><tspan x="-35.25" y="0">과제발굴</tspan></text><text class="ag" transform="translate(1230 2087)"><tspan x="-57.96" y="0">과제 숙성</tspan><tspan class="ah" y="0">∙</tspan><tspan y="0">확정</tspan></text><text class="ag" transform="translate(1422 2087)"><tspan x="-37.71" y="0">점검</tspan><tspan class="ah" y="0">∙</tspan><tspan y="0">평가</tspan></text><text class="ai" transform="translate(849 2130)"><tspan x="-44.4" y="0">기본방향 설정</tspan><tspan x="-32.632" y="24">(정기회의)</tspan></text><text class="ai" transform="translate(1037 2118)"><tspan x="-21.2" y="0">대국민</tspan><tspan x="-44.4" y="24">아이디어 공모</tspan><tspan x="-53.16" y="48">분류 및 1차 선정</tspan></text><text class="ai" transform="translate(1230 2118)"><tspan x="-24.76" y="0">TF 구성</tspan><tspan x="-67.6" y="24">시민사회 제안의 숙의</tspan><tspan x="-46.6" y="48">최종 과제 선정</tspan></text><text class="ai" transform="translate(1422 2130)"><tspan x="-32.88" y="0">OGP IRM</tspan><tspan x="-51.4" y="24">평가보고서 발간</tspan></text><text class="aj" transform="translate(1422 2272)"><tspan x="-88.348" y="0">* IRM(Independent Reporting </tspan><tspan x="-86.164" y="20">Mechanism, 독립보고 메커니즘)</tspan><tspan x="-47.404" y="40">: OGP의 소속기구</tspan></text></g></svg>