<svg xmlns="http://www.w3.org/2000/svg" width="185.793" height="185.793" viewBox="0 0 185.793 185.793"><defs><style>.a{fill:#040505;}.b{fill:#e82418;}.c{fill:#fff;}.d{fill:#1f56a4;}.e{fill:#298836;}.f{fill:#ffea56;}.g{fill:#ec5026;}.h{fill:#191717;}.i{fill:#005488;}.j{fill:#f9830e;}.k{fill:#bc231c;}.l{fill:#072a51;}.m{fill:#277ec3;}.n{fill:#0c5454;}</style></defs><g transform="translate(-98.293 -97.699)"><rect class="a" width="185.792" height="156.169" transform="translate(98.293 97.699)"/><rect class="b" width="7.441" height="29.996" transform="translate(98.293 253.495)"/><rect class="c" width="7.441" height="29.996" transform="translate(105.734 253.495)"/><rect class="d" width="7.441" height="29.996" transform="translate(113.175 253.495)"/><rect class="e" width="7.441" height="29.996" transform="translate(120.616 253.495)"/><rect class="f" width="7.441" height="29.996" transform="translate(128.057 253.495)"/><rect class="g" width="7.441" height="29.996" transform="translate(135.449 253.495)"/><rect class="h" width="7.441" height="29.996" transform="translate(142.88 253.495)"/><rect class="e" width="7.441" height="29.996" transform="translate(150.312 253.495)"/><rect class="b" width="7.441" height="29.996" transform="translate(157.743 253.495)"/><rect class="c" width="7.441" height="29.996" transform="translate(165.174 253.495)"/><rect class="i" width="7.441" height="29.996" transform="translate(172.606 253.495)"/><rect class="f" width="7.441" height="29.996" transform="translate(180.037 253.495)"/><rect class="h" width="7.441" height="29.996" transform="translate(187.468 253.495)"/><rect class="j" width="7.441" height="29.996" transform="translate(194.9 253.495)"/><rect class="c" width="7.441" height="29.996" transform="translate(202.331 253.495)"/><rect class="k" width="7.441" height="29.996" transform="translate(209.762 253.495)"/><rect class="l" width="7.441" height="29.996" transform="translate(217.193 253.495)"/><rect class="e" width="7.441" height="29.996" transform="translate(224.625 253.495)"/><rect class="f" width="7.441" height="29.996" transform="translate(232.056 253.495)"/><rect class="i" width="7.441" height="29.996" transform="translate(239.487 253.495)"/><rect class="b" width="7.441" height="29.996" transform="translate(246.919 253.495)"/><rect class="m" width="7.441" height="29.996" transform="translate(254.32 253.495)"/><rect class="j" width="7.441" height="29.996" transform="translate(261.762 253.495)"/><rect class="c" width="7.441" height="29.996" transform="translate(269.203 253.495)"/><rect class="n" width="7.441" height="29.996" transform="translate(276.644 253.495)"/><g transform="translate(112.792 142.673)"><path class="c" d="M157.056,244.007a11.7,11.7,0,0,1,8.4,3.192,10.589,10.589,0,0,1,3.353,8,10.42,10.42,0,0,1-3.384,7.965,12.033,12.033,0,0,1-8.535,3.153,11.344,11.344,0,0,1-8.193-3.153,10.511,10.511,0,0,1-3.276-7.9,10.748,10.748,0,0,1,3.3-8.066A11.507,11.507,0,0,1,157.056,244.007Zm.125,2.959a8.443,8.443,0,0,0-6.137,2.335,7.957,7.957,0,0,0-2.4,5.964,7.81,7.81,0,0,0,2.412,5.854,8.952,8.952,0,0,0,12.111-.046,7.964,7.964,0,0,0,2.435-5.933,7.779,7.779,0,0,0-2.435-5.816A8.268,8.268,0,0,0,157.18,246.966Z" transform="translate(-145.416 -244.007)"/><path class="c" d="M229.93,290.787V269.158h4.961a8.59,8.59,0,0,1,5.933,1.9,6.759,6.759,0,0,1,2.123,5.31,7.313,7.313,0,0,1-2,5.294,6.768,6.768,0,0,1-5.091,2.071,8.922,8.922,0,0,1-3.032-.607v7.661Zm4.9-18.981h-2v8.813a5.91,5.91,0,0,0,2.735.669,4.209,4.209,0,0,0,3.255-1.385,5.081,5.081,0,0,0,1.266-3.566,5,5,0,0,0-.6-2.476,3.623,3.623,0,0,0-1.631-1.565A7.29,7.29,0,0,0,234.831,271.805Z" transform="translate(-203.968 -261.419)"/><path class="c" d="M290.917,275.939H280.842a4.675,4.675,0,0,0,1.378,3.27,4.545,4.545,0,0,0,3.278,1.215,8.527,8.527,0,0,0,5.17-1.744v2.772a9.463,9.463,0,0,1-2.593,1.246,10.835,10.835,0,0,1-3.013.374,6.763,6.763,0,0,1-3.831-.981,7.132,7.132,0,0,1-2.343-2.639,8.066,8.066,0,0,1-.88-3.839,7.62,7.62,0,0,1,1.853-5.318,6.189,6.189,0,0,1,4.811-2.047,5.669,5.669,0,0,1,4.547,1.993,7.964,7.964,0,0,1,1.7,5.341Zm-10.013-1.7h7.21a3.96,3.96,0,0,0-1.012-2.616,3.252,3.252,0,0,0-2.429-.919,3.5,3.5,0,0,0-2.5.919A4.553,4.553,0,0,0,280.9,274.242Z" transform="translate(-237.277 -260.788)"/><path class="c" d="M330.55,268.527v1.822a5.7,5.7,0,0,1,4.313-2.1,4.752,4.752,0,0,1,2.491.693,4.52,4.52,0,0,1,1.752,1.9,9.08,9.08,0,0,1,.6,3.823v8.191h-2.834v-8.159a5.578,5.578,0,0,0-.669-3.138,2.562,2.562,0,0,0-2.243-.942,4.083,4.083,0,0,0-3.41,2.009v10.23h-2.9V268.527Z" transform="translate(-271.671 -260.788)"/><path class="c" d="M158.558,352.227h7.3v9.218a19.9,19.9,0,0,1-7.972,1.744,11.831,11.831,0,0,1-8.634-3.153,10.438,10.438,0,0,1-3.231-7.778,10.819,10.819,0,0,1,3.348-8.112,11.588,11.588,0,0,1,8.393-3.239,14.881,14.881,0,0,1,3.488.4,28.621,28.621,0,0,1,4.173,1.456v3.176a15.3,15.3,0,0,0-7.723-2.258,8.2,8.2,0,0,0-6.011,2.429,8.611,8.611,0,0,0,0,12.021,8.7,8.7,0,0,0,6.291,2.351,14.664,14.664,0,0,0,4.469-.856l.3-.094V355h-4.189Z" transform="translate(-145.836 -311.091)"/><path class="c" d="M226.929,365.855a7.473,7.473,0,0,1,5.435,2.11,7.1,7.1,0,0,1,2.164,5.3,6.74,6.74,0,0,1-2.2,5.146,7.788,7.788,0,0,1-5.528,2.047,7.472,7.472,0,0,1-5.388-2.078,7.341,7.341,0,0,1,.023-10.433A7.623,7.623,0,0,1,226.929,365.855Zm-.156,2.554a4.478,4.478,0,0,0-3.348,1.339,4.679,4.679,0,0,0-1.308,3.41,4.469,4.469,0,0,0,1.339,3.355,4.734,4.734,0,0,0,3.441,1.3,4.658,4.658,0,0,0,3.418-1.316,4.872,4.872,0,0,0-.054-6.75A4.818,4.818,0,0,0,226.773,368.409Z" transform="translate(-196.533 -328.362)"/><path class="c" d="M280.477,365.957h3.073l-6.327,14.575h-.959l-6.479-14.575h3.1l3.866,8.813Z" transform="translate(-231.58 -328.433)"/><path class="c" d="M329.962,372.738H319.887a4.677,4.677,0,0,0,1.378,3.27,4.545,4.545,0,0,0,3.278,1.215,8.53,8.53,0,0,0,5.17-1.744v2.772a9.458,9.458,0,0,1-2.592,1.246,10.84,10.84,0,0,1-3.013.374,6.765,6.765,0,0,1-3.831-.981,7.138,7.138,0,0,1-2.344-2.64,8.069,8.069,0,0,1-.88-3.838,7.62,7.62,0,0,1,1.853-5.317,6.188,6.188,0,0,1,4.811-2.048,5.668,5.668,0,0,1,4.547,1.993,7.963,7.963,0,0,1,1.7,5.341Zm-10.012-1.7h7.209a3.958,3.958,0,0,0-1.012-2.616,3.253,3.253,0,0,0-2.429-.919,3.494,3.494,0,0,0-2.5.919A4.55,4.55,0,0,0,319.949,371.041Z" transform="translate(-264.328 -327.802)"/><path class="c" d="M370.358,365.326v3.286l.156-.249q2.055-3.316,4.11-3.317a5.07,5.07,0,0,1,3.348,1.62l-1.5,2.491a4.2,4.2,0,0,0-2.741-1.4,2.936,2.936,0,0,0-2.375,1.308,4.941,4.941,0,0,0-1,3.1v7.49h-2.85V365.326Z" transform="translate(-299.281 -327.802)"/><path class="c" d="M408.563,365.326v1.822a5.7,5.7,0,0,1,4.314-2.1,4.748,4.748,0,0,1,2.491.693,4.523,4.523,0,0,1,1.752,1.9,9.087,9.087,0,0,1,.6,3.823v8.191h-2.834v-8.159a5.576,5.576,0,0,0-.67-3.138,2.56,2.56,0,0,0-2.242-.942,4.084,4.084,0,0,0-3.41,2.009v10.23h-2.9V365.326Z" transform="translate(-325.719 -327.802)"/><path class="c" d="M465.006,369.18v10.4h-2.85v-7.973a6.266,6.266,0,0,0-.638-3.324,2.5,2.5,0,0,0-2.227-.942,3.337,3.337,0,0,0-1.627.4,7.173,7.173,0,0,0-1.69,1.433v10.4H453.14V365.256h2.834v1.884a6.168,6.168,0,0,1,4.235-2.164,4.654,4.654,0,0,1,4.22,2.585q2.273-2.616,4.749-2.616a4.377,4.377,0,0,1,3.433,1.526,6.88,6.88,0,0,1,1.347,4.656v8.455h-2.834V371.1a4.421,4.421,0,0,0-.732-2.741,2.5,2.5,0,0,0-2.1-.95A4.349,4.349,0,0,0,465.006,369.18Z" transform="translate(-358.619 -327.732)"/><path class="c" d="M539.937,372.738H529.862a4.677,4.677,0,0,0,1.378,3.27,4.547,4.547,0,0,0,3.278,1.215,8.529,8.529,0,0,0,5.169-1.744v2.772A9.453,9.453,0,0,1,537.1,379.5a10.841,10.841,0,0,1-3.013.374,6.764,6.764,0,0,1-3.83-.981,7.134,7.134,0,0,1-2.344-2.64,8.065,8.065,0,0,1-.88-3.838,7.62,7.62,0,0,1,1.853-5.317,6.189,6.189,0,0,1,4.812-2.048,5.667,5.667,0,0,1,4.547,1.993,7.964,7.964,0,0,1,1.7,5.341Zm-10.013-1.7h7.209a3.958,3.958,0,0,0-1.012-2.616,3.253,3.253,0,0,0-2.429-.919,3.493,3.493,0,0,0-2.5.919A4.551,4.551,0,0,0,529.924,371.041Z" transform="translate(-409.8 -327.802)"/><path class="c" d="M579.571,365.326v1.822a5.7,5.7,0,0,1,4.313-2.1,4.751,4.751,0,0,1,2.492.693,4.521,4.521,0,0,1,1.752,1.9,9.087,9.087,0,0,1,.6,3.823v8.191h-2.834v-8.159a5.58,5.58,0,0,0-.67-3.138,2.561,2.561,0,0,0-2.242-.942,4.083,4.083,0,0,0-3.41,2.009v10.23h-2.9V365.326Z" transform="translate(-444.214 -327.802)"/><path class="c" d="M620.1,361.573l5.326-5.232V359.3h4.531v2.553h-4.531v7.011q0,2.456,2.04,2.456a6.327,6.327,0,0,0,3.223-1.012v2.647a7.153,7.153,0,0,1-3.566.919,4.725,4.725,0,0,1-3.239-1.136,3.222,3.222,0,0,1-.67-.771,4.068,4.068,0,0,1-.444-1.121,12.575,12.575,0,0,1-.179-2.639v-6.353H620.1Z" transform="translate(-474.274 -321.776)"/><path class="c" d="M148,460.3V438.517h6.9a7.108,7.108,0,0,1,4.968,1.682,5.8,5.8,0,0,1,1.853,4.515,6.041,6.041,0,0,1-.95,3.363,5.429,5.429,0,0,1-2.6,2.126,13.224,13.224,0,0,1-4.734.662h-2.3V460.3Zm6.353-19.013h-3.223v6.8h3.41a4.322,4.322,0,0,0,2.928-.9,3.215,3.215,0,0,0,1.027-2.562Q158.492,441.289,154.35,441.289Z" transform="translate(-147.203 -378.666)"/><path class="c" d="M206.529,467.841v6.089q0,.732.5.732a3.426,3.426,0,0,0,1.6-.763v1.729a9.263,9.263,0,0,1-1.549.849,3.365,3.365,0,0,1-1.222.225q-1.822,0-2.149-1.432a6.168,6.168,0,0,1-3.846,1.4,3.394,3.394,0,0,1-2.492-.989,3.354,3.354,0,0,1-1-2.483,3.5,3.5,0,0,1,.973-2.421,6.588,6.588,0,0,1,2.764-1.69l3.628-1.246v-.763a2.285,2.285,0,0,0-2.585-2.585,6.226,6.226,0,0,0-4.516,2.4v-3.1a5.882,5.882,0,0,1,4.749-1.946,5.481,5.481,0,0,1,3.722,1.215,3.813,3.813,0,0,1,.841,1.036,3.737,3.737,0,0,1,.475,1.292A19.143,19.143,0,0,1,206.529,467.841Zm-2.787,5.777v-4.251l-1.9.732a6.419,6.419,0,0,0-2.048,1.16,2.1,2.1,0,0,0-.031,2.9,2,2,0,0,0,1.471.561A3.562,3.562,0,0,0,203.741,473.618Z" transform="translate(-180.696 -394.817)"/><path class="c" d="M245.735,462.126v3.286l.156-.249q2.055-3.317,4.111-3.317a5.067,5.067,0,0,1,3.348,1.62l-1.495,2.491a4.2,4.2,0,0,0-2.741-1.4,2.937,2.937,0,0,0-2.375,1.308,4.94,4.94,0,0,0-1,3.1v7.49h-2.85V462.126Z" transform="translate(-212.942 -394.817)"/><path class="c" d="M278.866,458.374l5.325-5.232V456.1h4.531v2.554h-4.531v7.011q0,2.456,2.04,2.456a6.326,6.326,0,0,0,3.223-1.012v2.647a7.154,7.154,0,0,1-3.566.919,4.725,4.725,0,0,1-3.239-1.136,3.219,3.219,0,0,1-.669-.771,4.074,4.074,0,0,1-.444-1.121,12.57,12.57,0,0,1-.179-2.639v-6.353h-2.491Z" transform="translate(-237.87 -388.791)"/><path class="c" d="M322.6,462.126v1.822a5.7,5.7,0,0,1,4.313-2.1,4.751,4.751,0,0,1,2.491.693,4.52,4.52,0,0,1,1.752,1.9,9.089,9.089,0,0,1,.6,3.823v8.19h-2.834v-8.159a5.579,5.579,0,0,0-.67-3.138,2.561,2.561,0,0,0-2.242-.942,4.083,4.083,0,0,0-3.41,2.009v10.231h-2.9V462.126Z" transform="translate(-266.164 -394.817)"/><path class="c" d="M378.213,469.538H368.138a4.677,4.677,0,0,0,1.378,3.27,4.545,4.545,0,0,0,3.278,1.214,8.531,8.531,0,0,0,5.17-1.744v2.772a9.463,9.463,0,0,1-2.593,1.246,10.835,10.835,0,0,1-3.013.374,6.765,6.765,0,0,1-3.831-.981,7.137,7.137,0,0,1-2.343-2.639,8.068,8.068,0,0,1-.88-3.838,7.619,7.619,0,0,1,1.853-5.317,6.187,6.187,0,0,1,4.811-2.048,5.668,5.668,0,0,1,4.547,1.993,7.963,7.963,0,0,1,1.7,5.341Zm-10.013-1.7h7.21a3.958,3.958,0,0,0-1.012-2.616,3.252,3.252,0,0,0-2.429-.918,3.494,3.494,0,0,0-2.5.918A4.555,4.555,0,0,0,368.2,467.841Z" transform="translate(-297.756 -394.817)"/><path class="c" d="M418.609,462.126v3.286l.155-.249q2.056-3.317,4.111-3.317a5.068,5.068,0,0,1,3.348,1.62l-1.495,2.491a4.2,4.2,0,0,0-2.741-1.4,2.937,2.937,0,0,0-2.375,1.308,4.94,4.94,0,0,0-1,3.1v7.49h-2.85V462.126Z" transform="translate(-332.709 -394.817)"/><path class="c" d="M453.916,475.424v-3.052a12.909,12.909,0,0,0,2.453,1.363,5.719,5.719,0,0,0,2.11.521A2.639,2.639,0,0,0,460,473.82a1.251,1.251,0,0,0,.638-1.043,1.405,1.405,0,0,0-.413-1.035,9.6,9.6,0,0,0-1.783-1.191,12.623,12.623,0,0,1-3.589-2.608,3.742,3.742,0,0,1-.849-2.359,3.313,3.313,0,0,1,1.285-2.694,5.084,5.084,0,0,1,3.309-1.043,9.118,9.118,0,0,1,4.313,1.183v2.8a8.627,8.627,0,0,0-4.127-1.526,2.294,2.294,0,0,0-1.331.351,1.078,1.078,0,0,0-.506.927,1.333,1.333,0,0,0,.458.951,7.822,7.822,0,0,0,1.611,1.09l1.012.575q3.583,2.024,3.583,4.483a3.569,3.569,0,0,1-1.378,2.888A5.411,5.411,0,0,1,458.7,476.7a8.642,8.642,0,0,1-2.273-.272A15.273,15.273,0,0,1,453.916,475.424Z" transform="translate(-359.144 -394.817)"/><path class="c" d="M493.8,438.618h2.834v9.312a5.483,5.483,0,0,1,4.407-2.165,4.722,4.722,0,0,1,2.57.716,4.339,4.339,0,0,1,1.689,1.978,9.78,9.78,0,0,1,.553,3.752v8.159h-2.834v-8.86a3.916,3.916,0,0,0-.77-2.53,2.481,2.481,0,0,0-2.033-.958,3.433,3.433,0,0,0-1.76.483,7.993,7.993,0,0,0-1.822,1.6v10.261H493.8Z" transform="translate(-386.776 -378.736)"/><path class="c" d="M544.79,443.172a1.663,1.663,0,0,1,1.2.483,1.585,1.585,0,0,1,.5,1.184,1.616,1.616,0,0,1-.5,1.183,1.634,1.634,0,0,1-1.2.5,1.569,1.569,0,0,1-1.152-.506,1.624,1.624,0,0,1-.5-1.175,1.607,1.607,0,0,1,.5-1.16A1.571,1.571,0,0,1,544.79,443.172Zm-1.4,6.026h2.834v14.326h-2.834Z" transform="translate(-420.949 -381.889)"/><path class="c" d="M563.788,484.386V462.757h4.962a8.587,8.587,0,0,1,5.933,1.9,6.758,6.758,0,0,1,2.123,5.31,7.311,7.311,0,0,1-2,5.294,6.769,6.769,0,0,1-5.092,2.071,8.925,8.925,0,0,1-3.032-.607v7.661Zm4.9-18.981h-2v8.814a5.919,5.919,0,0,0,2.735.669,4.209,4.209,0,0,0,3.255-1.386,5.079,5.079,0,0,0,1.267-3.566,5,5,0,0,0-.6-2.476,3.628,3.628,0,0,0-1.632-1.565A7.289,7.289,0,0,0,568.689,465.4Z" transform="translate(-435.292 -395.448)"/></g></g></svg>