<svg xmlns="http://www.w3.org/2000/svg" width="720" height="909.7" viewBox="0 0 720 909.7"><defs><style>.a{fill:#0182cd;}.b{opacity:0.6;mix-blend-mode:multiply;isolation:isolate;}.ad,.af,.ag,.c{fill:#fff;}.c{opacity:0;}.d{fill:#f5f6f6;opacity:0.038;}.e{fill:#ebeeed;opacity:0.077;}.f{fill:#e2e5e4;opacity:0.115;}.g{fill:#d8dcdb;opacity:0.154;}.h{fill:#ced3d2;opacity:0.192;}.i{fill:#c4cbc9;opacity:0.231;}.j{fill:#bac2c0;opacity:0.269;}.k{fill:#b1b9b7;opacity:0.308;}.l{fill:#a7b0ae;opacity:0.346;}.m{fill:#9da8a5;opacity:0.385;}.n{fill:#939f9c;opacity:0.423;}.o{fill:#899693;opacity:0.462;}.p{fill:#808e8b;opacity:0.5;}.q{fill:#768582;opacity:0.538;}.r{fill:#6c7c79;opacity:0.577;}.s{fill:#627370;opacity:0.615;}.t{fill:#586b67;opacity:0.654;}.u{fill:#4e625e;opacity:0.692;}.v{fill:#455955;opacity:0.731;}.w{fill:#3b504c;opacity:0.769;}.x{fill:#314843;opacity:0.808;}.y{fill:#273f3a;opacity:0.846;}.z{fill:#1d3631;opacity:0.885;}.aa{fill:#142d28;opacity:0.923;}.ab{fill:#0a251f;opacity:0.962;}.ac{fill:#001c16;}.ae{fill:#00436f;}.af{font-size:27px;}.af,.ag{font-family:Rubik-Light, Rubik;font-weight:300;}.af,.ag,.ah,.aj,.ak{letter-spacing:-0.025em;}.ag{font-size:25px;}.ah{fill:#333;font-size:29px;font-family:MICEGothicBold, MICEGothic;}.ai{font-family:SegoeUI-Bold, Segoe UI;font-weight:700;}.aj{fill:#717171;font-size:23px;}.aj,.ak{font-family:MICEGothic;}.ak{fill:#aaa;font-size:19px;}.al{fill:none;}</style></defs><g transform="translate(0 -42.65)"><g transform="translate(-686.076 -1940.35)"><g transform="translate(740 1999.676)"><g transform="translate(0 0)"><path class="a" d="M1340.923,848.709A157.5,157.5,0,0,1,1228.436,801.8a160.95,160.95,0,0,1,0-226.517,158.316,158.316,0,0,1,224.976,0,160.951,160.951,0,0,1,0,226.517A157.5,157.5,0,0,1,1340.923,848.709Z" transform="translate(-1181.842 -505.665)"/><path class="a" d="M1515.966,841.336a1.776,1.776,0,0,1,0-3.55c94.875,0,172.063-80.443,172.063-179.32s-77.187-179.322-172.063-179.322a1.776,1.776,0,0,1,0-3.55c96.754,0,175.468,82.036,175.468,182.871S1612.719,841.336,1515.966,841.336Z" transform="translate(-1358.649 -475.595)"/><circle class="a" cx="10.719" cy="10.719" r="10.719" transform="translate(144.738 358.194) rotate(-22.321)"/></g><g class="b" transform="translate(17.669 40.368)"><ellipse class="c" cx="141.412" cy="142.503" rx="141.412" ry="142.503" transform="translate(21.426 26.598)"/><ellipse class="d" cx="141.412" cy="142.503" rx="141.412" ry="142.503" transform="translate(20.602 25.575)"/><ellipse class="e" cx="141.412" cy="142.503" rx="141.412" ry="142.503" transform="translate(19.778 24.552)"/><ellipse class="f" cx="141.412" cy="142.503" rx="141.412" ry="142.503" transform="translate(18.954 23.529)"/><ellipse class="g" cx="141.412" cy="142.503" rx="141.412" ry="142.503" transform="translate(18.13 22.506)"/><ellipse class="h" cx="141.412" cy="142.503" rx="141.412" ry="142.503" transform="translate(17.306 21.483)"/><ellipse class="i" cx="141.412" cy="142.503" rx="141.412" ry="142.503" transform="translate(16.482 20.46)"/><ellipse class="j" cx="141.412" cy="142.503" rx="141.412" ry="142.503" transform="translate(15.658 19.437)"/><ellipse class="k" cx="141.412" cy="142.503" rx="141.412" ry="142.503" transform="translate(14.833 18.414)"/><ellipse class="l" cx="141.412" cy="142.503" rx="141.412" ry="142.503" transform="translate(14.009 17.391)"/><ellipse class="m" cx="141.412" cy="142.503" rx="141.412" ry="142.503" transform="translate(13.185 16.368)"/><ellipse class="n" cx="141.412" cy="142.503" rx="141.412" ry="142.503" transform="translate(12.361 15.345)"/><ellipse class="o" cx="141.412" cy="142.503" rx="141.412" ry="142.503" transform="translate(11.537 14.322)"/><ellipse class="p" cx="141.412" cy="142.503" rx="141.412" ry="142.503" transform="translate(10.713 13.299)"/><ellipse class="q" cx="141.412" cy="142.503" rx="141.412" ry="142.503" transform="translate(9.889 12.276)"/><ellipse class="r" cx="141.412" cy="142.503" rx="141.412" ry="142.503" transform="translate(9.065 11.253)"/><ellipse class="s" cx="141.412" cy="142.503" rx="141.412" ry="142.503" transform="translate(8.241 10.23)"/><ellipse class="t" cx="141.412" cy="142.503" rx="141.412" ry="142.503" transform="translate(7.417 9.207)"/><ellipse class="u" cx="141.412" cy="142.503" rx="141.412" ry="142.503" transform="translate(6.593 8.184)"/><ellipse class="v" cx="141.412" cy="142.503" rx="141.412" ry="142.503" transform="translate(5.769 7.161)"/><ellipse class="w" cx="141.412" cy="142.503" rx="141.412" ry="142.503" transform="translate(4.945 6.138)"/><ellipse class="x" cx="141.412" cy="142.503" rx="141.412" ry="142.503" transform="translate(4.12 5.115)"/><ellipse class="y" cx="141.412" cy="142.503" rx="141.412" ry="142.503" transform="translate(3.296 4.092)"/><ellipse class="z" cx="141.412" cy="142.503" rx="141.412" ry="142.503" transform="translate(2.472 3.069)"/><ellipse class="aa" cx="141.412" cy="142.503" rx="141.412" ry="142.503" transform="translate(1.648 2.046)"/><ellipse class="ab" cx="141.412" cy="142.503" rx="141.412" ry="142.503" transform="translate(0.824 1.023)"/><ellipse class="ac" cx="141.412" cy="142.503" rx="141.412" ry="142.503" transform="translate(0)"/></g><ellipse class="ad" cx="141.412" cy="142.503" rx="141.412" ry="142.503" transform="translate(17.669 40.368)"/></g><g transform="translate(1020.836 1990.865)"><g transform="translate(0 0)"><path class="ae" d="M2315.645,1819.555a157.531,157.531,0,0,1-112.488-46.893,160.833,160.833,0,0,1,0-226.421,158.363,158.363,0,0,1,224.975,0,160.831,160.831,0,0,1,0,226.421A157.531,157.531,0,0,1,2315.645,1819.555Z" transform="translate(-2156.564 -1466.403)"/><path class="ae" d="M2490.689,1812.183a1.776,1.776,0,0,1,0-3.548c94.875,0,172.062-80.413,172.062-179.254s-77.187-179.254-172.062-179.254a1.776,1.776,0,0,1,0-3.549c96.753,0,175.468,82.006,175.468,182.8S2587.443,1812.183,2490.689,1812.183Z" transform="translate(-2333.372 -1436.333)"/><circle class="ae" cx="10.718" cy="10.718" r="10.718" transform="translate(146.176 365.648) rotate(-10.901)"/><ellipse class="ae" cx="10.718" cy="10.718" rx="10.718" ry="10.718" transform="matrix(0.993, -0.122, 0.122, 0.993, 146.781, 2.619)"/></g><g class="b" transform="translate(17.669 50.612)"><ellipse class="c" cx="141.412" cy="142.435" rx="141.412" ry="142.435" transform="translate(21.426 26.598)"/><ellipse class="d" cx="141.412" cy="142.435" rx="141.412" ry="142.435" transform="translate(20.602 25.575)"/><ellipse class="e" cx="141.412" cy="142.435" rx="141.412" ry="142.435" transform="translate(19.778 24.552)"/><ellipse class="f" cx="141.412" cy="142.435" rx="141.412" ry="142.435" transform="translate(18.954 23.529)"/><ellipse class="g" cx="141.412" cy="142.435" rx="141.412" ry="142.435" transform="translate(18.13 22.506)"/><ellipse class="h" cx="141.412" cy="142.435" rx="141.412" ry="142.435" transform="translate(17.306 21.483)"/><ellipse class="i" cx="141.412" cy="142.435" rx="141.412" ry="142.435" transform="translate(16.482 20.46)"/><ellipse class="j" cx="141.412" cy="142.435" rx="141.412" ry="142.435" transform="translate(15.657 19.437)"/><ellipse class="k" cx="141.412" cy="142.435" rx="141.412" ry="142.435" transform="translate(14.833 18.414)"/><ellipse class="l" cx="141.412" cy="142.435" rx="141.412" ry="142.435" transform="translate(14.009 17.391)"/><ellipse class="m" cx="141.412" cy="142.435" rx="141.412" ry="142.435" transform="translate(13.185 16.368)"/><ellipse class="n" cx="141.412" cy="142.435" rx="141.412" ry="142.435" transform="translate(12.361 15.345)"/><ellipse class="o" cx="141.412" cy="142.435" rx="141.412" ry="142.435" transform="translate(11.537 14.322)"/><ellipse class="p" cx="141.412" cy="142.435" rx="141.412" ry="142.435" transform="translate(10.713 13.299)"/><ellipse class="q" cx="141.412" cy="142.435" rx="141.412" ry="142.435" transform="translate(9.889 12.276)"/><ellipse class="r" cx="141.412" cy="142.435" rx="141.412" ry="142.435" transform="translate(9.065 11.253)"/><ellipse class="s" cx="141.412" cy="142.435" rx="141.412" ry="142.435" transform="translate(8.241 10.23)"/><ellipse class="t" cx="141.412" cy="142.435" rx="141.412" ry="142.435" transform="translate(7.417 9.207)"/><ellipse class="u" cx="141.412" cy="142.435" rx="141.412" ry="142.435" transform="translate(6.593 8.184)"/><ellipse class="v" cx="141.412" cy="142.435" rx="141.412" ry="142.435" transform="translate(5.769 7.161)"/><ellipse class="w" cx="141.412" cy="142.435" rx="141.412" ry="142.435" transform="translate(4.945 6.138)"/><ellipse class="x" cx="141.412" cy="142.435" rx="141.412" ry="142.435" transform="translate(4.12 5.115)"/><ellipse class="y" cx="141.412" cy="142.435" rx="141.412" ry="142.435" transform="translate(3.296 4.092)"/><ellipse class="z" cx="141.412" cy="142.435" rx="141.412" ry="142.435" transform="translate(2.472 3.069)"/><ellipse class="aa" cx="141.412" cy="142.435" rx="141.412" ry="142.435" transform="translate(1.648 2.046)"/><ellipse class="ab" cx="141.412" cy="142.435" rx="141.412" ry="142.435" transform="translate(0.824 1.023)"/><ellipse class="ac" cx="141.412" cy="142.435" rx="141.412" ry="142.435" transform="translate(0)"/></g><ellipse class="ad" cx="141.412" cy="142.435" rx="141.412" ry="142.435" transform="translate(17.669 50.612)"/></g><g transform="translate(738.529 2408.111)"><g transform="translate(0 0)"><path class="a" d="M1340.923,848.709A157.5,157.5,0,0,1,1228.436,801.8a160.95,160.95,0,0,1,0-226.517,158.316,158.316,0,0,1,224.976,0,160.951,160.951,0,0,1,0,226.517A157.5,157.5,0,0,1,1340.923,848.709Z" transform="translate(-1181.842 -493.4)"/><path class="a" d="M1515.966,841.336a1.776,1.776,0,0,1,0-3.55c94.875,0,172.063-80.443,172.063-179.32s-77.187-179.322-172.063-179.322a1.776,1.776,0,0,1,0-3.55c96.754,0,175.468,82.036,175.468,182.871S1612.719,841.336,1515.966,841.336Z" transform="translate(-1358.649 -463.33)"/><circle class="a" cx="10.719" cy="10.719" r="10.719" transform="translate(144.738 370.459) rotate(-22.321)"/><circle class="a" cx="10.719" cy="10.719" r="10.719" transform="translate(144.756 8.08) rotate(-22.144)"/></g><g class="b" transform="translate(17.669 52.633)"><ellipse class="c" cx="141.412" cy="142.503" rx="141.412" ry="142.503" transform="translate(21.426 26.598)"/><ellipse class="d" cx="141.412" cy="142.503" rx="141.412" ry="142.503" transform="translate(20.602 25.575)"/><ellipse class="e" cx="141.412" cy="142.503" rx="141.412" ry="142.503" transform="translate(19.778 24.552)"/><ellipse class="f" cx="141.412" cy="142.503" rx="141.412" ry="142.503" transform="translate(18.954 23.529)"/><ellipse class="g" cx="141.412" cy="142.503" rx="141.412" ry="142.503" transform="translate(18.13 22.506)"/><ellipse class="h" cx="141.412" cy="142.503" rx="141.412" ry="142.503" transform="translate(17.306 21.483)"/><ellipse class="i" cx="141.412" cy="142.503" rx="141.412" ry="142.503" transform="translate(16.482 20.46)"/><ellipse class="j" cx="141.412" cy="142.503" rx="141.412" ry="142.503" transform="translate(15.658 19.437)"/><ellipse class="k" cx="141.412" cy="142.503" rx="141.412" ry="142.503" transform="translate(14.833 18.414)"/><ellipse class="l" cx="141.412" cy="142.503" rx="141.412" ry="142.503" transform="translate(14.009 17.391)"/><ellipse class="m" cx="141.412" cy="142.503" rx="141.412" ry="142.503" transform="translate(13.185 16.368)"/><ellipse class="n" cx="141.412" cy="142.503" rx="141.412" ry="142.503" transform="translate(12.361 15.345)"/><ellipse class="o" cx="141.412" cy="142.503" rx="141.412" ry="142.503" transform="translate(11.537 14.322)"/><ellipse class="p" cx="141.412" cy="142.503" rx="141.412" ry="142.503" transform="translate(10.713 13.299)"/><ellipse class="q" cx="141.412" cy="142.503" rx="141.412" ry="142.503" transform="translate(9.889 12.276)"/><ellipse class="r" cx="141.412" cy="142.503" rx="141.412" ry="142.503" transform="translate(9.065 11.253)"/><ellipse class="s" cx="141.412" cy="142.503" rx="141.412" ry="142.503" transform="translate(8.241 10.23)"/><ellipse class="t" cx="141.412" cy="142.503" rx="141.412" ry="142.503" transform="translate(7.417 9.207)"/><ellipse class="u" cx="141.412" cy="142.503" rx="141.412" ry="142.503" transform="translate(6.593 8.184)"/><ellipse class="v" cx="141.412" cy="142.503" rx="141.412" ry="142.503" transform="translate(5.769 7.161)"/><ellipse class="w" cx="141.412" cy="142.503" rx="141.412" ry="142.503" transform="translate(4.945 6.138)"/><ellipse class="x" cx="141.412" cy="142.503" rx="141.412" ry="142.503" transform="translate(4.12 5.115)"/><ellipse class="y" cx="141.412" cy="142.503" rx="141.412" ry="142.503" transform="translate(3.296 4.092)"/><ellipse class="z" cx="141.412" cy="142.503" rx="141.412" ry="142.503" transform="translate(2.472 3.069)"/><ellipse class="aa" cx="141.412" cy="142.503" rx="141.412" ry="142.503" transform="translate(1.648 2.046)"/><ellipse class="ab" cx="141.412" cy="142.503" rx="141.412" ry="142.503" transform="translate(0.824 1.023)"/><ellipse class="ac" cx="141.412" cy="142.503" rx="141.412" ry="142.503" transform="translate(0)"/></g><ellipse class="ad" cx="141.412" cy="142.503" rx="141.412" ry="142.503" transform="translate(17.669 52.633)"/></g><g transform="translate(1020.836 2411.565)"><g transform="translate(0 0)"><path class="ae" d="M2315.645,1819.555a157.531,157.531,0,0,1-112.488-46.893,160.833,160.833,0,0,1,0-226.421,158.363,158.363,0,0,1,224.975,0,160.831,160.831,0,0,1,0,226.421A157.531,157.531,0,0,1,2315.645,1819.555Z" transform="translate(-2156.564 -1466.403)"/><path class="ae" d="M2490.689,1812.183a1.776,1.776,0,0,1,0-3.548c94.875,0,172.062-80.413,172.062-179.254s-77.187-179.254-172.062-179.254a1.776,1.776,0,0,1,0-3.549c96.753,0,175.468,82.006,175.468,182.8S2587.443,1812.183,2490.689,1812.183Z" transform="translate(-2333.372 -1436.333)"/><circle class="ae" cx="10.718" cy="10.718" r="10.718" transform="translate(146.176 365.648) rotate(-10.901)"/><ellipse class="ae" cx="10.718" cy="10.718" rx="10.718" ry="10.718" transform="matrix(0.993, -0.122, 0.122, 0.993, 146.781, 2.619)"/></g><g class="b" transform="translate(17.669 50.612)"><ellipse class="c" cx="141.412" cy="142.435" rx="141.412" ry="142.435" transform="translate(21.426 26.598)"/><ellipse class="d" cx="141.412" cy="142.435" rx="141.412" ry="142.435" transform="translate(20.602 25.575)"/><ellipse class="e" cx="141.412" cy="142.435" rx="141.412" ry="142.435" transform="translate(19.778 24.552)"/><ellipse class="f" cx="141.412" cy="142.435" rx="141.412" ry="142.435" transform="translate(18.954 23.529)"/><ellipse class="g" cx="141.412" cy="142.435" rx="141.412" ry="142.435" transform="translate(18.13 22.506)"/><ellipse class="h" cx="141.412" cy="142.435" rx="141.412" ry="142.435" transform="translate(17.306 21.483)"/><ellipse class="i" cx="141.412" cy="142.435" rx="141.412" ry="142.435" transform="translate(16.482 20.46)"/><ellipse class="j" cx="141.412" cy="142.435" rx="141.412" ry="142.435" transform="translate(15.657 19.437)"/><ellipse class="k" cx="141.412" cy="142.435" rx="141.412" ry="142.435" transform="translate(14.833 18.414)"/><ellipse class="l" cx="141.412" cy="142.435" rx="141.412" ry="142.435" transform="translate(14.009 17.391)"/><ellipse class="m" cx="141.412" cy="142.435" rx="141.412" ry="142.435" transform="translate(13.185 16.368)"/><ellipse class="n" cx="141.412" cy="142.435" rx="141.412" ry="142.435" transform="translate(12.361 15.345)"/><ellipse class="o" cx="141.412" cy="142.435" rx="141.412" ry="142.435" transform="translate(11.537 14.322)"/><ellipse class="p" cx="141.412" cy="142.435" rx="141.412" ry="142.435" transform="translate(10.713 13.299)"/><ellipse class="q" cx="141.412" cy="142.435" rx="141.412" ry="142.435" transform="translate(9.889 12.276)"/><ellipse class="r" cx="141.412" cy="142.435" rx="141.412" ry="142.435" transform="translate(9.065 11.253)"/><ellipse class="s" cx="141.412" cy="142.435" rx="141.412" ry="142.435" transform="translate(8.241 10.23)"/><ellipse class="t" cx="141.412" cy="142.435" rx="141.412" ry="142.435" transform="translate(7.417 9.207)"/><ellipse class="u" cx="141.412" cy="142.435" rx="141.412" ry="142.435" transform="translate(6.593 8.184)"/><ellipse class="v" cx="141.412" cy="142.435" rx="141.412" ry="142.435" transform="translate(5.769 7.161)"/><ellipse class="w" cx="141.412" cy="142.435" rx="141.412" ry="142.435" transform="translate(4.945 6.138)"/><ellipse class="x" cx="141.412" cy="142.435" rx="141.412" ry="142.435" transform="translate(4.12 5.115)"/><ellipse class="y" cx="141.412" cy="142.435" rx="141.412" ry="142.435" transform="translate(3.296 4.092)"/><ellipse class="z" cx="141.412" cy="142.435" rx="141.412" ry="142.435" transform="translate(2.472 3.069)"/><ellipse class="aa" cx="141.412" cy="142.435" rx="141.412" ry="142.435" transform="translate(1.648 2.046)"/><ellipse class="ab" cx="141.412" cy="142.435" rx="141.412" ry="142.435" transform="translate(0.824 1.023)"/><ellipse class="ac" cx="141.412" cy="142.435" rx="141.412" ry="142.435" transform="translate(0)"/></g><ellipse class="ad" cx="141.412" cy="142.435" rx="141.412" ry="142.435" transform="translate(17.669 50.612)"/></g><circle class="a" cx="36" cy="36" r="36" transform="translate(865 1983)"/><circle class="ae" cx="36" cy="36" r="36" transform="translate(1141 1983)"/><circle class="a" cx="36" cy="36" r="36" transform="translate(861.858 2403.7)"/><ellipse class="ae" cx="36.5" cy="36" rx="36.5" ry="36" transform="translate(1143.858 2403.7)"/><text class="af" transform="translate(900 2027)"><tspan x="-13.351" y="0">01</tspan></text><text class="ag" transform="translate(1176 2025)"><tspan x="-14.388" y="0">02</tspan></text><text class="af" transform="translate(896.858 2447.7)"><tspan x="-15.754" y="0">03</tspan></text><text class="af" transform="translate(1179.858 2447.7)"><tspan x="-16.011" y="0">04</tspan></text><text class="ah" transform="translate(900 2135)"><tspan x="-51.112" y="0">계획수립</tspan></text><text class="ah" transform="translate(1176 2135)"><tspan x="-51.112" y="0">과제발굴</tspan></text><text class="ah" transform="translate(895.858 2555.7)"><tspan x="-84.042" y="0">과제 숙성</tspan><tspan class="ai" y="0">∙</tspan><tspan y="0">확정</tspan></text><text class="ah" transform="translate(1178.858 2555.7)"><tspan x="-54.679" y="0">점검</tspan><tspan class="ai" y="0">∙</tspan><tspan y="0">평가</tspan></text><text class="aj" transform="translate(900 2199)"><tspan x="-63.825" y="0">기본방향 설정</tspan><tspan x="-46.909" y="35">(정기회의)</tspan></text><text class="aj" transform="translate(1175 2181)"><tspan x="-30.475" y="0">대국민</tspan><tspan x="-63.825" y="35">아이디어 공모</tspan><tspan x="-76.417" y="70">분류 및 1차 선정</tspan></text><text class="aj" transform="translate(893.858 2601.7)"><tspan x="-35.592" y="0">TF 구성</tspan><tspan x="-97.175" y="35">시민사회 제안의 숙의</tspan><tspan x="-66.987" y="70">최종 과제 선정</tspan></text><text class="aj" transform="translate(1178.858 2619.7)"><tspan x="-47.265" y="0">OGP IRM</tspan><tspan x="-73.887" y="35">평가보고서 발간</tspan></text><text class="ak" transform="translate(1178.858 2829.7)"><tspan x="-129.124" y="0">* IRM(Independent Reporting </tspan><tspan x="-125.932" y="29">Mechanism, 독립보고 메커니즘)</tspan><tspan x="-69.284" y="58">: OGP의 소속기구</tspan></text></g><rect class="al" width="720" height="909" transform="translate(0 43)"/></g></svg>