<svg xmlns="http://www.w3.org/2000/svg" width="68.639" height="56.93" viewBox="0 0 68.639 56.93"><defs><style>.a{fill:none;}.b{fill:#fff;}</style></defs><path class="a" d="M760.9,6126.585l5.938,6.064,2.085-2.042-7.476-7.636" transform="translate(-705.987 -6081.505)"/><path class="a" d="M357.539,5913.2l-5.983-6.109a1.082,1.082,0,0,1-.25-.4l-2.005-5.7a1.1,1.1,0,0,1,1.418-1.39l5.655,2.123a1.136,1.136,0,0,1,.4.261l7.859,8.026v-22.324H313.6v28.8c0,1.467.781,2.564,1.481,2.564h48.068a.7.7,0,0,0,.106-.008l-3.575-3.651Z" transform="translate(-311.385 -5873.94)"/><path class="a" d="M364.63,5792.4c0-1.467-.781-2.562-1.479-2.562H315.084c-.7,0-1.481,1.095-1.481,2.562v6.626H364.63Z" transform="translate(-311.385 -5787.622)"/><path class="a" d="M826.4,6201.071l-2.085,2.043,1.565,1.6a1.465,1.465,0,0,0,2.026.022,1.434,1.434,0,0,0,.059-2.064Z" transform="translate(-761.928 -6150.404)"/><path class="b" d="M362.379,5821.745l-9.088-9.282-2.146-2.19-.906-.926v-33.554c0-2.681-1.624-4.781-3.7-4.781H298.475c-2.075,0-3.7,2.1-3.7,4.781v37.766c0,2.681,1.624,4.782,3.7,4.782h48.068a3.085,3.085,0,0,0,1.747-.55l8.873,9.062a3.65,3.65,0,0,0,5.215-5.107Zm-65.385-45.953c0-1.468.781-2.562,1.481-2.562h48.068c.7,0,1.479,1.095,1.479,2.563v6.626H296.994Zm49.549,40.33H298.475c-.7,0-1.481-1.1-1.481-2.564v-28.8h51.027v22.324l-7.858-8.025a1.113,1.113,0,0,0-.4-.26l-5.655-2.125a1.1,1.1,0,0,0-1.418,1.39l2.005,5.7a1.07,1.07,0,0,0,.25.4l5.983,6.109,2.143,2.19,3.575,3.651A.7.7,0,0,1,346.543,5816.122Zm9.088,6.035-5.938-6.065-1.743-1.779L336.682,5802.8l-1.144-3.257,3.231,1.214,9.253,9.45,2.218,2.266,7.476,7.636Zm5.124,3.184a1.464,1.464,0,0,1-2.026-.021l-1.565-1.6,2.085-2.042,1.565,1.6A1.434,1.434,0,0,1,360.755,5825.341Z" transform="translate(-294.776 -5771.012)"/><path class="b" d="M414.072,5807.842a2.314,2.314,0,1,1-2.314-2.314,2.316,2.316,0,0,1,2.314,2.314Z" transform="translate(-395.934 -5801.462)"/><path class="b" d="M480.78,5807.842a2.314,2.314,0,1,1-2.312-2.314,2.314,2.314,0,0,1,2.312,2.314Z" transform="translate(-454.783 -5801.462)"/><path class="b" d="M347.364,5807.842a2.314,2.314,0,1,1-2.314-2.314,2.316,2.316,0,0,1,2.314,2.314Z" transform="translate(-337.086 -5801.462)"/><path class="b" d="M396.458,5937.027H357.769a1.172,1.172,0,0,1,0-2.339h38.689a1.172,1.172,0,0,1,0,2.339Z" transform="translate(-349.382 -5915.405)"/><path class="b" d="M381.4,6000.691H357.769a1.172,1.172,0,0,1,0-2.34H381.4a1.172,1.172,0,0,1,0,2.34Z" transform="translate(-349.382 -5971.568)"/><path class="b" d="M385.066,6064.354h-27.3a1.172,1.172,0,0,1,0-2.34h27.3a1.172,1.172,0,0,1,0,2.34Z" transform="translate(-349.382 -6027.729)"/><path class="b" d="M353.313,6208.116H298.8v-2.106h54.516v2.106Z" transform="translate(-298.324 -6154.76)"/></svg>