<svg xmlns="http://www.w3.org/2000/svg" width="720" height="909.35" viewBox="0 0 720 909.35"><defs><style>.a{fill:#0182cd;}.b{opacity:0.6;mix-blend-mode:multiply;isolation:isolate;}.ad,.af,.ag,.c{fill:#fff;}.c{opacity:0;}.d{fill:#f5f6f6;opacity:0.038;}.e{fill:#ebeeed;opacity:0.077;}.f{fill:#e2e5e4;opacity:0.115;}.g{fill:#d8dcdb;opacity:0.154;}.h{fill:#ced3d2;opacity:0.192;}.i{fill:#c4cbc9;opacity:0.231;}.j{fill:#bac2c0;opacity:0.269;}.k{fill:#b1b9b7;opacity:0.308;}.l{fill:#a7b0ae;opacity:0.346;}.m{fill:#9da8a5;opacity:0.385;}.n{fill:#939f9c;opacity:0.423;}.o{fill:#899693;opacity:0.462;}.p{fill:#808e8b;opacity:0.5;}.q{fill:#768582;opacity:0.538;}.r{fill:#6c7c79;opacity:0.577;}.s{fill:#627370;opacity:0.615;}.t{fill:#586b67;opacity:0.654;}.u{fill:#4e625e;opacity:0.692;}.v{fill:#455955;opacity:0.731;}.w{fill:#3b504c;opacity:0.769;}.x{fill:#314843;opacity:0.808;}.y{fill:#273f3a;opacity:0.846;}.z{fill:#1d3631;opacity:0.885;}.aa{fill:#142d28;opacity:0.923;}.ab{fill:#0a251f;opacity:0.962;}.ac{fill:#001c16;}.ae{fill:#00436f;}.af{font-size:27px;}.af,.ag{font-family:Rubik-Light, Rubik;font-weight:300;}.af,.ag,.ah,.ai,.aj,.ak,.al{letter-spacing:-0.025em;}.ag{font-size:25px;}.ah,.ai{fill:#333;font-family:MICEGothicBold, MICEGothic;}.ah{font-size:29px;}.ai{font-size:26px;}.aj,.ak{fill:#717171;}.aj{font-size:23px;}.aj,.ak,.al{font-family:MICEGothic;}.ak{font-size:20px;}.al{fill:#aaa;font-size:19px;}.am{fill:none;}</style></defs><g transform="translate(-1054 -6040)"><g transform="translate(1107.924 6056.676)"><g transform="translate(0 0)"><path class="a" d="M1340.923,848.709A157.5,157.5,0,0,1,1228.436,801.8a160.95,160.95,0,0,1,0-226.517,158.316,158.316,0,0,1,224.976,0,160.951,160.951,0,0,1,0,226.517A157.5,157.5,0,0,1,1340.923,848.709Z" transform="translate(-1181.842 -505.665)"/><path class="a" d="M1515.966,841.336a1.776,1.776,0,0,1,0-3.55c94.875,0,172.063-80.443,172.063-179.32s-77.187-179.322-172.063-179.322a1.776,1.776,0,0,1,0-3.55c96.754,0,175.468,82.036,175.468,182.871S1612.719,841.336,1515.966,841.336Z" transform="translate(-1358.649 -475.595)"/><circle class="a" cx="10.719" cy="10.719" r="10.719" transform="translate(144.738 358.194) rotate(-22.321)"/></g><g class="b" transform="translate(17.669 40.368)"><ellipse class="c" cx="141.412" cy="142.503" rx="141.412" ry="142.503" transform="translate(21.426 26.598)"/><ellipse class="d" cx="141.412" cy="142.503" rx="141.412" ry="142.503" transform="translate(20.602 25.575)"/><ellipse class="e" cx="141.412" cy="142.503" rx="141.412" ry="142.503" transform="translate(19.778 24.552)"/><ellipse class="f" cx="141.412" cy="142.503" rx="141.412" ry="142.503" transform="translate(18.954 23.529)"/><ellipse class="g" cx="141.412" cy="142.503" rx="141.412" ry="142.503" transform="translate(18.13 22.506)"/><ellipse class="h" cx="141.412" cy="142.503" rx="141.412" ry="142.503" transform="translate(17.306 21.483)"/><ellipse class="i" cx="141.412" cy="142.503" rx="141.412" ry="142.503" transform="translate(16.482 20.46)"/><ellipse class="j" cx="141.412" cy="142.503" rx="141.412" ry="142.503" transform="translate(15.658 19.437)"/><ellipse class="k" cx="141.412" cy="142.503" rx="141.412" ry="142.503" transform="translate(14.833 18.414)"/><ellipse class="l" cx="141.412" cy="142.503" rx="141.412" ry="142.503" transform="translate(14.009 17.391)"/><ellipse class="m" cx="141.412" cy="142.503" rx="141.412" ry="142.503" transform="translate(13.185 16.368)"/><ellipse class="n" cx="141.412" cy="142.503" rx="141.412" ry="142.503" transform="translate(12.361 15.345)"/><ellipse class="o" cx="141.412" cy="142.503" rx="141.412" ry="142.503" transform="translate(11.537 14.322)"/><ellipse class="p" cx="141.412" cy="142.503" rx="141.412" ry="142.503" transform="translate(10.713 13.299)"/><ellipse class="q" cx="141.412" cy="142.503" rx="141.412" ry="142.503" transform="translate(9.889 12.276)"/><ellipse class="r" cx="141.412" cy="142.503" rx="141.412" ry="142.503" transform="translate(9.065 11.253)"/><ellipse class="s" cx="141.412" cy="142.503" rx="141.412" ry="142.503" transform="translate(8.241 10.23)"/><ellipse class="t" cx="141.412" cy="142.503" rx="141.412" ry="142.503" transform="translate(7.417 9.207)"/><ellipse class="u" cx="141.412" cy="142.503" rx="141.412" ry="142.503" transform="translate(6.593 8.184)"/><ellipse class="v" cx="141.412" cy="142.503" rx="141.412" ry="142.503" transform="translate(5.769 7.161)"/><ellipse class="w" cx="141.412" cy="142.503" rx="141.412" ry="142.503" transform="translate(4.945 6.138)"/><ellipse class="x" cx="141.412" cy="142.503" rx="141.412" ry="142.503" transform="translate(4.12 5.115)"/><ellipse class="y" cx="141.412" cy="142.503" rx="141.412" ry="142.503" transform="translate(3.296 4.092)"/><ellipse class="z" cx="141.412" cy="142.503" rx="141.412" ry="142.503" transform="translate(2.472 3.069)"/><ellipse class="aa" cx="141.412" cy="142.503" rx="141.412" ry="142.503" transform="translate(1.648 2.046)"/><ellipse class="ab" cx="141.412" cy="142.503" rx="141.412" ry="142.503" transform="translate(0.824 1.023)"/><ellipse class="ac" cx="141.412" cy="142.503" rx="141.412" ry="142.503" transform="translate(0)"/></g><ellipse class="ad" cx="141.412" cy="142.503" rx="141.412" ry="142.503" transform="translate(17.669 40.368)"/></g><g transform="translate(1388.76 6047.865)"><g transform="translate(0 0)"><path class="ae" d="M2315.645,1819.555a157.531,157.531,0,0,1-112.488-46.893,160.833,160.833,0,0,1,0-226.421,158.363,158.363,0,0,1,224.975,0,160.831,160.831,0,0,1,0,226.421A157.531,157.531,0,0,1,2315.645,1819.555Z" transform="translate(-2156.564 -1466.403)"/><path class="ae" d="M2490.689,1812.183a1.776,1.776,0,0,1,0-3.548c94.875,0,172.062-80.413,172.062-179.254s-77.187-179.254-172.062-179.254a1.776,1.776,0,0,1,0-3.549c96.753,0,175.468,82.006,175.468,182.8S2587.443,1812.183,2490.689,1812.183Z" transform="translate(-2333.372 -1436.333)"/><circle class="ae" cx="10.718" cy="10.718" r="10.718" transform="translate(146.176 365.648) rotate(-10.901)"/><ellipse class="ae" cx="10.718" cy="10.718" rx="10.718" ry="10.718" transform="matrix(0.993, -0.122, 0.122, 0.993, 146.781, 2.619)"/></g><g class="b" transform="translate(17.669 50.612)"><ellipse class="c" cx="141.412" cy="142.435" rx="141.412" ry="142.435" transform="translate(21.426 26.598)"/><ellipse class="d" cx="141.412" cy="142.435" rx="141.412" ry="142.435" transform="translate(20.602 25.575)"/><ellipse class="e" cx="141.412" cy="142.435" rx="141.412" ry="142.435" transform="translate(19.778 24.552)"/><ellipse class="f" cx="141.412" cy="142.435" rx="141.412" ry="142.435" transform="translate(18.954 23.529)"/><ellipse class="g" cx="141.412" cy="142.435" rx="141.412" ry="142.435" transform="translate(18.13 22.506)"/><ellipse class="h" cx="141.412" cy="142.435" rx="141.412" ry="142.435" transform="translate(17.306 21.483)"/><ellipse class="i" cx="141.412" cy="142.435" rx="141.412" ry="142.435" transform="translate(16.482 20.46)"/><ellipse class="j" cx="141.412" cy="142.435" rx="141.412" ry="142.435" transform="translate(15.657 19.437)"/><ellipse class="k" cx="141.412" cy="142.435" rx="141.412" ry="142.435" transform="translate(14.833 18.414)"/><ellipse class="l" cx="141.412" cy="142.435" rx="141.412" ry="142.435" transform="translate(14.009 17.391)"/><ellipse class="m" cx="141.412" cy="142.435" rx="141.412" ry="142.435" transform="translate(13.185 16.368)"/><ellipse class="n" cx="141.412" cy="142.435" rx="141.412" ry="142.435" transform="translate(12.361 15.345)"/><ellipse class="o" cx="141.412" cy="142.435" rx="141.412" ry="142.435" transform="translate(11.537 14.322)"/><ellipse class="p" cx="141.412" cy="142.435" rx="141.412" ry="142.435" transform="translate(10.713 13.299)"/><ellipse class="q" cx="141.412" cy="142.435" rx="141.412" ry="142.435" transform="translate(9.889 12.276)"/><ellipse class="r" cx="141.412" cy="142.435" rx="141.412" ry="142.435" transform="translate(9.065 11.253)"/><ellipse class="s" cx="141.412" cy="142.435" rx="141.412" ry="142.435" transform="translate(8.241 10.23)"/><ellipse class="t" cx="141.412" cy="142.435" rx="141.412" ry="142.435" transform="translate(7.417 9.207)"/><ellipse class="u" cx="141.412" cy="142.435" rx="141.412" ry="142.435" transform="translate(6.593 8.184)"/><ellipse class="v" cx="141.412" cy="142.435" rx="141.412" ry="142.435" transform="translate(5.769 7.161)"/><ellipse class="w" cx="141.412" cy="142.435" rx="141.412" ry="142.435" transform="translate(4.945 6.138)"/><ellipse class="x" cx="141.412" cy="142.435" rx="141.412" ry="142.435" transform="translate(4.12 5.115)"/><ellipse class="y" cx="141.412" cy="142.435" rx="141.412" ry="142.435" transform="translate(3.296 4.092)"/><ellipse class="z" cx="141.412" cy="142.435" rx="141.412" ry="142.435" transform="translate(2.472 3.069)"/><ellipse class="aa" cx="141.412" cy="142.435" rx="141.412" ry="142.435" transform="translate(1.648 2.046)"/><ellipse class="ab" cx="141.412" cy="142.435" rx="141.412" ry="142.435" transform="translate(0.824 1.023)"/><ellipse class="ac" cx="141.412" cy="142.435" rx="141.412" ry="142.435" transform="translate(0)"/></g><ellipse class="ad" cx="141.412" cy="142.435" rx="141.412" ry="142.435" transform="translate(17.669 50.612)"/></g><g transform="translate(1106.453 6465.111)"><g transform="translate(0 0)"><path class="a" d="M1340.923,848.709A157.5,157.5,0,0,1,1228.436,801.8a160.95,160.95,0,0,1,0-226.517,158.316,158.316,0,0,1,224.976,0,160.951,160.951,0,0,1,0,226.517A157.5,157.5,0,0,1,1340.923,848.709Z" transform="translate(-1181.842 -493.4)"/><path class="a" d="M1515.966,841.336a1.776,1.776,0,0,1,0-3.55c94.875,0,172.063-80.443,172.063-179.32s-77.187-179.322-172.063-179.322a1.776,1.776,0,0,1,0-3.55c96.754,0,175.468,82.036,175.468,182.871S1612.719,841.336,1515.966,841.336Z" transform="translate(-1358.649 -463.33)"/><circle class="a" cx="10.719" cy="10.719" r="10.719" transform="translate(144.738 370.459) rotate(-22.321)"/><circle class="a" cx="10.719" cy="10.719" r="10.719" transform="translate(144.756 8.08) rotate(-22.144)"/></g><g class="b" transform="translate(17.669 52.633)"><ellipse class="c" cx="141.412" cy="142.503" rx="141.412" ry="142.503" transform="translate(21.426 26.598)"/><ellipse class="d" cx="141.412" cy="142.503" rx="141.412" ry="142.503" transform="translate(20.602 25.575)"/><ellipse class="e" cx="141.412" cy="142.503" rx="141.412" ry="142.503" transform="translate(19.778 24.552)"/><ellipse class="f" cx="141.412" cy="142.503" rx="141.412" ry="142.503" transform="translate(18.954 23.529)"/><ellipse class="g" cx="141.412" cy="142.503" rx="141.412" ry="142.503" transform="translate(18.13 22.506)"/><ellipse class="h" cx="141.412" cy="142.503" rx="141.412" ry="142.503" transform="translate(17.306 21.483)"/><ellipse class="i" cx="141.412" cy="142.503" rx="141.412" ry="142.503" transform="translate(16.482 20.46)"/><ellipse class="j" cx="141.412" cy="142.503" rx="141.412" ry="142.503" transform="translate(15.658 19.437)"/><ellipse class="k" cx="141.412" cy="142.503" rx="141.412" ry="142.503" transform="translate(14.833 18.414)"/><ellipse class="l" cx="141.412" cy="142.503" rx="141.412" ry="142.503" transform="translate(14.009 17.391)"/><ellipse class="m" cx="141.412" cy="142.503" rx="141.412" ry="142.503" transform="translate(13.185 16.368)"/><ellipse class="n" cx="141.412" cy="142.503" rx="141.412" ry="142.503" transform="translate(12.361 15.345)"/><ellipse class="o" cx="141.412" cy="142.503" rx="141.412" ry="142.503" transform="translate(11.537 14.322)"/><ellipse class="p" cx="141.412" cy="142.503" rx="141.412" ry="142.503" transform="translate(10.713 13.299)"/><ellipse class="q" cx="141.412" cy="142.503" rx="141.412" ry="142.503" transform="translate(9.889 12.276)"/><ellipse class="r" cx="141.412" cy="142.503" rx="141.412" ry="142.503" transform="translate(9.065 11.253)"/><ellipse class="s" cx="141.412" cy="142.503" rx="141.412" ry="142.503" transform="translate(8.241 10.23)"/><ellipse class="t" cx="141.412" cy="142.503" rx="141.412" ry="142.503" transform="translate(7.417 9.207)"/><ellipse class="u" cx="141.412" cy="142.503" rx="141.412" ry="142.503" transform="translate(6.593 8.184)"/><ellipse class="v" cx="141.412" cy="142.503" rx="141.412" ry="142.503" transform="translate(5.769 7.161)"/><ellipse class="w" cx="141.412" cy="142.503" rx="141.412" ry="142.503" transform="translate(4.945 6.138)"/><ellipse class="x" cx="141.412" cy="142.503" rx="141.412" ry="142.503" transform="translate(4.12 5.115)"/><ellipse class="y" cx="141.412" cy="142.503" rx="141.412" ry="142.503" transform="translate(3.296 4.092)"/><ellipse class="z" cx="141.412" cy="142.503" rx="141.412" ry="142.503" transform="translate(2.472 3.069)"/><ellipse class="aa" cx="141.412" cy="142.503" rx="141.412" ry="142.503" transform="translate(1.648 2.046)"/><ellipse class="ab" cx="141.412" cy="142.503" rx="141.412" ry="142.503" transform="translate(0.824 1.023)"/><ellipse class="ac" cx="141.412" cy="142.503" rx="141.412" ry="142.503" transform="translate(0)"/></g><ellipse class="ad" cx="141.412" cy="142.503" rx="141.412" ry="142.503" transform="translate(17.669 52.633)"/></g><g transform="translate(1388.76 6468.566)"><g transform="translate(0 0)"><path class="ae" d="M2315.645,1819.555a157.531,157.531,0,0,1-112.488-46.893,160.833,160.833,0,0,1,0-226.421,158.363,158.363,0,0,1,224.975,0,160.831,160.831,0,0,1,0,226.421A157.531,157.531,0,0,1,2315.645,1819.555Z" transform="translate(-2156.564 -1466.403)"/><path class="ae" d="M2490.689,1812.183a1.776,1.776,0,0,1,0-3.548c94.875,0,172.062-80.413,172.062-179.254s-77.187-179.254-172.062-179.254a1.776,1.776,0,0,1,0-3.549c96.753,0,175.468,82.006,175.468,182.8S2587.443,1812.183,2490.689,1812.183Z" transform="translate(-2333.372 -1436.333)"/><circle class="ae" cx="10.718" cy="10.718" r="10.718" transform="translate(146.176 365.648) rotate(-10.901)"/><ellipse class="ae" cx="10.718" cy="10.718" rx="10.718" ry="10.718" transform="matrix(0.993, -0.122, 0.122, 0.993, 146.781, 2.619)"/></g><g class="b" transform="translate(17.669 50.612)"><ellipse class="c" cx="141.412" cy="142.435" rx="141.412" ry="142.435" transform="translate(21.426 26.598)"/><ellipse class="d" cx="141.412" cy="142.435" rx="141.412" ry="142.435" transform="translate(20.602 25.575)"/><ellipse class="e" cx="141.412" cy="142.435" rx="141.412" ry="142.435" transform="translate(19.778 24.552)"/><ellipse class="f" cx="141.412" cy="142.435" rx="141.412" ry="142.435" transform="translate(18.954 23.529)"/><ellipse class="g" cx="141.412" cy="142.435" rx="141.412" ry="142.435" transform="translate(18.13 22.506)"/><ellipse class="h" cx="141.412" cy="142.435" rx="141.412" ry="142.435" transform="translate(17.306 21.483)"/><ellipse class="i" cx="141.412" cy="142.435" rx="141.412" ry="142.435" transform="translate(16.482 20.46)"/><ellipse class="j" cx="141.412" cy="142.435" rx="141.412" ry="142.435" transform="translate(15.657 19.437)"/><ellipse class="k" cx="141.412" cy="142.435" rx="141.412" ry="142.435" transform="translate(14.833 18.414)"/><ellipse class="l" cx="141.412" cy="142.435" rx="141.412" ry="142.435" transform="translate(14.009 17.391)"/><ellipse class="m" cx="141.412" cy="142.435" rx="141.412" ry="142.435" transform="translate(13.185 16.368)"/><ellipse class="n" cx="141.412" cy="142.435" rx="141.412" ry="142.435" transform="translate(12.361 15.345)"/><ellipse class="o" cx="141.412" cy="142.435" rx="141.412" ry="142.435" transform="translate(11.537 14.322)"/><ellipse class="p" cx="141.412" cy="142.435" rx="141.412" ry="142.435" transform="translate(10.713 13.299)"/><ellipse class="q" cx="141.412" cy="142.435" rx="141.412" ry="142.435" transform="translate(9.889 12.276)"/><ellipse class="r" cx="141.412" cy="142.435" rx="141.412" ry="142.435" transform="translate(9.065 11.253)"/><ellipse class="s" cx="141.412" cy="142.435" rx="141.412" ry="142.435" transform="translate(8.241 10.23)"/><ellipse class="t" cx="141.412" cy="142.435" rx="141.412" ry="142.435" transform="translate(7.417 9.207)"/><ellipse class="u" cx="141.412" cy="142.435" rx="141.412" ry="142.435" transform="translate(6.593 8.184)"/><ellipse class="v" cx="141.412" cy="142.435" rx="141.412" ry="142.435" transform="translate(5.769 7.161)"/><ellipse class="w" cx="141.412" cy="142.435" rx="141.412" ry="142.435" transform="translate(4.945 6.138)"/><ellipse class="x" cx="141.412" cy="142.435" rx="141.412" ry="142.435" transform="translate(4.12 5.115)"/><ellipse class="y" cx="141.412" cy="142.435" rx="141.412" ry="142.435" transform="translate(3.296 4.092)"/><ellipse class="z" cx="141.412" cy="142.435" rx="141.412" ry="142.435" transform="translate(2.472 3.069)"/><ellipse class="aa" cx="141.412" cy="142.435" rx="141.412" ry="142.435" transform="translate(1.648 2.046)"/><ellipse class="ab" cx="141.412" cy="142.435" rx="141.412" ry="142.435" transform="translate(0.824 1.023)"/><ellipse class="ac" cx="141.412" cy="142.435" rx="141.412" ry="142.435" transform="translate(0)"/></g><ellipse class="ad" cx="141.412" cy="142.435" rx="141.412" ry="142.435" transform="translate(17.669 50.612)"/></g><circle class="a" cx="36" cy="36" r="36" transform="translate(1232.924 6040)"/><circle class="ae" cx="36" cy="36" r="36" transform="translate(1508.924 6040)"/><circle class="a" cx="36" cy="36" r="36" transform="translate(1229.782 6460.699)"/><ellipse class="ae" cx="36.5" cy="36" rx="36.5" ry="36" transform="translate(1511.782 6460.699)"/><text class="af" transform="translate(1267.924 6084)"><tspan x="-13.351" y="0">01</tspan></text><text class="ag" transform="translate(1543.924 6082)"><tspan x="-14.388" y="0">02</tspan></text><text class="af" transform="translate(1264.782 6504.699)"><tspan x="-15.754" y="0">03</tspan></text><text class="af" transform="translate(1547.782 6504.699)"><tspan x="-16.011" y="0">04</tspan></text><text class="ah" transform="translate(1267.924 6206)"><tspan x="-58.391" y="0">Planning</tspan></text><text class="ah" transform="translate(1543.924 6178.783)"><tspan x="-88.247" y="0">Identification</tspan><tspan x="-107.039" y="32">of commitments</tspan></text><text class="ai" transform="translate(1263.782 6588.699)"><tspan x="-105.43" y="0">Development and</tspan><tspan x="-81.666" y="32">finalization of</tspan><tspan x="-80.067" y="64">commitments</tspan></text><text class="ah" transform="translate(1546.782 6612.699)"><tspan x="-86.84" y="0">Tracking and</tspan><tspan x="-75.356" y="32">assessment</tspan></text><text class="aj" transform="translate(1267.924 6256)"><tspan x="-116.909" y="0">basic direction setting</tspan><tspan x="-95.542" y="32">(regular meetings)</tspan></text><text class="aj" transform="translate(1542.924 6249)"><tspan x="-132.515" y="0">A public call for proposal</tspan></text><text class="aj" transform="translate(1542.924 6280)"><tspan x="-127.063" y="0">Review of the submitted</tspan><tspan x="-97.923" y="28">proposals and first</tspan><tspan x="-81.006" y="56">round selection</tspan></text><text class="ak" transform="translate(1261.782 6685.416)"><tspan x="-51.34" y="0">TF creation</tspan></text><text class="ak" transform="translate(1261.782 6719.916)"><tspan x="-124.93" y="0">Deliberation on civil society</tspan><tspan x="-98.44" y="24">suggestions made by</tspan><tspan x="-52.06" y="48">civil society</tspan></text><text class="aj" transform="translate(1546.782 6686.916)"><tspan x="-118.622" y="0">Publishing of OGP IRM</tspan><tspan x="-94.921" y="32">assessment report</tspan></text><text class="al" transform="translate(1546.782 6886.699)"><tspan x="-181.802" y="0">* IRM(Independent Reporting Mechanism)</tspan><tspan x="-136.753" y="29">: an accountability arm of OGP</tspan></text><rect class="am" width="720" height="909" transform="translate(1054 6040.35)"/></g></svg>