<svg xmlns="http://www.w3.org/2000/svg" width="209" height="70" viewBox="0 0 209 70"><defs><style>.a{fill:#040505;}.b{fill:#e82418;}.c{fill:#fff;}.d{fill:#1f56a4;}.e{fill:#298836;}.f{fill:#ffea56;}.g{fill:#ec5026;}.h{fill:#191717;}.i{fill:#005488;}.j{fill:#f9830e;}.k{fill:#bc231c;}.l{fill:#072a51;}.m{fill:#277ec3;}.n{fill:#0c5454;}.o{fill:#dc000c;}.p{fill:#003f88;}</style></defs><g transform="translate(-325 -30)"><g transform="translate(365.708 -67.699)"><rect class="a" width="70" height="58.839" transform="translate(98.293 97.699)"/><rect class="b" width="2.804" height="11.301" transform="translate(98.293 156.397)"/><rect class="c" width="2.804" height="11.301" transform="translate(101.096 156.397)"/><rect class="d" width="2.804" height="11.301" transform="translate(103.9 156.397)"/><rect class="e" width="2.804" height="11.301" transform="translate(106.703 156.397)"/><rect class="f" width="2.804" height="11.301" transform="translate(109.507 156.397)"/><rect class="g" width="2.804" height="11.301" transform="translate(112.292 156.397)"/><rect class="h" width="2.804" height="11.301" transform="translate(115.092 156.397)"/><rect class="e" width="2.804" height="11.301" transform="translate(117.892 156.397)"/><rect class="b" width="2.804" height="11.301" transform="translate(120.691 156.397)"/><rect class="c" width="2.804" height="11.301" transform="translate(123.491 156.397)"/><rect class="i" width="2.804" height="11.301" transform="translate(126.291 156.397)"/><rect class="f" width="2.804" height="11.301" transform="translate(129.091 156.397)"/><rect class="h" width="2.804" height="11.301" transform="translate(131.891 156.397)"/><rect class="j" width="2.804" height="11.301" transform="translate(134.691 156.397)"/><rect class="c" width="2.804" height="11.301" transform="translate(137.49 156.397)"/><rect class="k" width="2.804" height="11.301" transform="translate(140.29 156.397)"/><rect class="l" width="2.804" height="11.301" transform="translate(143.09 156.397)"/><rect class="e" width="2.804" height="11.301" transform="translate(145.89 156.397)"/><rect class="f" width="2.804" height="11.301" transform="translate(148.69 156.397)"/><rect class="i" width="2.804" height="11.301" transform="translate(151.49 156.397)"/><rect class="b" width="2.804" height="11.301" transform="translate(154.29 156.397)"/><rect class="m" width="2.804" height="11.301" transform="translate(157.078 156.397)"/><rect class="j" width="2.804" height="11.301" transform="translate(159.882 156.397)"/><rect class="c" width="2.804" height="11.301" transform="translate(162.685 156.397)"/><rect class="n" width="2.804" height="11.301" transform="translate(165.489 156.397)"/><g transform="translate(103.756 114.644)"><path class="c" d="M149.8,244.007a4.407,4.407,0,0,1,3.163,1.2,3.989,3.989,0,0,1,1.263,3.015,3.926,3.926,0,0,1-1.275,3,4.533,4.533,0,0,1-3.216,1.188,4.274,4.274,0,0,1-3.087-1.188,3.96,3.96,0,0,1-1.234-2.977,4.049,4.049,0,0,1,1.243-3.039A4.336,4.336,0,0,1,149.8,244.007Zm.047,1.115a3.181,3.181,0,0,0-2.312.88,3,3,0,0,0-.906,2.247,2.943,2.943,0,0,0,.909,2.206,3.373,3.373,0,0,0,4.563-.018,3,3,0,0,0,.917-2.235,2.931,2.931,0,0,0-.917-2.191A3.115,3.115,0,0,0,149.848,245.122Z" transform="translate(-145.416 -244.007)"/><path class="c" d="M229.93,277.307v-8.149H231.8a3.236,3.236,0,0,1,2.235.716,2.546,2.546,0,0,1,.8,2,2.755,2.755,0,0,1-.753,1.995,2.55,2.55,0,0,1-1.918.78,3.361,3.361,0,0,1-1.142-.229v2.886Zm1.846-7.151h-.755v3.321a2.226,2.226,0,0,0,1.03.252,1.586,1.586,0,0,0,1.226-.522,1.914,1.914,0,0,0,.477-1.344,1.884,1.884,0,0,0-.225-.933,1.365,1.365,0,0,0-.615-.59A2.747,2.747,0,0,0,231.776,270.155Z" transform="translate(-220.148 -266.242)"/><path class="c" d="M282.872,271.145h-3.8a1.761,1.761,0,0,0,.519,1.232,1.713,1.713,0,0,0,1.235.458,3.213,3.213,0,0,0,1.948-.657v1.044a3.566,3.566,0,0,1-.977.469,4.081,4.081,0,0,1-1.135.141,2.548,2.548,0,0,1-1.443-.37,2.687,2.687,0,0,1-.883-.994,3.039,3.039,0,0,1-.331-1.446,2.871,2.871,0,0,1,.7-2,2.332,2.332,0,0,1,1.813-.771,2.136,2.136,0,0,1,1.713.751,3,3,0,0,1,.639,2.012Zm-3.772-.64h2.716a1.492,1.492,0,0,0-.381-.986,1.225,1.225,0,0,0-.915-.346,1.317,1.317,0,0,0-.942.346A1.715,1.715,0,0,0,279.1,270.506Z" transform="translate(-262.662 -265.437)"/><path class="c" d="M328.745,268.353v.686a2.146,2.146,0,0,1,1.625-.792,1.79,1.79,0,0,1,.939.261,1.7,1.7,0,0,1,.66.716,3.421,3.421,0,0,1,.226,1.44v3.086h-1.068v-3.074a2.1,2.1,0,0,0-.252-1.182.965.965,0,0,0-.845-.355,1.538,1.538,0,0,0-1.285.757v3.854h-1.091v-5.4Z" transform="translate(-306.562 -265.437)"/><path class="c" d="M150.746,345.172H153.5v3.473a7.5,7.5,0,0,1-3,.657,4.458,4.458,0,0,1-3.253-1.188,3.933,3.933,0,0,1-1.217-2.931,4.076,4.076,0,0,1,1.261-3.056,4.366,4.366,0,0,1,3.162-1.22,5.605,5.605,0,0,1,1.314.15,10.779,10.779,0,0,1,1.572.549v1.2a5.766,5.766,0,0,0-2.91-.851,3.088,3.088,0,0,0-2.265.915,3.244,3.244,0,0,0,0,4.529,3.278,3.278,0,0,0,2.37.886,5.525,5.525,0,0,0,1.684-.323l.112-.035v-1.707h-1.578Z" transform="translate(-145.953 -329.673)"/><path class="c" d="M222.144,365.855a2.816,2.816,0,0,1,2.048.795,2.674,2.674,0,0,1,.815,2,2.539,2.539,0,0,1-.827,1.939,2.934,2.934,0,0,1-2.083.771,2.815,2.815,0,0,1-2.03-.783,2.766,2.766,0,0,1,.009-3.931A2.872,2.872,0,0,1,222.144,365.855Zm-.059.962a1.687,1.687,0,0,0-1.261.5,1.763,1.763,0,0,0-.493,1.285,1.684,1.684,0,0,0,.5,1.264,1.784,1.784,0,0,0,1.3.49,1.755,1.755,0,0,0,1.288-.5,1.836,1.836,0,0,0-.021-2.543A1.815,1.815,0,0,0,222.086,366.817Z" transform="translate(-210.692 -351.729)"/><path class="c" d="M273.813,365.957h1.158l-2.384,5.491h-.361l-2.441-5.491h1.169l1.457,3.321Z" transform="translate(-255.391 -351.819)"/><path class="c" d="M321.917,367.944h-3.8a1.762,1.762,0,0,0,.519,1.232,1.713,1.713,0,0,0,1.235.458,3.214,3.214,0,0,0,1.948-.657v1.044a3.564,3.564,0,0,1-.977.469,4.083,4.083,0,0,1-1.135.141,2.549,2.549,0,0,1-1.443-.37,2.689,2.689,0,0,1-.883-.995,3.04,3.04,0,0,1-.331-1.446,2.871,2.871,0,0,1,.7-2,2.331,2.331,0,0,1,1.813-.771,2.136,2.136,0,0,1,1.713.751,3,3,0,0,1,.639,2.012Zm-3.772-.639h2.716a1.491,1.491,0,0,0-.381-.986,1.225,1.225,0,0,0-.915-.346,1.316,1.316,0,0,0-.942.346A1.714,1.714,0,0,0,318.144,367.3Z" transform="translate(-297.188 -351.014)"/><path class="c" d="M368.582,365.152v1.238l.059-.094q.774-1.25,1.549-1.25a1.91,1.91,0,0,1,1.261.61l-.563.939a1.582,1.582,0,0,0-1.033-.528,1.106,1.106,0,0,0-.895.493,1.861,1.861,0,0,0-.378,1.167v2.822h-1.074v-5.4Z" transform="translate(-341.803 -351.014)"/><path class="c" d="M406.758,365.152v.686a2.146,2.146,0,0,1,1.625-.792,1.789,1.789,0,0,1,.939.261,1.7,1.7,0,0,1,.66.716,3.423,3.423,0,0,1,.226,1.44v3.086H409.14v-3.074a2.1,2.1,0,0,0-.252-1.182.964.964,0,0,0-.845-.355,1.539,1.539,0,0,0-1.285.757v3.854h-1.091v-5.4Z" transform="translate(-375.546 -351.014)"/><path class="c" d="M457.611,366.54v3.919h-1.074v-3a2.361,2.361,0,0,0-.24-1.252.94.94,0,0,0-.839-.355,1.257,1.257,0,0,0-.613.152,2.7,2.7,0,0,0-.637.54v3.919H453.14v-5.4h1.068v.71a2.324,2.324,0,0,1,1.6-.815,1.754,1.754,0,0,1,1.59.974,2.41,2.41,0,0,1,1.789-.986,1.649,1.649,0,0,1,1.294.575,2.592,2.592,0,0,1,.507,1.754v3.186h-1.068v-3.2a1.666,1.666,0,0,0-.276-1.033.941.941,0,0,0-.792-.358A1.639,1.639,0,0,0,457.611,366.54Z" transform="translate(-417.528 -350.924)"/><path class="c" d="M531.892,367.944h-3.8a1.762,1.762,0,0,0,.519,1.232,1.713,1.713,0,0,0,1.235.458,3.213,3.213,0,0,0,1.948-.657v1.044a3.562,3.562,0,0,1-.977.469,4.083,4.083,0,0,1-1.135.141,2.548,2.548,0,0,1-1.443-.37,2.688,2.688,0,0,1-.883-.995,3.039,3.039,0,0,1-.331-1.446,2.871,2.871,0,0,1,.7-2,2.332,2.332,0,0,1,1.813-.771,2.135,2.135,0,0,1,1.713.751,3,3,0,0,1,.64,2.012Zm-3.772-.639h2.716a1.491,1.491,0,0,0-.381-.986,1.226,1.226,0,0,0-.915-.346,1.316,1.316,0,0,0-.942.346A1.715,1.715,0,0,0,528.119,367.3Z" transform="translate(-482.861 -351.014)"/><path class="c" d="M577.766,365.152v.686a2.146,2.146,0,0,1,1.625-.792,1.79,1.79,0,0,1,.939.261,1.7,1.7,0,0,1,.66.716,3.424,3.424,0,0,1,.226,1.44v3.086h-1.068v-3.074a2.1,2.1,0,0,0-.252-1.182.965.965,0,0,0-.845-.355,1.538,1.538,0,0,0-1.285.757v3.854h-1.091v-5.4Z" transform="translate(-526.768 -351.014)"/><path class="c" d="M620.1,358.312l2.006-1.971v1.115h1.707v.962H622.1v2.642q0,.925.768.925a2.384,2.384,0,0,0,1.214-.381v1a2.7,2.7,0,0,1-1.343.346,1.78,1.78,0,0,1-1.22-.428,1.215,1.215,0,0,1-.252-.291,1.535,1.535,0,0,1-.167-.422,4.741,4.741,0,0,1-.067-.994v-2.394H620.1Z" transform="translate(-565.156 -343.318)"/><path class="c" d="M148,446.725v-8.208h2.6a2.678,2.678,0,0,1,1.872.634,2.184,2.184,0,0,1,.7,1.7,2.276,2.276,0,0,1-.358,1.267,2.045,2.045,0,0,1-.98.8,4.983,4.983,0,0,1-1.784.249h-.868v3.555Zm2.394-7.163h-1.214v2.564h1.285a1.628,1.628,0,0,0,1.1-.337,1.211,1.211,0,0,0,.387-.965Q151.951,439.561,150.391,439.561Z" transform="translate(-147.698 -415.967)"/><path class="c" d="M200.2,464.1V466.4q0,.276.188.276a1.291,1.291,0,0,0,.6-.288v.651a3.492,3.492,0,0,1-.584.32,1.268,1.268,0,0,1-.461.085q-.686,0-.81-.54a2.324,2.324,0,0,1-1.449.528,1.279,1.279,0,0,1-.939-.373,1.264,1.264,0,0,1-.375-.936,1.317,1.317,0,0,1,.367-.912,2.482,2.482,0,0,1,1.041-.637l1.367-.469v-.287a.861.861,0,0,0-.974-.974,2.346,2.346,0,0,0-1.7.9v-1.168a2.216,2.216,0,0,1,1.789-.733,2.065,2.065,0,0,1,1.4.458,1.437,1.437,0,0,1,.317.39,1.408,1.408,0,0,1,.179.487A7.21,7.21,0,0,1,200.2,464.1Zm-1.05,2.177v-1.6l-.716.276a2.418,2.418,0,0,0-.772.437.79.79,0,0,0-.012,1.094.755.755,0,0,0,.554.211A1.342,1.342,0,0,0,199.151,466.281Z" transform="translate(-190.468 -436.592)"/><path class="c" d="M243.959,461.952v1.238l.059-.094q.774-1.25,1.549-1.25a1.909,1.909,0,0,1,1.261.61l-.563.939a1.582,1.582,0,0,0-1.033-.528,1.106,1.106,0,0,0-.895.493,1.861,1.861,0,0,0-.378,1.167v2.822h-1.074v-5.4Z" transform="translate(-231.604 -436.592)"/><path class="c" d="M278.866,455.113l2.006-1.971v1.115h1.707v.962h-1.707v2.642q0,.925.769.926a2.384,2.384,0,0,0,1.214-.381v1a2.7,2.7,0,0,1-1.343.346,1.78,1.78,0,0,1-1.22-.428,1.213,1.213,0,0,1-.252-.291,1.535,1.535,0,0,1-.167-.422,4.735,4.735,0,0,1-.067-.994v-2.394h-.939Z" transform="translate(-263.42 -428.897)"/><path class="c" d="M320.8,461.952v.686a2.146,2.146,0,0,1,1.625-.792,1.79,1.79,0,0,1,.939.261,1.7,1.7,0,0,1,.66.716,3.424,3.424,0,0,1,.226,1.44v3.086h-1.068v-3.074a2.1,2.1,0,0,0-.252-1.182.965.965,0,0,0-.845-.355,1.538,1.538,0,0,0-1.285.757v3.854H319.7v-5.4Z" transform="translate(-299.532 -436.592)"/><path class="c" d="M370.168,464.744h-3.8a1.762,1.762,0,0,0,.519,1.232,1.713,1.713,0,0,0,1.235.458,3.214,3.214,0,0,0,1.948-.657v1.044a3.566,3.566,0,0,1-.977.469,4.081,4.081,0,0,1-1.135.141,2.548,2.548,0,0,1-1.443-.37,2.689,2.689,0,0,1-.883-.994,3.04,3.04,0,0,1-.331-1.446,2.871,2.871,0,0,1,.7-2,2.331,2.331,0,0,1,1.813-.772,2.136,2.136,0,0,1,1.713.751,3,3,0,0,1,.64,2.012ZM366.4,464.1h2.716a1.491,1.491,0,0,0-.381-.986,1.225,1.225,0,0,0-.915-.346,1.316,1.316,0,0,0-.942.346A1.716,1.716,0,0,0,366.4,464.1Z" transform="translate(-339.854 -436.592)"/><path class="c" d="M416.833,461.952v1.238l.059-.094q.775-1.25,1.549-1.25a1.909,1.909,0,0,1,1.261.61l-.563.939a1.582,1.582,0,0,0-1.033-.528,1.107,1.107,0,0,0-.895.493,1.861,1.861,0,0,0-.378,1.167v2.822h-1.074v-5.4Z" transform="translate(-384.469 -436.592)"/><path class="c" d="M453.916,466.962v-1.15a4.863,4.863,0,0,0,.924.513,2.154,2.154,0,0,0,.795.2.994.994,0,0,0,.575-.164.472.472,0,0,0,.24-.393.529.529,0,0,0-.155-.39,3.618,3.618,0,0,0-.672-.449,4.756,4.756,0,0,1-1.352-.983,1.41,1.41,0,0,1-.32-.889,1.248,1.248,0,0,1,.484-1.015,1.915,1.915,0,0,1,1.247-.393,3.435,3.435,0,0,1,1.625.446v1.056a3.251,3.251,0,0,0-1.555-.575.864.864,0,0,0-.5.132.406.406,0,0,0-.191.349.5.5,0,0,0,.173.358,2.945,2.945,0,0,0,.607.411l.381.217q1.35.763,1.35,1.689a1.345,1.345,0,0,1-.519,1.088,2.039,2.039,0,0,1-1.335.425,3.256,3.256,0,0,1-.856-.1A5.751,5.751,0,0,1,453.916,466.962Z" transform="translate(-418.209 -436.592)"/><path class="c" d="M493.8,438.618h1.068v3.508a2.066,2.066,0,0,1,1.66-.816,1.779,1.779,0,0,1,.968.27,1.635,1.635,0,0,1,.636.745,3.686,3.686,0,0,1,.208,1.414v3.074H497.27v-3.338a1.476,1.476,0,0,0-.29-.953.935.935,0,0,0-.766-.361,1.293,1.293,0,0,0-.663.182,3.011,3.011,0,0,0-.686.6v3.866H493.8Z" transform="translate(-453.475 -416.057)"/><path class="c" d="M543.761,443.172a.626.626,0,0,1,.452.182.6.6,0,0,1,.188.446.609.609,0,0,1-.188.446.616.616,0,0,1-.452.188.591.591,0,0,1-.434-.191.612.612,0,0,1-.188-.443.606.606,0,0,1,.188-.437A.592.592,0,0,1,543.761,443.172Zm-.528,2.27H544.3v5.4h-1.068Z" transform="translate(-497.102 -420.083)"/><path class="c" d="M563.788,470.906v-8.149h1.869a3.236,3.236,0,0,1,2.235.716,2.546,2.546,0,0,1,.8,2,2.755,2.755,0,0,1-.753,1.995,2.55,2.55,0,0,1-1.918.78,3.362,3.362,0,0,1-1.142-.229v2.886Zm1.847-7.152h-.755v3.321a2.23,2.23,0,0,0,1.03.252,1.586,1.586,0,0,0,1.226-.522,1.913,1.913,0,0,0,.477-1.343,1.886,1.886,0,0,0-.225-.933,1.367,1.367,0,0,0-.615-.59A2.746,2.746,0,0,0,565.635,463.754Z" transform="translate(-515.375 -437.397)"/></g></g><g transform="translate(146.848 -197.586)"><g transform="translate(204.372 246.235)"><path class="c" d="M292.048,369.442H281.327V358.721h10.721Zm-9.961-.76h9.2v-9.2h-9.2Z" transform="translate(-278.287 -340.262)"/><rect class="c" width="16.725" height="0.76" transform="translate(0.094 15.968)"/><path class="c" d="M276.927,356.661h-6.29v-.76h5.53v-4.6h.76Z" transform="translate(-270.636 -334.952)"/><path class="c" d="M313.907,356.661H307.6V351.3h.76v4.6h5.549Z" transform="translate(-297.087 -334.952)"/><path class="c" d="M308.358,390.3h-.76v-5.306h6.237v.76h-5.478Z" transform="translate(-297.087 -359.063)"/><path class="c" d="M277.164,390.3h-.76v-4.546h-5.436v-.76h6.2Z" transform="translate(-270.873 -359.063)"/><path class="c" d="M292.048,421.792H281.327V411.071h10.721Zm-9.961-.76h9.2v-9.2h-9.2Z" transform="translate(-278.287 -377.725)"/><rect class="c" width="16.725" height="0.76" transform="translate(0.094 30.855)"/><path class="c" d="M276.927,409.011h-6.29v-.76h5.53v-4.6h.76Z" transform="translate(-270.636 -372.415)"/><path class="c" d="M313.907,409.011H307.6v-5.36h.76v4.6h5.549Z" transform="translate(-297.087 -372.415)"/><path class="c" d="M308.358,444.129h-.76v-6.787h6.237v.76h-5.478Z" transform="translate(-297.087 -396.526)"/><path class="c" d="M277.164,444.129h-.76V438.1h-5.436v-.76h6.2Z" transform="translate(-270.873 -396.526)"/><path class="c" d="M292.048,317.092H281.327V306.371h10.721Zm-9.961-.76h9.2v-9.2h-9.2Z" transform="translate(-278.287 -302.799)"/><path class="c" d="M276.927,300.633h-6.29v-.76h5.53v-6.062h.76Z" transform="translate(-270.636 -293.812)"/><path class="c" d="M313.907,300.633H307.6v-6.822h.76v6.062h5.549Z" transform="translate(-297.087 -293.812)"/><path class="c" d="M308.358,337.948h-.76v-5.306h6.237v.76h-5.478Z" transform="translate(-297.087 -321.6)"/><path class="c" d="M277.164,337.948h-.76V333.4h-5.436v-.76h6.2Z" transform="translate(-270.873 -321.6)"/></g><g transform="translate(178.152 227.586)"><path class="c" d="M181.485,236.188a4,4,0,0,1-1.756-.352,2.47,2.47,0,0,1-1.123-1.087,4.269,4.269,0,0,1-.442-1.846q-.012-.525-.012-1.01t.012-1.01a4.076,4.076,0,0,1,.46-1.834,2.632,2.632,0,0,1,1.147-1.1,4.186,4.186,0,0,1,3.417,0,2.668,2.668,0,0,1,1.153,1.1,3.931,3.931,0,0,1,.454,1.834q.024.526.024,1.01t-.024,1.01a4.111,4.111,0,0,1-.436,1.846,2.5,2.5,0,0,1-1.129,1.087A3.974,3.974,0,0,1,181.485,236.188Zm0-1.016a2.074,2.074,0,0,0,1.487-.549,2.5,2.5,0,0,0,.627-1.78q.024-.538.024-.962t-.024-.95a2.967,2.967,0,0,0-.3-1.338,1.77,1.77,0,0,0-.747-.753,2.487,2.487,0,0,0-2.127,0,1.769,1.769,0,0,0-.747.753,3.064,3.064,0,0,0-.316,1.338q-.012.525-.012.95t.012.962a2.487,2.487,0,0,0,.633,1.78A2.1,2.1,0,0,0,181.485,235.173Z" transform="translate(-178.152 -227.586)"/><path class="c" d="M209.964,236.188a3.762,3.762,0,0,1-1.8-.394,2.7,2.7,0,0,1-1.123-1.111,3.892,3.892,0,0,1-.436-1.685q-.012-.526-.012-1.117t.012-1.129a3.85,3.85,0,0,1,.436-1.679,2.663,2.663,0,0,1,1.129-1.1,3.822,3.822,0,0,1,1.792-.388,4.061,4.061,0,0,1,1.458.239,3.22,3.22,0,0,1,1.021.6,2.634,2.634,0,0,1,.6.759,1.754,1.754,0,0,1,.209.693.194.194,0,0,1-.06.173.273.273,0,0,1-.191.066h-.7a.257.257,0,0,1-.173-.048.447.447,0,0,1-.1-.167,2,2,0,0,0-.352-.609,1.881,1.881,0,0,0-.657-.5,2.418,2.418,0,0,0-1.045-.2,2.229,2.229,0,0,0-1.535.514,2.3,2.3,0,0,0-.627,1.7q-.036,1.063,0,2.127a2.322,2.322,0,0,0,.633,1.715,2.217,2.217,0,0,0,1.529.52,2.567,2.567,0,0,0,1.129-.239,1.8,1.8,0,0,0,.782-.723,2.4,2.4,0,0,0,.287-1.236v-.5H210.37a.266.266,0,0,1-.2-.078.283.283,0,0,1-.078-.209V231.8a.283.283,0,0,1,.078-.209.267.267,0,0,1,.2-.078h2.7a.264.264,0,0,1,.2.078.3.3,0,0,1,.072.209v1.147a3.5,3.5,0,0,1-.4,1.709,2.749,2.749,0,0,1-1.165,1.129A3.868,3.868,0,0,1,209.964,236.188Z" transform="translate(-198.507 -227.586)"/><path class="c" d="M236.614,236.369a.262.262,0,0,1-.2-.078.28.28,0,0,1-.072-.2v-7.8a.3.3,0,0,1,.072-.209.263.263,0,0,1,.2-.078h3.035a3.787,3.787,0,0,1,1.535.287,2.219,2.219,0,0,1,1.01.854,2.605,2.605,0,0,1,.358,1.416,2.574,2.574,0,0,1-.358,1.41,2.233,2.233,0,0,1-1.01.848,3.787,3.787,0,0,1-1.535.286h-2.115v2.987a.268.268,0,0,1-.078.2.283.283,0,0,1-.209.078Zm.908-4.265h2.067a1.939,1.939,0,0,0,1.326-.394,1.456,1.456,0,0,0,.442-1.147,1.5,1.5,0,0,0-.43-1.147,1.9,1.9,0,0,0-1.338-.406h-2.067Z" transform="translate(-219.792 -227.887)"/><g transform="translate(26.599)"><path class="c" d="M275.451,236.188a3.764,3.764,0,0,1-1.8-.394,2.7,2.7,0,0,1-1.123-1.111,3.9,3.9,0,0,1-.436-1.685q-.012-.526-.012-1.117t.012-1.129a3.858,3.858,0,0,1,.436-1.679,2.666,2.666,0,0,1,1.129-1.1,3.822,3.822,0,0,1,1.792-.388,4.058,4.058,0,0,1,1.457.239,3.221,3.221,0,0,1,1.022.6,2.63,2.63,0,0,1,.6.759,1.753,1.753,0,0,1,.209.693.193.193,0,0,1-.06.173.272.272,0,0,1-.191.066h-.7a.255.255,0,0,1-.173-.048.44.44,0,0,1-.1-.167,2.006,2.006,0,0,0-.353-.609,1.882,1.882,0,0,0-.657-.5,2.42,2.42,0,0,0-1.045-.2,2.23,2.23,0,0,0-1.535.514,2.3,2.3,0,0,0-.627,1.7q-.036,1.063,0,2.127a2.322,2.322,0,0,0,.633,1.715,2.218,2.218,0,0,0,1.529.52,2.567,2.567,0,0,0,1.129-.239,1.8,1.8,0,0,0,.783-.723,2.4,2.4,0,0,0,.287-1.236v-.5h-1.792a.266.266,0,0,1-.2-.078.281.281,0,0,1-.078-.209V231.8a.281.281,0,0,1,.078-.209.267.267,0,0,1,.2-.078h2.7a.263.263,0,0,1,.2.078.3.3,0,0,1,.072.209v1.147a3.5,3.5,0,0,1-.4,1.709,2.752,2.752,0,0,1-1.165,1.129A3.869,3.869,0,0,1,275.451,236.188Z" transform="translate(-272.082 -227.586)"/><path class="c" d="M302.1,236.369a.263.263,0,0,1-.2-.078.279.279,0,0,1-.072-.2v-7.814a.28.28,0,0,1,.072-.2.264.264,0,0,1,.2-.078h.633a.266.266,0,0,1,.275.275v7.049h3.967a.268.268,0,0,1,.287.287v.478a.267.267,0,0,1-.078.2.283.283,0,0,1-.209.078Z" transform="translate(-293.368 -227.887)"/><path class="c" d="M327.258,236.188a4,4,0,0,1-1.756-.352,2.47,2.47,0,0,1-1.123-1.087,4.27,4.27,0,0,1-.442-1.846q-.012-.525-.012-1.01t.012-1.01a4.077,4.077,0,0,1,.46-1.834,2.632,2.632,0,0,1,1.147-1.1,4.186,4.186,0,0,1,3.417,0,2.669,2.669,0,0,1,1.153,1.1,3.93,3.93,0,0,1,.454,1.834q.024.526.024,1.01t-.024,1.01a4.112,4.112,0,0,1-.436,1.846A2.506,2.506,0,0,1,329,235.836,3.976,3.976,0,0,1,327.258,236.188Zm0-1.016a2.074,2.074,0,0,0,1.487-.549,2.5,2.5,0,0,0,.627-1.78q.024-.538.024-.962t-.024-.95a2.967,2.967,0,0,0-.3-1.338,1.771,1.771,0,0,0-.747-.753,2.486,2.486,0,0,0-2.127,0,1.771,1.771,0,0,0-.747.753,3.068,3.068,0,0,0-.316,1.338q-.012.525-.012.95t.012.962a2.485,2.485,0,0,0,.633,1.78A2.094,2.094,0,0,0,327.258,235.173Z" transform="translate(-309.182 -227.586)"/><path class="c" d="M353.777,236.369a.262.262,0,0,1-.2-.078.279.279,0,0,1-.072-.2v-7.8a.3.3,0,0,1,.072-.209.263.263,0,0,1,.2-.078h3.274a3.191,3.191,0,0,1,1.464.293,1.905,1.905,0,0,1,.836.795,2.34,2.34,0,0,1,.269,1.123,2.007,2.007,0,0,1-.162.842,1.772,1.772,0,0,1-.4.573,2.239,2.239,0,0,1-.466.341,2.227,2.227,0,0,1,.83.741,2.093,2.093,0,0,1,.365,1.242,2.487,2.487,0,0,1-.3,1.207,2.2,2.2,0,0,1-.89.878,2.951,2.951,0,0,1-1.452.328Zm.9-4.827h2.2a1.689,1.689,0,0,0,1.159-.352,1.225,1.225,0,0,0,.394-.962,1.134,1.134,0,0,0-.394-.932,1.794,1.794,0,0,0-1.159-.323h-2.2Zm0,3.859h2.318a1.6,1.6,0,0,0,1.183-.418,1.493,1.493,0,0,0,0-2.073,1.614,1.614,0,0,0-1.183-.412h-2.318Z" transform="translate(-330.348 -227.887)"/><path class="c" d="M378.655,236.369a.245.245,0,0,1-.239-.239.8.8,0,0,1,.012-.131l2.963-7.73a.485.485,0,0,1,.131-.191.377.377,0,0,1,.251-.072h.812a.378.378,0,0,1,.251.072.49.49,0,0,1,.131.191l2.951,7.73a.428.428,0,0,1,.024.131.245.245,0,0,1-.239.239h-.609a.271.271,0,0,1-.209-.072.447.447,0,0,1-.09-.131l-.657-1.7H380.22l-.657,1.7a.277.277,0,0,1-.084.131.292.292,0,0,1-.215.072Zm1.912-2.927h3.226l-1.613-4.241Z" transform="translate(-348.177 -227.887)"/><path class="c" d="M409.654,236.369a.263.263,0,0,1-.2-.078.28.28,0,0,1-.072-.2v-7.814a.28.28,0,0,1,.072-.2.264.264,0,0,1,.2-.078h.633a.266.266,0,0,1,.275.275v7.049h3.967a.268.268,0,0,1,.287.287v.478a.267.267,0,0,1-.078.2.283.283,0,0,1-.209.078Z" transform="translate(-370.335 -227.887)"/></g><g transform="translate(74.83)"><path class="c" d="M445.617,236.188a4.186,4.186,0,0,1-1.744-.323,2.71,2.71,0,0,1-1.081-.83,1.909,1.909,0,0,1-.4-1.069.24.24,0,0,1,.078-.173.254.254,0,0,1,.185-.077h.609a.292.292,0,0,1,.215.072.354.354,0,0,1,.1.167,1.479,1.479,0,0,0,.3.568,1.68,1.68,0,0,0,.651.466,2.749,2.749,0,0,0,1.093.185,2.519,2.519,0,0,0,1.511-.364,1.157,1.157,0,0,0,.484-.974.912.912,0,0,0-.257-.675,2.255,2.255,0,0,0-.783-.46q-.526-.2-1.362-.442a7.876,7.876,0,0,1-1.446-.55,2.157,2.157,0,0,1-.854-.74,2.061,2.061,0,0,1-.281-1.123,2,2,0,0,1,.347-1.153,2.357,2.357,0,0,1,1-.806,3.79,3.79,0,0,1,1.577-.3,3.874,3.874,0,0,1,1.3.2,2.776,2.776,0,0,1,.926.526,2.41,2.41,0,0,1,.561.7,1.752,1.752,0,0,1,.2.735.264.264,0,0,1-.06.161.227.227,0,0,1-.191.078h-.633a.366.366,0,0,1-.174-.048.309.309,0,0,1-.137-.179,1.209,1.209,0,0,0-.549-.824,2.123,2.123,0,0,0-1.242-.335,2.374,2.374,0,0,0-1.261.3,1.131,1.131,0,0,0-.257,1.607,1.846,1.846,0,0,0,.717.472,12.237,12.237,0,0,0,1.279.43,9.572,9.572,0,0,1,1.565.555,2.2,2.2,0,0,1,.9.729,1.964,1.964,0,0,1,.293,1.117,2.1,2.1,0,0,1-.394,1.284,2.459,2.459,0,0,1-1.105.812A4.559,4.559,0,0,1,445.617,236.188Z" transform="translate(-442.391 -227.586)"/><path class="c" d="M473.387,236.489a3.849,3.849,0,0,1-1.726-.358,2.477,2.477,0,0,1-1.111-1.093,4.039,4.039,0,0,1-.388-1.894v-4.851a.3.3,0,0,1,.072-.209.264.264,0,0,1,.2-.078h.609a.268.268,0,0,1,.287.287v4.875a2.394,2.394,0,0,0,.549,1.732,2.291,2.291,0,0,0,3.005,0,2.377,2.377,0,0,0,.555-1.732v-4.875a.283.283,0,0,1,.078-.209.268.268,0,0,1,.2-.078h.621a.268.268,0,0,1,.2.078.283.283,0,0,1,.078.209v4.851a4.043,4.043,0,0,1-.388,1.894,2.486,2.486,0,0,1-1.105,1.093A3.842,3.842,0,0,1,473.387,236.489Z" transform="translate(-462.264 -227.887)"/><path class="c" d="M500.139,236.369a.266.266,0,0,1-.275-.275v-7.8a.283.283,0,0,1,.078-.209.268.268,0,0,1,.2-.078h.6a.292.292,0,0,1,.215.072.517.517,0,0,1,.1.119l2.521,4.827,2.545-4.827a.569.569,0,0,1,.09-.119.271.271,0,0,1,.209-.072H507a.267.267,0,0,1,.287.287v7.8a.267.267,0,0,1-.078.2.283.283,0,0,1-.209.078h-.585a.266.266,0,0,1-.275-.275v-5.878l-2,3.895a.4.4,0,0,1-.144.185.411.411,0,0,1-.239.066h-.371a.38.38,0,0,1-.239-.066.533.533,0,0,1-.143-.185L501,230.216v5.878a.266.266,0,0,1-.275.275Z" transform="translate(-483.52 -227.887)"/><path class="c" d="M533.5,236.369a.265.265,0,0,1-.275-.275v-7.8a.283.283,0,0,1,.078-.209.268.268,0,0,1,.2-.078h.6a.292.292,0,0,1,.215.072.528.528,0,0,1,.1.119l2.521,4.827,2.545-4.827a.575.575,0,0,1,.09-.119.271.271,0,0,1,.209-.072h.585a.267.267,0,0,1,.287.287v7.8a.267.267,0,0,1-.078.2.283.283,0,0,1-.209.078h-.585a.266.266,0,0,1-.275-.275v-5.878l-2,3.895a.4.4,0,0,1-.143.185.412.412,0,0,1-.239.066h-.37a.379.379,0,0,1-.239-.066.533.533,0,0,1-.143-.185l-2.007-3.895v5.878a.265.265,0,0,1-.275.275Z" transform="translate(-507.392 -227.887)"/><path class="c" d="M566.854,236.369a.262.262,0,0,1-.2-.078.28.28,0,0,1-.072-.2v-7.814a.281.281,0,0,1,.072-.2.263.263,0,0,1,.2-.078h.633a.264.264,0,0,1,.2.078.281.281,0,0,1,.072.2v7.814a.28.28,0,0,1-.072.2.263.263,0,0,1-.2.078Z" transform="translate(-531.263 -227.887)"/><path class="c" d="M578.287,236.369a.266.266,0,0,1-.275-.275v-7.025h-2.294a.266.266,0,0,1-.275-.275v-.5a.281.281,0,0,1,.078-.209.268.268,0,0,1,.2-.078h5.759a.267.267,0,0,1,.287.287v.5a.267.267,0,0,1-.078.2.283.283,0,0,1-.209.078H579.2v7.025a.267.267,0,0,1-.078.2.283.283,0,0,1-.209.078Z" transform="translate(-537.607 -227.887)"/></g></g><path class="o" d="M282.916,308.407h-3.907V292.329a7.5,7.5,0,1,0-14.993,0v16.078h-3.907V292.329a11.4,11.4,0,1,1,22.808,0Z" transform="translate(-58.725 -38.236)"/><path class="p" d="M271.512,405.053a11.417,11.417,0,0,1-11.4-11.4V377.571h3.907v16.079a7.5,7.5,0,0,0,14.993,0V377.571h3.907v16.079A11.417,11.417,0,0,1,271.512,405.053Z" transform="translate(-58.725 -107.517)"/><g transform="translate(178.178 243.364)"><path class="c" d="M198.445,283.722h-7.39l-6.729,8.945v-8.945h-6.082v24.2h6.082v-8.945l6.729,8.945h7.39l-9.168-12.1Z" transform="translate(-178.245 -283.72)"/><path class="c" d="M369.809,307.916h6.515l-5.245-9.6a7.705,7.705,0,0,0-3.447-14.6l-.066,0H355.432v24.2h6.082v-8.789h3.5Zm-8.3-19.488h4.5a2.994,2.994,0,1,1,0,5.988h-4.5Z" transform="translate(-305.205 -283.716)"/><path class="c" d="M457.514,288.7v-4.981H439.531v24.2h17.984v-4.981h-11.9v-4.627h10.721V293.33H445.612V288.7Z" transform="translate(-365.457 -283.72)"/><path class="c" d="M529.036,307.92h6.208l-8.807-24.2h-7.21l-8.807,24.2h6.208l1.543-4.239h9.323Zm-9.052-9.22,2.848-7.826,2.848,7.826Z" transform="translate(-416.271 -283.72)"/><path class="c" d="M197.15,393.635c.167-1.107.772-8.827-8.805-8.827-10.227,0-9.649,8.827-9.649,8.827h6.064s.2-3.777,3.2-3.777,2.806,2.391,2.806,2.516.227,1.684-2.04,3.669-9.628,8.42-9.953,8.721a1.579,1.579,0,0,0-.515,1.015,1.5,1.5,0,0,0-.008.152v3.539h19.339v-4.981h-10.47c1.651-1.389,5.6-4.717,7.088-6.009A8.885,8.885,0,0,0,197.15,393.635Z" transform="translate(-178.245 -356.061)"/><path class="c" d="M372.746,393.635c.167-1.107.772-8.827-8.805-8.827-10.227,0-9.649,8.827-9.649,8.827h6.064s.2-3.777,3.2-3.777,2.806,2.391,2.806,2.516.227,1.684-2.04,3.669-9.628,8.42-9.953,8.721a1.579,1.579,0,0,0-.515,1.015,1.5,1.5,0,0,0-.008.152v3.539H373.18v-4.981H362.71c1.651-1.389,5.6-4.717,7.088-6.009A8.884,8.884,0,0,0,372.746,393.635Z" transform="translate(-304.062 -356.061)"/><path class="c" d="M447.32,386.41a.855.855,0,0,0-.528.185l0,0-7.259,5.451v6.428l6.926-5.2v17.34h6.082v-24.2Z" transform="translate(-365.447 -357.207)"/></g></g></g></svg>