<svg xmlns="http://www.w3.org/2000/svg" xmlns:xlink="http://www.w3.org/1999/xlink" width="337" height="312" viewBox="0 0 337 312"><defs><style>.a{fill:#0f2d58;}.b{opacity:0.15;clip-path:url(#a);}</style><clipPath id="a"><rect class="a" width="337" height="312"/></clipPath></defs><g class="b"><g transform="translate(-24.403)"><path d="M0,692.068V436.633H62v33.525H95.746V403.105H62v33.506H0V181.171C0,81.271,81.172,0,180.951,0S361.9,81.271,361.9,181.171v255.44h-62V403.105H265.857v67.052H299.9V436.633h62V692.068c0,99.9-81.174,181.177-180.951,181.177S0,791.969,0,692.068ZM147.319,806.316a119.08,119.08,0,0,0,66.971.087v-48.1H147.319Zm79.027-4.165a119.532,119.532,0,0,0,70.546-83.414H265.857v39.567H226.346Zm-91.084-.123V758.305H95.746V718.738H65.007A119.547,119.547,0,0,0,135.262,802.029Zm91.084-55.8H253.8v-27.5H226.346ZM107.805,706.669h39.514v39.564H214.29V706.669H253.8V639.615H214.29V600.053H147.319v39.562H107.805Zm0,39.564h27.457v-27.5H107.805Zm158.052-39.564h33.154a120.136,120.136,0,0,0,.889-14.6V639.615H265.857ZM62,692.068a120.038,120.038,0,0,0,.889,14.6H95.746V639.615H62ZM226.346,587.981h39.511v39.562H299.9V560.491H226.346Zm0,39.562H253.8v-27.49H226.346Zm-118.541,0h27.457v-27.49H107.805Zm-45.806,0H95.746V587.981h39.516v-27.49H62Zm85.319-39.562H214.29v-27.49H147.319Zm79.027-39.562H299.9v-66.19H265.857v39.562H226.346Zm-79.027,0H214.29V521.791H147.319Zm-85.319,0h73.262V521.791H95.746V482.229H62Zm164.347-38.7H253.8V482.229H226.346Zm-118.541-39.56h39.514v39.56H214.29v-39.56H253.8V403.105H214.29V363.543H147.319v39.562H107.805Zm0,39.56h27.457V482.229H107.805ZM226.346,351.472h39.511v39.562H299.9V323.979H226.346Zm0,39.562H253.8v-27.49H226.346Zm-118.541,0h27.457v-27.49H107.805Zm-45.806,0H95.746V351.472h39.516V323.979H62Zm85.319-39.562H214.29V323.979H147.319Zm79.027-39.564H299.9v-66.19H265.857v39.564H226.346Zm-79.027,0H214.29V285.282H147.319Zm-85.319,0h73.262V285.282H95.746V245.718H62Zm164.347-38.7H253.8V245.718H226.346ZM107.805,233.646h39.514v39.563H214.29V233.646H253.8V166.594H214.29v-39.56H147.319v39.56H107.805Zm0,39.563h27.457V245.718H107.805Zm158.052-39.562H299.9V181.171a120.155,120.155,0,0,0-.887-14.578H265.857ZM62,181.171v52.475H95.746V166.594H62.886A119.663,119.663,0,0,0,62,181.171ZM226.346,114.96h39.511v39.562H296.9a119.529,119.529,0,0,0-70.551-83.435Zm0,39.562H253.8V127.034H226.346Zm-118.541,0h27.457V127.034H107.805Zm-42.8,0H95.746V114.96h39.516V71.212A119.546,119.546,0,0,0,65,154.522Zm82.317-87.6V114.96H214.29V66.836a119.15,119.15,0,0,0-66.971.087Z"/></g></g></svg>