<svg xmlns="http://www.w3.org/2000/svg" xmlns:xlink="http://www.w3.org/1999/xlink" width="407.581" height="393.499" viewBox="0 0 407.581 393.499"><defs><style>.a{fill:#333;}.b{opacity:0.1;clip-path:url(#a);}.c{fill:#fff;stroke:rgba(0,0,0,0);stroke-miterlimit:10;}</style><clipPath id="a"><path class="a" d="M0,0H407.581V393.5H0Z" transform="translate(-39.58)"/></clipPath></defs><g class="b" transform="translate(39.58)"><path class="c" d="M0,778.474V491.147H69.826v37.711h38.008V453.433H69.826v37.69H0V203.79C0,91.418,91.418,0,203.79,0S407.581,91.418,407.581,203.79V491.122H337.754v-37.69H299.416v75.426h38.338V491.147h69.827V778.474c0,112.37-91.42,203.793-203.792,203.793S0,890.844,0,778.474ZM165.912,906.985a134.329,134.329,0,0,0,75.426.1v-54.1H165.912Zm89-4.685a134.5,134.5,0,0,0,79.453-93.828H299.416v44.506h-44.5Zm-102.581-.14V852.979h-44.5V808.473H73.21A134.527,134.527,0,0,0,152.334,902.161ZM254.916,839.4h30.923V808.473H254.916ZM121.412,794.9h44.5V839.4h75.426V794.9h44.5V719.47h-44.5v-44.5H165.912v44.5h-44.5Zm0,44.506h30.923V808.473H121.412Zm178-44.506h37.337a134.758,134.758,0,0,0,1-16.421v-59H299.416ZM69.826,778.474a134.856,134.856,0,0,0,1,16.421h37.008V719.47H69.826Zm185.09-117.083h44.5v44.5h38.338V630.469H254.916Zm0,44.5h30.923V674.969H254.916Zm-133.5,0h30.923V674.969H121.412Zm-51.586,0h38.008v-44.5h44.5V630.469H69.826Zm96.086-44.5h75.426V630.469H165.912Zm89-44.5h82.838V542.434H299.416v44.5h-44.5Zm-89,0h75.426V586.937H165.912Zm-96.086,0h82.509V586.937h-44.5v-44.5H69.826Zm185.09-43.532h30.923V542.434H254.916Zm-133.5-44.5h44.5v44.5h75.426v-44.5h44.5V453.433h-44.5v-44.5H165.912v44.5h-44.5Zm0,44.5h30.923V542.434H121.412Zm133.5-178h44.5v44.5h38.338V364.429H254.916Zm0,44.5h30.923V408.932H254.916Zm-133.5,0h30.923V408.932H121.412Zm-51.586,0h38.008v-44.5h44.5V364.429H69.826Zm96.086-44.5h75.426V364.429H165.912Zm89-44.5h82.838V276.4H299.416v44.5h-44.5Zm-89,0h75.426V320.9H165.912Zm-96.086,0h82.509V320.9h-44.5V276.4H69.826Zm185.09-43.532h30.923V276.4H254.916Zm-133.5-44.5h44.5v44.5h75.426v-44.5h44.5V187.394h-44.5v-44.5H165.912v44.5h-44.5Zm0,44.5h30.923V276.4H121.412Zm178-44.5h38.338V203.79a134.739,134.739,0,0,0-1-16.4H299.416ZM69.826,203.79v59.028h38.008V187.394H70.824A134.346,134.346,0,0,0,69.826,203.79Zm185.09-74.475h44.5v44.5h34.958a134.5,134.5,0,0,0-79.458-93.853Zm0,44.5h30.923V142.893H254.916Zm-133.5,0h30.923V142.893H121.412Zm-48.207,0h34.629v-44.5h44.5V80.1A134.526,134.526,0,0,0,73.205,173.816Zm92.707-98.539v54.038h75.426V75.18a134.332,134.332,0,0,0-75.426.1Z" transform="translate(-39 -588.769)"/></g></svg>