<svg xmlns="http://www.w3.org/2000/svg" xmlns:xlink="http://www.w3.org/1999/xlink" width="387.999" height="398.795" viewBox="0 0 387.999 398.795"><defs><style>.a{fill:#f5f5f5;}.b{opacity:0.5;clip-path:url(#a);}.c{fill:#fff;}</style><clipPath id="a"><path class="a" d="M0,0H388V398.795H0V0Z" transform="translate(1532.001 1997.205)"/></clipPath></defs><g class="b" transform="translate(-1532.001 -1997.205)"><g transform="translate(1532.001 1997.205)"><g transform="translate(57.637 67.773)"><path class="c" d="M720.782,658.984H514.412V460.713h206.37ZM529.033,644.931H706.156V474.766H529.033Z" transform="translate(-455.886 -119.331)"/><rect class="c" width="321.963" height="14.052" transform="translate(1.812 295.326)"/><path class="c" d="M624.807,552.428H503.721V538.376h106.46V453.292h14.626Z" transform="translate(-503.721 -150.94)"/><path class="c" d="M662.124,552.428H540.682V453.292h14.627v85.084H662.124Z" transform="translate(-338.349 -150.94)"/><path class="c" d="M555.308,585.116H540.682V486.983H660.753v14.052H555.308Z" transform="translate(-338.349 -7.437)"/><path class="c" d="M623.326,585.116H608.7v-84.08H504.052V486.983H623.326Z" transform="translate(-502.239 -7.437)"/><path class="c" d="M720.782,711.34H514.412V513.063h206.37ZM529.033,697.287H706.156V527.116H529.033Z" transform="translate(-455.886 103.645)"/><rect class="c" width="321.963" height="14.052" transform="translate(1.812 570.653)"/><path class="c" d="M624.807,604.778H503.721V590.726h106.46V505.642h14.626Z" transform="translate(-503.721 72.037)"/><path class="c" d="M662.124,604.778H540.682V505.642h14.627v85.084H662.124Z" transform="translate(-338.349 72.037)"/><path class="c" d="M555.308,664.851H540.682V539.334H660.753v14.052H555.308Z" transform="translate(-338.349 215.539)"/><path class="c" d="M623.326,664.851H608.7V553.386H504.052V539.334H623.326Z" transform="translate(-502.239 215.539)"/><path class="c" d="M720.782,606.635H514.412V408.363h206.37ZM529.033,592.582H706.156V422.416H529.033Z" transform="translate(-455.886 -342.307)"/><path class="c" d="M624.807,521.966H503.721V507.913h106.46V395.8h14.626Z" transform="translate(-503.721 -395.803)"/><path class="c" d="M662.124,521.966H540.682V395.8h14.627v112.11H662.124Z" transform="translate(-338.349 -395.803)"/><path class="c" d="M555.308,532.766H540.682V434.633H660.753v14.052H555.308Z" transform="translate(-338.349 -230.413)"/><path class="c" d="M623.326,532.766H608.7v-84.08H504.052V434.633H623.326Z" transform="translate(-502.239 -230.413)"/></g><path class="c" d="M932.237,891.184H857.022V593.821c0-76.45-64.738-138.641-144.3-138.641s-144.3,62.191-144.3,138.641V891.184H493.192V593.821c0-116.294,98.48-210.9,219.525-210.9s219.52,94.61,219.52,210.9Z" transform="translate(-493.192 -382.917)"/><path class="c" d="M712.717,987.83c-121.045,0-219.525-94.615-219.525-210.91V479.563h75.221V776.921c0,76.45,64.732,138.641,144.3,138.641s144.3-62.191,144.3-138.641V479.563h75.215V776.921C932.237,893.215,833.762,987.83,712.717,987.83Z" transform="translate(-493.192 28.731)"/></g></g></svg>