<svg xmlns="http://www.w3.org/2000/svg" width="86" height="86" viewBox="0 0 86 86">
  <g id="그룹_2084" data-name="그룹 2084" transform="translate(-670 -630)">
    <circle id="foto-sushi-6anudmpILw4-unsplash" cx="43" cy="43" r="43" transform="translate(670 630)"/>
    <g id="그룹_1730" data-name="그룹 1730" transform="translate(503.848 426.414)">
      <g id="그룹_751" data-name="그룹 751" transform="translate(192.396 237.717)">
        <path id="패스_1506" data-name="패스 1506" d="M287.151,364.545h-5.824v-5.824h5.824Zm-5.411-.413h5v-5h-5Z" transform="translate(-279.675 -348.693)" fill="#fff"/>
        <rect id="사각형_809" data-name="사각형 809" width="9.086" height="0.413" transform="translate(0.051 8.675)" fill="#fff"/>
        <path id="패스_1507" data-name="패스 1507" d="M274.054,354.212h-3.417V353.8h3v-2.5h.413Z" transform="translate(-270.636 -342.419)" fill="#fff"/>
        <path id="패스_1508" data-name="패스 1508" d="M311.025,354.212H307.6V351.3h.413v2.5h3.014Z" transform="translate(-301.888 -342.419)" fill="#fff"/>
        <path id="패스_1509" data-name="패스 1509" d="M308.011,387.874H307.6v-2.882h3.388v.413h-2.976Z" transform="translate(-301.888 -370.906)" fill="#fff"/>
        <path id="패스_1510" data-name="패스 1510" d="M274.333,387.874h-.413V385.4h-2.953v-.413h3.366Z" transform="translate(-270.916 -370.906)" fill="#fff"/>
        <path id="패스_1511" data-name="패스 1511" d="M287.151,416.9h-5.824v-5.824h5.824Zm-5.411-.413h5v-5h-5Z" transform="translate(-279.675 -392.956)" fill="#fff"/>
        <rect id="사각형_810" data-name="사각형 810" width="9.086" height="0.413" transform="translate(0.051 16.762)" fill="#fff"/>
        <path id="패스_1512" data-name="패스 1512" d="M274.054,406.562h-3.417v-.413h3v-2.5h.413Z" transform="translate(-270.636 -386.682)" fill="#fff"/>
        <path id="패스_1513" data-name="패스 1513" d="M311.025,406.562H307.6v-2.912h.413v2.5h3.014Z" transform="translate(-301.888 -386.682)" fill="#fff"/>
        <path id="패스_1514" data-name="패스 1514" d="M308.011,441.029H307.6v-3.687h3.388v.413h-2.976Z" transform="translate(-301.888 -415.169)" fill="#fff"/>
        <path id="패스_1515" data-name="패스 1515" d="M274.333,441.029h-.413v-3.274h-2.953v-.413h3.366Z" transform="translate(-270.916 -415.169)" fill="#fff"/>
        <path id="패스_1516" data-name="패스 1516" d="M287.151,312.195h-5.824v-5.824h5.824Zm-5.411-.413h5v-5h-5Z" transform="translate(-279.675 -304.431)" fill="#fff"/>
        <path id="패스_1517" data-name="패스 1517" d="M274.054,297.518h-3.417V297.1h3v-3.293h.413Z" transform="translate(-270.636 -293.812)" fill="#fff"/>
        <path id="패스_1518" data-name="패스 1518" d="M311.025,297.518H307.6v-3.706h.413V297.1h3.014Z" transform="translate(-301.888 -293.812)" fill="#fff"/>
        <path id="패스_1519" data-name="패스 1519" d="M308.011,335.524H307.6v-2.882h3.388v.413h-2.976Z" transform="translate(-301.888 -326.643)" fill="#fff"/>
        <path id="패스_1520" data-name="패스 1520" d="M274.333,335.524h-.413v-2.47h-2.953v-.413h3.366Z" transform="translate(-270.916 -326.643)" fill="#fff"/>
      </g>
      <g id="그룹_755" data-name="그룹 755" transform="translate(178.152 227.586)">
        <g id="그룹_752" data-name="그룹 752">
          <path id="패스_1521" data-name="패스 1521" d="M179.963,232.259a2.175,2.175,0,0,1-.954-.191,1.342,1.342,0,0,1-.61-.591,2.319,2.319,0,0,1-.24-1q-.006-.285-.006-.548t.006-.548a2.214,2.214,0,0,1,.25-1,1.43,1.43,0,0,1,.623-.6,2.274,2.274,0,0,1,1.856,0,1.449,1.449,0,0,1,.626.6,2.135,2.135,0,0,1,.247,1q.013.286.013.548t-.013.548a2.233,2.233,0,0,1-.237,1,1.36,1.36,0,0,1-.613.591A2.159,2.159,0,0,1,179.963,232.259Zm0-.552a1.127,1.127,0,0,0,.808-.3,1.36,1.36,0,0,0,.341-.967q.013-.292.013-.522t-.013-.516a1.611,1.611,0,0,0-.166-.727.962.962,0,0,0-.406-.409,1.351,1.351,0,0,0-1.155,0,.961.961,0,0,0-.406.409,1.664,1.664,0,0,0-.172.727q-.007.285-.006.516t.006.522a1.351,1.351,0,0,0,.344.967A1.138,1.138,0,0,0,179.963,231.707Z" transform="translate(-178.152 -227.586)" fill="#fff"/>
          <path id="패스_1522" data-name="패스 1522" d="M208.425,232.259a2.044,2.044,0,0,1-.977-.214,1.465,1.465,0,0,1-.61-.6,2.114,2.114,0,0,1-.237-.915q-.007-.286-.006-.607t.006-.613a2.091,2.091,0,0,1,.237-.912,1.447,1.447,0,0,1,.613-.6,2.077,2.077,0,0,1,.974-.211,2.206,2.206,0,0,1,.792.13,1.75,1.75,0,0,1,.555.328,1.431,1.431,0,0,1,.324.412.952.952,0,0,1,.114.376.105.105,0,0,1-.032.094.148.148,0,0,1-.1.036h-.383a.14.14,0,0,1-.094-.026.243.243,0,0,1-.055-.091,1.087,1.087,0,0,0-.191-.331,1.022,1.022,0,0,0-.357-.269,1.314,1.314,0,0,0-.568-.107,1.211,1.211,0,0,0-.834.279,1.248,1.248,0,0,0-.341.922q-.019.578,0,1.155a1.262,1.262,0,0,0,.344.931,1.2,1.2,0,0,0,.831.282,1.394,1.394,0,0,0,.613-.13.98.98,0,0,0,.425-.393,1.3,1.3,0,0,0,.156-.672v-.273h-.973a.145.145,0,0,1-.107-.042.154.154,0,0,1-.042-.114v-.208a.154.154,0,0,1,.042-.114.145.145,0,0,1,.107-.042h1.467a.143.143,0,0,1,.11.042.161.161,0,0,1,.039.114v.623a1.9,1.9,0,0,1-.218.928,1.494,1.494,0,0,1-.633.613A2.1,2.1,0,0,1,208.425,232.259Z" transform="translate(-202.201 -227.586)" fill="#fff"/>
          <path id="패스_1523" data-name="패스 1523" d="M236.488,232.549a.142.142,0,0,1-.11-.042.152.152,0,0,1-.039-.107v-4.238a.161.161,0,0,1,.039-.114.143.143,0,0,1,.11-.042h1.648a2.057,2.057,0,0,1,.834.156,1.206,1.206,0,0,1,.548.464,1.415,1.415,0,0,1,.195.769,1.4,1.4,0,0,1-.195.766,1.213,1.213,0,0,1-.548.461,2.058,2.058,0,0,1-.834.156h-1.149V232.4a.146.146,0,0,1-.042.107.154.154,0,0,1-.114.042Zm.493-2.317H238.1a1.053,1.053,0,0,0,.72-.214.791.791,0,0,0,.24-.623.816.816,0,0,0-.234-.623,1.03,1.03,0,0,0-.727-.221h-1.123Z" transform="translate(-227.35 -227.941)" fill="#fff"/>
        </g>
        <g id="그룹_753" data-name="그룹 753" transform="translate(14.45)">
          <path id="패스_1524" data-name="패스 1524" d="M273.912,232.259a2.044,2.044,0,0,1-.977-.214,1.466,1.466,0,0,1-.61-.6,2.119,2.119,0,0,1-.237-.915q-.007-.286-.006-.607t.006-.613a2.1,2.1,0,0,1,.237-.912,1.448,1.448,0,0,1,.613-.6,2.076,2.076,0,0,1,.974-.211,2.2,2.2,0,0,1,.792.13,1.75,1.75,0,0,1,.555.328,1.429,1.429,0,0,1,.325.412.952.952,0,0,1,.114.376.1.1,0,0,1-.032.094.148.148,0,0,1-.1.036h-.383a.139.139,0,0,1-.094-.026.239.239,0,0,1-.055-.091,1.09,1.09,0,0,0-.192-.331,1.022,1.022,0,0,0-.357-.269,1.315,1.315,0,0,0-.568-.107,1.211,1.211,0,0,0-.834.279,1.248,1.248,0,0,0-.341.922q-.02.578,0,1.155a1.262,1.262,0,0,0,.344.931,1.2,1.2,0,0,0,.831.282,1.394,1.394,0,0,0,.613-.13.98.98,0,0,0,.425-.393,1.3,1.3,0,0,0,.156-.672v-.273h-.974a.144.144,0,0,1-.107-.042.153.153,0,0,1-.042-.114v-.208a.153.153,0,0,1,.042-.114.145.145,0,0,1,.107-.042H275.6a.143.143,0,0,1,.11.042.161.161,0,0,1,.039.114v.623a1.9,1.9,0,0,1-.217.928,1.5,1.5,0,0,1-.633.613A2.1,2.1,0,0,1,273.912,232.259Z" transform="translate(-272.082 -227.586)" fill="#fff"/>
          <path id="패스_1525" data-name="패스 1525" d="M301.976,232.549a.143.143,0,0,1-.11-.042.152.152,0,0,1-.039-.107v-4.245a.152.152,0,0,1,.039-.107.143.143,0,0,1,.11-.042h.344a.144.144,0,0,1,.149.149v3.829h2.155a.145.145,0,0,1,.156.156v.26a.145.145,0,0,1-.042.107.154.154,0,0,1-.114.042Z" transform="translate(-297.232 -227.941)" fill="#fff"/>
          <path id="패스_1526" data-name="패스 1526" d="M325.736,232.259a2.175,2.175,0,0,1-.954-.191,1.342,1.342,0,0,1-.61-.591,2.32,2.32,0,0,1-.24-1q-.007-.285-.007-.548t.007-.548a2.215,2.215,0,0,1,.25-1,1.43,1.43,0,0,1,.623-.6,2.274,2.274,0,0,1,1.856,0,1.449,1.449,0,0,1,.626.6,2.135,2.135,0,0,1,.247,1q.013.286.013.548t-.013.548a2.234,2.234,0,0,1-.237,1,1.361,1.361,0,0,1-.613.591A2.16,2.16,0,0,1,325.736,232.259Zm0-.552a1.126,1.126,0,0,0,.808-.3,1.36,1.36,0,0,0,.341-.967q.013-.292.013-.522t-.013-.516a1.612,1.612,0,0,0-.165-.727.962.962,0,0,0-.406-.409,1.351,1.351,0,0,0-1.155,0,.962.962,0,0,0-.406.409,1.667,1.667,0,0,0-.172.727q-.006.285-.007.516t.007.522a1.35,1.35,0,0,0,.344.967A1.138,1.138,0,0,0,325.736,231.707Z" transform="translate(-315.916 -227.586)" fill="#fff"/>
          <path id="패스_1527" data-name="패스 1527" d="M353.651,232.549a.142.142,0,0,1-.11-.042.152.152,0,0,1-.039-.107v-4.238a.161.161,0,0,1,.039-.114.143.143,0,0,1,.11-.042h1.778a1.734,1.734,0,0,1,.8.159,1.035,1.035,0,0,1,.454.432,1.271,1.271,0,0,1,.146.61,1.09,1.09,0,0,1-.088.458.962.962,0,0,1-.217.311.317.317,0,1,0,.2.587,1.137,1.137,0,0,1,.2.675,1.351,1.351,0,0,1-.162.656,1.194,1.194,0,0,1-.483.477,1.6,1.6,0,0,1-.789.178Zm.487-2.622h1.194a.917.917,0,0,0,.63-.191.665.665,0,0,0,.214-.522.616.616,0,0,0-.214-.506.975.975,0,0,0-.63-.175h-1.194Zm0,2.1H355.4a.869.869,0,0,0,.643-.227.811.811,0,0,0,0-1.126.877.877,0,0,0-.643-.224h-1.259Z" transform="translate(-340.924 -227.941)" fill="#fff"/>
          <path id="패스_1528" data-name="패스 1528" d="M378.546,232.549a.133.133,0,0,1-.13-.13.433.433,0,0,1,.007-.071l1.61-4.2a.264.264,0,0,1,.071-.1.2.2,0,0,1,.136-.039h.441a.205.205,0,0,1,.136.039.266.266,0,0,1,.071.1l1.6,4.2a.233.233,0,0,1,.013.071.133.133,0,0,1-.13.13h-.331a.147.147,0,0,1-.114-.039.243.243,0,0,1-.049-.071l-.357-.922H379.4l-.357.922a.151.151,0,0,1-.045.071.159.159,0,0,1-.117.039Zm1.038-1.59h1.752l-.876-2.3Z" transform="translate(-361.989 -227.941)" fill="#fff"/>
          <path id="패스_1529" data-name="패스 1529" d="M409.528,232.549a.143.143,0,0,1-.11-.042.152.152,0,0,1-.039-.107v-4.245a.152.152,0,0,1,.039-.107.143.143,0,0,1,.11-.042h.344a.144.144,0,0,1,.149.149v3.829h2.155a.145.145,0,0,1,.156.156v.26a.145.145,0,0,1-.042.107.154.154,0,0,1-.114.042Z" transform="translate(-388.169 -227.941)" fill="#fff"/>
        </g>
        <g id="그룹_754" data-name="그룹 754" transform="translate(40.651)">
          <path id="패스_1530" data-name="패스 1530" d="M444.143,232.259a2.274,2.274,0,0,1-.948-.175,1.472,1.472,0,0,1-.587-.451,1.037,1.037,0,0,1-.217-.581.13.13,0,0,1,.042-.094.138.138,0,0,1,.1-.042h.331a.159.159,0,0,1,.117.039.192.192,0,0,1,.052.091.8.8,0,0,0,.162.308.913.913,0,0,0,.354.253,1.493,1.493,0,0,0,.594.1,1.368,1.368,0,0,0,.821-.2.629.629,0,0,0,.263-.529.5.5,0,0,0-.14-.367,1.225,1.225,0,0,0-.425-.25q-.285-.11-.74-.24a4.277,4.277,0,0,1-.785-.3,1.172,1.172,0,0,1-.464-.4,1.12,1.12,0,0,1-.152-.61,1.085,1.085,0,0,1,.188-.626,1.28,1.28,0,0,1,.545-.438,2.059,2.059,0,0,1,.857-.162,2.1,2.1,0,0,1,.7.107,1.508,1.508,0,0,1,.5.286,1.31,1.31,0,0,1,.3.383.952.952,0,0,1,.11.4.143.143,0,0,1-.032.088.123.123,0,0,1-.1.042h-.344a.2.2,0,0,1-.094-.026.168.168,0,0,1-.075-.1.657.657,0,0,0-.3-.448,1.153,1.153,0,0,0-.675-.182,1.289,1.289,0,0,0-.685.162.614.614,0,0,0-.14.873,1,1,0,0,0,.389.256,6.652,6.652,0,0,0,.695.234,5.2,5.2,0,0,1,.85.3,1.2,1.2,0,0,1,.49.4,1.067,1.067,0,0,1,.159.607,1.139,1.139,0,0,1-.214.7,1.336,1.336,0,0,1-.6.441A2.477,2.477,0,0,1,444.143,232.259Z" transform="translate(-442.391 -227.586)" fill="#fff"/>
          <path id="패스_1531" data-name="패스 1531" d="M471.913,232.614a2.09,2.09,0,0,1-.938-.195,1.345,1.345,0,0,1-.6-.594,2.194,2.194,0,0,1-.211-1.029v-2.635a.162.162,0,0,1,.039-.114.144.144,0,0,1,.11-.042h.331a.145.145,0,0,1,.156.156v2.648a1.3,1.3,0,0,0,.3.941,1.245,1.245,0,0,0,1.632,0,1.291,1.291,0,0,0,.3-.941v-2.648a.154.154,0,0,1,.042-.114.146.146,0,0,1,.107-.042h.338a.146.146,0,0,1,.107.042.154.154,0,0,1,.042.114V230.8a2.2,2.2,0,0,1-.211,1.029,1.351,1.351,0,0,1-.6.594A2.087,2.087,0,0,1,471.913,232.614Z" transform="translate(-465.871 -227.941)" fill="#fff"/>
          <path id="패스_1532" data-name="패스 1532" d="M500.013,232.549a.144.144,0,0,1-.149-.149v-4.238a.154.154,0,0,1,.042-.114.146.146,0,0,1,.107-.042h.325a.159.159,0,0,1,.117.039.282.282,0,0,1,.052.065l1.369,2.622,1.383-2.622a.31.31,0,0,1,.049-.065.147.147,0,0,1,.114-.039h.318a.145.145,0,0,1,.156.156V232.4a.145.145,0,0,1-.042.107.154.154,0,0,1-.114.042h-.318a.144.144,0,0,1-.149-.149v-3.193l-1.084,2.116a.216.216,0,0,1-.078.1.224.224,0,0,1-.13.036h-.2a.206.206,0,0,1-.13-.036.289.289,0,0,1-.078-.1l-1.09-2.116V232.4a.144.144,0,0,1-.149.149Z" transform="translate(-490.985 -227.941)" fill="#fff"/>
          <path id="패스_1533" data-name="패스 1533" d="M533.371,232.549a.144.144,0,0,1-.149-.149v-4.238a.154.154,0,0,1,.042-.114.146.146,0,0,1,.107-.042h.325a.159.159,0,0,1,.117.039.287.287,0,0,1,.052.065l1.37,2.622,1.382-2.622a.314.314,0,0,1,.049-.065.147.147,0,0,1,.114-.039h.318a.145.145,0,0,1,.156.156V232.4a.145.145,0,0,1-.042.107.154.154,0,0,1-.114.042h-.318a.144.144,0,0,1-.149-.149v-3.193l-1.084,2.116a.215.215,0,0,1-.078.1.224.224,0,0,1-.13.036h-.2a.206.206,0,0,1-.13-.036.29.29,0,0,1-.078-.1l-1.09-2.116V232.4a.144.144,0,0,1-.149.149Z" transform="translate(-519.19 -227.941)" fill="#fff"/>
          <path id="패스_1534" data-name="패스 1534" d="M566.728,232.549a.142.142,0,0,1-.11-.042.152.152,0,0,1-.039-.107v-4.245a.153.153,0,0,1,.039-.107.143.143,0,0,1,.11-.042h.344a.144.144,0,0,1,.11.042.153.153,0,0,1,.039.107V232.4a.152.152,0,0,1-.039.107.143.143,0,0,1-.11.042Z" transform="translate(-547.394 -227.941)" fill="#fff"/>
          <path id="패스_1535" data-name="패스 1535" d="M576.989,232.549a.144.144,0,0,1-.149-.149v-3.816h-1.246a.144.144,0,0,1-.149-.149v-.273a.153.153,0,0,1,.042-.114.146.146,0,0,1,.107-.042h3.129a.145.145,0,0,1,.156.156v.273a.145.145,0,0,1-.042.107.154.154,0,0,1-.114.042h-1.24V232.4a.145.145,0,0,1-.042.107.154.154,0,0,1-.114.042Z" transform="translate(-554.889 -227.941)" fill="#fff"/>
        </g>
      </g>
      <path id="패스_1536" data-name="패스 1536" d="M272.5,295.855h-2.123V287.12a4.072,4.072,0,1,0-8.145,0v8.734h-2.123V287.12a6.2,6.2,0,1,1,12.39,0Z" transform="translate(-69.336 -45.135)" fill="#dc000c"/>
      <path id="패스_1537" data-name="패스 1537" d="M266.3,392.5a6.2,6.2,0,0,1-6.2-6.2v-8.735h2.123v8.735a4.072,4.072,0,0,0,8.145,0v-8.735H272.5v8.735A6.2,6.2,0,0,1,266.3,392.5Z" transform="translate(-69.336 -126.915)" fill="#003f88"/>
      <g id="그룹_756" data-name="그룹 756" transform="translate(178.166 236.157)">
        <path id="패스_1538" data-name="패스 1538" d="M189.219,283.722H185.2l-3.655,4.859v-4.859h-3.3v13.146h3.3v-4.859l3.655,4.859h4.015l-4.98-6.573Z" transform="translate(-178.245 -283.721)" fill="#fff"/>
        <path id="패스_1539" data-name="패스 1539" d="M363.242,296.862h3.539l-2.849-5.217a4.186,4.186,0,0,0-1.872-7.93h-6.628v13.145h3.3v-4.774h1.9Zm-4.506-10.587h2.444a1.626,1.626,0,1,1,0,3.253h-2.444Z" transform="translate(-328.146 -283.716)" fill="#fff"/>
        <path id="패스_1540" data-name="패스 1540" d="M449.3,286.428v-2.706h-9.77v13.146h9.77v-2.706h-6.466v-2.514h5.824v-2.706h-5.824v-2.514Z" transform="translate(-399.291 -283.721)" fill="#fff"/>
        <path id="패스_1541" data-name="패스 1541" d="M520.533,296.867h3.373l-4.785-13.145H515.2l-4.784,13.145h3.372l.838-2.3H519.7Zm-4.918-5.009,1.547-4.251,1.547,4.251Z" transform="translate(-459.274 -283.721)" fill="#fff"/>
        <path id="패스_1542" data-name="패스 1542" d="M188.515,389.6c.091-.6.419-4.795-4.783-4.795-5.556,0-5.242,4.795-5.242,4.795h3.294s.109-2.052,1.736-2.052,1.524,1.3,1.524,1.367.123.915-1.108,1.993-5.231,4.574-5.407,4.738a.858.858,0,0,0-.28.551.817.817,0,0,0,0,.083v1.923h10.506V395.5h-5.688c.9-.755,3.042-2.562,3.851-3.264A4.826,4.826,0,0,0,188.515,389.6Z" transform="translate(-178.245 -369.192)" fill="#fff"/>
        <path id="패스_1543" data-name="패스 1543" d="M364.111,389.6c.091-.6.419-4.795-4.784-4.795-5.556,0-5.242,4.795-5.242,4.795h3.294s.109-2.052,1.736-2.052,1.524,1.3,1.524,1.367.123.915-1.108,1.993-5.231,4.574-5.407,4.738a.858.858,0,0,0-.28.551.813.813,0,0,0,0,.083v1.923h10.506V395.5h-5.688c.9-.755,3.042-2.562,3.851-3.264A4.826,4.826,0,0,0,364.111,389.6Z" transform="translate(-326.799 -369.192)" fill="#fff"/>
        <path id="패스_1544" data-name="패스 1544" d="M443.762,386.41a.464.464,0,0,0-.287.1v0l-3.943,2.961v3.492l3.763-2.826v9.42h3.3V386.41Z" transform="translate(-399.285 -370.545)" fill="#fff"/>
      </g>
    </g>
  </g>
</svg>
