<svg xmlns="http://www.w3.org/2000/svg" width="40.619" height="45.132" viewBox="0 0 40.619 45.132">
  <g id="그룹_3059" data-name="그룹 3059" transform="translate(-3628 -2122)">
    <g id="그룹_1832" data-name="그룹 1832" transform="translate(3631.009 2140.053)">
      <path id="패스_2926" data-name="패스 2926" d="M3677.849,2242.071a.752.752,0,0,1-.752-.752v-21.062a.753.753,0,0,0-.752-.752h-30.088a.753.753,0,0,0-.752.752v21.062a.752.752,0,0,1-1.5,0v-21.062a2.259,2.259,0,0,1,2.257-2.257h30.088a2.259,2.259,0,0,1,2.257,2.257v21.062A.752.752,0,0,1,3677.849,2242.071Z" transform="translate(-3644 -2218)"/>
    </g>
    <g id="그룹_1833" data-name="그룹 1833" transform="translate(3634.018 2143.062)">
      <path id="패스_2927" data-name="패스 2927" d="M3687.832,2252.053h-27.079a.752.752,0,0,1-.752-.752v-16.549a.752.752,0,0,1,.752-.752h27.079a.752.752,0,0,1,.752.752V2251.3A.752.752,0,0,1,3687.832,2252.053Zm-26.327-1.5h25.575V2235.5H3661.5Z" transform="translate(-3660 -2234)"/>
    </g>
    <g id="그룹_1834" data-name="그룹 1834" transform="translate(3628 2162.619)">
      <path id="패스_2928" data-name="패스 2928" d="M3664.858,2342.513h-33.1a3.765,3.765,0,0,1-3.761-3.761.752.752,0,0,1,1.5,0,2.259,2.259,0,0,0,2.257,2.257h33.1a2.259,2.259,0,0,0,2.257-2.257.752.752,0,1,1,1.5,0A3.766,3.766,0,0,1,3664.858,2342.513Z" transform="translate(-3628 -2338)" fill="#009947"/>
    </g>
    <g id="그룹_1835" data-name="그룹 1835" transform="translate(3628 2162.619)">
      <path id="패스_2929" data-name="패스 2929" d="M3667.867,2339.5h-39.115a.752.752,0,0,1,0-1.5h39.115a.752.752,0,1,1,0,1.5Z" transform="translate(-3628 -2338)" fill="#009947"/>
    </g>
    <g id="그룹_1838" data-name="그룹 1838" transform="translate(3651.318 2122)">
      <g id="그룹_1836" data-name="그룹 1836" transform="translate(0 6.77)">
        <path id="패스_2930" data-name="패스 2930" d="M3763.283,2163.265a.752.752,0,0,1-.752-.752v-1.5c0-.607-1.435-1.5-4.513-1.5s-4.513.9-4.513,1.5v1.5a.752.752,0,0,1-1.5,0v-1.5c0-1.828,2.362-3.009,6.018-3.009s6.018,1.181,6.018,3.009v1.5A.752.752,0,0,1,3763.283,2163.265Z" transform="translate(-3752 -2158)" fill="#009947"/>
      </g>
      <g id="그룹_1837" data-name="그룹 1837" transform="translate(3.009 0)">
        <path id="패스_2931" data-name="패스 2931" d="M3771.009,2128.018a3.009,3.009,0,1,1,3.009-3.009A3.012,3.012,0,0,1,3771.009,2128.018Zm0-4.513a1.5,1.5,0,1,0,1.5,1.5A1.506,1.506,0,0,0,3771.009,2123.5Z" transform="translate(-3768 -2122)" fill="#009947"/>
      </g>
    </g>
    <g id="그룹_1841" data-name="그룹 1841" transform="translate(3642.292 2146.071)">
      <g id="그룹_1839" data-name="그룹 1839" transform="translate(0 6.77)">
        <path id="패스_2932" data-name="패스 2932" d="M3715.283,2291.266a.752.752,0,0,1-.752-.752v-1.5c0-.607-1.435-1.5-4.513-1.5s-4.513.9-4.513,1.5v1.5a.752.752,0,1,1-1.5,0v-1.5c0-1.828,2.363-3.009,6.018-3.009s6.018,1.181,6.018,3.009v1.5A.752.752,0,0,1,3715.283,2291.266Z" transform="translate(-3704 -2286)"/>
      </g>
      <g id="그룹_1840" data-name="그룹 1840" transform="translate(3.009)">
        <path id="패스_2933" data-name="패스 2933" d="M3723.009,2256.018a3.009,3.009,0,1,1,3.009-3.009A3.012,3.012,0,0,1,3723.009,2256.018Zm0-4.513a1.5,1.5,0,1,0,1.5,1.5A1.507,1.507,0,0,0,3723.009,2251.5Z" transform="translate(-3720 -2250)"/>
      </g>
    </g>
    <g id="그룹_1844" data-name="그룹 1844" transform="translate(3633.265 2122)">
      <g id="그룹_1842" data-name="그룹 1842" transform="translate(0 6.77)">
        <path id="패스_2934" data-name="패스 2934" d="M3667.283,2163.265a.752.752,0,0,1-.752-.752v-1.5c0-.607-1.435-1.5-4.513-1.5s-4.513.9-4.513,1.5v1.5a.752.752,0,0,1-1.5,0v-1.5c0-1.828,2.363-3.009,6.018-3.009s6.018,1.181,6.018,3.009v1.5A.752.752,0,0,1,3667.283,2163.265Z" transform="translate(-3656 -2158)" fill="#009947"/>
      </g>
      <g id="그룹_1843" data-name="그룹 1843" transform="translate(3.009 0)">
        <path id="패스_2935" data-name="패스 2935" d="M3675.009,2128.018a3.009,3.009,0,1,1,3.009-3.009A3.012,3.012,0,0,1,3675.009,2128.018Zm0-4.513a1.5,1.5,0,1,0,1.5,1.5A1.507,1.507,0,0,0,3675.009,2123.5Z" transform="translate(-3672 -2122)" fill="#009947"/>
      </g>
    </g>
    <g id="그룹_1845" data-name="그룹 1845" transform="translate(3638.531 2134.624)">
      <path id="패스_2936" data-name="패스 2936" d="M3702.805,2193.053h-18.053a.752.752,0,0,1-.752-.752v-2.421a.752.752,0,0,1,1.5,0v1.668h16.549v-1.668a.752.752,0,0,1,1.5,0v2.421A.752.752,0,0,1,3702.805,2193.053Z" transform="translate(-3684 -2189.128)"/>
    </g>
    <g id="그룹_1846" data-name="그룹 1846" transform="translate(3647.557 2138.038)">
      <path id="패스_2937" data-name="패스 2937" d="M3732.752,2210.463a.752.752,0,0,1-.752-.752v-1.675a.752.752,0,0,1,1.5,0v1.675A.752.752,0,0,1,3732.752,2210.463Z" transform="translate(-3732 -2207.283)"/>
    </g>
  </g>
</svg>
