<svg xmlns="http://www.w3.org/2000/svg" width="49.952" height="51.675" viewBox="0 0 49.952 51.675">
  <g id="그룹_1888" data-name="그룹 1888" transform="translate(0)">
    <rect id="사각형_1582" data-name="사각형 1582" width="30" height="50" rx="1" transform="translate(9.976 0.837)" fill="#fff"/>
    <circle id="타원_567" data-name="타원 567" cx="8" cy="8" r="8" transform="translate(0.976 23.837)" fill="#fff"/>
    <circle id="타원_568" data-name="타원 568" cx="8" cy="8" r="8" transform="translate(32.976 14.837)" fill="#fff"/>
    <g id="그룹_1871" data-name="그룹 1871" transform="translate(8.612 32.727)">
      <path id="패스_2956" data-name="패스 2956" d="M2202.144,2292.948h-27.56a2.587,2.587,0,0,1-2.583-2.584v-6.89a.861.861,0,1,1,1.722,0v6.89a.862.862,0,0,0,.861.861h27.56a.862.862,0,0,0,.861-.861v-15.5a.861.861,0,1,1,1.722,0v15.5A2.587,2.587,0,0,1,2202.144,2292.948Z" transform="translate(-2172 -2274)" fill="#aaa"/>
    </g>
    <g id="그룹_1872" data-name="그룹 1872" transform="translate(8.612)">
      <path id="패스_2957" data-name="패스 2957" d="M2172.861,2144.393a.86.86,0,0,1-.861-.861v-18.948a2.587,2.587,0,0,1,2.583-2.584h27.56a2.587,2.587,0,0,1,2.583,2.584v10.335a.861.861,0,0,1-1.722,0v-10.335a.862.862,0,0,0-.861-.862h-27.56a.862.862,0,0,0-.861.862v18.948A.86.86,0,0,1,2172.861,2144.393Z" transform="translate(-2172 -2122)" fill="#aaa"/>
    </g>
    <g id="그룹_1877" data-name="그룹 1877" transform="translate(22.392 43.923)">
      <path id="패스_2962" data-name="패스 2962" d="M2238.583,2331.167a2.584,2.584,0,1,1,2.584-2.583A2.587,2.587,0,0,1,2238.583,2331.167Zm0-3.445a.861.861,0,1,0,.862.861A.862.862,0,0,0,2238.583,2327.723Z" transform="translate(-2236 -2326)" fill="#aaa"/>
    </g>
    <g id="그룹_1879" data-name="그룹 1879" transform="translate(0 23.254)">
      <g id="그룹_1878" data-name="그룹 1878">
        <path id="패스_2963" data-name="패스 2963" d="M2140.612,2247.225a8.613,8.613,0,1,1,8.613-8.613A8.623,8.623,0,0,1,2140.612,2247.225Zm0-15.5a6.89,6.89,0,1,0,6.89,6.89A6.9,6.9,0,0,0,2140.612,2231.723Z" transform="translate(-2132 -2230)" fill="#aaa"/>
      </g>
    </g>
    <g id="그룹_1880" data-name="그룹 1880" transform="translate(12.058 3.445)">
      <path id="패스_2964" data-name="패스 2964" d="M2196.613,2155.225a8.613,8.613,0,1,1,8.613-8.613A8.623,8.623,0,0,1,2196.613,2155.225Zm0-15.5a6.89,6.89,0,1,0,6.89,6.89A6.9,6.9,0,0,0,2196.613,2139.723Z" transform="translate(-2188 -2138)" fill="#aaa"/>
    </g>
    <g id="그룹_1884" data-name="그룹 1884" transform="translate(32.727 14.641)">
      <g id="그룹_1883" data-name="그룹 1883">
        <path id="패스_2966" data-name="패스 2966" d="M2292.613,2207.225a8.613,8.613,0,1,1,8.612-8.613A8.623,8.623,0,0,1,2292.613,2207.225Zm0-15.5a6.89,6.89,0,1,0,6.89,6.89A6.9,6.9,0,0,0,2292.613,2191.723Z" transform="translate(-2284 -2190)" fill="#aaa"/>
      </g>
    </g>
    <g id="그룹_1896" data-name="그룹 1896" transform="translate(3.445 3.445)">
      <g id="그룹_1899" data-name="그룹 1899" transform="translate(8.613)">
        <g id="그룹_1873" data-name="그룹 1873" transform="translate(0 28.421)">
          <path id="패스_2958" data-name="패스 2958" d="M2212.976,2281.2h-24.115a.86.86,0,0,1-.861-.861v-.861a.861.861,0,0,1,1.723,0h22.392v-8.613a.861.861,0,0,1,1.723,0v9.474A.861.861,0,0,1,2212.976,2281.2Z" transform="translate(-2188 -2270)" fill="#aaa"/>
        </g>
        <g id="그룹_1874" data-name="그룹 1874" transform="translate(13.78)">
          <path id="패스_2959" data-name="패스 2959" d="M2263.2,2149.2a.861.861,0,0,1-.861-.861v-8.612h-9.474a.861.861,0,1,1,0-1.723H2263.2a.861.861,0,0,1,.862.861v9.474A.861.861,0,0,1,2263.2,2149.2Z" transform="translate(-2252 -2138)" fill="#aaa"/>
        </g>
        <g id="그룹_1875" data-name="그룹 1875">
          <path id="패스_2960" data-name="패스 2960" d="M2188.861,2141.445a.861.861,0,0,1-.861-.861v-1.723a.861.861,0,0,1,.861-.861h.862a.861.861,0,0,1,0,1.723v.861A.861.861,0,0,1,2188.861,2141.445Z" transform="translate(-2188 -2138)" fill="#aaa"/>
        </g>
        <g id="그룹_1876" data-name="그룹 1876" transform="translate(0 14.642)">
          <path id="패스_2961" data-name="패스 2961" d="M2188.861,2211.167a.861.861,0,0,1-.861-.861v-3.446a.861.861,0,0,1,1.723,0v3.446A.861.861,0,0,1,2188.861,2211.167Z" transform="translate(-2188 -2206)" fill="#aaa"/>
        </g>
      </g>
      <g id="그룹_1881" data-name="그룹 1881" transform="translate(12.058 4.324)">
        <path id="패스_2965" data-name="패스 2965" d="M2209.167,2167.541a.858.858,0,0,1-.6-.247l-3.568-3.512a3.317,3.317,0,0,1,0-4.739,18.617,18.617,0,0,1,8.343,0,3.317,3.317,0,0,1,0,4.739l-3.568,3.512A.856.856,0,0,1,2209.167,2167.541Zm-1.784-7.751a1.694,1.694,0,0,0-1.18.481,1.6,1.6,0,0,0,0,2.284l2.964,2.917,2.964-2.917h0a1.6,1.6,0,0,0,0-2.284,1.747,1.747,0,0,0-2.36,0,.861.861,0,0,1-1.208,0A1.692,1.692,0,0,0,2207.384,2159.789Z" transform="translate(-2204 -2158.085)" fill="#e66d6b"/>
      </g>
      <g id="그룹_1886" data-name="그룹 1886" transform="translate(0 24.133)">
        <path id="패스_2967" data-name="패스 2967" d="M2153.167,2259.54a.857.857,0,0,1-.6-.247l-3.568-3.511a3.318,3.318,0,0,1,0-4.74,18.6,18.6,0,0,1,8.344,0,3.317,3.317,0,0,1,0,4.74l-3.568,3.511A.857.857,0,0,1,2153.167,2259.54Zm-1.784-7.751a1.7,1.7,0,0,0-1.18.481,1.6,1.6,0,0,0,0,2.284l2.964,2.917,2.964-2.917h0a1.6,1.6,0,0,0,0-2.284,1.747,1.747,0,0,0-2.36,0,.86.86,0,0,1-1.208,0A1.694,1.694,0,0,0,2151.384,2251.789Z" transform="translate(-2148 -2250.085)" fill="#e66d6b"/>
      </g>
      <g id="그룹_1887" data-name="그룹 1887" transform="translate(32.727 15.502)">
        <path id="패스_2968" data-name="패스 2968" d="M2305.167,2219.455a.858.858,0,0,1-.6-.247L2301,2215.7a3.317,3.317,0,0,1,0-4.739,18.608,18.608,0,0,1,8.343,0,3.318,3.318,0,0,1,0,4.739l-3.568,3.512A.857.857,0,0,1,2305.167,2219.455Zm-1.783-7.751a1.7,1.7,0,0,0-1.18.481,1.6,1.6,0,0,0,0,2.284l2.964,2.917,2.964-2.917h0a1.6,1.6,0,0,0,0-2.284,1.746,1.746,0,0,0-2.36,0,.86.86,0,0,1-1.208,0A1.7,1.7,0,0,0,2303.384,2211.7Z" transform="translate(-2300 -2210)" fill="#e66d6b"/>
      </g>
    </g>
  </g>
</svg>
