<svg xmlns="http://www.w3.org/2000/svg" width="49.357" height="38.17" viewBox="0 0 49.357 38.17">
  <g id="그룹_1855" data-name="그룹 1855" transform="translate(0)">
    <rect id="사각형_1583" data-name="사각형 1583" width="29" height="20" transform="translate(1.2 10.76)" fill="#fff"/>
    <rect id="사각형_1584" data-name="사각형 1584" width="32" height="21" transform="translate(16.2 0.76)" fill="#fff"/>
    <path id="패스_2983" data-name="패스 2983" d="M6.036,29.028v6.547L12.574,28.4H6.036Z" transform="translate(0.276 1.299)" fill="#fff"/>
    <path id="패스_2984" data-name="패스 2984" d="M34.109,19.5l7.179,8.917V19.5Z" transform="translate(1.56 0.892)" fill="#fff"/>
    <g id="그룹_1849" data-name="그룹 1849" transform="translate(14.862)">
      <path id="패스_2939" data-name="패스 2939" d="M263.969,704.766a.932.932,0,0,1-.736-.36l-6.246-8.031H236.932a.932.932,0,0,1-.932-.932V674.932a.932.932,0,0,1,.932-.932h32.631a.932.932,0,0,1,.932.932v20.511a.932.932,0,0,1-.932.932H264.9v7.459a.933.933,0,0,1-.932.932Zm-26.1-10.255h19.578a.933.933,0,0,1,.736.36l4.858,6.246v-5.674a.932.932,0,0,1,.932-.932h4.661V675.865H237.865Z" transform="translate(-236 -674)" fill="#aaa"/>
    </g>
    <g id="그룹_1897" data-name="그룹 1897" transform="translate(0 7.404)">
      <g id="그룹_1850" data-name="그룹 1850" transform="translate(0 1.865)">
        <path id="패스_2940" data-name="패스 2940" d="M146.007,742.9c-.11,0,4.3-.02,4.191-.06a.932.932,0,0,1-.6-.873v-6.526h-4.662a.932.932,0,0,1-.932-.932V714.932a.932.932,0,0,1,.932-.932h10.195a.932.932,0,1,1,0,1.865h-9.262v17.714h4.662a.932.932,0,0,1,.932.932v4.977l4.892-5.591a.933.933,0,0,1,.7-.318H172.9v-3.729a.932.932,0,1,1,1.865,0v4.661a.932.932,0,0,1-.932.932H157.475l-6.247,7.14A43.254,43.254,0,0,1,146.007,742.9Z" transform="translate(-144 -714)" fill="#e66d6b"/>
      </g>
      <g id="그룹_1853" data-name="그룹 1853" transform="translate(21.717)">
        <path id="패스_2943" data-name="패스 2943" d="M268.12,707.865H256.932a.932.932,0,0,1,0-1.865H268.12a.932.932,0,0,1,0,1.865Z" transform="translate(-256 -706)" fill="#e66d6b"/>
      </g>
      <g id="그룹_1854" data-name="그룹 1854" transform="translate(21.717 4.661)">
        <path id="패스_2944" data-name="패스 2944" d="M277.928,727.865h-21a.932.932,0,1,1,0-1.865h21a.932.932,0,1,1,0,1.865Z" transform="translate(-256 -726)" fill="#e66d6b"/>
      </g>
    </g>
  </g>
</svg>
