<svg id="그룹_2138" data-name="그룹 2138" xmlns="http://www.w3.org/2000/svg" width="49.784" height="39.726" viewBox="0 0 49.784 39.726">
  <g id="그룹_915" data-name="그룹 915">
    <rect id="사각형_1691" data-name="사각형 1691" width="48" height="38" rx="3" transform="translate(0.892 1)" fill="#fff"/>
    <path id="패스_2008" data-name="패스 2008" d="M885.006,513.476h-45.8v-5.832c0-1.292.7-2.255,1.329-2.255h43.146c.626,0,1.328.963,1.328,2.255v5.832Zm0,25.479c0,1.292-.7,2.257-1.328,2.257H840.534c-.628,0-1.329-.965-1.329-2.257V515.534h45.8v23.421Zm-1.328-35.517H840.534c-1.863,0-3.32,1.847-3.32,4.207v31.31c0,2.361,1.458,4.209,3.32,4.209H883.68c1.861,0,3.318-1.849,3.318-4.209v-31.31c0-2.36-1.457-4.207-3.318-4.207Z" transform="translate(-837.214 -503.438)" fill="#9a9a9a"/>
    <path id="패스_2009" data-name="패스 2009" d="M853.473,509.118a2.06,2.06,0,1,1-2.06-2.061A2.06,2.06,0,0,1,853.473,509.118Z" transform="translate(-837.214 -503.438)" fill="#9a9a9a"/>
    <path id="패스_2010" data-name="패스 2010" d="M860.525,509.118a2.06,2.06,0,1,1-2.059-2.061h0A2.06,2.06,0,0,1,860.525,509.118Z" transform="translate(-837.214 -503.438)" fill="#9a9a9a"/>
    <path id="패스_2011" data-name="패스 2011" d="M846.365,509.118a2.06,2.06,0,1,1-2.06-2.061A2.06,2.06,0,0,1,846.365,509.118Z" transform="translate(-837.214 -503.438)" fill="#9a9a9a"/>
  </g>
  <path id="패스_2045" data-name="패스 2045" d="M878.32,522.073H845.892a.983.983,0,0,1,0-1.961H878.32a.983.983,0,0,1,0,1.961Z" transform="translate(-837.214 -503.438)" fill="#9a9a9a"/>
  <path id="패스_2045-2" data-name="패스 2045" d="M878.32,528.361H863.356a.983.983,0,0,1,0-1.961H878.32a.983.983,0,0,1,0,1.961Z" transform="translate(-837.214 -503.438)" fill="#9a9a9a"/>
  <path id="패스_2045-3" data-name="패스 2045" d="M878.32,534.65H863.356a.983.983,0,0,1,0-1.961H878.32a.983.983,0,0,1,0,1.961Z" transform="translate(-837.214 -503.438)" fill="#9a9a9a"/>
  <g id="그룹_2137" data-name="그룹 2137" transform="translate(8.041 21.962)">
    <path id="패스_3014" data-name="패스 3014" d="M857.17,535.352H846.255a1,1,0,0,1-1-1V526.4a1,1,0,0,1,1-1H857.17a1,1,0,0,1,1,1v7.952A1,1,0,0,1,857.17,535.352Zm-9.915-2h8.915V527.4h-8.915Z" transform="translate(-845.255 -525.4)" fill="#e66d6b"/>
  </g>
</svg>
