<svg id="그룹_2148" data-name="그룹 2148" xmlns="http://www.w3.org/2000/svg" width="57.538" height="47.754" viewBox="0 0 57.538 47.754">
  <path id="패스_3020" data-name="패스 3020" d="M812.551,543.018H774.518a3.045,3.045,0,0,1-3.045-3.045V507.618a3.044,3.044,0,0,1,3.045-3.044h38.033a3.044,3.044,0,0,1,3.045,3.044v28.233l-8.053-7.819-4.149-1.341.987,3.7c0,.688,10.6,11.412,10.6,11.412A5.31,5.31,0,0,1,812.551,543.018Z" transform="translate(-770.287 -503.128)" fill="#fff"/>
  <path id="패스_2042" data-name="패스 2042" d="M785.418,509.155a1.94,1.94,0,1,1-1.941-1.939h0A1.941,1.941,0,0,1,785.418,509.155Z" transform="translate(-770.212 -503.363)" fill="#9a9a9a"/>
  <path id="패스_2043" data-name="패스 2043" d="M792.005,509.155a1.94,1.94,0,1,1-1.941-1.939h0A1.939,1.939,0,0,1,792.005,509.155Z" transform="translate(-770.212 -503.363)" fill="#9a9a9a"/>
  <path id="패스_2044" data-name="패스 2044" d="M778.83,509.155a1.94,1.94,0,1,1-1.941-1.939h0A1.941,1.941,0,0,1,778.83,509.155Z" transform="translate(-770.212 -503.363)" fill="#9a9a9a"/>
  <path id="패스_2045" data-name="패스 2045" d="M809.673,521.932H777.245a.983.983,0,0,1,0-1.961h32.428a.983.983,0,0,1,0,1.961Z" transform="translate(-770.212 -503.363)" fill="#9a9a9a"/>
  <path id="패스_2046" data-name="패스 2046" d="M797.053,528.22h-19.8a.983.983,0,0,1,0-1.961h19.8a.983.983,0,0,1,0,1.961Z" transform="translate(-770.212 -503.363)" fill="#9a9a9a"/>
  <path id="패스_2047" data-name="패스 2047" d="M800.125,534.506h-22.88a.983.983,0,0,1,0-1.961h22.88a.983.983,0,0,1,0,1.961Z" transform="translate(-770.212 -503.363)" fill="#9a9a9a"/>
  <g id="그룹_2148-2" data-name="그룹 2148">
    <g id="그룹_2148-3" data-name="그룹 2148">
      <path id="패스_2041" data-name="패스 2041" d="M772.074,581.078c0-1.23.655-2.148,1.241-2.148H813.6c.584,0,1.239.917,1.239,2.148v5.554h-42.77ZM816.7,609.673V581.08c0-2.248-1.361-4.007-3.1-4.007h-40.29c-1.74,0-3.1,1.76-3.1,4.007v31.654c0,2.249,1.361,4.008,3.1,4.008H813.6a2.575,2.575,0,0,0,1.465-.461l-1.364-1.409a.632.632,0,0,1-.1.01v0h-40.29c-.586,0-1.241-.919-1.241-2.149v-24.14h42.771V607.77Z" transform="translate(-770.212 -577.073)" fill="#9a9a9a"/>
      <path id="패스_2042-2" data-name="패스 2042" d="M785.418,582.419a1.94,1.94,0,1,1-1.941-1.939h0A1.941,1.941,0,0,1,785.418,582.419Z" transform="translate(-770.212 -577.073)" fill="#9a9a9a"/>
      <path id="패스_2043-2" data-name="패스 2043" d="M792.005,582.419a1.94,1.94,0,1,1-1.941-1.939h0A1.939,1.939,0,0,1,792.005,582.419Z" transform="translate(-770.212 -577.073)" fill="#9a9a9a"/>
      <path id="패스_2044-2" data-name="패스 2044" d="M778.83,582.419a1.94,1.94,0,1,1-1.941-1.939h0A1.941,1.941,0,0,1,778.83,582.419Z" transform="translate(-770.212 -577.073)" fill="#9a9a9a"/>
      <path id="패스_2045-2" data-name="패스 2045" d="M809.673,595.2H777.245a.983.983,0,0,1,0-1.961h32.428a.983.983,0,0,1,0,1.961Z" transform="translate(-770.212 -577.073)" fill="#9a9a9a"/>
      <path id="패스_2046-2" data-name="패스 2046" d="M797.053,601.483h-19.8a.982.982,0,0,1,0-1.96h19.8a.982.982,0,0,1,0,1.96Z" transform="translate(-770.212 -577.073)" fill="#9a9a9a"/>
      <path id="패스_2047-2" data-name="패스 2047" d="M800.125,607.77h-22.88a.983.983,0,0,1,0-1.961h22.88a.983.983,0,0,1,0,1.961Z" transform="translate(-770.212 -577.073)" fill="#9a9a9a"/>
    </g>
    <g id="그룹_2148-4" data-name="그룹 2148" transform="translate(31.733 21.471)">
      <path id="패스_2041-2" data-name="패스 2041" d="M815.067,616.308l7.438,7.6a3.059,3.059,0,0,0,4.371-4.281h0l0-.005-7.617-7.78-1.8-1.835-.76-.776-1.857-1.9-6.587-6.727a.947.947,0,0,0-.333-.217l-4.74-1.781A.919.919,0,0,0,802,599.767l1.681,4.777a.908.908,0,0,0,.21.338L808.9,610l1.8,1.835Zm6.156,3.656L805.34,603.742l-.959-2.729,2.708,1.017,15.882,16.22Zm4.295,2.669a1.227,1.227,0,0,1-1.7-.018l-1.312-1.34,1.747-1.711,1.312,1.338a1.2,1.2,0,0,1-.008,1.7l-.039.037Z" transform="translate(-801.945 -598.544)" fill="#e66d6b"/>
    </g>
  </g>
</svg>
