<svg id="그룹_2147" data-name="그룹 2147" xmlns="http://www.w3.org/2000/svg" width="49.784" height="39.726" viewBox="0 0 49.784 39.726">
  <g id="그룹_915" data-name="그룹 915">
    <rect id="사각형_1692" data-name="사각형 1692" width="48" height="38" rx="3" transform="translate(1 1)" fill="#fff"/>
    <path id="패스_2008" data-name="패스 2008" d="M965.346,513.476h-45.8v-5.832c0-1.292.7-2.255,1.329-2.255h43.146c.626,0,1.328.963,1.328,2.255v5.832Zm0,25.479c0,1.292-.7,2.257-1.328,2.257H920.874c-.628,0-1.329-.965-1.329-2.257V515.534h45.8v23.421Zm-1.328-35.517H920.874c-1.863,0-3.32,1.847-3.32,4.207v31.31c0,2.361,1.458,4.209,3.32,4.209H964.02c1.861,0,3.318-1.849,3.318-4.209v-31.31c0-2.36-1.457-4.207-3.318-4.207Z" transform="translate(-917.554 -503.438)" fill="#9a9a9a"/>
    <path id="패스_2009" data-name="패스 2009" d="M933.813,509.118a2.06,2.06,0,1,1-2.06-2.061A2.059,2.059,0,0,1,933.813,509.118Z" transform="translate(-917.554 -503.438)" fill="#9a9a9a"/>
    <path id="패스_2010" data-name="패스 2010" d="M940.865,509.118a2.06,2.06,0,1,1-2.059-2.061h0A2.059,2.059,0,0,1,940.865,509.118Z" transform="translate(-917.554 -503.438)" fill="#9a9a9a"/>
    <path id="패스_2011" data-name="패스 2011" d="M926.705,509.118a2.06,2.06,0,1,1-2.06-2.061A2.059,2.059,0,0,1,926.705,509.118Z" transform="translate(-917.554 -503.438)" fill="#9a9a9a"/>
  </g>
  <path id="패스_2045" data-name="패스 2045" d="M958.66,522.073H926.232a.983.983,0,0,1,0-1.961H958.66a.983.983,0,0,1,0,1.961Z" transform="translate(-917.554 -503.438)" fill="#9a9a9a"/>
  <path id="패스_2045-2" data-name="패스 2045" d="M958.66,528.053h-6.575a.983.983,0,0,1,0-1.961h6.575a.983.983,0,0,1,0,1.961Z" transform="translate(-917.554 -503.438)" fill="#9a9a9a"/>
  <path id="패스_2045-3" data-name="패스 2045" d="M958.66,534.033h-6.575a.983.983,0,0,1,0-1.961h6.575a.983.983,0,0,1,0,1.961Z" transform="translate(-917.554 -503.438)" fill="#9a9a9a"/>
  <g id="그룹_2146" data-name="그룹 2146" transform="translate(7.766 21.962)">
    <g id="그룹_2144" data-name="그룹 2144" transform="translate(3.277)">
      <path id="패스_3017" data-name="패스 3017" d="M946.987,535.352H930.566a1.973,1.973,0,0,1-1.969-1.971V527.37a1.972,1.972,0,0,1,1.969-1.97h16.421a1.972,1.972,0,0,1,1.97,1.97v6.011A1.972,1.972,0,0,1,946.987,535.352Zm-.03-7.982-16.391.03.031,5.981,16.36-.029Z" transform="translate(-928.597 -525.4)" fill="#e66d6b"/>
    </g>
    <g id="그룹_2145" data-name="그룹 2145" transform="translate(0 3.19)">
      <path id="패스_3018" data-name="패스 3018" d="M929.634,531.008h0m-.712-2.418a.611.611,0,0,0-.227.044l-2.985,1.17a.614.614,0,0,0,0,1.143l2.985,1.171a.63.63,0,0,0,.227.043.616.616,0,0,0,.616-.615v-2.341a.617.617,0,0,0-.616-.615Z" transform="translate(-925.32 -528.59)" fill="#e66d6b"/>
    </g>
  </g>
</svg>
