<svg id="그룹_915" data-name="그룹 915" xmlns="http://www.w3.org/2000/svg" width="49.784" height="41.653" viewBox="0 0 49.784 41.653">
  <rect id="사각형_1690" data-name="사각형 1690" width="48" height="40" rx="3" transform="translate(1 1)" fill="#fff"/>
  <path id="패스_2008" data-name="패스 2008" d="M738.411,514.612h-45.8V508.78c0-1.292.7-2.255,1.329-2.255h43.146c.626,0,1.328.963,1.328,2.255v5.832Zm0,27.406c0,1.292-.7,2.257-1.328,2.257H693.939c-.628,0-1.329-.965-1.329-2.257V516.671h45.8v25.347Zm-1.328-37.444H693.939c-1.863,0-3.32,1.847-3.32,4.207v33.237c0,2.361,1.458,4.209,3.32,4.209h43.146c1.861,0,3.318-1.849,3.318-4.209V508.781c0-2.36-1.457-4.207-3.318-4.207Z" transform="translate(-690.619 -504.574)" fill="#9a9a9a"/>
  <path id="패스_2009" data-name="패스 2009" d="M706.878,510.254a2.06,2.06,0,1,1-2.06-2.061A2.06,2.06,0,0,1,706.878,510.254Z" transform="translate(-690.619 -504.574)" fill="#9a9a9a"/>
  <path id="패스_2010" data-name="패스 2010" d="M713.93,510.254a2.06,2.06,0,1,1-2.059-2.061h0A2.061,2.061,0,0,1,713.93,510.254Z" transform="translate(-690.619 -504.574)" fill="#9a9a9a"/>
  <path id="패스_2011" data-name="패스 2011" d="M699.77,510.254a2.06,2.06,0,1,1-2.06-2.061A2.06,2.06,0,0,1,699.77,510.254Z" transform="translate(-690.619 -504.574)" fill="#9a9a9a"/>
  <path id="패스_2012" data-name="패스 2012" d="M720.3,538.14h-9.181s.042-11.565,0-11.678l4.407-5.538,4.774,5.538Zm6.4,0H722.18V528.9l1.271,1.525a.988.988,0,1,0,1.519-1.265l-8.68-10.413a1.019,1.019,0,0,0-1.438-.079.962.962,0,0,0-.078.079L706.1,529.163a.987.987,0,0,0,1.516,1.265l1.446-1.735v9.448h-4.737a.939.939,0,1,0-.087,1.876.646.646,0,0,0,.087,0h22.384a.939.939,0,0,0,.087-1.876H726.7Z" transform="translate(-690.619 -504.574)" fill="#e66d6b"/>
  <path id="패스_2013" data-name="패스 2013" d="M716.865,531.075h-2.708v-2.708h2.708Z" transform="translate(-690.619 -504.574)" fill="#9a9a9a"/>
</svg>
