<svg xmlns="http://www.w3.org/2000/svg" width="32" height="32" viewBox="0 0 32 32">
  <g id="그룹_1435" data-name="그룹 1435" transform="translate(2.296 2.255)">
    <rect id="사각형_1252" data-name="사각형 1252" width="32" height="32" transform="translate(-2.296 -2.256)" fill="none" opacity="0"/>
    <path id="패스_2340" data-name="패스 2340" d="M292.208,310.458a7.792,7.792,0,0,0-5.564-2.406h-.1a8.248,8.248,0,0,0-5.727,2.33l-1.393,1.4-1.348-1.348a8.269,8.269,0,0,0-5.875-2.378,7.785,7.785,0,0,0-5.563,2.406c-1.837,2.215-1.951,4.735-1.524,7.489,1.28,8.27,13.157,13,13.636,13.315a1.225,1.225,0,0,0,1.348,0c.478-.319,12.354-5.044,13.636-13.315C294.16,315.193,294.046,312.673,292.208,310.458Z" transform="translate(-265.701 -304.952)" fill="#f36665"/>
  </g>
</svg>
