<svg xmlns="http://www.w3.org/2000/svg" xmlns:xlink="http://www.w3.org/1999/xlink" width="337" height="312" viewBox="0 0 337 312"><defs><style>.a{fill:#0f2d58;}.b{opacity:0.15;clip-path:url(#a);}</style><clipPath id="a"><rect class="a" width="337" height="312" transform="translate(960 1493)"/></clipPath></defs><g class="b" transform="translate(-960 -1493)"><g transform="translate(41.599 38.499)"><path d="M0,692.068V436.633H62v33.525H95.745V403.106H62v33.506H0V181.172C0,81.271,81.171,0,180.95,0S361.9,81.271,361.9,181.172v255.44h-62V403.106H265.857v67.052H299.9V436.633h62V692.068c0,99.9-81.174,181.177-180.951,181.177S0,791.97,0,692.068ZM147.318,806.317a119.08,119.08,0,0,0,66.971.087v-48.1H147.318Zm79.027-4.165a119.532,119.532,0,0,0,70.546-83.414H265.857v39.567H226.346Zm-91.084-.123V758.306H95.745V718.739H65.007A119.547,119.547,0,0,0,135.261,802.03Zm91.084-55.8H253.8v-27.5H226.346ZM107.8,706.67h39.514v39.564H214.29V706.67H253.8V639.615H214.29V600.053H147.318v39.562H107.8Zm0,39.564h27.457v-27.5H107.8ZM265.857,706.67h33.154a120.136,120.136,0,0,0,.889-14.6V639.615H265.857ZM62,692.068a120.038,120.038,0,0,0,.889,14.6H95.745V639.615H62ZM226.346,587.981h39.511v39.562H299.9V560.492H226.346Zm0,39.562H253.8v-27.49H226.346Zm-118.541,0h27.457v-27.49H107.8Zm-45.806,0H95.745V587.981h39.516v-27.49H62Zm85.319-39.562H214.29v-27.49H147.318Zm79.027-39.562H299.9V482.23H265.857v39.562H226.346Zm-79.027,0H214.29V521.792H147.318ZM62,548.42h73.262V521.792H95.745V482.23H62Zm164.347-38.7H253.8V482.23H226.346ZM107.8,470.158h39.514v39.56H214.29v-39.56H253.8V403.106H214.29V363.544H147.318v39.562H107.8Zm0,39.56h27.457V482.23H107.8ZM226.346,351.473h39.511v39.562H299.9V323.98H226.346Zm0,39.562H253.8v-27.49H226.346Zm-118.541,0h27.457v-27.49H107.8Zm-45.806,0H95.745V351.473h39.516V323.98H62Zm85.319-39.562H214.29V323.98H147.318Zm79.027-39.564H299.9v-66.19H265.857v39.564H226.346Zm-79.027,0H214.29V285.283H147.318Zm-85.319,0h73.262V285.283H95.745V245.718H62Zm164.347-38.7H253.8V245.718H226.346ZM107.8,233.646h39.514v39.563H214.29V233.646H253.8V166.594H214.29v-39.56H147.318v39.56H107.8Zm0,39.563h27.457V245.718H107.8Zm158.052-39.562H299.9V181.172a120.155,120.155,0,0,0-.887-14.578H265.857ZM62,181.172v52.475H95.745V166.594H62.886A119.663,119.663,0,0,0,62,181.172ZM226.346,114.96h39.511v39.562H296.9a119.529,119.529,0,0,0-70.551-83.435Zm0,39.562H253.8V127.034H226.346Zm-118.541,0h27.457V127.034H107.8Zm-42.8,0H95.745V114.96h39.516V71.213A119.546,119.546,0,0,0,65,154.522Zm82.317-87.6V114.96H214.29V66.837a119.15,119.15,0,0,0-66.971.087Z" transform="translate(893.998 1454.5)"/></g></g></svg>