<svg xmlns="http://www.w3.org/2000/svg" width="233.981" height="53.76" viewBox="0 0 233.981 53.76"><defs><style>.a{fill:#fff;}.b{fill:#002b51;}.c{fill:#da0021;}</style></defs><g transform="translate(-129.48 -113.72)"><g transform="translate(129.48 113.72)"><path class="a" d="M183.243,140.6a26.882,26.882,0,1,1-26.88-26.88A26.88,26.88,0,0,1,183.243,140.6Z" transform="translate(-129.48 -113.72)"/><g transform="translate(1.578 1.519)"><path class="b" d="M169.246,138.908a8.883,8.883,0,0,0-12.633,2.648,8.875,8.875,0,0,1-16.051-2.441h0c-.012-.037-.017-.065-.026-.095s-.016-.074-.028-.113a11.366,11.366,0,0,1-.458-3.529c0-7.958,8.172-16.822,19.93-16.822,12.046,0,18.939,9.17,20.722,14.268-.036-.1-.064-.181-.094-.271a25.368,25.368,0,0,0-49.363,8.228c0,12.522,9.031,23.24,21.562,23.24,9.988,0,16.7-5.6,19.779-13.322A9.771,9.771,0,0,0,169.246,138.908Z" transform="translate(-131.244 -115.418)"/><g transform="translate(8.804 3.138)"><path class="c" d="M181.9,133.688c-1.486-4.974-8.424-14.761-20.877-14.761-11.758,0-19.93,8.864-19.93,16.822a11.366,11.366,0,0,0,.458,3.529,7.43,7.43,0,0,1-.231-1.809c0-8.29,8.3-14.033,16.83-14.033a20.913,20.913,0,0,1,20.915,20.911A23.056,23.056,0,0,1,166.283,165v.007A25.413,25.413,0,0,0,181.9,133.688Z" transform="translate(-141.088 -118.927)"/></g></g></g><g transform="translate(194.461 123.804)"><path class="a" d="M207.878,126.9v10.251h-2V126.9H202.23v-1.679h9.294V126.9Z" transform="translate(-202.145 -125.019)"/><path class="a" d="M216.14,137.154h-1.935V125.225h1.935v4.382a2.78,2.78,0,0,1,2.327-1.232,3.1,3.1,0,0,1,2.439,1.035,4.026,4.026,0,0,1,.917,2.764v4.981H219.87v-4.484a3.674,3.674,0,0,0-.444-2.028,1.54,1.54,0,0,0-1.368-.659,1.6,1.6,0,0,0-.932.318,2.009,2.009,0,0,0-.7.865,4.082,4.082,0,0,0-.29,1.676Z" transform="translate(-203.41 -125.019)"/><path class="a" d="M226.611,134.1a2.293,2.293,0,0,0,.735,1.283,3.092,3.092,0,0,0,2.174.754,4.039,4.039,0,0,0,2.654-1.045l.58,1.437a4.854,4.854,0,0,1-3.285,1.2,5.066,5.066,0,0,1-3.535-1.233,4.149,4.149,0,0,1-1.362-3.234,4.528,4.528,0,0,1,1.208-3.244,4.54,4.54,0,0,1,6.3-.009,4.347,4.347,0,0,1,1.221,3.133,5.138,5.138,0,0,1-.082.958Zm-.035-1.54h4.758a2.3,2.3,0,0,0-.7-1.531,2.408,2.408,0,0,0-3.442.06A2.714,2.714,0,0,0,226.576,132.563Z" transform="translate(-204.505 -125.391)"/><path class="a" d="M243.182,131.174a4.5,4.5,0,0,0,1.232,3.218,3.906,3.906,0,0,0,2.926,1.266,4.343,4.343,0,0,0,1.737-.342,3.113,3.113,0,0,0,1.122-.719V132.27h-3.6v-1.677h5.563v4.586a5.156,5.156,0,0,1-1.976,1.549,6.537,6.537,0,0,1-2.85.608,6.171,6.171,0,1,1,0-12.342,6.149,6.149,0,0,1,4.331,1.437l-.823,1.456a5.416,5.416,0,0,0-3.508-1.216,3.91,3.91,0,0,0-2.926,1.266A4.562,4.562,0,0,0,243.182,131.174Z" transform="translate(-206.259 -124.995)"/><path class="a" d="M259.811,137.733a4.427,4.427,0,0,1-3.205-1.292,4.511,4.511,0,0,1,0-6.393,4.618,4.618,0,0,1,6.425,0,4.539,4.539,0,0,1,0,6.393A4.423,4.423,0,0,1,259.811,137.733Zm0-1.609a2.415,2.415,0,0,0,1.827-.814,2.9,2.9,0,0,0,.759-2.062,2.944,2.944,0,0,0-.759-2.063,2.4,2.4,0,0,0-1.827-.83,2.363,2.363,0,0,0-1.8.83,2.94,2.94,0,0,0-.764,2.063,2.893,2.893,0,0,0,.764,2.062A2.38,2.38,0,0,0,259.811,136.124Z" transform="translate(-207.748 -125.391)"/><path class="a" d="M270.189,135.926l2.295-6.95h2.02l-2.98,8.574h-2.669l-2.978-8.574h2.02Z" transform="translate(-208.867 -125.415)"/><path class="a" d="M278.032,134.1a2.3,2.3,0,0,0,.738,1.283,3.083,3.083,0,0,0,2.172.754,4.034,4.034,0,0,0,2.654-1.045l.582,1.437a4.858,4.858,0,0,1-3.286,1.2,5.073,5.073,0,0,1-3.535-1.233A4.159,4.159,0,0,1,276,133.265a4.542,4.542,0,0,1,1.206-3.244,4.543,4.543,0,0,1,6.3-.009,4.339,4.339,0,0,1,1.221,3.133,4.842,4.842,0,0,1-.087.958Zm-.032-1.54h4.759a2.315,2.315,0,0,0-.7-1.531,2.407,2.407,0,0,0-3.441.06A2.7,2.7,0,0,0,278,132.563Z" transform="translate(-209.936 -125.391)"/><path class="a" d="M287.609,137.534V128.96h1.83v1.284a3.052,3.052,0,0,1,1.046-.977,3.276,3.276,0,0,1,1.728-.445h.138v1.748h-.207a2.582,2.582,0,0,0-1.934.735,3.216,3.216,0,0,0-.668,2.242v3.987Z" transform="translate(-211.162 -125.399)"/><path class="a" d="M296.37,133.214v4.313h-1.934v-8.574H296.3V130.1a2.624,2.624,0,0,1,.994-.976,2.747,2.747,0,0,1,1.4-.376,3.091,3.091,0,0,1,2.439,1.035,4.03,4.03,0,0,1,.915,2.764v4.981H300.1v-4.484a3.662,3.662,0,0,0-.449-2.028,1.537,1.537,0,0,0-1.369-.659,1.612,1.612,0,0,0-.932.318,1.973,1.973,0,0,0-.69.865A3.99,3.99,0,0,0,296.37,133.214Z" transform="translate(-211.884 -125.391)"/><path class="a" d="M314.579,128.747a2.85,2.85,0,0,1,2.346,1.035,4.274,4.274,0,0,1,.837,2.764v4.981h-1.915v-4.484a4.3,4.3,0,0,0-.368-2.028,1.274,1.274,0,0,0-1.2-.659,1.383,1.383,0,0,0-.867.283,1.944,1.944,0,0,0-.59.83,4.158,4.158,0,0,0-.242,1.575v4.484h-1.915v-4.484a4.222,4.222,0,0,0-.377-2.028,1.283,1.283,0,0,0-1.2-.659,1.309,1.309,0,0,0-.848.283,2.164,2.164,0,0,0-.591.83,4.562,4.562,0,0,0-.255,1.678v4.381h-1.918v-8.574h1.815V130.1a2.357,2.357,0,0,1,2.223-1.351,2.483,2.483,0,0,1,2.363,1.557,3.273,3.273,0,0,1,1.069-1.164A3.03,3.03,0,0,1,314.579,128.747Z" transform="translate(-213.049 -125.391)"/><path class="a" d="M323.067,134.1a2.327,2.327,0,0,0,.733,1.283,3.1,3.1,0,0,0,2.177.754,4.035,4.035,0,0,0,2.653-1.045l.582,1.437a4.866,4.866,0,0,1-3.288,1.2,5.059,5.059,0,0,1-3.534-1.233,4.154,4.154,0,0,1-1.36-3.234,4.537,4.537,0,0,1,1.2-3.244,4.539,4.539,0,0,1,6.3-.009,4.332,4.332,0,0,1,1.225,3.133,4.983,4.983,0,0,1-.085.958Zm-.035-1.54h4.758a2.318,2.318,0,0,0-.7-1.531,2.408,2.408,0,0,0-3.442.06A2.693,2.693,0,0,0,323.032,132.563Z" transform="translate(-214.692 -125.391)"/><path class="a" d="M334.576,133.214v4.313h-1.935v-8.574h1.865V130.1a2.633,2.633,0,0,1,.995-.976,2.753,2.753,0,0,1,1.4-.376,3.1,3.1,0,0,1,2.44,1.035,4.03,4.03,0,0,1,.915,2.764v4.981h-1.949v-4.484a3.664,3.664,0,0,0-.446-2.028,1.543,1.543,0,0,0-1.371-.659,1.621,1.621,0,0,0-.933.318,2.02,2.02,0,0,0-.691.865A4.053,4.053,0,0,0,334.576,133.214Z" transform="translate(-215.919 -125.391)"/><path class="a" d="M345.837,125.895v2.756H347.7v1.575h-1.867v4.365a1.014,1.014,0,0,0,.3.846,1.354,1.354,0,0,0,.849.232h.718v1.557h-1.181a2.816,2.816,0,0,1-2.02-.615,2.436,2.436,0,0,1-.634-1.832v-4.552H342.4v-1.575h1.473v-2.756Z" transform="translate(-216.949 -125.09)"/><path class="a" d="M359.536,137.733a4.437,4.437,0,0,1-3.21-1.292,4.517,4.517,0,0,1,0-6.393,4.622,4.622,0,0,1,6.428,0,4.537,4.537,0,0,1,0,6.393A4.425,4.425,0,0,1,359.536,137.733Zm0-1.609a2.406,2.406,0,0,0,1.822-.814,2.885,2.885,0,0,0,.764-2.062,2.932,2.932,0,0,0-.764-2.063,2.4,2.4,0,0,0-3.628,0,2.941,2.941,0,0,0-.76,2.063,2.894,2.894,0,0,0,.76,2.062A2.39,2.39,0,0,0,359.536,136.124Z" transform="translate(-218.28 -125.391)"/><path class="a" d="M367.319,127.672A2.356,2.356,0,0,1,368,125.85a2.947,2.947,0,0,1,2.064-.625H371v1.557h-.565a1.356,1.356,0,0,0-.847.232,1.01,1.01,0,0,0-.3.847v.719H371v1.575h-1.711v7h-1.969v-7h-1.471V128.58h1.471Z" transform="translate(-219.426 -125.019)"/><path class="a" d="M205.575,149.346V152.1h1.867v1.575h-1.867v4.364a1.015,1.015,0,0,0,.3.847,1.365,1.365,0,0,0,.849.233h.719v1.556H206.26a2.817,2.817,0,0,1-2.02-.616,2.443,2.443,0,0,1-.633-1.831v-4.552h-1.471V152.1h1.471v-2.755Z" transform="translate(-202.135 -127.567)"/><path class="a" d="M211.815,160.6H209.88V148.675h1.935v4.382a2.78,2.78,0,0,1,2.329-1.232,3.1,3.1,0,0,1,2.438,1.036,4.013,4.013,0,0,1,.915,2.765v4.98h-1.952v-4.484a3.678,3.678,0,0,0-.443-2.029,1.544,1.544,0,0,0-1.37-.658,1.612,1.612,0,0,0-.933.317,2.015,2.015,0,0,0-.691.864,4.031,4.031,0,0,0-.293,1.678Z" transform="translate(-202.953 -127.496)"/><path class="a" d="M222.284,157.552a2.318,2.318,0,0,0,.739,1.285,3.087,3.087,0,0,0,2.173.752,4.033,4.033,0,0,0,2.652-1.045l.581,1.439a4.86,4.86,0,0,1-3.287,1.2,5.055,5.055,0,0,1-3.533-1.232,4.156,4.156,0,0,1-1.363-3.235,4.511,4.511,0,0,1,1.208-3.241,4.534,4.534,0,0,1,6.3-.011,4.324,4.324,0,0,1,1.227,3.133,5.035,5.035,0,0,1-.087.957Zm-.031-1.539h4.757a2.326,2.326,0,0,0-.7-1.532,2.415,2.415,0,0,0-3.445.06A2.707,2.707,0,0,0,222.253,156.013Z" transform="translate(-204.048 -127.868)"/><path class="a" d="M242.769,155.9l3.441,4.707h-2.362l-3.2-4.57h-1.2v4.57h-1.987V148.675h3.852a4.925,4.925,0,0,1,3.321,1.01,3.665,3.665,0,0,1,.018,5.34A4.25,4.25,0,0,1,242.769,155.9Zm1.013-3.542a1.777,1.777,0,0,0-.679-1.506,3.754,3.754,0,0,0-2.232-.513h-1.42v4.04h1.42a3.759,3.759,0,0,0,2.232-.514A1.781,1.781,0,0,0,243.783,152.355Z" transform="translate(-205.866 -127.496)"/><path class="a" d="M249.986,157.552a2.3,2.3,0,0,0,.734,1.285,3.09,3.09,0,0,0,2.173.752,4.034,4.034,0,0,0,2.655-1.045l.582,1.439a4.873,4.873,0,0,1-3.289,1.2,5.065,5.065,0,0,1-3.534-1.232,4.16,4.16,0,0,1-1.36-3.235,4.522,4.522,0,0,1,1.207-3.241,4.536,4.536,0,0,1,6.3-.011,4.329,4.329,0,0,1,1.224,3.133,5.037,5.037,0,0,1-.087.957Zm-.037-1.539h4.758a2.3,2.3,0,0,0-.7-1.532,2.41,2.41,0,0,0-3.442.06A2.712,2.712,0,0,0,249.95,156.013Z" transform="translate(-206.974 -127.868)"/><path class="a" d="M264.131,161.182a3.363,3.363,0,0,1-2.636-1.215V164.3h-1.932V152.4h1.863v1.1a3.44,3.44,0,0,1,2.7-1.3,3.839,3.839,0,0,1,3.037,1.344,4.82,4.82,0,0,1,0,6.306A3.848,3.848,0,0,1,264.131,161.182Zm-2.619-3.938a2.662,2.662,0,0,0,.72,1.61,2.268,2.268,0,0,0,1.713.719,2.167,2.167,0,0,0,1.771-.813,3.177,3.177,0,0,0,.658-2.062,3.226,3.226,0,0,0-.658-2.063,2.151,2.151,0,0,0-1.771-.83,2.268,2.268,0,0,0-1.713.719,2.683,2.683,0,0,0-.72,1.625A6.044,6.044,0,0,0,261.512,157.244Z" transform="translate(-208.2 -127.868)"/><path class="a" d="M276.877,156.739v-4.313h1.952V161h-1.865v-1.13a2.431,2.431,0,0,1-.96.959,3.035,3.035,0,0,1-1.455.377,3.088,3.088,0,0,1-2.421-1.027,4.015,4.015,0,0,1-.915-2.773v-4.98h1.935v4.5a3.569,3.569,0,0,0,.452,2.012,1.559,1.559,0,0,0,1.377.658,1.627,1.627,0,0,0,.924-.318,1.986,1.986,0,0,0,.7-.847A4.282,4.282,0,0,0,276.877,156.739Z" transform="translate(-209.431 -127.892)"/><path class="a" d="M286.819,151.824a3.842,3.842,0,0,1,3.039,1.344,4.823,4.823,0,0,1,0,6.306,3.852,3.852,0,0,1-3.039,1.335,3.423,3.423,0,0,1-2.7-1.283V160.6H282.25V148.675h1.935v4.382A3.431,3.431,0,0,1,286.819,151.824Zm-2.616,5.048a2.668,2.668,0,0,0,.716,1.61,2.268,2.268,0,0,0,1.713.719,2.163,2.163,0,0,0,1.772-.813,3.161,3.161,0,0,0,.656-2.062,3.21,3.21,0,0,0-.656-2.063,2.147,2.147,0,0,0-1.772-.83,2.268,2.268,0,0,0-1.713.719,2.689,2.689,0,0,0-.716,1.625A5.738,5.738,0,0,0,284.2,156.872Z" transform="translate(-210.596 -127.496)"/><path class="a" d="M293.9,160.6V148.675h1.935V160.6Z" transform="translate(-211.827 -127.496)"/><path class="a" d="M300.875,149.579a1.187,1.187,0,0,1-.368.865,1.238,1.238,0,0,1-1.763,0,1.186,1.186,0,0,1-.37-.865,1.251,1.251,0,0,1,2.5,0Zm-2.208,10.988v-8.574h1.949v8.574Z" transform="translate(-212.299 -127.46)"/><path class="a" d="M302.867,156.7a4.226,4.226,0,0,1,1.4-3.176A4.916,4.916,0,0,1,307.8,152.2a5.227,5.227,0,0,1,3.149,1.079l-.632,1.523a4.131,4.131,0,0,0-2.517-.993,2.873,2.873,0,0,0-2.14.838,2.831,2.831,0,0,0-.821,2.055,2.8,2.8,0,0,0,.821,2.045,2.882,2.882,0,0,0,2.14.83,4.262,4.262,0,0,0,2.55-.976l.635,1.524a5.2,5.2,0,0,1-3.185,1.061,4.932,4.932,0,0,1-3.532-1.317A4.2,4.2,0,0,1,302.867,156.7Z" transform="translate(-212.774 -127.868)"/><path class="a" d="M323.09,161.182a4.436,4.436,0,0,1-3.211-1.291,4.521,4.521,0,0,1,0-6.393,4.618,4.618,0,0,1,6.427,0,4.534,4.534,0,0,1,0,6.393A4.425,4.425,0,0,1,323.09,161.182Zm0-1.609a2.4,2.4,0,0,0,1.82-.813,2.888,2.888,0,0,0,.765-2.062,2.931,2.931,0,0,0-.765-2.063,2.4,2.4,0,0,0-3.627,0,2.941,2.941,0,0,0-.762,2.063,2.9,2.9,0,0,0,.762,2.062A2.4,2.4,0,0,0,323.09,159.573Z" transform="translate(-214.431 -127.868)"/><path class="a" d="M330.872,151.123a2.351,2.351,0,0,1,.677-1.823,2.943,2.943,0,0,1,2.062-.625h.938v1.558h-.563a1.346,1.346,0,0,0-.846.231,1.01,1.01,0,0,0-.3.847v.719h1.712V153.6h-1.712v7h-1.966v-7H329.4V152.03h1.472Z" transform="translate(-215.576 -127.496)"/><path class="a" d="M344.716,154.22l4.961-5.545h2.416l-5.324,5.922,5.306,6.008h-2.482l-4.877-5.545V160.6h-1.988V148.675h1.988Z" transform="translate(-216.984 -127.496)"/><path class="a" d="M357.482,161.182a4.435,4.435,0,0,1-3.211-1.291,4.515,4.515,0,0,1,0-6.393,4.618,4.618,0,0,1,6.427,0,4.534,4.534,0,0,1,0,6.393A4.418,4.418,0,0,1,357.482,161.182Zm0-1.609a2.417,2.417,0,0,0,1.823-.813,2.888,2.888,0,0,0,.76-2.062,2.931,2.931,0,0,0-.76-2.063,2.4,2.4,0,0,0-3.629,0,2.937,2.937,0,0,0-.762,2.063,2.893,2.893,0,0,0,.762,2.062A2.4,2.4,0,0,0,357.482,159.573Z" transform="translate(-218.063 -127.868)"/><path class="a" d="M364.96,160.984V152.41h1.83v1.283a3.04,3.04,0,0,1,1.046-.975,3.262,3.262,0,0,1,1.728-.446h.14v1.747h-.209a2.572,2.572,0,0,0-1.933.737A3.2,3.2,0,0,0,366.9,157v3.988Z" transform="translate(-219.332 -127.876)"/><path class="a" d="M372.965,157.552a2.308,2.308,0,0,0,.735,1.285,3.092,3.092,0,0,0,2.173.752,4.04,4.04,0,0,0,2.655-1.045l.58,1.439a4.872,4.872,0,0,1-3.288,1.2,5.065,5.065,0,0,1-3.535-1.232,4.161,4.161,0,0,1-1.359-3.235,4.522,4.522,0,0,1,1.207-3.241,4.532,4.532,0,0,1,6.3-.011,4.33,4.33,0,0,1,1.225,3.133,4.961,4.961,0,0,1-.087.957Zm-.036-1.539h4.757a2.305,2.305,0,0,0-.7-1.532,2.412,2.412,0,0,0-3.443.06A2.7,2.7,0,0,0,372.929,156.013Z" transform="translate(-219.962 -127.868)"/><path class="a" d="M386.167,155.449h2.018a1.393,1.393,0,0,0-.65-1.259,3.5,3.5,0,0,0-1.882-.419H385.6a6.38,6.38,0,0,0-2.464.547l-.493-1.523a7.666,7.666,0,0,1,2.975-.6h.036a5.617,5.617,0,0,1,3.311.83,3.041,3.041,0,0,1,1.155,2.646v5.3h-1.847v-.941a3.752,3.752,0,0,1-1.345.847,4.542,4.542,0,0,1-1.615.3,3.693,3.693,0,0,1-2.49-.813,2.521,2.521,0,0,1-.952-1.994,2.59,2.59,0,0,1,1.182-2.174A5.461,5.461,0,0,1,386.167,155.449Zm-.532,4.193a3.3,3.3,0,0,0,1.49-.368,2.675,2.675,0,0,0,1.06-.848v-1.454h-1.728a4.008,4.008,0,0,0-2.053.377,1.256,1.256,0,0,0-.566,1.027,1.088,1.088,0,0,0,.478.907A2.162,2.162,0,0,0,385.634,159.642Z" transform="translate(-221.118 -127.868)"/></g></g></svg>