<svg xmlns="http://www.w3.org/2000/svg" width="68.264" height="68.212" viewBox="0 0 68.264 68.212"><defs><style>.a{fill:#040505;}.b{fill:#e82418;}.c{fill:#fff;}.d{fill:#1f56a4;}.e{fill:#298836;}.f{fill:#ffea56;}.g{fill:#ec5026;}.h{fill:#191717;}.i{fill:#005488;}.j{fill:#f9830e;}.k{fill:#bc231c;}.l{fill:#072a51;}.m{fill:#277ec3;}.n{fill:#0c5454;}</style></defs><g transform="translate(-98.293 -97.699)"><rect class="a" width="68.264" height="57.341" transform="translate(98.293 97.699)"/><rect class="b" width="2.731" height="11.007" transform="translate(98.293 154.903)"/><rect class="c" width="2.731" height="11.007" transform="translate(101.023 154.903)"/><rect class="d" width="2.731" height="11.007" transform="translate(103.754 154.903)"/><rect class="e" width="2.731" height="11.007" transform="translate(106.484 154.903)"/><rect class="f" width="2.731" height="11.007" transform="translate(109.215 154.903)"/><rect class="g" width="2.731" height="11.007" transform="translate(111.945 154.903)"/><rect class="h" width="2.731" height="11.007" transform="translate(114.676 154.903)"/><rect class="e" width="2.731" height="11.007" transform="translate(117.406 154.903)"/><rect class="b" width="2.731" height="11.007" transform="translate(120.137 154.903)"/><rect class="c" width="2.731" height="11.007" transform="translate(122.867 154.903)"/><rect class="i" width="2.731" height="11.007" transform="translate(125.598 154.903)"/><rect class="f" width="2.731" height="11.007" transform="translate(128.329 154.903)"/><rect class="h" width="2.731" height="11.007" transform="translate(131.059 154.903)"/><rect class="j" width="2.731" height="11.007" transform="translate(133.79 154.903)"/><rect class="c" width="2.731" height="11.007" transform="translate(136.52 154.903)"/><rect class="k" width="2.731" height="11.007" transform="translate(139.251 154.903)"/><rect class="l" width="2.731" height="11.007" transform="translate(141.981 154.903)"/><rect class="e" width="2.731" height="11.007" transform="translate(144.712 154.903)"/><rect class="f" width="2.731" height="11.007" transform="translate(147.442 154.903)"/><rect class="i" width="2.731" height="11.007" transform="translate(150.173 154.903)"/><rect class="b" width="2.731" height="11.007" transform="translate(152.903 154.903)"/><rect class="m" width="2.731" height="11.007" transform="translate(155.634 154.903)"/><rect class="j" width="2.731" height="11.007" transform="translate(158.364 154.903)"/><rect class="c" width="2.731" height="11.007" transform="translate(161.095 154.903)"/><rect class="n" width="2.731" height="11.007" transform="translate(163.826 154.903)"/><g transform="translate(103.613 114.218)"><path class="c" d="M149.687,244.007a4.292,4.292,0,0,1,3.081,1.171,3.886,3.886,0,0,1,1.23,2.937,3.824,3.824,0,0,1-1.242,2.923,4.415,4.415,0,0,1-3.132,1.157,4.163,4.163,0,0,1-3.006-1.157,3.857,3.857,0,0,1-1.2-2.9,3.944,3.944,0,0,1,1.211-2.96A4.223,4.223,0,0,1,149.687,244.007Zm.046,1.086a3.1,3.1,0,0,0-2.252.857,2.92,2.92,0,0,0-.882,2.189,2.866,2.866,0,0,0,.885,2.148,3.285,3.285,0,0,0,4.444-.017,2.922,2.922,0,0,0,.893-2.177,2.854,2.854,0,0,0-.893-2.134A3.034,3.034,0,0,0,149.733,245.093Z" transform="translate(-145.416 -244.007)"/><path class="c" d="M229.93,277.095v-7.937h1.821a3.152,3.152,0,0,1,2.177.7,2.48,2.48,0,0,1,.779,1.948,2.683,2.683,0,0,1-.733,1.943,2.484,2.484,0,0,1-1.868.76,3.273,3.273,0,0,1-1.113-.223v2.811Zm1.8-6.965h-.735v3.234a2.169,2.169,0,0,0,1,.246,1.545,1.545,0,0,0,1.194-.508,1.864,1.864,0,0,0,.465-1.309,1.835,1.835,0,0,0-.22-.908,1.329,1.329,0,0,0-.6-.574A2.676,2.676,0,0,0,231.728,270.129Z" transform="translate(-220.387 -266.318)"/><path class="c" d="M282.745,271.07h-3.7a1.715,1.715,0,0,0,.506,1.2,1.668,1.668,0,0,0,1.2.446,3.129,3.129,0,0,0,1.9-.64v1.017a3.473,3.473,0,0,1-.951.457,3.976,3.976,0,0,1-1.106.137,2.482,2.482,0,0,1-1.406-.36,2.617,2.617,0,0,1-.86-.968,2.96,2.96,0,0,1-.323-1.409,2.8,2.8,0,0,1,.68-1.951,2.271,2.271,0,0,1,1.766-.751,2.08,2.08,0,0,1,1.668.731,2.922,2.922,0,0,1,.623,1.96Zm-3.674-.623h2.646a1.453,1.453,0,0,0-.371-.96,1.193,1.193,0,0,0-.891-.337,1.282,1.282,0,0,0-.917.337A1.671,1.671,0,0,0,279.071,270.447Z" transform="translate(-263.037 -265.51)"/><path class="c" d="M328.717,268.35v.669a2.09,2.09,0,0,1,1.583-.771,1.744,1.744,0,0,1,.914.254,1.659,1.659,0,0,1,.643.7,3.332,3.332,0,0,1,.22,1.4v3.006h-1.04v-2.994a2.047,2.047,0,0,0-.246-1.151.94.94,0,0,0-.823-.346,1.5,1.5,0,0,0-1.251.737v3.754h-1.063V268.35Z" transform="translate(-307.077 -265.51)"/><path class="c" d="M150.623,345.061h2.68v3.383a7.3,7.3,0,0,1-2.926.64,4.342,4.342,0,0,1-3.168-1.157,3.83,3.83,0,0,1-1.186-2.854,3.97,3.97,0,0,1,1.229-2.977,4.252,4.252,0,0,1,3.08-1.189,5.459,5.459,0,0,1,1.28.146,10.5,10.5,0,0,1,1.531.534v1.166a5.616,5.616,0,0,0-2.834-.828,3.008,3.008,0,0,0-2.206.891,3.16,3.16,0,0,0,0,4.411,3.192,3.192,0,0,0,2.308.863,5.381,5.381,0,0,0,1.64-.314l.109-.034v-1.663h-1.537Z" transform="translate(-145.954 -329.966)"/><path class="c" d="M222.069,365.855a2.742,2.742,0,0,1,1.994.774,2.6,2.6,0,0,1,.794,1.946,2.473,2.473,0,0,1-.806,1.888,2.858,2.858,0,0,1-2.028.751,2.742,2.742,0,0,1-1.977-.763,2.694,2.694,0,0,1,.009-3.828A2.8,2.8,0,0,1,222.069,365.855Zm-.057.937a1.643,1.643,0,0,0-1.228.491,1.717,1.717,0,0,0-.48,1.251,1.64,1.64,0,0,0,.492,1.231,1.737,1.737,0,0,0,1.263.477,1.709,1.709,0,0,0,1.254-.483,1.788,1.788,0,0,0-.02-2.477A1.768,1.768,0,0,0,222.012,366.792Z" transform="translate(-210.915 -352.097)"/><path class="c" d="M273.708,365.957h1.128l-2.322,5.348h-.352l-2.377-5.348h1.138l1.419,3.234Z" transform="translate(-255.742 -352.188)"/><path class="c" d="M321.79,367.869h-3.7a1.717,1.717,0,0,0,.506,1.2,1.668,1.668,0,0,0,1.2.446,3.13,3.13,0,0,0,1.9-.64v1.017a3.472,3.472,0,0,1-.951.457,3.977,3.977,0,0,1-1.106.137,2.482,2.482,0,0,1-1.406-.36,2.619,2.619,0,0,1-.86-.969,2.961,2.961,0,0,1-.323-1.409,2.8,2.8,0,0,1,.68-1.951,2.271,2.271,0,0,1,1.766-.751,2.08,2.08,0,0,1,1.668.731,2.922,2.922,0,0,1,.623,1.96Zm-3.674-.623h2.645a1.453,1.453,0,0,0-.371-.96,1.193,1.193,0,0,0-.891-.337,1.282,1.282,0,0,0-.917.337A1.67,1.67,0,0,0,318.116,367.246Z" transform="translate(-297.673 -351.379)"/><path class="c" d="M368.554,365.149v1.206l.057-.091q.754-1.217,1.508-1.217a1.86,1.86,0,0,1,1.229.594l-.549.914a1.54,1.54,0,0,0-1.006-.514,1.078,1.078,0,0,0-.871.48,1.813,1.813,0,0,0-.369,1.137v2.748h-1.046v-5.257Z" transform="translate(-342.431 -351.379)"/><path class="c" d="M406.73,365.149v.669a2.091,2.091,0,0,1,1.583-.771,1.743,1.743,0,0,1,.914.254,1.66,1.66,0,0,1,.643.7,3.334,3.334,0,0,1,.22,1.4v3.006h-1.04v-2.994a2.046,2.046,0,0,0-.246-1.151.939.939,0,0,0-.823-.346,1.5,1.5,0,0,0-1.251.737v3.754h-1.063v-5.257Z" transform="translate(-376.282 -351.379)"/><path class="c" d="M457.494,366.5v3.817h-1.046V367.39a2.3,2.3,0,0,0-.234-1.22.915.915,0,0,0-.817-.346,1.225,1.225,0,0,0-.6.148,2.632,2.632,0,0,0-.62.526v3.817h-1.04v-5.257h1.04v.691a2.263,2.263,0,0,1,1.554-.794,1.708,1.708,0,0,1,1.548.949,2.347,2.347,0,0,1,1.743-.96,1.606,1.606,0,0,1,1.26.56,2.525,2.525,0,0,1,.494,1.708v3.1h-1.04V367.2a1.623,1.623,0,0,0-.269-1.006.916.916,0,0,0-.771-.349A1.6,1.6,0,0,0,457.494,366.5Z" transform="translate(-418.395 -351.289)"/><path class="c" d="M531.765,367.869h-3.7a1.716,1.716,0,0,0,.506,1.2,1.668,1.668,0,0,0,1.2.446,3.13,3.13,0,0,0,1.9-.64v1.017a3.472,3.472,0,0,1-.951.457,3.977,3.977,0,0,1-1.106.137,2.481,2.481,0,0,1-1.406-.36,2.619,2.619,0,0,1-.86-.969,2.961,2.961,0,0,1-.323-1.409,2.8,2.8,0,0,1,.68-1.951,2.271,2.271,0,0,1,1.766-.751,2.08,2.08,0,0,1,1.668.731,2.922,2.922,0,0,1,.623,1.96Zm-3.674-.623h2.646a1.453,1.453,0,0,0-.371-.96,1.194,1.194,0,0,0-.891-.337,1.282,1.282,0,0,0-.917.337A1.67,1.67,0,0,0,528.091,367.246Z" transform="translate(-483.94 -351.379)"/><path class="c" d="M577.738,365.149v.669a2.09,2.09,0,0,1,1.583-.771,1.744,1.744,0,0,1,.914.254,1.659,1.659,0,0,1,.643.7,3.334,3.334,0,0,1,.22,1.4v3.006h-1.04v-2.994a2.048,2.048,0,0,0-.246-1.151.94.94,0,0,0-.823-.346,1.5,1.5,0,0,0-1.251.737v3.754h-1.063v-5.257Z" transform="translate(-527.981 -351.379)"/><path class="c" d="M620.1,358.261l1.954-1.92v1.086h1.663v.937H622.05v2.573q0,.9.748.9a2.322,2.322,0,0,0,1.183-.371v.971a2.625,2.625,0,0,1-1.308.337,1.734,1.734,0,0,1-1.189-.417,1.184,1.184,0,0,1-.246-.283,1.5,1.5,0,0,1-.163-.411,4.621,4.621,0,0,1-.066-.969v-2.331H620.1Z" transform="translate(-566.5 -343.657)"/><path class="c" d="M148,446.511v-7.994h2.531a2.609,2.609,0,0,1,1.823.617,2.127,2.127,0,0,1,.68,1.657,2.217,2.217,0,0,1-.349,1.234,1.992,1.992,0,0,1-.954.78,4.853,4.853,0,0,1-1.737.243h-.846v3.463Zm2.331-6.977h-1.183v2.5H150.4a1.586,1.586,0,0,0,1.074-.329,1.18,1.18,0,0,0,.377-.94Q151.848,439.534,150.328,439.534Z" transform="translate(-147.706 -416.555)"/><path class="c" d="M200.1,464.046v2.234q0,.269.183.269a1.257,1.257,0,0,0,.589-.28v.634a3.4,3.4,0,0,1-.569.311,1.234,1.234,0,0,1-.449.083q-.668,0-.788-.526a2.263,2.263,0,0,1-1.411.514,1.245,1.245,0,0,1-.914-.363,1.231,1.231,0,0,1-.366-.911,1.283,1.283,0,0,1,.357-.888,2.417,2.417,0,0,1,1.014-.62l1.331-.457v-.28a.838.838,0,0,0-.949-.948,2.285,2.285,0,0,0-1.657.88V462.56a2.159,2.159,0,0,1,1.743-.714,2.011,2.011,0,0,1,1.366.446,1.4,1.4,0,0,1,.309.38,1.371,1.371,0,0,1,.174.474A7.021,7.021,0,0,1,200.1,464.046Zm-1.023,2.12v-1.56l-.7.268a2.355,2.355,0,0,0-.751.426.77.77,0,0,0-.011,1.066.736.736,0,0,0,.54.206A1.307,1.307,0,0,0,199.079,466.166Z" transform="translate(-190.622 -437.25)"/><path class="c" d="M243.931,461.949v1.206l.057-.091q.754-1.217,1.508-1.217a1.86,1.86,0,0,1,1.228.594l-.549.914a1.541,1.541,0,0,0-1.006-.514,1.078,1.078,0,0,0-.871.48,1.813,1.813,0,0,0-.369,1.137v2.748h-1.046v-5.257Z" transform="translate(-231.88 -437.25)"/><path class="c" d="M278.866,455.062l1.954-1.92v1.086h1.663v.937H280.82v2.573q0,.9.749.9a2.322,2.322,0,0,0,1.183-.371v.971a2.625,2.625,0,0,1-1.308.337,1.734,1.734,0,0,1-1.189-.417,1.184,1.184,0,0,1-.246-.283,1.5,1.5,0,0,1-.163-.411,4.611,4.611,0,0,1-.066-.969v-2.331h-.914Z" transform="translate(-263.798 -429.528)"/><path class="c" d="M320.767,461.949v.669a2.09,2.09,0,0,1,1.583-.771,1.743,1.743,0,0,1,.914.254,1.659,1.659,0,0,1,.643.7,3.334,3.334,0,0,1,.22,1.4v3.005h-1.04v-2.994a2.048,2.048,0,0,0-.246-1.151.94.94,0,0,0-.823-.346,1.5,1.5,0,0,0-1.251.737v3.754H319.7v-5.257Z" transform="translate(-300.025 -437.25)"/><path class="c" d="M370.041,464.669h-3.7a1.716,1.716,0,0,0,.506,1.2,1.668,1.668,0,0,0,1.2.446,3.13,3.13,0,0,0,1.9-.64v1.017a3.475,3.475,0,0,1-.951.457,3.976,3.976,0,0,1-1.106.137,2.482,2.482,0,0,1-1.406-.36,2.62,2.62,0,0,1-.86-.969,2.961,2.961,0,0,1-.323-1.409,2.8,2.8,0,0,1,.68-1.951,2.27,2.27,0,0,1,1.766-.751,2.08,2.08,0,0,1,1.668.731,2.922,2.922,0,0,1,.623,1.96Zm-3.674-.623h2.646a1.453,1.453,0,0,0-.371-.96,1.194,1.194,0,0,0-.891-.337,1.282,1.282,0,0,0-.917.337A1.671,1.671,0,0,0,366.367,464.046Z" transform="translate(-340.476 -437.25)"/><path class="c" d="M416.8,461.949v1.206l.057-.091q.754-1.217,1.509-1.217a1.86,1.86,0,0,1,1.228.594l-.549.914a1.541,1.541,0,0,0-1.006-.514,1.078,1.078,0,0,0-.871.48,1.813,1.813,0,0,0-.369,1.137v2.748h-1.046v-5.257Z" transform="translate(-385.234 -437.25)"/><path class="c" d="M453.916,466.829v-1.12a4.738,4.738,0,0,0,.9.5,2.1,2.1,0,0,0,.774.191.969.969,0,0,0,.56-.16.459.459,0,0,0,.234-.383.515.515,0,0,0-.151-.38,3.523,3.523,0,0,0-.654-.437,4.631,4.631,0,0,1-1.317-.957,1.373,1.373,0,0,1-.311-.866,1.215,1.215,0,0,1,.471-.989,1.866,1.866,0,0,1,1.214-.383,3.345,3.345,0,0,1,1.583.434v1.029a3.167,3.167,0,0,0-1.514-.56.842.842,0,0,0-.489.129.4.4,0,0,0-.186.34.489.489,0,0,0,.168.349,2.872,2.872,0,0,0,.591.4l.371.211q1.315.743,1.315,1.645a1.31,1.31,0,0,1-.506,1.06,1.985,1.985,0,0,1-1.3.414,3.173,3.173,0,0,1-.834-.1A5.6,5.6,0,0,1,453.916,466.829Z" transform="translate(-419.083 -437.25)"/><path class="c" d="M493.8,438.618h1.04v3.417a2.012,2.012,0,0,1,1.617-.794,1.732,1.732,0,0,1,.943.263,1.593,1.593,0,0,1,.62.726,3.59,3.59,0,0,1,.2,1.377V446.6h-1.04v-3.251a1.437,1.437,0,0,0-.283-.928.911.911,0,0,0-.746-.352,1.26,1.26,0,0,0-.646.177,2.93,2.93,0,0,0-.668.589V446.6H493.8Z" transform="translate(-454.461 -416.644)"/><path class="c" d="M543.745,443.172a.61.61,0,0,1,.44.177.581.581,0,0,1,.183.434.593.593,0,0,1-.183.434.6.6,0,0,1-.44.183.576.576,0,0,1-.423-.186.6.6,0,0,1-.183-.431.59.59,0,0,1,.183-.426A.577.577,0,0,1,543.745,443.172Zm-.514,2.211h1.04v5.257h-1.04Z" transform="translate(-498.232 -420.684)"/><path class="c" d="M563.788,470.694v-7.937h1.821a3.151,3.151,0,0,1,2.177.7,2.48,2.48,0,0,1,.779,1.948,2.682,2.682,0,0,1-.733,1.943,2.484,2.484,0,0,1-1.868.76,3.274,3.274,0,0,1-1.113-.223v2.811Zm1.8-6.965h-.736v3.234a2.171,2.171,0,0,0,1,.246,1.544,1.544,0,0,0,1.194-.509,1.864,1.864,0,0,0,.465-1.308,1.836,1.836,0,0,0-.219-.908,1.33,1.33,0,0,0-.6-.574A2.675,2.675,0,0,0,565.586,463.728Z" transform="translate(-516.549 -438.058)"/></g></g></svg>