<svg xmlns="http://www.w3.org/2000/svg" width="41" height="41" viewBox="0 0 41 41"><defs><style>.a{fill:#222;}.b{fill:#fff;}.c{fill:none;}</style></defs><g transform="translate(-1393 -2464)"><circle class="a" cx="20.5" cy="20.5" r="20.5" transform="translate(1393 2464)"/><g transform="translate(1402.391 2473)"><path class="b" d="M-1199.828,1055.191a11.917,11.917,0,0,0,12.255-11.761q0-.268-.012-.534a8.578,8.578,0,0,0,2.149-2.14,8.881,8.881,0,0,1-2.474.651,4.183,4.183,0,0,0,1.894-2.287,8.852,8.852,0,0,1-2.735,1,4.389,4.389,0,0,0-3.144-1.306,4.224,4.224,0,0,0-4.308,4.133,3.978,3.978,0,0,0,.112.943,12.407,12.407,0,0,1-8.878-4.319,4,4,0,0,0-.583,2.078,4.09,4.09,0,0,0,1.917,3.441,4.42,4.42,0,0,1-1.951-.517c0,.017,0,.035,0,.052a4.182,4.182,0,0,0,3.456,4.053,4.494,4.494,0,0,1-1.135.146,4.456,4.456,0,0,1-.81-.075,4.293,4.293,0,0,0,4.024,2.871,8.874,8.874,0,0,1-5.35,1.77,9.09,9.09,0,0,1-1.027-.057,12.57,12.57,0,0,0,6.6,1.857" transform="translate(1208.141 -1034.542)"/><rect class="c" width="24" height="24" rx="12" transform="translate(-0.391 0)"/></g></g></svg>