<svg xmlns="http://www.w3.org/2000/svg" width="41" height="41" viewBox="0 0 41 41"><defs><style>.a{fill:#222;}.b{fill:#fff;}.c{fill:none;}</style></defs><g transform="translate(-1542 -2464)"><circle class="a" cx="20.5" cy="20.5" r="20.5" transform="translate(1542 2464)"/><g transform="translate(1550.195 2473)"><path class="b" d="M-166.426-68.337h3.285v-8.3h3.042l.316-3.131s.066-.154-.266-.154h-3.091v-2.363A1.6,1.6,0,0,1-161.5-84.07h1.815v-2.764a7.137,7.137,0,0,0-2.672-.329,4.62,4.62,0,0,0-2.974,1.227,3.373,3.373,0,0,0-1.1,2.1v3.919h-3.112v3.285h3.112Z" transform="translate(176.377 89.728)"/><rect class="c" width="24" height="24" transform="translate(-0.195 0)"/></g></g></svg>