<svg xmlns="http://www.w3.org/2000/svg" width="46" height="46" viewBox="0 0 46 46"><defs><style>.a{fill:#222;}.b{fill:none;}.c{fill:#fff;}</style></defs><g transform="translate(-1290 -2474)"><circle class="a" cx="23" cy="23" r="23" transform="translate(1290 2474)"/><rect class="b" width="24" height="24" transform="translate(1301 2485)"/><g transform="translate(536.673 2140.673)"><path class="c" d="M914.5,480.49h0v-6.058c0-2.964-.638-5.247-4.1-5.247a3.6,3.6,0,0,0-3.24,1.78h-.048v-1.5h-3.285v11.028h3.421v-5.461c0-1.438.273-2.828,2.053-2.828,1.754,0,1.781,1.641,1.781,2.92v5.369Zm0,0" transform="translate(-129.981 -115.971)"/><rect class="c" width="3.425" height="11.028" transform="translate(768.273 353.49)"/><path class="c" d="M769.984,348a1.993,1.993,0,1,0,1.984,1.984A1.984,1.984,0,0,0,769.984,348Zm0,0"/></g></g></svg>