<svg xmlns="http://www.w3.org/2000/svg" width="41" height="41" viewBox="0 0 41 41"><defs><style>.a{fill:#222;}.b{fill:none;}.c{fill:#fff;}</style></defs><g transform="translate(-1491 -2464)"><circle class="a" cx="20.5" cy="20.5" r="20.5" transform="translate(1491 2464)"/><g transform="translate(1500 2473)"><rect class="b" width="24" height="24"/><g transform="translate(1070.64 177.429)"><path class="c" d="M-1055.2-173.429h-6.23a5.212,5.212,0,0,0-5.206,5.205v6.229a5.212,5.212,0,0,0,5.206,5.2h6.23a5.211,5.211,0,0,0,5.2-5.2v-6.229A5.211,5.211,0,0,0-1055.2-173.429Zm-2.846,13.442a5.093,5.093,0,0,1-5.087-5.086,5.092,5.092,0,0,1,5.087-5.086,5.092,5.092,0,0,1,5.086,5.086A5.092,5.092,0,0,1-1058.05-159.987Zm5.056-9.115a1.117,1.117,0,0,1-1.116-1.117,1.117,1.117,0,0,1,1.116-1.118,1.119,1.119,0,0,1,1.118,1.118A1.118,1.118,0,0,1-1052.994-169.1Z"/><path class="c" d="M-1048.812-159.639a3.392,3.392,0,0,0-3.388,3.388,3.392,3.392,0,0,0,3.388,3.387,3.391,3.391,0,0,0,3.387-3.387A3.391,3.391,0,0,0-1048.812-159.639Z" transform="translate(-9.238 -8.822)"/></g></g></g></svg>