<svg xmlns="http://www.w3.org/2000/svg" width="41" height="41" viewBox="0 0 41 41"><defs><style>.a{fill:#222;}.b{fill:none;}.c{fill:#fff;}</style></defs><g transform="translate(-1440 -2464)"><circle class="a" cx="20.5" cy="20.5" r="20.5" transform="translate(1440 2464)"/><g transform="translate(1448.586 2473)"><rect class="b" width="24" height="24" transform="translate(0.414)"/><path class="c" d="M9894.439,4355.362h0c-.048,0-4.8-.043-6.268-.178-.069-.012-.153-.022-.248-.033h0a2.774,2.774,0,0,1-1.781-.723,2.663,2.663,0,0,1-.573-1.08,5.108,5.108,0,0,1-.159-.676h0a26.41,26.41,0,0,1-.184-2.862v-1.342a26.387,26.387,0,0,1,.184-2.862h0a5.089,5.089,0,0,1,.159-.676,2.663,2.663,0,0,1,.573-1.08,2.393,2.393,0,0,1,.953-.593,3.342,3.342,0,0,1,.775-.145h0l.114-.011c2.55-.177,6.411-.179,6.449-.179h.008c.038,0,3.9,0,6.45.179l.113.011h0a3.324,3.324,0,0,1,.775.145,2.393,2.393,0,0,1,.953.593,2.677,2.677,0,0,1,.574,1.08,5.322,5.322,0,0,1,.159.676h0a26.352,26.352,0,0,1,.184,2.862v1.342a26.376,26.376,0,0,1-.184,2.862h0a5.322,5.322,0,0,1-.159.676,2.677,2.677,0,0,1-.574,1.08,2.413,2.413,0,0,1-.953.594,3.4,3.4,0,0,1-.776.144H9901l-.109.011C9898.358,4355.354,9894.479,4355.361,9894.439,4355.362Zm-1.9-8.9v4.97l4.98-2.476-4.981-2.494Z" transform="translate(-9881.809 -4336.92)"/></g></g></svg>