<svg id="그룹_2089" data-name="그룹 2089" xmlns="http://www.w3.org/2000/svg" width="10.771" height="16.757" viewBox="0 0 10.771 16.757">
  <g id="그룹_2087" data-name="그룹 2087" transform="translate(0 0)" opacity="0.4">
    <path id="패스_2993" data-name="패스 2993" d="M1614.394,317.772a2.394,2.394,0,0,1-1.692-4.086l5.985-5.985a2.393,2.393,0,0,1,3.385,3.385l-5.985,5.985A2.384,2.384,0,0,1,1614.394,317.772Z" transform="translate(-1612 -307)" fill="#fc0300"/>
  </g>
  <g id="그룹_2088" data-name="그룹 2088" transform="translate(0 6.323)" opacity="0.4">
    <path id="패스_2994" data-name="패스 2994" d="M1620.041,322.435a2.382,2.382,0,0,1-1.693-.7l-5.647-5.647a2.393,2.393,0,1,1,3.385-3.385l5.647,5.647a2.394,2.394,0,0,1-1.692,4.086Z" transform="translate(-1612 -312)" fill="#0045e6"/>
  </g>
</svg>
