<svg xmlns="http://www.w3.org/2000/svg" width="55.258" height="48" viewBox="0 0 55.258 48">
  <g id="그룹_1756" data-name="그룹 1756" transform="translate(-3048.577 -1128)">
    <g id="그룹_1743" data-name="그룹 1743" transform="translate(3065.518 1139.294)">
      <g id="그룹_1739" data-name="그룹 1739" transform="translate(1.882 30.118)">
        <path id="패스_2873" data-name="패스 2873" d="M3144.577,1310.588h-15.059a.941.941,0,0,1-.941-.941v-4.706a.941.941,0,0,1,.941-.941h15.059a.941.941,0,0,1,.941.941v4.706A.941.941,0,0,1,3144.577,1310.588Zm-14.118-1.882h13.177v-2.823h-13.177Z" transform="translate(-3128.577 -1304)" fill="#fff"/>
      </g>
      <g id="그룹_1740" data-name="그룹 1740" transform="translate(7.529 0)">
        <path id="패스_2874" data-name="패스 2874" d="M3157.283,1192.941a.941.941,0,0,1-.941-.941v-13.177a.941.941,0,1,0-1.882,0V1192a.941.941,0,0,1-1.883,0v-13.177a2.824,2.824,0,0,1,5.647,0V1192A.941.941,0,0,1,3157.283,1192.941Z" transform="translate(-3152.577 -1176)" fill="#fff"/>
      </g>
      <g id="그룹_1741" data-name="그룹 1741" transform="translate(3.765 2.824)">
        <path id="패스_2875" data-name="패스 2875" d="M3141.283,1202.118a.941.941,0,0,1-.941-.941v-10.353a.941.941,0,0,0-1.882,0v6.588a.941.941,0,1,1-1.882,0v-6.588a2.824,2.824,0,0,1,5.647,0v10.353A.941.941,0,0,1,3141.283,1202.118Z" transform="translate(-3136.577 -1188)" fill="#fff"/>
      </g>
      <g id="그룹_1742" data-name="그룹 1742" transform="translate(0 1.882)">
        <path id="패스_2876" data-name="패스 2876" d="M3138.459,1214.118H3123.4a.941.941,0,0,1-.941-.941v-2.985a.949.949,0,0,0-.276-.666l-.779-.779a2.806,2.806,0,0,1-.827-2v-15.221a2.823,2.823,0,1,1,5.647,0v6.588a.941.941,0,0,1-1.882,0v-6.588a.941.941,0,0,0-1.882,0v15.221a.948.948,0,0,0,.276.665l.78.779a2.808,2.808,0,0,1,.827,2v2.044h13.177v-2.044a2.806,2.806,0,0,1,.827-2l.912-.912a.938.938,0,0,0,.261-.5l2.419-12.87a.947.947,0,0,0-.628-1.067l-.584-.195-3.366,5.05a.941.941,0,0,1-1.724-.522v-10.353a.941.941,0,0,0-1.882,0v11.294a.941.941,0,0,1-1.882,0v-11.294a2.823,2.823,0,0,1,5.647,0v7.245l1.642-2.462a1.881,1.881,0,0,1,2.162-.742l.584.195a2.834,2.834,0,0,1,1.882,3.2l-2.417,12.86a2.793,2.793,0,0,1-.781,1.5l-.912.912a.948.948,0,0,0-.276.666v2.985A.941.941,0,0,1,3138.459,1214.118Z" transform="translate(-3120.577 -1184)" fill="#fff"/>
      </g>
    </g>
    <g id="그룹_1749" data-name="그룹 1749" transform="translate(3080.577 1128)">
      <g id="그룹_1744" data-name="그룹 1744" transform="translate(7.529 0)">
        <path id="패스_2877" data-name="패스 2877" d="M3221.283,1144.941a.941.941,0,0,1-.941-.941v-13.177a.941.941,0,1,0-1.882,0V1144a.941.941,0,0,1-1.883,0v-13.177a2.824,2.824,0,0,1,5.647,0V1144A.941.941,0,0,1,3221.283,1144.941Z" transform="translate(-3216.577 -1128)" fill="#fff"/>
      </g>
      <g id="그룹_1745" data-name="그룹 1745" transform="translate(3.765 2.824)">
        <path id="패스_2878" data-name="패스 2878" d="M3205.283,1154.118a.941.941,0,0,1-.941-.941v-10.353a.941.941,0,0,0-1.882,0v6.588a.941.941,0,1,1-1.882,0v-6.588a2.824,2.824,0,0,1,5.647,0v10.353A.941.941,0,0,1,3205.283,1154.118Z" transform="translate(-3200.577 -1140)" fill="#fff"/>
      </g>
      <g id="그룹_1746" data-name="그룹 1746" transform="translate(0 6.588)">
        <path id="패스_2879" data-name="패스 2879" d="M3189.283,1166.353a.941.941,0,0,1-.941-.941v-6.588a.941.941,0,0,0-1.882,0v2.824a.941.941,0,1,1-1.882,0v-2.824a2.823,2.823,0,0,1,5.647,0v6.588A.941.941,0,0,1,3189.283,1166.353Z" transform="translate(-3184.577 -1156)" fill="#fff"/>
      </g>
      <g id="그룹_1747" data-name="그룹 1747" transform="translate(6.588 30.118)">
        <path id="패스_2880" data-name="패스 2880" d="M3223.871,1262.588h-10.353a.941.941,0,0,1,0-1.882h9.412v-3.765a.941.941,0,0,1,1.882,0v4.706A.941.941,0,0,1,3223.871,1262.588Z" transform="translate(-3212.577 -1256)" fill="#fff"/>
      </g>
      <g id="그룹_1748" data-name="그룹 1748" transform="translate(7.529 1.882)">
        <path id="패스_2881" data-name="패스 2881" d="M3226.93,1166.118h-9.412a.941.941,0,0,1,0-1.882h8.471v-2.044a2.806,2.806,0,0,1,.827-2l.912-.912a.938.938,0,0,0,.261-.5l2.419-12.87a.947.947,0,0,0-.628-1.067l-.584-.195-3.366,5.05a.941.941,0,0,1-1.724-.522v-10.353a.941.941,0,0,0-1.882,0v11.294a.941.941,0,1,1-1.882,0v-11.294a2.823,2.823,0,0,1,5.647,0v7.245l1.642-2.462a1.879,1.879,0,0,1,2.162-.742l.584.195a2.834,2.834,0,0,1,1.882,3.2l-2.417,12.86a2.793,2.793,0,0,1-.781,1.5l-.912.912a.947.947,0,0,0-.276.666v2.985A.941.941,0,0,1,3226.93,1166.118Z" transform="translate(-3216.577 -1136)" fill="#fff"/>
      </g>
    </g>
    <g id="그룹_1755" data-name="그룹 1755" transform="translate(3048.577 1128)">
      <g id="그룹_1750" data-name="그룹 1750" transform="translate(7.529 0)">
        <path id="패스_2882" data-name="패스 2882" d="M3085.283,1144.941a.941.941,0,0,1-.941-.941v-13.177a.941.941,0,1,0-1.882,0V1144a.941.941,0,0,1-1.883,0v-13.177a2.824,2.824,0,0,1,5.647,0V1144A.941.941,0,0,1,3085.283,1144.941Z" transform="translate(-3080.577 -1128)" fill="#fff"/>
      </g>
      <g id="그룹_1751" data-name="그룹 1751" transform="translate(3.765 2.824)">
        <path id="패스_2883" data-name="패스 2883" d="M3069.283,1154.118a.941.941,0,0,1-.941-.941v-10.353a.941.941,0,0,0-1.882,0v6.588a.941.941,0,1,1-1.882,0v-6.588a2.824,2.824,0,0,1,5.647,0v10.353A.941.941,0,0,1,3069.283,1154.118Z" transform="translate(-3064.577 -1140)" fill="#fff"/>
      </g>
      <g id="그룹_1752" data-name="그룹 1752" transform="translate(11.294 1.882)">
        <path id="패스_2884" data-name="패스 2884" d="M3097.518,1151.059a.941.941,0,0,1-.941-.941v-11.294a2.824,2.824,0,0,1,5.647,0v7.245l1.642-2.462a1.879,1.879,0,0,1,2.162-.742l.584.195a2.834,2.834,0,0,1,1.882,3.2.941.941,0,0,1-1.849-.348.947.947,0,0,0-.628-1.067l-.584-.195-3.366,5.05a.941.941,0,0,1-1.724-.522v-10.353a.941.941,0,0,0-1.882,0v11.294A.941.941,0,0,1,3097.518,1151.059Z" transform="translate(-3096.577 -1136)" fill="#fff"/>
      </g>
      <g id="그룹_1753" data-name="그룹 1753" transform="translate(1.882 30.118)">
        <path id="패스_2885" data-name="패스 2885" d="M3069.753,1262.588h-12.235a.941.941,0,0,1-.941-.941v-4.706a.941.941,0,0,1,1.882,0v3.765h11.294a.941.941,0,0,1,0,1.882Z" transform="translate(-3056.577 -1256)" fill="#fff"/>
      </g>
      <g id="그룹_1754" data-name="그룹 1754" transform="translate(0 6.588)">
        <path id="패스_2886" data-name="패스 2886" d="M3063.636,1181.412H3051.4a.941.941,0,0,1-.941-.941v-2.985a.949.949,0,0,0-.276-.666l-.779-.779a2.806,2.806,0,0,1-.827-2v-15.221a2.823,2.823,0,0,1,5.647,0v6.588a.941.941,0,1,1-1.882,0v-6.588a.941.941,0,0,0-1.882,0v15.221a.949.949,0,0,0,.276.666l.78.779a2.807,2.807,0,0,1,.827,2v2.044h11.294a.941.941,0,0,1,0,1.882Z" transform="translate(-3048.577 -1156)" fill="#fff"/>
      </g>
    </g>
  </g>
</svg>
