<svg xmlns="http://www.w3.org/2000/svg" width="51" height="51" viewBox="0 0 51 51">
  <g id="그룹_1805" data-name="그룹 1805" transform="translate(-1140 -638)">
    <g id="그룹_1792" data-name="그룹 1792" transform="translate(1140 661.8)">
      <g id="그룹_1785" data-name="그룹 1785" transform="translate(14.45 4.25)">
        <g id="그룹_1783" data-name="그룹 1783" transform="translate(4.25)">
          <path id="패스_2897" data-name="패스 2897" d="M1234.8,783.6a6.8,6.8,0,1,1,6.8-6.8A6.808,6.808,0,0,1,1234.8,783.6Zm0-11.9a5.1,5.1,0,1,0,5.1,5.1A5.106,5.106,0,0,0,1234.8,771.7Z" transform="translate(-1228 -770)" fill="#fff"/>
        </g>
        <g id="그룹_1784" data-name="그룹 1784" transform="translate(0 15.3)">
          <path id="패스_2898" data-name="패스 2898" d="M1229.25,849.65a.85.85,0,0,1-.85-.85v-2.55c0-.866-3.3-2.55-9.35-2.55s-9.35,1.684-9.35,2.55v2.55a.85.85,0,1,1-1.7,0v-2.55c0-2.79,5.559-4.25,11.05-4.25s11.05,1.46,11.05,4.25v2.55A.85.85,0,0,1,1229.25,849.65Z" transform="translate(-1208 -842)" fill="#fff"/>
        </g>
      </g>
      <g id="그룹_1788" data-name="그룹 1788" transform="translate(30.265)">
        <g id="그룹_1786" data-name="그룹 1786" transform="translate(2.885)">
          <path id="패스_2899" data-name="패스 2899" d="M1302.8,763.6a6.8,6.8,0,1,1,6.8-6.8A6.808,6.808,0,0,1,1302.8,763.6Zm0-11.9a5.1,5.1,0,1,0,5.1,5.1A5.106,5.106,0,0,0,1302.8,751.7Z" transform="translate(-1296 -750)" fill="#fff"/>
        </g>
        <g id="그룹_1787" data-name="그룹 1787" transform="translate(0 15.3)">
          <path id="패스_2900" data-name="패스 2900" d="M1302.307,829.65a.85.85,0,0,1-.85-.85v-2.55c0-.866-3.3-2.55-9.35-2.55-3.489,0-6.712.608-8.411,1.586a.85.85,0,1,1-.848-1.473c1.971-1.136,5.433-1.814,9.259-1.814,5.491,0,11.05,1.46,11.05,4.25v2.55A.85.85,0,0,1,1302.307,829.65Z" transform="translate(-1282.421 -822)" fill="#fff"/>
        </g>
      </g>
      <g id="그룹_1791" data-name="그룹 1791">
        <g id="그룹_1789" data-name="그룹 1789" transform="translate(4.25)">
          <path id="패스_2901" data-name="패스 2901" d="M1166.8,763.6a6.8,6.8,0,1,1,6.8-6.8A6.808,6.808,0,0,1,1166.8,763.6Zm0-11.9a5.1,5.1,0,1,0,5.1,5.1A5.106,5.106,0,0,0,1166.8,751.7Z" transform="translate(-1160 -750)" fill="#fff"/>
        </g>
        <g id="그룹_1790" data-name="그룹 1790" transform="translate(0 15.3)">
          <path id="패스_2902" data-name="패스 2902" d="M1140.85,829.65a.849.849,0,0,1-.85-.85v-2.55c0-2.79,5.559-4.25,11.05-4.25,3.827,0,7.288.678,9.259,1.814a.85.85,0,0,1-.848,1.473c-1.7-.979-4.922-1.586-8.411-1.586-6.05,0-9.35,1.684-9.35,2.55v2.55A.849.849,0,0,1,1140.85,829.65Z" transform="translate(-1140 -822)" fill="#fff"/>
        </g>
      </g>
    </g>
    <g id="그룹_1793" data-name="그룹 1793" transform="translate(1157.849 642.252)">
      <path id="패스_2903" data-name="패스 2903" d="M1233.347,675.857h-3.4a.85.85,0,0,1-.85-.85v-.529a2.48,2.48,0,0,0-1.219-2.172,7.647,7.647,0,0,1,2.237-14.15,7.649,7.649,0,0,1,5.3,14.15,2.48,2.48,0,0,0-1.22,2.172v.529A.849.849,0,0,1,1233.347,675.857Zm-2.562-1.7h1.723a4.171,4.171,0,0,1,2.07-3.33,5.952,5.952,0,1,0-5.863,0A4.169,4.169,0,0,1,1230.785,674.157Z" transform="translate(-1223.996 -658.009)" fill="#fff"/>
    </g>
    <g id="그룹_1794" data-name="그룹 1794" transform="translate(1162.95 661.8)">
      <path id="패스_2904" data-name="패스 2904" d="M1250.55,753.4a2.553,2.553,0,0,1-2.55-2.55.85.85,0,1,1,1.7,0,.85.85,0,0,0,1.7,0,.85.85,0,0,1,1.7,0A2.553,2.553,0,0,1,1250.55,753.4Z" transform="translate(-1248 -750)" fill="#fff"/>
    </g>
    <g id="그룹_1795" data-name="그룹 1795" transform="translate(1164.65 638)">
      <path id="패스_2905" data-name="패스 2905" d="M1256.85,641.4a.85.85,0,0,1-.85-.85v-1.7a.85.85,0,1,1,1.7,0v1.7A.849.849,0,0,1,1256.85,641.4Z" transform="translate(-1256 -638)" fill="#fff"/>
    </g>
    <g id="그룹_1796" data-name="그룹 1796" transform="translate(1159.125 639.48)">
      <path id="패스_2906" data-name="패스 2906" d="M1231.7,648.136a.851.851,0,0,1-.737-.425l-.85-1.473a.85.85,0,0,1,1.473-.85l.85,1.473a.85.85,0,0,1-.736,1.275Z" transform="translate(-1230.002 -644.963)" fill="#fff"/>
    </g>
    <g id="그룹_1797" data-name="그룹 1797" transform="translate(1155.081 643.524)">
      <path id="패스_2907" data-name="패스 2907" d="M1213.292,666.544a.846.846,0,0,1-.424-.114l-1.472-.85a.85.85,0,0,1,.85-1.473l1.471.85a.85.85,0,0,1-.426,1.586Z" transform="translate(-1210.971 -663.993)" fill="#fff"/>
    </g>
    <g id="그룹_1798" data-name="그룹 1798" transform="translate(1153.601 649.049)">
      <path id="패스_2908" data-name="패스 2908" d="M1206.554,691.7h-1.7a.85.85,0,0,1,0-1.7h1.7a.85.85,0,1,1,0,1.7Z" transform="translate(-1204.004 -689.996)" fill="#fff"/>
    </g>
    <g id="그룹_1799" data-name="그룹 1799" transform="translate(1155.081 653.723)">
      <path id="패스_2909" data-name="패스 2909" d="M1211.822,714.54a.85.85,0,0,1-.426-1.586l1.472-.85a.85.85,0,1,1,.85,1.473l-1.471.85A.847.847,0,0,1,1211.822,714.54Z" transform="translate(-1210.971 -711.989)" fill="#fff"/>
    </g>
    <g id="그룹_1800" data-name="그룹 1800" transform="translate(1172.746 653.723)">
      <path id="패스_2910" data-name="패스 2910" d="M1296.421,714.54a.847.847,0,0,1-.424-.114l-1.471-.85a.85.85,0,1,1,.85-1.473l1.472.85a.85.85,0,0,1-.426,1.586Z" transform="translate(-1294.1 -711.989)" fill="#fff"/>
    </g>
    <g id="그룹_1801" data-name="그룹 1801" transform="translate(1173.999 649.049)">
      <path id="패스_2911" data-name="패스 2911" d="M1302.546,691.7h-1.7a.85.85,0,0,1,0-1.7h1.7a.85.85,0,1,1,0,1.7Z" transform="translate(-1299.996 -689.996)" fill="#fff"/>
    </g>
    <g id="그룹_1802" data-name="그룹 1802" transform="translate(1172.746 643.524)">
      <path id="패스_2912" data-name="패스 2912" d="M1294.951,666.544a.85.85,0,0,1-.426-1.586l1.471-.85a.85.85,0,0,1,.85,1.473l-1.472.85A.846.846,0,0,1,1294.951,666.544Z" transform="translate(-1294.1 -663.993)" fill="#fff"/>
    </g>
    <g id="그룹_1803" data-name="그룹 1803" transform="translate(1169.324 639.48)">
      <path id="패스_2913" data-name="패스 2913" d="M1278.844,648.136a.85.85,0,0,1-.735-1.275l.85-1.473a.85.85,0,0,1,1.473.85l-.85,1.473A.851.851,0,0,1,1278.844,648.136Z" transform="translate(-1277.994 -644.963)" fill="#fff"/>
    </g>
    <g id="그룹_1804" data-name="그룹 1804" transform="translate(1162.1 658.4)">
      <path id="패스_2914" data-name="패스 2914" d="M1249.95,738.25h-5.1a.849.849,0,0,1-.85-.85v-2.55a.85.85,0,0,1,.85-.85h5.1a.85.85,0,0,1,.85.85v2.55A.849.849,0,0,1,1249.95,738.25Zm-4.25-1.7h3.4v-.85h-3.4Z" transform="translate(-1244 -734)" fill="#fff"/>
    </g>
  </g>
</svg>
