<svg id="그룹_1340" data-name="그룹 1340" xmlns="http://www.w3.org/2000/svg" width="32" height="32" viewBox="0 0 32 32">
  <circle id="타원_470" data-name="타원 470" cx="16" cy="16" r="16" fill="#0886cc"/>
  <g id="그룹_665" data-name="그룹 665" transform="translate(7.982 9.756)">
    <g id="그룹_664" data-name="그룹 664">
      <path id="패스_1285" data-name="패스 1285" d="M-1200.931,1052.456a9.927,9.927,0,0,0,10.208-9.8c0-.149,0-.3-.01-.445a7.142,7.142,0,0,0,1.79-1.783,7.4,7.4,0,0,1-2.06.542,3.485,3.485,0,0,0,1.578-1.9,7.376,7.376,0,0,1-2.278.835,3.656,3.656,0,0,0-2.619-1.088,3.519,3.519,0,0,0-3.589,3.443,3.294,3.294,0,0,0,.093.785,10.335,10.335,0,0,1-7.4-3.6,3.331,3.331,0,0,0-.486,1.731,3.407,3.407,0,0,0,1.6,2.866,3.679,3.679,0,0,1-1.625-.431c0,.014,0,.029,0,.044a3.484,3.484,0,0,0,2.878,3.376,3.741,3.741,0,0,1-.946.121,3.712,3.712,0,0,1-.674-.062,3.576,3.576,0,0,0,3.352,2.391,7.392,7.392,0,0,1-4.456,1.474,7.59,7.59,0,0,1-.856-.048,10.472,10.472,0,0,0,5.5,1.547" transform="translate(1206.431 -1038.816)" fill="#fff"/>
    </g>
  </g>
</svg>
