<svg xmlns="http://www.w3.org/2000/svg" width="32" height="32" viewBox="0 0 32 32">
  <g id="그룹_1344" data-name="그룹 1344" transform="translate(0.071)">
    <g id="그룹_1338" data-name="그룹 1338">
      <circle id="타원_473" data-name="타원 473" cx="16" cy="16" r="16" transform="translate(-0.071)" fill="#1075aa"/>
    </g>
    <g id="그룹_1343" data-name="그룹 1343" transform="translate(7.946 7.944)">
      <path id="패스_2337" data-name="패스 2337" d="M1499.7,491.137h3.494V502H1499.7Zm1.748-5.4a1.958,1.958,0,1,1-2.025,1.957,1.992,1.992,0,0,1,2.025-1.957" transform="translate(-1499.42 -485.739)" fill="#fff"/>
      <path id="패스_2338" data-name="패스 2338" d="M1609.488,583.961h3.346V585.5h.048a3.667,3.667,0,0,1,3.3-1.814c3.535,0,4.188,2.326,4.188,5.351v6.16h-3.491v-5.462c0-1.3-.022-2.978-1.814-2.978-1.816,0-2.094,1.42-2.094,2.885v5.556h-3.487Z" transform="translate(-1604.116 -578.936)" fill="#fff"/>
    </g>
  </g>
</svg>
