<svg width="244" height="54" viewBox="0 0 244 54" fill="none" xmlns="http://www.w3.org/2000/svg">
<g clip-path="url(#clip0_360_114)">
<path d="M9.70005 53.3272C9.48964 53.3097 9.28913 53.3009 9.101 53.3009H7.98088C7.79151 53.3009 7.60586 53.3097 7.42144 53.3272C7.28034 52.8915 7.13553 52.4482 6.98701 51.995C6.83725 51.5417 6.67882 51.0884 6.51297 50.6352C6.23201 50.6264 5.95106 50.6201 5.6701 50.6151C5.38914 50.6101 5.10818 50.6076 4.82722 50.6076C4.59825 50.6076 4.37051 50.6101 4.14154 50.6151C3.9138 50.6201 3.68483 50.6264 3.45709 50.6352C3.28134 51.0884 3.1192 51.5417 2.96944 51.995C2.81968 52.4482 2.68353 52.8927 2.561 53.3272C2.45579 53.3097 2.35183 53.3009 2.25157 53.3009H1.62653C1.52133 53.3009 1.40622 53.3097 1.28369 53.3272C1.3889 53.0956 1.52999 52.7763 1.70575 52.3681C1.8815 51.9599 2.07458 51.4979 2.28499 50.982C2.4954 50.4674 2.7219 49.9139 2.96325 49.3229C3.2046 48.7319 3.44595 48.1347 3.6873 47.5311C3.92865 46.9276 4.16629 46.3316 4.39898 45.7456C4.63167 45.1596 4.84455 44.6124 5.03763 44.1066C5.12551 44.1241 5.20844 44.1404 5.28765 44.1529C5.36686 44.1667 5.44979 44.1729 5.53766 44.1729C5.62554 44.1729 5.70847 44.1667 5.78768 44.1529C5.86689 44.1391 5.94982 44.1241 6.0377 44.1066C6.31865 44.8616 6.61941 45.6705 6.93998 46.5319C7.26054 47.3934 7.58358 48.2398 7.90786 49.0712C8.23214 49.9014 8.54899 50.6902 8.85594 51.4365C9.16289 52.1828 9.44384 52.8139 9.69881 53.3285L9.70005 53.3272ZM5.0364 46.6772C4.80742 47.2106 4.5933 47.7365 4.39032 48.2561C4.18733 48.7757 3.99054 49.3066 3.79746 49.8488H6.2085C6.01542 49.3066 5.82357 48.7757 5.63544 48.2561C5.44731 47.7365 5.2468 47.2106 5.0364 46.6772Z" fill="#040000"/>
<path d="M20.2255 44.8253C19.822 44.8253 19.4915 44.9455 19.2378 45.1846C18.9841 45.4238 18.8566 45.7043 18.8566 46.0236C18.8566 46.3428 18.9556 46.6208 19.1524 46.8299C19.3492 47.039 19.598 47.2281 19.8962 47.3959C20.1945 47.5649 20.5151 47.7264 20.8579 47.8817C21.2008 48.037 21.5213 48.2285 21.8196 48.4552C22.1179 48.6818 22.3667 48.9573 22.5635 49.2816C22.7615 49.6059 22.8605 50.0216 22.8605 50.5275C22.8605 50.972 22.7764 51.3789 22.6105 51.747C22.4434 52.1151 22.207 52.4319 21.8988 52.6936C21.5919 52.9553 21.2255 53.1557 20.7985 53.2934C20.3728 53.4311 19.8962 53.5 19.369 53.5C18.8949 53.5 18.4704 53.4487 18.0979 53.3472C17.7241 53.2446 17.4406 53.1181 17.2476 52.9678C17.3354 52.6561 17.4097 52.3731 17.4716 52.1151C17.5335 51.8572 17.5855 51.578 17.63 51.2762H17.88C17.9147 51.4716 17.9815 51.6556 18.0781 51.8297C18.1746 52.0025 18.2971 52.1565 18.4469 52.2892C18.5967 52.4219 18.7761 52.5271 18.9878 52.6022C19.1982 52.6786 19.4358 52.7149 19.6994 52.7149C20.2267 52.7149 20.6153 52.5822 20.8654 52.3155C21.1154 52.0488 21.2404 51.7295 21.2404 51.3564C21.2404 51.0183 21.1438 50.7428 20.9508 50.53C20.7577 50.3171 20.5163 50.128 20.2267 49.964C19.9371 49.8 19.6202 49.6397 19.2786 49.4844C18.9358 49.3292 18.6202 49.1401 18.3305 48.9185C18.0409 48.6968 17.7996 48.4226 17.6065 48.0983C17.4134 47.774 17.3169 47.3583 17.3169 46.8525C17.3169 46.3904 17.3986 45.9822 17.5607 45.6266C17.7228 45.271 17.9407 44.973 18.213 44.7339C18.4853 44.4947 18.7996 44.3119 19.1549 44.1879C19.5101 44.064 19.8863 44.0014 20.2812 44.0014C20.7552 44.0014 21.1698 44.059 21.5263 44.1742C21.8815 44.2894 22.1872 44.4496 22.4422 44.6537C22.363 44.8591 22.2949 45.0557 22.238 45.2472C22.181 45.4388 22.108 45.6805 22.0214 45.9735H21.8233C21.5424 45.2097 21.0114 44.8278 20.2292 44.8278L20.2255 44.8253Z" fill="#040000"/>
<path d="M33.6879 44.8253C33.2844 44.8253 32.9539 44.9455 32.7002 45.1846C32.4452 45.425 32.319 45.7043 32.319 46.0236C32.319 46.3428 32.418 46.6208 32.6148 46.8299C32.8116 47.039 33.0604 47.2281 33.3586 47.3959C33.6569 47.5649 33.9775 47.7264 34.3203 47.8817C34.6632 48.037 34.9837 48.2285 35.282 48.4552C35.5803 48.6818 35.8291 48.9573 36.0259 49.2816C36.2239 49.6059 36.3229 50.0216 36.3229 50.5275C36.3229 50.972 36.2388 51.3789 36.0729 51.747C35.9071 52.1151 35.6694 52.4319 35.3612 52.6936C35.0543 52.9553 34.6879 53.1557 34.2609 53.2934C33.8352 53.4311 33.3586 53.5 32.8314 53.5C32.3573 53.5 31.9328 53.4487 31.5603 53.3472C31.1865 53.2446 30.903 53.1181 30.71 52.9678C30.7978 52.6561 30.8721 52.3731 30.934 52.1151C30.9959 51.8572 31.0479 51.578 31.0924 51.2762H31.3424C31.3771 51.4716 31.4439 51.6556 31.5405 51.8297C31.637 52.0025 31.7595 52.1565 31.9093 52.2892C32.0591 52.4219 32.2385 52.5271 32.4502 52.6022C32.6606 52.6786 32.8982 52.7149 33.1618 52.7149C33.6891 52.7149 34.0777 52.5822 34.3278 52.3155C34.5778 52.0488 34.7028 51.7295 34.7028 51.3564C34.7028 51.0183 34.6062 50.7428 34.4132 50.53C34.2201 50.3171 33.9787 50.128 33.6891 49.964C33.3995 49.8 33.0826 49.6397 32.741 49.4844C32.3982 49.3292 32.0826 49.1401 31.7929 48.9185C31.5033 48.6968 31.262 48.4226 31.0689 48.0983C30.8758 47.774 30.7793 47.3583 30.7793 46.8525C30.7793 46.3904 30.861 45.9822 31.0231 45.6266C31.1852 45.271 31.4031 44.973 31.6754 44.7339C31.9477 44.4947 32.262 44.3119 32.6173 44.1879C32.9725 44.064 33.3487 44.0014 33.7436 44.0014C34.2176 44.0014 34.6322 44.059 34.9887 44.1742C35.3439 44.2894 35.6496 44.4496 35.9046 44.6537C35.8254 44.8591 35.7573 45.0557 35.7004 45.2472C35.6434 45.4388 35.5704 45.6805 35.4838 45.9735H35.2857C35.0048 45.2097 34.4738 44.8278 33.6916 44.8278L33.6879 44.8253Z" fill="#040000"/>
<path d="M44.7135 45.8983C44.6962 45.3249 44.669 44.7501 44.6343 44.1729C45.0291 44.1817 45.4202 44.1954 45.8064 44.213C46.1926 44.2305 46.5837 44.2393 46.9785 44.2393C47.6283 44.2393 48.2051 44.233 48.7101 44.2192C49.215 44.2055 49.5554 44.1904 49.7312 44.1729C49.6965 44.3157 49.6779 44.5022 49.6779 44.7326C49.6779 44.8754 49.6829 44.9855 49.6916 45.0657C49.7002 45.1458 49.7138 45.2347 49.7312 45.3324C49.4762 45.3148 49.1977 45.2973 48.8945 45.2798C48.5912 45.2623 48.2967 45.2447 48.012 45.2272C47.7273 45.2097 47.4699 45.1959 47.2409 45.1871C47.0119 45.1784 46.8498 45.1734 46.7533 45.1734C46.7186 45.6617 46.6988 46.1463 46.6938 46.6258C46.6889 47.1054 46.6877 47.59 46.6877 48.0783C47.2582 48.0695 47.7744 48.0558 48.236 48.0382C48.6964 48.0207 49.1779 47.9982 49.6779 47.9719C49.6519 48.1234 49.6346 48.2386 49.626 48.3187C49.6173 48.3988 49.6123 48.4827 49.6123 48.5716C49.6123 48.643 49.6185 48.7169 49.6321 48.792C49.6458 48.8671 49.6606 48.9761 49.6779 49.1188C48.6766 49.0387 47.6803 48.9986 46.6877 48.9986C46.6877 49.2828 46.6852 49.5671 46.6815 49.8513C46.6765 50.1355 46.6753 50.4198 46.6753 50.704C46.6753 51.2812 46.6889 51.8372 46.7149 52.3693C47.2149 52.3693 47.7162 52.3556 48.2162 52.3293C48.7162 52.303 49.2212 52.2579 49.7312 52.1965C49.7138 52.2942 49.7002 52.3831 49.6916 52.4632C49.6829 52.5434 49.6779 52.6548 49.6779 52.7963C49.6779 52.9378 49.6829 53.0492 49.6916 53.1294C49.7002 53.2095 49.7138 53.2759 49.7312 53.3297C49.4935 53.3209 49.2014 53.3134 48.8549 53.3097C48.5083 53.3047 48.0318 53.3034 47.4253 53.3034H45.3373C45.1393 53.3034 44.9908 53.3059 44.8893 53.3097C44.7878 53.3147 44.7024 53.3209 44.6318 53.3297C44.6665 52.7788 44.6937 52.2166 44.7111 51.6431C44.7284 51.0696 44.737 50.4148 44.737 49.6773V47.8654C44.737 47.1279 44.7284 46.4731 44.7111 45.8996L44.7135 45.8983Z" fill="#040000"/>
<path d="M59.8688 45.6379C59.8638 45.425 59.8527 45.2698 59.8354 45.1709C59.7042 45.1709 59.5408 45.1759 59.3477 45.1846C59.1546 45.1934 58.9479 45.2047 58.7288 45.2184C58.5085 45.2322 58.2858 45.2497 58.0568 45.271C57.8278 45.2936 57.6174 45.3174 57.4243 45.3449C57.4416 45.2472 57.4577 45.1496 57.4701 45.0519C57.4837 44.9542 57.4899 44.8566 57.4899 44.7589C57.4899 44.6612 57.4837 44.5636 57.4701 44.4659C57.4565 44.3682 57.4416 44.2706 57.4243 44.1729C57.7226 44.1817 57.9924 44.1904 58.2338 44.1992C58.4751 44.208 58.7214 44.2142 58.9714 44.2192C59.2215 44.2242 59.4937 44.228 59.7883 44.233C60.0829 44.238 60.4356 44.2393 60.849 44.2393C61.2624 44.2393 61.6152 44.2368 61.9097 44.233C62.2043 44.228 62.4741 44.2242 62.7192 44.2192C62.9643 44.2142 63.2044 44.208 63.4371 44.1992C63.6697 44.1904 63.9222 44.1817 64.1945 44.1729C64.1772 44.2706 64.1611 44.3682 64.1487 44.4659C64.1351 44.5636 64.1289 44.6612 64.1289 44.7589C64.1289 44.8566 64.1364 44.9542 64.1487 45.0519C64.1624 45.1496 64.1772 45.2472 64.1945 45.3449C64.0188 45.3186 63.8207 45.2936 63.6017 45.271C63.3814 45.2497 63.1648 45.231 62.9494 45.2184C62.734 45.2059 62.5298 45.1934 62.3367 45.1846C62.1437 45.1759 61.9803 45.1709 61.8491 45.1709C61.8404 45.2159 61.8342 45.2773 61.8293 45.3574C61.8243 45.4376 61.8231 45.5302 61.8231 45.6366V49.6748C61.8231 50.4123 61.8318 51.0671 61.8491 51.6406C61.8664 52.2141 61.8924 52.7763 61.9283 53.3272C61.7785 53.3097 61.6164 53.3009 61.4406 53.3009H60.2549C60.0792 53.3009 59.917 53.3097 59.7673 53.3272C59.8019 52.7763 59.8292 52.2141 59.8465 51.6406C59.8638 51.0671 59.8725 50.4123 59.8725 49.6748V46.3428C59.8725 46.0849 59.87 45.8495 59.8663 45.6366L59.8688 45.6379Z" fill="#040000"/>
<path d="M83.7963 50.3421C83.7257 51.3376 83.6564 52.3318 83.5858 53.3272C83.4806 53.3097 83.3754 53.3009 83.2702 53.3009H82.6576C82.5561 53.3009 82.4533 53.3097 82.3481 53.3272C82.6291 51.7996 82.8791 50.2795 83.0982 48.7695C83.3173 47.2594 83.5202 45.7268 83.7047 44.1717C83.8012 44.1892 83.8903 44.2055 83.9745 44.218C84.0586 44.2305 84.1478 44.238 84.2443 44.238C84.3235 44.238 84.4064 44.2318 84.4943 44.218C84.5822 44.2042 84.6738 44.1892 84.7703 44.1717C85.0067 44.7051 85.2555 45.2472 85.5142 45.7982C85.7729 46.3491 86.0315 46.8975 86.2915 47.4435C86.5501 47.9906 86.8088 48.5253 87.0687 49.0499C87.3274 49.5733 87.5762 50.0717 87.8126 50.5425C88.3399 49.5483 88.8646 48.5053 89.3869 47.4172C89.9092 46.3291 90.408 45.2472 90.8821 44.1717C91.1012 44.2155 91.2905 44.238 91.449 44.238C91.5987 44.238 91.7831 44.2155 92.0022 44.1717C92.0901 44.9355 92.1841 45.7569 92.2856 46.6371C92.3871 47.5173 92.4849 48.3763 92.5827 49.2152C92.6792 50.0542 92.7758 50.8392 92.8723 51.5667C92.9688 52.2955 93.0567 52.8815 93.1359 53.326C92.9602 53.3084 92.782 53.2997 92.6025 53.2997H91.5282C91.3437 53.2997 91.1593 53.3084 90.9749 53.326C90.9316 52.4107 90.8586 51.4202 90.7583 50.3547C90.6568 49.2879 90.5541 48.2311 90.4489 47.183H90.4229C89.9229 48.2311 89.4303 49.2628 88.9476 50.2745C88.4649 51.2875 87.9859 52.3042 87.5118 53.326C87.4685 53.3172 87.4264 53.3097 87.3868 53.3059C87.3472 53.3009 87.3051 53.2997 87.2618 53.2997C87.2185 53.2997 87.1764 53.3022 87.1368 53.3059C87.0972 53.3109 87.0551 53.3172 87.0118 53.326C86.5378 52.3305 86.065 51.3363 85.5959 50.3409C85.1255 49.3467 84.6404 48.3375 84.1403 47.3158H84.1143C83.9732 48.3375 83.868 49.3454 83.7975 50.3409L83.7963 50.3421Z" fill="#040000"/>
<path d="M109.075 53.3272C108.865 53.3097 108.664 53.3009 108.476 53.3009H107.356C107.167 53.3009 106.981 53.3097 106.796 53.3272C106.655 52.8915 106.511 52.4482 106.362 51.995C106.212 51.5417 106.054 51.0884 105.888 50.6352C105.607 50.6264 105.326 50.6201 105.045 50.6151C104.764 50.6101 104.483 50.6076 104.202 50.6076C103.973 50.6076 103.746 50.6101 103.517 50.6151C103.289 50.6201 103.06 50.6264 102.832 50.6352C102.656 51.0884 102.494 51.5417 102.344 51.995C102.195 52.4482 102.059 52.8927 101.936 53.3272C101.831 53.3097 101.727 53.3009 101.627 53.3009H101.002C100.896 53.3009 100.781 53.3097 100.659 53.3272C100.764 53.0956 100.905 52.7763 101.081 52.3681C101.257 51.9599 101.45 51.4979 101.66 50.982C101.87 50.4674 102.097 49.9139 102.338 49.3229C102.58 48.7319 102.821 48.1347 103.062 47.5311C103.304 46.9276 103.541 46.3316 103.774 45.7456C104.007 45.1596 104.22 44.6124 104.413 44.1066C104.501 44.1241 104.583 44.1404 104.663 44.1529C104.742 44.1667 104.825 44.1729 104.913 44.1729C105.001 44.1729 105.083 44.1667 105.163 44.1529C105.242 44.1391 105.325 44.1241 105.413 44.1066C105.694 44.8616 105.994 45.6705 106.315 46.5319C106.636 47.3934 106.959 48.2398 107.283 49.0712C107.607 49.9014 107.924 50.6902 108.231 51.4365C108.538 52.1828 108.819 52.8139 109.074 53.3285L109.075 53.3272ZM104.411 46.6772C104.182 47.2106 103.968 47.7365 103.765 48.2561C103.562 48.7757 103.366 49.3066 103.172 49.8488H105.584C105.39 49.3066 105.199 48.7757 105.01 48.2561C104.822 47.7365 104.622 47.2106 104.411 46.6772Z" fill="#040000"/>
<path d="M117.427 46.8237C117.427 46.2114 117.418 45.6955 117.401 45.2785C117.383 44.8603 117.37 44.4922 117.361 44.1729C117.606 44.2167 117.804 44.2393 117.954 44.2393C118.104 44.2393 118.301 44.2167 118.547 44.1729C119.504 45.2485 120.45 46.3053 121.386 47.3445C122.322 48.3838 123.281 49.4419 124.264 50.5162V48.0645C124.264 47.6288 124.261 47.2006 124.258 46.7786C124.253 46.3566 124.249 45.9685 124.244 45.6129C124.239 45.2573 124.23 44.9505 124.218 44.6938C124.204 44.4359 124.19 44.2631 124.172 44.1742C124.417 44.218 124.615 44.2405 124.765 44.2405C124.915 44.2405 125.112 44.218 125.358 44.1742C125.315 44.983 125.279 45.713 125.253 46.3666C125.227 47.0202 125.204 47.635 125.187 48.2123C125.17 48.7895 125.159 49.3605 125.154 49.9252C125.149 50.4899 125.146 51.0909 125.146 51.7307V53.3297C124.97 53.3122 124.791 53.3034 124.607 53.3034C124.414 53.3034 124.241 53.3122 124.093 53.3297C122.283 51.1973 120.365 49.0524 118.336 46.8925C118.328 47.1505 118.32 47.4072 118.317 47.6651C118.312 47.923 118.31 48.1847 118.31 48.4514V49.9978C118.31 50.5312 118.313 50.9832 118.317 51.3576C118.32 51.7307 118.328 52.0463 118.336 52.3042C118.345 52.5622 118.354 52.7725 118.362 52.9378C118.371 53.1018 118.38 53.2333 118.388 53.331C118.283 53.3134 118.177 53.3047 118.072 53.3047H117.768C117.567 53.3047 117.365 53.3134 117.163 53.331C117.18 53.2596 117.203 53.0067 117.229 52.5709C117.255 52.1352 117.283 51.6043 117.314 50.9782C117.345 50.3522 117.371 49.6722 117.393 48.9398C117.416 48.2073 117.427 47.5023 117.427 46.8274V46.8237Z" fill="#040000"/>
<path d="M141.625 53.3272C141.415 53.3097 141.214 53.3009 141.026 53.3009H139.906C139.717 53.3009 139.531 53.3097 139.347 53.3272C139.206 52.8915 139.061 52.4482 138.912 51.995C138.763 51.5417 138.604 51.0884 138.438 50.6352C138.157 50.6264 137.876 50.6201 137.595 50.6151C137.314 50.6101 137.033 50.6076 136.753 50.6076C136.524 50.6076 136.296 50.6101 136.067 50.6151C135.839 50.6201 135.61 50.6264 135.382 50.6352C135.207 51.0884 135.044 51.5417 134.895 51.995C134.745 52.4482 134.609 52.8927 134.486 53.3272C134.381 53.3097 134.277 53.3009 134.177 53.3009H133.552C133.447 53.3009 133.332 53.3097 133.209 53.3272C133.314 53.0956 133.455 52.7763 133.631 52.3681C133.807 51.9599 134 51.4979 134.21 50.982C134.421 50.4674 134.647 49.9139 134.889 49.3229C135.13 48.7319 135.371 48.1347 135.613 47.5311C135.854 46.9276 136.092 46.3316 136.324 45.7456C136.557 45.1596 136.77 44.6124 136.963 44.1066C137.051 44.1241 137.134 44.1404 137.213 44.1529C137.292 44.1667 137.375 44.1729 137.463 44.1729C137.551 44.1729 137.634 44.1667 137.713 44.1529C137.792 44.1391 137.875 44.1241 137.963 44.1066C138.244 44.8616 138.545 45.6705 138.865 46.5319C139.186 47.3934 139.509 48.2398 139.833 49.0712C140.157 49.9014 140.474 50.6902 140.781 51.4365C141.088 52.1828 141.369 52.8139 141.624 53.3285L141.625 53.3272ZM136.962 46.6772C136.733 47.2106 136.519 47.7365 136.316 48.2561C136.113 48.7757 135.916 49.3066 135.723 49.8488H138.134C137.941 49.3066 137.749 48.7757 137.561 48.2561C137.373 47.7365 137.172 47.2106 136.962 46.6772Z" fill="#040000"/>
<path d="M155.732 45.1909C155.31 44.9467 154.797 44.824 154.191 44.824C153.788 44.824 153.386 44.9104 152.986 45.0845C152.586 45.2573 152.231 45.5177 151.919 45.8645C151.607 46.2114 151.355 46.6434 151.162 47.1642C150.968 47.6839 150.872 48.2949 150.872 48.9961C150.872 49.5295 150.945 50.0228 151.09 50.4761C151.235 50.9294 151.444 51.3226 151.715 51.6556C151.987 51.9887 152.321 52.2491 152.716 52.4357C153.111 52.6223 153.564 52.7149 154.073 52.7149C154.186 52.7149 154.316 52.7087 154.461 52.6949C154.606 52.6811 154.746 52.6661 154.883 52.6486C155.019 52.631 155.144 52.606 155.258 52.5759C155.372 52.5446 155.456 52.5108 155.508 52.4758C155.526 52.3693 155.537 52.2366 155.542 52.0763C155.547 51.9161 155.549 51.7383 155.549 51.5429C155.549 50.823 155.536 50.2933 155.51 49.9502C155.484 49.6084 155.466 49.3755 155.458 49.2503C155.545 49.2678 155.662 49.2841 155.807 49.2966C155.951 49.3091 156.161 49.3166 156.433 49.3166C156.749 49.3166 156.984 49.3104 157.137 49.2966C157.291 49.2828 157.412 49.2678 157.5 49.2503C157.482 49.3217 157.466 49.4369 157.454 49.5971C157.44 49.7574 157.429 49.9415 157.421 50.1506C157.412 50.3597 157.405 50.5813 157.401 50.8167C157.396 51.0521 157.393 51.2762 157.393 51.4891V51.9286C157.393 52.1502 157.396 52.3568 157.401 52.5484C157.405 52.74 157.416 52.8752 157.434 52.9553C156.855 53.1244 156.268 53.2571 155.675 53.3548C155.083 53.4524 154.496 53.5013 153.917 53.5013C153.162 53.5013 152.465 53.4011 151.829 53.202C151.192 53.0029 150.643 52.7087 150.183 52.323C149.722 51.9361 149.362 51.4703 149.102 50.9231C148.843 50.3772 148.713 49.7624 148.713 49.0775C148.713 48.2336 148.852 47.4936 149.128 46.8587C149.404 46.2239 149.786 45.6955 150.274 45.2735C150.762 44.8516 151.339 44.5335 152.006 44.3207C152.673 44.1078 153.393 44.0001 154.165 44.0001C154.833 44.0001 155.411 44.069 155.897 44.2067C156.385 44.3445 156.865 44.5423 157.34 44.8002C157.27 45.0319 157.202 45.2585 157.136 45.4801C157.07 45.7018 157.015 45.9284 156.971 46.16H156.787C156.506 45.7606 156.154 45.4376 155.732 45.1934V45.1909Z" fill="#040000"/>
<path d="M166.246 45.8983C166.228 45.3249 166.201 44.7501 166.166 44.1729C166.561 44.1817 166.952 44.1954 167.338 44.213C167.725 44.2305 168.116 44.2393 168.511 44.2393C169.16 44.2393 169.737 44.233 170.242 44.2192C170.747 44.2055 171.087 44.1904 171.263 44.1729C171.229 44.3157 171.21 44.5022 171.21 44.7326C171.21 44.8754 171.215 44.9855 171.224 45.0657C171.232 45.1458 171.246 45.2347 171.263 45.3324C171.008 45.3148 170.73 45.2973 170.426 45.2798C170.123 45.2623 169.829 45.2447 169.544 45.2272C169.259 45.2097 169.002 45.1959 168.773 45.1871C168.544 45.1784 168.382 45.1734 168.285 45.1734C168.251 45.6617 168.231 46.1463 168.226 46.6258C168.221 47.1054 168.22 47.59 168.22 48.0783C168.79 48.0695 169.306 48.0558 169.768 48.0382C170.228 48.0207 170.71 47.9982 171.21 47.9719C171.184 48.1234 171.167 48.2386 171.158 48.3187C171.149 48.3988 171.144 48.4827 171.144 48.5716C171.144 48.643 171.152 48.7169 171.164 48.792C171.178 48.8671 171.193 48.9761 171.21 49.1188C170.209 49.0387 169.212 48.9986 168.22 48.9986C168.22 49.2828 168.217 49.5671 168.213 49.8513C168.209 50.1355 168.206 50.4198 168.206 50.704C168.206 51.2812 168.22 51.8372 168.246 52.3693C168.746 52.3693 169.247 52.3556 169.747 52.3293C170.247 52.303 170.752 52.2579 171.262 52.1965C171.245 52.2942 171.231 52.3831 171.222 52.4632C171.214 52.5434 171.209 52.6548 171.209 52.7963C171.209 52.9378 171.214 53.0492 171.222 53.1294C171.231 53.2095 171.245 53.2759 171.262 53.3297C171.024 53.3209 170.732 53.3134 170.386 53.3097C170.039 53.3059 169.563 53.3034 168.956 53.3034H166.868C166.67 53.3034 166.522 53.3059 166.42 53.3097C166.319 53.3147 166.233 53.3209 166.163 53.3297C166.197 52.7788 166.224 52.2166 166.242 51.6431C166.259 51.0696 166.268 50.4148 166.268 49.6773V47.8654C166.268 47.1279 166.259 46.4731 166.242 45.8996L166.246 45.8983Z" fill="#040000"/>
<path d="M180.591 50.3421C180.52 51.3376 180.451 52.3318 180.38 53.3272C180.275 53.3097 180.17 53.3009 180.065 53.3009H179.452C179.351 53.3009 179.248 53.3097 179.143 53.3272C179.424 51.7996 179.674 50.2795 179.893 48.7695C180.112 47.2594 180.315 45.7268 180.499 44.1717C180.596 44.1892 180.685 44.2055 180.769 44.218C180.853 44.2318 180.942 44.238 181.039 44.238C181.118 44.238 181.201 44.2318 181.289 44.218C181.377 44.2042 181.468 44.1892 181.565 44.1717C181.801 44.7051 182.05 45.2472 182.309 45.7982C182.567 46.3491 182.826 46.8975 183.086 47.4435C183.345 47.9906 183.603 48.5253 183.863 49.0499C184.122 49.5733 184.371 50.0717 184.607 50.5425C185.134 49.5483 185.659 48.5053 186.181 47.4172C186.704 46.3291 187.202 45.2472 187.677 44.1717C187.896 44.2155 188.085 44.238 188.243 44.238C188.393 44.238 188.578 44.2155 188.797 44.1717C188.885 44.9355 188.979 45.7569 189.08 46.6371C189.182 47.5161 189.279 48.3763 189.377 49.2152C189.474 50.0542 189.57 50.8392 189.667 51.5667C189.763 52.2955 189.851 52.8815 189.93 53.326C189.755 53.3084 189.576 53.2997 189.397 53.2997H188.323C188.138 53.2997 187.954 53.3084 187.769 53.326C187.726 52.4107 187.653 51.4202 187.553 50.3547C187.451 49.2879 187.349 48.2311 187.243 47.183H187.217C186.717 48.2311 186.225 49.2628 185.742 50.2745C185.259 51.2875 184.78 52.3042 184.306 53.326C184.263 53.3172 184.221 53.3097 184.181 53.3059C184.142 53.3009 184.1 53.2997 184.056 53.2997C184.013 53.2997 183.971 53.3022 183.931 53.3059C183.892 53.3109 183.85 53.3172 183.806 53.326C183.332 52.3305 182.859 51.3363 182.39 50.3409C181.92 49.3467 181.435 48.3375 180.935 47.3158H180.909C180.768 48.3375 180.662 49.3454 180.592 50.3409L180.591 50.3421Z" fill="#040000"/>
<path d="M198.294 45.8983C198.277 45.3249 198.25 44.7501 198.215 44.1729C198.61 44.1817 199.001 44.1954 199.387 44.213C199.773 44.2305 200.165 44.2393 200.559 44.2393C201.209 44.2393 201.786 44.233 202.291 44.2192C202.796 44.2055 203.136 44.1904 203.312 44.1729C203.277 44.3157 203.259 44.5022 203.259 44.7326C203.259 44.8754 203.264 44.9855 203.272 45.0657C203.281 45.1458 203.295 45.2347 203.312 45.3324C203.057 45.3148 202.779 45.2973 202.475 45.2798C202.172 45.2623 201.877 45.2447 201.593 45.2272C201.308 45.2097 201.051 45.1959 200.822 45.1871C200.593 45.1784 200.431 45.1734 200.334 45.1734C200.299 45.6617 200.28 46.1463 200.275 46.6258C200.27 47.1054 200.268 47.59 200.268 48.0783C200.839 48.0695 201.355 48.0558 201.817 48.0382C202.277 48.0207 202.759 47.9982 203.259 47.9719C203.233 48.1234 203.215 48.2386 203.207 48.3187C203.198 48.3988 203.193 48.4827 203.193 48.5716C203.193 48.643 203.199 48.7169 203.213 48.792C203.227 48.8671 203.241 48.9761 203.259 49.1188C202.257 49.0387 201.261 48.9986 200.268 48.9986C200.268 49.2828 200.266 49.5671 200.262 49.8513C200.257 50.1355 200.255 50.4198 200.255 50.704C200.255 51.2812 200.268 51.8372 200.294 52.3693C200.794 52.3693 201.296 52.3556 201.796 52.3293C202.296 52.303 202.801 52.2579 203.311 52.1965C203.293 52.2942 203.28 52.3831 203.271 52.4632C203.262 52.5434 203.258 52.6548 203.258 52.7963C203.258 52.9378 203.262 53.0492 203.271 53.1294C203.28 53.2095 203.293 53.2759 203.311 53.3297C203.073 53.3209 202.781 53.3134 202.434 53.3097C202.088 53.3047 201.611 53.3034 201.005 53.3034H198.917C198.719 53.3034 198.57 53.3059 198.469 53.3097C198.367 53.3147 198.282 53.3209 198.211 53.3297C198.246 52.7788 198.273 52.2166 198.291 51.6431C198.308 51.0696 198.317 50.4148 198.317 49.6773V47.8654C198.317 47.1279 198.308 46.4731 198.291 45.8996L198.294 45.8983Z" fill="#040000"/>
<path d="M212.02 46.8237C212.02 46.2114 212.012 45.6955 211.994 45.2785C211.977 44.8603 211.964 44.4922 211.955 44.1729C212.2 44.2167 212.398 44.2393 212.548 44.2393C212.697 44.2393 212.894 44.2167 213.141 44.1729C214.097 45.2485 215.044 46.3053 215.98 47.3445C216.916 48.3838 217.875 49.4419 218.858 50.5162V48.0645C218.858 47.6288 218.855 47.2006 218.851 46.7786C218.846 46.3566 218.843 45.9685 218.838 45.6129C218.833 45.2573 218.824 44.9505 218.812 44.6938C218.798 44.4359 218.783 44.2631 218.766 44.1742C219.011 44.218 219.209 44.2405 219.359 44.2405C219.509 44.2405 219.705 44.218 219.952 44.1742C219.908 44.983 219.872 45.713 219.846 46.3666C219.82 47.0202 219.798 47.635 219.781 48.2123C219.764 48.7895 219.752 49.3605 219.747 49.9252C219.742 50.4899 219.74 51.0909 219.74 51.7307V53.3297C219.564 53.3122 219.385 53.3034 219.2 53.3034C219.007 53.3034 218.835 53.3122 218.687 53.3297C216.877 51.1973 214.959 49.0524 212.93 46.8925C212.922 47.1505 212.914 47.4072 212.91 47.6651C212.905 47.923 212.904 48.1847 212.904 48.4514V49.9978C212.904 50.5312 212.907 50.9832 212.91 51.3576C212.914 51.7307 212.922 52.0463 212.93 52.3042C212.939 52.5622 212.948 52.7725 212.956 52.9378C212.965 53.1018 212.973 53.2333 212.982 53.331C212.877 53.3134 212.771 53.3047 212.665 53.3047H212.362C212.16 53.3047 211.959 53.3134 211.757 53.331C211.774 53.2596 211.796 53.0067 211.822 52.5709C211.848 52.1352 211.877 51.6043 211.908 50.9782C211.939 50.3522 211.965 49.6722 211.987 48.9398C212.009 48.2073 212.02 47.5023 212.02 46.8274V46.8237Z" fill="#040000"/>
<path d="M230.575 45.6379C230.57 45.425 230.559 45.2698 230.541 45.1709C230.41 45.1709 230.247 45.1759 230.054 45.1846C229.861 45.1934 229.654 45.2047 229.435 45.2184C229.215 45.2322 228.992 45.2497 228.763 45.271C228.534 45.2936 228.323 45.3174 228.13 45.3449C228.148 45.2472 228.164 45.1496 228.176 45.0519C228.19 44.9542 228.196 44.8566 228.196 44.7589C228.196 44.6612 228.19 44.5636 228.176 44.4659C228.163 44.3682 228.148 44.2706 228.13 44.1729C228.429 44.1817 228.698 44.1904 228.94 44.1992C229.181 44.208 229.427 44.2142 229.677 44.2192C229.928 44.2242 230.2 44.228 230.494 44.233C230.789 44.238 231.142 44.2393 231.555 44.2393C231.968 44.2393 232.321 44.2368 232.616 44.233C232.91 44.228 233.18 44.2242 233.425 44.2192C233.67 44.2142 233.91 44.208 234.143 44.1992C234.376 44.1904 234.628 44.1817 234.901 44.1729C234.883 44.2706 234.867 44.3682 234.855 44.4659C234.841 44.5636 234.835 44.6612 234.835 44.7589C234.835 44.8566 234.842 44.9542 234.855 45.0519C234.868 45.1496 234.883 45.2472 234.901 45.3449C234.725 45.3186 234.527 45.2936 234.308 45.271C234.087 45.2497 233.871 45.231 233.655 45.2184C233.44 45.2047 233.236 45.1934 233.043 45.1846C232.85 45.1759 232.686 45.1709 232.555 45.1709C232.546 45.2159 232.54 45.2773 232.535 45.3574C232.53 45.4376 232.529 45.5302 232.529 45.6366V49.6748C232.529 50.4123 232.538 51.0671 232.555 51.6406C232.572 52.2141 232.598 52.7763 232.634 53.3272C232.485 53.3097 232.322 53.3009 232.147 53.3009H230.961C230.785 53.3009 230.623 53.3097 230.473 53.3272C230.508 52.7763 230.535 52.2141 230.553 51.6406C230.57 51.0671 230.579 50.4123 230.579 49.6748V46.3428C230.579 46.0849 230.576 45.8495 230.572 45.6366L230.575 45.6379Z" fill="#040000"/>
<path fill-rule="evenodd" clip-rule="evenodd" d="M59.8625 4.35133C58.4528 3.11048 56.8252 2.14884 55.064 1.51777C53.1517 0.827851 51.1343 0.483516 49.102 0.499794C47.0684 0.483516 45.0485 0.824095 43.1301 1.50776C41.3651 2.13257 39.7363 3.0942 38.3303 4.34132C36.9403 5.57967 35.8314 7.10726 35.0788 8.81892C34.3276 10.5306 33.9501 12.3875 33.9736 14.2607C33.9501 16.1714 34.3251 18.0646 35.0739 19.8188C35.8239 21.5718 36.9304 23.1458 38.3241 24.4367C39.7215 25.7189 41.3515 26.7156 43.1239 27.3692C45.0361 28.0779 47.0585 28.431 49.0958 28.4147C50.4684 28.4172 51.8373 28.2594 53.1753 27.9426C54.4377 27.6547 55.6618 27.2139 56.8203 26.6304C57.9255 26.0607 58.9528 25.3457 59.8749 24.5056C60.7809 23.6767 61.5656 22.7225 62.2092 21.6733C62.8702 20.5952 63.3764 19.4294 63.7118 18.2074C64.0695 16.9001 64.2465 15.5504 64.239 14.1943C64.2601 12.2898 63.8615 10.4054 63.0719 8.67743C62.3095 7.02713 61.2166 5.55463 59.8638 4.35259L59.8625 4.35133ZM56.5071 9.6015C56.8661 11.1278 57.0394 12.693 57.0257 14.2619C57.0394 15.8659 56.8648 17.4661 56.5071 19.0288C56.2126 20.3585 55.7014 21.6294 54.9947 22.7889C54.3733 23.8006 53.5243 24.6496 52.5168 25.2656C51.4697 25.8554 50.2902 26.1646 49.0921 26.1646C47.894 26.1646 46.7145 25.8554 45.6674 25.2656C44.8121 24.7447 44.072 24.051 43.4903 23.2309L42.2699 24.7685L42.2674 24.7622L43.4828 23.2309C43.3801 23.0894 43.2798 22.9404 43.1821 22.7889C42.8553 22.2592 42.5744 21.702 42.3441 21.1236L42.3491 21.1173C42.0768 20.4399 41.8577 19.7412 41.6956 19.0275C41.3453 17.4636 41.1745 15.8646 41.1869 14.2607C41.1733 12.6917 41.3441 11.1278 41.6956 9.60025C41.984 8.31056 42.4914 7.08222 43.1957 5.96908C43.8244 4.99368 44.6735 4.1848 45.6736 3.60882C46.7318 3.05163 47.9064 2.76113 49.0983 2.76113C50.2902 2.76113 51.466 3.05163 52.523 3.60882C53.3708 4.0959 54.111 4.75452 54.6951 5.54461C54.7979 5.68234 54.8981 5.82133 54.9934 5.96908C55.3375 6.49748 55.6321 7.05843 55.871 7.64317L57.7201 5.31798L57.7312 5.32173L55.8784 7.65194C56.1371 8.28301 56.3475 8.93412 56.5059 9.60025L56.5071 9.6015ZM166.303 4.57797L168.229 0.499794H171.039L183.449 27.8212H176.815L172.393 18.0283L170.759 14.4097L170.762 14.4072L170.79 14.3934L166.305 4.57672L166.303 4.57797ZM165.06 7.21244L155.331 27.8224H157.772L166.269 9.85693L165.06 7.21244ZM111.358 1.05323H117.836V27.8199H111.358V1.05323ZM170.76 14.4084L170.758 14.4109L169.941 12.6003L170.76 14.4084ZM208.498 18.0696L193.414 1.05323H189.258V27.8224H191.424V7.01586L209.78 28.2156H212.558V1.05323H208.499V18.0696H208.498ZM130.731 1.05323L145.813 18.0696V1.05323H149.874V28.2169H147.083L142.6 23.0769L128.695 7.01586V27.8212H126.576V1.05323H130.732H130.731ZM87.6365 19.333L78.4825 1.05323H72.1603V27.8224H74.0552V5.70614L77.7956 13.1688L85.2143 27.8224H86.0188L96.3375 7.37772V10.4091L96.3561 10.3716V27.8224H102.834V1.05323H96.6482L87.634 19.333H87.6365ZM227.869 3.34337V1.05323H243.5V3.34337H234.347V27.8224H227.869V3.34337ZM225.573 1.05323H218.698V3.34337H225.573V1.05323ZM16.9094 1.93348C18.8316 2.4481 20.6436 3.31457 22.2563 4.49032C23.7205 5.56965 24.9136 6.9833 25.7404 8.61482C26.5895 10.349 27.0152 12.2648 26.9793 14.2006C26.9917 16.0224 26.6328 17.8255 25.9248 19.5008C25.2218 21.1536 24.1735 22.6324 22.8516 23.8357C21.4047 25.1329 19.7165 26.1258 17.886 26.7556C15.923 27.4668 13.6716 27.8224 11.1343 27.8224H0.5V1.05449H6.99668V25.0753H10.4672C11.7012 25.0828 12.924 24.8424 14.0652 24.3666C15.189 23.8945 16.1977 23.1796 17.0221 22.273C17.9058 21.2876 18.5865 20.1331 19.0222 18.8785C19.5333 17.3947 19.7821 15.8321 19.7549 14.2607C19.766 12.8382 19.5284 11.4246 19.0556 10.0848C18.6286 8.86275 17.9763 7.73458 17.1322 6.75917C16.298 5.8038 15.2707 5.04126 14.1196 4.52413C12.9686 4.00575 11.721 3.74531 10.461 3.75908H9.29385V1.05449H10.1008C12.3992 1.03195 14.6902 1.32745 16.9107 1.93223L16.9094 1.93348Z" fill="#040000"/>
</g>
<defs>
<clipPath id="clip0_360_114">
<rect width="243" height="53" fill="white" transform="translate(0.5 0.5)"/>
</clipPath>
</defs>
</svg>
