<svg width="21" height="20" viewBox="0 0 21 20" fill="none" xmlns="http://www.w3.org/2000/svg">
<mask id="mask0_211_2014" style="mask-type:alpha" maskUnits="userSpaceOnUse" x="0" y="0" width="21" height="20">
<rect x="0.132324" width="20" height="20" fill="#D9D9D9"/>
</mask>
<g mask="url(#mask0_211_2014)">
<path d="M16.0283 16.9792C14.32 16.8403 12.7089 16.4132 11.195 15.6979C9.6811 14.9826 8.35124 14.0486 7.20541 12.8958C6.05958 11.7431 5.12555 10.4097 4.40333 8.89583C3.6811 7.38194 3.25749 5.77083 3.13249 4.0625C3.10471 3.77083 3.19152 3.51736 3.39291 3.30208C3.5943 3.08681 3.84083 2.97917 4.13249 2.97917H6.96583C7.20194 2.97917 7.4068 3.04861 7.58041 3.1875C7.75402 3.32639 7.8686 3.51389 7.92416 3.75L8.42416 5.97917C8.45194 6.14583 8.44499 6.3125 8.40333 6.47917C8.36166 6.64583 8.27833 6.79167 8.15333 6.91667L6.13249 8.95833C6.71583 10.0139 7.4311 10.9653 8.27833 11.8125C9.12555 12.6597 10.0769 13.375 11.1325 13.9583L13.195 11.9583C13.3339 11.8194 13.4867 11.7326 13.6533 11.6979C13.82 11.6632 13.9797 11.6597 14.1325 11.6875L16.3617 12.1667C16.5978 12.2222 16.7853 12.3403 16.9242 12.5208C17.063 12.7014 17.1325 12.9097 17.1325 13.1458V15.9792C17.1325 16.3542 17.0005 16.6181 16.7367 16.7708C16.4728 16.9236 16.2367 16.9931 16.0283 16.9792Z" fill="#333333"/>
</g>
</svg>
