<svg width="21" height="20" viewBox="0 0 21 20" fill="none" xmlns="http://www.w3.org/2000/svg">
<mask id="mask0_211_2024" style="mask-type:alpha" maskUnits="userSpaceOnUse" x="0" y="0" width="21" height="20">
<rect x="0.904297" width="20" height="20" fill="#D9D9D9"/>
</mask>
<g mask="url(#mask0_211_2024)">
<path d="M2.9043 18V16.2857H4.61858V2H13.19V3.14286H17.19V16.2857H18.9043V18H15.4757V4.85714H13.19V18H2.9043ZM9.75642 10.8571C9.99786 10.8571 10.2019 10.7755 10.3686 10.6122C10.5352 10.4488 10.6186 10.2465 10.6186 10.005C10.6186 9.76358 10.5369 9.55952 10.3736 9.39286C10.2103 9.22619 10.0079 9.14286 9.76646 9.14286C9.52502 9.14286 9.32096 9.22452 9.1543 9.38783C8.98763 9.55117 8.9043 9.75355 8.9043 9.99498C8.9043 10.2364 8.98596 10.4405 9.14927 10.6071C9.31261 10.7738 9.51499 10.8571 9.75642 10.8571Z" fill="#333333"/>
</g>
</svg>
