<svg width="21" height="20" viewBox="0 0 21 20" fill="none" xmlns="http://www.w3.org/2000/svg">
<mask id="mask0_211_2038" style="mask-type:alpha" maskUnits="userSpaceOnUse" x="0" y="0" width="21" height="20">
<rect x="0.904297" width="20" height="20" fill="#D9D9D9"/>
</mask>
<g mask="url(#mask0_211_2038)">
<path d="M5.0043 17.6667C4.5643 17.6667 4.18763 17.51 3.8743 17.1967C3.56096 16.8833 3.4043 16.5067 3.4043 16.0667V4.86667C3.4043 4.42667 3.56096 4.05001 3.8743 3.73667C4.18763 3.42334 4.5643 3.26667 5.0043 3.26667H5.8043V1.66667H7.4043V3.26667H13.8043V1.66667H15.4043V3.26667H16.2043C16.6443 3.26667 17.021 3.42334 17.3343 3.73667C17.6476 4.05001 17.8043 4.42667 17.8043 4.86667V16.0667C17.8043 16.5067 17.6476 16.8833 17.3343 17.1967C17.021 17.51 16.6443 17.6667 16.2043 17.6667H5.0043ZM5.0043 16.0667H16.2043V8.06667H5.0043V16.0667Z" fill="#333333"/>
</g>
</svg>
