<svg width="21" height="20" viewBox="0 0 21 20" fill="none" xmlns="http://www.w3.org/2000/svg">
<mask id="mask0_211_2031" style="mask-type:alpha" maskUnits="userSpaceOnUse" x="0" y="0" width="21" height="20">
<rect x="0.904297" width="20" height="20" fill="#D9D9D9"/>
</mask>
<g mask="url(#mask0_211_2031)">
<path d="M10.9043 10C9.79319 10 8.84874 9.61111 8.07096 8.83333C7.29319 8.05556 6.9043 7.11111 6.9043 6C6.9043 4.88889 7.29319 3.94444 8.07096 3.16667C8.84874 2.38889 9.79319 2 10.9043 2C12.0154 2 12.9599 2.38889 13.7376 3.16667C14.5154 3.94444 14.9043 4.88889 14.9043 6C14.9043 7.11111 14.5154 8.05556 13.7376 8.83333C12.9599 9.61111 12.0154 10 10.9043 10ZM2.9043 18V15.3333C2.9043 14.9074 3.02004 14.5046 3.25152 14.125C3.483 13.7454 3.80245 13.4259 4.20985 13.1667C5.22837 12.5741 6.30707 12.1204 7.44596 11.8056C8.58485 11.4907 9.73763 11.3333 10.9043 11.3333C12.071 11.3333 13.2237 11.4907 14.3626 11.8056C15.5015 12.1204 16.5802 12.5741 17.5987 13.1667C18.0062 13.4074 18.3256 13.7222 18.5571 14.1111C18.7886 14.5 18.9043 14.9074 18.9043 15.3333V18H2.9043Z" fill="#333333"/>
</g>
</svg>
