<svg width="18" height="19" viewBox="0 0 18 19" fill="none" xmlns="http://www.w3.org/2000/svg">
<path d="M2.42896 16.5711C1.34473 15.4868 0.802613 14.1905 0.802613 12.682C0.802614 11.1735 1.34473 9.87713 2.42896 8.7929L9.85358 1.36828C10.6314 0.590466 11.5742 0.201557 12.682 0.201557C13.7898 0.201557 14.7326 0.590466 15.5104 1.36828C16.2883 2.1461 16.6772 3.08891 16.6772 4.19671C16.6772 5.30451 16.2883 6.24732 15.5104 7.02514L8.79292 13.7427C8.29795 14.2376 7.70869 14.4851 7.02515 14.4851C6.34162 14.4851 5.75236 14.2376 5.25739 13.7427C4.76241 13.2477 4.51492 12.6584 4.51492 11.9749C4.51492 11.2913 4.76241 10.7021 5.25739 10.2071L11.9749 3.4896L13.0356 4.55026L6.31805 11.2678C6.1177 11.4681 6.01753 11.7038 6.01753 11.9749C6.01753 12.2459 6.1177 12.4816 6.31805 12.682C6.51839 12.8823 6.75409 12.9825 7.02515 12.9825C7.29621 12.9825 7.53191 12.8823 7.73226 12.682L14.4498 5.96448C14.9447 5.4695 15.1922 4.88025 15.1922 4.19671C15.1922 3.51317 14.9447 2.92392 14.4498 2.42894C13.9548 1.93397 13.3655 1.68648 12.682 1.68648C11.9985 1.68648 11.4092 1.93397 10.9142 2.42894L3.48962 9.85356C2.7118 10.6314 2.32289 11.5742 2.32289 12.682C2.32289 13.7898 2.7118 14.7326 3.48962 15.5104C4.26744 16.2882 5.21025 16.6771 6.31805 16.6771C7.42585 16.6771 8.36866 16.2882 9.14647 15.5104L16.5711 8.0858L17.6318 9.14646L10.2071 16.5711C9.1229 17.6553 7.82654 18.1974 6.31805 18.1974C4.80955 18.1974 3.51319 17.6553 2.42896 16.5711Z" fill="#999999"/>
</svg>
