<svg width="21" height="20" viewBox="0 0 21 20" fill="none" xmlns="http://www.w3.org/2000/svg">
<mask id="mask0_211_2007" style="mask-type:alpha" maskUnits="userSpaceOnUse" x="0" y="0" width="21" height="20">
<rect x="0.132324" width="20" height="20" fill="#D9D9D9"/>
</mask>
<g mask="url(#mask0_211_2007)">
<path d="M10.1351 10.0417C10.6056 10.0417 11.0075 9.87414 11.3408 9.53908C11.6742 9.20403 11.8408 8.80125 11.8408 8.33075C11.8408 7.86025 11.6733 7.45834 11.3382 7.125C11.0032 6.79167 10.6004 6.625 10.1299 6.625C9.6594 6.625 9.25749 6.79253 8.92415 7.12758C8.59082 7.46264 8.42415 7.86542 8.42415 8.33592C8.42415 8.80642 8.59168 9.20834 8.92674 9.54167C9.26179 9.875 9.66457 10.0417 10.1351 10.0417ZM10.1325 18.3333C7.89638 16.4028 6.22624 14.6319 5.12207 13.0208C4.0179 11.4097 3.46582 9.90417 3.46582 8.50417C3.46582 6.40417 4.13249 4.73958 5.46582 3.51042C6.79915 2.28125 8.35471 1.66667 10.1325 1.66667C11.9103 1.66667 13.4658 2.28125 14.7992 3.51042C16.1325 4.73958 16.7992 6.40417 16.7992 8.50417C16.7992 9.90417 16.2471 11.4097 15.1429 13.0208C14.0387 14.6319 12.3686 16.4028 10.1325 18.3333Z" fill="#333333"/>
</g>
</svg>
