<svg width="600" height="69" viewBox="0 0 600 69" fill="none" xmlns="http://www.w3.org/2000/svg">
<path fill-rule="evenodd" clip-rule="evenodd" d="M40.6103 3.84985C45.3673 5.10976 49.8516 7.23107 53.8428 10.1096C57.4664 12.752 60.4193 16.2129 62.4654 20.2072C64.5667 24.4529 65.6204 29.1431 65.5315 33.8823C65.5622 38.3426 64.6739 42.7569 62.9218 46.8585C61.182 50.9049 58.5875 54.5253 55.3162 57.4712C51.7354 60.647 47.5574 63.0779 43.0271 64.6199C38.169 66.3611 32.5973 67.2317 26.318 67.2317H0V1.69788H16.0781V60.506H24.667C27.7209 60.5244 30.7472 59.9358 33.5714 58.7709C36.3526 57.6153 38.849 55.8649 40.8891 53.6455C43.0761 51.2329 44.7608 48.4066 45.839 45.335C47.104 41.7024 47.7197 37.8766 47.6523 34.0295C47.6799 30.5471 47.0918 27.0862 45.9217 23.8061C44.8649 20.8142 43.2507 18.0522 41.1617 15.6642C39.0972 13.3252 36.5548 11.4584 33.7061 10.1923C30.8575 8.92321 27.7699 8.28559 24.6517 8.31931H21.7632V1.69788H23.7603C29.4485 1.6427 35.1182 2.36615 40.6134 3.84678L40.6103 3.84985Z" fill="white"/>
<path fill-rule="evenodd" clip-rule="evenodd" d="M154.728 20.1885C152.835 16.114 150.122 12.4785 146.764 9.51067C143.264 6.44705 139.223 4.07281 134.851 2.51472C130.103 0.811335 125.092 -0.0388136 120.05 0.00137528C115.001 -0.0388136 109.986 0.802061 105.224 2.48999C100.842 4.03262 96.7985 6.40686 93.3079 9.48594C89.8572 12.5434 87.1041 16.315 85.2359 20.541C83.3708 24.7701 82.4336 29.3547 82.4889 33.9795C82.4305 38.697 83.3616 43.3713 85.2205 47.7024C87.0826 52.0305 89.8327 55.9164 93.2894 59.1037C96.7585 62.2693 100.805 64.7301 105.205 66.3439C109.953 68.0905 114.973 68.9654 120.031 68.9252C123.439 68.9314 126.837 68.5419 130.159 67.7598C133.293 67.0487 136.332 65.9605 139.208 64.5199C141.952 63.1133 144.502 61.3481 146.791 59.2737C149.04 57.2272 150.989 54.8715 152.586 52.2809C154.227 49.6191 155.484 46.741 156.317 43.7237C157.205 40.4963 157.644 37.1637 157.626 33.8156C157.678 29.1135 156.688 24.4609 154.728 20.1947V20.1885ZM138.43 22.4731C139.322 26.2416 139.752 30.1059 139.718 33.9795C139.752 37.9396 139.318 41.8905 138.43 45.7486C137.699 49.0318 136.43 52.1696 134.676 55.0354C133.133 57.5332 131.025 59.6292 128.524 61.1502C125.925 62.6063 122.996 63.3699 120.022 63.3699C117.048 63.3699 114.119 62.6063 111.52 61.1502C109.397 59.8642 107.556 58.1515 106.115 56.1266L103.085 59.9229L103.079 59.9075L106.096 56.1266C105.841 55.7773 105.593 55.4094 105.35 55.0354C104.539 53.7277 103.841 52.352 103.27 50.9237L103.282 50.9083C102.606 49.2358 102.062 47.5108 101.659 45.7486C100.79 41.8874 100.366 37.9396 100.397 33.9795C100.363 30.1059 100.787 26.2447 101.659 22.4731C102.375 19.2889 103.635 16.2562 105.384 13.5079C106.945 11.0997 109.052 9.1026 111.535 7.68053C114.162 6.30484 117.078 5.58762 120.037 5.58762C122.996 5.58762 125.915 6.30484 128.539 7.68053C130.644 8.88311 132.482 10.5092 133.932 12.4599C134.187 12.8 134.436 13.1431 134.673 13.511C135.527 14.8156 136.258 16.2006 136.851 17.6443L141.442 11.9035L141.469 11.9127L136.87 17.6659C137.512 19.224 138.034 20.8316 138.427 22.4762L138.43 22.4731Z" fill="white"/>
<path fill-rule="evenodd" clip-rule="evenodd" d="M214.749 46.8336L191.991 1.69495H176.271V67.7966H180.983V13.1844L190.283 31.6122L208.729 67.7966H210.733L236.389 17.3121V24.7976L236.435 24.7049V67.7966H252.543V1.69495H237.162L214.749 46.8336Z" fill="white"/>
<path d="M289.83 1.12988H273.446V67.7965H289.83V1.12988Z" fill="white"/>
<path fill-rule="evenodd" clip-rule="evenodd" d="M408.634 11.149L413.422 1.12988H420.407L451.261 68.2725H434.768L423.773 44.2095L419.711 35.3135L419.718 35.3074L423.801 44.2095L419.718 35.3074L419.785 35.2735L408.634 11.149Z" fill="white"/>
<path fill-rule="evenodd" clip-rule="evenodd" d="M405.542 17.6263L381.355 68.2726H387.424L408.548 24.1221L405.542 17.6263Z" fill="white"/>
<path fill-rule="evenodd" clip-rule="evenodd" d="M358.79 42.8926L321.115 1.12988H310.734V66.8285H316.144V15.7668L361.992 67.7965H368.926V1.12988H358.79V42.8926Z" fill="white"/>
<g clip-path="url(#clip0_301_2911)">
<path fill-rule="evenodd" clip-rule="evenodd" d="M560.834 7.35003V1.69495H600V7.35003H577.066V67.7966H560.834V7.35003Z" fill="white"/>
<path d="M555.081 1.69495H537.854V7.35003H555.081V1.69495Z" fill="white"/>
</g>
<path fill-rule="evenodd" clip-rule="evenodd" d="M475.817 1.12988L513.123 42.8926V1.12988H523.164V67.7965H516.261L505.173 55.1817L470.778 15.7668V66.8285H465.537V1.12988H475.817Z" fill="white"/>
<defs>
<clipPath id="clip0_301_2911">
<rect width="62.1469" height="66.1017" fill="white" transform="translate(537.854 1.69495)"/>
</clipPath>
</defs>
</svg>
