<svg width="300" height="35" viewBox="0 0 300 35" fill="none" xmlns="http://www.w3.org/2000/svg">
<path fill-rule="evenodd" clip-rule="evenodd" d="M73.2871 4.70039C71.5467 3.18612 69.5373 2.0126 67.3629 1.24248C65.0021 0.400534 62.5115 -0.0196728 60.0024 0.000191487C57.4919 -0.0196728 54.9982 0.39595 52.6297 1.23025C50.4508 1.99273 48.4399 3.16626 46.7041 4.68817C44.9881 6.19938 43.619 8.06357 42.6899 10.1524C41.7624 12.2412 41.2964 14.5073 41.3254 16.7932C41.2964 19.1249 41.7594 21.4353 42.6838 23.5761C43.6098 25.7153 44.9759 27.636 46.6964 29.2114C48.4216 30.7761 50.434 31.9924 52.6221 32.7901C54.9829 33.6549 57.4797 34.0858 59.9948 34.066C61.6894 34.069 63.3794 33.8765 65.0312 33.4899C66.5898 33.1384 68.101 32.6006 69.5312 31.8885C70.8957 31.1933 72.164 30.3208 73.3024 29.2955C74.4209 28.2839 75.3896 27.1196 76.1842 25.8391C77.0002 24.5234 77.6251 23.1009 78.0392 21.6095C78.4808 20.0142 78.6993 18.367 78.6902 16.7122C78.7161 14.3881 78.2241 12.0884 77.2492 9.97972C76.308 7.96578 74.9587 6.16882 73.2886 4.70192L73.2871 4.70039ZM69.1446 11.1074C69.5877 12.9701 69.8017 14.8801 69.7849 16.7947C69.8017 18.7521 69.5862 20.7049 69.1446 22.6119C68.7809 24.2347 68.1499 25.7856 67.2774 27.2005C66.5103 28.4352 65.4621 29.4712 64.2183 30.223C62.9256 30.9427 61.4693 31.3201 59.9902 31.3201C58.5111 31.3201 57.0549 30.9427 55.7622 30.223C54.7063 29.5873 53.7926 28.7408 53.0744 27.7399L51.5678 29.6164L51.5647 29.6087L53.0652 27.7399C52.9384 27.5673 52.8146 27.3854 52.6939 27.2005C52.2905 26.5542 51.9436 25.8742 51.6594 25.1683L51.6655 25.1606C51.3294 24.334 51.0589 23.4813 50.8587 22.6104C50.4263 20.7019 50.2155 18.7506 50.2307 16.7932C50.2139 14.8786 50.4248 12.9701 50.8587 11.1059C51.2148 9.532 51.8413 8.03301 52.7107 6.6746C53.4869 5.48427 54.5352 4.49717 55.7698 3.79427C57.0763 3.1143 58.5264 2.7598 59.9979 2.7598C61.4693 2.7598 62.921 3.1143 64.2259 3.79427C65.2726 4.38868 66.1864 5.19242 66.9076 6.1566C67.0344 6.32468 67.1582 6.49429 67.2758 6.6746C67.7006 7.31943 68.0643 8.00398 68.3592 8.71757L70.6421 5.88003L70.6558 5.88461L68.3684 8.72826C68.6877 9.49839 68.9475 10.293 69.1431 11.1059L69.1446 11.1074ZM204.696 4.97697L207.073 0.000191487H210.542L225.863 33.3417H217.673L212.214 21.391L210.197 16.975L210.2 16.972L210.235 16.9551L204.697 4.97544L204.696 4.97697ZM203.16 8.19193L191.15 33.3432H194.163L204.653 11.4191L203.16 8.19193ZM136.862 0.675578H144.86V33.3401H136.862V0.675578ZM210.198 16.9735L210.195 16.9765L209.186 14.767L210.198 16.9735ZM256.787 21.4414L238.165 0.675578H233.034V33.3432H235.708V7.95203L258.371 33.823H261.799V0.675578H256.789V21.4414H256.787ZM160.779 0.675578L179.399 21.4414V0.675578H184.413V33.8245H180.967L175.432 27.552L158.265 7.95203V33.3417H155.649V0.675578H160.78H160.779ZM107.576 22.9832L96.2747 0.675578H88.4695V33.3432H90.8089V6.35371L95.4266 15.4607L104.586 33.3432H105.579L118.318 8.39363V12.093L118.341 12.0471V33.3432H126.339V0.675578H118.701L107.573 22.9832H107.576ZM280.703 3.47033V0.675578H300V3.47033H288.7V33.3432H280.703V3.47033ZM277.868 0.675578H269.38V3.47033H277.868V0.675578ZM20.2585 1.74978C22.6316 2.3778 24.8686 3.43519 26.8596 4.87C28.6673 6.18716 30.1403 7.9123 31.161 9.90331C32.2092 12.0196 32.7349 14.3575 32.6905 16.7198C32.7058 18.9431 32.2627 21.1435 31.3887 23.188C30.5208 25.2049 29.2265 27.0095 27.5946 28.478C25.8083 30.061 23.7241 31.2727 21.4642 32.0413C19.0407 32.9092 16.2612 33.3432 13.1288 33.3432H0V0.677106H8.0206V29.9907H12.3052C13.8286 29.9999 15.3383 29.7065 16.7471 29.1259C18.1346 28.5498 19.3799 27.6773 20.3976 26.571C21.4886 25.3684 22.329 23.9596 22.8669 22.4285C23.498 20.6178 23.8051 18.7108 23.7715 16.7932C23.7852 15.0573 23.4918 13.3322 22.9081 11.6972C22.381 10.2059 21.5757 8.82911 20.5336 7.63878C19.5037 6.4729 18.2354 5.54233 16.8144 4.91126C15.3933 4.27866 13.8531 3.96083 12.2975 3.97764H10.8566V0.677106H11.8529C14.6904 0.649602 17.5188 1.01022 20.2601 1.74825L20.2585 1.74978Z" fill="white"/>
</svg>
