<svg xmlns="http://www.w3.org/2000/svg" xmlns:xlink="http://www.w3.org/1999/xlink" width="364.52" height="147.736" viewBox="0 0 364.52 147.736">
  <defs>
    <clipPath id="clip-path">
      <path id="패스_1678" data-name="패스 1678" d="M0,0H364.52V147.736H0V0Z" fill="#f5f5f5"/>
    </clipPath>
  </defs>
  <g id="마스크_그룹_22" data-name="마스크 그룹 22" opacity="0.03" clip-path="url(#clip-path)">
    <g id="그룹_778" data-name="그룹 778" transform="translate(0 -16.979)">
      <g id="그룹_776" data-name="그룹 776" transform="translate(81.95 10.981)">
        <path id="패스_1637" data-name="패스 1637" d="M547.851,492.839H514.412V460.713h33.439Zm-31.07-2.277h28.7V462.99h-28.7Z" transform="translate(-504.929 -405.398)"/>
        <rect id="사각형_823" data-name="사각형 823" width="52.168" height="2.277" transform="translate(0.294 47.852)"/>
        <path id="패스_1638" data-name="패스 1638" d="M523.34,469.355h-19.62v-2.277h17.25V453.292h2.37Z" transform="translate(-503.721 -404.301)"/>
        <path id="패스_1639" data-name="패스 1639" d="M560.359,469.355H540.682V453.292h2.37v13.786h17.307Z" transform="translate(-507.898 -404.301)"/>
        <path id="패스_1640" data-name="패스 1640" d="M543.052,502.884h-2.37v-15.9h19.455v2.277H543.052Z" transform="translate(-507.898 -409.282)"/>
        <path id="패스_1641" data-name="패스 1641" d="M523.378,502.884h-2.37V489.26H504.052v-2.277h19.326Z" transform="translate(-503.758 -409.282)"/>
        <path id="패스_1642" data-name="패스 1642" d="M547.851,545.19H514.412V513.063h33.439Zm-31.07-2.277h28.7V515.34h-28.7Z" transform="translate(-504.929 -413.137)"/>
        <rect id="사각형_824" data-name="사각형 824" width="52.168" height="2.277" transform="translate(0.294 92.464)"/>
        <path id="패스_1643" data-name="패스 1643" d="M523.34,521.705h-19.62v-2.277h17.25V505.642h2.37Z" transform="translate(-503.721 -412.04)"/>
        <path id="패스_1644" data-name="패스 1644" d="M560.359,521.705H540.682V505.642h2.37v13.786h17.307Z" transform="translate(-507.898 -412.04)"/>
        <path id="패스_1645" data-name="패스 1645" d="M543.052,559.671h-2.37V539.333h19.455v2.277H543.052Z" transform="translate(-507.898 -417.02)"/>
        <path id="패스_1646" data-name="패스 1646" d="M523.378,559.671h-2.37V541.61H504.052v-2.277h19.326Z" transform="translate(-503.758 -417.02)"/>
        <path id="패스_1647" data-name="패스 1647" d="M547.851,440.489H514.412V408.363h33.439Zm-31.07-2.277h28.7V410.64h-28.7Z" transform="translate(-504.929 -397.66)"/>
        <path id="패스_1648" data-name="패스 1648" d="M523.34,416.246h-19.62v-2.277h17.25V395.8h2.37Z" transform="translate(-503.721 -395.803)"/>
        <path id="패스_1649" data-name="패스 1649" d="M560.359,416.246H540.682V395.8h2.37v18.165h17.307Z" transform="translate(-507.898 -395.803)"/>
        <path id="패스_1650" data-name="패스 1650" d="M543.052,450.534h-2.37v-15.9h19.455v2.277H543.052Z" transform="translate(-507.898 -401.543)"/>
        <path id="패스_1651" data-name="패스 1651" d="M523.378,450.534h-2.37V436.91H504.052v-2.277h19.326Z" transform="translate(-503.758 -401.543)"/>
      </g>
      <path id="패스_1652" data-name="패스 1652" d="M564.331,465.272H552.144V417.09c0-12.387-10.49-22.464-23.382-22.464S505.38,404.7,505.38,417.09v48.182H493.192V417.09c0-18.843,15.957-34.173,35.57-34.173s35.569,15.33,35.569,34.173Z" transform="translate(-420.58 -382.917)" fill="#dc000c"/>
      <path id="패스_1653" data-name="패스 1653" d="M528.762,561.918c-19.613,0-35.57-15.331-35.57-34.174V479.563H505.38v48.181c0,12.387,10.489,22.464,23.382,22.464s23.382-10.077,23.382-22.464V479.563h12.187v48.181C564.331,546.588,548.375,561.918,528.762,561.918Z" transform="translate(-420.58 -397.203)" fill="#003f88"/>
      <g id="그룹_777" data-name="그룹 777" transform="translate(0 2.378)">
        <path id="패스_1654" data-name="패스 1654" d="M474.337,385.713H451.286L430.3,412.518V385.713H411.329v72.514H430.3V431.422l20.988,26.806h23.051l-28.6-36.257Z" transform="translate(-411.329 -385.708)"/>
        <path id="패스_1655" data-name="패스 1655" d="M633.359,458.227H653.68l-16.36-28.777A23.014,23.014,0,0,0,650.6,408.8c0-12.753-10.76-23.091-24.034-23.091-.068,0-.136,0-.2.005h-37.85v72.514h18.969V431.889h10.9Zm-25.874-58.4h14.03a8.979,8.979,0,1,1,0,17.943h-14.03Z" transform="translate(-431.353 -385.707)"/>
        <path id="패스_1656" data-name="패스 1656" d="M728.707,400.64V385.713H672.615v72.514h56.092V443.3H691.584V429.434h33.439V414.507H691.584V400.64Z" transform="translate(-440.857 -385.708)"/>
        <path id="패스_1657" data-name="패스 1657" d="M801.571,458.227h19.364l-27.471-72.514H770.975L743.5,458.227h19.364l4.812-12.7h29.079ZM773.335,430.6l8.884-23.452L791.1,430.6Z" transform="translate(-448.869 -385.708)"/>
        <path id="패스_1658" data-name="패스 1658" d="M470.3,513.251c.52-3.318,2.408-26.451-27.465-26.451-31.9,0-30.1,26.451-30.1,26.451h18.913s.628-11.317,9.968-11.317,8.752,7.165,8.752,7.538.709,5.047-6.362,10.995S413.974,545.7,412.961,546.6a4.666,4.666,0,0,0-1.606,3.041,4.07,4.07,0,0,0-.026.456V560.7H471.65V545.776H438.992c5.15-4.163,17.468-14.135,22.108-18.007C467.034,522.819,469.777,516.568,470.3,513.251Z" transform="translate(-411.329 -400.651)"/>
        <path id="패스_1659" data-name="패스 1659" d="M645.892,513.251c.52-3.318,2.408-26.451-27.465-26.451-31.9,0-30.1,26.451-30.1,26.451h18.913s.628-11.317,9.968-11.317,8.752,7.165,8.752,7.538.708,5.047-6.363,10.995S589.57,545.7,588.557,546.6a4.666,4.666,0,0,0-1.606,3.041,4.092,4.092,0,0,0-.026.456V560.7h60.321V545.776H614.588c5.15-4.163,17.468-14.135,22.108-18.007C642.63,522.819,645.373,516.568,645.892,513.251Z" transform="translate(-431.173 -400.651)"/>
        <path id="패스_1660" data-name="패스 1660" d="M696.91,488.4a2.738,2.738,0,0,0-1.646.554l-.008-.011L672.615,505.28v19.26l21.6-15.586v51.962h18.969V488.4Z" transform="translate(-440.857 -400.887)"/>
      </g>
    </g>
  </g>
</svg>
