<?xml version="1.0" encoding="UTF-8"?><svg id="_이어_2" xmlns="http://www.w3.org/2000/svg" viewBox="0 0 12.95 11.64"><defs><style type="text/css">.cls-1{fill:#fff;}.cls-2{fill:#1860ab;}</style></defs><g id="Layer_1"><g><path class="cls-2" d="M.39,4.35c-1.08,3.21,.14,5.54,3.1,6.63,3.16,1.17,6.54,1.03,8.05-2.59,1.1-2.62,.29-4.51-1.64-6.21C8.39,.85,6.13-.53,4.16,.2,2.42,.85,1,2.51,.39,4.35"/><path class="cls-2" d="M9.13,9.93s2.13,.99,3.83-.59c0,0-2.11,.34-1.91-1.85"/><path class="cls-1" d="M6.05,8.15c-.33,0-.61,.11-.84,.33-.23,.22-.35,.49-.35,.82s.12,.62,.35,.85c.24,.22,.51,.33,.83,.33s.61-.11,.83-.33c.23-.22,.34-.51,.34-.85s-.11-.62-.34-.83c-.23-.21-.5-.32-.83-.32m.89-5.96c0-.32-.15-.55-.45-.68-.3-.13-.59-.13-.89,0-.3,.13-.44,.36-.44,.68V6.75c0,.32,.15,.55,.44,.68s.59,.13,.89,0c.3-.13,.45-.36,.45-.68V2.19Z"/></g></g></svg>