<?xml version="1.0" encoding="UTF-8"?><svg id="_이어_2" xmlns="http://www.w3.org/2000/svg" viewBox="0 0 107.35 24.08"><defs><style type="text/css">.cls-1{stroke-linecap:round;stroke-miterlimit:10;stroke-width:1.5px;}.cls-1,.cls-2{fill:none;stroke:#7a2843;}.cls-2{stroke-miterlimit:5.06;stroke-width:3.84px;}.cls-3{fill:#7a2843;}</style></defs><g id="_이어_1-2"><path class="cls-3" d="M3.63,10.19C-.92,11.79-.7,18.58,2.26,21.52c2.9,2.88,7.69,2.74,11.45,2.36,2.16-.22,4.29-.62,6.43-1,5.5-.97,10.98-2.17,16.56-2.67,4.79-.43,9.6-.45,14.41-.4,5.77,.07,11.53,.32,17.3,.59,2.85,.13,5.69,.28,8.54,.44,4.3,.24,8.6,.5,12.9,.79,3.51,.24,7.15,.54,10.58-.42,.97-.27,1.91-.65,2.78-1.15,2.72-1.54,4.34-4.2,4.13-7.36-.12-1.72-.72-3.39-1.67-4.82-.64-.97-1.42-1.86-2.31-2.62-3.22-2.77-7.5-3.93-11.63-4.42-5.12-.61-10.39-.53-15.54-.35-1.49,.05-2.97,.13-4.46,.24-4.66,.33-9.31,.78-13.96,1.24-4.66,.46-9.31,1.06-13.94,1.69-1.49,.2-2.98,.42-4.47,.65-2.31,.36-4.6,.79-6.89,1.23-2.25,.43-4.53,.93-6.82,1.04-1.03,.05-2.11,.06-3.08,.46"/><path class="cls-2" d="M14.62,18.45c-.86,.23-1.38-.02-1.58-.76-.2-.75,.13-1.23,.99-1.46,.85-.23,1.37,.03,1.57,.78,.2,.73-.13,1.21-.97,1.44Zm1.83-8.07l.92-.25c.39-.1,.62-.33,.7-.69,.08-.36,0-.67-.25-.94-.25-.27-.56-.35-.95-.25l-.92,.25-.58-2.15c-.11-.42-.37-.67-.78-.76-.41-.08-.77,.02-1.08,.29-.31,.28-.41,.62-.3,1.05l1.6,5.98c.11,.42,.37,.67,.78,.76,.41,.08,.77-.02,1.09-.29,.31-.27,.41-.62,.3-1.05l-.52-1.95Zm-2.87,4.17c-1.02,.28-1.77,.74-2.25,1.39-.47,.65-.59,1.42-.35,2.31,.24,.89,.73,1.5,1.46,1.82,.74,.32,1.62,.34,2.64,.07,1.02-.27,1.77-.74,2.25-1.38,.48-.65,.6-1.42,.36-2.31-.24-.89-.73-1.5-1.46-1.83-.74-.33-1.62-.35-2.64-.08Zm-3.17-3.55l-.21-.78,1.64-.44c.29-.08,.49-.24,.61-.47,.11-.24,.14-.48,.08-.72-.06-.24-.21-.43-.42-.58-.22-.15-.47-.19-.76-.11l-1.64,.44-.25-.93c-.11-.42-.38-.68-.78-.76-.41-.08-.77,.02-1.09,.29-.31,.28-.41,.62-.3,1.05l.25,.93-1.8,.48c-.29,.08-.49,.24-.61,.47-.11,.24-.14,.48-.08,.72,.06,.24,.21,.43,.42,.58,.22,.15,.47,.19,.76,.11l1.8-.48,.21,.77-1.72,2.68c-.16,.25-.22,.49-.19,.74,.03,.25,.13,.44,.3,.58,.17,.14,.37,.24,.59,.31,.23,.07,.46,.04,.7-.06,.24-.11,.43-.29,.58-.54l1.3-2.21,2.25,1.11c.37,.19,.69,.22,.96,.09,.26-.12,.47-.3,.63-.53,.15-.23,.19-.49,.11-.78-.08-.3-.28-.52-.61-.67l-2.72-1.29Z"/><path class="cls-2" d="M23.8,11.85c-.46-.03-.81-.19-1.04-.48-.23-.29-.33-.68-.3-1.17,.04-.49,.19-.87,.46-1.12,.27-.25,.64-.36,1.1-.33,.46,.03,.81,.19,1.04,.48,.23,.29,.33,.68,.3,1.17-.03,.5-.19,.87-.46,1.12-.27,.25-.64,.36-1.1,.33Zm3.97,4.78c.19-.31,.21-.63,.07-.97-.14-.33-.42-.51-.82-.54l-6.53-.46c-.4-.03-.7,.11-.89,.42-.19,.31-.21,.63-.07,.97,.14,.33,.42,.51,.82,.54l6.53,.46c.4,.03,.7-.11,.89-.42Zm-1.01-8.65c-.63-.68-1.5-1.06-2.61-1.13-1.11-.08-2.03,.17-2.75,.76-.72,.58-1.11,1.4-1.18,2.43-.07,1.05,.2,1.91,.83,2.59,.63,.68,1.5,1.06,2.61,1.14,1.11,.08,2.03-.18,2.75-.76,.72-.59,1.11-1.4,1.18-2.45,.07-1.03-.21-1.89-.83-2.57Zm4.37,1.08c.02-.32-.08-.59-.3-.79-.22-.21-.47-.32-.75-.34-.28-.02-.54,.06-.79,.23-.25,.17-.38,.42-.41,.74l-.47,6.67c-.03,.44,.13,.76,.49,.97,.36,.21,.73,.24,1.12,.08s.6-.46,.63-.89l.47-6.67Z"/><line class="cls-1" x1="3.99" y1="3.57" x2="2.26" y2="1.65"/><line class="cls-1" x1="3.05" y1="6.26" x2=".75" y2="7.43"/><line class="cls-1" x1="6.76" y1="2.91" x2="8.16" y2=".75"/></g></svg>