<svg width="32" height="32" viewBox="0 0 32 32" fill="none" xmlns="http://www.w3.org/2000/svg">
<g clip-path="url(#clip0_1_758)">
<path d="M16.4967 17.1061C20.7642 17.1061 24.2381 13.7056 24.2381 9.52144C24.2381 5.33725 20.7642 2 16.4967 2C12.2292 2 8.75537 5.40045 8.75537 9.58465C8.75537 13.7688 12.2292 17.1061 16.4967 17.1061ZM16.4967 4.46501C19.4046 4.46501 21.766 6.75937 21.766 9.58465C21.766 12.4099 19.4501 14.7043 16.4967 14.7043C13.5433 14.7043 11.2274 12.4542 11.2274 9.58465C11.2274 6.71512 13.5953 4.46501 16.4967 4.46501Z" fill="black"/>
<path d="M29 30V29.6776C28.8569 24.6718 23.4835 19.0654 16.5033 19.0654C9.52305 19.0654 4.14314 24.6654 4.00653 29.6776V30H6.5306L6.54361 29.6966C6.66721 25.9675 11.1364 21.4672 16.4968 21.4672C21.8572 21.4672 26.3198 25.9295 26.4499 29.6271V30H28.9935H29Z" fill="black"/>
</g>
<defs>
<clipPath id="clip0_1_758">
<rect width="25" height="28" fill="white" transform="translate(4 2)"/>
</clipPath>
</defs>
</svg>
