<svg width="56" height="20" viewBox="0 0 56 20" fill="none" xmlns="http://www.w3.org/2000/svg">
<path d="M3.40474 12.8372C4.86337 14.5899 6.133 15.5664 8.77984 15.5664C10.2385 15.5664 11.6157 15.0781 11.6157 13.9285C11.6157 13.0949 10.9944 12.808 9.91379 12.4919L6.96941 11.6583C4.67341 10.9979 2.78253 9.61871 2.78253 7.00427C2.78253 3.18376 5.94304 0.684082 10.346 0.684082C14.2082 0.684082 16.9636 2.66631 18.0985 4.67675L14.6143 7.20463C13.5608 5.82543 12.1565 4.61937 10.0495 4.61937C8.7527 4.61937 7.51021 5.10763 7.51021 6.22811C7.51021 7.06068 8.18573 7.3194 9.10355 7.6073L11.5343 8.35429C14.5329 9.33081 16.261 10.6808 16.261 13.2671C16.261 17.4903 12.4521 19.4725 8.58988 19.4725C4.72768 19.4725 1.29677 18.0077 0 15.8533L3.40378 12.8372H3.40474Z" fill="white"/>
<path d="M16.4756 19.1479L20.7148 1.04932H25.3048L23.7393 7.74326H31.4612L33.0277 1.04932H37.6176L33.3784 19.1479H28.8155L30.4895 11.9948H22.7676L21.0936 19.1479H16.4766H16.4756Z" fill="white"/>
<path d="M49.2142 12.023L51.7828 1.04932H56.0004L51.7556 19.1479H47.7815L42.7529 6.93886L39.8875 19.1479H35.6699L39.9147 1.04932H44.8617L49.2142 12.023Z" fill="white"/>
</svg>
