<svg width="100" height="35" viewBox="0 0 100 35" fill="none" xmlns="http://www.w3.org/2000/svg">
<path d="M100 0H0V35H100V0Z" fill="#003087"/>
<path d="M8.52774 21.6089C10.9875 24.2202 13.1285 25.675 17.592 25.675C20.0518 25.675 22.3743 24.9476 22.3743 23.2348C22.3743 21.9929 21.3266 21.5654 19.5043 21.0945L14.539 19.8526C10.6672 18.8686 7.47846 16.8138 7.47846 12.9187C7.47846 7.22662 12.8082 3.50244 20.2332 3.50244C26.7463 3.50244 31.3928 6.4557 33.3067 9.45098L27.4311 13.2172C25.6545 11.1624 23.2863 9.36548 19.7331 9.36548C17.5463 9.36548 15.451 10.0929 15.451 11.7623C15.451 13.0027 16.5902 13.3882 18.1379 13.8171L22.237 14.93C27.2938 16.3849 30.2079 18.3962 30.2079 22.2494C30.2079 28.5414 23.7847 31.4946 17.2717 31.4946C10.7587 31.4946 4.97294 29.3123 2.78613 26.1025L8.5261 21.6089H8.52774Z" fill="white"/>
<path d="M30.5723 30.9819L37.7243 4.01855H45.4681L42.8269 13.9912H55.8546L58.4974 4.01855H66.2411L59.0891 30.9819H51.3911L54.2153 20.3252H41.1876L38.3634 30.9819H30.5739H30.5723Z" fill="white"/>
<path d="M85.779 20.3672L90.1068 4.01855H97.2131L90.0611 30.9819H83.365L74.8923 12.7928L70.0643 30.9819H62.958L70.1101 4.01855H78.4455L85.779 20.3672Z" fill="white"/>
</svg>
