<svg xmlns="http://www.w3.org/2000/svg" xmlns:xlink="http://www.w3.org/1999/xlink" width="64.091" height="68.343" viewBox="0 0 64.091 68.343">
  <defs>
    <clipPath id="clip-path">
      <rect id="사각형_1894" data-name="사각형 1894" width="52.091" height="56.343" fill="#fff"/>
    </clipPath>
  </defs>
  <g id="그룹_2722" data-name="그룹 2722" transform="translate(2.163 2.212)">
    <g id="그룹_2941" data-name="그룹 2941" transform="translate(3.837 3.788)" opacity="0.3">
      <g id="그룹_2942" data-name="그룹 2942" transform="translate(0 0)">
        <path id="패스_3069" data-name="패스 3069" d="M26.045,56.191a26.137,26.137,0,0,1-14.7-47.683,3.564,3.564,0,0,1,4.02,5.887A18.933,18.933,0,1,0,37.4,14.88a3.563,3.563,0,0,1,4.274-5.7A26.136,26.136,0,0,1,26.045,56.191" transform="translate(0 0.152)"/>
        <path id="패스_3070" data-name="패스 3070" d="M25.684,27.544a3.562,3.562,0,0,1-3.557-3.567V3.567a3.557,3.557,0,1,1,7.114,0v20.41a3.562,3.562,0,0,1-3.557,3.567" transform="translate(0.361)"/>
      </g>
    </g>
    <g id="그룹_2722-2" data-name="그룹 2722" transform="translate(0 0)" clip-path="url(#clip-path)">
      <path id="패스_3069-2" data-name="패스 3069" d="M26.045,56.191a26.137,26.137,0,0,1-14.7-47.683,3.564,3.564,0,0,1,4.02,5.887A18.933,18.933,0,1,0,37.4,14.88a3.563,3.563,0,0,1,4.274-5.7A26.136,26.136,0,0,1,26.045,56.191" transform="translate(0 0.151)" fill="#fff"/>
      <path id="패스_3070-2" data-name="패스 3070" d="M25.684,27.544a3.562,3.562,0,0,1-3.557-3.567V3.567a3.557,3.557,0,1,1,7.114,0v20.41a3.562,3.562,0,0,1-3.557,3.567" transform="translate(0.361 0)" fill="#fff"/>
    </g>
  </g>
</svg>
