<svg id="그룹_2792" data-name="그룹 2792" xmlns="http://www.w3.org/2000/svg" width="13" height="13" viewBox="0 0 13 13">
  <g id="그룹_1679" data-name="그룹 1679" transform="translate(0 0)">
    <g id="그룹_1677" data-name="그룹 1677">
      <path id="패스_2862" data-name="패스 2862" d="M355.684,461.916a6.4,6.4,0,1,1,6.5-6.4A6.458,6.458,0,0,1,355.684,461.916Zm0-11.641a5.24,5.24,0,1,0,5.321,5.24A5.287,5.287,0,0,0,355.684,450.275Z" transform="translate(-349.184 -449.114)" fill="#fff"/>
    </g>
    <g id="그룹_1678" data-name="그룹 1678" transform="translate(5.936 2.842)">
      <path id="패스_2863" data-name="패스 2863" d="M391.536,474.415a.579.579,0,0,1-.4-.158l-1.682-1.587a.581.581,0,0,1-.182-.422v-2.978a.581.581,0,1,1,1.161,0V472l1.5,1.415a.581.581,0,0,1-.4,1Z" transform="translate(-389.274 -468.688)" fill="#fff"/>
    </g>
  </g>
  <rect id="사각형_1501" data-name="사각형 1501" width="12.848" height="12.65" transform="translate(0 0.35)" fill="none"/>
</svg>
