<svg width="72" height="75" viewBox="0 0 72 75" fill="none" xmlns="http://www.w3.org/2000/svg">
<path fill-rule="evenodd" clip-rule="evenodd" d="M55.113 22.5238C58.303 25.6138 60.613 29.0238 62.903 32.4838C69.583 42.5638 64.943 58.8838 55.023 64.9338C51.093 67.3238 46.913 69.0338 42.513 70.2938C33.473 72.8838 24.223 74.2238 14.853 74.3938C5.91298 74.5538 1.07299 69.8138 0.16299 60.7938C-0.42701 54.9538 0.74299 49.2438 1.16299 43.4838C1.88299 33.6138 4.93299 24.3638 10.753 16.4438C15.683 9.73381 22.803 5.88381 31.303 5.54381C37.373 5.30381 41.643 9.27381 45.663 13.0538C48.973 16.1638 52.413 19.1738 55.103 22.5238H55.113Z" fill="#F67265"/>
<path fill-rule="evenodd" clip-rule="evenodd" d="M54.713 22.0538C55.603 21.2438 56.493 20.4438 57.403 19.6638C61.813 15.9138 65.713 11.6738 69.243 7.21385C69.433 6.91385 69.583 6.70385 69.703 6.47385C70.293 5.31385 70.093 4.07384 69.203 3.28384C68.343 2.51384 67.083 2.53385 65.993 3.30385C65.493 3.65385 65.113 4.11385 64.733 4.58385C60.683 9.62385 56.223 14.2438 51.333 18.4038C52.533 19.5938 53.663 20.7938 54.703 22.0538H54.713Z" fill="#629F81"/>
<path fill-rule="evenodd" clip-rule="evenodd" d="M52.463 31.4238C49.243 33.6638 46.013 34.6838 42.663 34.1238C42.013 34.0138 41.293 34.0438 40.603 34.0438C39.263 34.0438 38.383 33.2838 38.633 31.9538C39.573 26.9338 40.973 22.0038 45.723 18.1438C49.473 15.0938 53.363 14.2638 57.293 15.1138C58.303 15.3338 58.453 16.1838 58.693 17.0638C59.883 21.4038 58.153 25.4338 54.773 29.3438C54.443 29.7238 54.093 30.0938 53.713 30.4338C53.303 30.8038 52.853 31.1238 52.453 31.4338L52.463 31.4238Z" fill="#629F81"/>
<path fill-rule="evenodd" clip-rule="evenodd" d="M70.273 29.1438C71.723 33.3738 72.103 37.0638 71.083 40.1538C70.883 40.7638 70.793 41.4838 70.683 42.1738C70.463 43.5138 69.663 44.0538 68.543 43.1938C64.303 39.9838 60.213 36.3738 57.593 29.8738C55.523 24.7438 55.403 20.4838 56.773 16.9338C57.123 16.0238 57.893 16.2538 58.703 16.4138C62.683 17.1838 65.933 20.7238 68.813 25.8738C69.093 26.3738 69.363 26.8938 69.593 27.4238C69.853 28.0038 70.063 28.5938 70.273 29.1338V29.1438Z" fill="#629F81"/>
<path fill-rule="evenodd" clip-rule="evenodd" d="M38.393 12.4738C34.593 9.83382 31.9829 7.02382 30.8829 3.92382C30.6729 3.31382 30.283 2.67382 29.943 2.04382C29.283 0.83382 29.603 -0.0661798 31.043 0.00382025C36.483 0.24382 42.053 0.893821 48.223 4.74382C53.093 7.77382 55.8329 11.1938 56.9429 14.8638C57.2229 15.8038 56.453 16.0438 55.703 16.3738C51.993 17.9838 47.1429 16.9138 41.6029 14.3338C41.0629 14.0838 40.523 13.8038 40.003 13.5038C39.433 13.1738 38.8929 12.8038 38.3829 12.4838L38.393 12.4738Z" fill="#629F81"/>
<path fill-rule="evenodd" clip-rule="evenodd" d="M51.833 44.6138C51.203 45.1838 50.373 45.2938 49.723 44.8738C48.883 44.3438 48.713 43.1138 49.423 42.4338C50.173 41.7238 51.073 41.3038 52.133 41.2638C52.223 41.2638 52.303 41.2638 52.393 41.2838C52.563 41.3038 52.673 41.4138 52.693 41.5838C52.833 42.6438 52.663 43.6238 51.983 44.4838C51.943 44.5338 51.883 44.5738 51.843 44.6138H51.833Z" fill="#686868"/>
<path fill-rule="evenodd" clip-rule="evenodd" d="M14.433 43.0038C13.803 43.5738 12.973 43.6838 12.323 43.2638C11.483 42.7338 11.313 41.5038 12.023 40.8238C12.773 40.1138 13.683 39.6938 14.733 39.6538C14.823 39.6538 14.903 39.6538 14.993 39.6738C15.173 39.6938 15.273 39.7938 15.293 39.9638C15.423 41.0238 15.263 42.0038 14.583 42.8638C14.543 42.9138 14.483 42.9538 14.443 42.9938L14.433 43.0038Z" fill="#686868"/>
<path fill-rule="evenodd" clip-rule="evenodd" d="M12.7229 23.7738C12.2329 23.0338 12.8629 21.8338 13.5429 21.5538C14.2129 21.2738 14.8729 21.1238 15.6029 21.2338C16.0829 21.3038 16.3529 21.6338 16.2629 22.1638C16.1429 22.8438 15.9029 23.4838 15.5029 24.0538C15.0029 24.7638 13.7729 24.8938 13.1129 24.3338C13.0629 24.2938 13.0129 24.2538 12.9829 24.2038C12.9129 24.1038 12.8529 23.9938 12.7229 23.7838V23.7738Z" fill="#686868"/>
<path fill-rule="evenodd" clip-rule="evenodd" d="M10.303 64.4138C9.78298 63.6238 10.453 62.3638 11.173 62.0638C11.873 61.7738 12.583 61.6138 13.353 61.7238C13.853 61.8038 14.153 62.1538 14.053 62.7138C13.923 63.4338 13.673 64.1138 13.253 64.7138C12.723 65.4638 11.423 65.6038 10.723 65.0038C10.673 64.9638 10.623 64.9138 10.583 64.8638C10.513 64.7538 10.443 64.6438 10.313 64.4138H10.303Z" fill="#686868"/>
<path fill-rule="evenodd" clip-rule="evenodd" d="M50.503 62.4038C50.213 62.6638 49.903 62.8438 49.523 62.9038C48.683 63.0338 47.943 62.4138 47.923 61.5638C47.913 60.9838 48.173 60.5238 48.563 60.1138C49.113 59.5338 49.833 59.2738 50.563 59.0338C50.953 58.9038 51.183 59.0938 51.323 59.5038C51.713 60.6638 51.243 61.5638 50.503 62.3938V62.4038Z" fill="#686868"/>
<path fill-rule="evenodd" clip-rule="evenodd" d="M32.253 43.0838C31.593 43.7138 30.413 43.6738 29.813 42.5238C29.563 42.0438 29.573 41.5638 29.893 41.1138C30.073 40.8638 30.263 40.6238 30.533 40.4638C31.213 40.0838 31.923 39.7838 32.693 39.6138C33.123 39.5238 33.373 39.6638 33.403 40.0738C33.443 40.7638 33.443 41.4638 33.113 42.1038C32.913 42.5038 32.623 42.8338 32.263 43.0738L32.253 43.0838Z" fill="#686868"/>
<path fill-rule="evenodd" clip-rule="evenodd" d="M32.013 22.9338C31.383 23.4938 30.733 23.4938 30.083 23.2138C29.453 22.9438 29.203 22.3938 29.153 21.7438C29.133 21.3838 29.263 21.0538 29.523 20.7938C29.863 20.4638 30.213 20.1538 30.673 20.0138C31.173 19.8638 31.673 19.7038 32.183 19.5638C32.313 19.5238 32.473 19.5238 32.613 19.5438C32.803 19.5738 32.953 19.7138 32.953 19.8938C32.923 20.8638 32.833 21.8238 32.253 22.6538C32.173 22.7738 32.063 22.8738 32.013 22.9338Z" fill="#686868"/>
<path fill-rule="evenodd" clip-rule="evenodd" d="M32.9629 63.3938C32.3529 63.9438 31.7129 63.9338 31.0829 63.6638C30.4729 63.4038 30.2229 62.8638 30.1829 62.2238C30.1629 61.8738 30.2829 61.5538 30.5429 61.2938C30.8729 60.9738 31.2129 60.6738 31.6629 60.5338C32.1529 60.3838 32.6429 60.2338 33.1329 60.1038C33.2629 60.0638 33.4129 60.0638 33.5529 60.0838C33.7329 60.1138 33.8929 60.2438 33.8829 60.4238C33.8529 61.3638 33.7729 62.3038 33.2029 63.1038C33.1229 63.2138 33.0229 63.3238 32.9729 63.3738L32.9629 63.3938Z" fill="#686868"/>
</svg>
