<svg width="65" height="55" viewBox="0 0 65 55" fill="none" xmlns="http://www.w3.org/2000/svg">
<path fill-rule="evenodd" clip-rule="evenodd" d="M49.6401 22.2793C51.2391 25.2947 52.13 28.3329 52.9867 31.4053C55.4881 40.3601 48.2466 51.1879 39.5546 53.2781C36.1166 54.1005 32.6558 54.3632 29.1379 54.2376C21.9079 53.9977 14.8378 52.787 7.93902 50.6968C1.36005 48.698 -1.04995 44.095 0.412039 37.2762C1.36005 32.8673 3.56446 28.9611 5.23205 24.8492C8.0875 17.802 12.5077 11.7598 18.6413 7.33958C23.8268 3.59322 29.9489 2.46246 36.2423 4.23284C40.7425 5.48924 42.9241 9.3955 44.9686 13.119C46.6476 16.1686 48.4636 19.184 49.6401 22.2793Z" fill="#F67265"/>
<path fill-rule="evenodd" clip-rule="evenodd" d="M49.4687 21.8452C50.3139 21.4683 51.1477 21.0914 52.0043 20.7373C56.1162 19.0354 59.9653 16.8539 63.6089 14.4324C63.8145 14.2611 63.9858 14.1469 64.1229 13.9984C64.831 13.2903 64.9795 12.3422 64.5112 11.5427C64.0658 10.7775 63.1406 10.4919 62.1583 10.8003C61.7129 10.9374 61.3245 11.1886 60.9362 11.4399C56.7901 14.1697 52.4269 16.4998 47.881 18.373C48.475 19.5266 49.0232 20.6802 49.4915 21.8338L49.4687 21.8452Z" fill="#629F81"/>
<path fill-rule="evenodd" clip-rule="evenodd" d="M45.6081 28.1616C42.7298 29.0411 40.1142 29.0183 37.807 27.819C37.3502 27.5791 36.8248 27.4421 36.3222 27.2707C35.3399 26.9509 34.8831 26.1857 35.3742 25.2719C37.2474 21.8225 39.4289 18.5445 43.8263 16.854C47.2871 15.5177 50.3253 15.8146 53.0095 17.368C53.6948 17.7678 53.6034 18.4188 53.5691 19.127C53.4092 22.5764 51.1934 25.1234 47.8011 27.1794C47.4699 27.3849 47.1272 27.5677 46.7732 27.7276C46.3848 27.8989 45.9851 28.0246 45.6196 28.1616H45.6081Z" fill="#629F81"/>
<path fill-rule="evenodd" clip-rule="evenodd" d="M59.1772 30.7086C59.2343 34.1465 58.6403 36.9334 57.1669 38.9551C56.8814 39.3549 56.6415 39.8574 56.4017 40.3371C55.9219 41.2623 55.2138 41.4679 54.597 40.577C52.2555 37.2304 50.1197 33.6211 49.7313 28.2414C49.4343 24.0039 50.3481 20.8629 52.187 18.5786C52.6553 17.9961 53.1693 18.3501 53.7175 18.6471C56.4474 20.1548 57.9893 23.5128 58.8802 27.9559C58.9716 28.3899 59.0401 28.8354 59.0858 29.2808C59.1315 29.7605 59.1543 30.2517 59.1772 30.6971V30.7086Z" fill="#629F81"/>
<path fill-rule="evenodd" clip-rule="evenodd" d="M39.7945 10.9831C37.6358 8.15052 36.3908 5.47781 36.3222 2.95359C36.3108 2.46245 36.1852 1.90278 36.0824 1.35454C35.8882 0.315151 36.3337 -0.267361 37.3731 0.120981C41.2908 1.58297 45.2084 3.3762 48.8177 7.64796C51.6618 11.0174 52.861 14.1584 52.8039 17.1052C52.7925 17.8591 52.1643 17.8591 51.5361 17.9162C48.4408 18.2131 45.1513 16.2943 41.7133 13.0962C41.3821 12.7878 41.0509 12.4565 40.7425 12.1139C40.3998 11.737 40.0914 11.3372 39.8059 10.9831H39.7945Z" fill="#629F81"/>
<path fill-rule="evenodd" clip-rule="evenodd" d="M42.0332 37.6646C41.4393 37.9387 40.7997 37.8131 40.4342 37.3562C39.943 36.7623 40.1144 35.8257 40.7883 35.4945C41.5078 35.1518 42.2617 35.0604 43.0498 35.2775C43.1183 35.3003 43.1754 35.3231 43.2325 35.346C43.3582 35.4031 43.4039 35.5059 43.381 35.6315C43.2325 36.4425 42.8785 37.1164 42.1703 37.5847C42.1246 37.6075 42.0789 37.6304 42.0332 37.6532V37.6646Z" fill="#686868"/>
<path fill-rule="evenodd" clip-rule="evenodd" d="M15.0547 27.6477C14.4608 27.9218 13.8326 27.7961 13.4557 27.3393C12.9645 26.7453 13.1359 25.8087 13.8097 25.4775C14.5293 25.1349 15.2831 25.0435 16.0713 25.2605C16.1398 25.2833 16.1969 25.3062 16.254 25.329C16.3796 25.3861 16.4253 25.4889 16.4025 25.6146C16.254 26.4255 15.8999 27.0994 15.1918 27.5677C15.1461 27.5905 15.1004 27.6134 15.0547 27.6362V27.6477Z" fill="#686868"/>
<path fill-rule="evenodd" clip-rule="evenodd" d="M18.3444 13.1761C18.1616 12.5137 18.9041 11.7941 19.4751 11.7484C20.0234 11.7027 20.5488 11.7484 21.0514 11.9997C21.3826 12.1596 21.5082 12.468 21.3141 12.8335C21.0628 13.3018 20.7316 13.7129 20.309 14.0328C19.7721 14.4325 18.847 14.2384 18.4929 13.6673C18.47 13.6216 18.4472 13.5873 18.4243 13.5416C18.4015 13.4502 18.3787 13.3589 18.333 13.1761H18.3444Z" fill="#686868"/>
<path fill-rule="evenodd" clip-rule="evenodd" d="M6.97962 42.3362C6.78545 41.6394 7.57355 40.8742 8.16748 40.8171C8.75 40.7714 9.30967 40.8171 9.83508 41.0798C10.1892 41.2511 10.3148 41.5823 10.1092 41.9592C9.84649 42.4504 9.50384 42.8958 9.04697 43.2271C8.4873 43.6497 7.49359 43.4441 7.12809 42.8387C7.10525 42.793 7.07099 42.7474 7.05957 42.7017C7.03672 42.6103 7.01388 42.5075 6.96819 42.3133L6.97962 42.3362Z" fill="#686868"/>
<path fill-rule="evenodd" clip-rule="evenodd" d="M36.8477 50.3655C36.5736 50.4911 36.2995 50.5482 36.0139 50.5025C35.3629 50.3997 34.9745 49.7715 35.1573 49.1433C35.2829 48.7207 35.5913 48.4352 35.9682 48.241C36.505 47.944 37.099 47.9212 37.6815 47.9326C38.0013 47.9326 38.1155 48.1154 38.1269 48.458C38.1269 49.3946 37.5787 49.9428 36.8477 50.3769V50.3655Z" fill="#686868"/>
<path fill-rule="evenodd" clip-rule="evenodd" d="M28.0758 31.9194C27.4476 32.2164 26.591 31.9194 26.4196 30.9371C26.3511 30.526 26.4767 30.1719 26.808 29.9206C26.9907 29.7835 27.1963 29.6465 27.4248 29.6008C28.0073 29.4866 28.6012 29.4295 29.2066 29.4866C29.5378 29.5208 29.6977 29.6922 29.6177 29.9891C29.4807 30.5031 29.3208 31.0171 28.9324 31.4054C28.6926 31.6567 28.3956 31.828 28.0758 31.9194Z" fill="#686868"/>
<path fill-rule="evenodd" clip-rule="evenodd" d="M32.6558 17.1282C32.0619 17.3909 31.5936 17.231 31.171 16.8769C30.7712 16.5342 30.7141 16.0659 30.8398 15.5748C30.9083 15.3007 31.0796 15.0951 31.3309 14.9694C31.6507 14.8095 31.9819 14.661 32.3589 14.6725C32.7586 14.6725 33.1698 14.6839 33.5696 14.7067C33.6724 14.7067 33.7866 14.7524 33.8894 14.7981C34.015 14.8666 34.1064 15.0037 34.0493 15.1293C33.798 15.8375 33.5125 16.5114 32.8843 16.9797C32.7929 17.0482 32.6901 17.0939 32.6444 17.1282H32.6558Z" fill="#686868"/>
<path fill-rule="evenodd" clip-rule="evenodd" d="M23.7926 46.939C23.2215 47.1902 22.7532 47.0418 22.3534 46.6991C21.9651 46.3679 21.908 45.911 22.0336 45.4313C22.1022 45.1686 22.2735 44.963 22.5133 44.8373C22.8332 44.6774 23.153 44.5404 23.507 44.5404C23.8954 44.5404 24.2952 44.5518 24.6835 44.5746C24.7863 44.5746 24.9005 44.6089 24.9919 44.666C25.1175 44.7345 25.1975 44.8602 25.1518 44.9972C24.9119 45.6826 24.6264 46.345 24.021 46.8019C23.9297 46.8704 23.8383 46.9161 23.7812 46.9504L23.7926 46.939Z" fill="#686868"/>
</svg>
