<svg width="61" height="56" viewBox="0 0 61 56" fill="none" xmlns="http://www.w3.org/2000/svg">
<path fill-rule="evenodd" clip-rule="evenodd" d="M13.5778 20.2215C11.5676 22.9741 10.2541 25.8524 8.96343 28.7764C5.20565 37.2742 10.8366 49.0387 19.1288 52.3396C22.4069 53.6417 25.7992 54.3956 29.2943 54.7839C36.4786 55.5834 43.6629 55.4007 50.7787 54.3156C57.5747 53.2876 60.6243 49.0616 60.1446 42.1171C59.8362 37.6169 58.2143 33.4365 57.1407 29.1305C55.3246 21.752 51.8067 15.1388 46.3813 9.88471C41.7783 5.44163 35.8847 3.44281 29.3971 4.28802C24.7598 4.89338 22.0528 8.44556 19.4943 11.8378C17.3927 14.6248 15.1655 17.3432 13.5664 20.2329L13.5778 20.2215Z" fill="#FA9686"/>
<path fill-rule="evenodd" clip-rule="evenodd" d="M13.8177 19.8102C13.041 19.3191 12.2643 18.8165 11.4762 18.3482C7.64993 16.0753 4.14343 13.3683 0.899635 10.4443C0.716886 10.2387 0.568403 10.1017 0.454185 9.94175C-0.13975 9.1308 -0.15117 8.17137 0.419921 7.46322C0.968168 6.76649 1.9276 6.618 2.85277 7.06345C3.27538 7.26905 3.62945 7.56602 3.97211 7.87441C7.6842 11.1639 11.6704 14.0993 15.9079 16.6121C15.1541 17.6629 14.4459 18.7251 13.8177 19.8102Z" fill="#629F81"/>
<path fill-rule="evenodd" clip-rule="evenodd" d="M16.7415 26.6175C19.4713 27.8968 22.0527 28.2508 24.5083 27.3942C24.9881 27.2229 25.5363 27.1543 26.0617 27.063C27.0783 26.8802 27.6493 26.1949 27.2838 25.224C25.9132 21.5462 24.2228 17.994 20.1224 15.6754C16.89 13.8479 13.8404 13.7223 10.9621 14.8759C10.2311 15.1728 10.2197 15.8353 10.1511 16.532C9.80847 19.97 11.636 22.8026 14.7084 25.3268C15.0054 25.5781 15.3252 25.8066 15.6564 26.0122C16.0105 26.2406 16.3989 26.4233 16.7415 26.6061V26.6175Z" fill="#629F81"/>
<path fill-rule="evenodd" clip-rule="evenodd" d="M2.94415 27.1887C2.3959 30.581 2.57865 33.425 3.7551 35.6408C3.98353 36.0749 4.14344 36.6117 4.31477 37.1257C4.646 38.108 5.33131 38.4163 6.07373 37.6282C8.87208 34.6471 11.4991 31.3805 12.6413 26.115C13.5436 21.9575 13.0867 18.7251 11.5905 16.2009C11.2135 15.5613 10.6539 15.8354 10.0599 16.0524C7.14738 17.1489 5.13714 20.2557 3.61804 24.5274C3.46955 24.9386 3.33249 25.3726 3.22969 25.8067C3.11548 26.2749 3.0241 26.7547 2.93273 27.1887H2.94415Z" fill="#629F81"/>
<path fill-rule="evenodd" clip-rule="evenodd" d="M24.9424 10.4443C27.478 7.94296 29.0999 5.48727 29.5225 2.99731C29.6025 2.50617 29.8081 1.96935 29.9908 1.45536C30.3335 0.450244 29.9794 -0.189378 28.8943 0.0504805C24.8053 0.929961 20.6706 2.1521 16.4902 5.86419C13.1893 8.78817 11.556 11.735 11.1905 14.659C11.0991 15.4014 11.7159 15.4928 12.3213 15.6413C15.3366 16.3837 18.8774 14.9445 22.738 12.2718C23.1149 12.0091 23.4918 11.735 23.8459 11.438C24.2342 11.1182 24.5997 10.7641 24.9424 10.4558V10.4443Z" fill="#629F81"/>
<path fill-rule="evenodd" clip-rule="evenodd" d="M18.9232 36.5202C19.4714 36.8743 20.1225 36.84 20.5565 36.4517C21.1276 35.9377 21.0933 34.9897 20.4651 34.5671C19.8027 34.1217 19.0603 33.9275 18.2607 34.0303C18.1922 34.0303 18.1237 34.0531 18.0665 34.076C17.9409 34.1102 17.8724 34.2016 17.8838 34.3387C17.9181 35.161 18.1693 35.8806 18.7975 36.4517C18.8318 36.486 18.8775 36.5088 18.9232 36.5317V36.5202Z" fill="#686868"/>
<path fill-rule="evenodd" clip-rule="evenodd" d="M47.0439 30.4783C47.5921 30.8324 48.2317 30.7981 48.6772 30.4098C49.2483 29.8958 49.214 28.9478 48.5858 28.5252C47.9233 28.0797 47.1809 27.8856 46.3814 27.9884C46.3129 27.9884 46.2443 28.0112 46.1872 28.034C46.0616 28.0683 45.993 28.1597 46.0045 28.2967C46.0387 29.1191 46.29 29.8387 46.9182 30.4098C46.9525 30.444 46.9982 30.4669 47.0439 30.4897V30.4783Z" fill="#686868"/>
<path fill-rule="evenodd" clip-rule="evenodd" d="M45.8559 15.6754C46.1301 15.0472 45.5018 14.2248 44.9422 14.0992C44.4054 13.9736 43.88 13.9507 43.3431 14.1221C42.9891 14.2363 42.8291 14.5218 42.9662 14.9102C43.149 15.4127 43.4117 15.8696 43.7886 16.2465C44.2569 16.7148 45.2049 16.6577 45.6389 16.1437C45.6732 16.1094 45.696 16.0638 45.7189 16.0295C45.7531 15.9381 45.7874 15.8468 45.8559 15.6754Z" fill="#686868"/>
<path fill-rule="evenodd" clip-rule="evenodd" d="M52.9375 46.1602C53.2231 45.4978 52.5606 44.6297 51.9781 44.4927C51.407 44.367 50.8473 44.3328 50.2876 44.5155C49.9107 44.6411 49.7394 44.9381 49.8879 45.3493C50.0821 45.8747 50.3562 46.3544 50.7559 46.7542C51.2585 47.2567 52.2522 47.1882 52.7091 46.6514C52.7433 46.6171 52.7776 46.5714 52.789 46.5257C52.8347 46.4344 52.869 46.343 52.9375 46.1488V46.1602Z" fill="#686868"/>
<path fill-rule="evenodd" clip-rule="evenodd" d="M22.2357 49.8381C22.487 49.998 22.7497 50.1008 23.0466 50.0894C23.6977 50.0779 24.1774 49.5183 24.086 48.8672C24.0175 48.4218 23.7548 48.1134 23.4121 47.8507C22.921 47.4852 22.3385 47.3824 21.756 47.291C21.4362 47.2453 21.2991 47.4166 21.242 47.7479C21.0935 48.673 21.5732 49.3012 22.2357 49.8381Z" fill="#686868"/>
<path fill-rule="evenodd" clip-rule="evenodd" d="M33.5547 32.8426C34.1372 33.2309 35.0281 33.0481 35.3251 32.1001C35.4507 31.7004 35.3822 31.3349 35.0852 31.0379C34.9253 30.878 34.7426 30.7067 34.5142 30.6267C33.9545 30.4211 33.372 30.2955 32.7666 30.2612C32.4354 30.2498 32.2526 30.3869 32.2869 30.7067C32.344 31.2321 32.4354 31.7575 32.7666 32.2029C32.9722 32.477 33.2349 32.6941 33.5433 32.8311L33.5547 32.8426Z" fill="#686868"/>
<path fill-rule="evenodd" clip-rule="evenodd" d="M31.1333 17.5374C31.6815 17.8801 32.1726 17.8001 32.6295 17.5031C33.075 17.2176 33.1892 16.7607 33.1435 16.2696C33.1092 15.9955 32.9722 15.767 32.7437 15.5957C32.4468 15.3901 32.1384 15.1959 31.7729 15.1502C31.3731 15.0931 30.9734 15.0474 30.5736 15.0132C30.4708 15.0132 30.3452 15.0132 30.2424 15.0589C30.1053 15.1046 30.0025 15.2302 30.0253 15.3673C30.1738 16.0983 30.368 16.8178 30.9162 17.3661C30.9962 17.446 31.0876 17.5146 31.1333 17.5488V17.5374Z" fill="#686868"/>
<path fill-rule="evenodd" clip-rule="evenodd" d="M35.6449 48.3078C36.1817 48.639 36.6614 48.559 37.1069 48.2735C37.5409 47.9994 37.6551 47.5539 37.6094 47.0742C37.5752 46.8001 37.4381 46.5831 37.2097 46.4232C36.9241 46.2176 36.6272 46.0348 36.2617 45.9891C35.8733 45.932 35.485 45.8863 35.0967 45.8521C34.9939 45.8521 34.8796 45.8521 34.7768 45.8978C34.6398 45.9435 34.5484 46.0577 34.5712 46.1947C34.7083 46.9029 34.9025 47.5996 35.4393 48.1364C35.5193 48.2164 35.6106 48.2735 35.6563 48.3192L35.6449 48.3078Z" fill="#686868"/>
</svg>
