<svg width="60" height="60" viewBox="0 0 60 60" fill="none" xmlns="http://www.w3.org/2000/svg">
<path d="M26.0554 34.3959C26.0554 34.3959 13.7155 22.6758 4.71546 30.1658C-6.22454 39.2758 3.8054 49.7659 15.1554 45.2559C20.7154 43.0459 23.6154 38.4459 26.0454 34.3959H26.0554Z" fill="#F9F590"/>
<path d="M25.4856 33.1558C25.4856 33.1558 40.5155 41.0658 36.4355 52.0858C31.4755 65.4758 18.3456 59.3658 18.8656 47.0858C19.1156 41.0758 22.4856 36.8057 25.4856 33.1657V33.1558Z" fill="#F9F590"/>
<path d="M30.8256 30.9358C30.8256 30.9358 33.3056 11.7159 23.9256 4.00585C14.3456 -3.86415 4.99559 6.70583 5.67559 17.9558C6.35559 29.1258 22.7456 39.4758 30.8256 30.9258V30.9358Z" fill="#F9F590"/>
<path d="M27.1754 27.4858C27.1754 27.4858 44.3954 18.8358 54.6954 25.2458C65.2054 31.7958 58.3554 44.1458 47.5754 47.1758C36.8754 50.1858 21.8054 37.9658 27.1754 27.4758V27.4858Z" fill="#F9F590"/>
<path d="M37.2654 20.9057C40.1254 17.0457 45.0154 14.2857 49.4554 14.3257C51.8854 14.3457 54.0555 15.3257 55.4655 17.2757C55.8755 17.8457 56.3355 18.5457 56.4855 19.2657C56.7155 20.3757 56.1154 21.8757 54.9454 22.3457C54.0254 22.7157 52.9554 22.2757 52.3154 21.6957C51.8354 21.2657 51.6954 19.2257 52.7854 18.9557C53.1354 18.8757 53.1054 18.3457 52.7554 18.3957C51.8854 18.5057 51.3054 19.8857 51.2954 20.6757C51.2754 21.7557 52.2254 22.4257 53.0854 22.7357C55.5154 23.6257 57.7054 20.8057 56.6254 18.4757C54.3354 13.5357 48.7354 13.1057 43.9054 15.3457C41.3554 16.5257 38.8154 18.3957 37.2654 20.9057Z" fill="#F9F590"/>
<path d="M54.0154 23.2557C53.6654 23.2557 53.3155 23.1957 52.9655 23.0657C51.6755 22.5957 50.9255 21.6956 50.9455 20.6656C50.9655 19.8256 51.5855 18.1857 52.7155 18.0357C53.0555 17.9957 53.3254 18.1957 53.3854 18.5157C53.4454 18.8257 53.2654 19.1957 52.8754 19.2957C52.6354 19.3557 52.4754 19.5557 52.3854 19.9057C52.2254 20.5357 52.4055 21.2757 52.5655 21.4257C53.1155 21.9257 54.0555 22.3157 54.8255 22.0157C55.8455 21.6057 56.3454 20.2757 56.1454 19.3357C56.0154 18.6957 55.5855 18.0457 55.1855 17.4857C53.8955 15.6957 51.8655 14.7057 49.4655 14.6857H49.3754C45.1654 14.6857 40.4255 17.2657 37.5555 21.1257C37.4455 21.2657 37.2355 21.3157 37.0855 21.2157C36.9255 21.1157 36.8755 20.9157 36.9555 20.7457C38.3955 18.4157 40.8054 16.3857 43.7654 15.0157C48.5454 12.8057 54.4755 12.9757 56.9555 18.3257C57.5455 19.6057 57.2955 21.1257 56.3055 22.2057C55.6755 22.8957 54.8654 23.2557 54.0254 23.2557H54.0154Z" fill="#F9F590"/>
<path d="M36.3954 20.3657C38.0554 18.1457 38.8454 15.2257 39.1954 12.5857C39.5854 9.71574 39.5454 6.52573 38.2654 4.07573C37.0054 1.67573 33.8155 -0.164247 30.9855 0.475753C28.7055 0.985753 26.9154 3.95575 28.0354 6.03575C28.5954 7.08575 29.8354 7.46574 30.9154 6.64574C31.9254 5.87574 31.9454 4.68574 30.8054 4.36574C30.4454 4.26574 30.1754 4.84573 30.5354 4.95573C30.9454 5.80573 30.7954 6.25573 30.0854 6.29573C29.7854 6.49573 29.5254 6.50575 29.2754 6.31575C28.7954 6.15575 28.5254 5.71575 28.3854 5.22575C28.1354 4.34575 28.4054 3.32574 28.9954 2.55574C29.9654 1.29574 31.1654 0.915738 32.5654 1.08574C35.3954 1.43574 37.5954 3.27575 38.4154 6.06575C39.1054 8.42575 39.0454 11.0957 38.6754 13.6257C38.3354 15.9057 37.7254 18.3557 36.3754 20.3357C36.3754 20.3457 36.3754 20.3557 36.3854 20.3457L36.3954 20.3657Z" fill="#F9F590"/>
<path d="M36.3853 20.7258C36.3053 20.7258 36.2254 20.7057 36.1654 20.6457C36.0154 20.5257 35.9854 20.3057 36.0954 20.1457C37.2054 18.5257 37.9154 16.4357 38.3354 13.5857C38.7554 10.6957 38.6754 8.19574 38.0854 6.17574C37.3154 3.54574 35.2454 1.77572 32.5354 1.44572C31.1454 1.27572 30.1154 1.69574 29.2954 2.77574C28.7454 3.49574 28.5353 4.39573 28.7453 5.13573C28.8353 5.45573 29.0254 5.86573 29.4054 5.98573C29.4454 5.99573 29.4854 6.01573 29.5154 6.04573C29.5754 6.09573 29.6654 6.17573 29.8954 6.01573C29.9454 5.97573 30.0054 5.95573 30.0754 5.95573C30.2454 5.94573 30.3654 5.90575 30.3954 5.84575C30.4154 5.81575 30.4754 5.66575 30.2754 5.22575C30.0654 5.08575 29.9654 4.81575 30.0554 4.53575C30.1554 4.19575 30.5054 3.90575 30.9154 4.03575C31.5154 4.20575 31.9153 4.60575 32.0053 5.12575C32.1253 5.74575 31.7853 6.44575 31.1353 6.93575C30.5553 7.37575 29.8853 7.53574 29.2453 7.39574C28.6153 7.25574 28.0554 6.82573 27.7254 6.20573C27.2054 5.23573 27.2153 4.01575 27.7453 2.84575C28.3753 1.46575 29.5854 0.425727 30.9054 0.135727C34.0554 -0.564273 37.3354 1.55573 38.5754 3.91573C39.7054 6.07573 40.0354 9.00573 39.5454 12.6357C39.0954 15.9657 38.1354 18.6357 36.6754 20.5757C36.6754 20.5757 36.6754 20.5857 36.6654 20.5957C36.5954 20.6757 36.4953 20.7157 36.3853 20.7157V20.7258ZM30.8154 4.76573C30.8154 4.76573 30.8454 4.80573 30.8554 4.82573C31.0854 5.30573 31.1554 5.68573 31.0854 5.98573C31.2554 5.74573 31.3354 5.48573 31.2954 5.26573C31.2454 4.98573 31.0254 4.84575 30.8154 4.75575V4.76573ZM32.0554 0.715744C32.2354 0.715744 32.4154 0.735753 32.6054 0.755753C33.6554 0.885753 34.6154 1.20573 35.4654 1.70573C34.4454 1.08573 33.2754 0.685744 32.0554 0.715744Z" fill="#F9F590"/>
</svg>
