<svg xmlns="http://www.w3.org/2000/svg" xmlns:xlink="http://www.w3.org/1999/xlink" width="90" height="90" viewBox="0 0 90 90">
  <defs>
    <clipPath id="clip-path">
      <rect id="사각형_776" data-name="사각형 776" width="86.265" height="73.149" fill="none"/>
    </clipPath>
  </defs>
  <g id="그룹_1412" data-name="그룹 1412" transform="translate(-1073 -4307)">
    <rect id="사각형_775" data-name="사각형 775" width="90" height="90" transform="translate(1073 4307)" fill="none"/>
    <g id="그룹_1377" data-name="그룹 1377" transform="translate(1075 4315)">
      <g id="그룹_1376" data-name="그룹 1376" transform="translate(0 0)" clip-path="url(#clip-path)">
        <path id="패스_1047" data-name="패스 1047" d="M44.855,19.677H27.685a1.7,1.7,0,0,1-1.658-1.742V1.742A1.7,1.7,0,0,1,27.685,0h17.17a1.7,1.7,0,0,1,1.658,1.742V17.935a1.7,1.7,0,0,1-1.658,1.742M29.344,16.2H43.2V3.483H29.344Z" transform="translate(6.863 0)" fill="#e52f42"/>
        <path id="패스_1048" data-name="패스 1048" d="M18.828,59.991H1.659A1.7,1.7,0,0,1,0,58.249V42.056a1.7,1.7,0,0,1,1.659-1.742H18.828a1.7,1.7,0,0,1,1.659,1.742V58.249a1.7,1.7,0,0,1-1.659,1.742M3.318,56.508H17.17V43.8H3.318Z" transform="translate(0 13.158)" fill="#e52f42"/>
        <path id="패스_1049" data-name="패스 1049" d="M44.855,59.991H27.685a1.7,1.7,0,0,1-1.658-1.742V42.056a1.7,1.7,0,0,1,1.658-1.742h17.17a1.7,1.7,0,0,1,1.658,1.742V58.249a1.7,1.7,0,0,1-1.658,1.742m-15.51-3.483H43.2V43.8H29.344Z" transform="translate(6.863 13.158)" fill="#e52f42"/>
        <path id="패스_1050" data-name="패스 1050" d="M70.881,59.991H53.712a1.7,1.7,0,0,1-1.659-1.742V42.056a1.7,1.7,0,0,1,1.659-1.742H70.881a1.7,1.7,0,0,1,1.659,1.742V58.249a1.7,1.7,0,0,1-1.659,1.742M55.371,56.508H69.223V43.8H55.371Z" transform="translate(13.725 13.158)" fill="#e52f42"/>
        <path id="패스_1051" data-name="패스 1051" d="M76,29.816H7.293a1.744,1.744,0,0,1,0-3.483H76a1.744,1.744,0,0,1,0,3.483" transform="translate(1.486 8.595)"/>
        <path id="패스_1052" data-name="패스 1052" d="M61.664,42.305a1.7,1.7,0,0,1-1.659-1.742V28.075a1.661,1.661,0,1,1,3.318,0V40.564a1.7,1.7,0,0,1-1.659,1.742" transform="translate(15.822 8.595)"/>
        <path id="패스_1053" data-name="패스 1053" d="M34.478,45.255a1.7,1.7,0,0,1-1.659-1.742V19.036a1.661,1.661,0,1,1,3.318,0V43.513a1.7,1.7,0,0,1-1.659,1.742" transform="translate(8.654 5.645)"/>
        <path id="패스_1054" data-name="패스 1054" d="M7.293,42.305a1.7,1.7,0,0,1-1.659-1.742V28.075a1.7,1.7,0,0,1,1.659-1.742,1.7,1.7,0,0,1,1.659,1.742V40.564a1.7,1.7,0,0,1-1.659,1.742" transform="translate(1.486 8.595)"/>
      </g>
    </g>
  </g>
</svg>
