<svg xmlns="http://www.w3.org/2000/svg" xmlns:xlink="http://www.w3.org/1999/xlink" width="90" height="90" viewBox="0 0 90 90">
  <defs>
    <clipPath id="clip-path">
      <rect id="사각형_799" data-name="사각형 799" width="77.48" height="74.3" fill="none"/>
    </clipPath>
  </defs>
  <g id="그룹_1423" data-name="그룹 1423" transform="translate(-643 -4653)">
    <rect id="사각형_798" data-name="사각형 798" width="90" height="90" transform="translate(643 4653)" fill="none"/>
    <g id="그룹_1399" data-name="그룹 1399" transform="translate(650 4660)">
      <g id="그룹_1398" data-name="그룹 1398" transform="translate(0 0)" clip-path="url(#clip-path)">
        <path id="패스_1144" data-name="패스 1144" d="M34.156,45.617a1.521,1.521,0,0,1-.835-.248C22.035,38.055,15.564,27.127,15.564,15.386V6.214a1.577,1.577,0,0,1,.779-1.363l.146-.083a35.123,35.123,0,0,1,35.49.09,1.575,1.575,0,0,1,.77,1.357v9.172c0,11.74-6.471,22.669-17.757,29.983a1.521,1.521,0,0,1-.835.248M18.663,7.133v8.254c0,10.358,5.634,20.07,15.493,26.785,9.86-6.715,15.493-16.427,15.493-26.785V7.132a32.035,32.035,0,0,0-30.987,0" transform="translate(4.71 0)"/>
        <path id="패스_1145" data-name="패스 1145" d="M29.733,22.879a1.533,1.533,0,0,1-1.1-.461l-5.121-5.186,2.191-2.221,4.025,4.079,8.285-8.4,2.191,2.22-9.38,9.5a1.533,1.533,0,0,1-1.1.461" transform="translate(7.117 3.419)" fill="#e52f42"/>
        <path id="패스_1146" data-name="패스 1146" d="M50.864,62.023h-3.1v-3.74a3.861,3.861,0,0,1,1.116-2.732l9.985-12.869c.121-.322.749-2.971.805-3.492.9-16.759-.888-26.009-.907-26.1-1.458.668-1.835,4.5-2.019,6.336l-.03.315c-.009.259-.391,8.519-2.254,13.208l-2.875-1.175c1.665-4.187,2.036-12.181,2.039-12.263l.038-.4c.276-2.8.74-7.48,3.839-8.883a3.015,3.015,0,0,1,2.681.063,3.106,3.106,0,0,1,1.623,2.191c.073.372,1.881,9.667.956,26.909-.014.276-.759,4.37-1.481,5.258L51.195,57.633a.93.93,0,0,0-.331.651Z" transform="translate(14.455 3.179)"/>
        <path id="패스_1147" data-name="패스 1147" d="M37.593,57.1l-3.1-.055L34.612,50A13.584,13.584,0,0,1,39.12,39.913q.33-.281.627-.5l.563-.42c.719-.542,1.484-1.114,2.338-1.638l.147-.144a53.575,53.575,0,0,0,8.461-9.573,5.013,5.013,0,0,1,3.251-2.121,4.959,4.959,0,0,1,3.1.426,1.624,1.624,0,0,1,.238.121,1.462,1.462,0,0,1,.141.1l.225.135c2.336,1.64,2.2,4.644.891,6.79L54.06,40.45a9.8,9.8,0,0,1-4.154,7.4l-1.834-2.533a6.466,6.466,0,0,0,2.894-5.246,1.652,1.652,0,0,1,.272-1.01l5.272-7.7c.254-.425.855-1.846.012-2.439l-.233-.14a1.937,1.937,0,0,0-2.484.637A56.7,56.7,0,0,1,44.81,39.591l-.367.31c-.957.607-1.643,1.126-2.289,1.61l-.58.434c-.138.1-.287.222-.442.356a10.417,10.417,0,0,0-3.421,7.757Z" transform="translate(10.438 8.13)"/>
        <path id="패스_1148" data-name="패스 1148" d="M57.459,58.885h-3.1V51.357l-18.373,0v7.53h-3.1v-9.1a1.582,1.582,0,0,1,.455-1.11,1.543,1.543,0,0,1,1.1-.459l21.472,0a1.559,1.559,0,0,1,1.549,1.57Z" transform="translate(9.953 15.415)"/>
        <path id="패스_1149" data-name="패스 1149" d="M15.26,62.023h-3.1v-3.74a.727.727,0,0,0-.208-.512L1.723,44.627c-.7-.864-1.446-4.958-1.462-5.237-.924-17.239.884-26.534.961-26.922a3.094,3.094,0,0,1,1.619-2.175,3.024,3.024,0,0,1,2.7-.054c3.079,1.394,3.543,6.076,3.819,8.874,0,.029.036.37.038.4,0,.082.374,8.075,2.039,12.263L8.564,32.948C6.7,28.259,6.319,20,6.3,19.651l-.023-.226c-.184-1.84-.561-5.668-2.022-6.328-.016.084-1.8,9.334-.9,26.124a27.761,27.761,0,0,0,.912,3.633l10,12.834a3.719,3.719,0,0,1,.994,2.595Z" transform="translate(0 3.18)"/>
        <path id="패스_1150" data-name="패스 1150" d="M27.822,57.1,27.7,50.058a10.422,10.422,0,0,0-3.426-7.76c-.151-.132-.3-.252-.44-.356l-.576-.432c-.647-.484-1.331-1-2.1-1.473l-.522-.42a56.571,56.571,0,0,1-9.026-10.195,1.944,1.944,0,0,0-1.26-.821,1.913,1.913,0,0,0-1.245.191l-.3.183c-.762.54-.162,1.961.141,2.457l5.224,7.625a1.585,1.585,0,0,1,.271,1.027,6.479,6.479,0,0,0,2.9,5.229l-1.834,2.533a9.8,9.8,0,0,1-4.154-7.4l-4.994-7.3c-1.352-2.216-1.493-5.219.763-6.806l.318-.2c.042-.03.083-.059.128-.086a1.484,1.484,0,0,1,.237-.12,5.012,5.012,0,0,1,6.353,1.693,53.481,53.481,0,0,0,8.5,9.6l.3.255a23.469,23.469,0,0,1,2.151,1.5l.56.417q.3.226.624.5A13.583,13.583,0,0,1,30.8,50l.119,7.039Z" transform="translate(1.628 8.13)"/>
        <path id="패스_1151" data-name="패스 1151" d="M32.3,58.885H29.2v-7.53l-18.373,0v7.528h-3.1v-9.1a1.559,1.559,0,0,1,1.55-1.57l21.471,0a1.545,1.545,0,0,1,1.1.459,1.582,1.582,0,0,1,.455,1.11Z" transform="translate(2.339 15.415)"/>
      </g>
    </g>
  </g>
</svg>
