<svg xmlns="http://www.w3.org/2000/svg" xmlns:xlink="http://www.w3.org/1999/xlink" width="90" height="90" viewBox="0 0 90 90">
  <defs>
    <clipPath id="clip-path">
      <rect id="사각형_810" data-name="사각형 810" width="69.27" height="59.489" fill="none"/>
    </clipPath>
  </defs>
  <g id="그룹_1433" data-name="그룹 1433" transform="translate(-1930 3859)">
    <rect id="사각형_809" data-name="사각형 809" width="90" height="90" transform="translate(1930 -3859)" fill="none"/>
    <g id="그룹_1432" data-name="그룹 1432" transform="translate(1940.004 -3843.994)">
      <g id="그룹_1431" data-name="그룹 1431" clip-path="url(#clip-path)">
        <path id="패스_1169" data-name="패스 1169" d="M40.246,15.607a1.4,1.4,0,0,1-.591-.133c-.205-.1-5.046-2.427-6.13-6.549-1.1-4.172,2.131-8.238,2.27-8.41A1.387,1.387,0,0,1,37.464.132c.205.1,5.046,2.427,6.13,6.548,1.1,4.173-2.131,8.24-2.27,8.41a1.378,1.378,0,0,1-1.078.518M37.3,3.222c-.679,1.15-1.587,3.144-1.1,5,.505,1.923,2.4,3.4,3.61,4.162.679-1.15,1.587-3.145,1.1-5-.506-1.923-2.406-3.4-3.611-4.162" transform="translate(8.341 0)"/>
        <path id="패스_1170" data-name="패스 1170" d="M46.268,31.149a12.86,12.86,0,0,1-1.3-.054,1.387,1.387,0,0,1-1.243-1.351c0-.21-.064-5.2,3.451-8.036,3.435-2.776,8.821-2.251,9.047-2.221a1.384,1.384,0,0,1,1.241,1.349c0,.209.066,5.2-3.45,8.037v0c-2.452,1.975-5.9,2.272-7.751,2.272m8.315-8.942a9.738,9.738,0,0,0-5.66,1.656,7.243,7.243,0,0,0-2.306,4.513,9.761,9.761,0,0,0,5.66-1.656,7.24,7.24,0,0,0,2.306-4.513" transform="translate(10.954 4.867)"/>
        <path id="패스_1171" data-name="패스 1171" d="M49.5,40.23a14.89,14.89,0,0,1-7.223-2.2,1.387,1.387,0,0,1-.438-1.878c.11-.181,2.744-4.486,7.269-5.417,4.484-.912,8.9,1.895,9.092,2.013a1.387,1.387,0,0,1,.436,1.878c-.109.181-2.742,4.486-7.269,5.417h0a9.467,9.467,0,0,1-1.867.184m-4.4-3.832a9.72,9.72,0,0,0,5.709.93,8.62,8.62,0,0,0,4.561-2.944,9.716,9.716,0,0,0-5.709-.93A8.61,8.61,0,0,0,45.106,36.4" transform="translate(10.432 7.654)"/>
        <path id="패스_1172" data-name="패스 1172" d="M45.58,49.51a9.212,9.212,0,0,1-1.906-.193c-4.523-.942-7.138-5.255-7.248-5.438A1.384,1.384,0,0,1,36.87,42c.185-.123,4.611-2.911,9.1-1.981,4.522.944,7.139,5.257,7.248,5.441a1.384,1.384,0,0,1-.443,1.876,14.911,14.911,0,0,1-7.194,2.17M39.7,43.647a8.643,8.643,0,0,0,4.543,2.96,9.808,9.808,0,0,0,5.707-.909A8.671,8.671,0,0,0,45.4,42.735a9.826,9.826,0,0,0-5.706.912" transform="translate(9.076 9.979)"/>
        <path id="패스_1173" data-name="패스 1173" d="M44.544,23.332,43.69,20.7c.041-.013,4.168-1.391,5.373-4.158A6.844,6.844,0,0,0,48.78,11.5c-1.323.614-3.443,1.845-4.252,3.7a4.187,4.187,0,0,0-.3,2.967l-2.7.623a6.907,6.907,0,0,1,.464-4.7C43.7,10.168,48.83,8.475,49.048,8.4a1.387,1.387,0,0,1,1.621.614c.109.188,2.676,4.631.935,8.627-1.708,3.923-6.843,5.617-7.059,5.687" transform="translate(10.348 2.088)"/>
        <path id="패스_1174" data-name="패스 1174" d="M38.445,51.534,36.6,49.467a26.6,26.6,0,0,0,8.741-19.3,23.433,23.433,0,0,0-6.89-17.6l1.93-1.992a26.178,26.178,0,0,1,7.732,19.647,29.379,29.379,0,0,1-9.669,21.311" transform="translate(9.169 2.649)"/>
        <path id="패스_1175" data-name="패스 1175" d="M17.255,15.608a1.382,1.382,0,0,1-1.078-.518c-.138-.17-3.366-4.237-2.27-8.41C14.99,2.56,19.832.23,20.039.132a1.385,1.385,0,0,1,1.669.384c.138.17,3.365,4.238,2.267,8.41-1.083,4.12-5.924,6.451-6.129,6.548a1.374,1.374,0,0,1-.591.134M20.194,3.225c-1.205.765-3.1,2.237-3.606,4.159-.488,1.856.42,3.85,1.1,5,1.205-.765,3.1-2.237,3.61-4.162.484-1.845-.424-3.844-1.1-5" transform="translate(3.427 0)"/>
        <path id="패스_1176" data-name="패스 1176" d="M11.876,31.149c-1.855,0-5.3-.3-7.748-2.276C.611,26.035.671,21.046.676,20.837a1.387,1.387,0,0,1,1.241-1.351c.228-.026,5.615-.551,9.045,2.222,3.518,2.835,3.455,7.827,3.451,8.038a1.384,1.384,0,0,1-1.242,1.348c-.065.008-.551.054-1.3.054M5.868,26.719a9.731,9.731,0,0,0,5.657,1.656,7.215,7.215,0,0,0-2.3-4.511,9.725,9.725,0,0,0-5.659-1.658,7.232,7.232,0,0,0,2.3,4.513" transform="translate(0.169 4.867)"/>
        <path id="패스_1177" data-name="패스 1177" d="M9.34,40.281A9.437,9.437,0,0,1,7.467,40.1C2.94,39.165.308,34.861.2,34.68A1.387,1.387,0,0,1,.634,32.8c.188-.119,4.606-2.909,9.092-2.011,4.527.93,7.159,5.236,7.269,5.417a1.387,1.387,0,0,1-.438,1.878A14.877,14.877,0,0,1,9.34,40.281M3.47,34.438A8.652,8.652,0,0,0,8.025,37.38a9.865,9.865,0,0,0,5.7-.93,8.652,8.652,0,0,0-4.554-2.941,9.832,9.832,0,0,0-5.7.93" transform="translate(0 7.669)"/>
        <path id="패스_1178" data-name="패스 1178" d="M13.2,49.51A14.884,14.884,0,0,1,6.01,47.34a1.384,1.384,0,0,1-.444-1.875c.11-.184,2.726-4.5,7.249-5.442,4.471-.928,8.911,1.86,9.1,1.981a1.383,1.383,0,0,1,.444,1.876c-.109.184-2.725,4.5-7.247,5.438a9.232,9.232,0,0,1-1.907.193M8.836,45.7a9.828,9.828,0,0,0,5.709.909,8.646,8.646,0,0,0,4.542-2.96,9.807,9.807,0,0,0-5.706-.912A8.669,8.669,0,0,0,8.836,45.7" transform="translate(1.345 9.979)"/>
        <path id="패스_1179" data-name="패스 1179" d="M13.031,23.332c-.216-.07-5.351-1.764-7.059-5.685-1.741-4,.827-8.442.935-8.63A1.387,1.387,0,0,1,8.528,8.4c.218.071,5.351,1.764,7.059,5.689a5.941,5.941,0,0,1,.43,4.806l-2.66-.774a3.3,3.3,0,0,0-.311-2.925c-.765-1.762-2.809-3.036-4.248-3.708a6.852,6.852,0,0,0-.286,5.05c1.205,2.765,5.332,4.143,5.373,4.155Z" transform="translate(1.345 2.088)"/>
        <path id="패스_1180" data-name="패스 1180" d="M19.255,51.534A29.374,29.374,0,0,1,9.586,30.223a26.182,26.182,0,0,1,7.732-19.647l1.93,1.992a23.436,23.436,0,0,0-6.893,17.6,26.61,26.61,0,0,0,8.744,19.3Z" transform="translate(2.4 2.649)"/>
        <path id="패스_1181" data-name="패스 1181" d="M37.8,41.216a1.4,1.4,0,0,1-.817-.254l-6.6-4.069-6.67,4.118A1.413,1.413,0,0,1,21.657,39.3l1.633-7.666-5.8-4.839a1.414,1.414,0,0,1,.905-2.5l7.225-.9,3.484-7.1a1.538,1.538,0,0,1,2.6,0L35.154,23.4l7.379.9a1.421,1.421,0,0,1,.719,2.521l-5.777,4.808,1.709,7.874a1.44,1.44,0,0,1-.538,1.437,1.42,1.42,0,0,1-.844.273M21.663,26.67l4.044,3.371a1.386,1.386,0,0,1,.466,1.356l-1.2,5.587,4.689-2.9a1.381,1.381,0,0,1,1.456,0l4.689,2.895L34.587,31.4a1.393,1.393,0,0,1,.469-1.361l4.052-3.371-5.04-.611a1.386,1.386,0,0,1-1.077-.769l-2.6-5.343-2.617,5.338a1.375,1.375,0,0,1-1.074.765Z" transform="translate(4.254 3.902)" fill="#e52f42"/>
      </g>
    </g>
  </g>
</svg>
