<svg xmlns="http://www.w3.org/2000/svg" xmlns:xlink="http://www.w3.org/1999/xlink" width="90" height="90" viewBox="0 0 90 90">
  <defs>
    <clipPath id="clip-path">
      <rect id="사각형_814" data-name="사각형 814" width="70.32" height="59.772" fill="none"/>
    </clipPath>
    <clipPath id="clip-path-2">
      <path id="패스_1190" data-name="패스 1190" d="M24.074,37.776h6.917a1.6,1.6,0,0,0,1.6-1.6V29.26h5.138v6.917a1.6,1.6,0,0,0,1.6,1.6h6.917v5.139H39.328a1.6,1.6,0,0,0-1.6,1.6v6.917H32.59V44.514a1.6,1.6,0,0,0-1.6-1.6H24.074Zm6.917-11.714a1.6,1.6,0,0,0-1.6,1.6v6.917H22.474a1.6,1.6,0,0,0-1.6,1.6v8.337a1.6,1.6,0,0,0,1.6,1.6h6.917v6.919a1.6,1.6,0,0,0,1.6,1.6h8.337a1.6,1.6,0,0,0,1.6-1.6V46.113h6.917a1.6,1.6,0,0,0,1.6-1.6V36.177a1.6,1.6,0,0,0-1.6-1.6H40.927V27.661a1.6,1.6,0,0,0-1.6-1.6ZM23.362,0a1.6,1.6,0,0,0-1.6,1.6V5.2H1.6A1.6,1.6,0,0,0,0,6.8V22.15a1.6,1.6,0,0,0,1.6,1.6H3.8V58.173a1.6,1.6,0,0,0,1.6,1.6H64.922a1.6,1.6,0,0,0,1.6-1.6V26.855a1.6,1.6,0,0,0-1.6-1.6H62.174a1.6,1.6,0,1,0,0,3.2h1.148V56.571H7V22.15a1.6,1.6,0,0,0-1.6-1.6H3.2V8.4H23.362a1.6,1.6,0,0,0,1.6-1.6V3.2H45.357V6.8a1.6,1.6,0,0,0,1.6,1.6H67.119V20.55h-55.8a1.6,1.6,0,1,0,0,3.2h57.4a1.6,1.6,0,0,0,1.6-1.6V6.8a1.6,1.6,0,0,0-1.6-1.6H48.557V1.6a1.6,1.6,0,0,0-1.6-1.6Z" fill="none"/>
    </clipPath>
  </defs>
  <g id="그룹_1437" data-name="그룹 1437" transform="translate(-1019 -4028)">
    <rect id="사각형_813" data-name="사각형 813" width="90" height="90" transform="translate(1019 4028)" fill="none"/>
    <g id="그룹_1441" data-name="그룹 1441" transform="translate(1029.04 4043.06)">
      <g id="그룹_1438" data-name="그룹 1438" transform="translate(0 0)">
        <g id="그룹_1437-2" data-name="그룹 1437" clip-path="url(#clip-path)">
          <path id="패스_1189" data-name="패스 1189" d="M69.85,5.669A1.6,1.6,0,0,0,68.721,5.2H48.557V1.6a1.6,1.6,0,0,0-1.6-1.6H23.362a1.6,1.6,0,0,0-1.6,1.6V5.2H1.6A1.6,1.6,0,0,0,0,6.8V22.151a1.6,1.6,0,0,0,1.6,1.6H3.8V58.173a1.6,1.6,0,0,0,1.6,1.6H64.922a1.6,1.6,0,0,0,1.6-1.6V26.855a1.6,1.6,0,0,0-1.6-1.6H62.174a1.6,1.6,0,1,0,0,3.2h1.148V56.573H7V22.151a1.6,1.6,0,0,0-1.6-1.6H3.2V8.4H23.362a1.6,1.6,0,0,0,1.6-1.6V3.2H45.357V6.8a1.6,1.6,0,0,0,1.6,1.6H67.119V20.551h-55.8a1.6,1.6,0,1,0,0,3.2h57.4a1.6,1.6,0,0,0,1.6-1.6V6.8a1.605,1.605,0,0,0-.469-1.131M29.861,54.162a1.61,1.61,0,0,0,1.131.469h8.337a1.6,1.6,0,0,0,1.6-1.6V46.114h6.916a1.6,1.6,0,0,0,1.6-1.6V36.178a1.6,1.6,0,0,0-1.6-1.6H40.928V27.662a1.6,1.6,0,0,0-1.6-1.6H30.991a1.6,1.6,0,0,0-1.6,1.6v6.916H22.474a1.6,1.6,0,0,0-1.6,1.6v8.337a1.6,1.6,0,0,0,1.6,1.6h6.917v6.917a1.607,1.607,0,0,0,.469,1.131M24.074,42.915V37.777h6.917a1.6,1.6,0,0,0,1.6-1.6V29.261h5.138v6.917a1.6,1.6,0,0,0,1.6,1.6h6.916v5.138H39.328a1.6,1.6,0,0,0-1.6,1.6v6.916H32.59V44.515a1.6,1.6,0,0,0-1.6-1.6Z" transform="translate(0 0)" fill="#262626"/>
        </g>
      </g>
      <g id="그룹_1440" data-name="그룹 1440">
        <g id="그룹_1439" data-name="그룹 1439" clip-path="url(#clip-path-2)">
          <rect id="사각형_815" data-name="사각형 815" width="38.904" height="30.119" transform="translate(15.101 24.92)" fill="#e52f42"/>
        </g>
      </g>
    </g>
  </g>
</svg>
