<svg xmlns="http://www.w3.org/2000/svg" xmlns:xlink="http://www.w3.org/1999/xlink" width="90" height="90" viewBox="0 0 90 90">
  <defs>
    <clipPath id="clip-path">
      <rect id="사각형_806" data-name="사각형 806" width="79.564" height="79.568" fill="none"/>
    </clipPath>
  </defs>
  <g id="그룹_1426" data-name="그룹 1426" transform="translate(-1060 -4653)">
    <rect id="사각형_805" data-name="사각형 805" width="90" height="90" transform="translate(1060 4653)" fill="none"/>
    <g id="그룹_1408" data-name="그룹 1408" transform="translate(1065 4658)">
      <g id="그룹_1407" data-name="그룹 1407" transform="translate(0 0)" clip-path="url(#clip-path)">
        <path id="패스_1161" data-name="패스 1161" d="M26.323,79.568a1.576,1.576,0,0,1-.345-.037A1.616,1.616,0,0,1,24.77,78.4L20.82,64.547c-1.945.569-4.435,1.013-5.061,1.122A1.615,1.615,0,0,1,13.893,63.8c.109-.626.554-3.112,1.126-5.056L1.172,54.795a1.616,1.616,0,0,1-.609-2.78L7.111,46.4a1.646,1.646,0,0,1,1.267-.375l13.349,1.786c3.33-4.4,7.564-9.385,12.3-14.467a2.739,2.739,0,0,0-1.255-4.505L4.342,20.809A4.732,4.732,0,0,1,.985,17.191a4.634,4.634,0,0,1,1.621-4.556,10.067,10.067,0,0,1,8.945-1.888l3.939.635,4.288-4.289A4.189,4.189,0,0,1,22.76,5.857h0a4.2,4.2,0,0,1,2.988,1.235l.408.41a4.232,4.232,0,0,1,.3,5.641l5.27.846L37.093,8.63a4.235,4.235,0,0,1,5.973,0l.408.41a4.233,4.233,0,0,1,0,5.973l-.742.742,7.9,1.269c9-8.06,24.018-20.3,28.113-16.2s-8.139,19.119-16.2,28.117l1.268,7.9.742-.741a4.227,4.227,0,0,1,5.971,0l.414.414a4.231,4.231,0,0,1,0,5.969l-5.359,5.362.847,5.273a4.191,4.191,0,0,1,2.655-.936h0a4.193,4.193,0,0,1,2.985,1.237l.406.406a4.228,4.228,0,0,1,0,5.975l-4.286,4.289.631,3.938a10.07,10.07,0,0,1-1.785,8.819,4.725,4.725,0,0,1-8.276-1.614L50.727,46.8a2.738,2.738,0,0,0-4.5-1.255c-5.088,4.735-10.072,8.969-14.469,12.3l1.787,13.345a1.613,1.613,0,0,1-.375,1.267L27.55,79a1.615,1.615,0,0,1-1.226.563m21.752-38A6,6,0,0,1,49.7,41.8a5.922,5.922,0,0,1,4.138,4.123l8.028,28.423A1.448,1.448,0,0,0,63,75.4a1.506,1.506,0,0,0,1.482-.556A6.825,6.825,0,0,0,65.681,68.8a1.694,1.694,0,0,1-.041-.182l-.775-4.841a1.614,1.614,0,0,1,.452-1.4l4.87-4.873a1,1,0,0,0,0-1.4l-.407-.406a1,1,0,0,0-1.4,0l-1.911,1.9a1.615,1.615,0,0,1-2.736-.887l-1.473-9.18a1.616,1.616,0,0,1,.452-1.4l5.944-5.944a1,1,0,0,0,0-1.4l-.411-.414a1.007,1.007,0,0,0-1.4,0L63.86,41.35a1.615,1.615,0,0,1-2.737-.885L59.23,28.684a1.612,1.612,0,0,1,.4-1.338c13.327-14.778,17.006-22.5,16.793-24.2C74.712,2.928,67,6.613,52.22,19.94a1.615,1.615,0,0,1-1.339.394L39.1,18.442a1.617,1.617,0,0,1-.885-2.74l2.979-2.975a1,1,0,0,0,0-1.406l-.407-.407a1.008,1.008,0,0,0-1.4,0l-5.945,5.944a1.615,1.615,0,0,1-1.4.454l-9.181-1.477a1.616,1.616,0,0,1-.885-2.739l1.909-1.9a1.008,1.008,0,0,0,0-1.4l-.41-.408a.994.994,0,0,0-1.4,0L17.19,14.248a1.608,1.608,0,0,1-1.4.454l-4.843-.778a1.46,1.46,0,0,1-.181-.04,6.814,6.814,0,0,0-6.131,1.264,1.389,1.389,0,0,0-.487,1.392A1.492,1.492,0,0,0,5.22,17.7l28.426,8.029a5.971,5.971,0,0,1,2.741,9.817A183.623,183.623,0,0,0,23.746,50.5a1.618,1.618,0,0,1-1.51.637L8.665,49.323l-3.718,3.19,12.625,3.6a1.615,1.615,0,0,1,.986,2.307,19.643,19.643,0,0,0-1.026,3.611,19.719,19.719,0,0,0,3.615-1.024,1.616,1.616,0,0,1,2.306.987l3.6,12.625L30.244,70.9,28.427,57.33a1.614,1.614,0,0,1,.637-1.511A184.116,184.116,0,0,0,44.022,43.179a5.92,5.92,0,0,1,4.053-1.608" transform="translate(0 0)"/>
        <path id="패스_1162" data-name="패스 1162" d="M45.255,20.3a1.292,1.292,0,0,1-.914-2.206l9.375-9.375a1.292,1.292,0,0,1,1.827,1.827l-9.375,9.375a1.289,1.289,0,0,1-.914.379" transform="translate(12.854 2.439)" fill="#e52f42"/>
        <path id="패스_1163" data-name="패스 1163" d="M27.893,38.326a1.292,1.292,0,0,1-.914-2.206l12.3-12.3A1.292,1.292,0,1,1,41.1,25.652l-12.3,12.3a1.289,1.289,0,0,1-.914.379" transform="translate(7.777 6.855)" fill="#e52f42"/>
      </g>
    </g>
  </g>
</svg>
