<svg xmlns="http://www.w3.org/2000/svg" xmlns:xlink="http://www.w3.org/1999/xlink" width="90" height="90" viewBox="0 0 90 90">
  <defs>
    <clipPath id="clip-path">
      <rect id="사각형_780" data-name="사각형 780" width="85.635" height="79.831" fill="none"/>
    </clipPath>
  </defs>
  <g id="그룹_1414" data-name="그룹 1414" transform="translate(-1376 -4299)">
    <rect id="사각형_779" data-name="사각형 779" width="90" height="90" transform="translate(1376 4299)" fill="none"/>
    <g id="그룹_1381" data-name="그룹 1381" transform="translate(1378 4304)">
      <g id="그룹_1380" data-name="그룹 1380" transform="translate(0 0)" clip-path="url(#clip-path)">
        <path id="패스_1062" data-name="패스 1062" d="M39.811,43.987a3.913,3.913,0,0,1-2.079-.6,4.022,4.022,0,0,1-1.783-2.51,4.09,4.09,0,0,1,.48-3.06,3.922,3.922,0,0,1,5.463-1.329,4.1,4.1,0,0,1,1.3,5.57,3.929,3.929,0,0,1-3.384,1.93m0-4.742a.674.674,0,0,0-.58.329.7.7,0,0,0-.082.522.69.69,0,0,0,.305.429.678.678,0,0,0,.932-.226.7.7,0,0,0-.222-.95.655.655,0,0,0-.353-.1" transform="translate(9.538 10.448)"/>
        <path id="패스_1063" data-name="패스 1063" d="M31.788,56.261a1.611,1.611,0,0,1-.861-.249,1.7,1.7,0,0,1-.541-2.31l7.826-12.978a1.628,1.628,0,0,1,2.265-.55,1.7,1.7,0,0,1,.541,2.31L33.192,55.46a1.636,1.636,0,0,1-1.4.8" transform="translate(8.022 11.623)"/>
        <path id="패스_1064" data-name="패스 1064" d="M28.085,69.277h0a2.147,2.147,0,0,1-1.627-.727,2.654,2.654,0,0,1-.6-2.106l2.363-24.4a6.721,6.721,0,0,1,1.892-3.86l13.263-12.4a3.848,3.848,0,0,1,2.61-.992,3.7,3.7,0,0,1,1.965.545l7.65,4.8A4.044,4.044,0,0,1,57.275,34.5L52.411,52.164a6.657,6.657,0,0,1-2.525,3.464L29.6,68.79a2.775,2.775,0,0,1-1.516.487m17.9-41.125a.642.642,0,0,0-.384.11l-13.263,12.4a3.461,3.461,0,0,0-.839,1.713L29.308,65l18.811-12.2a3.422,3.422,0,0,0,1.121-1.536L54.1,33.593a.716.716,0,0,0-.228-.6l-7.65-4.8a.527.527,0,0,0-.241-.048" transform="translate(6.877 7.218)" fill="#e52f42"/>
        <path id="패스_1065" data-name="패스 1065" d="M56.1,42.98a3.637,3.637,0,0,1-1.933-.58l-14.62-9.167a3.747,3.747,0,0,1-1.456-1.664,2.725,2.725,0,0,1,.118-2.506L54.984,1.243A2.66,2.66,0,0,1,57.3,0a3.647,3.647,0,0,1,1.933.578l14.62,9.167a3.121,3.121,0,0,1,1.338,4.17L58.421,41.737A2.66,2.66,0,0,1,56.1,42.98m-14.819-12.6,14.6,9.155L72.124,12.6l-14.6-9.154Z" transform="translate(10.071 0)"/>
        <path id="패스_1066" data-name="패스 1066" d="M31.456,62.588H1.647a1.679,1.679,0,0,1,0-3.358H31.456a1.679,1.679,0,0,1,0,3.358" transform="translate(0 17.243)"/>
      </g>
    </g>
  </g>
</svg>
