<svg xmlns="http://www.w3.org/2000/svg" xmlns:xlink="http://www.w3.org/1999/xlink" width="90" height="90" viewBox="0 0 90 90">
  <defs>
    <clipPath id="clip-path">
      <rect id="사각형_774" data-name="사각형 774" width="79.13" height="74.741" fill="none"/>
    </clipPath>
  </defs>
  <g id="그룹_1411" data-name="그룹 1411" transform="translate(-925 -4307)">
    <rect id="사각형_773" data-name="사각형 773" width="90" height="90" transform="translate(925 4307)" fill="none"/>
    <g id="그룹_1375" data-name="그룹 1375" transform="translate(931 4314)">
      <g id="그룹_1374" data-name="그룹 1374" transform="translate(0 0)" clip-path="url(#clip-path)">
        <path id="패스_1039" data-name="패스 1039" d="M75.931,57.8H3.2A3.231,3.231,0,0,1,0,54.541V3.255A3.23,3.23,0,0,1,3.2,0H54.011A1.7,1.7,0,0,1,55.7,1.712a1.7,1.7,0,0,1-1.684,1.714H3.367V54.37h72.4V3.426H70.174a1.7,1.7,0,0,1-1.683-1.714A1.7,1.7,0,0,1,70.174,0h5.758a3.23,3.23,0,0,1,3.2,3.255V54.541a3.231,3.231,0,0,1-3.2,3.255" transform="translate(0 0)"/>
        <path id="패스_1040" data-name="패스 1040" d="M67.4,59.237H7.553a3.231,3.231,0,0,1-3.2-3.255V52.127a3.231,3.231,0,0,1,3.2-3.255H67.4a3.231,3.231,0,0,1,3.2,3.255v3.856a3.231,3.231,0,0,1-3.2,3.255M7.721,55.811H67.228V52.3H7.721Z" transform="translate(1.282 15.504)"/>
        <path id="패스_1041" data-name="패스 1041" d="M30.324,54.169a1.7,1.7,0,0,1-1.684-1.714V42.99a1.684,1.684,0,1,1,3.368,0v9.466a1.7,1.7,0,0,1-1.684,1.714" transform="translate(8.433 13.094)"/>
        <path id="패스_1042" data-name="패스 1042" d="M76.816,36.99H1.962a1.713,1.713,0,0,1,0-3.426H76.816a1.713,1.713,0,0,1,0,3.426" transform="translate(0.082 10.647)"/>
        <path id="패스_1043" data-name="패스 1043" d="M35.739,32.152H10.679a2.227,2.227,0,0,1-2.206-2.243V9.04a2.228,2.228,0,0,1,2.206-2.246H18.07a2.491,2.491,0,0,1,2.264,1.6L21.821,12.1l.006.021H35.739a2.229,2.229,0,0,1,2.206,2.245V29.909a2.228,2.228,0,0,1-2.206,2.243m-23.9-3.426H34.578V15.544H15.664a1.714,1.714,0,0,1,0-3.427h2.528l-.76-1.9H11.841Z" transform="translate(2.495 2.155)" fill="#e52f42"/>
        <path id="패스_1044" data-name="패스 1044" d="M55.55,19.227H37.367a1.713,1.713,0,0,1,0-3.426H55.55a1.713,1.713,0,0,1,0,3.426" transform="translate(10.507 5.012)" fill="#e52f42"/>
        <path id="패스_1045" data-name="패스 1045" d="M55.55,24.407H37.367a1.713,1.713,0,0,1,0-3.426H55.55a1.713,1.713,0,0,1,0,3.426" transform="translate(10.507 6.656)" fill="#e52f42"/>
        <path id="패스_1046" data-name="패스 1046" d="M55.55,29.586H37.367a1.713,1.713,0,0,1,0-3.426H55.55a1.713,1.713,0,0,1,0,3.426" transform="translate(10.507 8.299)" fill="#e52f42"/>
      </g>
    </g>
  </g>
</svg>
