<svg xmlns="http://www.w3.org/2000/svg" xmlns:xlink="http://www.w3.org/1999/xlink" width="90" height="90" viewBox="0 0 90 90">
  <defs>
    <clipPath id="clip-path">
      <rect id="사각형_797" data-name="사각형 797" width="76.049" height="86.129" fill="none"/>
    </clipPath>
  </defs>
  <g id="그룹_1422" data-name="그룹 1422" transform="translate(-1701 -4511)">
    <rect id="사각형_796" data-name="사각형 796" width="90" height="90" transform="translate(1701 4511)" fill="none"/>
    <g id="그룹_1397" data-name="그룹 1397" transform="translate(1707 4512)">
      <g id="그룹_1396" data-name="그룹 1396" transform="translate(0 0)" clip-path="url(#clip-path)">
        <path id="패스_1126" data-name="패스 1126" d="M62.433,81.287H40.083a1.691,1.691,0,0,1-1.72-1.66V28.055A1.663,1.663,0,0,1,39.48,26.5l22.351-8.064a1.766,1.766,0,0,1,1.581.191,1.642,1.642,0,0,1,.74,1.364V79.627a1.691,1.691,0,0,1-1.72,1.66M41.8,77.967H60.714V22.383L41.8,29.206Z" transform="translate(11.896 4.843)" fill="#e52f42"/>
        <path id="패스_1127" data-name="패스 1127" d="M19.853,77.47H1.72A1.691,1.691,0,0,1,0,75.81V34.433a1.691,1.691,0,0,1,1.72-1.66H19.853a1.69,1.69,0,0,1,1.719,1.66V75.81a1.69,1.69,0,0,1-1.719,1.66M3.44,74.15H18.133V36.092H3.44Z" transform="translate(0 8.659)" fill="#e52f42"/>
        <path id="패스_1128" data-name="패스 1128" d="M24.046,24.86H21.7a1.661,1.661,0,1,1,0-3.32h2.35a1.661,1.661,0,1,1,0,3.32" transform="translate(6.194 5.691)"/>
        <path id="패스_1129" data-name="패스 1129" d="M34.5,24.86H32.153a1.661,1.661,0,1,1,0-3.32H34.5a1.661,1.661,0,1,1,0,3.32" transform="translate(9.437 5.691)"/>
        <path id="패스_1130" data-name="패스 1130" d="M24.046,31.794H21.7a1.661,1.661,0,1,1,0-3.32h2.35a1.661,1.661,0,1,1,0,3.32" transform="translate(6.194 7.523)"/>
        <path id="패스_1131" data-name="패스 1131" d="M34.5,31.794H32.153a1.661,1.661,0,1,1,0-3.32H34.5a1.661,1.661,0,1,1,0,3.32" transform="translate(9.437 7.523)"/>
        <path id="패스_1132" data-name="패스 1132" d="M58.863,36.509H51.595a1.661,1.661,0,1,1,0-3.32h7.268a1.661,1.661,0,1,1,0,3.32" transform="translate(15.466 8.769)" fill="#e52f42"/>
        <path id="패스_1133" data-name="패스 1133" d="M58.863,44.367H51.595a1.661,1.661,0,1,1,0-3.32h7.268a1.661,1.661,0,1,1,0,3.32" transform="translate(15.466 10.845)" fill="#e52f42"/>
        <path id="패스_1134" data-name="패스 1134" d="M58.863,52.225H51.595a1.661,1.661,0,1,1,0-3.32h7.268a1.661,1.661,0,1,1,0,3.32" transform="translate(15.466 12.921)" fill="#e52f42"/>
        <path id="패스_1135" data-name="패스 1135" d="M14.1,42.885H5.741a1.661,1.661,0,1,1,0-3.32H14.1a1.661,1.661,0,1,1,0,3.32" transform="translate(1.247 10.453)" fill="#e52f42"/>
        <path id="패스_1136" data-name="패스 1136" d="M14.1,50.746H5.741a1.661,1.661,0,1,1,0-3.32H14.1a1.661,1.661,0,1,1,0,3.32" transform="translate(1.247 12.53)" fill="#e52f42"/>
        <path id="패스_1137" data-name="패스 1137" d="M14.1,58.607H5.741a1.661,1.661,0,1,1,0-3.32H14.1a1.661,1.661,0,1,1,0,3.32" transform="translate(1.247 14.607)" fill="#e52f42"/>
        <path id="패스_1138" data-name="패스 1138" d="M47.687,82.529H15.561a1.691,1.691,0,0,1-1.72-1.66V15.287a1.691,1.691,0,0,1,1.72-1.66H47.687a1.691,1.691,0,0,1,1.72,1.66V80.869a1.691,1.691,0,0,1-1.72,1.66M17.28,79.209H45.967V16.946H17.28Z" transform="translate(4.292 3.6)"/>
        <path id="패스_1139" data-name="패스 1139" d="M39.379,18.251H20.688a1.691,1.691,0,0,1-1.72-1.66V10.35a1.691,1.691,0,0,1,1.72-1.66H39.379a1.691,1.691,0,0,1,1.72,1.66v6.241a1.691,1.691,0,0,1-1.72,1.66m-16.971-3.32H37.659V12.01H22.408Z" transform="translate(5.882 2.296)"/>
        <path id="패스_1140" data-name="패스 1140" d="M27.822,13.136a1.691,1.691,0,0,1-1.72-1.66V1.66a1.721,1.721,0,0,1,3.44,0v9.817a1.691,1.691,0,0,1-1.72,1.66" transform="translate(8.094 0)"/>
        <path id="패스_1141" data-name="패스 1141" d="M29.275,24.86h-2.35a1.661,1.661,0,1,1,0-3.32h2.35a1.661,1.661,0,1,1,0,3.32" transform="translate(7.816 5.691)"/>
        <path id="패스_1142" data-name="패스 1142" d="M29.275,31.794h-2.35a1.661,1.661,0,1,1,0-3.32h2.35a1.661,1.661,0,1,1,0,3.32" transform="translate(7.816 7.523)"/>
        <path id="패스_1143" data-name="패스 1143" d="M33.687,67.737a1.691,1.691,0,0,1-1.72-1.66V55H25.921V66.077a1.721,1.721,0,0,1-3.44,0V53.339a1.691,1.691,0,0,1,1.72-1.66h9.486a1.691,1.691,0,0,1,1.72,1.66V66.077a1.691,1.691,0,0,1-1.72,1.66" transform="translate(6.971 13.654)"/>
      </g>
    </g>
  </g>
</svg>
