<svg xmlns="http://www.w3.org/2000/svg" xmlns:xlink="http://www.w3.org/1999/xlink" width="90" height="90" viewBox="0 0 90 90">
  <defs>
    <clipPath id="clip-path">
      <rect id="사각형_808" data-name="사각형 808" width="63.797" height="79.102" fill="none"/>
    </clipPath>
  </defs>
  <g id="그룹_1430" data-name="그룹 1430" transform="translate(-2345 4300)">
    <rect id="사각형_807" data-name="사각형 807" width="90" height="90" transform="translate(2345 -4300)" fill="none"/>
    <g id="그룹_1429" data-name="그룹 1429" transform="translate(2357.493 -4295.002)">
      <g id="그룹_1428" data-name="그룹 1428" transform="translate(0 0)" clip-path="url(#clip-path)">
        <path id="패스_1164" data-name="패스 1164" d="M29.281,47.511a18.683,18.683,0,1,1,18.68-18.682,18.7,18.7,0,0,1-18.68,18.682m0-34.2A15.519,15.519,0,1,0,44.8,28.829,15.535,15.535,0,0,0,29.281,13.31" transform="translate(2.643 2.53)"/>
        <path id="패스_1165" data-name="패스 1165" d="M31.81,62.716c-2.075,0-3.539-1.747-4.831-3.284-.706-.841-1.585-1.888-2.146-2.036-.6-.18-1.948.315-3.017.7-1.853.671-3.952,1.437-5.688.424-1.76-1.019-2.153-3.236-2.5-5.191a7.267,7.267,0,0,0-.871-2.915,7.28,7.28,0,0,0-2.911-.871c-1.956-.346-4.173-.738-5.193-2.5-1-1.739-.246-3.837.424-5.691a7.291,7.291,0,0,0,.7-3.018c-.15-.56-1.2-1.439-2.039-2.145C2.2,34.9.457,33.433.457,31.358S2.2,27.819,3.74,26.527c.841-.706,1.889-1.585,2.039-2.146a7.283,7.283,0,0,0-.7-3.017c-.668-1.853-1.427-3.952-.421-5.691,1.018-1.759,3.235-2.151,5.192-2.5a7.278,7.278,0,0,0,2.911-.872,7.207,7.207,0,0,0,.871-2.912c.346-1.956.738-4.174,2.5-5.192,1.735-1,3.834-.247,5.688.424a7.157,7.157,0,0,0,3.018.7c.558-.15,1.438-1.2,2.144-2.039C28.271,1.744,29.735,0,31.81,0s3.536,1.744,4.827,3.283c.708.842,1.589,1.89,2.148,2.04a7.269,7.269,0,0,0,3.016-.7c1.852-.67,3.953-1.425,5.688-.424,1.762,1.019,2.154,3.237,2.5,5.195a7.244,7.244,0,0,0,.872,2.91,7.225,7.225,0,0,0,2.911.872c1.955.346,4.174.738,5.191,2.5,1,1.737.247,3.835-.424,5.688a7.252,7.252,0,0,0-.7,3.017c.149.561,1.2,1.44,2.036,2.146,1.539,1.292,3.284,2.756,3.284,4.831S61.419,34.9,59.88,36.189c-.843.706-1.89,1.585-2.039,2.145a7.25,7.25,0,0,0,.7,3.02c.671,1.853,1.428,3.95.424,5.687-1.021,1.764-3.238,2.156-5.195,2.5a7.25,7.25,0,0,0-2.907.868,7.245,7.245,0,0,0-.872,2.915c-.346,1.955-.738,4.174-2.5,5.191-1.735,1.013-3.837.244-5.688-.424a7.134,7.134,0,0,0-3.016-.7c-.558.149-1.439,1.2-2.148,2.039-1.292,1.539-2.755,3.282-4.827,3.282M24.538,54.2a4.422,4.422,0,0,1,1.114.139c1.524.409,2.655,1.759,3.75,3.062.762.908,1.808,2.154,2.407,2.154s1.642-1.246,2.4-2.154c1.094-1.3,2.229-2.654,3.754-3.062,1.567-.414,3.269.189,4.907.782,1.017.367,2.549.936,3.031.661s.772-1.918.964-3c.3-1.7.612-3.461,1.752-4.6s2.895-1.449,4.6-1.749c1.084-.192,2.725-.482,3.007-.967.265-.464-.291-2.009-.662-3.03-.59-1.638-1.2-3.333-.782-4.912.409-1.524,1.759-2.657,3.062-3.752C58.753,33,60,31.958,60,31.358s-1.244-1.645-2.154-2.407c-1.3-1.1-2.654-2.226-3.062-3.75-.42-1.579.192-3.274.782-4.912.371-1.022.927-2.567.662-3.03-.282-.486-1.92-.775-3-.967-1.7-.3-3.461-.611-4.6-1.75s-1.449-2.9-1.749-4.6c-.191-1.084-.482-2.725-.969-3.007-.457-.257-2.006.292-3.028.662-1.634.59-3.324,1.206-4.907.781-1.525-.407-2.66-1.758-3.754-3.063-.763-.908-1.805-2.153-2.4-2.153S30.166,4.409,29.4,5.317c-1.1,1.306-2.226,2.655-3.75,3.062-1.592.424-3.274-.191-4.91-.781-1.023-.372-2.572-.927-3.028-.662-.486.282-.776,1.92-.967,3.006-.3,1.7-.612,3.461-1.75,4.6s-2.9,1.449-4.6,1.749c-1.086.194-2.725.482-3.006.968-.267.462.29,2.008.66,3.03.593,1.638,1.206,3.331.782,4.91-.409,1.525-1.757,2.657-3.062,3.753-.908.763-2.153,1.808-2.153,2.407S4.865,33,5.773,33.766c1.306,1.094,2.654,2.228,3.062,3.754.421,1.577-.19,3.269-.782,4.907-.37,1.023-.928,2.569-.661,3.032.281.485,1.921.775,3.006.967,1.7.3,3.458.611,4.6,1.749s1.449,2.9,1.75,4.6c.192,1.084.482,2.725.968,3.006.465.27,2.005-.29,3.027-.661a11.7,11.7,0,0,1,3.8-.921" transform="translate(0.114 0)"/>
        <path id="패스_1166" data-name="패스 1166" d="M17.123,69.41c-.045,0-.09,0-.132-.006a1.821,1.821,0,0,1-1.53-1.236l-3.168-9.477L2.132,60.526a2.058,2.058,0,0,1-1.8-.741,1.814,1.814,0,0,1-.091-1.94L11.2,38.86l2.741,1.582L4.44,56.893l8.443-1.524a2.036,2.036,0,0,1,2.041,1.218l2.587,7.737L26.955,47.96,29.7,49.542,18.75,68.508a2.061,2.061,0,0,1-1.627.9" transform="translate(0 9.689)"/>
        <path id="패스_1167" data-name="패스 1167" d="M39.848,69.412a1.817,1.817,0,0,1-1.565-.9L27.334,49.54l2.739-1.582,9.446,16.365L42.1,56.582a1.98,1.98,0,0,1,2.019-1.214L52.573,56.9,43.082,40.45l2.737-1.582L56.773,57.843a2.033,2.033,0,0,1-.09,1.956,1.8,1.8,0,0,1-1.817.728L44.735,58.692l-3.165,9.48A2.041,2.041,0,0,1,40.026,69.4c-.06.005-.117.009-.177.009m14.184-9.99,0,.006Z" transform="translate(6.815 9.691)"/>
        <path id="패스_1168" data-name="패스 1168" d="M25.052,32.806a1.577,1.577,0,0,1-1.118-.464l-5.368-5.37L20.8,24.736l4.25,4.251,8.717-8.72L36.007,22.5l-9.835,9.838a1.58,1.58,0,0,1-1.119.464" transform="translate(4.629 5.053)" fill="#e52f42"/>
      </g>
    </g>
  </g>
</svg>
