<svg xmlns="http://www.w3.org/2000/svg" xmlns:xlink="http://www.w3.org/1999/xlink" width="90" height="90" viewBox="0 0 90 90">
  <defs>
    <clipPath id="clip-path">
      <rect id="사각형_793" data-name="사각형 793" width="78.507" height="74.5" fill="none"/>
    </clipPath>
  </defs>
  <g id="그룹_1420" data-name="그룹 1420" transform="translate(-1420 -4519)">
    <rect id="사각형_792" data-name="사각형 792" width="90" height="90" transform="translate(1420 4519)" fill="none"/>
    <g id="그룹_1393" data-name="그룹 1393" transform="translate(1425 4527)">
      <g id="그룹_1392" data-name="그룹 1392" clip-path="url(#clip-path)">
        <path id="패스_1109" data-name="패스 1109" d="M71.615,39.8A8.747,8.747,0,0,0,73.048,35a7.415,7.415,0,1,0-14.83,0,8.75,8.75,0,0,0,1.438,4.8,14.229,14.229,0,0,0-5.1,6.013c-.982-.175-1.961-.353-2.993-.533A14.9,14.9,0,0,0,45.16,34.353a8.578,8.578,0,0,0,1.434-4.806,7.187,7.187,0,0,0-7.423-7.437,7.182,7.182,0,0,0-7.407,7.437A8.794,8.794,0,0,0,33.2,34.39a14.949,14.949,0,0,0-6.443,10.888c-1,.179-2,.357-2.958.533A14.946,14.946,0,0,0,18.7,39.8,8.614,8.614,0,0,0,20.156,35a7.193,7.193,0,0,0-7.422-7.474A7.2,7.2,0,0,0,5.309,35a8.75,8.75,0,0,0,1.438,4.8,14.8,14.8,0,0,0-6.5,11.92C.249,58.053,5.029,62,12.735,62h.437c5.795,3.345,16.107,5.124,26,5.124,9.908,0,20.22-1.779,26-5.124h.455c7.7,0,12.482-3.95,12.482-10.286A14.8,14.8,0,0,0,71.615,39.8m-5.988-9.856A4.821,4.821,0,0,1,70.686,35c0,3.166-2.259,5.728-5.059,5.728S60.581,38.161,60.581,35a4.82,4.82,0,0,1,5.046-5.054M39.171,24.5a4.851,4.851,0,0,1,5.06,5.05c0,3.2-2.277,5.765-5.06,5.765s-5.059-2.562-5.059-5.765a4.85,4.85,0,0,1,5.059-5.05M34.83,36.169a6.826,6.826,0,0,0,8.7,0,12.172,12.172,0,0,1,5.636,8.788,83.037,83.037,0,0,0-19.993,0,12.182,12.182,0,0,1,5.654-8.788M12.735,29.941A4.83,4.83,0,0,1,17.794,35c0,3.166-2.277,5.728-5.059,5.728S7.676,38.161,7.676,35a4.83,4.83,0,0,1,5.059-5.054M2.613,51.717A12.208,12.208,0,0,1,8.392,41.576a6.984,6.984,0,0,0,4.343,1.566,7.024,7.024,0,0,0,4.343-1.566,11.784,11.784,0,0,1,4.374,4.769C13.943,48.23,8.5,51.4,8.5,55.74a5.641,5.641,0,0,0,1.419,3.629c-3.152-.568-7.3-2.277-7.3-7.652M10.86,55.74c0-4.271,11.624-9,28.311-9s28.309,4.734,28.309,9c0,4.234-11.624,9-28.309,9s-28.311-4.769-28.311-9m57.567,3.629a5.637,5.637,0,0,0,1.417-3.629c0-4.341-5.443-7.511-12.955-9.395a11.936,11.936,0,0,1,4.4-4.769,6.826,6.826,0,0,0,8.7,0,12.237,12.237,0,0,1,5.758,10.141c0,5.375-4.166,7.083-7.318,7.652" transform="translate(0.074 7.044)" fill="#1a171b"/>
        <path id="패스_1110" data-name="패스 1110" d="M39.245,67.536c-10.568,0-20.55-1.962-26.085-5.124h-.352C4.908,62.412,0,58.344,0,51.8A15.135,15.135,0,0,1,6.375,39.78a9.148,9.148,0,0,1-1.317-4.7,7.523,7.523,0,0,1,7.751-7.8,7.52,7.52,0,0,1,7.747,7.8,8.9,8.9,0,0,1-1.33,4.71,15.378,15.378,0,0,1,4.831,5.737l2.477-.446a15.384,15.384,0,0,1,6.3-10.7,9.118,9.118,0,0,1-1.317-4.748,7.5,7.5,0,0,1,7.732-7.768,7.5,7.5,0,0,1,7.747,7.768,8.9,8.9,0,0,1-1.31,4.714,15.261,15.261,0,0,1,6.259,10.735c.625.109,1.231.218,1.833.326l.675.121a14.688,14.688,0,0,1,4.833-5.744,9.158,9.158,0,0,1-1.313-4.7,7.739,7.739,0,1,1,15.478,0,9.148,9.148,0,0,1-1.312,4.706A15.14,15.14,0,0,1,78.507,51.8c0,6.547-4.907,10.615-12.806,10.615H65.33c-5.521,3.162-15.5,5.124-26.085,5.124m-26.436-39.6a6.889,6.889,0,0,0-7.1,7.144,8.467,8.467,0,0,0,1.384,4.618l.183.281L7,40.154A14.428,14.428,0,0,0,.649,51.8c0,6.141,4.659,9.955,12.16,9.955h.523l.074.044c5.429,3.134,15.329,5.081,25.839,5.081S59.67,64.931,65.085,61.8l.075-.045H65.7c7.5,0,12.157-3.815,12.157-9.955a14.433,14.433,0,0,0-6.345-11.643l-.279-.182.186-.28A8.475,8.475,0,0,0,72.8,35.075a7.09,7.09,0,1,0-14.18,0A8.469,8.469,0,0,0,60,39.693l.186.282-.282.179a13.941,13.941,0,0,0-4.975,5.877l-.106.227L53.66,46.05c-.677-.121-1.362-.244-2.073-.368l-.249-.042-.019-.256a14.53,14.53,0,0,0-6.262-10.673l-.279-.185.188-.28a8.2,8.2,0,0,0,1.378-4.62,6.87,6.87,0,0,0-7.1-7.108,6.863,6.863,0,0,0-7.083,7.108,8.444,8.444,0,0,0,1.383,4.66l.184.278-.278.182a14.645,14.645,0,0,0-6.3,10.64l-.022.252-3.445.62-.106-.224A14.686,14.686,0,0,0,18.6,40.153l-.278-.183.188-.28a8.337,8.337,0,0,0,1.395-4.615,6.887,6.887,0,0,0-7.1-7.144M39.245,65.153c-16.876,0-28.636-4.918-28.636-9.334,0-4.508,11.506-9.334,28.636-9.334s28.633,4.826,28.633,9.334c0,4.416-11.759,9.334-28.633,9.334m0-18.009c-16.019,0-27.987,4.581-27.987,8.675,0,3.622,10.647,8.675,27.987,8.675s27.984-5.053,27.984-8.675c0-4.094-11.967-8.675-27.984-8.675M67.679,59.932l.572-.694a5.325,5.325,0,0,0,1.342-3.419c0-3.8-4.514-7.018-12.708-9.073l-.4-.1.195-.372a12.314,12.314,0,0,1,4.518-4.9l.188-.112.173.136a6.6,6.6,0,0,0,8.308,0l.17-.134.189.109A12.608,12.608,0,0,1,76.143,51.8c0,4.322-2.622,7.081-7.585,7.976ZM57.449,46.209c8.255,2.143,12.793,5.547,12.793,9.61a5.7,5.7,0,0,1-.972,3.134c4.131-.978,6.224-3.382,6.224-7.156a11.947,11.947,0,0,0-5.412-9.747,7.22,7.22,0,0,1-8.745,0,11.644,11.644,0,0,0-3.889,4.157M10.812,59.932l-.878-.158C4.981,58.88,2.361,56.121,2.361,51.8A12.585,12.585,0,0,1,8.305,41.369l.189-.111.173.137a6.571,6.571,0,0,0,8.286,0l.173-.136.189.112a12.064,12.064,0,0,1,4.5,4.9l.193.372-.4.1C13.408,48.8,8.894,52.024,8.894,55.819a5.332,5.332,0,0,0,1.345,3.419ZM8.444,42.052A11.916,11.916,0,0,0,3.01,51.8c0,3.775,2.089,6.179,6.211,7.156a5.681,5.681,0,0,1-.976-3.134c0-4.061,4.539-7.466,12.795-9.61a11.337,11.337,0,0,0-3.869-4.157,7.2,7.2,0,0,1-8.727,0m41.174,3.362-.414-.05a82.774,82.774,0,0,0-19.918,0l-.414.05.054-.421a12.558,12.558,0,0,1,5.815-9.031l.188-.109.171.133a6.6,6.6,0,0,0,8.307,0l.171-.133.187.109a12.556,12.556,0,0,1,5.8,9.031ZM39.245,44.1a84.86,84.86,0,0,1,9.613.555,11.9,11.9,0,0,0-5.23-8.016,7.224,7.224,0,0,1-8.746,0,11.907,11.907,0,0,0-5.248,8.016,84.854,84.854,0,0,1,9.612-.555M65.7,41.133c-2.961,0-5.369-2.718-5.369-6.058a5.376,5.376,0,1,1,10.752,0c0,3.34-2.415,6.058-5.383,6.058m0-10.782a4.47,4.47,0,0,0-4.72,4.724c0,2.976,2.118,5.4,4.72,5.4s4.735-2.422,4.735-5.4A4.477,4.477,0,0,0,65.7,30.351M12.809,41.133c-2.969,0-5.383-2.718-5.383-6.058a5.151,5.151,0,0,1,5.383-5.384,5.151,5.151,0,0,1,5.383,5.384c0,3.34-2.415,6.058-5.383,6.058m0-10.782a4.526,4.526,0,0,0-4.735,4.724c0,2.976,2.123,5.4,4.735,5.4s4.735-2.422,4.735-5.4a4.526,4.526,0,0,0-4.735-4.724m26.436,5.371c-2.967,0-5.382-2.733-5.382-6.094a5.149,5.149,0,0,1,5.382-5.38,5.149,5.149,0,0,1,5.383,5.38c0,3.361-2.415,6.094-5.383,6.094m0-10.815a4.523,4.523,0,0,0-4.733,4.721c0,3,2.123,5.435,4.733,5.435s4.735-2.438,4.735-5.435a4.524,4.524,0,0,0-4.735-4.721" transform="translate(0 6.964)"/>
        <path id="패스_1111" data-name="패스 1111" d="M10.923,24.092l1.032,4.982A1.257,1.257,0,0,0,12.78,30a1.188,1.188,0,0,0,1.173-.32l4.536-4.73c5.374-.43,9.839-3.1,11.539-6.727a14.685,14.685,0,0,0,3.99,1.494L37.4,24.949a1.2,1.2,0,0,0,1.96,0l3.379-5.233a15.94,15.94,0,0,0,3.994-1.494c1.682,3.63,6.146,6.3,11.539,6.727l4.514,4.73a1.252,1.252,0,0,0,.843.357c.1,0,.226-.037.33-.037a1.242,1.242,0,0,0,.825-.926l1.033-4.982c4.851-1.636,7.948-5.123,7.948-9.073,0-5.48-6.218-9.962-13.883-9.962A17.9,17.9,0,0,0,51.509,7.05c-1.859-4.023-7.076-6.8-13.15-6.8S27.065,3.027,25.211,7.05A17.735,17.735,0,0,0,16.86,5.057c-7.651,0-13.883,4.482-13.883,9.962,0,3.95,3.1,7.437,7.946,9.073M16.86,7.44a14.676,14.676,0,0,1,8.316,2.383,1.173,1.173,0,0,0,1.086.109A1.262,1.262,0,0,0,27,9.112c.858-3.7,5.741-6.474,11.363-6.474s10.52,2.773,11.38,6.474a1.165,1.165,0,0,0,.718.82,1.115,1.115,0,0,0,1.1-.109A14.727,14.727,0,0,1,59.877,7.44c6.354,0,11.52,3.414,11.52,7.579,0,3.025-2.714,5.765-6.934,6.975a1.139,1.139,0,0,0-.821.889l-.721,3.486-3.274-3.414a1.109,1.109,0,0,0-.785-.357c-5.2-.32-9.56-3.024-10.366-6.439a1.324,1.324,0,0,0-.718-.856,1.659,1.659,0,0,0-.419-.07,1.115,1.115,0,0,0-.668.211,13.368,13.368,0,0,1-4.919,2.031,1.161,1.161,0,0,0-.734.531L38.378,22.1l-2.664-4.093a1.184,1.184,0,0,0-.75-.531,12.8,12.8,0,0,1-4.9-2.031,1.2,1.2,0,0,0-1.82.715c-.789,3.415-5.167,6.118-10.366,6.439a1.053,1.053,0,0,0-.771.357L13.812,26.37l-.718-3.486a1.144,1.144,0,0,0-.824-.889c-4.217-1.21-6.93-3.95-6.93-6.975,0-4.165,5.161-7.579,11.519-7.579" transform="translate(0.886 0.08)" fill="#1a171b"/>
        <path id="패스_1112" data-name="패스 1112" d="M13.177,30.45a1.636,1.636,0,0,1-.4-.051,1.589,1.589,0,0,1-1.06-1.177l-.994-4.8C5.784,22.7,2.728,19.141,2.728,15.1,2.728,9.424,9.1,4.806,16.935,4.806a18.086,18.086,0,0,1,8.205,1.876C27.184,2.671,32.472,0,38.434,0S49.68,2.673,51.728,6.684a18.222,18.222,0,0,1,8.223-1.878c7.834,0,14.209,4.618,14.209,10.293,0,4.041-3.058,7.6-8,9.325l-.994,4.8a1.564,1.564,0,0,1-1.041,1.171l-.1.016a.73.73,0,0,0-.114.015A1.475,1.475,0,0,1,62.637,30l-4.443-4.653c-5.226-.451-9.7-3.02-11.536-6.6a16.173,16.173,0,0,1-3.65,1.34L39.7,25.209a1.479,1.479,0,0,1-1.259.654h-.017A1.448,1.448,0,0,1,37.2,25.2l-3.3-5.117a15.137,15.137,0,0,1-3.651-1.334C28.39,22.33,23.919,24.9,18.709,25.347l-4.45,4.641a1.468,1.468,0,0,1-1.082.462M16.935,5.466C9.458,5.466,3.377,9.788,3.377,15.1c0,3.795,2.96,7.152,7.724,8.761l.176.059,1.072,5.165a.917.917,0,0,0,.609.682.854.854,0,0,0,.834-.235l4.624-4.822.121-.009c5.183-.414,9.607-2.981,11.273-6.54l.148-.315.3.169a14.347,14.347,0,0,0,3.9,1.46l.13.029,3.449,5.347a.807.807,0,0,0,.693.355h.01a.833.833,0,0,0,.716-.356L42.61,19.5l.13-.029a15.556,15.556,0,0,0,3.912-1.464l.3-.158.144.31c1.649,3.559,6.074,6.125,11.271,6.539l.121.009,4.6,4.819a.837.837,0,0,0,.724.243c.052-.008.1-.016.153-.02a.907.907,0,0,0,.57-.665l1.072-5.168.175-.059c4.767-1.609,7.728-4.964,7.728-8.761,0-5.311-6.083-9.634-13.56-9.634a17.454,17.454,0,0,0-8.217,1.957l-.3.16-.144-.311C49.463,3.316,44.3.659,38.434.659S27.4,3.316,25.579,7.271l-.144.313-.3-.162a17.319,17.319,0,0,0-8.2-1.955M63.188,27.123l-3.7-3.858a.789.789,0,0,0-.553-.257c-5.36-.33-9.844-3.145-10.682-6.692a.994.994,0,0,0-.541-.637,1.912,1.912,0,0,0-.28-.036.777.777,0,0,0-.476.148,13.591,13.591,0,0,1-5.043,2.086.834.834,0,0,0-.527.384l-2.935,4.515-2.935-4.508a.865.865,0,0,0-.551-.392A13.1,13.1,0,0,1,29.948,15.8a.88.88,0,0,0-1.316.522c-.82,3.544-5.3,6.36-10.661,6.69a.738.738,0,0,0-.553.251l-3.725,3.863-.841-4.093a.817.817,0,0,0-.584-.636C7.9,21.141,5.089,18.278,5.089,15.1c0-4.362,5.315-7.909,11.846-7.909a14.993,14.993,0,0,1,8.5,2.441.857.857,0,0,0,.784.074A.933.933,0,0,0,26.76,9.1c.884-3.819,5.9-6.712,11.673-6.712S49.239,5.28,50.13,9.115a.845.845,0,0,0,.524.591.8.8,0,0,0,.8-.08A15.019,15.019,0,0,1,59.951,7.19C66.484,7.19,71.8,10.737,71.8,15.1c0,3.18-2.814,6.042-7.17,7.29a.817.817,0,0,0-.592.64ZM16.935,7.85c-6.175,0-11.2,3.253-11.2,7.25,0,2.877,2.629,5.489,6.7,6.658a1.47,1.47,0,0,1,1.052,1.137l.594,2.885L16.947,22.8a1.361,1.361,0,0,1,1-.456c5.06-.313,9.294-2.914,10.05-6.185a1.527,1.527,0,0,1,2.307-.918A12.489,12.489,0,0,0,35.1,17.231a1.5,1.5,0,0,1,.964.683l2.389,3.667,2.389-3.676a1.491,1.491,0,0,1,.935-.671,12.979,12.979,0,0,0,4.806-1.979,1.473,1.473,0,0,1,2.3.907c.775,3.273,5.008,5.876,10.071,6.187h0a1.424,1.424,0,0,1,.994.456L62.8,25.777l.6-2.884a1.468,1.468,0,0,1,1.06-1.139c4.06-1.166,6.689-3.778,6.689-6.655,0-4-5.023-7.25-11.2-7.25a14.374,14.374,0,0,0-8.135,2.326,1.433,1.433,0,0,1-1.422.134,1.483,1.483,0,0,1-.9-1.047c-.824-3.542-5.58-6.217-11.065-6.217S28.208,5.721,27.388,9.267a1.6,1.6,0,0,1-.932,1.051,1.491,1.491,0,0,1-1.387-.141A14.354,14.354,0,0,0,16.935,7.85" transform="translate(0.812)"/>
        <path id="패스_1113" data-name="패스 1113" d="M11.195,13.568H12.98v1.779a1.173,1.173,0,1,0,2.346,0V13.568h1.767a1.211,1.211,0,0,0,1.19-1.209,1.187,1.187,0,0,0-1.19-1.21H15.326V9.369a1.173,1.173,0,1,0-2.346,0v1.779H11.195a1.187,1.187,0,0,0-1.176,1.21,1.211,1.211,0,0,0,1.176,1.209" transform="translate(2.981 2.6)" fill="#e52f42"/>
        <path id="패스_1114" data-name="패스 1114" d="M14.227,16.965a1.521,1.521,0,0,1-1.5-1.539V13.977H11.269a1.541,1.541,0,0,1-1.5-1.54,1.521,1.521,0,0,1,1.5-1.539H12.73V9.449a1.5,1.5,0,1,1,2.995,0V10.9h1.443a1.511,1.511,0,0,1,1.515,1.539,1.531,1.531,0,0,1-1.515,1.54H15.724v1.449a1.521,1.521,0,0,1-1.5,1.539m-2.958-5.408a.856.856,0,0,0-.851.879.889.889,0,0,0,.851.881h2.11v2.108a.849.849,0,1,0,1.7,0V13.318h2.092a.886.886,0,0,0,.867-.881.864.864,0,0,0-.867-.879H15.076V9.449a.849.849,0,1,0-1.7,0v2.108Z" transform="translate(2.906 2.52)" fill="#e52f42"/>
        <path id="패스_1115" data-name="패스 1115" d="M45.29,13.568h1.771v1.779a1.2,1.2,0,0,0,1.191,1.209,1.186,1.186,0,0,0,1.172-1.209V13.568h1.768a1.223,1.223,0,0,0,1.19-1.209,1.2,1.2,0,0,0-1.19-1.21H49.424V9.369A1.186,1.186,0,0,0,48.252,8.16a1.2,1.2,0,0,0-1.191,1.209v1.779H45.29a1.187,1.187,0,0,0-1.173,1.21,1.211,1.211,0,0,0,1.173,1.209" transform="translate(13.124 2.6)" fill="#e52f42"/>
        <path id="패스_1116" data-name="패스 1116" d="M48.325,16.965a1.529,1.529,0,0,1-1.514-1.539V13.977H45.364a1.539,1.539,0,0,1-1.5-1.54,1.519,1.519,0,0,1,1.5-1.539h1.447V9.449a1.507,1.507,0,1,1,3.013,0V10.9h1.443a1.528,1.528,0,0,1,1.514,1.539,1.548,1.548,0,0,1-1.514,1.54H49.824v1.449a1.521,1.521,0,0,1-1.5,1.539m-2.961-5.408a.855.855,0,0,0-.849.879.888.888,0,0,0,.849.881h2.1v2.108a.873.873,0,0,0,.865.879.856.856,0,0,0,.85-.879V13.318h2.092a.9.9,0,0,0,.865-.881.873.873,0,0,0-.865-.879H49.175V9.449a.856.856,0,0,0-.85-.881.874.874,0,0,0-.865.881v2.108Z" transform="translate(13.05 2.52)" fill="#e52f42"/>
        <path id="패스_1117" data-name="패스 1117" d="M28.248,10.591h1.771v1.816a1.182,1.182,0,1,0,2.363,0V10.591H34.15a1.193,1.193,0,0,0,0-2.385H32.382V6.391a1.181,1.181,0,0,0-2.363,0V8.205H28.248a1.193,1.193,0,0,0,0,2.385" transform="translate(8.054 1.662)" fill="#e52f42"/>
        <path id="패스_1118" data-name="패스 1118" d="M31.283,14.025a1.51,1.51,0,0,1-1.514-1.539V11H28.322a1.5,1.5,0,0,1-1.5-1.5,1.521,1.521,0,0,1,1.5-1.543h1.447V6.47a1.506,1.506,0,0,1,3.011,0V7.954h1.444a1.524,1.524,0,0,1,0,3.047H32.78v1.485a1.521,1.521,0,0,1-1.5,1.539M28.322,8.614a.868.868,0,0,0-.849.883.858.858,0,0,0,.849.845h2.1v2.144a.857.857,0,1,0,1.714,0V10.342h2.093a.864.864,0,1,0,0-1.729H32.132V6.47a.857.857,0,0,0-1.714,0V8.614Z" transform="translate(7.98 1.582)" fill="#e52f42"/>
      </g>
    </g>
  </g>
</svg>
