<svg xmlns="http://www.w3.org/2000/svg" xmlns:xlink="http://www.w3.org/1999/xlink" width="90" height="90" viewBox="0 0 90 90">
  <defs>
    <clipPath id="clip-path">
      <rect id="사각형_795" data-name="사각형 795" width="72.626" height="71.868" fill="none"/>
    </clipPath>
  </defs>
  <g id="그룹_1421" data-name="그룹 1421" transform="translate(-1548 -4524)">
    <rect id="사각형_794" data-name="사각형 794" width="90" height="90" transform="translate(1548 4524)" fill="none"/>
    <g id="그룹_1395" data-name="그룹 1395" transform="translate(1556 4533)">
      <g id="그룹_1394" data-name="그룹 1394" transform="translate(0 0)" clip-path="url(#clip-path)">
        <path id="패스_1119" data-name="패스 1119" d="M32.1,35.406c-2.449,0-12.915-10.031-17.5-16.772a15.089,15.089,0,0,1-2.714-7.807C11.887,4.655,16.769,0,23.244,0A11.356,11.356,0,0,1,32.1,4.269,11.358,11.358,0,0,1,40.953,0c6.473,0,11.355,4.655,11.355,10.827a20.849,20.849,0,0,1-2.982,7.783c-4.171,6.383-14.469,16.8-17.228,16.8m-8.855-32.1c-4.595,0-8.061,3.233-8.061,7.519a11.983,11.983,0,0,0,2.142,5.945c4.385,6.448,12.555,13.816,14.8,15.2C34.3,30.653,42.28,23.36,46.571,16.8a19.947,19.947,0,0,0,2.442-6C49,6.524,45.537,3.307,40.953,3.307A8.073,8.073,0,0,0,33.6,8.089l-1.5,3.359-1.5-3.359a8.072,8.072,0,0,0-7.351-4.782" transform="translate(3.917 0)" fill="#e52f42"/>
        <path id="패스_1120" data-name="패스 1120" d="M46.356,60.552A1.65,1.65,0,0,1,44.709,58.9v-4.46c0-1.428,1.336-3.56,4.87-8.847,1.493-2.232,3.037-4.54,4.038-6.311a7.8,7.8,0,0,0,.981-3.828V12.007a4.355,4.355,0,0,0-1.449-3.326,2.8,2.8,0,0,0-2.34-.662C49.236,8.3,48,10.129,48,12.179V24.608a1.647,1.647,0,1,1-3.295,0V12.179c0-3.725,2.321-6.844,5.52-7.417a6.078,6.078,0,0,1,5.035,1.382,7.7,7.7,0,0,1,2.63,5.862V35.454a11.079,11.079,0,0,1-1.411,5.458c-1.062,1.878-2.639,4.24-4.167,6.524-1.746,2.611-4.137,6.188-4.32,7.108L48,58.9a1.65,1.65,0,0,1-1.647,1.653" transform="translate(14.732 1.56)"/>
        <path id="패스_1121" data-name="패스 1121" d="M33.713,55.953A1.65,1.65,0,0,1,32.066,54.3V43.205a11.332,11.332,0,0,1,2.01-6.523L43.259,21.7a6.339,6.339,0,0,1,4.611-3.222,6.047,6.047,0,0,1,5.079,1.752,7.94,7.94,0,0,1,1.058,9.332l-5.49,8.448a1.65,1.65,0,1,1-2.76-1.809l5.436-8.361a4.575,4.575,0,0,0-.557-5.253,2.7,2.7,0,0,0-2.313-.833,3.108,3.108,0,0,0-2.228,1.63L36.831,38.5a8.243,8.243,0,0,0-1.47,4.708V54.3a1.65,1.65,0,0,1-1.647,1.653" transform="translate(10.566 6.158)"/>
        <path id="패스_1122" data-name="패스 1122" d="M51.32,57.14H34.883a4.319,4.319,0,0,1-4.306-4.321V48.4a4.32,4.32,0,0,1,4.306-4.323H51.32A4.321,4.321,0,0,1,55.628,48.4v4.42A4.32,4.32,0,0,1,51.32,57.14M34.883,47.383A1.016,1.016,0,0,0,33.872,48.4v4.42a1.016,1.016,0,0,0,1.012,1.015H51.32a1.016,1.016,0,0,0,1.012-1.015V48.4a1.016,1.016,0,0,0-1.012-1.015Z" transform="translate(10.076 14.728)"/>
        <path id="패스_1123" data-name="패스 1123" d="M11.536,60.552A1.65,1.65,0,0,1,9.889,58.9v-4.46c-.175-.815-2.567-4.392-4.313-7-1.528-2.284-3.1-4.646-4.167-6.524A11.1,11.1,0,0,1,0,35.454V12.007A7.7,7.7,0,0,1,2.63,6.145,6.081,6.081,0,0,1,7.665,4.763c3.2.572,5.519,3.692,5.519,7.417V24.608a1.647,1.647,0,1,1-3.295,0V12.179c0-2.085-1.206-3.874-2.8-4.16a2.788,2.788,0,0,0-2.34.662A4.355,4.355,0,0,0,3.3,12.007V35.454a7.8,7.8,0,0,0,.98,3.828c1,1.77,2.545,4.078,4.038,6.311,3.534,5.287,4.87,7.419,4.87,8.847V58.9a1.65,1.65,0,0,1-1.647,1.653" transform="translate(0 1.56)"/>
        <path id="패스_1124" data-name="패스 1124" d="M26.606,55.953A1.65,1.65,0,0,1,24.958,54.3V43.205A8.131,8.131,0,0,0,23.54,38.58L14.253,23.437a3.153,3.153,0,0,0-2.259-1.678,2.708,2.708,0,0,0-2.313.833,4.6,4.6,0,0,0-.5,5.338l5.385,8.276a1.65,1.65,0,1,1-2.76,1.809L6.364,29.652a7.969,7.969,0,0,1,1.005-9.418,6.049,6.049,0,0,1,5.08-1.752,6.379,6.379,0,0,1,4.64,3.27l9.206,15.012a11.233,11.233,0,0,1,1.958,6.441V54.3a1.65,1.65,0,0,1-1.647,1.653" transform="translate(1.741 6.158)"/>
        <path id="패스_1125" data-name="패스 1125" d="M25.949,57.14H9.512a4.319,4.319,0,0,1-4.306-4.321V48.4a4.32,4.32,0,0,1,4.306-4.323H25.949A4.321,4.321,0,0,1,30.257,48.4v4.42a4.32,4.32,0,0,1-4.308,4.321M9.512,47.383A1.016,1.016,0,0,0,8.5,48.4v4.42a1.016,1.016,0,0,0,1.012,1.015H25.949a1.016,1.016,0,0,0,1.012-1.015V48.4a1.016,1.016,0,0,0-1.012-1.015Z" transform="translate(1.715 14.728)"/>
      </g>
    </g>
  </g>
</svg>
