<svg xmlns="http://www.w3.org/2000/svg" xmlns:xlink="http://www.w3.org/1999/xlink" width="90" height="90" viewBox="0 0 90 90">
  <defs>
    <clipPath id="clip-path">
      <rect id="사각형_812" data-name="사각형 812" width="85.475" height="46.213" fill="none"/>
    </clipPath>
  </defs>
  <g id="그룹_1436" data-name="그룹 1436" transform="translate(-2705 3748)">
    <rect id="사각형_811" data-name="사각형 811" width="90" height="90" transform="translate(2705 -3748)" fill="none"/>
    <g id="그룹_1435" data-name="그룹 1435" transform="translate(2707.508 -3726.681)">
      <g id="그룹_1434" data-name="그룹 1434" transform="translate(0 0)" clip-path="url(#clip-path)">
        <path id="패스_1182" data-name="패스 1182" d="M83.832,46.213H73.24a1.644,1.644,0,1,1,0-3.288h8.948V3.288H3.288V42.924h56.77a1.644,1.644,0,1,1,0,3.288H1.644A1.644,1.644,0,0,1,0,44.569V1.644A1.644,1.644,0,0,1,1.644,0H83.832a1.643,1.643,0,0,1,1.643,1.644V44.569a1.643,1.643,0,0,1-1.643,1.644" transform="translate(0 0)"/>
        <path id="패스_1183" data-name="패스 1183" d="M36.061,30.4a9.834,9.834,0,0,1-9.684-9.956,9.687,9.687,0,1,1,19.367,0A9.834,9.834,0,0,1,36.061,30.4m0-16.624a6.543,6.543,0,0,0-6.4,6.668,6.4,6.4,0,1,0,12.792,0,6.544,6.544,0,0,0-6.4-6.668" transform="translate(6.701 2.664)"/>
        <path id="패스_1184" data-name="패스 1184" d="M72.434,37.9H10.653A1.643,1.643,0,0,1,9.01,36.259a2.668,2.668,0,0,0-2.666-2.665A1.644,1.644,0,0,1,4.7,31.95V11.432A1.644,1.644,0,0,1,6.344,9.788,2.669,2.669,0,0,0,9.01,7.122a1.642,1.642,0,0,1,1.643-1.643H72.434a1.643,1.643,0,0,1,1.644,1.643,2.668,2.668,0,0,0,2.665,2.666,1.644,1.644,0,0,1,1.644,1.644V31.95a1.644,1.644,0,0,1-1.644,1.644,2.668,2.668,0,0,0-2.665,2.665A1.644,1.644,0,0,1,72.434,37.9M12.066,34.615H71.022A5.978,5.978,0,0,1,75.1,30.537V12.845a5.978,5.978,0,0,1-4.077-4.079H12.066a5.979,5.979,0,0,1-4.078,4.079V30.537a5.98,5.98,0,0,1,4.078,4.078" transform="translate(1.194 1.392)" fill="#e52f42"/>
        <path id="패스_1185" data-name="패스 1185" d="M14.342,21.2H13.006a1.644,1.644,0,0,1-1.644-1.644V18.226a1.644,1.644,0,0,1,1.644-1.644h1.336a1.644,1.644,0,0,1,1.644,1.644V19.56A1.644,1.644,0,0,1,14.342,21.2" transform="translate(2.886 4.213)"/>
        <path id="패스_1186" data-name="패스 1186" d="M21.621,21.2H20.285a1.644,1.644,0,0,1-1.644-1.644V18.226a1.644,1.644,0,0,1,1.644-1.644h1.336a1.644,1.644,0,0,1,1.644,1.644V19.56A1.644,1.644,0,0,1,21.621,21.2" transform="translate(4.736 4.213)"/>
        <path id="패스_1187" data-name="패스 1187" d="M49.221,21.187H47.885a1.644,1.644,0,0,1-1.644-1.644V18.207a1.644,1.644,0,0,1,1.644-1.644h1.336a1.644,1.644,0,0,1,1.644,1.644v1.336a1.644,1.644,0,0,1-1.644,1.644" transform="translate(11.747 4.208)"/>
        <path id="패스_1188" data-name="패스 1188" d="M56.5,21.187H55.164a1.644,1.644,0,0,1-1.644-1.644V18.207a1.644,1.644,0,0,1,1.644-1.644H56.5a1.644,1.644,0,0,1,1.644,1.644v1.336A1.644,1.644,0,0,1,56.5,21.187" transform="translate(13.596 4.208)"/>
      </g>
    </g>
  </g>
</svg>
