<svg xmlns="http://www.w3.org/2000/svg" xmlns:xlink="http://www.w3.org/1999/xlink" width="90" height="90" viewBox="0 0 90 90">
  <defs>
    <clipPath id="clip-path">
      <rect id="사각형_770" data-name="사각형 770" width="86.429" height="84.608" fill="none"/>
    </clipPath>
  </defs>
  <g id="그룹_1427" data-name="그룹 1427" transform="translate(-597 -4321)">
    <rect id="사각형_769" data-name="사각형 769" width="90" height="90" transform="translate(597 4321)" fill="none"/>
    <g id="그룹_1371" data-name="그룹 1371" transform="translate(599 4323)">
      <g id="그룹_1370" data-name="그룹 1370" transform="translate(0 0)" clip-path="url(#clip-path)">
        <path id="패스_1025" data-name="패스 1025" d="M40.567,66.921A27.72,27.72,0,1,1,68.131,39.2,27.672,27.672,0,0,1,40.567,66.921m0-52.1A24.378,24.378,0,1,0,64.806,39.2,24.336,24.336,0,0,0,40.567,14.824" transform="translate(3.421 3.102)"/>
        <path id="패스_1026" data-name="패스 1026" d="M39.5,60.642A22.542,22.542,0,1,1,43.421,15.9a1.671,1.671,0,0,1-.577,3.291,19.174,19.174,0,1,0,11.993,7.475,1.679,1.679,0,0,1,.344-2.339,1.657,1.657,0,0,1,2.325.347A22.57,22.57,0,0,1,39.5,60.642" transform="translate(4.493 4.204)" fill="#e52f42"/>
        <path id="패스_1027" data-name="패스 1027" d="M42.032,43.687a1.662,1.662,0,0,1-1.561-1.1l-3.281-9.052L33.91,42.588a1.665,1.665,0,0,1-1.562,1.1H32.34a1.661,1.661,0,0,1-1.56-1.114L25.942,28.791a1.663,1.663,0,1,1,3.134-1.114l3.3,9.388,3.255-8.984a1.659,1.659,0,0,1,3.124,0l3.255,8.984,3.3-9.388a1.663,1.663,0,1,1,3.135,1.114L43.6,42.573a1.66,1.66,0,0,1-1.559,1.114Z" transform="translate(6.799 7.178)"/>
        <path id="패스_1028" data-name="패스 1028" d="M49.618,33.611H25.707a1.672,1.672,0,0,1,0-3.343H49.618a1.672,1.672,0,0,1,0,3.343" transform="translate(6.325 8.179)"/>
        <path id="패스_1029" data-name="패스 1029" d="M4.865,30.947a1.629,1.629,0,0,1-.533-.089A1.674,1.674,0,0,1,3.29,28.739a41.964,41.964,0,0,1,69.6-16.348,1.678,1.678,0,0,1,0,2.364,1.655,1.655,0,0,1-2.351,0,38.649,38.649,0,0,0-64.1,15.056,1.662,1.662,0,0,1-1.574,1.136" transform="translate(0.842 -0.001)"/>
        <path id="패스_1030" data-name="패스 1030" d="M41.123,73.192A41.668,41.668,0,0,1,11.379,60.8a1.678,1.678,0,0,1,0-2.364,1.655,1.655,0,0,1,2.351,0A38.374,38.374,0,0,0,41.123,69.849,38.739,38.739,0,0,0,77.83,43.381a1.663,1.663,0,1,1,3.149,1.071,42.063,42.063,0,0,1-39.855,28.74" transform="translate(2.865 11.415)"/>
        <path id="패스_1031" data-name="패스 1031" d="M70.049,55.8a1.666,1.666,0,0,1-1.614-1.277l-2.05-8.476-8.273,2.626a1.671,1.671,0,0,1-1-3.188l9.968-3.164a1.661,1.661,0,0,1,2.114,1.2l2.472,10.214A1.665,1.665,0,0,1,70.049,55.8" transform="translate(14.717 11.416)"/>
        <path id="패스_1032" data-name="패스 1032" d="M5.762,27.132a1.656,1.656,0,0,1-1.528-1.016l-4.1-9.669a1.675,1.675,0,0,1,.878-2.194,1.657,1.657,0,0,1,2.18.883l3.4,8.024,7.735-3.952a1.657,1.657,0,0,1,2.234.734,1.676,1.676,0,0,1-.729,2.247L6.515,26.95a1.653,1.653,0,0,1-.753.182" transform="translate(0 3.815)"/>
      </g>
    </g>
  </g>
</svg>
