<svg xmlns="http://www.w3.org/2000/svg" xmlns:xlink="http://www.w3.org/1999/xlink" width="90" height="90" viewBox="0 0 90 90">
  <defs>
    <clipPath id="clip-path">
      <rect id="사각형_778" data-name="사각형 778" width="82.983" height="78.307" fill="none"/>
    </clipPath>
  </defs>
  <g id="그룹_1413" data-name="그룹 1413" transform="translate(-1210 -4299)">
    <rect id="사각형_777" data-name="사각형 777" width="90" height="90" transform="translate(1210 4299)" fill="none"/>
    <g id="그룹_1379" data-name="그룹 1379" transform="translate(1214 4305)">
      <g id="그룹_1378" data-name="그룹 1378" transform="translate(0 0)" clip-path="url(#clip-path)">
        <path id="패스_1055" data-name="패스 1055" d="M79.714,60.511H3.269A3.3,3.3,0,0,1,0,57.187V3.324A3.3,3.3,0,0,1,3.269,0H56.676a1.69,1.69,0,0,1,1.675,1.7,1.69,1.69,0,0,1-1.675,1.7H3.353V57.1H79.63V3.41H73.663a1.691,1.691,0,0,1-1.677-1.7A1.691,1.691,0,0,1,73.663,0h6.05a3.3,3.3,0,0,1,3.269,3.324V57.187a3.3,3.3,0,0,1-3.269,3.324" transform="translate(0 0)"/>
        <path id="패스_1056" data-name="패스 1056" d="M70.807,62.766H7.908a3.3,3.3,0,0,1-3.269-3.324V55.393a3.3,3.3,0,0,1,3.269-3.324h62.9a3.3,3.3,0,0,1,3.269,3.324v4.049a3.3,3.3,0,0,1-3.269,3.324M7.991,59.356H70.722V55.477H7.991Z" transform="translate(1.285 15.541)"/>
        <path id="패스_1057" data-name="패스 1057" d="M32.19,57.327a1.691,1.691,0,0,1-1.677-1.7V45.68a1.677,1.677,0,1,1,3.353,0v9.942a1.691,1.691,0,0,1-1.677,1.7" transform="translate(8.452 13.126)"/>
        <path id="패스_1058" data-name="패스 1058" d="M80.648,39.169H1.974a1.705,1.705,0,0,1,0-3.41H80.648a1.705,1.705,0,0,1,0,3.41" transform="translate(0.082 10.673)"/>
        <path id="패스_1059" data-name="패스 1059" d="M34.068,32.219a12.247,12.247,0,0,1-10.083-5.341,12.575,12.575,0,0,1-2.023-9.337,12.435,12.435,0,0,1,5.062-8.058,12.075,12.075,0,0,1,7.025-2.252,12.247,12.247,0,0,1,10.083,5.342,12.641,12.641,0,0,1-3.039,17.4,12.076,12.076,0,0,1-7.025,2.25m-.019-21.578a8.775,8.775,0,0,0-5.105,1.637,9.04,9.04,0,0,0-3.68,5.859,9.14,9.14,0,0,0,1.471,6.788,8.9,8.9,0,0,0,7.334,3.885,8.775,8.775,0,0,0,5.105-1.637,9.191,9.191,0,0,0,2.209-12.648,8.906,8.906,0,0,0-7.334-3.884" transform="translate(6.03 2.158)" fill="#e52f42"/>
        <path id="패스_1060" data-name="패스 1060" d="M43.585,36.034a1.669,1.669,0,0,1-1.377-.728l-6.086-8.863a1.722,1.722,0,0,1,.415-2.374,1.658,1.658,0,0,1,2.334.422l6.086,8.863a1.723,1.723,0,0,1-.415,2.374,1.654,1.654,0,0,1-.958.306" transform="translate(9.922 7.092)" fill="#e52f42"/>
        <path id="패스_1061" data-name="패스 1061" d="M32.149,23.826a1.664,1.664,0,0,1-1.3-.628l-3.37-4.211a1.723,1.723,0,0,1,.241-2.4,1.657,1.657,0,0,1,2.359.245l1.82,2.274,3.025-5.438a1.662,1.662,0,0,1,2.285-.644,1.72,1.72,0,0,1,.633,2.323l-4.233,7.612a1.675,1.675,0,0,1-1.318.858c-.047,0-.094.006-.142.006" transform="translate(7.507 3.822)" fill="#e52f42"/>
      </g>
    </g>
  </g>
</svg>
