<svg xmlns="http://www.w3.org/2000/svg" xmlns:xlink="http://www.w3.org/1999/xlink" width="90" height="90" viewBox="0 0 90 90">
  <defs>
    <clipPath id="clip-path">
      <rect id="사각형_785" data-name="사각형 785" width="78.395" height="72.317" fill="none"/>
    </clipPath>
  </defs>
  <g id="그룹_1416" data-name="그룹 1416" transform="translate(-767 -4525)">
    <rect id="사각형_783" data-name="사각형 783" width="90" height="90" transform="translate(767 4525)" fill="none"/>
    <g id="그룹_1385" data-name="그룹 1385" transform="translate(773 4534)">
      <g id="그룹_1384" data-name="그룹 1384" transform="translate(0 0)" clip-path="url(#clip-path)">
        <path id="패스_1075" data-name="패스 1075" d="M32.364,66.39C14.519,66.39,0,51.5,0,33.194S14.519,0,32.364,0,64.728,14.89,64.728,33.194s-14.519,33.2-32.364,33.2m0-62.575C16.569,3.814,3.72,16.994,3.72,33.194S16.569,62.575,32.364,62.575,61.008,49.394,61.008,33.194,48.159,3.814,32.364,3.814" transform="translate(0 -0.001)"/>
        <path id="패스_1076" data-name="패스 1076" d="M29.625,13.3c7.627,0,12.02,5.823,12.02,13.057,0,7.1-4.393,12.92-12.02,12.92h-4.79v5.187c0,2.365-1.642,3.639-3.859,3.639s-3.859-1.274-3.859-3.639V18.533c0-3.458,1.773-5.232,5.055-5.232Zm-.532,18.971c3.458,0,4.833-2.866,4.833-5.914,0-3.139-1.375-6.05-4.833-6.05H24.835V32.272Z" transform="translate(5.102 4.407)" fill="#e52f42"/>
        <path id="패스_1077" data-name="패스 1077" d="M21.26,49.7a4.744,4.744,0,0,1-5.1-4.915V18.851c0-4.135,2.3-6.508,6.3-6.508h7.451c7.809,0,13.263,5.894,13.263,14.332,0,8.357-5.454,14.2-13.263,14.2H26.363v3.91a4.745,4.745,0,0,1-5.1,4.915m1.2-34.8c-2.638,0-3.814,1.221-3.814,3.957v25.93c0,2.058,1.639,2.365,2.616,2.365s2.616-.306,2.616-2.365V38.32h6.033c7.444,0,10.776-5.849,10.776-11.644,0-5.865-3.332-11.781-10.776-11.781Zm6.919,18.971h-5.5V19.35h5.5c3.692,0,6.077,2.874,6.077,7.325,0,4.367-2.386,7.189-6.077,7.189m-3.014-2.551h3.014c3.241,0,3.592-3.245,3.592-4.639,0-1.437-.35-4.776-3.592-4.776H26.363Z" transform="translate(4.816 4.09)" fill="#fff"/>
        <rect id="사각형_784" data-name="사각형 784" width="27.259" height="25.296" transform="translate(49.887 44.511)" fill="#fff"/>
        <path id="패스_1078" data-name="패스 1078" d="M66.49,59.56H37.933V32.932H66.49ZM39.231,58.228H65.192V34.263H39.231Z" transform="translate(11.305 10.913)" fill="#e52f42"/>
        <path id="패스_1079" data-name="패스 1079" d="M52.088,39.766a56.77,56.77,0,0,1-9.96-.778c-2.67-.5-5.4-1.313-5.4-3.534s2.73-3.033,5.4-3.534a56.77,56.77,0,0,1,9.96-.778,56.776,56.776,0,0,1,9.961.778c2.67.5,5.4,1.311,5.4,3.534s-2.73,3.033-5.4,3.534a56.776,56.776,0,0,1-9.961.778M42.3,35.455a50.717,50.717,0,0,0,9.786.808,50.733,50.733,0,0,0,9.787-.808,50.722,50.722,0,0,0-9.787-.808,50.717,50.717,0,0,0-9.786.808" transform="translate(10.946 10.32)" fill="#e52f42"/>
        <path id="패스_1080" data-name="패스 1080" d="M52.088,47.555a56.784,56.784,0,0,1-9.961-.779c-2.67-.5-5.4-1.311-5.4-3.534a1.731,1.731,0,0,1,1.708-1.752,1.708,1.708,0,0,1,1.571,1.062c1.042.575,5.24,1.5,12.082,1.5s11.04-.923,12.082-1.5a1.708,1.708,0,0,1,1.571-1.062,1.731,1.731,0,0,1,1.708,1.752c0,2.222-2.73,3.033-5.4,3.534a56.774,56.774,0,0,1-9.961.779" transform="translate(10.946 13.749)" fill="#e52f42"/>
        <path id="패스_1081" data-name="패스 1081" d="M52.088,51.691a56.775,56.775,0,0,1-9.961-.779c-2.67-.5-5.4-1.311-5.4-3.534a1.731,1.731,0,0,1,1.708-1.752,1.708,1.708,0,0,1,1.571,1.062c1.042.575,5.24,1.5,12.082,1.5s11.04-.923,12.082-1.5a1.708,1.708,0,0,1,1.571-1.062,1.731,1.731,0,0,1,1.708,1.752c0,2.222-2.73,3.033-5.4,3.534a56.764,56.764,0,0,1-9.961.779" transform="translate(10.946 15.12)" fill="#e52f42"/>
        <path id="패스_1082" data-name="패스 1082" d="M52.088,55.826a56.915,56.915,0,0,1-9.961-.778c-2.67-.5-5.4-1.313-5.4-3.534a1.731,1.731,0,0,1,1.708-1.752,1.707,1.707,0,0,1,1.571,1.061c1.042.575,5.24,1.5,12.082,1.5s11.04-.923,12.082-1.5a1.707,1.707,0,0,1,1.571-1.061,1.731,1.731,0,0,1,1.708,1.752c0,2.221-2.73,3.033-5.4,3.534a56.9,56.9,0,0,1-9.961.778" transform="translate(10.946 16.49)" fill="#e52f42"/>
        <path id="패스_1083" data-name="패스 1083" d="M52.088,43.206a56.785,56.785,0,0,1-9.961-.779c-2.67-.5-5.4-1.311-5.4-3.534a1.731,1.731,0,0,1,1.708-1.752A1.708,1.708,0,0,1,40.006,38.2c1.042.575,5.24,1.5,12.082,1.5s11.04-.923,12.082-1.5a1.708,1.708,0,0,1,1.571-1.062,1.731,1.731,0,0,1,1.708,1.752c0,2.221-2.73,3.033-5.4,3.534a56.785,56.785,0,0,1-9.961.779" transform="translate(10.946 12.308)" fill="#e52f42"/>
        <path id="패스_1084" data-name="패스 1084" d="M38.435,58.8a1.73,1.73,0,0,1-1.708-1.752V34.819a1.709,1.709,0,1,1,3.416,0V57.048A1.73,1.73,0,0,1,38.435,58.8" transform="translate(10.946 10.957)" fill="#e52f42"/>
        <path id="패스_1085" data-name="패스 1085" d="M59.471,58.8a1.73,1.73,0,0,1-1.708-1.752V34.819a1.709,1.709,0,1,1,3.416,0V57.048A1.73,1.73,0,0,1,59.471,58.8" transform="translate(17.216 10.957)" fill="#e52f42"/>
      </g>
    </g>
  </g>
</svg>
