<svg xmlns="http://www.w3.org/2000/svg" xmlns:xlink="http://www.w3.org/1999/xlink" width="90" height="90" viewBox="0 0 90 90">
  <defs>
    <clipPath id="clip-path">
      <rect id="사각형_772" data-name="사각형 772" width="72.738" height="86.436" fill="none"/>
    </clipPath>
  </defs>
  <g id="그룹_1410" data-name="그룹 1410" transform="translate(-724 -4318)">
    <rect id="사각형_771" data-name="사각형 771" width="90" height="90" transform="translate(724 4318)" fill="none"/>
    <g id="그룹_1373" data-name="그룹 1373" transform="translate(732 4320)">
      <g id="그룹_1372" data-name="그룹 1372" transform="translate(0 0)" clip-path="url(#clip-path)">
        <path id="패스_1033" data-name="패스 1033" d="M38.57,59.73A31.172,31.172,0,0,1,29.5,58.4a1.648,1.648,0,0,1-1.133-2.089,1.769,1.769,0,0,1,2.2-1.077,27.519,27.519,0,0,0,8.006,1.167c13.134,0,23.423-8.73,23.423-19.875,0-15.03-9.406-18.708-13.449-19.591-1.642-.359-1.634-1.523-1.593-1.872a1.732,1.732,0,0,1,.484-.973c1.062-3,2.179-5.991,3.277-8.773a37.717,37.717,0,0,0-24.283,0c1.094,2.77,2.213,5.763,3.277,8.773a1.738,1.738,0,0,1,.485.973c.041.349.049,1.513-1.593,1.872-4.045.883-13.451,4.561-13.451,19.591a17.717,17.717,0,0,0,2.987,9.781,1.616,1.616,0,0,1-.551,2.291,1.8,1.8,0,0,1-2.411-.524A20.91,20.91,0,0,1,11.649,36.53c0-8.047,2.436-14.242,7.241-18.414a19.639,19.639,0,0,1,7.149-3.951c-1.144-3.194-2.339-6.34-3.487-9.185a1.634,1.634,0,0,1,.939-2.122,41.18,41.18,0,0,1,30.157,0,1.634,1.634,0,0,1,.939,2.122c-1.153,2.859-2.347,6.006-3.486,9.185a19.662,19.662,0,0,1,7.148,3.951c4.805,4.172,7.241,10.367,7.241,18.414a21.59,21.59,0,0,1-7.875,16.462A29.1,29.1,0,0,1,38.57,59.73" transform="translate(3.831 -0.001)"/>
        <path id="패스_1034" data-name="패스 1034" d="M35.011,15.007a52.784,52.784,0,0,1-11.525-1.156,1.658,1.658,0,0,1-1.258-2.025,1.759,1.759,0,0,1,2.127-1.2,55.532,55.532,0,0,0,21.579-.015A1.747,1.747,0,0,1,48.007,11.9a1.664,1.664,0,0,1-1.347,1.97,59.264,59.264,0,0,1-11.649,1.139" transform="translate(7.291 2.782)" fill="#e52f42"/>
        <path id="패스_1035" data-name="패스 1035" d="M39.294,38.381a1.746,1.746,0,0,1-1.642-1.093l-3.008-7.847-3.008,7.847a1.746,1.746,0,0,1-1.642,1.093h-.009a1.745,1.745,0,0,1-1.64-1.109l-4.65-12.513a1.641,1.641,0,0,1,1.066-2.121,1.774,1.774,0,0,1,2.231,1.013L30.017,31.8,33,24.017a1.782,1.782,0,0,1,3.286,0l2.982,7.78,3.027-8.145a1.774,1.774,0,0,1,2.231-1.013,1.642,1.642,0,0,1,1.066,2.121L40.943,37.272a1.745,1.745,0,0,1-1.64,1.109Z" transform="translate(7.758 5.929)"/>
        <path id="패스_1036" data-name="패스 1036" d="M46.668,29.251H23.7a1.664,1.664,0,1,1,0-3.324H46.668a1.664,1.664,0,1,1,0,3.324" transform="translate(7.218 6.819)"/>
        <path id="패스_1037" data-name="패스 1037" d="M19.737,74.342h0c-6.519,0-7.008-.133-7.364-.23a1.676,1.676,0,0,1-1.268-1.6V56.067c0-.644,0-1.719,12.015-16.715a3.2,3.2,0,0,1,2.8-1.771,3.051,3.051,0,0,1,2,.765l2.6,2.27A4.976,4.976,0,0,1,31.85,45.36l-2.1,8.448-.009.042,13.574.519a7.065,7.065,0,0,0,2.166-.414l16.767-6.882a3.019,3.019,0,0,1,1.151-.227,3.494,3.494,0,0,1,3.272,2.679l2.242,7.805a4.023,4.023,0,0,1-1.685,4.626L47,72.923c-.444.241-.771.431-.969.551-.625.613-1.836.613-2.87.613-.112,0-14.545.256-23.425.256M14.6,70.969c.941.027,2.513.049,5.135.049,8.846,0,23.249-.254,23.394-.256.384,0,.682-.008.889-.016.334-.213.748-.438,1.249-.71L65.448,59.1a1.176,1.176,0,0,0,.094-.892L63.3,50.4a1.041,1.041,0,0,0-.043-.119L46.872,57.006a10.6,10.6,0,0,1-3.779.682l-14.07-.539A2.8,2.8,0,0,1,26.9,56.088a3.478,3.478,0,0,1-.553-3.044l2.1-8.447a2.028,2.028,0,0,0-.286-1.533l-2.13-1.86-.02.027C20.927,47.571,15.4,54.788,14.6,56.331Z" transform="translate(3.651 9.884)" fill="#e52f42"/>
        <path id="패스_1038" data-name="패스 1038" d="M10.049,73.572H3.515A3.506,3.506,0,0,1,0,70.082V52.4a3.507,3.507,0,0,1,3.515-3.49h6.534a3.507,3.507,0,0,1,3.516,3.49v17.68a3.507,3.507,0,0,1-3.516,3.49M3.555,70.248H10.01a.241.241,0,0,0,.057-.165V52.4a.244.244,0,0,0-.057-.165H3.555A.244.244,0,0,0,3.5,52.4v17.68a.241.241,0,0,0,.057.165" transform="translate(0 12.864)"/>
      </g>
    </g>
  </g>
</svg>
