<svg xmlns="http://www.w3.org/2000/svg" xmlns:xlink="http://www.w3.org/1999/xlink" width="90" height="90" viewBox="0 0 90 90">
  <defs>
    <clipPath id="clip-path">
      <rect id="사각형_791" data-name="사각형 791" width="72.064" height="78.404" fill="none"/>
    </clipPath>
  </defs>
  <g id="그룹_1419" data-name="그룹 1419" transform="translate(-1236 -4524)">
    <rect id="사각형_790" data-name="사각형 790" width="90" height="90" transform="translate(1236 4524)" fill="none"/>
    <g id="그룹_1391" data-name="그룹 1391" transform="translate(1244 4529)">
      <g id="그룹_1390" data-name="그룹 1390" transform="translate(0 0)" clip-path="url(#clip-path)">
        <path id="패스_1104" data-name="패스 1104" d="M48.933,17.589a4.037,4.037,0,0,0-1.022-6.781A10.857,10.857,0,0,0,51.5,3.046a1.246,1.246,0,0,0-.232-.7,4.584,4.584,0,0,0-7.7,0,2.19,2.19,0,0,1-3.768,0A4.847,4.847,0,0,0,35.954.25a4.7,4.7,0,0,0-3.842,2.1,2.206,2.206,0,0,1-3.787,0A4.847,4.847,0,0,0,24.484.25a4.9,4.9,0,0,0-3.86,2.1,1.23,1.23,0,0,0-.217.7,10.772,10.772,0,0,0,3.574,7.762,4.093,4.093,0,0,0-2.423,3.741,4.02,4.02,0,0,0,1.42,3.04c-6.573,4.3-27.2,19.754-21.85,40.31C6.587,78.879,35.7,78,35.9,78h.629c4.327,0,29.242-.874,34.253-20.1C76.113,37.343,55.5,21.924,48.933,17.589m-26.1-14.16a2.174,2.174,0,0,1,3.532.315,4.626,4.626,0,0,0,7.7,0,2.364,2.364,0,0,1,1.886-1.118A2.392,2.392,0,0,1,37.84,3.744a4.806,4.806,0,0,0,3.839,2.063,4.84,4.84,0,0,0,3.86-2.063,2.125,2.125,0,0,1,3.518-.315c-.18,3.358-2.6,5.736-4.323,6.992H27.156c-1.706-1.256-4.128-3.634-4.323-6.992m2.959,9.336H46.116a1.766,1.766,0,1,1,0,3.531H25.793a1.766,1.766,0,1,1,0-3.531M68.428,57.341C63.454,76.466,36.278,75.66,35.9,75.624c-.268.035-27.448.874-32.437-18.284-5.368-20.7,18.868-36.57,22.279-38.7H46.149c3.43,2.134,27.665,18.007,22.279,38.7" transform="translate(0.083 0.074)" fill="#1a171b"/>
        <path id="패스_1105" data-name="패스 1105" d="M35.581,78.4C31.873,78.4,6,77.693.889,58.054c-5.33-20.477,14.768-35.866,21.647-40.438a4.331,4.331,0,0,1-1.228-2.993A4.4,4.4,0,0,1,23.516,10.8,10.924,10.924,0,0,1,20.158,3.12a1.557,1.557,0,0,1,.273-.879A5.239,5.239,0,0,1,24.567,0a5.174,5.174,0,0,1,4.112,2.233,2.053,2.053,0,0,0,1.61.938H30.3a2.088,2.088,0,0,0,1.632-.94A5.026,5.026,0,0,1,36.039,0a5.178,5.178,0,0,1,4.112,2.233,2.076,2.076,0,0,0,1.62.938h.007a2.044,2.044,0,0,0,1.6-.938,4.921,4.921,0,0,1,8.243,0,1.589,1.589,0,0,1,.295.888A11.039,11.039,0,0,1,48.539,10.8a4.334,4.334,0,0,1,1,6.817C56.4,22.21,76.473,37.676,71.187,58.054,66.142,77.42,41.5,78.4,36.612,78.4h-.629c-.063,0-.2,0-.4,0M24.567.649a4.57,4.57,0,0,0-3.591,1.965.909.909,0,0,0-.152.506A10.432,10.432,0,0,0,24.3,10.651l.337.326-.429.2a3.771,3.771,0,0,0-2.231,3.449,3.717,3.717,0,0,0,1.308,2.8l.32.278-.356.234C16.81,22.146-3.778,37.48,1.534,57.894,6.8,78.109,34.771,77.778,35.952,77.751h.66c4.8,0,29.006-.957,33.93-19.857,5.268-20.31-15.287-35.723-21.714-39.963l-.351-.232.313-.276a3.715,3.715,0,0,0-.941-6.249l-.425-.2.332-.324A10.565,10.565,0,0,0,51.249,3.12a.93.93,0,0,0-.176-.517,4.246,4.246,0,0,0-7.155.009A2.7,2.7,0,0,1,41.78,3.82H41.77a2.73,2.73,0,0,1-2.159-1.207A4.518,4.518,0,0,0,36.039.649a4.38,4.38,0,0,0-3.57,1.96A2.745,2.745,0,0,1,30.3,3.821h-.009a2.71,2.71,0,0,1-2.149-1.207A4.512,4.512,0,0,0,24.567.649M36.8,76.036c-.523,0-.822-.012-.85-.014-.192.027-27.672.887-32.728-18.526C-2.1,36.992,20.967,21.364,25.644,18.439l.083-.052H46.3l.115.051C49.283,20.224,74.3,36.492,68.836,57.5,64.266,75.063,41.512,76.036,36.8,76.036m-10.878-57C21.132,22.045-1.306,37.38,3.868,57.336,8.8,76.284,35.677,75.4,35.949,75.376c.339.032,27.333.828,32.24-18.04,5.3-20.378-18.864-36.3-22.055-38.3ZM46.2,16.695H25.876a2.09,2.09,0,1,1,0-4.178H46.2a2.09,2.09,0,1,1,0,4.178M25.876,13.166a1.441,1.441,0,1,0,0,2.88H46.2a1.441,1.441,0,1,0,0-2.88ZM44.928,10.82h-17.8l-.089-.066c-1.576-1.159-4.247-3.64-4.456-7.232l-.007-.138.095-.1a2.584,2.584,0,0,1,2.011-.866A2.779,2.779,0,0,1,26.72,3.629a4.292,4.292,0,0,0,7.162,0,2.676,2.676,0,0,1,2.157-1.253A2.735,2.735,0,0,1,38.2,3.63a4.483,4.483,0,0,0,3.567,1.925,4.5,4.5,0,0,0,3.591-1.926,2.752,2.752,0,0,1,2.034-1.24,2.557,2.557,0,0,1,2,.9l.091.1-.007.134C49.28,7.126,46.6,9.6,45.017,10.755Zm-17.575-.649H44.705c1.476-1.1,3.86-3.344,4.093-6.548a1.787,1.787,0,0,0-1.373-.584,2.1,2.1,0,0,0-1.53.967,5.168,5.168,0,0,1-4.133,2.2A5.144,5.144,0,0,1,37.654,4.01,1.846,1.846,0,0,0,34.426,4a5.17,5.17,0,0,1-4.133,2.2A5.159,5.159,0,0,1,26.18,4.01a2.129,2.129,0,0,0-1.538-.945,1.774,1.774,0,0,0-1.382.562c.249,3.19,2.623,5.442,4.093,6.544" transform="translate(0 0)"/>
        <path id="패스_1106" data-name="패스 1106" d="M47.464,35.187l3.985-5.348a1.185,1.185,0,0,0,0-1.4,22.3,22.3,0,0,0-5.278-5.105,1.177,1.177,0,0,0-1.416,0l-5.493,3.881c-.235-.1-.467-.208-.684-.279L37.5,20.4a1.147,1.147,0,0,0-.989-.98,22.323,22.323,0,0,0-7.467,0,1.165,1.165,0,0,0-1,.98l-1.058,6.538a6.319,6.319,0,0,0-.7.279l-5.493-3.881a1.181,1.181,0,0,0-1.418,0,22.259,22.259,0,0,0-5.276,5.105,1.158,1.158,0,0,0,.019,1.4L18.1,35.187c-.109.208-.2.456-.287.663L11.093,36.9a1.185,1.185,0,0,0-1,.98,21.6,21.6,0,0,0,0,7.236,1.185,1.185,0,0,0,1,.98l6.717,1.05a5.18,5.18,0,0,0,.287.662l-3.984,5.348a1.131,1.131,0,0,0,0,1.4,24.076,24.076,0,0,0,5.257,5.137,1.291,1.291,0,0,0,1.418,0l5.493-3.913c.236.1.467.208.7.315l1.058,6.5a1.164,1.164,0,0,0,1,.977,22.346,22.346,0,0,0,7.467,0A1.146,1.146,0,0,0,37.5,62.6l1.077-6.538a6.266,6.266,0,0,0,.684-.279l5.493,3.913a1.286,1.286,0,0,0,1.416,0,23.028,23.028,0,0,0,5.278-5.137,1.185,1.185,0,0,0,0-1.4l-3.985-5.348c.089-.244.2-.454.288-.662l6.694-1.05a1.17,1.17,0,0,0,1.008-.98,21.6,21.6,0,0,0,0-7.236,1.17,1.17,0,0,0-1.008-.98L47.751,35.85c-.089-.208-.2-.419-.288-.663m5.89,6.326a19.14,19.14,0,0,1-.161,2.413l-6.537.981a1.27,1.27,0,0,0-.953.8,11.054,11.054,0,0,1-.734,1.678,1.147,1.147,0,0,0,.109,1.224l3.876,5.209a18.9,18.9,0,0,1-3.5,3.427L40.1,53.47a1.341,1.341,0,0,0-1.258-.1,15.489,15.489,0,0,1-1.738.735,1.115,1.115,0,0,0-.809.909l-1.041,6.361a19.426,19.426,0,0,1-4.956,0l-1.04-6.361a1.155,1.155,0,0,0-.809-.909,12.31,12.31,0,0,1-1.742-.735,1.375,1.375,0,0,0-1.273.1l-5.349,3.777a18.853,18.853,0,0,1-3.5-3.427l3.875-5.209a1.163,1.163,0,0,0,.109-1.224,9.838,9.838,0,0,1-.72-1.678,1.285,1.285,0,0,0-.968-.8l-6.537-.981a20.758,20.758,0,0,1,0-4.858l6.537-.981a1.219,1.219,0,0,0,.968-.8,11.355,11.355,0,0,1,.72-1.716,1.176,1.176,0,0,0-.109-1.224L16.59,29.137a19.728,19.728,0,0,1,3.5-3.39l5.349,3.777a1.341,1.341,0,0,0,1.258.1,10.712,10.712,0,0,1,1.738-.7,1.245,1.245,0,0,0,.828-.945l1.04-6.361a19.427,19.427,0,0,1,4.956,0L36.3,27.984a1.208,1.208,0,0,0,.809.945,15.708,15.708,0,0,1,1.757.7,1.3,1.3,0,0,0,1.24-.1l5.349-3.777a19.166,19.166,0,0,1,3.5,3.39l-3.876,5.245a1.093,1.093,0,0,0-.109,1.188,15.44,15.44,0,0,1,.734,1.716,1.2,1.2,0,0,0,.953.8l6.537.981a19.263,19.263,0,0,1,.161,2.445" transform="translate(3.257 5.692)" fill="#1a171b"/>
        <path id="패스_1107" data-name="패스 1107" d="M32.864,64.287a22.006,22.006,0,0,1-3.795-.321A1.492,1.492,0,0,1,27.8,62.722l-1.032-6.333c-.12-.055-.241-.108-.361-.161l-5.336,3.8a1.632,1.632,0,0,1-1.806,0,24.487,24.487,0,0,1-5.337-5.214,1.447,1.447,0,0,1,0-1.786l3.864-5.185c-.052-.109-.1-.222-.145-.34L11.124,46.49a1.513,1.513,0,0,1-1.28-1.25,21.925,21.925,0,0,1,0-7.339,1.513,1.513,0,0,1,1.282-1.25l6.533-1.035c.044-.105.088-.215.135-.321L13.926,30.1a1.478,1.478,0,0,1-.021-1.778,22.444,22.444,0,0,1,5.357-5.182,1.508,1.508,0,0,1,1.81.006l5.33,3.765c.128-.056.248-.105.365-.149l1.028-6.345a1.492,1.492,0,0,1,1.288-1.253,22.592,22.592,0,0,1,7.57,0,1.464,1.464,0,0,1,1.262,1.259l1.045,6.341c.113.043.229.092.347.143l5.336-3.768a1.5,1.5,0,0,1,1.817.008A22.4,22.4,0,0,1,51.8,28.322a1.506,1.506,0,0,1,0,1.777l-3.88,5.21c.037.091.077.178.116.261l.027.061,6.515,1.02A1.494,1.494,0,0,1,55.864,37.9a21.886,21.886,0,0,1,0,7.34,1.5,1.5,0,0,1-1.29,1.251l-6.509,1.02-.027.061c-.039.084-.079.17-.116.261L51.8,53.039a1.5,1.5,0,0,1,0,1.778,23.329,23.329,0,0,1-5.356,5.214,1.626,1.626,0,0,1-1.8.005l-5.345-3.808c-.117.052-.231.1-.347.145l-1.046,6.348a1.474,1.474,0,0,1-1.273,1.247,22.233,22.233,0,0,1-3.776.318M26.323,55.48l.177.078c.237.105.471.209.706.317l.16.073,1.086,6.672a.832.832,0,0,0,.718.706,21.919,21.919,0,0,0,7.364,0,.821.821,0,0,0,.717-.7l1.112-6.744.195-.06a5.252,5.252,0,0,0,.533-.214l.293-.13L45.034,59.5a.948.948,0,0,0,1.028,0,22.684,22.684,0,0,0,5.2-5.063.867.867,0,0,0,0-1.023l-4.085-5.484.059-.16c.06-.167.131-.319.2-.466l.167-.38,6.878-1.077a.843.843,0,0,0,.733-.715,21.29,21.29,0,0,0,0-7.13.84.84,0,0,0-.725-.711L47.6,36.216l-.167-.38c-.067-.147-.137-.3-.2-.466l-.059-.16,4.088-5.487a.871.871,0,0,0,0-1.023,21.831,21.831,0,0,0-5.2-5.026.835.835,0,0,0-1.024-.006l-5.653,3.994-.177-.078c-.253-.112-.459-.2-.652-.266l-.192-.064-1.109-6.73a.818.818,0,0,0-.708-.713,21.97,21.97,0,0,0-7.362,0,.845.845,0,0,0-.732.714l-1.09,6.735-.2.06a5.755,5.755,0,0,0-.629.249l-.177.079-.191-.1-5.492-3.88a.839.839,0,0,0-1.018-.006,21.842,21.842,0,0,0-5.21,5.039.835.835,0,0,0,.015,1.016l4.108,5.513-.093.178a4.668,4.668,0,0,0-.2.445l-.151.361-6.9,1.077a.858.858,0,0,0-.728.713,21.345,21.345,0,0,0,0,7.131.858.858,0,0,0,.724.713l6.917,1.079.065.183a4.9,4.9,0,0,0,.269.622l.093.178-4.105,5.509a.822.822,0,0,0,0,1.015,23.868,23.868,0,0,0,5.19,5.073.959.959,0,0,0,1.034-.008Zm6.533,6.448a19.341,19.341,0,0,1-2.514-.161l-.247-.034-1.08-6.6a.826.826,0,0,0-.562-.645,12.581,12.581,0,0,1-1.815-.762,1.023,1.023,0,0,0-.932.088l-5.54,3.911-.2-.147a19.311,19.311,0,0,1-3.562-3.485l-.151-.192,4.02-5.406a.846.846,0,0,0,.077-.9,10.071,10.071,0,0,1-.734-1.716.957.957,0,0,0-.726-.584l-6.765-1.014-.027-.248a20.937,20.937,0,0,1,0-4.925l.025-.251,6.793-1.019a.892.892,0,0,0,.7-.584,11.726,11.726,0,0,1,.738-1.76.854.854,0,0,0-.088-.9l-4.017-5.4.157-.193a20.13,20.13,0,0,1,3.559-3.446l.2-.147,5.55,3.919a1,1,0,0,0,.929.069,10.771,10.771,0,0,1,1.767-.709.923.923,0,0,0,.6-.691l1.08-6.6.247-.031a19.69,19.69,0,0,1,5.043,0l.247.031,1.08,6.6a.887.887,0,0,0,.584.687,16,16,0,0,1,1.794.713A.969.969,0,0,0,40,29.331l5.544-3.915.2.147a19.347,19.347,0,0,1,3.56,3.449l.153.192-4.02,5.442a.785.785,0,0,0-.084.853,15.808,15.808,0,0,1,.752,1.75.879.879,0,0,0,.69.592l6.783,1.018.032.244a18.669,18.669,0,0,1,0,4.938l-.032.244L46.789,45.3a.928.928,0,0,0-.688.587,11.364,11.364,0,0,1-.757,1.726.825.825,0,0,0,.072.862L49.453,53.9l-.152.192a19.228,19.228,0,0,1-3.562,3.485l-.2.147-5.549-3.919a1,1,0,0,0-.93-.069,15.763,15.763,0,0,1-1.757.74.811.811,0,0,0-.594.657l-1.08,6.6-.247.032a19.706,19.706,0,0,1-2.529.161m-2.181-.775a19.124,19.124,0,0,0,4.376,0l1-6.121a1.449,1.449,0,0,1,1.058-1.173,15.294,15.294,0,0,0,1.666-.707,1.692,1.692,0,0,1,1.6.127l5.15,3.637a18.561,18.561,0,0,0,3.091-3.028l-3.727-5.012a1.445,1.445,0,0,1-.145-1.549,10.946,10.946,0,0,0,.724-1.65,1.6,1.6,0,0,1,1.192-1.012l6.311-.949a18.724,18.724,0,0,0,.129-2.129,18.985,18.985,0,0,0-.129-2.162l-6.286-.944a1.534,1.534,0,0,1-1.217-1.018,15.213,15.213,0,0,0-.718-1.674,1.424,1.424,0,0,1,.153-1.542l3.714-5.028a18.744,18.744,0,0,0-3.09-2.993l-5.146,3.634A1.642,1.642,0,0,1,38.812,30a15.669,15.669,0,0,0-1.725-.685,1.533,1.533,0,0,1-1.033-1.2l-1-6.123a18.978,18.978,0,0,0-4.376,0l-1,6.121a1.584,1.584,0,0,1-1.052,1.2,10.44,10.44,0,0,0-1.687.676,1.688,1.688,0,0,1-1.6-.121l-5.158-3.641a19.48,19.48,0,0,0-3.087,2.994l3.726,5.009a1.5,1.5,0,0,1,.139,1.559,10.8,10.8,0,0,0-.7,1.667,1.56,1.56,0,0,1-1.234,1.027l-6.282.944a21.271,21.271,0,0,0-.116,2.162c0,.643.04,1.373.115,2.129l6.283.944a1.607,1.607,0,0,1,1.232,1.02,9.469,9.469,0,0,0,.7,1.628,1.491,1.491,0,0,1-.137,1.572L17.09,53.888a18.657,18.657,0,0,0,3.09,3.028l5.146-3.633a1.727,1.727,0,0,1,1.6-.14,12.264,12.264,0,0,0,1.718.726,1.479,1.479,0,0,1,1.029,1.16Z" transform="translate(3.175 5.617)"/>
        <path id="패스_1108" data-name="패스 1108" d="M29.154,30.013a8.235,8.235,0,1,0,8.456,8.249,8.356,8.356,0,0,0-8.456-8.249m0,14.123A5.893,5.893,0,1,1,35.2,38.262a5.985,5.985,0,0,1-6.048,5.875" transform="translate(6.885 8.943)" fill="#e52f42"/>
      </g>
    </g>
  </g>
</svg>
