<svg xmlns="http://www.w3.org/2000/svg" xmlns:xlink="http://www.w3.org/1999/xlink" width="90" height="90" viewBox="0 0 90 90">
  <defs>
    <clipPath id="clip-path">
      <rect id="사각형_947" data-name="사각형 947" width="71.284" height="76.036" fill="none"/>
    </clipPath>
  </defs>
  <g id="그룹_1530" data-name="그룹 1530" transform="translate(4188 2969)">
    <rect id="사각형_945" data-name="사각형 945" width="90" height="90" transform="translate(-4188 -2969)" fill="none"/>
    <g id="그룹_1529" data-name="그룹 1529" transform="translate(-4179 -2962)">
      <g id="그룹_1528" data-name="그룹 1528" clip-path="url(#clip-path)">
        <path id="패스_1228" data-name="패스 1228" d="M75.878,126.757a7.128,7.128,0,1,0-7.128-7.128,7.136,7.136,0,0,0,7.128,7.128m0-11.089a3.96,3.96,0,1,1-3.96,3.96,3.965,3.965,0,0,1,3.96-3.96" transform="translate(-60.037 -98.243)" fill="#e52f42"/>
        <rect id="사각형_946" data-name="사각형 946" width="3.168" height="19.009" transform="translate(14.256 57.027)" fill="#333"/>
        <path id="패스_1229" data-name="패스 1229" d="M60.2,12.33V4.58a1.586,1.586,0,0,0-.487-1.142,7.249,7.249,0,0,0-5.114-2.2,14.577,14.577,0,0,0-6.173,1.912,12.233,12.233,0,0,1-4.8,1.6,3.821,3.821,0,0,1-2.433-.891V0H38.018V30.1H7.92C3.109,30.1,0,33.207,0,38.018V50.691a6.344,6.344,0,0,0,6.336,6.336V76.036H9.5l0-38.018H6.336V53.859a3.171,3.171,0,0,1-3.168-3.168V38.018c0-1.775.617-4.752,4.752-4.752H41c-.446,1.825-1.63,3.168-2.98,3.168H22.177l0,39.6h3.168V39.6H38.018V76.036h3.168v-37.5a8.441,8.441,0,0,0,3.168-6.855V30.1H41.186V20.145a6.752,6.752,0,0,0,2.433.449,13.014,13.014,0,0,0,5.487-1.585v7.749a1.587,1.587,0,0,0,.487,1.143,7.113,7.113,0,0,0,5.075,2.2,14.846,14.846,0,0,0,6.212-1.917c3.414-1.638,5.456-2.458,7.722-.285a1.584,1.584,0,0,0,2.681-1.143V14.085a1.586,1.586,0,0,0-.487-1.142c-3.687-3.54-7.464-2.094-10.6-.613M50.072,15.057c-.557.244-1.106.507-1.65.769-2.735,1.311-5.162,2.332-7.235.709V7.474a6.738,6.738,0,0,0,2.433.447,14.576,14.576,0,0,0,6.173-1.912c2.735-1.312,5.162-2.33,7.235-.709v9.061a6.738,6.738,0,0,0-2.433-.447,11.285,11.285,0,0,0-4.518,1.141l0,0m18.044,8.795c-3.07-1.177-6.077.265-8.606,1.479-3.168,1.52-5.155,2.338-7.235.709V17.577a6.782,6.782,0,0,1,2.319-.5,4.084,4.084,0,0,1,2.92,1.314A1.584,1.584,0,0,0,60.2,17.253V15.839l.688-.328c3.168-1.52,5.154-2.338,7.232-.708Z"/>
      </g>
    </g>
  </g>
</svg>
