<svg xmlns="http://www.w3.org/2000/svg" xmlns:xlink="http://www.w3.org/1999/xlink" width="90" height="90" viewBox="0 0 90 90">
  <defs>
    <clipPath id="clip-path">
      <rect id="사각형_739" data-name="사각형 739" width="86.762" height="77.128" fill="none"/>
    </clipPath>
  </defs>
  <g id="그룹_1348" data-name="그룹 1348" transform="translate(-1209 -1927)">
    <rect id="사각형_740" data-name="사각형 740" width="90" height="90" transform="translate(1209 1927)" fill="none"/>
    <g id="그룹_1347" data-name="그룹 1347" transform="translate(1211 1933)">
      <g id="그룹_1346" data-name="그룹 1346" transform="translate(0 0)" clip-path="url(#clip-path)">
        <path id="패스_995" data-name="패스 995" d="M5.164,34.109a1.722,1.722,0,0,1-1.242-.532L0,29.522l2.483-2.567,2.681,2.773L28.755,5.342,26.072,2.567,28.554,0l3.925,4.058a1.858,1.858,0,0,1,0,2.567L6.406,33.577a1.722,1.722,0,0,1-1.242.532" transform="translate(0 0.001)"/>
        <path id="패스_996" data-name="패스 996" d="M54.648,57.752A6.325,6.325,0,0,1,50.1,55.8L37.283,42.548l2.483-2.566L52.579,53.228a2.74,2.74,0,0,0,3.956.1,2.968,2.968,0,0,0-.1-4.089L43.8,36.169,46.278,33.6l12.644,13.07a6.689,6.689,0,0,1,.1,9.224,6.047,6.047,0,0,1-4.371,1.856" transform="translate(9.76 10.23)"/>
        <path id="패스_997" data-name="패스 997" d="M47.759,60.933a6.212,6.212,0,0,1-4.476-1.92l-11.027-11.4,2.482-2.567,11.028,11.4a2.7,2.7,0,0,0,3.9.046,2.819,2.819,0,0,0,.785-2,2.949,2.949,0,0,0-.83-2.039L38.6,41.059l2.483-2.567,11.027,11.4a6.617,6.617,0,0,1,1.859,4.581,6.483,6.483,0,0,1-1.814,4.588,6.084,6.084,0,0,1-4.392,1.873" transform="translate(8.444 11.718)"/>
        <path id="패스_998" data-name="패스 998" d="M37.1,14.137a8.817,8.817,0,0,0-7.677-2.463,9.5,9.5,0,0,1-7.844-2.939L21.152,8.3l2.483-2.567.424.438A5.973,5.973,0,0,0,29,8.069a12.189,12.189,0,0,1,10.579,3.5Z" transform="translate(5.537 1.745)"/>
        <path id="패스_999" data-name="패스 999" d="M16.552,42.961c-3.046-3.689-6.887-9.167-7.892-14.328a4.028,4.028,0,0,0-1.008-2.049L5.3,24.151l2.483-2.567,2.352,2.433a7.673,7.673,0,0,1,1.97,3.9c.667,3.431,3.2,7.936,7.12,12.687Z" transform="translate(1.387 6.571)"/>
        <path id="패스_1000" data-name="패스 1000" d="M38.965,61.595a5.572,5.572,0,0,1-4.052-1.71L32.8,57.7l2.483-2.566L37.4,57.317a2.12,2.12,0,0,0,1.682.646,2.862,2.862,0,0,0,1.927-.9,3.043,3.043,0,0,0,.873-1.993,2.327,2.327,0,0,0-.625-1.739l2.483-2.567a6,6,0,0,1,1.652,4.453,6.721,6.721,0,0,1-1.9,4.412,6.314,6.314,0,0,1-4.267,1.964c-.085,0-.17.005-.256.005" transform="translate(8.586 15.453)"/>
        <path id="패스_1001" data-name="패스 1001" d="M70.479,34.06a1.722,1.722,0,0,1-1.242-.532L43.166,6.576a1.86,1.86,0,0,1,0-2.567L47.043,0l2.483,2.567L46.89,5.292,70.479,29.678l2.636-2.724L75.6,29.522l-3.876,4.006a1.722,1.722,0,0,1-1.242.532" transform="translate(11.165 0.001)"/>
        <path id="패스_1002" data-name="패스 1002" d="M63.448,57.991a7.137,7.137,0,0,1-5.093-2.246L47.845,44.879l2.482-2.567L60.839,53.179c1.327,1.37,3.273,1.591,4.338.5s.849-3.111-.481-4.485L42.138,26.1a.487.487,0,0,0-.683-.025l-.66.594a21.893,21.893,0,0,0-4.212,5.55c-2.964,5.192-7.966,7.773-11.9,6.144a4.344,4.344,0,0,1-2.612-3C20.707,30.2,27.43,20.78,28.792,18.946a33.472,33.472,0,0,1,8.473-7.457A50.15,50.15,0,0,1,46.5,8.6a4.505,4.505,0,0,0,2.377-1.238l2.227-2.3L53.584,7.62l-2.23,2.306a7.929,7.929,0,0,1-4.192,2.232,49.706,49.706,0,0,0-8.353,2.581,30,30,0,0,0-7.287,6.486c-2.889,3.9-6.734,10.638-6.06,13.175a.782.782,0,0,0,.534.594c1.965.815,5.322-.69,7.563-4.622a25.277,25.277,0,0,1,4.928-6.44l.66-.595a3.932,3.932,0,0,1,5.463.183l22.563,23.1c2.7,2.8,2.918,7.109.486,9.625a5.792,5.792,0,0,1-4.212,1.749" transform="translate(5.731 1.539)"/>
        <path id="패스_1003" data-name="패스 1003" d="M55.991,42.018l-2.546-2.5c4.2-4.567,5.063-6.654,5.845-11.467a7.528,7.528,0,0,1,2-4.063l2.36-2.437,2.482,2.566-2.36,2.438a3.874,3.874,0,0,0-1.022,2.095c-.873,5.4-2.028,8.226-6.762,13.372" transform="translate(13.99 6.56)"/>
        <path id="패스_1004" data-name="패스 1004" d="M31.588,62.27a5.473,5.473,0,0,1-3.944-1.685,5.921,5.921,0,0,1,0-8.157l1.924-1.987a5.573,5.573,0,0,1,7.889,0,5.9,5.9,0,0,1,0,8.154l-1.922,1.989a5.476,5.476,0,0,1-3.946,1.685M30.127,55a2.2,2.2,0,0,0,0,3.022,2.025,2.025,0,0,0,2.924,0l1.922-1.989a2.185,2.185,0,0,0,0-3.02,2.062,2.062,0,0,0-2.921,0Z" transform="translate(6.81 14.858)"/>
        <path id="패스_1005" data-name="패스 1005" d="M21.8,54.444a6.085,6.085,0,0,1-4.386-1.876,6.579,6.579,0,0,1,0-9.071L19.9,46.064A2.854,2.854,0,0,0,19.9,50a2.7,2.7,0,0,0,3.808,0l2.237-2.314a2.856,2.856,0,0,0,0-3.938,2.693,2.693,0,0,0-3.808,0l-2.483-2.566a6.074,6.074,0,0,1,8.774,0,6.578,6.578,0,0,1,0,9.07l-2.237,2.315A6.086,6.086,0,0,1,21.8,54.444" transform="translate(4.085 11.967)"/>
        <path id="패스_1006" data-name="패스 1006" d="M26.674,58.8a5.8,5.8,0,0,1-4.192-1.8,6.277,6.277,0,0,1,0-8.668l2.1-2.172a5.8,5.8,0,0,1,8.388,0,6.292,6.292,0,0,1,0,8.671l-2.1,2.169a5.79,5.79,0,0,1-4.193,1.8m2.1-10.8a2.379,2.379,0,0,0-1.712.73l-2.1,2.172a2.556,2.556,0,0,0,0,3.534,2.411,2.411,0,0,0,3.418,0l2.1-2.169a2.567,2.567,0,0,0,0-3.536,2.37,2.37,0,0,0-1.71-.73" transform="translate(5.431 13.509)"/>
        <path id="패스_1007" data-name="패스 1007" d="M17.153,48.946a5.729,5.729,0,0,1-4.14-1.774,6.2,6.2,0,0,1,0-8.557l2.062-2.13a5.85,5.85,0,0,1,8.278,0,6.205,6.205,0,0,1,0,8.557l-2.062,2.13a5.722,5.722,0,0,1-4.139,1.774m2.06-10.6a2.291,2.291,0,0,0-1.657.71l-2.06,2.13a2.482,2.482,0,0,0,0,3.423,2.341,2.341,0,0,0,3.312,0l2.062-2.13a2.483,2.483,0,0,0,0-3.423,2.289,2.289,0,0,0-1.657-.71" transform="translate(2.958 10.585)"/>
        <path id="패스_1008" data-name="패스 1008" d="M44.988,25.767a10.393,10.393,0,0,1-4.611-1.131l1.509-3.279c4.373,2.148,7.058-.707,7.354-1.038l2.633,2.4a9.309,9.309,0,0,1-6.885,3.05" transform="translate(10.57 6.186)"/>
      </g>
    </g>
  </g>
</svg>
