<svg xmlns="http://www.w3.org/2000/svg" xmlns:xlink="http://www.w3.org/1999/xlink" width="90" height="90" viewBox="0 0 90 90">
  <defs>
    <clipPath id="clip-path">
      <rect id="사각형_948" data-name="사각형 948" width="73.005" height="56.728" fill="none"/>
    </clipPath>
  </defs>
  <g id="그룹_1533" data-name="그룹 1533" transform="translate(4261 3215)">
    <rect id="사각형_949" data-name="사각형 949" width="90" height="90" transform="translate(-4261 -3215)" fill="none" opacity="0.9"/>
    <g id="그룹_1532" data-name="그룹 1532" transform="translate(-4253 -3198)">
      <g id="그룹_1531" data-name="그룹 1531" transform="translate(0 0)" clip-path="url(#clip-path)">
        <path id="패스_1230" data-name="패스 1230" d="M13.076,47.358A13.079,13.079,0,0,0,26.154,34.28a1.44,1.44,0,0,0-1.439-1.439H23.161l-8.05-22.769H35.063V53.85H28.44a1.439,1.439,0,0,0,0,2.878H44.564a1.439,1.439,0,0,0,0-2.878H37.941V10.072H57.891l-8.05,22.769H48.288a1.439,1.439,0,0,0-1.439,1.439A13.078,13.078,0,0,0,73,34.28a1.439,1.439,0,0,0-1.439-1.439H70.011L61.283,8.153a1.418,1.418,0,0,0-1.708-.911,1.42,1.42,0,0,0-.349-.048H40.5a4.318,4.318,0,0,0,.465-1.944V4.4a4.358,4.358,0,0,0-1.32-3.122,4.516,4.516,0,0,0-6.293,0A4.36,4.36,0,0,0,32.035,4.4V5.25A4.322,4.322,0,0,0,32.5,7.194H13.777a1.42,1.42,0,0,0-.349.048,1.418,1.418,0,0,0-1.708.911L2.992,32.841H1.438A1.439,1.439,0,0,0,0,34.28,13.079,13.079,0,0,0,13.076,47.358m0-34.408,7.033,19.891H6.044ZM4.009,35.719H23.163a10.186,10.186,0,0,1-20.173,0ZM34.913,4.4a1.477,1.477,0,0,1,.454-1.063,1.637,1.637,0,0,1,2.27,0A1.478,1.478,0,0,1,38.09,4.4V5.25a1.478,1.478,0,0,1-.454,1.064,1.639,1.639,0,0,1-2.27,0,1.471,1.471,0,0,1-.454-1.063ZM59.926,44.48A10.176,10.176,0,0,1,49.84,35.719H70.014A10.177,10.177,0,0,1,59.926,44.48m7.033-11.639H52.894l7.032-19.891Z" transform="translate(0.001 0.001)" fill="#212121"/>
      </g>
    </g>
  </g>
</svg>
