<svg width="24" height="24" viewBox="0 0 24 24" fill="none" xmlns="http://www.w3.org/2000/svg">
<g clip-path="url(#clip0_2_15)">
<path d="M20.04 24H3.96C1.8 24 0 22.176 0 19.992V11.232C0 10.128 0.48 9.048 1.32 8.304L9.36 1.008C10.92 -0.336 13.08 -0.336 14.64 1.008L22.68 8.304C23.52 9.024 24 10.128 24 11.232V19.992C23.88 22.296 22.2 24 20.04 24ZM12 2.472C11.64 2.472 11.28 2.592 10.92 2.832L2.88 10.128C2.52 10.368 2.4 10.848 2.4 11.352V20.112C2.4 20.952 3.12 21.696 3.96 21.696H19.92C20.76 21.696 21.48 20.976 21.48 20.112V11.352C21.48 10.872 21.24 10.512 21 10.128L12.96 2.832C12.72 2.592 12.36 2.472 12 2.472Z" fill="white"/>
</g>
<defs>
<clipPath id="clip0_2_15">
<rect width="24" height="24" fill="white"/>
</clipPath>
</defs>
</svg>
