<svg xmlns="http://www.w3.org/2000/svg" xmlns:xlink="http://www.w3.org/1999/xlink" width="90" height="90" viewBox="0 0 90 90">
  <defs>
    <clipPath id="clip-path">
      <rect id="사각형_891" data-name="사각형 891" width="84.107" height="84.107" fill="none"/>
    </clipPath>
  </defs>
  <g id="그룹_1481" data-name="그룹 1481" transform="translate(-1072 -1878)">
    <rect id="사각형_890" data-name="사각형 890" width="90" height="90" transform="translate(1072 1878)" fill="none"/>
    <g id="그룹_1476" data-name="그룹 1476" transform="translate(1075 1881)">
      <g id="그룹_1475" data-name="그룹 1475" transform="translate(0 0)" clip-path="url(#clip-path)">
        <path id="패스_1206" data-name="패스 1206" d="M82.836,72.949H80.623V36.891A1.286,1.286,0,0,0,79.337,35.6H71.693a1.276,1.276,0,0,0-1.286,1.286V72.949H65.32v-28.6A1.278,1.278,0,0,0,64.034,43.1H56.39a1.264,1.264,0,0,0-1.267,1.248v28.6H50.017v-10.6a1.242,1.242,0,0,0-1.267-1.248H41.087a1.239,1.239,0,0,0-1.267,1.248v10.6H35.357V56.15l5.749-2.235A4.759,4.759,0,0,0,49.7,51.04a4.7,4.7,0,0,0-.814-2.646l9.288-10.747a4.662,4.662,0,0,0,2.045.492A4.8,4.8,0,0,0,65,33.373a4.211,4.211,0,0,0-.112-.983l7.129-3.669a4.767,4.767,0,1,0-1.286-3.255,4.015,4.015,0,0,0,.116.983l-7.132,3.669a3.017,3.017,0,0,0-.756-.643V17.14c0-.034-.019-.034-.019-.074a1.974,1.974,0,0,0-.078-.341c-.019-.038-.019-.078-.038-.112a.655.655,0,0,0-.244-.341v-.039L46.685.341C46.573.267,46.46.19,46.329.117a.142.142,0,0,0-.117-.039A1.07,1.07,0,0,0,45.871,0H1.267A1.265,1.265,0,0,0,0,1.252V82.821a1.27,1.27,0,0,0,1.267,1.286h60.4a1.276,1.276,0,0,0,1.286-1.286v-7.3H82.836a1.286,1.286,0,0,0,0-2.573M75.518,23.234a2.232,2.232,0,1,1,0,4.463,2.232,2.232,0,1,1,0-4.463m-17.86,22.4h5.111V72.949H57.657ZM42.373,63.64h5.09v9.309h-5.09Zm2.533-10.368a2.219,2.219,0,0,1-2.213-2.232,2.224,2.224,0,1,1,4.448,0,2.211,2.211,0,0,1-2.235,2.232M60.213,35.6a2.251,2.251,0,0,1-2.235-2.232,2.233,2.233,0,0,1,4.467,0A2.249,2.249,0,0,1,60.213,35.6M58.607,15.854H47.064V4.355ZM60.4,81.573H2.534V2.538H44.512v14.6A1.273,1.273,0,0,0,45.8,18.427H60.4V28.6c-.055,0-.113-.034-.187-.034a4.807,4.807,0,0,0-4.788,4.8,4.7,4.7,0,0,0,.813,2.646L46.952,46.729a5.233,5.233,0,0,0-2.046-.454,4.782,4.782,0,0,0-4.765,4.766c0,.151.038.341.038.492l-4.823,1.894V25.466a1.279,1.279,0,0,0-2.557,0V74.235a1.279,1.279,0,0,0,1.286,1.286H60.4ZM72.964,38.139h5.087v34.81H72.964Z" transform="translate(0 0)" fill="#1a171b"/>
        <path id="패스_1207" data-name="패스 1207" d="M7.853,21.57H9.4a1.269,1.269,0,0,0,0-2.538H7.853a1.269,1.269,0,0,0,0,2.538" transform="translate(1.793 5.183)" fill="#e52f42"/>
        <path id="패스_1208" data-name="패스 1208" d="M7.853,28.594H9.4a1.27,1.27,0,0,0,1.267-1.286A1.3,1.3,0,0,0,9.4,26.021H7.853a1.3,1.3,0,0,0-1.267,1.286,1.27,1.27,0,0,0,1.267,1.286" transform="translate(1.793 7.086)" fill="#e52f42"/>
        <path id="패스_1209" data-name="패스 1209" d="M22.922,19.032H13.368a1.269,1.269,0,0,0,0,2.538h9.554a1.269,1.269,0,1,0,0-2.538" transform="translate(3.295 5.183)" fill="#e52f42"/>
        <path id="패스_1210" data-name="패스 1210" d="M22.922,26.021H13.368A1.3,1.3,0,0,0,12.1,27.307a1.272,1.272,0,0,0,1.267,1.286h9.554a1.286,1.286,0,0,0,1.286-1.286,1.314,1.314,0,0,0-1.286-1.286" transform="translate(3.295 7.086)" fill="#e52f42"/>
        <path id="패스_1211" data-name="패스 1211" d="M7.853,35.613H21.89a1.286,1.286,0,0,0,0-2.573H7.853a1.286,1.286,0,0,0,0,2.573" transform="translate(1.793 8.997)" fill="#1a171b"/>
        <path id="패스_1212" data-name="패스 1212" d="M24.423,40.059H7.853a1.286,1.286,0,0,0,0,2.573h16.57a1.286,1.286,0,0,0,0-2.573" transform="translate(1.793 10.908)" fill="#1a171b"/>
        <path id="패스_1213" data-name="패스 1213" d="M19.337,47.075H7.853a1.272,1.272,0,0,0-1.267,1.286,1.3,1.3,0,0,0,1.267,1.29H19.337a1.3,1.3,0,0,0,1.267-1.29,1.275,1.275,0,0,0-1.267-1.286" transform="translate(1.793 12.818)" fill="#1a171b"/>
      </g>
    </g>
  </g>
</svg>
