<svg xmlns="http://www.w3.org/2000/svg" xmlns:xlink="http://www.w3.org/1999/xlink" width="90" height="90" viewBox="0 0 90 90">
  <defs>
    <clipPath id="clip-path">
      <rect id="사각형_886" data-name="사각형 886" width="72.625" height="80.614" fill="none"/>
    </clipPath>
  </defs>
  <g id="그룹_1479" data-name="그룹 1479" transform="translate(-1362 -1862)">
    <rect id="사각형_887" data-name="사각형 887" width="90" height="90" transform="translate(1362 1862)" fill="none"/>
    <g id="그룹_1472" data-name="그룹 1472" transform="translate(1371 1867)">
      <g id="그룹_1471" data-name="그룹 1471" transform="translate(0 0)" clip-path="url(#clip-path)">
        <path id="패스_1192" data-name="패스 1192" d="M41.622,80.614a1.8,1.8,0,0,1-.836-.2,1.718,1.718,0,0,1-.945-1.524V68.6a.857.857,0,0,0-.872-.843H8.426a4.7,4.7,0,1,0,0,9.4h25.23a1.729,1.729,0,1,1,0,3.456H8.426A8.3,8.3,0,0,1,0,72.457a3.486,3.486,0,0,1,.044-.447c.016-.109.031-.219.043-.328a.852.852,0,0,0-.009-.225,2.364,2.364,0,0,0-.058-.241C.013,71.19,0,71.165,0,71.139V1.728A1.759,1.759,0,0,1,1.786,0H70.839a1.759,1.759,0,0,1,1.784,1.728V78.886a1.759,1.759,0,0,1-1.784,1.728H65.517a1.729,1.729,0,1,1,0-3.456h2.667a.858.858,0,0,0,.871-.845V68.6a.857.857,0,0,0-.871-.843H60.217a.858.858,0,0,0-.872.843V78.886a1.716,1.716,0,0,1-.941,1.523,1.834,1.834,0,0,1-1.833-.086l-6.493-4.191a.9.9,0,0,0-.967,0l-6.495,4.192a1.838,1.838,0,0,1-.993.29m7.97-8.6a1.822,1.822,0,0,1,.989.29l3.84,2.481a.894.894,0,0,0,.895.041.84.84,0,0,0,.46-.744V68.6a.857.857,0,0,0-.871-.843H44.281a.858.858,0,0,0-.872.843v5.483a.839.839,0,0,0,.461.744.894.894,0,0,0,.895-.041L48.6,72.3a1.819,1.819,0,0,1,.989-.291M4.442,3.456A.859.859,0,0,0,3.57,4.3V64.358a.838.838,0,0,0,.407.713.9.9,0,0,0,.842.048,8.539,8.539,0,0,1,3.608-.82H68.184a.858.858,0,0,0,.871-.845V4.3a.858.858,0,0,0-.871-.845Z" transform="translate(0 -0.001)" fill="#303030"/>
        <path id="패스_1193" data-name="패스 1193" d="M31.683,53.6A12.231,12.231,0,0,1,19.274,41.58a11.762,11.762,0,0,1,3.176-7.945.826.826,0,0,0-.036-1.157l-2.5-2.417a.886.886,0,0,0-.909-.2,9.889,9.889,0,0,1-3.261.586A9.612,9.612,0,0,1,6,21.005a9.612,9.612,0,0,1,9.752-9.444A9.61,9.61,0,0,1,25.5,21.005a9.124,9.124,0,0,1-2.405,6.136.826.826,0,0,0,.045,1.148l1.837,1.782a1.317,1.317,0,0,1,.166.248l.073.127a.879.879,0,0,0,.754.418.9.9,0,0,0,.378-.084,12.313,12.313,0,0,1,10.673,0,.888.888,0,0,0,1.13-.335l.074-.127a1.26,1.26,0,0,1,.165-.248l3.735-3.618a.826.826,0,0,0,.122-1.048,10.413,10.413,0,0,1-1.723-5.687,11.085,11.085,0,0,1,22.158,0A10.921,10.921,0,0,1,51.6,30.449a11.275,11.275,0,0,1-5.874-1.67.893.893,0,0,0-1.081.117l-3.7,3.582a.826.826,0,0,0-.035,1.157A11.766,11.766,0,0,1,44.09,41.58,12.23,12.23,0,0,1,31.683,53.6m0-20.575a8.564,8.564,0,1,0,8.84,8.559,8.712,8.712,0,0,0-8.84-8.559M51.6,12.445a7.4,7.4,0,0,0-7.513,7.274,7.515,7.515,0,0,0,15.022,0A7.4,7.4,0,0,0,51.6,12.445M15.747,15.017a5.991,5.991,0,1,0,0,11.976,6.094,6.094,0,0,0,6.182-5.988,6.094,6.094,0,0,0-6.182-5.988" transform="translate(1.975 2.583)" fill="#e52f42"/>
      </g>
    </g>
  </g>
</svg>
