<svg xmlns="http://www.w3.org/2000/svg" xmlns:xlink="http://www.w3.org/1999/xlink" width="90" height="90" viewBox="0 0 90 90">
  <defs>
    <clipPath id="clip-path">
      <rect id="사각형_889" data-name="사각형 889" width="76.522" height="80.246" fill="none"/>
    </clipPath>
  </defs>
  <g id="그룹_1480" data-name="그룹 1480" transform="translate(-1206 -1878)">
    <rect id="사각형_888" data-name="사각형 888" width="90" height="90" transform="translate(1206 1878)" fill="none"/>
    <g id="그룹_1474" data-name="그룹 1474" transform="translate(1212.477 1881.89)">
      <g id="그룹_1473" data-name="그룹 1473" transform="translate(0 0)" clip-path="url(#clip-path)">
        <path id="패스_1194" data-name="패스 1194" d="M75.251,53.407a1.9,1.9,0,0,0-1.815-.479L56.589,57.378a1.864,1.864,0,0,0-1.328,1.309,1.833,1.833,0,0,0,.486,1.789l4.9,4.831a36.522,36.522,0,0,1-52.676-7.76,1.894,1.894,0,0,0-2.608-.491,1.835,1.835,0,0,0-.5,2.572A40.313,40.313,0,0,0,63.316,67.94l4.763,4.7a1.9,1.9,0,0,0,1.815.479,1.864,1.864,0,0,0,1.329-1.309L75.736,55.2a1.837,1.837,0,0,0-.485-1.789M68.436,67.749,60.7,60.125l10.562-2.79Z" transform="translate(0.32 2.934)"/>
        <path id="패스_1195" data-name="패스 1195" d="M37.967,77.333A40.521,40.521,0,0,1,4.559,59.872a2.23,2.23,0,0,1,.6-3.122,2.3,2.3,0,0,1,3.167.6A36.118,36.118,0,0,0,60.072,65.3l-4.583-4.519a2.232,2.232,0,0,1-.589-2.171,2.27,2.27,0,0,1,1.612-1.589l16.846-4.451a2.312,2.312,0,0,1,2.2.582,2.236,2.236,0,0,1,.589,2.171l-4.514,16.61a2.274,2.274,0,0,1-1.612,1.59,2.342,2.342,0,0,1-2.2-.583l-4.506-4.443a40.787,40.787,0,0,1-25.349,8.84M6.441,57.153a1.475,1.475,0,0,0-.825.251,1.445,1.445,0,0,0-.392,2.023,39.908,39.908,0,0,0,57.865,8.227l.28-.228,5.022,4.95a1.506,1.506,0,0,0,1.426.377,1.471,1.471,0,0,0,1.044-1.029l4.514-16.61a1.448,1.448,0,0,0-.381-1.406,1.488,1.488,0,0,0-1.427-.377l-16.848,4.45a1.471,1.471,0,0,0-1.043,1.03,1.444,1.444,0,0,0,.381,1.407l5.217,5.142-.348.277A36.93,36.93,0,0,1,7.666,57.791a1.466,1.466,0,0,0-.944-.611,1.484,1.484,0,0,0-.28-.026M68.67,68.535l-8.715-8.594L71.86,56.8Zm-7.164-8.183,6.749,6.654,2.47-9.09Z" transform="translate(0.294 2.913)" fill="#fff"/>
        <path id="패스_1196" data-name="패스 1196" d="M27.741,29.313a8.137,8.137,0,1,0-8.135,8.022,8.088,8.088,0,0,0,8.135-8.022m-12.515,0a4.38,4.38,0,1,1,4.38,4.318,4.355,4.355,0,0,1-4.38-4.318" transform="translate(0.809 1.181)"/>
        <path id="패스_1197" data-name="패스 1197" d="M19.632,37.75a8.418,8.418,0,1,1,8.538-8.417,8.488,8.488,0,0,1-8.538,8.417m0-16.043a7.626,7.626,0,1,0,7.735,7.626,7.69,7.69,0,0,0-7.735-7.626m0,12.34a4.714,4.714,0,1,1,4.781-4.714,4.753,4.753,0,0,1-4.781,4.714m0-8.636a3.923,3.923,0,1,0,3.978,3.922,3.955,3.955,0,0,0-3.978-3.922" transform="translate(0.783 1.161)" fill="#fff"/>
        <path id="패스_1198" data-name="패스 1198" d="M10.97,38.188a6.554,6.554,0,0,0-6.43,6.5v7a1.866,1.866,0,0,0,1.879,1.852h27.35a1.866,1.866,0,0,0,1.879-1.852v-7a6.555,6.555,0,0,0-6.43-6.5c-.056,0-.11-.007-.167-.007H23.356a1.887,1.887,0,0,0-1.627.926L20.094,41.9l-1.633-2.792a1.885,1.885,0,0,0-1.627-.927h-5.7c-.056,0-.11,0-.166.007m4.78,3.7,2.717,4.645a1.892,1.892,0,0,0,3.253,0l2.719-4.646h4.47c.047,0,.094.005.141.005a2.822,2.822,0,0,1,2.84,2.8v5.149H8.3V44.688a2.822,2.822,0,0,1,2.839-2.8c.047,0,.094,0,.141-.005Z" transform="translate(0.32 2.119)" fill="#e52f42"/>
        <path id="패스_1199" data-name="패스 1199" d="M33.8,53.957H6.445a2.266,2.266,0,0,1-2.28-2.248v-7a6.989,6.989,0,0,1,6.81-6.9c.062-.005.124-.007.187-.007h5.7a2.3,2.3,0,0,1,1.974,1.124l1.285,2.2,1.287-2.2a2.293,2.293,0,0,1,1.974-1.124h5.7c.067,0,.135,0,.2.008a6.982,6.982,0,0,1,6.8,6.9v7a2.266,2.266,0,0,1-2.28,2.248M11.162,38.6c-.045,0-.089,0-.134.005l-.022,0A6.186,6.186,0,0,0,4.968,44.71v7a1.469,1.469,0,0,0,1.477,1.457H33.8a1.469,1.469,0,0,0,1.477-1.457v-7a6.186,6.186,0,0,0-6.039-6.105c-.067-.005-.111-.007-.156-.007h-5.7a1.482,1.482,0,0,0-1.278.728l-1.983,3.386L18.14,39.326a1.485,1.485,0,0,0-1.278-.728ZM32.319,50.254H7.922V44.71a3.222,3.222,0,0,1,3.241-3.195l.11,0h4.736l2.833,4.844a1.487,1.487,0,0,0,2.558,0l2.835-4.844,4.843.005a3.222,3.222,0,0,1,3.242,3.195ZM8.725,49.462H31.516V44.71a2.424,2.424,0,0,0-2.439-2.4c-.058,0-.116,0-.172-.006H24.7l-2.6,4.448a2.3,2.3,0,0,1-3.949,0l-2.6-4.447H11.3c-.026,0-.084.005-.141.005a2.423,2.423,0,0,0-2.438,2.4Z" transform="translate(0.294 2.098)" fill="#fff"/>
        <path id="패스_1200" data-name="패스 1200" d="M60.336,29.313A8.137,8.137,0,1,0,52.2,37.335a8.088,8.088,0,0,0,8.135-8.022m-12.515,0a4.38,4.38,0,1,1,4.38,4.318,4.355,4.355,0,0,1-4.38-4.318" transform="translate(3.109 1.181)"/>
        <path id="패스_1201" data-name="패스 1201" d="M52.228,37.75a8.418,8.418,0,1,1,8.537-8.417,8.488,8.488,0,0,1-8.537,8.417m0-16.043a7.626,7.626,0,1,0,7.734,7.626,7.69,7.69,0,0,0-7.734-7.626m0,12.34a4.714,4.714,0,1,1,4.781-4.714,4.754,4.754,0,0,1-4.781,4.714m0-8.636a3.923,3.923,0,1,0,3.978,3.922,3.955,3.955,0,0,0-3.978-3.922" transform="translate(3.083 1.161)" fill="#fff"/>
        <path id="패스_1202" data-name="패스 1202" d="M43.566,38.188a6.554,6.554,0,0,0-6.43,6.5v7a1.866,1.866,0,0,0,1.879,1.852h27.35a1.866,1.866,0,0,0,1.879-1.852v-7a6.555,6.555,0,0,0-6.43-6.5c-.055,0-.11-.007-.167-.007H55.952a1.887,1.887,0,0,0-1.627.926L52.69,41.9l-1.633-2.792a1.885,1.885,0,0,0-1.627-.927h-5.7c-.055,0-.11,0-.166.007m4.78,3.7,2.717,4.645a1.892,1.892,0,0,0,3.253,0l2.72-4.646h4.47c.046,0,.093.005.14.005a2.822,2.822,0,0,1,2.84,2.8v5.149H40.893V44.688a2.822,2.822,0,0,1,2.839-2.8c.048,0,.1,0,.142-.005Z" transform="translate(2.621 2.119)" fill="#e52f42"/>
        <path id="패스_1203" data-name="패스 1203" d="M66.391,53.957H39.04a2.266,2.266,0,0,1-2.279-2.248v-7a6.989,6.989,0,0,1,6.81-6.9c.061-.005.125-.007.187-.007h5.7a2.3,2.3,0,0,1,1.974,1.124l1.286,2.2L54,38.93a2.293,2.293,0,0,1,1.974-1.124h5.7c.067,0,.135,0,.2.008a6.981,6.981,0,0,1,6.8,6.9v7a2.266,2.266,0,0,1-2.279,2.248M43.758,38.6c-.044,0-.089,0-.132.005l-.024,0a6.186,6.186,0,0,0-6.039,6.105v7a1.468,1.468,0,0,0,1.476,1.457H66.391a1.468,1.468,0,0,0,1.476-1.457v-7a6.185,6.185,0,0,0-6.038-6.105c-.067-.005-.111-.007-.156-.007h-5.7a1.482,1.482,0,0,0-1.278.728l-1.983,3.385-1.982-3.385a1.485,1.485,0,0,0-1.278-.728ZM64.914,50.254h-24.4V44.71a3.222,3.222,0,0,1,3.241-3.195l.11,0H48.6l2.833,4.844a1.487,1.487,0,0,0,2.558,0L56.83,41.51l4.843.005a3.222,3.222,0,0,1,3.241,3.195Zm-23.593-.792h22.79V44.71a2.423,2.423,0,0,0-2.438-2.4c-.059,0-.118,0-.172-.006H57.294l-2.6,4.448a2.3,2.3,0,0,1-3.949,0L48.14,42.3H43.9c-.026,0-.084.005-.141.005a2.423,2.423,0,0,0-2.438,2.4Z" transform="translate(2.594 2.098)" fill="#fff"/>
        <path id="패스_1204" data-name="패스 1204" d="M20.914,18.6a1.835,1.835,0,0,0-.486-1.789l-4.9-4.831A36.525,36.525,0,0,1,68.2,19.744a1.9,1.9,0,0,0,2.609.492,1.837,1.837,0,0,0,.5-2.572A40.313,40.313,0,0,0,12.858,9.352l-4.763-4.7A1.9,1.9,0,0,0,6.28,4.177,1.864,1.864,0,0,0,4.953,5.486L.438,22.1a1.835,1.835,0,0,0,.486,1.789,1.9,1.9,0,0,0,1.815.479l16.846-4.451A1.864,1.864,0,0,0,20.914,18.6m-16,1.352L7.738,9.543l7.733,7.624Z" transform="translate(0.026 0.02)"/>
        <path id="패스_1205" data-name="패스 1205" d="M2.28,24.844a2.282,2.282,0,0,1-1.612-.659,2.23,2.23,0,0,1-.59-2.171L4.592,5.4A2.268,2.268,0,0,1,6.2,3.816a2.3,2.3,0,0,1,2.2.582l4.506,4.444A40.719,40.719,0,0,1,71.67,17.462a2.232,2.232,0,0,1-.606,3.122,2.361,2.361,0,0,1-3.166-.6,36.119,36.119,0,0,0-51.742-7.949l4.582,4.518a2.234,2.234,0,0,1,.59,2.172,2.275,2.275,0,0,1-1.613,1.589L2.869,24.768a2.31,2.31,0,0,1-.589.076M6.792,4.531a1.5,1.5,0,0,0-.38.049A1.472,1.472,0,0,0,5.367,5.61L.854,22.22a1.442,1.442,0,0,0,.381,1.406A1.5,1.5,0,0,0,2.662,24l16.845-4.451a1.47,1.47,0,0,0,1.045-1.029,1.448,1.448,0,0,0-.381-1.406l-5.217-5.143L15.3,11.7a36.929,36.929,0,0,1,53.26,7.846,1.528,1.528,0,0,0,2.05.387,1.445,1.445,0,0,0,.393-2.023A39.908,39.908,0,0,0,13.14,9.679l-.282.229L7.838,4.958a1.49,1.49,0,0,0-1.046-.426M4.368,20.537,7.557,8.8l8.718,8.593ZM7.974,10.329,5.5,19.418l9.221-2.435Z" transform="translate(0 0)" fill="#fff"/>
      </g>
    </g>
  </g>
</svg>
