<svg xmlns="http://www.w3.org/2000/svg" xmlns:xlink="http://www.w3.org/1999/xlink" width="90" height="90" viewBox="0 0 90 90">
  <defs>
    <clipPath id="clip-path">
      <rect id="사각형_893" data-name="사각형 893" width="82.403" height="78.339" fill="none"/>
    </clipPath>
  </defs>
  <g id="그룹_1482" data-name="그룹 1482" transform="translate(-939 -1878)">
    <rect id="사각형_892" data-name="사각형 892" width="90" height="90" transform="translate(939 1878)" fill="none"/>
    <g id="그룹_1478" data-name="그룹 1478" transform="translate(943 1884)">
      <g id="그룹_1477" data-name="그룹 1477" clip-path="url(#clip-path)">
        <path id="패스_1214" data-name="패스 1214" d="M38.948,17.8A8.622,8.622,0,0,0,47.5,9.121a8.55,8.55,0,1,0-17.1,0A8.622,8.622,0,0,0,38.948,17.8m0-13.6a4.93,4.93,0,1,1-4.858,4.93,4.9,4.9,0,0,1,4.858-4.93" transform="translate(2.253 0.04)"/>
        <path id="패스_1215" data-name="패스 1215" d="M38.981,18.323a9.106,9.106,0,0,1-9.028-9.161,9.029,9.029,0,1,1,18.056,0,9.106,9.106,0,0,1-9.028,9.161m0-17.35a8.139,8.139,0,0,0-8.07,8.189,8.071,8.071,0,1,0,16.14,0A8.139,8.139,0,0,0,38.981.973m0,13.6a5.417,5.417,0,1,1,5.338-5.416,5.384,5.384,0,0,1-5.338,5.416m0-9.86A4.444,4.444,0,1,0,43.36,9.162a4.417,4.417,0,0,0-4.379-4.444" transform="translate(2.22)" fill="#fff"/>
        <path id="패스_1216" data-name="패스 1216" d="M24.847,36.154h29.3a1.86,1.86,0,0,0,1.845-1.873V25.4a6.963,6.963,0,0,0-6.729-7c-.057,0-.113-.008-.17-.008H42.988a1.841,1.841,0,0,0-1.6.937L39.5,22.66l-1.9-3.333a1.842,1.842,0,0,0-1.6-.936H29.9c-.058,0-.114,0-.17.008A6.962,6.962,0,0,0,23,25.4v8.884a1.859,1.859,0,0,0,1.845,1.873M26.693,25.4A3.236,3.236,0,0,1,29.9,22.141c.048,0,.1,0,.145-.005h4.891L37.9,27.343a1.832,1.832,0,0,0,3.2,0l2.959-5.207h4.893c.049,0,.1.005.147.005A3.236,3.236,0,0,1,52.3,25.4V32.41H26.693Z" transform="translate(1.705 1.654)"/>
        <path id="패스_1217" data-name="패스 1217" d="M54.181,36.681H24.88a2.345,2.345,0,0,1-2.324-2.359V25.437a7.482,7.482,0,0,1,7.2-7.485,1.8,1.8,0,0,1,.18-.008h6.1a2.326,2.326,0,0,1,2.013,1.179l1.481,2.6,1.478-2.6a2.324,2.324,0,0,1,2.013-1.18h6.105c.072,0,.143,0,.214.01A7.474,7.474,0,0,1,56.5,25.437v8.885a2.344,2.344,0,0,1-2.324,2.359M29.934,18.918a1.159,1.159,0,0,0-.124.005,6.517,6.517,0,0,0-6.3,6.513v8.885a1.378,1.378,0,0,0,1.366,1.385h29.3a1.378,1.378,0,0,0,1.366-1.385V25.437a6.509,6.509,0,0,0-6.261-6.511c-.075-.007-.117-.008-.159-.008H43.021a1.365,1.365,0,0,0-1.183.693L39.53,23.674,37.218,19.61a1.362,1.362,0,0,0-1.182-.692ZM52.815,32.936H26.247v-7.5A3.719,3.719,0,0,1,29.934,21.7l.11,0h5.2l3.1,5.45a1.412,1.412,0,0,0,2.366,0l3.1-5.449,5.316.005a3.719,3.719,0,0,1,3.689,3.742Zm-25.609-.973h24.65V25.437a2.751,2.751,0,0,0-2.729-2.768c-.061,0-.122,0-.184-.008H44.365l-2.821,4.964a2.308,2.308,0,0,1-4.028,0l-2.823-4.964H30.08a1.389,1.389,0,0,1-.146.007,2.752,2.752,0,0,0-2.728,2.768Z" transform="translate(1.672 1.614)" fill="#fff"/>
        <path id="패스_1218" data-name="패스 1218" d="M16.393,54.537a8.676,8.676,0,1,0-8.549-8.675,8.622,8.622,0,0,0,8.549,8.675m0-13.6a4.93,4.93,0,1,1-4.858,4.93,4.9,4.9,0,0,1,4.858-4.93" transform="translate(0.581 3.344)"/>
        <path id="패스_1219" data-name="패스 1219" d="M16.426,55.063A9.162,9.162,0,1,1,25.454,45.9a9.106,9.106,0,0,1-9.028,9.161m0-17.35A8.19,8.19,0,1,0,24.5,45.9a8.139,8.139,0,0,0-8.07-8.189m0,13.6A5.417,5.417,0,1,1,21.764,45.9a5.384,5.384,0,0,1-5.338,5.416m0-9.86A4.444,4.444,0,1,0,20.805,45.9a4.417,4.417,0,0,0-4.379-4.444" transform="translate(0.548 3.304)" fill="#fff"/>
        <path id="패스_1220" data-name="패스 1220" d="M26.7,55.14c-.054,0-.108-.007-.163-.007h-6.1a1.84,1.84,0,0,0-1.6.936L16.94,59.4l-1.9-3.332a1.837,1.837,0,0,0-1.6-.936h-6.1c-.054,0-.108,0-.161.007a6.96,6.96,0,0,0-6.738,7v8.885a1.86,1.86,0,0,0,1.845,1.872h29.3a1.86,1.86,0,0,0,1.845-1.872V62.137a6.96,6.96,0,0,0-6.737-7m3.046,14.01H4.137V62.137a3.236,3.236,0,0,1,3.208-3.255c.047,0,.093,0,.139-.005h4.9l2.961,5.207a1.831,1.831,0,0,0,3.2,0L21.5,58.877h4.9c.046,0,.092.005.139.005a3.236,3.236,0,0,1,3.209,3.255Z" transform="translate(0.033 4.958)"/>
        <path id="패스_1221" data-name="패스 1221" d="M31.625,73.421H2.324A2.346,2.346,0,0,1,0,71.061V62.177a7.48,7.48,0,0,1,7.206-7.485c.034,0,.1-.007.172-.007h6.1a2.324,2.324,0,0,1,2.013,1.18l1.48,2.6,1.479-2.6a2.325,2.325,0,0,1,2.014-1.179h6.1c.063,0,.127,0,.189.008a7.479,7.479,0,0,1,7.19,7.483v8.884a2.345,2.345,0,0,1-2.324,2.36M7.378,55.658l-.117.005a6.516,6.516,0,0,0-6.3,6.513v8.884a1.379,1.379,0,0,0,1.366,1.386h29.3a1.379,1.379,0,0,0,1.366-1.386V62.177a6.506,6.506,0,0,0-6.27-6.511l-.151-.008h-6.1a1.367,1.367,0,0,0-1.184.693l-2.309,4.062-2.312-4.062a1.363,1.363,0,0,0-1.182-.693Zm22.88,14.018H3.69v-7.5a3.719,3.719,0,0,1,3.689-3.742l.139-.005h5.174l3.1,5.451a1.357,1.357,0,0,0,2.367,0l3.1-5.45,5.315.005a3.719,3.719,0,0,1,3.689,3.742ZM4.649,68.7H29.3V62.177a2.751,2.751,0,0,0-2.729-2.768c-.058,0-.117,0-.176-.008l-4.584,0-2.821,4.964a2.309,2.309,0,0,1-4.028,0L12.138,59.4H7.517a1.24,1.24,0,0,1-.139.005,2.752,2.752,0,0,0-2.729,2.768Z" transform="translate(0 4.918)" fill="#fff"/>
        <path id="패스_1222" data-name="패스 1222" d="M61.5,54.537a8.676,8.676,0,1,0-8.549-8.675A8.622,8.622,0,0,0,61.5,54.537m0-13.6a4.93,4.93,0,1,1-4.858,4.93,4.9,4.9,0,0,1,4.858-4.93" transform="translate(3.925 3.344)"/>
        <path id="패스_1223" data-name="패스 1223" d="M61.537,55.063A9.162,9.162,0,1,1,70.565,45.9a9.106,9.106,0,0,1-9.028,9.161m0-17.35a8.19,8.19,0,1,0,8.07,8.189,8.139,8.139,0,0,0-8.07-8.189m0,13.6A5.417,5.417,0,1,1,66.876,45.9a5.384,5.384,0,0,1-5.338,5.416m0-9.86A4.444,4.444,0,1,0,65.916,45.9a4.417,4.417,0,0,0-4.379-4.444" transform="translate(3.892 3.304)" fill="#fff"/>
        <path id="패스_1224" data-name="패스 1224" d="M71.81,55.14c-.054,0-.107-.007-.162-.007h-6.1a1.84,1.84,0,0,0-1.6.936l-1.9,3.332L60.159,56.07a1.839,1.839,0,0,0-1.6-.937H52.455q-.081,0-.161.007a6.961,6.961,0,0,0-6.738,7v8.885A1.86,1.86,0,0,0,47.4,72.895H76.7a1.86,1.86,0,0,0,1.845-1.872V62.137a6.96,6.96,0,0,0-6.737-7m3.046,14.01H49.247V62.137a3.236,3.236,0,0,1,3.208-3.255c.047,0,.093,0,.14-.005h4.9l2.958,5.207a1.842,1.842,0,0,0,1.6.937h0a1.84,1.84,0,0,0,1.6-.936l2.961-5.208h4.9c.047,0,.093.005.14.005a3.236,3.236,0,0,1,3.208,3.255Z" transform="translate(3.377 4.958)"/>
        <path id="패스_1225" data-name="패스 1225" d="M76.733,73.421h-29.3a2.346,2.346,0,0,1-2.324-2.36V62.177a7.48,7.48,0,0,1,7.205-7.485c.037,0,.1-.007.173-.007h6.105a2.325,2.325,0,0,1,2.014,1.18l1.478,2.6,1.48-2.6a2.326,2.326,0,0,1,2.014-1.179h6.1c.063,0,.127,0,.189.008a7.479,7.479,0,0,1,7.189,7.483v8.884a2.345,2.345,0,0,1-2.324,2.36M52.488,55.658l-.119.005a6.516,6.516,0,0,0-6.3,6.513v8.884a1.379,1.379,0,0,0,1.366,1.386h29.3A1.379,1.379,0,0,0,78.1,71.061V62.177a6.506,6.506,0,0,0-6.269-6.511l-.151-.008h-6.1a1.367,1.367,0,0,0-1.184.693l-2.31,4.063-2.309-4.062a1.364,1.364,0,0,0-1.183-.694Zm22.88,14.018H48.8v-7.5a3.719,3.719,0,0,1,3.689-3.742l.14-.005H57.8l3.1,5.451a1.355,1.355,0,0,0,2.365,0l3.1-5.451,5.312.005a3.719,3.719,0,0,1,3.689,3.742ZM49.759,68.7h24.65V62.177a2.751,2.751,0,0,0-2.729-2.768c-.058,0-.117,0-.176-.008l-4.581,0L64.1,64.367a2.308,2.308,0,0,1-4.027,0L57.251,59.4H52.628a1.337,1.337,0,0,1-.14.005,2.752,2.752,0,0,0-2.729,2.768Z" transform="translate(3.344 4.918)" fill="#fff"/>
        <path id="패스_1226" data-name="패스 1226" d="M39.189,37.169a1.859,1.859,0,0,0-1.845,1.874V46.7l-9.275,5.433a1.888,1.888,0,0,0-.675,2.558,1.839,1.839,0,0,0,1.6.937,1.815,1.815,0,0,0,.921-.252l9.275-5.433,9.275,5.433a1.821,1.821,0,0,0,.922.252,1.841,1.841,0,0,0,1.6-.937,1.888,1.888,0,0,0-.676-2.558L41.034,46.7V39.043a1.859,1.859,0,0,0-1.845-1.874" transform="translate(2.012 3.343)" fill="#e52f42"/>
        <path id="패스_1227" data-name="패스 1227" d="M49.4,55.922a2.084,2.084,0,0,1-1.055-.288l-9.141-5.355-9.141,5.355a2.084,2.084,0,0,1-1.055.288,2.116,2.116,0,0,1-1.832-1.072,2.157,2.157,0,0,1-.212-1.627,2.128,2.128,0,0,1,.985-1.3l9.14-5.356v-7.5a2.115,2.115,0,1,1,4.229,0v7.5l9.141,5.356a2.166,2.166,0,0,1,.773,2.93A2.116,2.116,0,0,1,49.4,55.922m-10.2-6.271,9.409,5.513a1.594,1.594,0,0,0,1.577-2.772L40.785,46.88V39.065a1.578,1.578,0,1,0-3.155,0V46.88l-9.408,5.512a1.588,1.588,0,0,0-.735.971,1.587,1.587,0,0,0,2.312,1.8Z" transform="translate(1.994 3.32)" fill="#fff"/>
      </g>
    </g>
  </g>
</svg>
