<svg id="Group_682" data-name="Group 682" xmlns="http://www.w3.org/2000/svg" width="73.147" height="64.393" viewBox="0 0 73.147 64.393">
  <g id="Group_689" data-name="Group 689" transform="translate(14.508 0)">
    <path id="Path_1298" data-name="Path 1298" d="M281.559,104.3a22.065,22.065,0,1,1-22.065-22.064A22.065,22.065,0,0,1,281.559,104.3Z" transform="translate(-237.429 -82.239)" fill="#fff"/>
    <g id="Group_688" data-name="Group 688" transform="translate(1.24 1.253)">
      <g id="Group_687" data-name="Group 687">
        <g id="Group_686" data-name="Group 686">
          <g id="Group_685" data-name="Group 685">
            <g id="Group_684" data-name="Group 684">
              <g id="Group_682-2" data-name="Group 682">
                <path id="Path_1299" data-name="Path 1299" d="M270.721,103.645a7.289,7.289,0,0,0-10.365,2.172,7.282,7.282,0,0,1-13.169-2h0c-.009-.029-.014-.053-.021-.078s-.014-.061-.023-.092a9.339,9.339,0,0,1-.376-2.9c0-6.53,6.7-13.8,16.352-13.8a18.423,18.423,0,0,1,17,11.707c-.029-.078-.053-.149-.077-.222a20.814,20.814,0,0,0-40.5,6.751c0,10.274,7.41,19.067,17.691,19.067a16.706,16.706,0,0,0,16.229-10.93A8.017,8.017,0,0,0,270.721,103.645Z" transform="translate(-239.54 -84.371)" fill="#002b51"/>
              </g>
              <g id="Group_683" data-name="Group 683" transform="translate(7.224 2.575)">
                <path id="Path_1300" data-name="Path 1300" d="M285.315,100.864a18.351,18.351,0,0,0-17.13-12.111c-9.648,0-16.353,7.273-16.353,13.8a9.34,9.34,0,0,0,.375,2.9,6.119,6.119,0,0,1-.189-1.485c0-6.8,6.809-11.513,13.809-11.513a17.158,17.158,0,0,1,17.161,17.157,18.919,18.919,0,0,1-10.483,16.948v.006a20.853,20.853,0,0,0,12.81-25.7Z" transform="translate(-251.833 -88.753)" fill="#da0021"/>
              </g>
            </g>
          </g>
        </g>
      </g>
    </g>
  </g>
  <g id="Group_690" data-name="Group 690" transform="translate(0 51.799)">
    <path id="Path_1301" data-name="Path 1301" d="M212.74,171.534h5.028v1.317h-3.539v6.96h3.687v1.3H212.74Zm9.066-.737h1.424v11.966h-1.424V177h-1.6v5.7h-1.394V170.809h1.394v4.912h1.6Z" transform="translate(-212.74 -170.557)" fill="#fff"/>
    <path id="Path_1302" data-name="Path 1302" d="M233.774,172.8v-1.273h2.816v-1.141h1.583v1.141h2.833V172.8Zm.535,9.551v-3.634H235.8v2.33h8.155v1.3Zm5.853-6.665a2.315,2.315,0,0,1-.224.994,2.963,2.963,0,0,1-.585.814,2.94,2.94,0,0,1-3.05.548,2.632,2.632,0,0,1-.878-.548,2.861,2.861,0,0,1-.6-.814,2.215,2.215,0,0,1-.222-.994,2.288,2.288,0,0,1,.222-1.007,2.7,2.7,0,0,1,.6-.819,2.968,2.968,0,0,1,.878-.561,2.969,2.969,0,0,1,2.162,0,3.189,3.189,0,0,1,.888.561,2.788,2.788,0,0,1,.585.819A2.393,2.393,0,0,1,240.162,175.687Zm-1.441-.014a1.306,1.306,0,0,0-.384-.946,1.28,1.28,0,0,0-.943-.4,1.263,1.263,0,0,0-.936.4,1.3,1.3,0,0,0-.39.946,1.255,1.255,0,0,0,.39.932,1.292,1.292,0,0,0,.936.381,1.309,1.309,0,0,0,.943-.381A1.261,1.261,0,0,0,238.721,175.673Zm4.978-1.783h1.715v1.3H243.7v3.1h-1.491v-7.661H243.7Z" transform="translate(-221.414 -170.388)" fill="#fff"/>
    <path id="Path_1303" data-name="Path 1303" d="M256.236,177.289v-6.14h6.155v6.14Zm.35,5.233v-3.994h1.473v2.679h8.329v1.315Zm4.344-10.09H257.71v3.583h3.219Zm3.862,6.026V170.8h1.488v7.661Z" transform="translate(-230.677 -170.557)" fill="#fff"/>
    <path id="Path_1304" data-name="Path 1304" d="M286.632,178.787v4.169h-1.49V180.09h-7.869v-1.3h4.008v-1.755h-4.76v-1.3h11v1.3h-4.759v1.755Zm0-7.578v3.57h-1.49v-2.257h-7.737v-1.313Z" transform="translate(-239.042 -170.727)" fill="#fff"/>
    <path id="Path_1305" data-name="Path 1305" d="M297.791,172.418v-1.269h6.84v1.269h-2.923l3.044,3.72-1.032.859-2.469-3.073-2.426,3.272-1.071-.859,3.044-3.919Zm9.483,7.794a2.632,2.632,0,0,1-.248,1.136,3.257,3.257,0,0,1-.662.931,3.212,3.212,0,0,1-.991.638,3.241,3.241,0,0,1-2.418,0,3.091,3.091,0,0,1-.991-.638,3.148,3.148,0,0,1-.666-.931,2.639,2.639,0,0,1-.246-1.136,2.613,2.613,0,0,1,.246-1.13,3.159,3.159,0,0,1,.666-.936,2.94,2.94,0,0,1,.991-.633,3.153,3.153,0,0,1,2.418,0,3.049,3.049,0,0,1,.991.633,3.268,3.268,0,0,1,.662.936A2.606,2.606,0,0,1,307.273,180.212Zm-1.462-.01a1.556,1.556,0,0,0-.492-1.152,1.6,1.6,0,0,0-1.173-.484,1.65,1.65,0,0,0-1.633,1.637,1.634,1.634,0,0,0,1.633,1.633,1.62,1.62,0,0,0,1.173-.475A1.565,1.565,0,0,0,305.811,180.2Zm.994-3.059v-2.59H304.58v-1.287H306.8V170.8h1.484v6.346Z" transform="translate(-247.797 -170.557)" fill="#fff"/>
    <path id="Path_1306" data-name="Path 1306" d="M318.508,178.49H329.5v1.316h-4.757v3.084h-1.494v-3.084h-4.743Zm2.344-5.848h6.294v-1.513h1.474v5.752h-9.233v-5.752h1.465Zm6.294,1.289h-6.294v1.648h6.294Z" transform="translate(-256.356 -170.694)" fill="#fff"/>
  </g>
</svg>
