<svg id="Group_493" data-name="Group 493" xmlns="http://www.w3.org/2000/svg" width="74.629" height="74.629" viewBox="0 0 74.629 74.629">
  <rect id="Rectangle_1" data-name="Rectangle 1" width="74.629" height="62.683" transform="translate(0 0)" fill="#040505"/>
  <rect id="Rectangle_2" data-name="Rectangle 2" width="3.001" height="12.096" transform="translate(0 62.533)" fill="#e82418"/>
  <rect id="Rectangle_3" data-name="Rectangle 3" width="3.001" height="12.096" transform="translate(3.001 62.533)" fill="#fff"/>
  <rect id="Rectangle_4" data-name="Rectangle 4" width="3.001" height="12.096" transform="translate(6.001 62.533)" fill="#1f56a4"/>
  <rect id="Rectangle_5" data-name="Rectangle 5" width="3.001" height="12.096" transform="translate(9.002 62.533)" fill="#298836"/>
  <rect id="Rectangle_6" data-name="Rectangle 6" width="3.001" height="12.096" transform="translate(11.954 62.533)" fill="#ffea56"/>
  <rect id="Rectangle_7" data-name="Rectangle 7" width="3.001" height="12.096" transform="translate(14.923 62.533)" fill="#ec5026"/>
  <rect id="Rectangle_8" data-name="Rectangle 8" width="3.001" height="12.096" transform="translate(17.907 62.533)" fill="#191717"/>
  <rect id="Rectangle_9" data-name="Rectangle 9" width="3.001" height="12.096" transform="translate(20.892 62.533)" fill="#298836"/>
  <rect id="Rectangle_10" data-name="Rectangle 10" width="3.001" height="12.096" transform="translate(23.876 62.533)" fill="#e82418"/>
  <rect id="Rectangle_11" data-name="Rectangle 11" width="3.001" height="12.096" transform="translate(26.861 62.533)" fill="#fff"/>
  <rect id="Rectangle_12" data-name="Rectangle 12" width="3.001" height="12.096" transform="translate(29.845 62.533)" fill="#005488"/>
  <rect id="Rectangle_13" data-name="Rectangle 13" width="3.001" height="12.096" transform="translate(32.83 62.533)" fill="#ffea56"/>
  <rect id="Rectangle_14" data-name="Rectangle 14" width="3.001" height="12.096" transform="translate(35.814 62.533)" fill="#191717"/>
  <rect id="Rectangle_15" data-name="Rectangle 15" width="3.001" height="12.096" transform="translate(38.799 62.533)" fill="#f9830e"/>
  <rect id="Rectangle_16" data-name="Rectangle 16" width="3.001" height="12.096" transform="translate(41.783 62.533)" fill="#fff"/>
  <rect id="Rectangle_17" data-name="Rectangle 17" width="3.001" height="12.096" transform="translate(44.768 62.533)" fill="#bc231c"/>
  <rect id="Rectangle_18" data-name="Rectangle 18" width="3.001" height="12.096" transform="translate(47.752 62.533)" fill="#072a51"/>
  <rect id="Rectangle_19" data-name="Rectangle 19" width="3.001" height="12.096" transform="translate(50.737 62.533)" fill="#298836"/>
  <rect id="Rectangle_20" data-name="Rectangle 20" width="3.001" height="12.096" transform="translate(53.721 62.533)" fill="#ffea56"/>
  <rect id="Rectangle_21" data-name="Rectangle 21" width="3.001" height="12.096" transform="translate(56.706 62.533)" fill="#005488"/>
  <rect id="Rectangle_22" data-name="Rectangle 22" width="3.001" height="12.096" transform="translate(59.69 62.533)" fill="#e82418"/>
  <rect id="Rectangle_23" data-name="Rectangle 23" width="3.001" height="12.096" transform="translate(62.626 62.533)" fill="#277ec3"/>
  <rect id="Rectangle_24" data-name="Rectangle 24" width="3.001" height="12.096" transform="translate(65.627 62.533)" fill="#f9830e"/>
  <rect id="Rectangle_25" data-name="Rectangle 25" width="3.001" height="12.096" transform="translate(68.627 62.533)" fill="#fff"/>
  <rect id="Rectangle_26" data-name="Rectangle 26" width="3.001" height="12.096" transform="translate(71.628 62.533)" fill="#0c5454"/>
  <g id="Group_356" data-name="Group 356" transform="translate(5.847 18)">
    <path id="Path_467" data-name="Path 467" d="M150.11,244.007a4.717,4.717,0,0,1,3.385,1.287,4.27,4.27,0,0,1,1.352,3.227,4.2,4.2,0,0,1-1.365,3.212,4.852,4.852,0,0,1-3.442,1.272,4.575,4.575,0,0,1-3.3-1.272,4.239,4.239,0,0,1-1.321-3.187,4.334,4.334,0,0,1,1.33-3.253A4.641,4.641,0,0,1,150.11,244.007Zm.05,1.193a3.4,3.4,0,0,0-2.475.942,3.209,3.209,0,0,0-.969,2.405,3.15,3.15,0,0,0,.972,2.361,3.61,3.61,0,0,0,4.884-.019,3.211,3.211,0,0,0,.982-2.392,3.137,3.137,0,0,0-.982-2.345A3.334,3.334,0,0,0,150.16,245.2Z" transform="translate(-145.416 -244.007)" fill="#fff"/>
    <path id="Path_468" data-name="Path 468" d="M229.93,277.88v-8.722h2a3.464,3.464,0,0,1,2.393.766,2.726,2.726,0,0,1,.856,2.141,2.949,2.949,0,0,1-.806,2.135,2.729,2.729,0,0,1-2.053.835,3.6,3.6,0,0,1-1.223-.245v3.089Zm1.976-7.654H231.1v3.554a2.383,2.383,0,0,0,1.1.27,1.7,1.7,0,0,0,1.313-.559,2.049,2.049,0,0,0,.511-1.438,2.017,2.017,0,0,0-.241-1,1.461,1.461,0,0,0-.658-.631A2.94,2.94,0,0,0,231.906,270.225Z" transform="translate(-219.514 -266.037)" fill="#fff"/>
    <path id="Path_469" data-name="Path 469" d="M283.213,271.349h-4.063a1.885,1.885,0,0,0,.556,1.319,1.833,1.833,0,0,0,1.322.49,3.439,3.439,0,0,0,2.085-.7v1.118a3.817,3.817,0,0,1-1.046.5,4.37,4.37,0,0,1-1.215.151,2.727,2.727,0,0,1-1.545-.4,2.876,2.876,0,0,1-.945-1.064,3.252,3.252,0,0,1-.355-1.548,3.073,3.073,0,0,1,.747-2.144,2.5,2.5,0,0,1,1.94-.826,2.286,2.286,0,0,1,1.834.8,3.211,3.211,0,0,1,.684,2.154Zm-4.038-.684h2.907a1.6,1.6,0,0,0-.408-1.055,1.311,1.311,0,0,0-.979-.37,1.409,1.409,0,0,0-1.008.37A1.835,1.835,0,0,0,279.176,270.664Z" transform="translate(-261.666 -265.239)" fill="#fff"/>
    <path id="Path_470" data-name="Path 470" d="M328.822,268.36v.735a2.3,2.3,0,0,1,1.739-.848,1.917,1.917,0,0,1,1,.279,1.823,1.823,0,0,1,.706.766,3.662,3.662,0,0,1,.242,1.541v3.3h-1.143v-3.29a2.25,2.25,0,0,0-.27-1.265,1.033,1.033,0,0,0-.9-.38,1.647,1.647,0,0,0-1.375.81v4.125h-1.168V268.36Z" transform="translate(-305.192 -265.239)" fill="#fff"/>
    <path id="Path_471" data-name="Path 471" d="M151.078,345.472h2.945v3.717a8.023,8.023,0,0,1-3.215.7,4.771,4.771,0,0,1-3.482-1.271,4.209,4.209,0,0,1-1.3-3.137,4.363,4.363,0,0,1,1.35-3.271,4.673,4.673,0,0,1,3.384-1.306,6,6,0,0,1,1.407.16,11.54,11.54,0,0,1,1.683.587v1.281a6.171,6.171,0,0,0-3.114-.91,3.305,3.305,0,0,0-2.424.98,3.472,3.472,0,0,0,0,4.848,3.508,3.508,0,0,0,2.537.948,5.914,5.914,0,0,0,1.8-.345l.119-.038V346.59h-1.689Z" transform="translate(-145.948 -328.884)" fill="#fff"/>
    <path id="Path_472" data-name="Path 472" d="M222.348,365.855a3.014,3.014,0,0,1,2.192.851,2.862,2.862,0,0,1,.873,2.138,2.718,2.718,0,0,1-.885,2.075,3.141,3.141,0,0,1-2.229.826,3.013,3.013,0,0,1-2.173-.838,2.96,2.96,0,0,1,.009-4.207A3.074,3.074,0,0,1,222.348,365.855Zm-.063,1.03a1.806,1.806,0,0,0-1.35.54,1.887,1.887,0,0,0-.527,1.375,1.8,1.8,0,0,0,.54,1.353,1.909,1.909,0,0,0,1.388.524,1.878,1.878,0,0,0,1.378-.531,1.965,1.965,0,0,0-.022-2.722A1.943,1.943,0,0,0,222.285,366.885Z" transform="translate(-210.09 -350.736)" fill="#fff"/>
    <path id="Path_473" data-name="Path 473" d="M274.1,365.957h1.239l-2.552,5.877H272.4l-2.613-5.877h1.251l1.559,3.554Z" transform="translate(-254.457 -350.825)" fill="#fff"/>
    <path id="Path_474" data-name="Path 474" d="M322.259,368.148H318.2a1.886,1.886,0,0,0,.556,1.319,1.833,1.833,0,0,0,1.322.49,3.44,3.44,0,0,0,2.085-.7v1.118a3.817,3.817,0,0,1-1.045.5,4.373,4.373,0,0,1-1.215.151,2.728,2.728,0,0,1-1.545-.4,2.878,2.878,0,0,1-.945-1.064,3.254,3.254,0,0,1-.355-1.548,3.072,3.072,0,0,1,.747-2.144,2.5,2.5,0,0,1,1.94-.826,2.286,2.286,0,0,1,1.834.8,3.211,3.211,0,0,1,.684,2.154Zm-4.037-.684h2.907a1.6,1.6,0,0,0-.408-1.055,1.312,1.312,0,0,0-.98-.37,1.409,1.409,0,0,0-1.008.37A1.835,1.835,0,0,0,318.221,367.464Z" transform="translate(-295.899 -350.027)" fill="#fff"/>
    <path id="Path_475" data-name="Path 475" d="M368.657,365.159v1.325l.063-.1q.829-1.337,1.658-1.337a2.044,2.044,0,0,1,1.35.653l-.6,1a1.693,1.693,0,0,0-1.105-.565,1.184,1.184,0,0,0-.958.527,1.992,1.992,0,0,0-.4,1.249v3.02h-1.149v-5.777Z" transform="translate(-340.132 -350.027)" fill="#fff"/>
    <path id="Path_476" data-name="Path 476" d="M406.835,365.159v.735a2.3,2.3,0,0,1,1.74-.848,1.915,1.915,0,0,1,1,.279,1.824,1.824,0,0,1,.707.766,3.664,3.664,0,0,1,.242,1.541v3.3h-1.143v-3.29a2.248,2.248,0,0,0-.27-1.265,1.032,1.032,0,0,0-.9-.38,1.647,1.647,0,0,0-1.375.81v4.125h-1.168v-5.777Z" transform="translate(-373.59 -350.027)" fill="#fff"/>
    <path id="Path_477" data-name="Path 477" d="M457.925,366.652v4.195h-1.149v-3.215a2.526,2.526,0,0,0-.257-1.341,1.006,1.006,0,0,0-.9-.38,1.346,1.346,0,0,0-.656.163,2.893,2.893,0,0,0-.681.578v4.195H453.14V365.07h1.143v.76a2.487,2.487,0,0,1,1.708-.873,1.877,1.877,0,0,1,1.7,1.042,2.579,2.579,0,0,1,1.915-1.055,1.765,1.765,0,0,1,1.385.615,2.775,2.775,0,0,1,.543,1.878v3.41h-1.143v-3.422a1.783,1.783,0,0,0-.3-1.105,1.007,1.007,0,0,0-.848-.383A1.754,1.754,0,0,0,457.925,366.652Z" transform="translate(-415.228 -349.938)" fill="#fff"/>
    <path id="Path_478" data-name="Path 478" d="M532.234,368.148h-4.063a1.886,1.886,0,0,0,.556,1.319,1.833,1.833,0,0,0,1.322.49,3.439,3.439,0,0,0,2.084-.7v1.118a3.816,3.816,0,0,1-1.045.5,4.372,4.372,0,0,1-1.215.151,2.727,2.727,0,0,1-1.545-.4,2.878,2.878,0,0,1-.945-1.064,3.255,3.255,0,0,1-.355-1.548,3.073,3.073,0,0,1,.747-2.144,2.5,2.5,0,0,1,1.94-.826,2.286,2.286,0,0,1,1.833.8,3.211,3.211,0,0,1,.685,2.154Zm-4.038-.684H531.1a1.6,1.6,0,0,0-.408-1.055,1.312,1.312,0,0,0-.98-.37,1.408,1.408,0,0,0-1.008.37A1.835,1.835,0,0,0,528.2,367.464Z" transform="translate(-479.995 -350.027)" fill="#fff"/>
    <path id="Path_479" data-name="Path 479" d="M577.843,365.159v.735a2.3,2.3,0,0,1,1.739-.848,1.916,1.916,0,0,1,1,.279,1.824,1.824,0,0,1,.706.766,3.665,3.665,0,0,1,.242,1.541v3.3h-1.143v-3.29a2.25,2.25,0,0,0-.27-1.265,1.033,1.033,0,0,0-.9-.38,1.646,1.646,0,0,0-1.375.81v4.125h-1.168v-5.777Z" transform="translate(-523.552 -350.027)" fill="#fff"/>
    <path id="Path_480" data-name="Path 480" d="M620.1,358.451l2.148-2.11v1.193h1.827v1.03h-1.827v2.827q0,.99.823.991a2.552,2.552,0,0,0,1.3-.408v1.067a2.885,2.885,0,0,1-1.438.37,1.906,1.906,0,0,1-1.306-.458,1.3,1.3,0,0,1-.27-.311,1.645,1.645,0,0,1-.179-.452,5.078,5.078,0,0,1-.072-1.064v-2.562h-1Z" transform="translate(-561.586 -342.402)" fill="#fff"/>
    <path id="Path_481" data-name="Path 481" d="M148,447.3v-8.785h2.782a2.867,2.867,0,0,1,2,.678,2.338,2.338,0,0,1,.747,1.821,2.436,2.436,0,0,1-.383,1.356,2.19,2.19,0,0,1-1.049.857,5.334,5.334,0,0,1-1.909.267h-.929V447.3Zm2.562-7.667h-1.3v2.744h1.375a1.743,1.743,0,0,0,1.181-.361,1.3,1.3,0,0,0,.414-1.033Q152.229,439.635,150.559,439.635Z" transform="translate(-147.677 -414.382)" fill="#fff"/>
    <path id="Path_482" data-name="Path 482" d="M200.47,464.264v2.455q0,.3.2.3a1.382,1.382,0,0,0,.647-.308v.7a3.732,3.732,0,0,1-.625.342,1.356,1.356,0,0,1-.493.091q-.735,0-.866-.578a2.487,2.487,0,0,1-1.551.565,1.369,1.369,0,0,1-1-.4,1.352,1.352,0,0,1-.4-1,1.41,1.41,0,0,1,.392-.976,2.656,2.656,0,0,1,1.115-.681l1.463-.5v-.308a.921.921,0,0,0-1.042-1.042,2.511,2.511,0,0,0-1.821.967v-1.25a2.372,2.372,0,0,1,1.915-.785,2.211,2.211,0,0,1,1.5.49,1.54,1.54,0,0,1,.339.418,1.507,1.507,0,0,1,.191.521A7.715,7.715,0,0,1,200.47,464.264Zm-1.124,2.33v-1.714l-.766.3a2.587,2.587,0,0,0-.826.468.846.846,0,0,0-.013,1.171.809.809,0,0,0,.593.226A1.437,1.437,0,0,0,199.346,466.593Z" transform="translate(-190.053 -434.816)" fill="#fff"/>
    <path id="Path_483" data-name="Path 483" d="M244.034,461.959v1.325l.063-.1q.829-1.337,1.658-1.337a2.044,2.044,0,0,1,1.35.653l-.6,1a1.693,1.693,0,0,0-1.105-.565,1.184,1.184,0,0,0-.958.527,1.992,1.992,0,0,0-.4,1.249v3.02h-1.149v-5.777Z" transform="translate(-230.871 -434.816)" fill="#fff"/>
    <path id="Path_484" data-name="Path 484" d="M278.866,455.252l2.147-2.11v1.193h1.827v1.03h-1.827v2.827q0,.99.823.991a2.551,2.551,0,0,0,1.3-.408v1.068a2.885,2.885,0,0,1-1.438.37,1.9,1.9,0,0,1-1.306-.458,1.3,1.3,0,0,1-.27-.311,1.647,1.647,0,0,1-.179-.452,5.067,5.067,0,0,1-.072-1.064v-2.562h-1Z" transform="translate(-262.417 -427.192)" fill="#fff"/>
    <path id="Path_485" data-name="Path 485" d="M320.872,461.959v.735a2.3,2.3,0,0,1,1.739-.848,1.916,1.916,0,0,1,1,.279,1.823,1.823,0,0,1,.706.766,3.664,3.664,0,0,1,.242,1.542v3.3h-1.143v-3.29a2.25,2.25,0,0,0-.27-1.265,1.033,1.033,0,0,0-.9-.38,1.646,1.646,0,0,0-1.375.81v4.125H319.7v-5.777Z" transform="translate(-298.222 -434.816)" fill="#fff"/>
    <path id="Path_486" data-name="Path 486" d="M370.51,464.948h-4.063a1.886,1.886,0,0,0,.556,1.319,1.833,1.833,0,0,0,1.322.49,3.44,3.44,0,0,0,2.085-.7v1.118a3.819,3.819,0,0,1-1.046.5,4.369,4.369,0,0,1-1.215.151,2.727,2.727,0,0,1-1.545-.4,2.879,2.879,0,0,1-.945-1.064,3.254,3.254,0,0,1-.355-1.548,3.073,3.073,0,0,1,.747-2.144,2.5,2.5,0,0,1,1.94-.826,2.286,2.286,0,0,1,1.834.8,3.212,3.212,0,0,1,.685,2.154Zm-4.038-.684h2.907a1.6,1.6,0,0,0-.408-1.055,1.312,1.312,0,0,0-.98-.37,1.409,1.409,0,0,0-1.008.37A1.837,1.837,0,0,0,366.472,464.264Z" transform="translate(-338.203 -434.816)" fill="#fff"/>
    <path id="Path_487" data-name="Path 487" d="M416.908,461.959v1.325l.063-.1q.829-1.337,1.658-1.337a2.043,2.043,0,0,1,1.35.653l-.6,1a1.693,1.693,0,0,0-1.105-.565,1.184,1.184,0,0,0-.958.527,1.992,1.992,0,0,0-.405,1.249v3.02h-1.149v-5.777Z" transform="translate(-382.436 -434.816)" fill="#fff"/>
    <path id="Path_488" data-name="Path 488" d="M453.916,467.322v-1.231a5.206,5.206,0,0,0,.989.549,2.3,2.3,0,0,0,.851.21,1.065,1.065,0,0,0,.615-.176.505.505,0,0,0,.257-.421.567.567,0,0,0-.166-.418,3.874,3.874,0,0,0-.719-.48A5.09,5.09,0,0,1,454.3,464.3a1.509,1.509,0,0,1-.342-.951,1.336,1.336,0,0,1,.518-1.086,2.05,2.05,0,0,1,1.334-.421,3.676,3.676,0,0,1,1.739.477v1.13a3.48,3.48,0,0,0-1.664-.615.925.925,0,0,0-.537.141.435.435,0,0,0-.2.374.538.538,0,0,0,.185.384,3.157,3.157,0,0,0,.65.44l.408.232q1.445.816,1.445,1.808a1.439,1.439,0,0,1-.556,1.165,2.182,2.182,0,0,1-1.429.455,3.484,3.484,0,0,1-.917-.11A6.148,6.148,0,0,1,453.916,467.322Z" transform="translate(-415.888 -434.816)" fill="#fff"/>
    <path id="Path_489" data-name="Path 489" d="M493.8,438.618h1.143v3.755a2.211,2.211,0,0,1,1.777-.873,1.9,1.9,0,0,1,1.036.289,1.75,1.75,0,0,1,.681.8,3.946,3.946,0,0,1,.223,1.513v3.29h-1.143v-3.573a1.579,1.579,0,0,0-.311-1.02,1,1,0,0,0-.82-.386,1.385,1.385,0,0,0-.71.195,3.221,3.221,0,0,0-.735.647v4.138H493.8Z" transform="translate(-450.857 -414.47)" fill="#fff"/>
    <path id="Path_490" data-name="Path 490" d="M543.8,443.172a.67.67,0,0,1,.483.195.639.639,0,0,1,.2.477.651.651,0,0,1-.2.477.659.659,0,0,1-.483.2.633.633,0,0,1-.465-.2.653.653,0,0,1,0-.942A.634.634,0,0,1,543.8,443.172Zm-.565,2.43h1.143v5.777h-1.143Z" transform="translate(-494.099 -418.459)" fill="#fff"/>
    <path id="Path_491" data-name="Path 491" d="M563.788,471.479v-8.722h2a3.463,3.463,0,0,1,2.392.766,2.725,2.725,0,0,1,.856,2.141,2.948,2.948,0,0,1-.806,2.135,2.729,2.729,0,0,1-2.053.835,3.6,3.6,0,0,1-1.223-.245v3.089Zm1.976-7.654h-.808v3.554a2.386,2.386,0,0,0,1.1.27,1.7,1.7,0,0,0,1.313-.559,2.048,2.048,0,0,0,.511-1.438,2.018,2.018,0,0,0-.241-1,1.462,1.462,0,0,0-.658-.631A2.94,2.94,0,0,0,565.764,463.824Z" transform="translate(-512.265 -435.614)" fill="#fff"/>
  </g>
</svg>
