<svg xmlns="http://www.w3.org/2000/svg" width="102" height="60" viewBox="0 0 102 60">
  <g id="Group_3262" data-name="Group 3262" transform="translate(-520 -101)">
    <g id="Group_751" data-name="Group 751" transform="translate(542.475 117.028)">
      <path id="Path_1506" data-name="Path 1506" d="M290.516,367.91h-9.189v-9.189h9.189Zm-8.538-.651h7.887v-7.887h-7.887Z" transform="translate(-278.721 -342.899)"/>
      <rect id="Rectangle_809" data-name="Rectangle 809" width="14.336" height="0.651" transform="translate(0.081 13.687)"/>
      <path id="Path_1507" data-name="Path 1507" d="M276.028,355.9h-5.392v-.651h4.74V351.3h.651Z" transform="translate(-270.636 -337.288)"/>
      <path id="Path_1508" data-name="Path 1508" d="M313.005,355.9H307.6V351.3h.651v3.943h4.756Z" transform="translate(-298.589 -337.288)"/>
      <path id="Path_1509" data-name="Path 1509" d="M308.249,389.54H307.6v-4.548h5.346v.651h-4.7Z" transform="translate(-298.589 -362.767)"/>
      <path id="Path_1510" data-name="Path 1510" d="M276.278,389.54h-.651v-3.9h-4.66v-.651h5.311Z" transform="translate(-270.887 -362.767)"/>
      <path id="Path_1511" data-name="Path 1511" d="M290.516,420.26h-9.189v-9.189h9.189Zm-8.538-.651h7.887v-7.887h-7.887Z" transform="translate(-278.721 -382.489)"/>
      <rect id="Rectangle_810" data-name="Rectangle 810" width="14.336" height="0.651" transform="translate(0.081 26.447)"/>
      <path id="Path_1512" data-name="Path 1512" d="M276.028,408.245h-5.392v-.651h4.74v-3.943h.651Z" transform="translate(-270.636 -376.877)"/>
      <path id="Path_1513" data-name="Path 1513" d="M313.005,408.245H307.6v-4.595h.651v3.943h4.756Z" transform="translate(-298.589 -376.877)"/>
      <path id="Path_1514" data-name="Path 1514" d="M308.249,443.159H307.6v-5.817h5.346v.651h-4.7Z" transform="translate(-298.589 -402.357)"/>
      <path id="Path_1515" data-name="Path 1515" d="M276.278,443.159h-.651v-5.166h-4.66v-.651h5.311Z" transform="translate(-270.887 -402.357)"/>
      <path id="Path_1516" data-name="Path 1516" d="M290.516,315.56h-9.189v-9.189h9.189Zm-8.538-.651h7.887v-7.887h-7.887Z" transform="translate(-278.721 -303.31)"/>
      <path id="Path_1517" data-name="Path 1517" d="M276.028,299.659h-5.392v-.651h4.74v-5.2h.651Z" transform="translate(-270.636 -293.812)"/>
      <path id="Path_1518" data-name="Path 1518" d="M313.005,299.659H307.6v-5.847h.651v5.2h4.756Z" transform="translate(-298.589 -293.812)"/>
      <path id="Path_1519" data-name="Path 1519" d="M308.249,337.19H307.6v-4.548h5.346v.651h-4.7Z" transform="translate(-298.589 -323.177)"/>
      <path id="Path_1520" data-name="Path 1520" d="M276.278,337.19h-.651v-3.9h-4.66v-.651h5.311Z" transform="translate(-270.887 -323.177)"/>
    </g>
    <path id="Path_1536" data-name="Path 1536" d="M279.657,304.481h-3.349V290.7a6.426,6.426,0,1,0-12.851,0v13.781h-3.349V290.7a9.775,9.775,0,1,1,19.549,0Z" transform="translate(279.804 -166.964)" fill="#dc000c"/>
    <path id="Path_1537" data-name="Path 1537" d="M269.883,401.127a9.786,9.786,0,0,1-9.775-9.775V377.571h3.349v13.782a6.426,6.426,0,0,0,12.851,0V377.571h3.349v13.782A9.786,9.786,0,0,1,269.883,401.127Z" transform="translate(279.804 -240.127)" fill="#003f88"/>
    <g id="Group_3261" data-name="Group 3261">
      <g id="Group_755" data-name="Group 755" transform="translate(520 101)">
        <g id="Group_752" data-name="Group 752">
          <path id="Path_1521" data-name="Path 1521" d="M181.009,234.959a3.432,3.432,0,0,1-1.505-.3,2.117,2.117,0,0,1-.963-.932,3.659,3.659,0,0,1-.379-1.582q-.01-.45-.01-.865t.01-.865a3.493,3.493,0,0,1,.394-1.572,2.256,2.256,0,0,1,.983-.942,3.588,3.588,0,0,1,2.929,0,2.287,2.287,0,0,1,.988.942,3.369,3.369,0,0,1,.389,1.572q.02.45.021.865t-.021.865a3.524,3.524,0,0,1-.374,1.582,2.147,2.147,0,0,1-.968.932A3.406,3.406,0,0,1,181.009,234.959Zm0-.87a1.777,1.777,0,0,0,1.275-.471,2.145,2.145,0,0,0,.538-1.526q.02-.461.02-.824t-.02-.814a2.543,2.543,0,0,0-.261-1.147,1.517,1.517,0,0,0-.64-.645,2.131,2.131,0,0,0-1.823,0,1.516,1.516,0,0,0-.64.645,2.627,2.627,0,0,0-.271,1.147q-.011.45-.01.814t.01.824a2.131,2.131,0,0,0,.543,1.526A1.8,1.8,0,0,0,181.009,234.089Z" transform="translate(-178.152 -227.586)"/>
          <path id="Path_1522" data-name="Path 1522" d="M209.483,234.959a3.225,3.225,0,0,1-1.541-.338,2.311,2.311,0,0,1-.963-.952,3.336,3.336,0,0,1-.374-1.444q-.011-.45-.01-.957t.01-.968a3.3,3.3,0,0,1,.374-1.439,2.283,2.283,0,0,1,.968-.942,3.276,3.276,0,0,1,1.536-.333,3.481,3.481,0,0,1,1.249.2,2.761,2.761,0,0,1,.876.517,2.258,2.258,0,0,1,.512.65,1.5,1.5,0,0,1,.179.594.166.166,0,0,1-.051.149.234.234,0,0,1-.164.056h-.6a.22.22,0,0,1-.149-.041.383.383,0,0,1-.087-.143,1.715,1.715,0,0,0-.3-.522,1.612,1.612,0,0,0-.563-.425,2.073,2.073,0,0,0-.9-.169,1.91,1.91,0,0,0-1.316.44,1.969,1.969,0,0,0-.538,1.454q-.031.912,0,1.823a1.99,1.99,0,0,0,.543,1.47,1.9,1.9,0,0,0,1.311.445,2.2,2.2,0,0,0,.968-.2,1.546,1.546,0,0,0,.671-.62,2.056,2.056,0,0,0,.246-1.06v-.43h-1.536a.228.228,0,0,1-.169-.066.242.242,0,0,1-.067-.179V231.2a.242.242,0,0,1,.067-.179.229.229,0,0,1,.169-.067h2.314a.226.226,0,0,1,.174.067.254.254,0,0,1,.061.179v.983a3,3,0,0,1-.343,1.464,2.357,2.357,0,0,1-1,.968A3.316,3.316,0,0,1,209.483,234.959Z" transform="translate(-199.662 -227.586)"/>
          <path id="Path_1523" data-name="Path 1523" d="M236.575,235.174a.224.224,0,0,1-.174-.067.24.24,0,0,1-.062-.169v-6.687a.254.254,0,0,1,.062-.179.225.225,0,0,1,.174-.067h2.6a3.246,3.246,0,0,1,1.316.246,1.9,1.9,0,0,1,.865.732,2.233,2.233,0,0,1,.307,1.214,2.206,2.206,0,0,1-.307,1.208,1.914,1.914,0,0,1-.865.727,3.246,3.246,0,0,1-1.316.245h-1.812v2.56a.23.23,0,0,1-.067.169.243.243,0,0,1-.179.067Zm.778-3.656h1.772a1.662,1.662,0,0,0,1.137-.338,1.248,1.248,0,0,0,.379-.983,1.287,1.287,0,0,0-.369-.983,1.625,1.625,0,0,0-1.147-.348h-1.772Z" transform="translate(-222.156 -227.904)"/>
        </g>
        <g id="Group_753" data-name="Group 753" transform="translate(22.799)">
          <path id="Path_1524" data-name="Path 1524" d="M274.97,234.959a3.226,3.226,0,0,1-1.541-.338,2.314,2.314,0,0,1-.963-.952,3.344,3.344,0,0,1-.374-1.444q-.01-.45-.01-.957t.01-.968a3.307,3.307,0,0,1,.374-1.439,2.285,2.285,0,0,1,.968-.942,3.276,3.276,0,0,1,1.536-.333,3.478,3.478,0,0,1,1.249.2,2.761,2.761,0,0,1,.876.517,2.254,2.254,0,0,1,.512.65,1.5,1.5,0,0,1,.179.594.165.165,0,0,1-.051.149.233.233,0,0,1-.164.056h-.6a.219.219,0,0,1-.148-.041.377.377,0,0,1-.087-.143,1.72,1.72,0,0,0-.3-.522,1.613,1.613,0,0,0-.563-.425,2.074,2.074,0,0,0-.9-.169,1.911,1.911,0,0,0-1.316.44,1.969,1.969,0,0,0-.537,1.454q-.031.912,0,1.823a1.991,1.991,0,0,0,.543,1.47,1.9,1.9,0,0,0,1.311.445,2.2,2.2,0,0,0,.968-.2,1.547,1.547,0,0,0,.671-.62,2.056,2.056,0,0,0,.246-1.06v-.43h-1.536a.228.228,0,0,1-.169-.066.241.241,0,0,1-.067-.179V231.2a.241.241,0,0,1,.067-.179.229.229,0,0,1,.169-.067h2.314a.225.225,0,0,1,.174.067.254.254,0,0,1,.062.179v.983a3,3,0,0,1-.343,1.464,2.359,2.359,0,0,1-1,.968A3.316,3.316,0,0,1,274.97,234.959Z" transform="translate(-272.082 -227.586)"/>
          <path id="Path_1525" data-name="Path 1525" d="M302.062,235.174a.225.225,0,0,1-.174-.067.239.239,0,0,1-.061-.169v-6.7a.24.24,0,0,1,.061-.169.226.226,0,0,1,.174-.067h.543a.228.228,0,0,1,.235.235v6.042h3.4a.229.229,0,0,1,.246.246v.41a.229.229,0,0,1-.067.169.242.242,0,0,1-.179.067Z" transform="translate(-294.577 -227.904)"/>
          <path id="Path_1526" data-name="Path 1526" d="M326.782,234.959a3.432,3.432,0,0,1-1.505-.3,2.117,2.117,0,0,1-.963-.932,3.659,3.659,0,0,1-.379-1.582q-.011-.45-.01-.865t.01-.865a3.494,3.494,0,0,1,.394-1.572,2.256,2.256,0,0,1,.983-.942,3.588,3.588,0,0,1,2.929,0,2.288,2.288,0,0,1,.988.942,3.368,3.368,0,0,1,.389,1.572q.02.45.021.865t-.021.865a3.524,3.524,0,0,1-.374,1.582,2.148,2.148,0,0,1-.968.932A3.408,3.408,0,0,1,326.782,234.959Zm0-.87a1.777,1.777,0,0,0,1.275-.471,2.145,2.145,0,0,0,.538-1.526q.02-.461.02-.824t-.02-.814a2.543,2.543,0,0,0-.261-1.147,1.518,1.518,0,0,0-.64-.645,2.131,2.131,0,0,0-1.823,0,1.518,1.518,0,0,0-.64.645,2.63,2.63,0,0,0-.271,1.147q-.01.45-.01.814t.01.824a2.13,2.13,0,0,0,.543,1.526A1.8,1.8,0,0,0,326.782,234.089Z" transform="translate(-311.288 -227.586)"/>
          <path id="Path_1527" data-name="Path 1527" d="M353.737,235.174a.225.225,0,0,1-.174-.067.239.239,0,0,1-.061-.169v-6.687a.254.254,0,0,1,.061-.179.225.225,0,0,1,.174-.067h2.806a2.735,2.735,0,0,1,1.255.251,1.633,1.633,0,0,1,.717.681,2.006,2.006,0,0,1,.231.963,1.72,1.72,0,0,1-.138.722,1.519,1.519,0,0,1-.343.491,1.92,1.92,0,0,1-.4.292,1.909,1.909,0,0,1,.711.635,1.794,1.794,0,0,1,.313,1.065,2.132,2.132,0,0,1-.256,1.034,1.884,1.884,0,0,1-.763.753,2.53,2.53,0,0,1-1.244.281Zm.768-4.137h1.884a1.447,1.447,0,0,0,.994-.3,1.05,1.05,0,0,0,.338-.824.972.972,0,0,0-.338-.8,1.538,1.538,0,0,0-.994-.277h-1.884Zm0,3.308h1.987a1.371,1.371,0,0,0,1.014-.358,1.28,1.28,0,0,0,0-1.777,1.383,1.383,0,0,0-1.014-.353h-1.987Z" transform="translate(-333.656 -227.904)"/>
          <path id="Path_1528" data-name="Path 1528" d="M378.621,235.174a.21.21,0,0,1-.2-.2.688.688,0,0,1,.01-.113l2.54-6.626a.415.415,0,0,1,.113-.164.323.323,0,0,1,.215-.061h.7a.324.324,0,0,1,.215.061.42.42,0,0,1,.113.164l2.529,6.626a.367.367,0,0,1,.02.113.21.21,0,0,1-.2.2h-.522a.232.232,0,0,1-.179-.061.383.383,0,0,1-.077-.113l-.563-1.454h-3.359L379.4,235a.237.237,0,0,1-.072.113.25.25,0,0,1-.184.061Zm1.639-2.509h2.765l-1.383-3.636Z" transform="translate(-352.497 -227.904)"/>
          <path id="Path_1529" data-name="Path 1529" d="M409.614,235.174a.225.225,0,0,1-.174-.067.24.24,0,0,1-.061-.169v-6.7a.24.24,0,0,1,.061-.169.226.226,0,0,1,.174-.067h.543a.228.228,0,0,1,.236.235v6.042h3.4a.229.229,0,0,1,.246.246v.41a.229.229,0,0,1-.067.169.242.242,0,0,1-.179.067Z" transform="translate(-375.913 -227.904)"/>
        </g>
        <g id="Group_754" data-name="Group 754" transform="translate(64.139)">
          <path id="Path_1530" data-name="Path 1530" d="M445.156,234.959a3.588,3.588,0,0,1-1.5-.276,2.323,2.323,0,0,1-.927-.712,1.636,1.636,0,0,1-.343-.917.205.205,0,0,1,.067-.149.217.217,0,0,1,.159-.066h.522a.25.25,0,0,1,.184.061.3.3,0,0,1,.082.143,1.267,1.267,0,0,0,.256.487,1.44,1.44,0,0,0,.558.4,2.357,2.357,0,0,0,.937.159,2.159,2.159,0,0,0,1.3-.312.992.992,0,0,0,.415-.835.782.782,0,0,0-.22-.579,1.933,1.933,0,0,0-.671-.394q-.45-.174-1.167-.379a6.752,6.752,0,0,1-1.239-.471,1.849,1.849,0,0,1-.732-.635,1.766,1.766,0,0,1-.241-.963,1.712,1.712,0,0,1,.3-.988,2.02,2.02,0,0,1,.86-.691,3.249,3.249,0,0,1,1.352-.256,3.321,3.321,0,0,1,1.111.169,2.379,2.379,0,0,1,.794.451,2.066,2.066,0,0,1,.481.6,1.5,1.5,0,0,1,.174.63.226.226,0,0,1-.051.138.2.2,0,0,1-.164.067h-.543a.314.314,0,0,1-.149-.041.265.265,0,0,1-.118-.154,1.036,1.036,0,0,0-.471-.706,1.819,1.819,0,0,0-1.065-.287,2.035,2.035,0,0,0-1.081.256.969.969,0,0,0-.22,1.377,1.582,1.582,0,0,0,.614.4,10.489,10.489,0,0,0,1.1.369,8.2,8.2,0,0,1,1.342.476,1.885,1.885,0,0,1,.773.625,1.684,1.684,0,0,1,.251.957,1.8,1.8,0,0,1-.338,1.1,2.108,2.108,0,0,1-.947.7A3.908,3.908,0,0,1,445.156,234.959Z" transform="translate(-442.391 -227.586)"/>
          <path id="Path_1531" data-name="Path 1531" d="M472.926,235.277a3.3,3.3,0,0,1-1.48-.307,2.124,2.124,0,0,1-.952-.937,3.462,3.462,0,0,1-.333-1.623v-4.158a.255.255,0,0,1,.061-.179.226.226,0,0,1,.174-.067h.522a.229.229,0,0,1,.246.246v4.178a2.052,2.052,0,0,0,.471,1.485,1.964,1.964,0,0,0,2.576,0,2.037,2.037,0,0,0,.476-1.485v-4.178a.242.242,0,0,1,.067-.179.23.23,0,0,1,.169-.067h.533a.23.23,0,0,1,.169.067.242.242,0,0,1,.067.179v4.158a3.465,3.465,0,0,1-.333,1.623,2.132,2.132,0,0,1-.947.937A3.293,3.293,0,0,1,472.926,235.277Z" transform="translate(-463.392 -227.904)"/>
          <path id="Path_1532" data-name="Path 1532" d="M500.1,235.174a.228.228,0,0,1-.235-.235v-6.687a.242.242,0,0,1,.067-.179.23.23,0,0,1,.169-.067h.512a.25.25,0,0,1,.184.061.444.444,0,0,1,.082.1l2.161,4.137,2.181-4.137a.489.489,0,0,1,.077-.1.232.232,0,0,1,.179-.061h.5a.229.229,0,0,1,.246.246v6.687a.229.229,0,0,1-.066.169.242.242,0,0,1-.179.067h-.5a.228.228,0,0,1-.236-.235V229.9l-1.71,3.338a.34.34,0,0,1-.123.159.353.353,0,0,1-.2.056h-.318a.326.326,0,0,1-.2-.056.457.457,0,0,1-.123-.159l-1.72-3.338v5.038a.228.228,0,0,1-.236.235Z" transform="translate(-485.855 -227.904)"/>
          <path id="Path_1533" data-name="Path 1533" d="M533.457,235.174a.228.228,0,0,1-.235-.235v-6.687a.243.243,0,0,1,.066-.179.23.23,0,0,1,.169-.067h.512a.25.25,0,0,1,.184.061.453.453,0,0,1,.082.1l2.161,4.137,2.181-4.137a.493.493,0,0,1,.077-.1.232.232,0,0,1,.179-.061h.5a.229.229,0,0,1,.246.246v6.687a.229.229,0,0,1-.066.169.243.243,0,0,1-.179.067h-.5a.228.228,0,0,1-.236-.235V229.9l-1.71,3.338a.338.338,0,0,1-.123.159.353.353,0,0,1-.2.056h-.317a.325.325,0,0,1-.205-.056.457.457,0,0,1-.123-.159l-1.72-3.338v5.038a.228.228,0,0,1-.235.235Z" transform="translate(-511.082 -227.904)"/>
          <path id="Path_1534" data-name="Path 1534" d="M566.815,235.174a.224.224,0,0,1-.174-.067.239.239,0,0,1-.062-.169v-6.7a.24.24,0,0,1,.062-.169.225.225,0,0,1,.174-.067h.543a.227.227,0,0,1,.174.067.241.241,0,0,1,.061.169v6.7a.24.24,0,0,1-.061.169.226.226,0,0,1-.174.067Z" transform="translate(-536.308 -227.904)"/>
          <path id="Path_1535" data-name="Path 1535" d="M577.881,235.174a.228.228,0,0,1-.236-.235v-6.022h-1.966a.228.228,0,0,1-.235-.235v-.43a.241.241,0,0,1,.067-.179.229.229,0,0,1,.169-.067h4.936a.229.229,0,0,1,.246.246v.43a.229.229,0,0,1-.066.169.243.243,0,0,1-.179.067h-1.956v6.022a.229.229,0,0,1-.067.169.242.242,0,0,1-.179.067Z" transform="translate(-543.012 -227.904)"/>
        </g>
      </g>
      <g id="Group_756" data-name="Group 756" transform="translate(520.022 114.567)">
        <path id="Path_1538" data-name="Path 1538" d="M195.56,283.722h-6.334l-5.768,7.667v-7.667h-5.213v20.741h5.213V296.8l5.768,7.667h6.334L187.7,294.092Z" transform="translate(-178.245 -283.72)"/>
        <path id="Path_1539" data-name="Path 1539" d="M367.755,304.458h5.584l-4.5-8.231a6.6,6.6,0,0,0-2.954-12.511H355.432v20.741h5.213v-7.533h3Zm-7.11-16.7H364.5a2.566,2.566,0,1,1,0,5.132h-3.856Z" transform="translate(-312.38 -283.716)"/>
        <path id="Path_1540" data-name="Path 1540" d="M454.945,287.991v-4.27H439.531v20.741h15.414v-4.27h-10.2v-3.966h9.189v-4.27h-9.189v-3.966Z" transform="translate(-376.039 -283.72)"/>
        <path id="Path_1541" data-name="Path 1541" d="M526.377,304.463H531.7l-7.549-20.741h-6.18l-7.549,20.741h5.321l1.322-3.633h7.991Zm-7.759-7.9,2.441-6.708,2.441,6.708Z" transform="translate(-429.721 -283.721)"/>
        <path id="Path_1542" data-name="Path 1542" d="M194.449,392.374c.143-.949.662-7.566-7.547-7.566-8.766,0-8.27,7.566-8.27,7.566h5.2s.173-3.237,2.739-3.237,2.4,2.049,2.4,2.156.195,1.443-1.748,3.145-8.253,7.217-8.531,7.475a1.353,1.353,0,0,0-.442.87,1.289,1.289,0,0,0-.007.13v3.033h16.577v-4.27h-8.975c1.415-1.191,4.8-4.043,6.075-5.151A7.615,7.615,0,0,0,194.449,392.374Z" transform="translate(-178.245 -360.168)"/>
        <path id="Path_1543" data-name="Path 1543" d="M370.045,392.374c.143-.949.662-7.566-7.547-7.566-8.766,0-8.27,7.566-8.27,7.566h5.2s.173-3.237,2.739-3.237,2.4,2.049,2.4,2.156.195,1.443-1.748,3.145-8.253,7.217-8.531,7.475a1.353,1.353,0,0,0-.442.87,1.289,1.289,0,0,0-.007.13v3.033h16.577v-4.27h-8.975c1.415-1.191,4.8-4.043,6.075-5.151A7.615,7.615,0,0,0,370.045,392.374Z" transform="translate(-311.174 -360.168)"/>
        <path id="Path_1544" data-name="Path 1544" d="M446.207,386.41a.733.733,0,0,0-.452.158l0,0-6.222,4.672v5.509l5.936-4.458v14.863h5.213V386.41Z" transform="translate(-376.03 -361.379)"/>
      </g>
    </g>
  </g>
</svg>
