<svg id="Group_3086" data-name="Group 3086" xmlns="http://www.w3.org/2000/svg" width="60" height="60" viewBox="0 0 60 60">
  <rect id="Rectangle_1" data-name="Rectangle 1" width="60" height="50.396" transform="translate(0 0)" fill="#040505"/>
  <rect id="Rectangle_2" data-name="Rectangle 2" width="2.412" height="9.725" transform="translate(0 50.275)" fill="#e82418"/>
  <rect id="Rectangle_3" data-name="Rectangle 3" width="2.412" height="9.725" transform="translate(2.412 50.275)" fill="#fff"/>
  <rect id="Rectangle_4" data-name="Rectangle 4" width="2.412" height="9.725" transform="translate(4.825 50.275)" fill="#1f56a4"/>
  <rect id="Rectangle_5" data-name="Rectangle 5" width="2.412" height="9.725" transform="translate(7.237 50.275)" fill="#298836"/>
  <rect id="Rectangle_6" data-name="Rectangle 6" width="2.412" height="9.725" transform="translate(9.611 50.275)" fill="#ffea56"/>
  <rect id="Rectangle_7" data-name="Rectangle 7" width="2.412" height="9.725" transform="translate(11.997 50.275)" fill="#ec5026"/>
  <rect id="Rectangle_8" data-name="Rectangle 8" width="2.412" height="9.725" transform="translate(14.397 50.275)" fill="#191717"/>
  <rect id="Rectangle_9" data-name="Rectangle 9" width="2.412" height="9.725" transform="translate(16.796 50.275)" fill="#298836"/>
  <rect id="Rectangle_10" data-name="Rectangle 10" width="2.412" height="9.725" transform="translate(19.196 50.275)" fill="#e82418"/>
  <rect id="Rectangle_11" data-name="Rectangle 11" width="2.412" height="9.725" transform="translate(21.595 50.275)" fill="#fff"/>
  <rect id="Rectangle_12" data-name="Rectangle 12" width="2.412" height="9.725" transform="translate(23.995 50.275)" fill="#005488"/>
  <rect id="Rectangle_13" data-name="Rectangle 13" width="2.412" height="9.725" transform="translate(26.394 50.275)" fill="#ffea56"/>
  <rect id="Rectangle_14" data-name="Rectangle 14" width="2.412" height="9.725" transform="translate(28.794 50.275)" fill="#191717"/>
  <rect id="Rectangle_15" data-name="Rectangle 15" width="2.412" height="9.725" transform="translate(31.193 50.275)" fill="#f9830e"/>
  <rect id="Rectangle_16" data-name="Rectangle 16" width="2.412" height="9.725" transform="translate(33.593 50.275)" fill="#fff"/>
  <rect id="Rectangle_17" data-name="Rectangle 17" width="2.412" height="9.725" transform="translate(35.992 50.275)" fill="#bc231c"/>
  <rect id="Rectangle_18" data-name="Rectangle 18" width="2.412" height="9.725" transform="translate(38.392 50.275)" fill="#072a51"/>
  <rect id="Rectangle_19" data-name="Rectangle 19" width="2.412" height="9.725" transform="translate(40.791 50.275)" fill="#298836"/>
  <rect id="Rectangle_20" data-name="Rectangle 20" width="2.412" height="9.725" transform="translate(43.191 50.275)" fill="#ffea56"/>
  <rect id="Rectangle_21" data-name="Rectangle 21" width="2.412" height="9.725" transform="translate(45.59 50.275)" fill="#005488"/>
  <rect id="Rectangle_22" data-name="Rectangle 22" width="2.412" height="9.725" transform="translate(47.989 50.275)" fill="#e82418"/>
  <rect id="Rectangle_23" data-name="Rectangle 23" width="2.412" height="9.725" transform="translate(50.35 50.275)" fill="#277ec3"/>
  <rect id="Rectangle_24" data-name="Rectangle 24" width="2.412" height="9.725" transform="translate(52.762 50.275)" fill="#f9830e"/>
  <rect id="Rectangle_25" data-name="Rectangle 25" width="2.412" height="9.725" transform="translate(55.175 50.275)" fill="#fff"/>
  <rect id="Rectangle_26" data-name="Rectangle 26" width="2.412" height="9.725" transform="translate(57.587 50.275)" fill="#0c5454"/>
  <g id="Group_356" data-name="Group 356" transform="translate(4.701 14.472)">
    <path id="Path_467" data-name="Path 467" d="M149.19,244.007a3.792,3.792,0,0,1,2.722,1.035A3.433,3.433,0,0,1,153,247.637a3.378,3.378,0,0,1-1.1,2.582,3.9,3.9,0,0,1-2.767,1.022,3.678,3.678,0,0,1-2.656-1.022,3.408,3.408,0,0,1-1.062-2.562,3.485,3.485,0,0,1,1.07-2.615A3.731,3.731,0,0,1,149.19,244.007Zm.04.959a2.737,2.737,0,0,0-1.99.757,2.58,2.58,0,0,0-.779,1.934,2.532,2.532,0,0,0,.782,1.9,2.9,2.9,0,0,0,3.927-.015,2.582,2.582,0,0,0,.789-1.923,2.522,2.522,0,0,0-.789-1.886A2.681,2.681,0,0,0,149.23,244.966Z" transform="translate(-145.416 -244.007)" fill="#fff"/>
    <path id="Path_468" data-name="Path 468" d="M229.93,276.17v-7.012h1.609a2.785,2.785,0,0,1,1.924.616,2.191,2.191,0,0,1,.688,1.722,2.371,2.371,0,0,1-.648,1.716,2.194,2.194,0,0,1-1.651.672,2.892,2.892,0,0,1-.983-.2v2.484Zm1.589-6.154h-.65v2.857a1.916,1.916,0,0,0,.887.217,1.365,1.365,0,0,0,1.055-.449,1.647,1.647,0,0,0,.411-1.156,1.621,1.621,0,0,0-.194-.8,1.175,1.175,0,0,0-.529-.507A2.364,2.364,0,0,0,231.519,270.016Z" transform="translate(-221.556 -266.649)" fill="#fff"/>
    <path id="Path_469" data-name="Path 469" d="M282.193,270.741h-3.266a1.516,1.516,0,0,0,.447,1.06,1.474,1.474,0,0,0,1.063.394,2.765,2.765,0,0,0,1.676-.565v.9a3.069,3.069,0,0,1-.841.4,3.514,3.514,0,0,1-.977.121,2.192,2.192,0,0,1-1.242-.318,2.312,2.312,0,0,1-.76-.856,2.615,2.615,0,0,1-.285-1.244,2.47,2.47,0,0,1,.6-1.724,2.006,2.006,0,0,1,1.56-.664,1.838,1.838,0,0,1,1.474.646,2.582,2.582,0,0,1,.55,1.732Zm-3.246-.55h2.337a1.284,1.284,0,0,0-.328-.848,1.054,1.054,0,0,0-.788-.3,1.133,1.133,0,0,0-.81.3A1.475,1.475,0,0,0,278.947,270.191Z" transform="translate(-264.869 -265.829)" fill="#fff"/>
    <path id="Path_470" data-name="Path 470" d="M328.593,268.338v.591a1.847,1.847,0,0,1,1.4-.682,1.541,1.541,0,0,1,.808.225,1.466,1.466,0,0,1,.568.616,2.944,2.944,0,0,1,.194,1.239v2.656h-.919v-2.645a1.809,1.809,0,0,0-.217-1.017.83.83,0,0,0-.727-.305,1.324,1.324,0,0,0-1.106.651v3.317h-.939v-4.645Z" transform="translate(-309.595 -265.829)" fill="#fff"/>
    <path id="Path_471" data-name="Path 471" d="M150.087,344.577h2.368v2.989a6.451,6.451,0,0,1-2.585.565,3.836,3.836,0,0,1-2.8-1.022,3.384,3.384,0,0,1-1.048-2.522,3.508,3.508,0,0,1,1.085-2.63,3.757,3.757,0,0,1,2.721-1.05,4.822,4.822,0,0,1,1.131.129,9.279,9.279,0,0,1,1.353.472v1.03a4.962,4.962,0,0,0-2.5-.732,2.657,2.657,0,0,0-1.949.788,2.792,2.792,0,0,0,0,3.9,2.821,2.821,0,0,0,2.04.762,4.755,4.755,0,0,0,1.449-.278l.1-.03v-1.469h-1.358Z" transform="translate(-145.962 -331.24)" fill="#fff"/>
    <path id="Path_472" data-name="Path 472" d="M221.741,365.855a2.423,2.423,0,0,1,1.762.684,2.3,2.3,0,0,1,.7,1.719,2.185,2.185,0,0,1-.712,1.668,2.525,2.525,0,0,1-1.792.664,2.423,2.423,0,0,1-1.747-.674,2.38,2.38,0,0,1,.008-3.382A2.471,2.471,0,0,1,221.741,365.855Zm-.05.828a1.452,1.452,0,0,0-1.085.434,1.517,1.517,0,0,0-.424,1.106,1.449,1.449,0,0,0,.434,1.088,1.535,1.535,0,0,0,1.116.422,1.51,1.51,0,0,0,1.108-.427,1.58,1.58,0,0,0-.018-2.189A1.562,1.562,0,0,0,221.69,366.683Z" transform="translate(-211.886 -353.7)" fill="#fff"/>
    <path id="Path_473" data-name="Path 473" d="M273.251,365.957h1l-2.051,4.725h-.311l-2.1-4.725h1.006l1.253,2.857Z" transform="translate(-257.462 -353.791)" fill="#fff"/>
    <path id="Path_474" data-name="Path 474" d="M321.238,367.54h-3.266a1.516,1.516,0,0,0,.447,1.06,1.474,1.474,0,0,0,1.063.394,2.766,2.766,0,0,0,1.676-.565v.9a3.067,3.067,0,0,1-.84.4,3.515,3.515,0,0,1-.977.121,2.193,2.193,0,0,1-1.242-.318,2.314,2.314,0,0,1-.76-.856,2.617,2.617,0,0,1-.285-1.244,2.47,2.47,0,0,1,.6-1.724,2.006,2.006,0,0,1,1.56-.664,1.838,1.838,0,0,1,1.474.646,2.582,2.582,0,0,1,.55,1.732Zm-3.246-.55h2.337a1.284,1.284,0,0,0-.328-.848,1.055,1.055,0,0,0-.788-.3,1.133,1.133,0,0,0-.81.3A1.475,1.475,0,0,0,317.992,366.99Z" transform="translate(-300.046 -352.971)" fill="#fff"/>
    <path id="Path_475" data-name="Path 475" d="M368.432,365.137V366.2l.051-.081q.666-1.075,1.333-1.075a1.644,1.644,0,0,1,1.086.525l-.485.808a1.361,1.361,0,0,0-.888-.454.952.952,0,0,0-.77.424,1.6,1.6,0,0,0-.326,1v2.428h-.924v-4.645Z" transform="translate(-345.498 -352.971)" fill="#fff"/>
    <path id="Path_476" data-name="Path 476" d="M406.606,365.137v.591a1.847,1.847,0,0,1,1.4-.682,1.54,1.54,0,0,1,.808.225,1.467,1.467,0,0,1,.568.616,2.946,2.946,0,0,1,.194,1.239v2.656h-.919v-2.645a1.807,1.807,0,0,0-.217-1.017.83.83,0,0,0-.727-.305,1.324,1.324,0,0,0-1.106.651v3.317h-.939v-4.645Z" transform="translate(-379.878 -352.971)" fill="#fff"/>
    <path id="Path_477" data-name="Path 477" d="M456.987,366.317v3.372h-.924V367.1a2.031,2.031,0,0,0-.207-1.078.809.809,0,0,0-.722-.305,1.082,1.082,0,0,0-.528.131,2.327,2.327,0,0,0-.548.464v3.372h-.919v-4.644h.919v.611a2,2,0,0,1,1.373-.7,1.509,1.509,0,0,1,1.368.838,2.074,2.074,0,0,1,1.54-.848,1.419,1.419,0,0,1,1.113.495,2.231,2.231,0,0,1,.437,1.509v2.741h-.919v-2.751a1.433,1.433,0,0,0-.237-.889.809.809,0,0,0-.682-.308A1.41,1.41,0,0,0,456.987,366.317Z" transform="translate(-422.66 -352.879)" fill="#fff"/>
    <path id="Path_478" data-name="Path 478" d="M531.213,367.54h-3.266a1.516,1.516,0,0,0,.447,1.06,1.474,1.474,0,0,0,1.063.394,2.765,2.765,0,0,0,1.676-.565v.9a3.066,3.066,0,0,1-.84.4,3.515,3.515,0,0,1-.977.121,2.193,2.193,0,0,1-1.242-.318,2.314,2.314,0,0,1-.76-.856,2.617,2.617,0,0,1-.285-1.244,2.47,2.47,0,0,1,.6-1.724,2.007,2.007,0,0,1,1.56-.664,1.838,1.838,0,0,1,1.474.646,2.582,2.582,0,0,1,.55,1.732Zm-3.246-.55H530.3a1.284,1.284,0,0,0-.328-.848,1.055,1.055,0,0,0-.787-.3,1.132,1.132,0,0,0-.81.3A1.476,1.476,0,0,0,527.967,366.99Z" transform="translate(-489.214 -352.971)" fill="#fff"/>
    <path id="Path_479" data-name="Path 479" d="M577.614,365.137v.591a1.847,1.847,0,0,1,1.4-.682,1.541,1.541,0,0,1,.808.225,1.467,1.467,0,0,1,.568.616,2.947,2.947,0,0,1,.194,1.239v2.656h-.919v-2.645a1.809,1.809,0,0,0-.217-1.017.83.83,0,0,0-.727-.305,1.324,1.324,0,0,0-1.106.651v3.317h-.939v-4.645Z" transform="translate(-533.966 -352.971)" fill="#fff"/>
    <path id="Path_480" data-name="Path 480" d="M620.1,358.037l1.727-1.7v.959h1.469v.828h-1.469V360.4q0,.8.661.8a2.051,2.051,0,0,0,1.045-.328v.858a2.319,2.319,0,0,1-1.156.3,1.532,1.532,0,0,1-1.05-.368,1.047,1.047,0,0,1-.217-.25,1.324,1.324,0,0,1-.144-.363,4.084,4.084,0,0,1-.058-.856v-2.06H620.1Z" transform="translate(-573.055 -345.135)" fill="#fff"/>
    <path id="Path_481" data-name="Path 481" d="M148,445.58v-7.063h2.236a2.3,2.3,0,0,1,1.611.545,1.88,1.88,0,0,1,.6,1.464,1.959,1.959,0,0,1-.308,1.09,1.761,1.761,0,0,1-.843.689,4.289,4.289,0,0,1-1.535.215h-.747v3.059Zm2.06-6.164h-1.045v2.206h1.106a1.4,1.4,0,0,0,.949-.29,1.042,1.042,0,0,0,.333-.831Q151.4,439.416,150.057,439.416Z" transform="translate(-147.74 -419.113)" fill="#fff"/>
    <path id="Path_482" data-name="Path 482" d="M199.668,463.79v1.974q0,.237.162.237a1.111,1.111,0,0,0,.52-.248v.56a3,3,0,0,1-.5.275,1.09,1.09,0,0,1-.4.073q-.591,0-.7-.464a2,2,0,0,1-1.247.454,1.1,1.1,0,0,1-.808-.321,1.087,1.087,0,0,1-.323-.805,1.133,1.133,0,0,1,.316-.785,2.136,2.136,0,0,1,.9-.548l1.176-.4v-.247a.741.741,0,0,0-.838-.838,2.019,2.019,0,0,0-1.464.777v-1a1.907,1.907,0,0,1,1.54-.631,1.777,1.777,0,0,1,1.207.394,1.237,1.237,0,0,1,.273.336,1.211,1.211,0,0,1,.154.419A6.205,6.205,0,0,1,199.668,463.79Zm-.9,1.873v-1.378l-.616.237a2.08,2.08,0,0,0-.664.376.68.68,0,0,0-.01.941.65.65,0,0,0,.477.182A1.155,1.155,0,0,0,198.764,465.663Z" transform="translate(-191.292 -440.115)" fill="#fff"/>
    <path id="Path_483" data-name="Path 483" d="M243.809,461.937V463l.05-.081q.666-1.075,1.333-1.075a1.643,1.643,0,0,1,1.085.525l-.485.808a1.361,1.361,0,0,0-.889-.454.952.952,0,0,0-.77.424,1.6,1.6,0,0,0-.326,1v2.428h-.924v-4.644Z" transform="translate(-233.226 -440.115)" fill="#fff"/>
    <path id="Path_484" data-name="Path 484" d="M278.866,454.838l1.727-1.7v.959h1.469v.828h-1.469V457.2q0,.8.661.8a2.051,2.051,0,0,0,1.045-.328v.858a2.32,2.32,0,0,1-1.156.3,1.532,1.532,0,0,1-1.05-.368,1.046,1.046,0,0,1-.217-.25,1.324,1.324,0,0,1-.144-.363,4.073,4.073,0,0,1-.058-.856v-2.06h-.808Z" transform="translate(-265.641 -432.279)" fill="#fff"/>
    <path id="Path_485" data-name="Path 485" d="M320.643,461.937v.591a1.847,1.847,0,0,1,1.4-.681,1.54,1.54,0,0,1,.808.225,1.465,1.465,0,0,1,.568.616,2.946,2.946,0,0,1,.194,1.239v2.655h-.919v-2.645a1.809,1.809,0,0,0-.217-1.017.83.83,0,0,0-.727-.305,1.324,1.324,0,0,0-1.106.651v3.317H319.7v-4.644Z" transform="translate(-302.433 -440.115)" fill="#fff"/>
    <path id="Path_486" data-name="Path 486" d="M369.489,464.34h-3.266a1.516,1.516,0,0,0,.447,1.06,1.474,1.474,0,0,0,1.063.394,2.766,2.766,0,0,0,1.676-.565v.9a3.071,3.071,0,0,1-.841.4,3.514,3.514,0,0,1-.977.121,2.193,2.193,0,0,1-1.242-.318,2.314,2.314,0,0,1-.76-.856,2.616,2.616,0,0,1-.285-1.244,2.47,2.47,0,0,1,.6-1.724,2.006,2.006,0,0,1,1.56-.664,1.838,1.838,0,0,1,1.474.646,2.582,2.582,0,0,1,.55,1.732Zm-3.246-.55h2.337a1.283,1.283,0,0,0-.328-.848,1.055,1.055,0,0,0-.788-.3,1.133,1.133,0,0,0-.81.3A1.477,1.477,0,0,0,366.243,463.79Z" transform="translate(-343.515 -440.115)" fill="#fff"/>
    <path id="Path_487" data-name="Path 487" d="M416.683,461.937V463l.05-.081q.666-1.075,1.333-1.075a1.643,1.643,0,0,1,1.085.525l-.485.808a1.361,1.361,0,0,0-.889-.454.952.952,0,0,0-.77.424,1.6,1.6,0,0,0-.326,1v2.428h-.924v-4.644Z" transform="translate(-388.968 -440.115)" fill="#fff"/>
    <path id="Path_488" data-name="Path 488" d="M453.916,466.248v-.99a4.187,4.187,0,0,0,.8.442,1.853,1.853,0,0,0,.684.169.856.856,0,0,0,.495-.141.406.406,0,0,0,.207-.338.456.456,0,0,0-.134-.336,3.114,3.114,0,0,0-.578-.386,4.092,4.092,0,0,1-1.164-.846,1.213,1.213,0,0,1-.275-.765,1.074,1.074,0,0,1,.417-.873,1.648,1.648,0,0,1,1.073-.338,2.955,2.955,0,0,1,1.4.384v.909a2.8,2.8,0,0,0-1.338-.495.744.744,0,0,0-.432.114.35.35,0,0,0-.164.3.433.433,0,0,0,.149.308,2.538,2.538,0,0,0,.522.353l.328.187q1.162.656,1.162,1.454a1.157,1.157,0,0,1-.447.936,1.754,1.754,0,0,1-1.149.366,2.8,2.8,0,0,1-.737-.088A4.944,4.944,0,0,1,453.916,466.248Z" transform="translate(-423.342 -440.115)" fill="#fff"/>
    <path id="Path_489" data-name="Path 489" d="M493.8,438.618h.919v3.019a1.777,1.777,0,0,1,1.429-.7,1.53,1.53,0,0,1,.833.232,1.407,1.407,0,0,1,.548.641,3.171,3.171,0,0,1,.179,1.217v2.645h-.919V442.8a1.27,1.27,0,0,0-.25-.82.8.8,0,0,0-.659-.311,1.113,1.113,0,0,0-.57.156,2.589,2.589,0,0,0-.591.52v3.327H493.8Z" transform="translate(-459.275 -419.204)" fill="#fff"/>
    <path id="Path_490" data-name="Path 490" d="M543.674,443.172a.539.539,0,0,1,.389.157.514.514,0,0,1,.162.384.524.524,0,0,1-.162.384.529.529,0,0,1-.389.161.509.509,0,0,1-.374-.164.525.525,0,0,1,0-.757A.509.509,0,0,1,543.674,443.172Zm-.454,1.954h.919v4.645h-.919Z" transform="translate(-503.712 -423.303)" fill="#fff"/>
    <path id="Path_491" data-name="Path 491" d="M563.788,469.769v-7.012H565.4a2.784,2.784,0,0,1,1.923.616,2.191,2.191,0,0,1,.688,1.722,2.37,2.37,0,0,1-.648,1.716,2.194,2.194,0,0,1-1.651.671,2.891,2.891,0,0,1-.983-.2v2.484Zm1.589-6.154h-.65v2.857a1.918,1.918,0,0,0,.887.217,1.365,1.365,0,0,0,1.055-.449,1.647,1.647,0,0,0,.411-1.156,1.622,1.622,0,0,0-.194-.8,1.175,1.175,0,0,0-.529-.507A2.364,2.364,0,0,0,565.377,463.615Z" transform="translate(-522.364 -440.935)" fill="#fff"/>
  </g>
</svg>
