<svg xmlns="http://www.w3.org/2000/svg" width="252.001" height="44" viewBox="0 0 252.001 44">
  <g id="그룹_3624" data-name="그룹 3624" transform="translate(-89.999 -13)">
    <rect id="사각형_2609" data-name="사각형 2609" width="252" height="44" transform="translate(90 13)" fill="none"/>
    <g id="그룹_4510" data-name="그룹 4510" transform="translate(33.539 -1.215)">
      <g id="그룹_4513" data-name="그룹 4513" transform="translate(56.46 14.306)">
        <g id="그룹_4510-2" data-name="그룹 4510" transform="translate(11.423 14.851)">
          <path id="패스_2485" data-name="패스 2485" d="M94.943,43.482v.724H87.9v-.718l-3.381-.006v.724H79.171v3.032l.519,0h0a3.863,3.863,0,0,0-.794,2.518h0a3.972,3.972,0,0,0,.976,2.487h0a4.165,4.165,0,0,0,3.261,1.5h6.545v-.655h.372v.638l9.673.016-.006-3.14H98.326V47.311h1.4l.006-3.1H98.373v-.729Zm.173.9v-.723l3.085-.006h0v.729h1.356c0,.158,0,2.6-.006,2.76h-1.4v3.634h1.392c0,.157,0,2.636,0,2.8h0l-9.328-.016h0v-.638h-.716v.654H83.134a3.989,3.989,0,0,1-3.127-1.435h0a3.8,3.8,0,0,1-.938-2.378h0a3.666,3.666,0,0,1,.855-2.549h0l.125-.143-.706,0h0V44.378H84.7v-.723l3.035.006h0v.717Z" transform="translate(-78.896 -43.477)" fill="#fff"/>
        </g>
        <path id="패스_2486" data-name="패스 2486" d="M93.669,50.245a.856.856,0,1,0,.942.851A.875.875,0,0,0,93.669,50.245ZM85.88,48.7a.729.729,0,1,0-.722.826A.77.77,0,0,0,85.88,48.7Zm7.673-.615a.8.8,0,1,0-.79.921A.835.835,0,0,0,93.553,48.082Zm5.922-.786V45.515H98.1v-.692H96.1v.692H87.681v-.692H85.675v.692H80.393V47.3h1.589a3.119,3.119,0,0,0-1.813,3.069,3.42,3.42,0,0,0,3.5,3.232h5.826v-.625h1.65V53.6h8.332V51.817H98.1V47.3ZM84.362,46.67h1.6v.469h-1.6Zm-.69,2.027a1.059,1.059,0,0,1,.553-.891h-.566v-.47h3v.47h-.566a1.06,1.06,0,0,1,.552.891c0,.63-.64,1.142-1.487,1.142S83.671,49.327,83.671,48.7Zm4.353,3.55-2.8,0a.839.839,0,0,1-.933-.88V50.274h.885v1.5h2.844Zm.611-3.741H87.97v2h-.814V46.67h.814v1.367h.666Zm2.508-.424a1.654,1.654,0,1,1,1.619,1.324A1.478,1.478,0,0,1,91.144,48.082Zm4.975-.254h-.691v.677h.691v.469h-.691V51.1h0c-.007.719-.781,1.306-1.757,1.306s-1.751-.587-1.757-1.306.782-1.3,1.757-1.3a2.191,2.191,0,0,1,.942.2V46.67h.817v.689h.691Z" transform="translate(-68.098 -29.286)" fill="#fff"/>
        <g id="그룹_4511" data-name="그룹 4511" transform="translate(17.202 27.764)">
          <path id="패스_2487" data-name="패스 2487" d="M92.377,71.923h-2.12v-.447l.762-.769q.338-.346.441-.481a1,1,0,0,0,.15-.247.637.637,0,0,0,.045-.237.346.346,0,0,0-.1-.271.4.4,0,0,0-.269-.089.779.779,0,0,0-.342.08,1.729,1.729,0,0,0-.347.23l-.349-.413a2.251,2.251,0,0,1,.371-.268,1.344,1.344,0,0,1,.322-.122,1.64,1.64,0,0,1,.39-.043,1.161,1.161,0,0,1,.5.1.8.8,0,0,1,.338.29.768.768,0,0,1,.121.428,1.03,1.03,0,0,1-.074.392,1.506,1.506,0,0,1-.228.377,5.764,5.764,0,0,1-.545.549l-.39.367v.029h1.322Z" transform="translate(-90.248 -68.843)" fill="#fff"/>
          <path id="패스_2488" data-name="패스 2488" d="M97.121,70.4a2.11,2.11,0,0,1-.261,1.177,1.012,1.012,0,0,1-1.593-.013A2.086,2.086,0,0,1,95,70.4a2.127,2.127,0,0,1,.26-1.182,1.009,1.009,0,0,1,1.592.017A2.09,2.09,0,0,1,97.121,70.4Zm-1.484,0a2.376,2.376,0,0,0,.1.8.335.335,0,0,0,.325.242.339.339,0,0,0,.324-.245,3.243,3.243,0,0,0,0-1.6.337.337,0,0,0-.648,0A2.359,2.359,0,0,0,95.637,70.4Z" transform="translate(-92.581 -68.839)" fill="#fff"/>
          <path id="패스_2489" data-name="패스 2489" d="M101.89,70.4a2.114,2.114,0,0,1-.261,1.177.9.9,0,0,1-.8.381.894.894,0,0,1-.792-.394A2.077,2.077,0,0,1,99.77,70.4a2.127,2.127,0,0,1,.26-1.182,1.009,1.009,0,0,1,1.592.017A2.086,2.086,0,0,1,101.89,70.4Zm-1.484,0a2.347,2.347,0,0,0,.1.8.338.338,0,0,0,.649,0,3.212,3.212,0,0,0,0-1.6.336.336,0,0,0-.647,0A2.343,2.343,0,0,0,100.406,70.4Z" transform="translate(-94.922 -68.839)" fill="#fff"/>
          <path id="패스_2490" data-name="패스 2490" d="M106.684,71.923h-2.12v-.447l.761-.769q.339-.346.442-.481a1.033,1.033,0,0,0,.149-.247.628.628,0,0,0,.046-.237.346.346,0,0,0-.1-.271.4.4,0,0,0-.269-.089.779.779,0,0,0-.343.08,1.773,1.773,0,0,0-.347.23l-.348-.413a2.251,2.251,0,0,1,.371-.268,1.32,1.32,0,0,1,.322-.122,1.637,1.637,0,0,1,.39-.043,1.159,1.159,0,0,1,.5.1.8.8,0,0,1,.338.29.772.772,0,0,1,.12.428,1.05,1.05,0,0,1-.073.392,1.506,1.506,0,0,1-.228.377,5.722,5.722,0,0,1-.545.549l-.39.367v.029h1.322Z" transform="translate(-97.272 -68.843)" fill="#fff"/>
        </g>
        <path id="패스_2491" data-name="패스 2491" d="M78.37,14.306a21.909,21.909,0,1,0,21.907,21.91A21.934,21.934,0,0,0,78.37,14.306Zm0,43.487A21.578,21.578,0,1,1,99.946,36.216,21.6,21.6,0,0,1,78.37,57.793Z" transform="translate(-56.46 -14.306)" fill="#fff"/>
        <path id="합치기_17" data-name="합치기 17" d="M0,20.628A20.626,20.626,0,1,1,20.627,41.254,20.628,20.628,0,0,1,0,20.628ZM24.989,38.134c-.238.482-.29,1.165,0,1.3s.8-.313,1.031-.794a1.4,1.4,0,0,0,.155-.664,1.4,1.4,0,0,0,.529.431c.479.238,1.162.288,1.3,0s-.314-.8-.8-1.034a1.394,1.394,0,0,0-.663-.152,1.4,1.4,0,0,0,.432-.527c.236-.481.288-1.166,0-1.305a.253.253,0,0,0-.117-.026c-.291,0-.707.4-.915.823a1.367,1.367,0,0,0-.154.662,1.416,1.416,0,0,0-.527-.433c-.482-.237-1.166-.286-1.3,0s.314.8.8,1.035a1.421,1.421,0,0,0,.665.156A1.377,1.377,0,0,0,24.989,38.134Zm-9.622.509c.238.481.748.937,1.034.794s.233-.82,0-1.3a1.377,1.377,0,0,0-.432-.525,1.415,1.415,0,0,0,.664-.156c.48-.237.937-.748.8-1.035s-.823-.234-1.3,0a1.392,1.392,0,0,0-.527.433,1.381,1.381,0,0,0-.153-.662c-.209-.422-.625-.823-.916-.823a.257.257,0,0,0-.117.026c-.284.14-.234.824,0,1.305a1.42,1.42,0,0,0,.432.527,1.393,1.393,0,0,0-.664.152c-.482.238-.936.751-.8,1.034s.824.235,1.3,0a1.377,1.377,0,0,0,.527-.431A1.4,1.4,0,0,0,15.366,38.643Zm4.531-.277a.729.729,0,1,0,.731-.727A.73.73,0,0,0,19.9,38.366Zm8.2-1.743a3.369,3.369,0,0,0,1.662.5,2.986,2.986,0,0,0,1.576-.456,2.742,2.742,0,0,0-1.573-.524h-.016A3.342,3.342,0,0,0,28.1,36.623Zm-18.047.04a2.982,2.982,0,0,0,1.576.456,3.376,3.376,0,0,0,1.663-.5,3.35,3.35,0,0,0-1.652-.484h-.014A2.739,2.739,0,0,0,10.049,36.663Zm18.432-1.9a3.312,3.312,0,0,0-.56,1.565,3.14,3.14,0,0,0,1.216-1.009,2.508,2.508,0,0,0,.464-1.494A2.672,2.672,0,0,0,28.481,34.759Zm-16.235.557a3.146,3.146,0,0,0,1.217,1.009,3.294,3.294,0,0,0-.56-1.565,2.678,2.678,0,0,0-1.119-.937A2.512,2.512,0,0,0,12.246,35.316ZM32.168,34.5a3.527,3.527,0,0,0-1.588.893,3.534,3.534,0,0,0,1.815.114,3.142,3.142,0,0,0,1.5-.838,2.9,2.9,0,0,0-1.144-.231A2.628,2.628,0,0,0,32.168,34.5Zm-24.683.168a3.139,3.139,0,0,0,1.5.838A3.533,3.533,0,0,0,10.8,35.4,3.531,3.531,0,0,0,9.216,34.5a2.633,2.633,0,0,0-.588-.063A2.9,2.9,0,0,0,7.485,34.672Zm23.046-1.143a3.31,3.31,0,0,0-.192,1.655,3.2,3.2,0,0,0,.959-1.257,2.523,2.523,0,0,0,.111-1.561A2.7,2.7,0,0,0,30.531,33.529Zm-20.446.4a3.192,3.192,0,0,0,.959,1.257,3.3,3.3,0,0,0-.192-1.655,2.686,2.686,0,0,0-.877-1.164A2.526,2.526,0,0,0,10.085,33.926Zm-3.5-13.311A14.04,14.04,0,1,0,20.627,6.573,14.042,14.042,0,0,0,6.586,20.615ZM34.158,32.354c.077.542.428,1.146.751,1.1s.488-.725.41-1.267a1.427,1.427,0,0,0-.253-.65,1.4,1.4,0,0,0,.692.062c.545-.078,1.151-.432,1.1-.752s-.726-.487-1.268-.411a1.4,1.4,0,0,0-.648.253A1.438,1.438,0,0,0,35,30c-.077-.525-.405-1.106-.716-1.106a.207.207,0,0,0-.035,0c-.322.046-.491.724-.412,1.269a1.409,1.409,0,0,0,.254.647,1.4,1.4,0,0,0-.693-.059c-.544.076-1.151.428-1.1.749s.724.49,1.267.411a1.413,1.413,0,0,0,.65-.252A1.424,1.424,0,0,0,34.158,32.354ZM6.063,32.186c-.077.543.091,1.222.414,1.267s.672-.558.751-1.1a1.423,1.423,0,0,0-.061-.695,1.412,1.412,0,0,0,.649.252c.544.079,1.223-.09,1.269-.411s-.56-.673-1.1-.749a1.4,1.4,0,0,0-.695.059,1.394,1.394,0,0,0,.254-.647c.079-.545-.091-1.223-.411-1.269a.233.233,0,0,0-.034,0c-.311,0-.641.581-.717,1.106a1.427,1.427,0,0,0,.06.693,1.4,1.4,0,0,0-.648-.253c-.542-.077-1.22.092-1.267.411s.559.674,1.1.752a1.4,1.4,0,0,0,.692-.062A1.449,1.449,0,0,0,6.063,32.186Zm31.1-4.452a3.732,3.732,0,0,0-1.106,1.58,3.748,3.748,0,0,0,1.787-.727A3.322,3.322,0,0,0,38.9,27.1h0A3.066,3.066,0,0,0,37.164,27.734ZM2.485,27.1a3.317,3.317,0,0,0,1.052,1.488,3.757,3.757,0,0,0,1.788.727,3.742,3.742,0,0,0-1.106-1.58A3.074,3.074,0,0,0,2.485,27.1Zm32.8.5a3.242,3.242,0,0,0,.531,1.544,3.085,3.085,0,0,0,.315-1.52,2.48,2.48,0,0,0-.564-1.428A2.635,2.635,0,0,0,35.285,27.6Zm-30.034.024a3.118,3.118,0,0,0,.316,1.52A3.246,3.246,0,0,0,6.1,27.6a2.643,2.643,0,0,0-.281-1.4A2.477,2.477,0,0,0,5.251,27.627Zm32.877-2.615a3.742,3.742,0,0,0-.815,1.749,3.743,3.743,0,0,0,1.634-1.024,3.326,3.326,0,0,0,.777-1.652A3.071,3.071,0,0,0,38.128,25.012Zm-35.69.725A3.721,3.721,0,0,0,4.072,26.76a3.732,3.732,0,0,0-.818-1.747,3.063,3.063,0,0,0-1.593-.927A3.309,3.309,0,0,0,2.438,25.737Zm33.821-.508a3.238,3.238,0,0,0,.79,1.428,3.077,3.077,0,0,0,.046-1.549,2.473,2.473,0,0,0-.8-1.31A2.622,2.622,0,0,0,36.259,25.229Zm-31.97-.121a3.089,3.089,0,0,0,.045,1.549,3.231,3.231,0,0,0,.792-1.428A2.63,2.63,0,0,0,5.09,23.8,2.469,2.469,0,0,0,4.288,25.108Zm33.042-1.421a1.843,1.843,0,0,0,.344,1.019,1.632,1.632,0,0,0,.023-2.03A1.855,1.855,0,0,0,37.331,23.687Zm-33.988.007a1.857,1.857,0,0,0,.366,1.012,1.84,1.84,0,0,0,.345-1.019,1.859,1.859,0,0,0-.367-1.011A1.86,1.86,0,0,0,3.343,23.694ZM25.726,37.937a.579.579,0,1,1,.257.06A.58.58,0,0,1,25.726,37.937ZM14.88,37.674a.582.582,0,1,1,.779.263A.592.592,0,0,1,15.4,38,.583.583,0,0,1,14.88,37.674Zm19.114-6.415a.593.593,0,1,1,.67.5.573.573,0,0,1-.084.006A.594.594,0,0,1,33.994,31.258Zm-27.276.5a.593.593,0,1,1,.085.006A.6.6,0,0,1,6.718,31.762Z" transform="translate(1.282 1.281)" fill="#fff"/>
      </g>
      <g id="그룹_4514" data-name="그룹 4514" transform="translate(104.697 38.463)">
        <path id="패스_2515" data-name="패스 2515" d="M155.332,63.9a2.378,2.378,0,0,1,.61.744,1.963,1.963,0,0,1,.233.931,2.054,2.054,0,0,1-.183.861,2.328,2.328,0,0,1-1.237,1.184,2.466,2.466,0,0,1-1.8,0,2.361,2.361,0,0,1-.743-.475,2.33,2.33,0,0,1-.493-.709,2.062,2.062,0,0,1-.183-.861,2,2,0,0,1,.228-.931,2.243,2.243,0,0,1,.616-.744h-1.176v-.89h1.9v-1.16h1.5v1.16h1.9v.89Zm-.954,6.864H159.1v.89h-5.191A.979.979,0,0,1,152.88,70.6V68.512h1.5Zm-1.148-6.156a1.689,1.689,0,0,0-.272.967,1.716,1.716,0,0,0,.272.972.684.684,0,0,0,1.253,0,1.723,1.723,0,0,0,.271-.972,1.7,1.7,0,0,0-.271-.967.689.689,0,0,0-1.253,0Zm4.054,4.516V61.952h1.5v2.237h1.5v.9h-1.5v4.03Z" transform="translate(-151.206 -61.8)" fill="#fff"/>
        <path id="패스_2516" data-name="패스 2516" d="M173.878,62.363a2.517,2.517,0,0,1,.8.533,2.4,2.4,0,0,1,.544.778,2.406,2.406,0,0,1,0,1.921,2.4,2.4,0,0,1-.544.779,2.517,2.517,0,0,1-.8.533,2.544,2.544,0,0,1-.993.193,2.579,2.579,0,0,1-1-.193,2.5,2.5,0,0,1-.809-.533,2.391,2.391,0,0,1-.543-.779,2.406,2.406,0,0,1,0-1.921,2.4,2.4,0,0,1,.543-.778,2.5,2.5,0,0,1,.809-.533,2.569,2.569,0,0,1,1-.193A2.535,2.535,0,0,1,173.878,62.363Zm-1.736,1.171a1.9,1.9,0,0,0-.311,1.107,1.953,1.953,0,0,0,.3,1.118.882.882,0,0,0,.738.452.9.9,0,0,0,.738-.452,2.129,2.129,0,0,0,.006-2.225.829.829,0,0,0-1.475,0Zm4.176,4.24a2.466,2.466,0,0,1,.781.5,2.244,2.244,0,0,1,.527.726,2.105,2.105,0,0,1,.194.89,2.129,2.129,0,0,1-.194.9,2.241,2.241,0,0,1-.527.727,2.39,2.39,0,0,1-.781.492,2.739,2.739,0,0,1-1.93,0,2.377,2.377,0,0,1-.782-.492,2.2,2.2,0,0,1,0-3.245,2.451,2.451,0,0,1,.782-.5,2.66,2.66,0,0,1,1.93,0Zm-1.653,1.137a1.68,1.68,0,0,0-.294.978,1.621,1.621,0,0,0,.294.972.79.79,0,0,0,1.386,0,1.624,1.624,0,0,0,.295-.972,1.684,1.684,0,0,0-.295-.978.775.775,0,0,0-1.386,0Zm3.21-6.789v1.183h1.5v.89h-1.5v1.077h1.5v.89h-1.5v1.277h-1.5V62.123Z" transform="translate(-160.596 -61.936)" fill="#fff"/>
        <path id="패스_2517" data-name="패스 2517" d="M191.372,62.288v1.862a4.4,4.4,0,0,0,.189,1.313,3.963,3.963,0,0,0,.51,1.078,3.13,3.13,0,0,0,.743.773,2.142,2.142,0,0,0,.877.387l-.732.679a1.994,1.994,0,0,1-.743-.2,3.677,3.677,0,0,1-.71-.451,3.541,3.541,0,0,1-.566-.6,1.8,1.8,0,0,1-.321-.668,2,2,0,0,1-.327.668,3.353,3.353,0,0,1-.56.6,3.478,3.478,0,0,1-.71.445,2.29,2.29,0,0,1-.744.211l-.732-.679a2.109,2.109,0,0,0,.865-.393,3.021,3.021,0,0,0,.732-.779,4.106,4.106,0,0,0,.516-1.071,4.249,4.249,0,0,0,.194-1.307V62.288Zm4.182,2.109h1.5v.89h-1.5v6.489h-1.5v-9.7h1.5Z" transform="translate(-169.045 -61.914)" fill="#fff"/>
        <path id="패스_2518" data-name="패스 2518" d="M210.564,62.552A2.692,2.692,0,0,1,211.995,64a2.651,2.651,0,0,1,.211,1.054,2.71,2.71,0,0,1-.788,1.921,2.748,2.748,0,0,1-.854.574,2.65,2.65,0,0,1-2.069,0,2.771,2.771,0,0,1-.849-.574,2.6,2.6,0,0,1-.571-.861,2.764,2.764,0,0,1-.205-1.06A2.72,2.72,0,0,1,207.075,64a2.756,2.756,0,0,1,.571-.867,2.862,2.862,0,0,1,.849-.58,2.581,2.581,0,0,1,2.069,0Zm-1.847,3.8a.907.907,0,0,0,1.642-.012,2.3,2.3,0,0,0,.349-1.3,2.253,2.253,0,0,0-.355-1.289,1,1,0,0,0-.821-.527.986.986,0,0,0-.816.533,2.333,2.333,0,0,0-.35,1.306A2.246,2.246,0,0,0,208.717,66.353Zm5.984,5.424h-1.5v-9.7h1.5Z" transform="translate(-178.531 -61.914)" fill="#fff"/>
        <path id="패스_2519" data-name="패스 2519" d="M232.832,62.078v9.7h-1.5V65.6H230.07V68.3h-3.638a.971.971,0,0,1-1.042-1.043V62.394h1.5v1.922h1.686V62.394h1.5v2.32h1.265V62.078ZM228.574,67.4v-2.19h-1.686V67.4Z" transform="translate(-187.622 -61.914)" fill="#fff"/>
        <path id="패스_2520" data-name="패스 2520" d="M247.173,71.777V67.958a1.939,1.939,0,0,1-.488.24,2.12,2.12,0,0,1-.688.1h-1.886a.956.956,0,0,1-1.032-1.031V62.441h3.339v.9h-1.864V67.4h1.5a3.016,3.016,0,0,0,.66-.064,2.354,2.354,0,0,0,.46-.147V62.078h1.42v2.636h.887V62.078h1.42v9.7h-1.42V65.6h-.887v6.173Z" transform="translate(-196.305 -61.914)" fill="#fff"/>
        <path id="패스_2521" data-name="패스 2521" d="M264.55,63.781a2.372,2.372,0,0,1,.549.715,1.916,1.916,0,0,1,.2.867,1.982,1.982,0,0,1-.183.849,2.38,2.38,0,0,1-.493.7,2.378,2.378,0,0,1-3.239,0,2.207,2.207,0,0,1-.5-.7,2.04,2.04,0,0,1-.178-.849,1.959,1.959,0,0,1,.2-.867,2.285,2.285,0,0,1,.544-.715h-1.1v-.867h1.9v-1.16h1.5v1.16h1.9v.867Zm1.885,5.3h-5.091v-.89h6.588v3.42h-1.5Zm-4.043-4.651a1.85,1.85,0,0,0,0,1.892.679.679,0,0,0,1.232,0,1.846,1.846,0,0,0,0-1.892.675.675,0,0,0-1.232,0Zm5.541-.527h1.5v.9h-1.5v2.741h-1.5V61.907h1.5Z" transform="translate(-204.786 -61.755)" fill="#fff"/>
        <path id="패스_2522" data-name="패스 2522" d="M281.652,65.68v3.9h.743v-3.9h1.442v3.9h3.094v.89h-8.186v-.89h1.464v-3.9Zm-2.23-3.328h6.623v3.655a8.444,8.444,0,0,1-.15,1.7,3.9,3.9,0,0,1-.416,1.177h-1.319a3,3,0,0,0,.343-1.2q.067-.709.067-1.8V63.255h-5.148Z" transform="translate(-213.813 -62.048)" fill="#fff"/>
      </g>
      <g id="그룹_4515" data-name="그룹 4515" transform="translate(181.932 38.897)">
        <path id="패스_2523" data-name="패스 2523" d="M306.6,69.492l-.3-1.361-.4-1.719h-.024l-.71,3.08h-1.141L302.911,65.6h1.058l.449,1.723q.108.463.219,1.277h.021a7.018,7.018,0,0,1,.122-.839l.056-.3.481-1.865h1.169l.456,1.865c.01.051.024.127.044.227s.039.206.057.318.036.222.05.331.024.194.026.259h.021q.031-.25.111-.688t.115-.59l.466-1.723h1.041l-1.121,3.891Z" transform="translate(-302.911 -64.077)" fill="#fff"/>
        <path id="패스_2524" data-name="패스 2524" d="M321.38,69.492l-.3-1.361-.4-1.719h-.024l-.71,3.08H318.8L317.694,65.6h1.058l.449,1.723q.108.463.219,1.277h.021a7.124,7.124,0,0,1,.122-.839l.056-.3.48-1.865h1.169l.456,1.865c.01.051.024.127.044.227s.039.206.058.318.035.222.05.331.024.194.026.259h.021q.031-.25.111-.688t.115-.59l.466-1.723h1.041l-1.121,3.891Z" transform="translate(-310.168 -64.077)" fill="#fff"/>
        <path id="패스_2525" data-name="패스 2525" d="M336.163,69.492l-.3-1.361-.4-1.719h-.024l-.71,3.08h-1.142L332.477,65.6h1.058l.449,1.723q.108.463.219,1.277h.021a7.237,7.237,0,0,1,.122-.839l.056-.3.48-1.865h1.169l.456,1.865c.009.051.023.127.043.227s.039.206.058.318.035.222.05.331a2.508,2.508,0,0,1,.026.259h.021q.031-.25.112-.688c.053-.291.092-.487.115-.59L337.4,65.6h1.04l-1.121,3.891Z" transform="translate(-317.424 -64.077)" fill="#fff"/>
        <path id="패스_2526" data-name="패스 2526" d="M347.925,71.7a.585.585,0,0,1,.156-.442.636.636,0,0,1,.456-.15.617.617,0,0,1,.448.153.678.678,0,0,1,0,.872.607.607,0,0,1-.445.158.624.624,0,0,1-.453-.155A.578.578,0,0,1,347.925,71.7Z" transform="translate(-325.008 -66.778)" fill="#fff"/>
        <path id="패스_2527" data-name="패스 2527" d="M358.6,68.022h-1.061V65.75q0-.842-.626-.842a.713.713,0,0,0-.644.3,1.852,1.852,0,0,0-.2.981v1.831h-1.062V62.607h1.062v1.1q0,.128-.024.606l-.024.313h.056a1.229,1.229,0,0,1,1.128-.571,1.381,1.381,0,0,1,1.041.369,1.466,1.466,0,0,1,.355,1.058Z" transform="translate(-328.486 -62.607)" fill="#fff"/>
        <path id="패스_2528" data-name="패스 2528" d="M365.918,65.6h1.162l.735,2.189a3.027,3.027,0,0,1,.128.675h.021a3,3,0,0,1,.15-.675l.72-2.189h1.138l-1.646,4.389a1.9,1.9,0,0,1-.646.912,1.631,1.631,0,0,1-.98.3,2.482,2.482,0,0,1-.54-.059V70.3a1.826,1.826,0,0,0,.418.045.761.761,0,0,0,.493-.172,1.127,1.127,0,0,0,.328-.521l.063-.191Z" transform="translate(-333.84 -64.077)" fill="#fff"/>
        <path id="패스_2529" data-name="패스 2529" d="M379.127,69.492q-1.817,0-1.817-1.994a2.127,2.127,0,0,1,.494-1.516,1.854,1.854,0,0,1,1.416-.524,2.71,2.71,0,0,1,1.211.264l-.313.822q-.25-.1-.466-.165a1.49,1.49,0,0,0-.432-.065q-.829,0-.828,1.177,0,1.141.828,1.141a1.891,1.891,0,0,0,.568-.081,2.053,2.053,0,0,0,.522-.256V69.2a1.7,1.7,0,0,1-.52.227A2.926,2.926,0,0,1,379.127,69.492Z" transform="translate(-339.432 -64.007)" fill="#fff"/>
        <path id="패스_2530" data-name="패스 2530" d="M390.509,69.492l-.143-.5h-.056a1.126,1.126,0,0,1-.484.42,1.658,1.658,0,0,1-.714.148,1.359,1.359,0,0,1-1.034-.368,1.475,1.475,0,0,1-.348-1.056V65.6h1.062v2.273a1.093,1.093,0,0,0,.15.632.545.545,0,0,0,.477.211.718.718,0,0,0,.644-.3,1.849,1.849,0,0,0,.2-.987V65.6h1.061v3.891Z" transform="translate(-344.548 -64.077)" fill="#fff"/>
        <path id="패스_2531" data-name="패스 2531" d="M399.481,71.7a.585.585,0,0,1,.157-.442.636.636,0,0,1,.456-.15.617.617,0,0,1,.447.153.677.677,0,0,1,0,.872.607.607,0,0,1-.445.158.624.624,0,0,1-.453-.155A.578.578,0,0,1,399.481,71.7Z" transform="translate(-350.316 -66.778)" fill="#fff"/>
        <path id="패스_2532" data-name="패스 2532" d="M408.79,69.415l-.205-.529h-.028a1.564,1.564,0,0,1-.551.468,1.777,1.777,0,0,1-.74.131,1.2,1.2,0,0,1-.882-.32,1.229,1.229,0,0,1-.322-.912,1.025,1.025,0,0,1,.434-.913,2.5,2.5,0,0,1,1.306-.326l.676-.021v-.171a.529.529,0,0,0-.606-.592,2.763,2.763,0,0,0-1.1.282l-.352-.717a3.166,3.166,0,0,1,1.49-.352,1.855,1.855,0,0,1,1.2.341,1.261,1.261,0,0,1,.417,1.037v2.593Zm-.313-1.8-.411.014a1.323,1.323,0,0,0-.689.167.526.526,0,0,0-.226.466q0,.449.515.449a.814.814,0,0,0,.59-.212.746.746,0,0,0,.221-.564Z" transform="translate(-353.546 -64)" fill="#fff"/>
        <path id="패스_2533" data-name="패스 2533" d="M419.175,69.492q-1.817,0-1.817-1.994a2.127,2.127,0,0,1,.494-1.516,1.854,1.854,0,0,1,1.416-.524,2.71,2.71,0,0,1,1.211.264l-.313.822c-.167-.068-.323-.123-.466-.165a1.49,1.49,0,0,0-.432-.065q-.829,0-.828,1.177,0,1.141.828,1.141a1.891,1.891,0,0,0,.568-.081,2.053,2.053,0,0,0,.522-.256V69.2a1.7,1.7,0,0,1-.52.227A2.926,2.926,0,0,1,419.175,69.492Z" transform="translate(-359.091 -64.007)" fill="#fff"/>
        <path id="패스_2534" data-name="패스 2534" d="M427.527,71.7a.585.585,0,0,1,.157-.442.635.635,0,0,1,.456-.15.615.615,0,0,1,.447.153.675.675,0,0,1,0,.872.607.607,0,0,1-.445.158.624.624,0,0,1-.452-.155A.578.578,0,0,1,427.527,71.7Z" transform="translate(-364.083 -66.778)" fill="#fff"/>
        <path id="패스_2535" data-name="패스 2535" d="M435.633,65.907l.463-.592,1.09-1.184h1.2l-1.546,1.688,1.639,2.2h-1.225l-1.121-1.577-.456.366v1.211h-1.061V62.607h1.061v2.415l-.055.884Z" transform="translate(-367.561 -62.607)" fill="#fff"/>
        <path id="패스_2536" data-name="패스 2536" d="M448.267,65.458a1.709,1.709,0,0,1,.358.031l-.08,1a1.231,1.231,0,0,0-.313-.035,1.127,1.127,0,0,0-.792.261.944.944,0,0,0-.283.731v1.98H446.1V65.531h.8l.156.655h.052a1.464,1.464,0,0,1,.489-.528A1.207,1.207,0,0,1,448.267,65.458Z" transform="translate(-373.198 -64.007)" fill="#fff"/>
      </g>
      <g id="그룹_4516" data-name="그룹 4516" transform="translate(104.923 22.191)">
        <path id="패스_2537" data-name="패스 2537" d="M160.585,41h-2.3V36.3h-4.318V41h-2.312V30.1h2.312v4.274h4.318V30.1h2.3Z" transform="translate(-151.651 -29.944)" fill="#fff"/>
        <path id="패스_2538" data-name="패스 2538" d="M178.307,40.961l-.79-2.595h-3.975l-.791,2.595H170.26l3.848-10.948h2.827L180.8,40.961Zm-1.342-4.534q-1.1-3.527-1.234-3.99t-.2-.731q-.246.955-1.409,4.721Z" transform="translate(-160.786 -29.901)" fill="#fff"/>
        <path id="패스_2539" data-name="패스 2539" d="M201.677,41h-2.939L194,32.755h-.067q.142,2.186.142,3.117V41H192V30.1h2.916l4.736,8.166h.052q-.112-2.125-.112-3.005V30.1h2.081Z" transform="translate(-171.46 -29.944)" fill="#fff"/>
        <path id="패스_2540" data-name="패스 2540" d="M216.813,34.59l2.275-4.49h2.491l-3.617,6.66V41h-2.3V36.835L212.048,30.1h2.506Z" transform="translate(-181.299 -29.944)" fill="#fff"/>
        <path id="패스_2541" data-name="패스 2541" d="M237.166,40.961l-.791-2.595H232.4l-.79,2.595h-2.491l3.848-10.948h2.826l3.863,10.948Zm-1.343-4.534q-1.1-3.527-1.234-3.99t-.2-.731q-.247.955-1.41,4.721Z" transform="translate(-189.679 -29.901)" fill="#fff"/>
        <path id="패스_2542" data-name="패스 2542" d="M260.535,41H257.6l-4.743-8.248h-.067q.141,2.186.142,3.117V41h-2.066V30.1h2.916l4.736,8.166h.052q-.111-2.125-.112-3.005V30.1h2.081Z" transform="translate(-200.352 -29.944)" fill="#fff"/>
        <path id="패스_2543" data-name="패스 2543" d="M277.273,34.73H281.6v5.653a12.158,12.158,0,0,1-1.979.481,12.815,12.815,0,0,1-1.9.138,4.8,4.8,0,0,1-3.769-1.45,6.031,6.031,0,0,1-1.3-4.165,5.493,5.493,0,0,1,1.511-4.117,5.735,5.735,0,0,1,4.187-1.476,8.1,8.1,0,0,1,3.236.671l-.768,1.85a5.486,5.486,0,0,0-2.483-.6,3.065,3.065,0,0,0-2.4,1.007,3.9,3.9,0,0,0-.9,2.707,4.346,4.346,0,0,0,.728,2.711,2.515,2.515,0,0,0,2.114.936,7.491,7.491,0,0,0,1.469-.149V36.654h-2.066Z" transform="translate(-211.047 -29.793)" fill="#fff"/>
        <path id="패스_2544" data-name="패스 2544" d="M303.982,31.717a2.356,2.356,0,0,0-2.021.981,4.562,4.562,0,0,0-.716,2.733q0,3.647,2.737,3.647a8.653,8.653,0,0,0,2.782-.574v1.939a7.73,7.73,0,0,1-3,.559,4.573,4.573,0,0,1-3.639-1.443,6.109,6.109,0,0,1-1.261-4.143,6.765,6.765,0,0,1,.619-2.98,4.472,4.472,0,0,1,1.778-1.961,5.257,5.257,0,0,1,2.719-.683,7.338,7.338,0,0,1,3.192.768l-.746,1.879a12.342,12.342,0,0,0-1.231-.507A3.676,3.676,0,0,0,303.982,31.717Z" transform="translate(-223.917 -29.793)" fill="#fff"/>
        <path id="패스_2545" data-name="패스 2545" d="M319.355,34.59l2.275-4.49h2.491L320.5,36.76V41h-2.3V36.835L314.59,30.1H317.1Z" transform="translate(-231.635 -29.944)" fill="#fff"/>
        <path id="패스_2546" data-name="패스 2546" d="M334.355,30.1h3.393a6.534,6.534,0,0,1,3.367.66,2.3,2.3,0,0,1,1.048,2.1,2.648,2.648,0,0,1-.458,1.6,1.834,1.834,0,0,1-1.22.753v.075a2.4,2.4,0,0,1,1.5.865,2.81,2.81,0,0,1,.459,1.686,2.779,2.779,0,0,1-1.077,2.327,4.661,4.661,0,0,1-2.927.835h-4.08Zm2.312,4.318h1.343a2.457,2.457,0,0,0,1.361-.291,1.085,1.085,0,0,0,.422-.962.964.964,0,0,0-.458-.9,2.948,2.948,0,0,0-1.451-.272h-1.216Zm0,1.834v2.841h1.506a2.237,2.237,0,0,0,1.41-.365,1.349,1.349,0,0,0,.455-1.119q0-1.357-1.939-1.357Z" transform="translate(-241.338 -29.944)" fill="#fff"/>
        <path id="패스_2547" data-name="패스 2547" d="M359.14,41h-6.279V30.1h6.279v1.894h-3.968v2.394h3.692v1.894h-3.692v2.811h3.968Z" transform="translate(-250.422 -29.944)" fill="#fff"/>
        <path id="패스_2548" data-name="패스 2548" d="M370.326,36.82V41h-2.312V30.1h3.177a5.436,5.436,0,0,1,3.289.809,3.226,3.226,0,0,1,.537,4.169,3.5,3.5,0,0,1-1.5,1.175q2.461,3.677,3.207,4.751h-2.565l-2.6-4.183Zm0-1.88h.745a2.85,2.85,0,0,0,1.618-.366,1.3,1.3,0,0,0,.522-1.148,1.194,1.194,0,0,0-.533-1.1,3.238,3.238,0,0,0-1.652-.328h-.7Z" transform="translate(-257.86 -29.944)" fill="#fff"/>
        <path id="패스_2549" data-name="패스 2549" d="M401.114,30.1v7.055a4.066,4.066,0,0,1-.541,2.118,3.517,3.517,0,0,1-1.562,1.394,5.586,5.586,0,0,1-2.416.485,4.625,4.625,0,0,1-3.266-1.078,3.822,3.822,0,0,1-1.163-2.949V30.1h2.3v6.675a2.8,2.8,0,0,0,.507,1.85,2.11,2.11,0,0,0,1.678.589,2.065,2.065,0,0,0,1.645-.593,2.816,2.816,0,0,0,.511-1.861V30.1Z" transform="translate(-269.716 -29.944)" fill="#fff"/>
        <path id="패스_2550" data-name="패스 2550" d="M423.01,41h-2.939l-4.743-8.248h-.067q.142,2.186.142,3.117V41h-2.065V30.1h2.916l4.736,8.166h.052q-.112-2.125-.112-3.005V30.1h2.081Z" transform="translate(-280.109 -29.944)" fill="#fff"/>
        <path id="패스_2551" data-name="패스 2551" d="M436.076,41V30.1h2.312V41Z" transform="translate(-291.271 -29.944)" fill="#fff"/>
        <path id="패스_2552" data-name="패스 2552" d="M449.255,30.1h2.334L447.883,41h-2.521l-3.7-10.9H444l2.051,6.489q.172.574.354,1.338t.228,1.063a19.082,19.082,0,0,1,.56-2.4Z" transform="translate(-294.013 -29.944)" fill="#fff"/>
        <path id="패스_2553" data-name="패스 2553" d="M468.484,41h-6.279V30.1h6.279v1.894h-3.968v2.394h3.692v1.894h-3.692v2.811h3.968Z" transform="translate(-304.097 -29.944)" fill="#fff"/>
        <path id="패스_2554" data-name="패스 2554" d="M479.669,36.82V41h-2.312V30.1h3.177a5.437,5.437,0,0,1,3.289.809,3.226,3.226,0,0,1,.537,4.169,3.5,3.5,0,0,1-1.5,1.175q2.461,3.677,3.207,4.751H483.5l-2.6-4.183Zm0-1.88h.746a2.852,2.852,0,0,0,1.618-.366,1.3,1.3,0,0,0,.522-1.148,1.193,1.193,0,0,0-.533-1.1,3.235,3.235,0,0,0-1.652-.328h-.7Z" transform="translate(-311.535 -29.944)" fill="#fff"/>
        <path id="패스_2555" data-name="패스 2555" d="M501.3,37.825a2.816,2.816,0,0,1-1.063,2.327,4.612,4.612,0,0,1-2.956.85,6.942,6.942,0,0,1-3.088-.656V38.2a12.786,12.786,0,0,0,1.868.693,5.521,5.521,0,0,0,1.4.2,1.987,1.987,0,0,0,1.167-.291.994.994,0,0,0,.407-.865.954.954,0,0,0-.179-.57,2,2,0,0,0-.526-.482,13.538,13.538,0,0,0-1.413-.738,6.691,6.691,0,0,1-1.5-.9,3.391,3.391,0,0,1-.8-1.007,2.877,2.877,0,0,1-.3-1.342,2.818,2.818,0,0,1,.981-2.275,4.076,4.076,0,0,1,2.711-.828,6.422,6.422,0,0,1,1.623.2,11.168,11.168,0,0,1,1.614.567l-.746,1.8a10.925,10.925,0,0,0-1.443-.5,4.655,4.655,0,0,0-1.122-.142,1.485,1.485,0,0,0-1.007.306,1.008,1.008,0,0,0-.35.8.993.993,0,0,0,.142.534,1.554,1.554,0,0,0,.452.439,13.6,13.6,0,0,0,1.465.765,5.822,5.822,0,0,1,2.1,1.466A2.859,2.859,0,0,1,501.3,37.825Z" transform="translate(-319.8 -29.793)" fill="#fff"/>
        <path id="패스_2556" data-name="패스 2556" d="M510.385,41V30.1H512.7V41Z" transform="translate(-327.748 -29.944)" fill="#fff"/>
        <path id="패스_2557" data-name="패스 2557" d="M521.845,41h-2.312V32.024h-2.961V30.1h8.233v1.924h-2.961Z" transform="translate(-330.785 -29.944)" fill="#fff"/>
        <path id="패스_2558" data-name="패스 2558" d="M536.46,34.59l2.274-4.49h2.491l-3.617,6.66V41h-2.3V36.835L531.694,30.1H534.2Z" transform="translate(-338.208 -29.944)" fill="#fff"/>
      </g>
    </g>
  </g>
</svg>
