<svg xmlns="http://www.w3.org/2000/svg" width="100" height="100" viewBox="0 0 100 100">
  <g id="그룹_5308" data-name="그룹 5308" transform="translate(-621 -1016)">
    <circle id="타원_231" data-name="타원 231" cx="50" cy="50" r="50" transform="translate(621 1016)" fill="#009de8"/>
    <g id="그룹_5303" data-name="그룹 5303" transform="translate(-1033.75 432.402)">
      <rect id="사각형_3912" data-name="사각형 3912" width="42" height="42" transform="translate(1683.75 612.598)" fill="none"/>
      <g id="그룹_5302" data-name="그룹 5302">
        <path id="패스_3065" data-name="패스 3065" d="M1704.75,637.194a10.346,10.346,0,1,1,10.346-10.346A10.357,10.357,0,0,1,1704.75,637.194Zm0-18.692a8.346,8.346,0,1,0,8.346,8.346A8.355,8.355,0,0,0,1704.75,618.5Z" fill="#fff"/>
        <path id="패스_3066" data-name="패스 3066" d="M1718.25,650.694a1,1,0,0,1-1-1,12.5,12.5,0,0,0-25,0,1,1,0,0,1-2,0,14.5,14.5,0,0,1,29,0A1,1,0,0,1,1718.25,650.694Z" fill="#fff"/>
      </g>
    </g>
  </g>
</svg>
