<svg xmlns="http://www.w3.org/2000/svg" width="100" height="100" viewBox="0 0 100 100">
  <g id="그룹_5307" data-name="그룹 5307" transform="translate(-1000 -1016)">
    <circle id="타원_232" data-name="타원 232" cx="50" cy="50" r="50" transform="translate(1000 1016)" fill="#2f35b7"/>
    <g id="그룹_5305" data-name="그룹 5305" transform="translate(-770.5 433)">
      <rect id="사각형_3913" data-name="사각형 3913" width="42" height="42" transform="translate(1799.5 612)" fill="none"/>
      <g id="그룹_5304" data-name="그룹 5304">
        <path id="패스_3067" data-name="패스 3067" d="M1828.915,650h-16.83a4.59,4.59,0,0,1-4.585-4.585v-24.83a4.59,4.59,0,0,1,4.585-4.585h16.83a4.59,4.59,0,0,1,4.585,4.585v24.83A4.59,4.59,0,0,1,1828.915,650Zm-16.83-32a2.587,2.587,0,0,0-2.585,2.585v24.83a2.587,2.587,0,0,0,2.585,2.585h16.83a2.587,2.587,0,0,0,2.585-2.585v-24.83a2.587,2.587,0,0,0-2.585-2.585Z" fill="#fff"/>
        <path id="패스_3068" data-name="패스 3068" d="M1819.745,627h-5.49a1.757,1.757,0,0,1-1.755-1.755v-1.49a1.757,1.757,0,0,1,1.755-1.755h5.49a1.757,1.757,0,0,1,1.755,1.755v1.49A1.757,1.757,0,0,1,1819.745,627Zm-5.245-2h5v-1h-5Z" fill="#fff"/>
        <path id="패스_3069" data-name="패스 3069" d="M1819.745,634h-5.49a1.757,1.757,0,0,1-1.755-1.755v-1.49a1.757,1.757,0,0,1,1.755-1.755h5.49a1.757,1.757,0,0,1,1.755,1.755v1.49A1.757,1.757,0,0,1,1819.745,634Zm-5.245-2h5v-1h-5Z" fill="#fff"/>
      </g>
    </g>
  </g>
</svg>
