<svg xmlns="http://www.w3.org/2000/svg" width="100" height="100" viewBox="0 0 100 100">
  <g id="그룹_5306" data-name="그룹 5306" transform="translate(-1221 -1016)">
    <circle id="타원_233" data-name="타원 233" cx="50" cy="50" r="50" transform="translate(1221 1016)" fill="#57128b"/>
    <g id="그룹_5301" data-name="그룹 5301" transform="translate(-492.148 432.702)">
      <rect id="사각형_3911" data-name="사각형 3911" width="42" height="42" transform="translate(1742.149 612.298)" fill="none"/>
      <path id="패스_3064" data-name="패스 3064" d="M1776.78,628.924a3.285,3.285,0,0,0,1.5-6.206l-13.576-6.253a3.264,3.264,0,0,0-3.086-.017l-13.662,6.3a3.286,3.286,0,0,0,1.559,6.179h1.231v11.2h-2.012a1,1,0,0,0-1,1v2.6h-.333a1,1,0,0,0-1,1v4.8a1,1,0,0,0,1,1h31.49a1,1,0,0,0,1-1v-4.8a1,1,0,0,0-1-1h-.333v-2.6a1,1,0,0,0-1-1h-2.012v-11.2Zm-28.509-2.972a1.223,1.223,0,0,1,.582-1.418l13.631-6.281.056-.028a1.245,1.245,0,0,1,.6-.151,1.441,1.441,0,0,1,.677.179l13.577,6.254a1.285,1.285,0,0,1-.61,2.417h-27.262A1.242,1.242,0,0,1,1748.271,625.952Zm18.278,14.172v-11.2h2.2v11.2Zm-9,0v-11.2h2.2v11.2Zm4.2-11.2h2.8v11.2h-2.8Zm-9,0h2.8v11.2h-2.8Zm25.145,19.6H1748.4v-2.8h29.49Zm-1.333-4.8h-26.824v-1.6h26.824Zm-3.012-3.6h-2.8v-11.2h2.8Z" fill="#fff"/>
    </g>
  </g>
</svg>
