<svg xmlns="http://www.w3.org/2000/svg" width="60" height="60" viewBox="0 0 60 60">
  <g id="그룹_4443" data-name="그룹 4443" transform="translate(-781 -250)">
    <rect id="사각형_3305" data-name="사각형 3305" width="60" height="60" transform="translate(781 250)" fill="none"/>
    <path id="패스_2469" data-name="패스 2469" d="M804.31,289.226a1.109,1.109,0,0,1-.786-.326l-5.819-5.819a1.109,1.109,0,0,1-.239-1.217l9.861-23.44a1.112,1.112,0,0,1,1.81-.354l19.4,19.4a1.112,1.112,0,0,1-.354,1.81l-23.44,9.861A1.1,1.1,0,0,1,804.31,289.226Zm-4.506-7.188,4.763,4.763,21.228-8.931-17.06-17.06Z" transform="translate(1.82 0.861)" fill="#009DE8"/>
    <path id="패스_2470" data-name="패스 2470" d="M800.764,290.163a2.413,2.413,0,0,1-1.712-.708h0l-3.963-3.963a2.422,2.422,0,0,1,0-3.427l2.024-2.024a2.424,2.424,0,0,1,3.426,0L804.5,284a2.425,2.425,0,0,1,0,3.426l-2.024,2.024A2.413,2.413,0,0,1,800.764,290.163Zm-.142-2.28a.2.2,0,0,0,.284,0l2.024-2.024a.2.2,0,0,0,0-.283l-3.964-3.964a.2.2,0,0,0-.283,0l-2.024,2.024a.226.226,0,0,0,0,.283Z" transform="translate(1.486 3.259)" fill="#009DE8"/>
    <path id="패스_2471" data-name="패스 2471" d="M810.344,293.993a1.11,1.11,0,0,1-.781-.32l-6.9-6.813a1.112,1.112,0,0,1,.283-1.786l5.487-2.743a1.115,1.115,0,0,1,1.31.237l5.3,5.677a1.111,1.111,0,0,1-.027,1.543l-3.88,3.88A1.108,1.108,0,0,1,810.344,293.993Zm-5.018-7.626,5.013,4.948,2.34-2.34-4-4.286Z" transform="translate(2.37 3.579)" fill="#009DE8"/>
  </g>
</svg>
