<svg xmlns="http://www.w3.org/2000/svg" width="60" height="60" viewBox="0 0 60 60">
  <g id="그룹_4496" data-name="그룹 4496" transform="translate(-787.894 -144.291)">
    <rect id="사각형_3325" data-name="사각형 3325" width="60" height="60" transform="translate(787.894 144.291)" fill="none"/>
    <g id="그룹_4495" data-name="그룹 4495" transform="translate(801.607 154.462)">
      <path id="패스_2473" data-name="패스 2473" d="M827.172,192.912H805.963a5.766,5.766,0,0,1-5.759-5.759V159.165a5.765,5.765,0,0,1,5.759-5.759h21.209a5.765,5.765,0,0,1,5.759,5.759v27.988A5.766,5.766,0,0,1,827.172,192.912Zm-21.209-37.278a3.534,3.534,0,0,0-3.531,3.531v27.988a3.534,3.534,0,0,0,3.531,3.531h21.209a3.535,3.535,0,0,0,3.531-3.531V159.165a3.535,3.535,0,0,0-3.531-3.531Z" transform="translate(-800.204 -153.406)" fill="#009DE8"/>
      <path id="패스_2474" data-name="패스 2474" d="M820.705,167.777a1.113,1.113,0,0,1-.774-.313l-4.375-4.235-4.418,4.239a1.114,1.114,0,0,1-1.885-.8V154.52a1.114,1.114,0,1,1,2.228,0v9.53l3.306-3.172a1.115,1.115,0,0,1,1.546,0l3.258,3.155V154.52a1.114,1.114,0,0,1,2.228,0v12.143a1.113,1.113,0,0,1-1.114,1.114Z" transform="translate(-799.173 -153.406)" fill="#009DE8"/>
      <path id="패스_2475" data-name="패스 2475" d="M829.922,183.775H804.7a1.114,1.114,0,1,1,0-2.228h25.221a1.114,1.114,0,0,1,0,2.228Z" transform="translate(-799.819 -150.2)" fill="#009DE8"/>
    </g>
  </g>
</svg>
