<svg xmlns="http://www.w3.org/2000/svg" width="60" height="60" viewBox="0 0 60 60">
  <g id="그룹_3499" data-name="그룹 3499" transform="translate(-207.99 -628.906)">
    <rect id="사각형_2532" data-name="사각형 2532" width="60" height="60" transform="translate(207.99 628.906)" fill="none"/>
    <g id="그룹_3498" data-name="그룹 3498" transform="translate(217.937 640.265)">
      <path id="패스_1982" data-name="패스 1982" d="M236.875,664.608a4.779,4.779,0,0,1-3.264-1.279l-15.252-8.055a4.806,4.806,0,0,1,0-6.787l.27-.2,14.982-7.856a4.8,4.8,0,0,1,6.527,0l15.25,8.054a4.8,4.8,0,0,1,0,6.787l-.27.2-14.981,7.858A4.783,4.783,0,0,1,236.875,664.608Zm-17.052-11.016,15.227,8.044a2.584,2.584,0,0,0,3.649,0l.27-.2,14.958-7.845a2.582,2.582,0,0,0,0-3.423L238.7,642.126a2.584,2.584,0,0,0-3.649,0l-.27.2-14.958,7.844A2.582,2.582,0,0,0,219.823,653.592Z" transform="translate(-216.956 -639.154)" fill="#009DE8"/>
      <path id="패스_1983" data-name="패스 1983" d="M236.465,674.03a1.111,1.111,0,0,1-.539-.14l-13.745-7.637a1.11,1.11,0,0,1-.571-.97v-9.2a1.109,1.109,0,1,1,2.219,0v8.547l12.626,7.015L248.9,664.43v-8.345a1.109,1.109,0,1,1,2.219,0v8.984a1.107,1.107,0,0,1-.554.96l-13.545,7.853A1.113,1.113,0,0,1,236.465,674.03Z" transform="translate(-216.448 -637.424)" fill="#009DE8"/>
      <path id="패스_1984" data-name="패스 1984" d="M254.478,663.208a1.144,1.144,0,0,1-.319-.047c-4.906-1.475-4.9-7.4-4.207-10.329a1.109,1.109,0,0,1,2.16.507c-.014.065-1.448,6.454,2.686,7.7a1.11,1.11,0,0,1-.319,2.172Z" transform="translate(-213.384 -637.752)" fill="#009DE8"/>
    </g>
  </g>
</svg>
