<svg xmlns="http://www.w3.org/2000/svg" width="60" height="60" viewBox="0 0 60 60">
  <g id="그룹_4442" data-name="그룹 4442" transform="translate(-1017.621 -250.325)">
    <rect id="사각형_3304" data-name="사각형 3304" width="60" height="60" transform="translate(1017.621 250.325)" fill="none"/>
    <g id="그룹_4441" data-name="그룹 4441" transform="translate(1028.82 261.184)">
      <path id="패스_2463" data-name="패스 2463" d="M1061.647,274.379h-30.291a3.651,3.651,0,0,1-1.731-6.866l15.179-7a3.642,3.642,0,0,1,3.429.018l15.083,6.947a3.65,3.65,0,0,1-1.669,6.9Zm-15.161-12.054a1.4,1.4,0,0,0-.662.167l-.061.031-15.146,6.979a1.361,1.361,0,0,0-.646,1.577,1.379,1.379,0,0,0,1.385,1.079h30.291a1.428,1.428,0,0,0,.677-2.687l-15.083-6.948A1.6,1.6,0,0,0,1046.486,262.325Zm-1.189-.811h0Z" transform="translate(-1027.7 -260.098)" fill="#009DE8"/>
      <g id="그룹_4440" data-name="그룹 4440" transform="translate(5.023 12.059)">
        <path id="패스_2464" data-name="패스 2464" d="M1038.666,287.84h-5.333a1.111,1.111,0,0,1-1.111-1.111V272.062a1.111,1.111,0,0,1,1.111-1.111h5.333a1.112,1.112,0,0,1,1.111,1.111v14.667A1.112,1.112,0,0,1,1038.666,287.84Zm-4.222-2.222h3.111V273.173h-3.111Z" transform="translate(-1032.221 -270.951)" fill="#009DE8"/>
        <path id="패스_2465" data-name="패스 2465" d="M1047.666,287.84h-5.333a1.111,1.111,0,0,1-1.111-1.111V272.062a1.111,1.111,0,0,1,1.111-1.111h5.333a1.111,1.111,0,0,1,1.111,1.111v14.667A1.111,1.111,0,0,1,1047.666,287.84Zm-4.222-2.222h3.111V273.173h-3.111Z" transform="translate(-1031.221 -270.951)" fill="#009DE8"/>
        <path id="패스_2466" data-name="패스 2466" d="M1056.666,287.84h-5.333a1.111,1.111,0,0,1-1.111-1.111V272.062a1.111,1.111,0,0,1,1.111-1.111h5.333a1.112,1.112,0,0,1,1.111,1.111v14.667A1.112,1.112,0,0,1,1056.666,287.84Zm-4.222-2.222h3.111V273.173h-3.111Z" transform="translate(-1030.221 -270.951)" fill="#009DE8"/>
      </g>
      <path id="패스_2467" data-name="패스 2467" d="M1062.346,290.373H1030.32a1.111,1.111,0,0,1-1.111-1.111v-4a1.111,1.111,0,0,1,1.111-1.111h32.026a1.111,1.111,0,0,1,1.111,1.111v4A1.111,1.111,0,0,1,1062.346,290.373Zm-30.915-2.222h29.8v-1.778h-29.8Z" transform="translate(-1027.532 -257.425)" fill="#009DE8"/>
      <path id="패스_2468" data-name="패스 2468" d="M1063.975,295.307h-34.987a1.111,1.111,0,0,1-1.111-1.111v-5.333a1.111,1.111,0,0,1,1.111-1.111h34.987a1.111,1.111,0,0,1,1.111,1.111V294.2A1.111,1.111,0,0,1,1063.975,295.307Zm-33.876-2.222h32.765v-3.111H1030.1Z" transform="translate(-1027.68 -257.025)" fill="#009DE8"/>
    </g>
  </g>
</svg>
