<svg width="66" height="66" viewBox="0 0 66 66" fill="none" xmlns="http://www.w3.org/2000/svg">
<path d="M29.4301 61.7708C29.4701 61.0908 29.3201 60.4409 29.0401 59.8709C28.6801 59.0909 28.0901 58.3909 27.3901 57.9509L28.7801 53.1109L33.0601 60.8409C33.3001 61.2809 33.8601 61.4409 34.3001 61.1909C34.7401 60.9509 34.9001 60.3909 34.6501 59.9509L29.49 50.6409L30.24 48.0208L32.4501 52.0009C32.6901 52.4409 33.2501 52.6009 33.6901 52.3509C34.1301 52.1109 34.2901 51.5509 34.0401 51.1109L30.9501 45.5409L31.6 43.2909L38.5701 51.4509L39.9001 40.7609L41.26 41.9809L41.61 48.3409C41.61 48.4109 41.6301 48.4809 41.6501 48.5509C41.7701 48.9409 42.1401 49.2209 42.5701 49.2009C43.0701 49.1709 43.4501 48.7409 43.4301 48.2409L43.1801 43.6909L45.2101 45.5109L45.8001 56.1409C45.8001 56.2109 45.8201 56.2809 45.8401 56.3509C45.9601 56.7409 46.33 57.0209 46.76 57.0009C47.26 56.9709 47.64 56.5409 47.62 56.0409L47.13 47.2209L50.8401 50.5409C50.0601 51.8909 50.11 53.6409 51.1 54.9709C52.6 56.9709 55.43 57.2109 57.26 55.4909C59.09 53.7709 58.79 50.6309 56.73 49.2409C56.23 48.9109 55.69 48.7109 55.13 48.6209C55.13 48.6209 55.12 48.6209 55.11 48.6209C55.05 48.6209 54.9901 48.6009 54.9301 48.6009C53.9701 48.4709 52.92 48.6809 52.1 49.2009C52.1 49.2009 52.1001 49.2009 52.0901 49.2108L48.3401 45.8609L57.1601 45.3709C57.6601 45.3409 58.0401 44.9109 58.0201 44.4109C57.9901 43.9109 57.5601 43.5309 57.0601 43.5509L46.4301 44.1409L44.4001 42.3209L48.9501 42.0709C49.4501 42.0409 49.8301 41.6109 49.8101 41.1109C49.7801 40.6109 49.35 40.2309 48.85 40.2509L42.49 40.6009L40.87 39.1509L52.12 37.0709L43.26 30.3809L45.4101 29.7309L51.0201 32.7509C51.4601 32.9909 52.01 32.8209 52.25 32.3809C52.49 31.9409 52.32 31.3909 51.88 31.1509L47.87 28.9909L50.48 28.2109L59.86 33.2609C60.3 33.5009 60.8501 33.3309 61.0901 32.8909C61.3301 32.4509 61.1601 31.9009 60.7201 31.6609L52.9401 27.4709L57.6901 26.0409C58.5101 27.5609 60.31 28.4009 62.13 28.0509C64.42 27.6009 65.87 25.2009 65.24 22.9409C64.55 20.5009 61.6501 19.2409 59.4101 20.4609C58.8301 20.7809 58.3601 21.2309 58.0201 21.7609C57.5101 22.5009 57.21 23.4109 57.23 24.2709L52.4101 25.7209L56.5901 17.9409C56.8301 17.5009 56.6601 16.9509 56.2201 16.7109C55.7801 16.4709 55.23 16.6409 54.99 17.0809L49.9401 26.4609L47.3301 27.2409L49.49 23.2309C49.73 22.7909 49.56 22.2409 49.12 22.0009C48.68 21.7609 48.1301 21.9309 47.8901 22.3709L44.87 27.9809L42.7201 28.6309L46.4301 18.1709L36.5401 22.3509L36.75 21.5509L42.25 18.3409C42.68 18.0909 42.8301 17.5309 42.5801 17.1009C42.3301 16.6709 41.7701 16.5209 41.3401 16.7709L37.4101 19.0609L38.1 16.4309L47.3001 11.0709C47.7301 10.8209 47.88 10.2609 47.63 9.83087C47.38 9.40087 46.8201 9.25089 46.3901 9.50089L38.76 13.9509L40.0501 9.07086C40.7901 9.04086 41.5301 8.82086 42.1801 8.44086C42.4901 8.27086 42.7801 8.06087 43.0401 7.80088C44.8401 6.02087 44.45 2.95087 42.35 1.58087C40.36 0.280874 37.5001 1.05087 36.4601 3.20087C35.4801 5.23087 36.3201 7.74087 38.2701 8.70087L37.01 13.5009L32.5601 5.87088C32.3101 5.44088 31.7501 5.29087 31.3201 5.54087C30.9501 5.76087 30.7901 6.19088 30.9101 6.59088C30.9301 6.66088 30.96 6.72087 31 6.79087L36.37 15.9909L35.6801 18.6209L33.3901 14.6909C33.1401 14.2609 32.5801 14.1109 32.1501 14.3609C31.7801 14.5809 31.62 15.0109 31.74 15.4109C31.76 15.4809 31.7901 15.5409 31.8301 15.6109L35.0401 21.1109L34.7101 22.3709L27.2701 13.6609L25.86 25.0009L24.48 23.8109L23.99 17.4609C23.95 16.9609 23.51 16.5909 23.01 16.6209C22.51 16.6609 22.1401 17.1009 22.1701 17.6009L22.5201 22.1409L20.4501 20.3709L19.63 9.75089C19.59 9.25089 19.1501 8.88086 18.6501 8.91086C18.1501 8.95086 17.7801 9.39087 17.8101 9.89087L18.49 18.7009L14.6501 15.4109C15.0201 14.5609 15.1201 13.5609 14.9401 12.6609C14.9401 12.6509 14.9401 12.6309 14.9401 12.6209C14.9101 12.5009 14.8801 12.3809 14.8401 12.2709C14.8401 12.2409 14.8201 12.2109 14.8101 12.1809C14.7701 12.0609 14.7201 11.9509 14.6801 11.8409C14.6701 11.8109 14.6601 11.7909 14.6501 11.7609C14.6101 11.6709 14.56 11.5809 14.51 11.4909C13.57 9.88088 11.5201 9.06086 9.67008 9.72086C7.36008 10.5409 6.2901 13.3709 7.4401 15.5209C8.6201 17.7209 11.6301 18.3309 13.5401 16.8409L17.3101 20.0709L8.50004 20.7509C8.00004 20.7909 7.63007 21.2309 7.66007 21.7309C7.66007 21.8009 7.68011 21.8609 7.70011 21.9209C7.82011 22.3209 8.21005 22.6009 8.64005 22.5609L19.26 21.7409L21.3301 23.5109L16.7901 23.8609C16.2901 23.9009 15.9201 24.3409 15.9501 24.8409C15.9501 24.9109 15.97 24.9709 15.99 25.0309C16.11 25.4309 16.5001 25.7109 16.9301 25.6709L23.2801 25.1809L24.2901 26.0509L13.7201 28.0109L22.63 34.7409L20.4501 35.4009L14.8401 32.3809C14.4001 32.1409 13.85 32.3109 13.61 32.7509C13.49 32.9709 13.4701 33.2209 13.5401 33.4409C13.6101 33.6609 13.76 33.8609 13.98 33.9809L17.99 36.1409L15.38 36.9209L6.00004 31.8709C5.56004 31.6309 5.01006 31.8009 4.77006 32.2409C4.65006 32.4609 4.63011 32.7109 4.70011 32.9309C4.77011 33.1509 4.92005 33.3509 5.14005 33.4709L12.9201 37.6609L8.17008 39.0909C7.35008 37.5709 5.55002 36.7308 3.73002 37.0808C1.44002 37.5308 -0.00996798 39.9309 0.620032 42.1909C1.31003 44.6309 4.21011 45.8909 6.45011 44.6709C7.03011 44.3509 7.50012 43.9009 7.84012 43.3709C8.35012 42.6309 8.65004 41.7209 8.63004 40.8609L13.4501 39.4109L9.27006 47.1909C9.15006 47.4109 9.13011 47.6609 9.20011 47.8809C9.27011 48.1009 9.42005 48.3009 9.64005 48.4209C10.0801 48.6609 10.63 48.4909 10.87 48.0509L15.9201 38.6709L18.5301 37.8909L16.37 41.9009C16.25 42.1209 16.2301 42.3709 16.3001 42.5909C16.3701 42.8109 16.52 43.0109 16.74 43.1309C17.18 43.3709 17.7301 43.2009 17.9701 42.7609L20.99 37.1509L23.1 36.5208L19.4201 46.9209L30.01 42.4509L29.26 45.0509L23.6901 48.1309C23.3101 48.3409 23.14 48.7809 23.26 49.1909C23.28 49.2509 23.3001 49.3109 23.3401 49.3709C23.5801 49.8109 24.1401 49.9709 24.5701 49.7209L28.5501 47.5109L27.8001 50.1309L18.48 55.2909C18.1 55.5009 17.9301 55.9409 18.0501 56.3509C18.0701 56.4109 18.09 56.4709 18.13 56.5309C18.37 56.9709 18.93 57.1309 19.37 56.8809L27.1 52.6009L25.73 57.3709C23.96 57.2409 22.24 58.3609 21.61 60.1309C20.77 62.4809 22.3101 65.1008 24.7801 65.5208C27.0901 65.9108 29.37 64.1208 29.49 61.7708H29.4301ZM28.4201 33.9009C27.6801 31.4309 29.0801 28.8209 31.5501 28.0809C34.0201 27.3409 36.63 28.7408 37.37 31.2108C38.11 33.6808 36.71 36.2909 34.24 37.0309C31.77 37.7709 29.1601 36.3709 28.4201 33.9009Z" fill="#EDF6FF"/>
</svg>
