<svg width="142" height="63" viewBox="0 0 142 63" fill="none" xmlns="http://www.w3.org/2000/svg">
<path d="M3.10997 39.6805C2.25997 39.6805 1.53004 39.0405 1.43004 38.1805C1.32004 37.2505 1.99003 36.4205 2.92003 36.3105C17.07 34.7005 31.5001 33.6905 45.4501 32.7105C59.0801 31.7505 73.1701 30.7605 86.9701 29.2205C93.1501 28.5305 99.39 27.5205 105.42 26.5505C110.2 25.7805 115.14 24.9805 120.04 24.3405C123.86 23.8405 127.86 23.1305 131.27 21.3005C134.8 19.4005 137.25 16.3605 137.82 13.1805C138.08 11.7605 137.95 10.4005 137.47 9.26048C136.39 6.73048 133.62 5.42049 132.06 4.86049C125.55 2.54049 117.8 4.63049 113.57 9.83049C112.85 11.0605 111.13 14.7905 114.45 17.5705C117.72 19.1305 121.67 18.7205 124.56 16.5105C125.3 15.9405 126.36 16.0905 126.93 16.8305C127.5 17.5705 127.35 18.6305 126.61 19.2005C122.65 22.2205 117.22 22.7405 112.77 20.5105L112.61 20.4305L112.47 20.3205C108.72 17.3205 108.03 12.4805 110.72 7.99049L110.85 7.80049C116.02 1.34049 125.2 -1.17951 133.19 1.67049C136.78 2.95049 139.4 5.1705 140.58 7.9305C141.32 9.6805 141.52 11.7005 141.15 13.7705C140.4 17.9605 137.3 21.8805 132.87 24.2705C128.98 26.3605 124.62 27.1505 120.48 27.6905C115.63 28.3205 110.71 29.1105 105.96 29.8805C99.8901 30.8605 93.61 31.8705 87.35 32.5705C73.49 34.1205 59.3601 35.1105 45.7001 36.0705C31.7901 37.0505 17.4001 38.0605 3.32005 39.6605C3.26005 39.6605 3.18999 39.6705 3.12999 39.6705L3.10997 39.6805Z" fill="url(#paint0_radial_8_2268)"/>
<path d="M89.54 62.3201C84.74 62.3201 79.8301 61.0901 76.7001 56.6201C74.9301 53.9701 75.7 49.8501 77.48 47.7801C78.99 46.0301 81.46 45.0401 84.05 45.1601C86.34 45.2601 88.3001 46.2001 89.4301 47.7501C89.9801 48.5101 89.81 49.5601 89.05 50.1101C88.29 50.6601 87.2401 50.4901 86.6901 49.7301C86.1801 49.0301 85.14 48.5801 83.91 48.5301C82.36 48.4701 80.88 49.0201 80.05 49.9901C79.23 50.9401 78.62 53.3901 79.5 54.7101C82.31 58.7201 87.4601 59.8301 96.1901 58.2501C99.5401 57.6501 104.06 54.7601 105.53 51.1601C106.41 49.0101 106.09 46.8301 104.58 44.7001C102.42 41.6401 97.21 41.9201 93.02 42.1401C92.28 42.1801 91.56 42.2201 90.9 42.2401C87.24 42.3401 83.4301 42.4701 79.5901 42.6101C65.0701 43.1601 50.31 43.9701 36.04 44.7601C24.88 45.3801 13.34 46.0201 1.97998 46.5201C1.03998 46.5601 0.260095 45.8401 0.220095 44.9101C0.180095 43.9801 0.90008 43.1901 1.83008 43.1501C13.1701 42.6401 24.71 42.0101 35.86 41.3901C50.15 40.6001 64.9201 39.7801 79.4701 39.2401C83.3201 39.0901 87.1401 38.9701 90.8201 38.8701C91.4501 38.8501 92.14 38.8201 92.85 38.7801C97.6 38.5301 104.11 38.1801 107.35 42.7601C109.54 45.8601 110 49.2101 108.67 52.4601C106.66 57.3601 101.06 60.8301 96.8 61.5901C94.61 61.9901 92.1001 62.3301 89.5601 62.3301L89.54 62.3201Z" fill="url(#paint1_radial_8_2268)"/>
<defs>
<radialGradient id="paint0_radial_8_2268" cx="0" cy="0" r="1" gradientUnits="userSpaceOnUse" gradientTransform="translate(71.38 20.1005) scale(51.37 51.37)">
<stop stop-color="white"/>
<stop offset="1" stop-color="white"/>
</radialGradient>
<radialGradient id="paint1_radial_8_2268" cx="0" cy="0" r="1" gradientUnits="userSpaceOnUse" gradientTransform="translate(54.8001 50.4801) scale(39.5 39.5)">
<stop stop-color="white"/>
<stop offset="1" stop-color="white"/>
</radialGradient>
</defs>
</svg>
