<svg width="52" height="48" viewBox="0 0 52 48" fill="none" xmlns="http://www.w3.org/2000/svg">
<path d="M49.41 18.7607C49.05 18.2707 48.37 18.1707 47.89 18.5307L40.01 24.3107L29.32 23.4307L35.83 20.3407L39.58 21.3807C39.71 21.4207 39.84 21.4007 39.96 21.3507C40.1 21.2807 40.2101 21.1607 40.2501 21.0007C40.3301 20.7107 40.1601 20.4107 39.8701 20.3307L36.4301 19.3707L37.9801 15.8107C38.1001 15.5307 37.98 15.2107 37.7 15.0907C37.42 14.9707 37.1001 15.0907 36.9801 15.3707L35.22 19.4107L28.82 22.4507L34.95 13.4107L44.1901 10.9507C44.2501 10.9307 44.3201 10.9107 44.3701 10.8807C44.8401 10.6607 45.09 10.1307 44.96 9.61073C44.81 9.03073 44.21 8.68074 43.63 8.84074L36.82 10.6607L41.0401 4.44072C41.3801 3.94072 41.2501 3.26074 40.7501 2.93074C40.2501 2.59074 39.5701 2.72072 39.2401 3.22072L34.9401 9.57072L34.07 2.36073C34 1.76073 33.4601 1.34072 32.8601 1.41072C32.2601 1.48072 31.84 2.02074 31.91 2.62074L33.07 12.3207L27.22 20.9607L28.01 14.0807L30.88 11.4507C31.1 11.2507 31.12 10.9007 30.91 10.6807C30.71 10.4607 30.36 10.4407 30.14 10.6507L27.51 13.0607L25.3101 9.86073C25.1401 9.61073 24.8001 9.55072 24.5501 9.72072C24.3001 9.89072 24.24 10.2307 24.41 10.4807L26.9 14.1107L26.08 21.2707L21.3701 11.2707L23.97 2.07072C24.13 1.49072 23.8 0.890726 23.22 0.730726C22.64 0.570726 22.04 0.900726 21.88 1.48073L19.97 8.27073L16.77 1.47072C16.51 0.930716 15.86 0.690727 15.32 0.950727C14.78 1.21073 14.5401 1.85074 14.8001 2.40074L18.07 9.34074L11.4301 6.41072C10.8801 6.17072 10.2401 6.41072 9.99006 6.97072C9.75006 7.52072 9.99006 8.16072 10.5501 8.41072L19.4901 12.3607L24.0601 22.0707L18.13 17.9707L17.16 14.2007C17.09 13.9107 16.7901 13.7307 16.5001 13.8107C16.2101 13.8907 16.0301 14.1807 16.1101 14.4707L17.0001 17.9307L13.14 18.3607C12.84 18.3907 12.63 18.6607 12.66 18.9607C12.69 19.2607 12.96 19.4707 13.26 19.4407L17.64 18.9607L23.4301 22.9607L12.6 22.0707L5.92005 15.2307C5.50005 14.8007 4.81002 14.7907 4.38002 15.2107C3.95002 15.6307 3.94006 16.3207 4.36006 16.7507L9.29005 21.7907L1.80006 21.1807C1.20006 21.1307 0.680016 21.5807 0.630016 22.1807C0.580016 22.7807 1.03002 23.3107 1.63002 23.3507L9.28004 23.9807L3.43006 28.2807C2.95006 28.6407 2.84002 29.3207 3.20002 29.8007C3.51002 30.2307 4.08005 30.3607 4.54005 30.1407C4.60005 30.1107 4.66004 30.0707 4.72004 30.0307L12.6 24.2507L23.2901 25.1307L16.78 28.2207L13.03 27.1807C12.74 27.1007 12.4401 27.2707 12.3601 27.5607C12.2801 27.8507 12.4501 28.1507 12.7401 28.2307L16.1801 29.1907L14.63 32.7507C14.51 33.0307 14.63 33.3507 14.91 33.4707C15.06 33.5407 15.2201 33.5307 15.3601 33.4707C15.4801 33.4207 15.57 33.3207 15.63 33.2007L17.39 29.1607L23.7901 26.1207L17.66 35.1607L8.42005 37.6207C7.84005 37.7807 7.49004 38.3707 7.65004 38.9507C7.81004 39.5307 8.40005 39.8807 8.98005 39.7207L15.79 37.9007L11.57 44.1207C11.23 44.6207 11.3601 45.3007 11.8601 45.6307C12.1901 45.8507 12.6001 45.8707 12.9401 45.7107C13.1101 45.6307 13.26 45.5007 13.38 45.3407L17.6801 38.9907L18.5501 46.2007C18.6201 46.8007 19.16 47.2207 19.76 47.1507C19.88 47.1407 19.99 47.1007 20.09 47.0507C20.5 46.8607 20.76 46.4107 20.71 45.9307L19.5501 36.2307L25.4 27.5907L24.6101 34.4707L21.7401 37.1007C21.5201 37.3007 21.5 37.6507 21.71 37.8707C21.88 38.0507 22.13 38.0907 22.34 37.9907C22.39 37.9707 22.4301 37.9407 22.4801 37.9007L25.1101 35.4907L27.3101 38.6907C27.4601 38.9107 27.7501 38.9907 27.9901 38.8707C28.0201 38.8607 28.04 38.8407 28.07 38.8307C28.32 38.6607 28.38 38.3207 28.21 38.0707L25.72 34.4407L26.5401 27.2807L31.2501 37.2807L28.65 46.4807C28.49 47.0607 28.82 47.6607 29.4 47.8207C29.66 47.8907 29.93 47.8707 30.16 47.7607C30.44 47.6307 30.6601 47.3907 30.7401 47.0707L32.65 40.2807L35.85 47.0807C36.11 47.6207 36.7601 47.8607 37.3001 47.6007C37.8401 47.3407 38.08 46.7007 37.82 46.1507L34.5501 39.2107L41.1901 42.1407C41.4901 42.2707 41.82 42.2607 42.09 42.1307C42.32 42.0207 42.5101 41.8307 42.6201 41.5807C42.8601 41.0307 42.6201 40.3907 42.0601 40.1407L33.1201 36.1907L28.5501 26.4807L34.4801 30.5807L35.45 34.3507C35.52 34.6407 35.8201 34.8207 36.1101 34.7407C36.1401 34.7407 36.18 34.7207 36.21 34.7007C36.44 34.5907 36.57 34.3307 36.51 34.0707L35.6201 30.6107L39.4801 30.1807C39.5401 30.1807 39.6 30.1607 39.65 30.1307C39.85 30.0307 39.99 29.8107 39.96 29.5807C39.93 29.2807 39.6601 29.0707 39.3601 29.1007L34.9801 29.5807L29.1901 25.5807L40.02 26.4707L46.7 33.3107C47.03 33.6507 47.5301 33.7307 47.9401 33.5307C48.0501 33.4807 48.1501 33.4107 48.2401 33.3207C48.6701 32.9007 48.68 32.2107 48.26 31.7807L43.33 26.7407L50.82 27.3507C51.02 27.3707 51.2101 27.3307 51.3701 27.2507C51.7101 27.0907 51.9601 26.7607 51.9901 26.3507C52.0401 25.7507 51.5901 25.2207 50.9901 25.1807L43.34 24.5507L49.1901 20.2507C49.6701 19.8907 49.7801 19.2107 49.4201 18.7307L49.41 18.7607Z" fill="#EDF6FF"/>
</svg>
