<svg width="336" height="168" viewBox="0 0 336 168" fill="none" xmlns="http://www.w3.org/2000/svg">
<path d="M-1.58995 88.881C-3.75995 88.881 -5.56995 87.191 -5.69995 85.001C-5.82995 82.731 -4.08995 80.781 -1.81995 80.661C61.21 77.081 122.39 67.811 173.93 59.221C185.25 57.481 196.59 54.851 208.63 51.171C210.77 50.521 212.94 49.931 215.12 49.331C220.39 47.901 225.36 46.551 229.89 44.331C235.31 41.671 238.97 37.551 239.68 33.311C241.16 24.481 231.58 15.981 224.31 12.771C211.06 6.92099 195.1 8.70098 183.96 11.251C176.19 13.921 169.39 21.621 171.95 30.771C174.17 37.221 183.26 37.751 194.02 37.771L194.06 41.891V46.011C183.79 46.001 168.34 45.981 164.11 33.301L164.06 33.131C160.01 18.951 170.04 7.22098 181.54 3.39098L181.92 3.29098C194.28 0.440977 212.25 -1.53902 227.65 5.26098C239.26 10.391 249.91 22.141 247.82 34.691C246.66 41.641 241.45 47.861 233.54 51.741C228.3 54.311 222.71 55.831 217.3 57.301C215.2 57.871 213.11 58.441 211.06 59.061C198.63 62.851 186.92 65.571 175.25 67.371C123.55 75.991 62.09 85.291 -1.33995 88.901C-1.41995 88.901 -1.49995 88.901 -1.57995 88.901L-1.58995 88.881Z" fill="url(#paint0_radial_423_3706)"/>
<path d="M-1.58997 111.991C-3.65997 111.991 -5.43996 110.441 -5.67996 108.341C-5.93996 106.081 -4.30997 104.041 -2.04997 103.781C32.42 99.8707 67.56 97.4006 101.54 95.0106C134.74 92.6806 169.07 90.2706 202.67 86.5106C217.72 84.8306 232.91 82.3806 247.61 80.0106C259.25 78.1306 271.29 76.1906 283.23 74.6306C292.54 73.4206 302.29 71.6806 310.58 67.2106C319.18 62.5806 325.15 55.1806 326.54 47.4206C327.16 43.9506 326.87 40.6606 325.68 37.8806C323.06 31.7206 316.3 28.5306 312.5 27.1706C296.65 21.5106 277.77 26.6006 267.47 39.2706C265.73 42.2706 261.54 51.3506 269.61 58.1306C277.58 61.9306 287.2 60.9407 294.24 55.5606C296.05 54.1806 298.63 54.5306 300.01 56.3306C301.39 58.1406 301.04 60.7206 299.24 62.1006C289.6 69.4606 276.37 70.7206 265.53 65.3006L265.14 65.1006L264.8 64.8306C255.66 57.5206 253.99 45.7206 260.55 34.7906L260.87 34.3406C273.45 18.6106 295.83 12.4706 315.28 19.4106C324.03 22.5306 330.42 27.9406 333.27 34.6506C335.08 38.9106 335.56 43.8306 334.65 48.8806C332.82 59.0806 325.28 68.6506 314.49 74.4606C305.02 79.5606 294.39 81.4806 284.3 82.7906C272.48 84.3306 260.51 86.2606 248.93 88.1306C234.14 90.5106 218.85 92.9807 203.6 94.6806C169.83 98.4606 135.42 100.871 102.14 103.211C68.25 105.591 33.2 108.051 -1.08997 111.951C-1.24997 111.971 -1.39997 111.981 -1.55997 111.981L-1.58997 111.991Z" fill="url(#paint1_radial_423_3706)"/>
<path d="M208.93 167.131C197.24 167.131 185.27 164.121 177.66 153.241C173.35 146.781 175.22 136.741 179.56 131.721C183.25 127.451 189.25 125.041 195.55 125.331C201.14 125.571 205.91 127.871 208.65 131.651C209.98 133.491 209.57 136.071 207.73 137.401C205.89 138.731 203.31 138.321 201.98 136.481C200.75 134.781 198.22 133.691 195.2 133.561C191.44 133.401 187.82 134.761 185.79 137.111C183.79 139.421 182.32 145.401 184.45 148.611C191.3 158.391 203.85 161.071 225.1 157.231C233.25 155.761 244.27 148.741 247.85 139.961C250 134.721 249.22 129.421 245.54 124.211C240.28 116.771 227.58 117.441 217.39 117.981C215.58 118.081 213.84 118.171 212.23 118.211C203.3 118.461 194.03 118.761 184.67 119.111C149.3 120.441 113.36 122.431 78.59 124.351C51.4 125.851 23.29 127.411 -4.38998 128.641C-6.67998 128.741 -8.58997 126.981 -8.68997 124.711C-8.78997 122.441 -7.02997 120.511 -4.75997 120.411C22.87 119.181 50.96 117.631 78.13 116.121C112.93 114.191 148.91 112.201 184.35 110.871C193.74 110.521 203.04 110.211 211.99 109.961C213.53 109.921 215.2 109.831 216.94 109.731C228.51 109.111 244.37 108.271 252.25 119.431C257.59 126.981 258.7 135.141 255.46 143.051C250.57 154.991 236.92 163.431 226.55 165.301C221.21 166.271 215.1 167.111 208.91 167.111L208.93 167.131Z" fill="url(#paint2_radial_423_3706)"/>
<defs>
<radialGradient id="paint0_radial_423_3706" cx="0" cy="0" r="1" gradientUnits="userSpaceOnUse" gradientTransform="translate(121.19 44.761) scale(94.99 94.99)">
<stop stop-color="white"/>
<stop offset="1" stop-color="white"/>
</radialGradient>
<radialGradient id="paint1_radial_423_3706" cx="0" cy="0" r="1" gradientUnits="userSpaceOnUse" gradientTransform="translate(164.69 64.2906) scale(125.12 125.12)">
<stop stop-color="white"/>
<stop offset="1" stop-color="white"/>
</radialGradient>
<radialGradient id="paint2_radial_423_3706" cx="0" cy="0" r="1" gradientUnits="userSpaceOnUse" gradientTransform="translate(124.31 138.291) scale(96.22 96.22)">
<stop stop-color="white"/>
<stop offset="1" stop-color="white"/>
</radialGradient>
</defs>
</svg>
