<svg id="그룹_659" data-name="그룹 659" xmlns="http://www.w3.org/2000/svg" xmlns:xlink="http://www.w3.org/1999/xlink" width="90" height="90" viewBox="0 0 90 90">
  <defs>
    <clipPath id="clip-path">
      <rect id="사각형_312" data-name="사각형 312" width="90" height="90" fill="none"/>
    </clipPath>
  </defs>
  <g id="그룹_658" data-name="그룹 658" clip-path="url(#clip-path)">
    <path id="패스_121" data-name="패스 121" d="M146.2,173.411a2.117,2.117,0,1,1-2.117-2.117,2.118,2.118,0,0,1,2.117,2.117" transform="translate(-99.087 -119.553)" fill="#e52f42"/>
    <path id="패스_122" data-name="패스 122" d="M100.721,117.882a1.51,1.51,0,0,1-1.125-2.517,20.209,20.209,0,0,1,29.3,0,1.51,1.51,0,1,1-2.251,2.014,17.194,17.194,0,0,0-24.793,0,1.505,1.505,0,0,1-1.126.5" transform="translate(-69.244 -76.13)" fill="#e52f42"/>
    <path id="패스_123" data-name="패스 123" d="M132.873,135.92a1.508,1.508,0,0,1-1.232-.635,10.745,10.745,0,0,0-16.794,0,1.51,1.51,0,0,1-2.461-1.751,13.756,13.756,0,0,1,21.716,0,1.51,1.51,0,0,1-1.229,2.386" transform="translate(-78.244 -89.493)" fill="#e52f42"/>
    <path id="패스_124" data-name="패스 124" d="M138.444,155.291a1.511,1.511,0,0,1-1.48-1.216c-.266-1.341-1.976-2.391-3.893-2.391s-3.626,1.05-3.893,2.391a1.51,1.51,0,0,1-2.963-.59c.556-2.794,3.439-4.822,6.856-4.822s6.3,2.028,6.856,4.822a1.512,1.512,0,0,1-1.483,1.805" transform="translate(-88.071 -103.759)" fill="#e52f42"/>
    <path id="패스_125" data-name="패스 125" d="M116.817,97.513H77.771a2.94,2.94,0,0,1-2.845-3.021V22a2.94,2.94,0,0,1,2.845-3.021h39.046A2.94,2.94,0,0,1,119.663,22V64.8a1.51,1.51,0,0,1-3.021,0V22h-38.7V94.492h38.7V74.771a1.51,1.51,0,1,1,3.021,0V94.492a2.94,2.94,0,0,1-2.845,3.021" transform="translate(-52.294 -13.246)"/>
    <path id="패스_126" data-name="패스 126" d="M118.151,105.734H76.435a1.51,1.51,0,0,1-1.51-1.51V50.156a1.51,1.51,0,0,1,1.51-1.51h41.716a1.51,1.51,0,0,1,1.51,1.51V86.114a1.51,1.51,0,1,1-3.021,0V51.667h-38.7v51.046h38.7V96.988a1.51,1.51,0,0,1,3.021,0v7.235a1.51,1.51,0,0,1-1.51,1.51" transform="translate(-52.293 -33.952)"/>
    <path id="패스_127" data-name="패스 127" d="M140.372,247.761a3.725,3.725,0,1,1,3.725-3.726,3.73,3.73,0,0,1-3.725,3.726m0-4.43a.7.7,0,1,0,.7.7.705.705,0,0,0-.7-.7" transform="translate(-95.371 -167.723)"/>
    <path id="패스_128" data-name="패스 128" d="M142.586,37.331h-4.43a1.51,1.51,0,1,1,0-3.021h4.43a1.51,1.51,0,1,1,0,3.021" transform="translate(-95.371 -23.946)"/>
  </g>
</svg>
