<svg id="그룹_651" data-name="그룹 651" xmlns="http://www.w3.org/2000/svg" xmlns:xlink="http://www.w3.org/1999/xlink" width="90" height="90" viewBox="0 0 90 90">
  <defs>
    <clipPath id="clip-path">
      <rect id="사각형_308" data-name="사각형 308" width="90" height="90" fill="none"/>
    </clipPath>
  </defs>
  <g id="그룹_650" data-name="그룹 650" clip-path="url(#clip-path)">
    <path id="패스_97" data-name="패스 97" d="M107,108.51H48.257a1.51,1.51,0,0,1,0-3.021H107a1.51,1.51,0,0,1,0,3.021" transform="translate(-32.627 -73.625)" fill="#e52f42"/>
    <path id="패스_98" data-name="패스 98" d="M234.238,196.459h-3.671a1.51,1.51,0,1,1,0-3.021h3.671a1.51,1.51,0,1,1,0,3.021" transform="translate(-159.869 -135.009)" fill="#e52f42"/>
    <path id="패스_99" data-name="패스 99" d="M92.8,196.459H48.257a1.51,1.51,0,1,1,0-3.021H92.8a1.51,1.51,0,1,1,0,3.021" transform="translate(-32.627 -135.009)" fill="#e52f42"/>
    <path id="패스_100" data-name="패스 100" d="M58.246,97.514A39.267,39.267,0,1,1,97.514,58.246,39.312,39.312,0,0,1,58.246,97.514m0-75.514A36.247,36.247,0,1,0,94.493,58.246,36.288,36.288,0,0,0,58.246,22" transform="translate(-13.246 -13.246)"/>
    <path id="패스_101" data-name="패스 101" d="M144.752,105.471a1.51,1.51,0,0,1-1.51-1.51v-64.5a1.51,1.51,0,0,1,3.021,0v64.5a1.51,1.51,0,0,1-1.51,1.51" transform="translate(-99.975 -26.49)"/>
    <path id="패스_102" data-name="패스 102" d="M78.994,108.151a1.506,1.506,0,0,1-1.131-.508C71.372,100.319,67.5,88.279,67.5,75.434c0-12.412,3.494-23.817,9.587-31.29a1.51,1.51,0,1,1,2.341,1.909c-5.578,6.841-8.908,17.825-8.908,29.381,0,12.127,3.591,23.419,9.607,30.2a1.51,1.51,0,0,1-1.129,2.512" transform="translate(-47.108 -30.422)"/>
    <path id="패스_103" data-name="패스 103" d="M187.174,164.649a1.51,1.51,0,0,1-1.125-2.517c6.062-6.776,9.682-18.1,9.682-30.288,0-1.938-.092-3.882-.273-5.78a1.51,1.51,0,0,1,3.007-.287c.19,1.992.287,4.033.287,6.067,0,12.912-3.907,24.987-10.451,32.3a1.507,1.507,0,0,1-1.126.5" transform="translate(-129.583 -86.832)"/>
    <path id="패스_104" data-name="패스 104" d="M196.252,59.153a1.511,1.511,0,0,1-1.44-1.057,37.568,37.568,0,0,0-6.531-12.571,1.51,1.51,0,1,1,2.327-1.926,40.594,40.594,0,0,1,7.084,13.589,1.512,1.512,0,0,1-1.441,1.965" transform="translate(-131.167 -30.048)"/>
  </g>
</svg>
