<svg id="그룹_661" data-name="그룹 661" xmlns="http://www.w3.org/2000/svg" xmlns:xlink="http://www.w3.org/1999/xlink" width="90" height="90" viewBox="0 0 90 90">
  <defs>
    <clipPath id="clip-path">
      <rect id="사각형_313" data-name="사각형 313" width="90" height="90" fill="none"/>
    </clipPath>
  </defs>
  <g id="그룹_660" data-name="그룹 660" clip-path="url(#clip-path)">
    <path id="패스_129" data-name="패스 129" d="M170.614,76.8H149.255a1.51,1.51,0,1,1,0-3.021H169.1V34.259H129.447v5.7a1.51,1.51,0,1,1-3.021,0V32.748a1.51,1.51,0,0,1,1.51-1.51h42.678a1.51,1.51,0,0,1,1.51,1.51V75.293a1.51,1.51,0,0,1-1.51,1.51" transform="translate(-88.238 -21.802)"/>
    <path id="패스_130" data-name="패스 130" d="M57.281,129.371H21.75a1.51,1.51,0,0,1-1.51-1.51V71.44a1.51,1.51,0,0,1,1.51-1.51H70.595a1.51,1.51,0,0,1,1.51,1.51v41.468a1.511,1.511,0,0,1-.382,1L58.409,128.865a1.51,1.51,0,0,1-1.128.506m-34.02-3.021H56.6l12.481-14.018V72.951H23.261Z" transform="translate(-14.126 -48.807)" fill="#e52f42"/>
    <path id="패스_131" data-name="패스 131" d="M139.379,225.188a1.51,1.51,0,0,1-1.51-1.51V208.724a1.51,1.51,0,0,1,1.51-1.51h13.314a1.51,1.51,0,0,1,1.128,2.515l-13.314,14.953a1.51,1.51,0,0,1-1.128.506m1.511-14.953v9.475l8.437-9.475Z" transform="translate(-96.225 -144.624)" fill="#e52f42"/>
    <path id="패스_132" data-name="패스 132" d="M83.976,125.738H55.552a1.51,1.51,0,0,1,0-3.021H83.976a1.51,1.51,0,0,1,0,3.021" transform="translate(-37.718 -85.649)"/>
    <path id="패스_133" data-name="패스 133" d="M83.976,159.615H55.552a1.51,1.51,0,1,1,0-3.021H83.976a1.51,1.51,0,0,1,0,3.021" transform="translate(-37.718 -109.294)"/>
    <path id="패스_134" data-name="패스 134" d="M73.93,192.861H55.552a1.51,1.51,0,1,1,0-3.021H73.93a1.51,1.51,0,1,1,0,3.021" transform="translate(-37.718 -132.497)"/>
  </g>
</svg>
