<svg id="그룹_655" data-name="그룹 655" xmlns="http://www.w3.org/2000/svg" xmlns:xlink="http://www.w3.org/1999/xlink" width="90" height="90" viewBox="0 0 90 90">
  <defs>
    <clipPath id="clip-path">
      <rect id="사각형_310" data-name="사각형 310" width="90" height="90" fill="none"/>
    </clipPath>
  </defs>
  <g id="그룹_654" data-name="그룹 654" clip-path="url(#clip-path)">
    <path id="패스_112" data-name="패스 112" d="M186.672,75.748a1.506,1.506,0,0,1-.738-.193l-17.607-9.881a1.51,1.51,0,0,1-.535-2.128,12.936,12.936,0,0,0-10.918-19.877,1.51,1.51,0,0,1-1.51-1.51V21.987a1.51,1.51,0,0,1,1.51-1.51,36.135,36.135,0,0,1,31.1,54.531,1.51,1.51,0,0,1-1.3.74M171.129,63.783l14.968,8.4a33.117,33.117,0,0,0-27.712-48.651V40.719a15.958,15.958,0,0,1,12.743,23.064" transform="translate(-108.436 -14.292)" fill="#e52f42"/>
    <path id="패스_113" data-name="패스 113" d="M167.61,213.241a1.511,1.511,0,0,1-1.508-1.427l-1.028-18.667a1.51,1.51,0,0,1,1.336-1.584,11.818,11.818,0,0,0,8.649-5.425,1.512,1.512,0,0,1,2.013-.506l16.307,9.152a1.51,1.51,0,0,1,.56,2.087,33.616,33.616,0,0,1-26.209,16.365c-.04,0-.08,0-.119,0m.555-18.907.866,15.729a30.6,30.6,0,0,0,21.487-13.421l-13.738-7.71a14.8,14.8,0,0,1-8.615,5.4" transform="translate(-115.21 -129.426)"/>
    <path id="패스_114" data-name="패스 114" d="M55.046,99.8a37.069,37.069,0,0,1,0-74.138,1.51,1.51,0,0,1,1.51,1.51V47.893a1.51,1.51,0,0,1-1.51,1.51,13.33,13.33,0,0,0,0,26.66,13.662,13.662,0,0,0,1.539-.089,1.51,1.51,0,0,1,1.678,1.418l1.141,20.7a1.511,1.511,0,0,1-1.388,1.589c-1.032.082-2,.122-2.97.122m-1.51-71.084a34.049,34.049,0,0,0,1.51,68.064c.416,0,.834-.008,1.259-.025L55.332,79.08l-.285,0a16.351,16.351,0,0,1-1.51-32.632Z" transform="translate(-12.548 -17.912)"/>
  </g>
</svg>
