<svg width="78" height="62" viewBox="0 0 78 62" fill="none" xmlns="http://www.w3.org/2000/svg">
<path d="M38.6214 25.9937C42.0946 18.9008 40.0489 10.7703 34.0522 7.83381C28.0554 4.89733 20.3785 8.26682 16.9052 15.3598C13.432 22.4527 15.4777 30.5831 21.4744 33.5196C27.4712 36.4561 35.1481 33.0866 38.6214 25.9937Z" fill="#E0F2F9"/>
<g style="mix-blend-mode:multiply">
<path d="M38.6214 25.9937C42.0946 18.9008 40.0489 10.7703 34.0522 7.83381C28.0554 4.89733 20.3785 8.26682 16.9052 15.3598C13.432 22.4527 15.4777 30.5831 21.4744 33.5196C27.4712 36.4561 35.1481 33.0866 38.6214 25.9937Z" fill="#E0F2F9"/>
</g>
<path d="M11.06 42.1008L12.06 46.0708L0.160034 46.9508L11.06 42.1008Z" fill="#E4A272"/>
<path d="M32.9713 56.9062C43.988 54.1328 50.9723 44.152 48.5711 34.6134C46.1699 25.0748 35.2924 19.5905 24.2756 22.3639C13.2588 25.1373 6.27459 35.118 8.67583 44.6566C11.0771 54.1952 21.9545 59.6795 32.9713 56.9062Z" fill="#FFF170"/>
<mask id="mask0_10_827" style="mask-type:luminance" maskUnits="userSpaceOnUse" x="8" y="21" width="42" height="37">
<path d="M32.9713 56.9062C43.988 54.1328 50.9723 44.152 48.5711 34.6134C46.1699 25.0748 35.2924 19.5905 24.2756 22.3639C13.2588 25.1373 6.27459 35.118 8.67583 44.6566C11.0771 54.1952 21.9545 59.6795 32.9713 56.9062Z" fill="white"/>
</mask>
<g mask="url(#mask0_10_827)">
<path d="M43.29 58.8508C45.68 58.2508 48.07 57.6508 50.46 57.0408C41.08 45.5908 37.3 30.5608 40.14 16.0408C37.75 16.6408 35.36 17.2408 32.97 17.8508C30.13 32.3708 33.91 47.4008 43.29 58.8508Z" fill="#E4A272"/>
<path d="M30.5499 61.8207C32.9399 61.2207 35.3299 60.6207 37.7199 60.0107C28.3399 48.5607 24.5599 33.5307 27.3999 19.0107C25.0099 19.6107 22.6199 20.2107 20.2299 20.8207C17.3899 35.3407 21.1699 50.3707 30.5499 61.8207Z" fill="#E4A272"/>
<path d="M18.2099 66.3608C20.5999 65.7608 22.9899 65.1608 25.3799 64.5508C15.9999 53.1008 12.2199 38.0708 15.0599 23.5508C12.6699 24.1508 10.2799 24.7508 7.88992 25.3608C5.04992 39.8808 8.82993 54.9108 18.2099 66.3608Z" fill="#E4A272"/>
</g>
<path d="M31.2292 31.041C35.1208 25.6153 33.0732 17.4853 26.6556 12.8823C20.238 8.2793 11.8807 8.94627 7.98907 14.372C4.09742 19.7978 6.14511 27.9278 12.5627 32.5308C18.9803 37.1338 27.3376 36.4668 31.2292 31.041Z" fill="#E0F2F9"/>
<path d="M57.71 2.40077C60.3 0.0707653 65.28 -1.02923 68.81 1.26077C70.24 2.19077 71.2499 4.03077 71.3899 5.95077C71.5099 7.59077 70.98 9.05077 69.93 9.97077C69.28 10.5408 68.4599 10.8008 67.6699 10.6908C66.8799 10.5808 66.1799 10.1008 65.6999 9.34077C65.1599 8.50077 65.0699 7.58077 65.4499 6.94077C65.7599 6.42077 66.36 6.15078 67.09 6.21078C67.49 6.24078 67.71 6.63078 67.69 6.96078C67.67 7.25078 67.48 7.46078 67.22 7.49078C66.8 7.91078 66.6 8.26077 66.65 8.51077C66.68 8.70077 66.85 8.86077 67.16 9.00077L67.21 9.02078L67.24 9.07076C67.54 9.49076 67.82 9.45077 68.01 9.39077H68.04H68.08C68.73 9.41077 69.24 8.93078 69.54 8.52078C70.2 7.62078 70.37 6.29077 70 5.06077C69.44 3.21077 68.28 2.14076 66.35 1.68076C62.68 0.810764 59.14 2.10077 56.87 5.14077C55.16 7.44077 53.87 10.5708 53.04 14.4508C52.22 18.2708 52.15 21.2708 52.79 23.8908L52.83 24.1008L52.43 24.2008L52.37 24.0108C51.46 20.9308 51.4999 17.1608 52.4799 12.8108C53.5499 8.08077 55.3099 4.59077 57.6999 2.44077L57.71 2.40077Z" fill="#E4A272"/>
<path d="M48.04 4.64072C50.39 2.06072 55.24 0.480729 58.97 2.41073C60.48 3.19073 61.67 4.92072 62 6.82072C62.28 8.44072 61.9 9.95073 60.95 10.9607C60.36 11.5907 59.57 11.9407 58.78 11.9007C57.99 11.8707 57.24 11.4607 56.69 10.7507C56.07 9.97072 55.89 9.06073 56.21 8.38073C56.47 7.83073 57.04 7.50073 57.77 7.49073C58.17 7.49073 58.42 7.84072 58.44 8.18072C58.45 8.47072 58.28 8.69072 58.03 8.75072C57.65 9.21072 57.49 9.58073 57.56 9.83073C57.61 10.0107 57.8 10.1607 58.11 10.2607L58.16 10.2807L58.2 10.3207C58.53 10.7107 58.82 10.6407 59 10.5607H59.03L59.07 10.5407C59.72 10.5007 60.17 9.97072 60.43 9.53072C61 8.57072 61.04 7.23072 60.54 6.04072C59.8 4.26072 58.54 3.30072 56.57 3.04072C52.83 2.54072 49.43 4.17072 47.48 7.42072C46 9.88072 45.03 13.1207 44.59 17.0607C44.16 20.9407 44.37 23.9307 45.27 26.4707L45.33 26.6807L44.94 26.8107L44.86 26.6207C43.65 23.6407 43.31 19.8907 43.87 15.4607C44.47 10.6507 45.87 7.00072 48.04 4.62072V4.64072Z" fill="#E4A272"/>
<path d="M65.1356 45.555C71.8387 38.4245 71.4921 27.2102 64.3616 20.5071C57.2311 13.8041 46.0167 14.1506 39.3137 21.2812C32.6107 28.4117 32.9572 39.626 40.0877 46.3291C47.2183 53.0321 58.4326 52.6856 65.1356 45.555Z" fill="#FFF170"/>
<path d="M61.52 28.4207C61.73 29.2707 62.6 29.7907 63.45 29.5707C64.3 29.3507 64.82 28.4907 64.6 27.6407C64.38 26.7907 63.52 26.2707 62.67 26.4907C61.82 26.7007 61.3 27.5707 61.52 28.4207Z" fill="#E4A272"/>
<path d="M48.6301 31.6607C48.8401 32.5107 49.7101 33.0307 50.5601 32.8107C51.4101 32.5907 51.9301 31.7307 51.7101 30.8807C51.4901 30.0307 50.6301 29.5107 49.7801 29.7307C48.9301 29.9507 48.4101 30.8107 48.6301 31.6607Z" fill="#E4A272"/>
<path d="M59.25 42.2708C59.4 42.2308 59.55 42.1908 59.71 42.1408C62.79 41.2008 64.92 38.8908 65.15 36.2408C65.17 35.9708 64.97 35.7308 64.7 35.7008C64.43 35.6808 64.19 35.8808 64.16 36.1508C63.97 38.3908 62.11 40.3708 59.42 41.1908C56.63 42.0508 53.84 41.3708 52.33 39.4808C52.16 39.2708 51.85 39.2309 51.63 39.4009C51.42 39.5709 51.38 39.8808 51.55 40.1008C53.23 42.2008 56.22 43.0308 59.25 42.2608V42.2708Z" fill="#E4A272"/>
</svg>
